<svg xmlns="http://www.w3.org/2000/svg" xmlns:xlink="http://www.w3.org/1999/xlink" width="110" height="110" viewBox="0 0 110 110">
  <defs>
    <filter id="Trazado_982547" x="0" y="0" width="110" height="110" filterUnits="userSpaceOnUse">
      <feOffset dy="3" input="SourceAlpha"/>
      <feGaussianBlur stdDeviation="3" result="blur"/>
      <feFlood flood-opacity="0.161"/>
      <feComposite operator="in" in2="blur"/>
      <feComposite in="SourceGraphic"/>
    </filter>
  </defs>
  <g id="Grupo_1183744" data-name="Grupo 1183744" transform="translate(-688.044 -2814)">
    <g id="Grupo_1181546" data-name="Grupo 1181546" transform="translate(-4.696 -130.677)">
      <g id="Grupo_1177563" data-name="Grupo 1177563" transform="translate(0.279 -12113.323)">
        <g id="Grupo_1173148" data-name="Grupo 1173148" transform="translate(701.461 15064)">
          <g id="Grupo_1163803" data-name="Grupo 1163803" transform="translate(0 0)">
            <g id="Grupo_1163015" data-name="Grupo 1163015">
              <g id="Grupo_1157017" data-name="Grupo 1157017" transform="translate(0 0)">
                <g id="Grupo_1155793" data-name="Grupo 1155793" transform="translate(0 0)">
                  <g id="Grupo_1154704" data-name="Grupo 1154704">
                    <g id="Grupo_1150790" data-name="Grupo 1150790">
                      <g id="Grupo_1154214" data-name="Grupo 1154214">
                        <g id="Grupo_1152583" data-name="Grupo 1152583">
                          <g id="Grupo_1146973" data-name="Grupo 1146973" transform="translate(0 0)">
                            <g id="Grupo_1146954" data-name="Grupo 1146954">
                              <g transform="matrix(1, 0, 0, 1, -9, -6)" filter="url(#Trazado_982547)">
                                <g id="Trazado_982547-2" data-name="Trazado 982547" transform="translate(9 6)" fill="#f2f7e5">
                                  <path d="M 46.00000381469727 90.49988555908203 C 39.99188232421875 90.49988555908203 34.16427230834961 89.32352447509766 28.67905807495117 87.00347137451172 C 23.38020324707031 84.76226043701172 18.62103080749512 81.55342864990234 14.53375053405762 77.46615600585938 C 10.44645690917969 73.37887573242188 7.237643718719482 68.61971282958984 4.996417045593262 63.32085800170898 C 2.676363706588745 57.83565902709961 1.500003814697266 52.00806045532227 1.500003814697266 45.99993896484375 C 1.500003814697266 39.99181747436523 2.676363706588745 34.16421890258789 4.996417045593262 28.67901802062988 C 7.237643718719482 23.38017845153809 10.44645690917969 18.62101936340332 14.53375053405762 14.53373908996582 C 18.62103080749512 10.44645881652832 23.38020324707031 7.237632274627686 28.67905807495117 4.996418952941895 C 34.16427230834961 2.676365613937378 39.99188232421875 1.500005602836609 46.00000381469727 1.500005602836609 C 52.00812530517578 1.500005602836609 57.83573532104492 2.676365613937378 63.32094955444336 4.996418952941895 C 68.61980438232422 7.237632274627686 73.37896728515625 10.44645881652832 77.46625518798828 14.53373908996582 C 81.55353546142578 18.62101936340332 84.76236724853516 23.38017845153809 87.00359344482422 28.67901802062988 C 89.32364654541016 34.16421890258789 90.5 39.99181747436523 90.5 45.99993896484375 C 90.5 52.00806045532227 89.32364654541016 57.83565902709961 87.00359344482422 63.32085800170898 C 84.76236724853516 68.61971282958984 81.55353546142578 73.37887573242188 77.46625518798828 77.46615600585938 C 73.37896728515625 81.55342864990234 68.61980438232422 84.76226043701172 63.32094955444336 87.00347137451172 C 57.83573532104492 89.32352447509766 52.00812530517578 90.49988555908203 46.00000381469727 90.49988555908203 Z" stroke="none"/>
                                  <path d="M 46.00000381469727 2.999992370605469 C 40.19371795654297 2.999992370605469 34.56270217895508 4.136497497558594 29.26338958740234 6.377906799316406 C 24.14333343505859 8.543510437011719 19.54441833496094 11.64437866210938 15.59440612792969 15.59439849853516 C 11.64440155029297 19.54439544677734 8.54351806640625 24.14329528808594 6.377914428710938 29.26335144042969 C 4.136505126953125 34.56266784667969 3.000007629394531 40.19366836547852 3.000007629394531 45.99993896484375 C 3.000007629394531 51.80620956420898 4.136505126953125 57.43722534179688 6.377914428710938 62.73654174804688 C 8.54351806640625 67.85658264160156 11.64440155029297 72.45548248291016 15.59440612792969 76.40549468994141 C 19.54441833496094 80.35549926757812 24.14333343505859 83.45636749267578 29.26337432861328 85.62196350097656 C 34.56270217895508 87.86338043212891 40.19371795654297 88.9998779296875 46.00000381469727 88.9998779296875 C 51.80628967285156 88.9998779296875 57.43730545043945 87.86338043212891 62.73663330078125 85.62196350097656 C 67.85667419433594 83.45636749267578 72.45558929443359 80.35549926757812 76.40560150146484 76.40549468994141 C 80.35560607910156 72.45548248291016 83.45648956298828 67.85658264160156 85.62208557128906 62.73654174804688 C 87.86350250244141 57.43722534179688 89 51.80620956420898 89 45.99993896484375 C 89 40.19366836547852 87.86350250244141 34.56266784667969 85.62208557128906 29.26335144042969 C 83.45648956298828 24.14329528808594 80.35560607910156 19.54439544677734 76.40560150146484 15.59439849853516 C 72.45558929443359 11.64437866210938 67.85667419433594 8.543510437011719 62.73661804199219 6.377906799316406 C 57.43730545043945 4.136497497558594 51.80628967285156 2.999992370605469 46.00000381469727 2.999992370605469 M 46.00000381469727 -7.62939453125e-06 C 71.40510559082031 -7.62939453125e-06 92 20.59487915039062 92 45.99993896484375 C 92 71.40501403808594 71.40510559082031 91.99988555908203 46.00000381469727 91.99988555908203 C 20.59490203857422 91.99988555908203 7.62939453125e-06 71.40501403808594 7.62939453125e-06 45.99993896484375 C 7.62939453125e-06 20.59487915039062 20.59490203857422 -7.62939453125e-06 46.00000381469727 -7.62939453125e-06 Z" stroke="none" fill="#86b60c"/>
                                </g>
                              </g>
                            </g>
                          </g>
                        </g>
                      </g>
                    </g>
                  </g>
                </g>
              </g>
            </g>
          </g>
        </g>
      </g>
    </g>
    <g id="Layer_50" data-name="Layer 50" transform="translate(713.034 2834.994)">
      <path id="Trazado_1044034" data-name="Trazado 1044034" d="M159.348,340l-.012-11.906-5.419.006,0,3.737-12.178.013a2.355,2.355,0,0,0-2.354,2.358l.006,5.813a5.717,5.717,0,0,0,5.723,5.711l8.518-.009A5.718,5.718,0,0,0,159.348,340Z" transform="translate(-123.596 -290.937)" fill="#0a9bd8"/>
      <path id="Trazado_1044035" data-name="Trazado 1044035" d="M139.79,341.1a6.4,6.4,0,0,1-6.4-6.389l-.006-5.813a3.039,3.039,0,0,1,3.032-3.039l11.5-.011,0-3.057a.679.679,0,0,1,.679-.68l5.42-.006h0a.679.679,0,0,1,.679.679l.012,11.906a6.4,6.4,0,0,1-6.391,6.4l-8.519.009Zm9.486-17.633,0,3.057a.679.679,0,0,1-.679.68l-12.178.013a1.679,1.679,0,0,0-1.675,1.678l.006,5.813a5.037,5.037,0,0,0,5.037,5.032h.005l8.518-.009a5.039,5.039,0,0,0,5.034-5.043l-.011-11.227Z" transform="translate(-118.275 -285.622)"/>
      <path id="Trazado_1044036" data-name="Trazado 1044036" d="M196.506,456.782a4.021,4.021,0,0,0-4.021-3.859h-1.072a4.02,4.02,0,0,0-4.013,3.867Z" transform="translate(-166.171 -401.631)" fill="#efcdb1"/>
      <path id="Trazado_1044037" data-name="Trazado 1044037" d="M182.076,452.149a.679.679,0,0,1-.679-.7,4.684,4.684,0,0,1,4.691-4.521h1.077a4.684,4.684,0,0,1,4.7,4.511.679.679,0,0,1-.678.706l-9.106.01Zm5.09-3.868H186.09a3.329,3.329,0,0,0-3.234,2.507l7.545-.008A3.329,3.329,0,0,0,187.165,448.281Z" transform="translate(-160.847 -396.31)"/>
      <path id="Trazado_1044038" data-name="Trazado 1044038" d="M222.2,404.942a.679.679,0,0,1-.679-.679l0-4.7a.679.679,0,0,1,.679-.68h0a.679.679,0,0,1,.679.679l0,4.7a.679.679,0,0,1-.679.68Z" transform="translate(-196.425 -353.708)"/>
      <path id="Trazado_1044039" data-name="Trazado 1044039" d="M196.484,490.1l0-2.949c0-.053,0-.105,0-.159l-9.106.01c0,.053,0,.1,0,.159l0,2.949a4.02,4.02,0,0,0,4.025,4.017h1.072A4.021,4.021,0,0,0,196.484,490.1Z" transform="translate(-166.141 -431.847)" fill="#8a5d3b"/>
      <path id="Trazado_1044040" data-name="Trazado 1044040" d="M186.066,489.492a4.7,4.7,0,0,1-4.7-4.7l0-2.948c0-.065,0-.128,0-.193a.679.679,0,0,1,.678-.645l9.107-.01h0a.679.679,0,0,1,.678.644c0,.065.005.128.005.192l0,2.949a4.7,4.7,0,0,1-4.7,4.705h-1.072Zm-3.344-7.125,0,2.428a3.341,3.341,0,0,0,3.342,3.338h1.076a3.342,3.342,0,0,0,3.338-3.345l0-2.428Z" transform="translate(-160.818 -426.529)"/>
      <path id="Trazado_1044041" data-name="Trazado 1044041" d="M267.732,366.191l.005,4.992" transform="translate(-237.407 -324.72)" fill="#272d33"/>
      <path id="Trazado_1044042" data-name="Trazado 1044042" d="M262.416,366.541a.679.679,0,0,1-.679-.679l-.005-4.992a.679.679,0,0,1,.679-.68h0a.679.679,0,0,1,.679.679l.005,4.992a.679.679,0,0,1-.679.68Z" transform="translate(-232.086 -319.4)"/>
      <path id="Trazado_1044043" data-name="Trazado 1044043" d="M273.086,294.483l0-2.966a1.327,1.327,0,0,0-1.329-1.326l-2.764,0a1.328,1.328,0,0,0-1.326,1.329l0,2.966Z" transform="translate(-237.346 -257.326)" fill="#efcdb1"/>
      <path id="Trazado_1044044" data-name="Trazado 1044044" d="M262.346,289.847a.679.679,0,0,1-.679-.679l0-2.966a2.009,2.009,0,0,1,2-2.009l2.765,0h0a2.009,2.009,0,0,1,2.008,2.005l0,2.966a.679.679,0,0,1-.679.68l-5.419.006Zm4.089-4.3h0l-2.765,0a.649.649,0,0,0-.647.649l0,2.286,4.061,0,0-2.286a.649.649,0,0,0-.649-.647Z" transform="translate(-232.025 -252.005)"/>
      <path id="Trazado_1044045" data-name="Trazado 1044045" d="M336.717,262.655l-11.207-4.021-1.83,5.1L327.2,265l-4.113,11.463a2.355,2.355,0,0,0,1.422,3.013l5.472,1.963a5.717,5.717,0,0,0,7.312-3.45l2.877-8.018A5.718,5.718,0,0,0,336.717,262.655Z" transform="translate(-286.368 -229.342)" fill="#89c45e"/>
      <path id="Trazado_1044046" data-name="Trazado 1044046" d="M326.589,277.131a6.365,6.365,0,0,1-2.154-.376l-5.471-1.963a3.039,3.039,0,0,1-1.832-3.882l3.884-10.823-2.878-1.033a.679.679,0,0,1-.41-.869l1.83-5.1a.679.679,0,0,1,.869-.41l11.207,4.021a6.4,6.4,0,0,1,3.86,8.182l-2.877,8.018A6.408,6.408,0,0,1,326.589,277.131ZM319.236,258l2.878,1.033a.679.679,0,0,1,.41.869l-4.113,11.463a1.679,1.679,0,0,0,1.012,2.144l5.472,1.964a5.043,5.043,0,0,0,6.443-3.04l2.877-8.018a5.044,5.044,0,0,0-3.039-6.444l-10.567-3.792Z" transform="translate(-281.055 -224.021)"/>
      <path id="Trazado_1044047" data-name="Trazado 1044047" d="M435.153,355.906a4.021,4.021,0,0,0-4.993,2.476l-.362,1.009a4.02,4.02,0,0,0,2.279,5.086Z" transform="translate(-380.912 -315.435)" fill="#efcdb1"/>
      <path id="Trazado_1044048" data-name="Trazado 1044048" d="M426.724,359.8a.678.678,0,0,1-.254-.049,4.684,4.684,0,0,1-2.665-5.946l.362-1.009a4.684,4.684,0,0,1,5.837-2.895.679.679,0,0,1,.435.878l-3.076,8.572a.679.679,0,0,1-.639.45Zm1.857-8.76a3.33,3.33,0,0,0-3.135,2.215l-.362,1.009a3.329,3.329,0,0,0,1.264,3.892l2.548-7.1q-.157-.015-.314-.015Z" transform="translate(-375.558 -310.081)"/>
      <path id="Trazado_1044049" data-name="Trazado 1044049" d="M387.134,364.42a.679.679,0,0,1-.229-.04l-4.427-1.589a.679.679,0,1,1,.459-1.279l4.427,1.589a.679.679,0,0,1-.23,1.319Z" transform="translate(-338.76 -320.535)"/>
      <path id="Trazado_1044050" data-name="Trazado 1044050" d="M457.787,358.407l-2.776-1c-.05-.018-.1-.034-.15-.05l-3.076,8.571c.049.021.1.039.147.057l2.776,1a4.02,4.02,0,0,0,5.143-2.427l.362-1.009A4.021,4.021,0,0,0,457.787,358.407Z" transform="translate(-400.619 -316.89)" fill="#8a5d3b"/>
      <path id="Trazado_1044051" data-name="Trazado 1044051" d="M450.749,362.59a4.7,4.7,0,0,1-1.591-.279l-2.776-1c-.061-.022-.12-.045-.179-.069a.679.679,0,0,1-.378-.857l3.076-8.571a.679.679,0,0,1,.837-.421c.062.019.122.039.183.06l2.775,1a4.706,4.706,0,0,1,2.837,6.012l-.362,1.009a4.709,4.709,0,0,1-4.421,3.116Zm-3.418-2.378,2.285.82a3.34,3.34,0,0,0,4.274-2.017l.362-1.009a3.346,3.346,0,0,0-2.017-4.274l-2.285-.82Z" transform="translate(-395.297 -311.575)"/>
      <path id="Trazado_1044052" data-name="Trazado 1044052" d="M365.251,316.532l4.7,1.686" transform="translate(-323.883 -280.684)" fill="#272d33"/>
      <path id="Trazado_1044053" data-name="Trazado 1044053" d="M364.627,313.575a.679.679,0,0,1-.229-.04l-4.7-1.686a.679.679,0,1,1,.459-1.279l4.7,1.686a.679.679,0,0,1-.229,1.319Z" transform="translate(-318.561 -275.362)"/>
      <path id="Trazado_1044054" data-name="Trazado 1044054" d="M302.514,250.174l-2.791-1a1.327,1.327,0,0,0-1.7.8l-.934,2.6a1.328,1.328,0,0,0,.8,1.7l2.792,1Z" transform="translate(-263.371 -220.882)" fill="#efcdb1"/>
      <path id="Trazado_1044055" data-name="Trazado 1044055" d="M295.367,250.635a.678.678,0,0,1-.229-.04l-2.792-1a2.008,2.008,0,0,1-1.212-2.567l.934-2.6a2.009,2.009,0,0,1,2.567-1.212l2.792,1a.679.679,0,0,1,.41.869l-1.83,5.1a.679.679,0,0,1-.64.45Zm-1.409-6.181a.649.649,0,0,0-.611.429l-.934,2.6a.649.649,0,0,0,.391.829l2.151.772,1.371-3.822-2.151-.772A.643.643,0,0,0,293.958,244.454Z" transform="translate(-258.055 -215.563)"/>
      <path id="Trazado_1044056" data-name="Trazado 1044056" d="M302.551,115.016l-7.04,9.6,4.371,3.2,2.21-3.014,9.821,7.2a2.355,2.355,0,0,0,3.293-.507l3.437-4.688a5.717,5.717,0,0,0-1.23-7.991l-6.87-5.037A5.718,5.718,0,0,0,302.551,115.016Z" transform="translate(-262.04 -99.915)" fill="#fdc00f"/>
      <path id="Trazado_1044057" data-name="Trazado 1044057" d="M307.97,127.84a3.012,3.012,0,0,1-1.789-.588l-9.274-6.8-1.808,2.466a.679.679,0,0,1-.95.146l-4.371-3.2a.679.679,0,0,1-.146-.95l7.04-9.6a6.4,6.4,0,0,1,8.942-1.375l6.871,5.038a6.4,6.4,0,0,1,1.376,8.941l-3.437,4.688a3.016,3.016,0,0,1-1.985,1.205,3.078,3.078,0,0,1-.469.036Zm-11.208-9.017a.676.676,0,0,1,.4.132l9.821,7.2a1.676,1.676,0,0,0,2.344-.361l3.437-4.688a5.038,5.038,0,0,0-1.084-7.041l-6.87-5.037a5.044,5.044,0,0,0-7.042,1.083l-6.638,9.054,3.275,2.4,1.808-2.466a.679.679,0,0,1,.548-.277Z" transform="translate(-256.711 -94.609)"/>
      <path id="Trazado_1044058" data-name="Trazado 1044058" d="M422.681,118.315a4.021,4.021,0,0,0,.955,5.49l.865.634a4.02,4.02,0,0,0,5.524-.74Z" transform="translate(-374.201 -104.912)" fill="#efcdb1"/>
      <path id="Trazado_1044059" data-name="Trazado 1044059" d="M421.513,120.581a4.692,4.692,0,0,1-2.782-.915l-.865-.634a4.684,4.684,0,0,1-1.117-6.419.679.679,0,0,1,.965-.168l7.344,5.384a.679.679,0,0,1,.13.97A4.681,4.681,0,0,1,421.513,120.581ZM417.54,114a3.329,3.329,0,0,0,1.129,3.933l.865.634a3.329,3.329,0,0,0,4.091-.106Z" transform="translate(-368.832 -99.591)"/>
      <path id="Trazado_1044060" data-name="Trazado 1044060" d="M406.6,174.009a.679.679,0,0,1-.547-1.081l2.781-3.793a.68.68,0,0,1,1.1.8l-2.781,3.793A.678.678,0,0,1,406.6,174.009Z" transform="translate(-359.946 -149.731)"/>
      <path id="Trazado_1044061" data-name="Trazado 1044061" d="M429.9,83.292l-1.744,2.378c-.031.043-.061.086-.091.13l7.344,5.384c.034-.041.065-.082.1-.125l1.744-2.378a4.02,4.02,0,0,0-.865-5.62l-.865-.634A4.021,4.021,0,0,0,429.9,83.292Z" transform="translate(-379.582 -72.398)" fill="#8a5d3b"/>
      <path id="Trazado_1044062" data-name="Trazado 1044062" d="M430.088,86.563a.677.677,0,0,1-.4-.131l-7.344-5.384a.679.679,0,0,1-.165-.922c.036-.054.071-.106.11-.158l1.744-2.378a4.706,4.706,0,0,1,6.57-1.012l.865.634a4.7,4.7,0,0,1,1.012,6.57l-1.744,2.378c-.038.052-.077.1-.118.153A.678.678,0,0,1,430.088,86.563Zm-6.4-6.213,6.255,4.586,1.436-1.958a3.345,3.345,0,0,0-.719-4.671l-.865-.634a3.346,3.346,0,0,0-4.671.719Z" transform="translate(-374.264 -67.096)"/>
      <path id="Trazado_1044063" data-name="Trazado 1044063" d="M356.6,184.2l2.951-4.026" transform="translate(-316.216 -159.764)" fill="#272d33"/>
      <path id="Trazado_1044064" data-name="Trazado 1044064" d="M351.283,179.556a.679.679,0,0,1-.547-1.081l2.951-4.026a.68.68,0,0,1,1.1.8l-2.951,4.025A.678.678,0,0,1,351.283,179.556Z" transform="translate(-310.896 -154.444)"/>
      <path id="Trazado_1044065" data-name="Trazado 1044065" d="M279.765,218.108l-1.754,2.392a1.327,1.327,0,0,0,.286,1.856l2.229,1.635a1.328,1.328,0,0,0,1.855-.286l1.754-2.392Z" transform="translate(-246.294 -193.405)" fill="#efcdb1"/>
      <path id="Trazado_1044066" data-name="Trazado 1044066" d="M275.986,219.6a1.992,1.992,0,0,1-1.182-.389l-2.229-1.634a2.007,2.007,0,0,1-.432-2.805l1.753-2.392a.679.679,0,0,1,.95-.146l4.371,3.2a.679.679,0,0,1,.146.95l-1.754,2.392a1.994,1.994,0,0,1-1.313.8A2.049,2.049,0,0,1,275.986,219.6Zm-1.4-5.869-1.352,1.844a.648.648,0,0,0,.139.906l2.23,1.635a.649.649,0,0,0,.906-.139l1.352-1.844Z" transform="translate(-240.974 -188.084)"/>
      <path id="Trazado_1044067" data-name="Trazado 1044067" d="M65.1,185.575l11.048-4.439-2.02-5.029L70.656,177.5l-4.541-11.3a2.355,2.355,0,0,0-3.065-1.308l-5.394,2.167a5.717,5.717,0,0,0-3.173,7.436l3.176,7.9a5.718,5.718,0,0,0,7.437,3.175Z" transform="translate(-47.938 -146.064)" fill="#3d5ca9"/>
      <path id="Trazado_1044068" data-name="Trazado 1044068" d="M57.662,181.363a6.412,6.412,0,0,1-5.936-4.016l-3.176-7.9a6.4,6.4,0,0,1,3.551-8.32l5.394-2.167a3.039,3.039,0,0,1,3.948,1.685l4.287,10.67,2.837-1.14a.679.679,0,0,1,.883.377l2.021,5.029a.679.679,0,0,1-.377.883L60.047,180.9A6.389,6.389,0,0,1,57.662,181.363Zm.962-21.268a1.667,1.667,0,0,0-.623.121l-5.394,2.167a5.043,5.043,0,0,0-2.8,6.553l3.176,7.9a5.039,5.039,0,0,0,6.553,2.8l10.418-4.185-1.514-3.768-2.837,1.14a.679.679,0,0,1-.883-.377l-4.541-11.3a1.679,1.679,0,0,0-1.558-1.051Z" transform="translate(-42.636 -140.757)"/>
      <path id="Trazado_1044069" data-name="Trazado 1044069" d="M57.167,256.457a4.021,4.021,0,0,0,2.087-5.168l-.4-.995a4.02,4.02,0,0,0-5.082-2.287Z" transform="translate(-47.675 -219.71)" fill="#efcdb1"/>
      <path id="Trazado_1044070" data-name="Trazado 1044070" d="M51.847,251.782a.679.679,0,0,1-.63-.426l-3.4-8.45a.679.679,0,0,1,.4-.893,4.684,4.684,0,0,1,5.941,2.674l.4.995a4.684,4.684,0,0,1-2.44,6.041.679.679,0,0,1-.277.059Zm-2.473-8.658,2.813,7a3.329,3.329,0,0,0,1.117-3.936l-.4-.995a3.329,3.329,0,0,0-3.53-2.069Z" transform="translate(-42.354 -214.356)"/>
      <path id="Trazado_1044071" data-name="Trazado 1044071" d="M101.131,253.632a.679.679,0,0,1-.254-1.31l4.364-1.754a.679.679,0,0,1,.507,1.261l-4.364,1.754A.679.679,0,0,1,101.131,253.632Z" transform="translate(-89.067 -222.146)"/>
      <path id="Trazado_1044072" data-name="Trazado 1044072" d="M11.934,259.459l2.736-1.1c.049-.02.1-.04.145-.063l-3.4-8.45c-.05.017-.1.036-.148.055L8.537,251a4.02,4.02,0,0,0-2.233,5.23l.4.995a4.021,4.021,0,0,0,5.23,2.232Z" transform="translate(-5.324 -221.55)" fill="#8a5d3b"/>
      <path id="Trazado_1044073" data-name="Trazado 1044073" d="M5.111,255.109A4.711,4.711,0,0,1,.75,252.159l-.4-.995A4.7,4.7,0,0,1,2.96,245.05l2.736-1.1c.06-.024.119-.046.18-.067a.679.679,0,0,1,.852.389l3.395,8.45a.679.679,0,0,1-.346.87c-.059.027-.116.052-.176.076l-2.737,1.1A4.7,4.7,0,0,1,5.111,255.109Zm.608-9.7-2.253.905a3.341,3.341,0,0,0-1.855,4.347l.4.995a3.342,3.342,0,0,0,4.347,1.855l2.253-.905Z" transform="translate(0 -216.229)"/>
      <path id="Trazado_1044074" data-name="Trazado 1044074" d="M159.595,279.464l-4.632,1.861" transform="translate(-137.407 -247.814)" fill="#272d33"/>
      <path id="Trazado_1044075" data-name="Trazado 1044075" d="M149.639,276.683a.679.679,0,0,1-.254-1.31l4.631-1.861a.679.679,0,0,1,.507,1.261l-4.631,1.861A.677.677,0,0,1,149.639,276.683Z" transform="translate(-132.083 -242.492)"/>
      <path id="Trazado_1044076" data-name="Trazado 1044076" d="M233.192,260.9l2.752-1.106a1.327,1.327,0,0,0,.737-1.727l-1.03-2.565a1.328,1.328,0,0,0-1.727-.737l-2.752,1.106Z" transform="translate(-204.987 -225.824)" fill="#efcdb1"/>
      <path id="Trazado_1044077" data-name="Trazado 1044077" d="M227.868,256.262a.679.679,0,0,1-.631-.426l-2.021-5.029a.679.679,0,0,1,.377-.883l2.752-1.106a2.009,2.009,0,0,1,2.611,1.114l1.03,2.565a2.009,2.009,0,0,1-1.114,2.61l-2.752,1.106A.678.678,0,0,1,227.868,256.262Zm-1.137-5.331,1.514,3.768,2.122-.852a.649.649,0,0,0,.36-.843l-1.03-2.565a.649.649,0,0,0-.843-.36Z" transform="translate(-199.662 -220.51)"/>
      <path id="Trazado_1044078" data-name="Trazado 1044078" d="M161.215,53.966l6.6,9.911,4.511-3-2.071-3.111,10.138-6.749a2.355,2.355,0,0,0,.656-3.267l-3.221-4.839a5.717,5.717,0,0,0-7.927-1.591l-7.091,4.72A5.718,5.718,0,0,0,161.215,53.966Z" transform="translate(-142.102 -35.784)" fill="#be1e2d"/>
      <path id="Trazado_1044079" data-name="Trazado 1044079" d="M162.491,59.259a.679.679,0,0,1-.566-.3l-6.6-9.911a6.4,6.4,0,0,1,1.781-8.87l7.091-4.72a6.4,6.4,0,0,1,8.869,1.78l3.221,4.839a3.035,3.035,0,0,1-.845,4.209l-9.572,6.372,1.694,2.545a.679.679,0,0,1-.189.942l-4.511,3A.679.679,0,0,1,162.491,59.259Zm5.246-23.516a5.009,5.009,0,0,0-2.784.843l-7.091,4.72a5.039,5.039,0,0,0-1.4,6.986l6.221,9.346,3.38-2.25-1.694-2.545a.679.679,0,0,1,.189-.942l10.138-6.749a1.676,1.676,0,0,0,.467-2.325l-3.221-4.839A5.037,5.037,0,0,0,167.737,35.744Z" transform="translate(-136.78 -30.486)"/>
      <path id="Trazado_1044080" data-name="Trazado 1044080" d="M178.824,49.757a4.021,4.021,0,0,0,5.485.99l.892-.594a4.02,4.02,0,0,0,1.2-5.442Z" transform="translate(-158.566 -39.643)" fill="#efcdb1"/>
      <path id="Trazado_1044081" data-name="Trazado 1044081" d="M176.757,46.786a4.682,4.682,0,0,1-3.8-1.951.679.679,0,0,1,.175-.962l7.58-5.046a.679.679,0,0,1,.956.211,4.684,4.684,0,0,1-1.407,6.362l-.893.594A4.694,4.694,0,0,1,176.757,46.786Zm-2.226-2.215a3.329,3.329,0,0,0,4.082.291l.892-.594a3.329,3.329,0,0,0,1.307-3.878Z" transform="translate(-153.246 -34.323)"/>
      <path id="Trazado_1044082" data-name="Trazado 1044082" d="M232.1,100.078a.679.679,0,0,1-.566-.3l-2.606-3.915a.679.679,0,0,1,1.131-.753l2.606,3.915a.679.679,0,0,1-.565,1.056Z" transform="translate(-202.895 -84.063)"/>
      <path id="Trazado_1044083" data-name="Trazado 1044083" d="M158.309,12.853l1.634,2.455c.03.044.059.087.091.13l7.581-5.046c-.027-.045-.055-.09-.084-.134L165.9,7.8a4.021,4.021,0,0,0-5.576-1.119l-.892.594A4.021,4.021,0,0,0,158.309,12.853Z" transform="translate(-139.776 -5.323)" fill="#8a5d3b"/>
      <path id="Trazado_1044084" data-name="Trazado 1044084" d="M154.714,10.794a.679.679,0,0,1-.547-.275c-.038-.052-.075-.1-.11-.157l-1.634-2.455a4.7,4.7,0,0,1,1.308-6.518l.893-.594A4.7,4.7,0,0,1,161.141,2.1l1.634,2.454c.036.054.069.107.1.163a.679.679,0,0,1-.207.913l-7.58,5.046A.677.677,0,0,1,154.714,10.794Zm2.508-9.43a3.319,3.319,0,0,0-1.846.561l-.892.594a3.342,3.342,0,0,0-.93,4.634L154.9,9.175l6.456-4.3L160.01,2.856a3.32,3.32,0,0,0-2.124-1.425,3.375,3.375,0,0,0-.664-.067Z" transform="translate(-134.455 0)"/>
      <path id="Trazado_1044085" data-name="Trazado 1044085" d="M224.077,157.319l-2.766-4.155" transform="translate(-196.242 -135.815)" fill="#272d33"/>
      <path id="Trazado_1044086" data-name="Trazado 1044086" d="M218.756,152.678a.679.679,0,0,1-.566-.3l-2.766-4.155a.679.679,0,0,1,1.131-.753l2.766,4.155a.679.679,0,0,1-.565,1.056Z" transform="translate(-190.921 -130.494)"/>
      <path id="Trazado_1044087" data-name="Trazado 1044087" d="M226.982,224.533,228.625,227a1.327,1.327,0,0,0,1.841.369l2.3-1.532a1.328,1.328,0,0,0,.369-1.841l-1.643-2.469Z" transform="translate(-201.271 -196.44)" fill="#efcdb1"/>
      <path id="Trazado_1044088" data-name="Trazado 1044088" d="M224.412,222.952a2.006,2.006,0,0,1-1.674-.895l-1.643-2.469a.679.679,0,0,1,.189-.942l4.512-3a.679.679,0,0,1,.942.189l1.643,2.469a2.008,2.008,0,0,1-.559,2.783l-2.3,1.532A2,2,0,0,1,224.412,222.952Zm-1.81-3.55,1.267,1.9a.649.649,0,0,0,.9.18l2.3-1.532a.649.649,0,0,0,.18-.9l-1.267-1.9Z" transform="translate(-195.95 -191.119)"/>
    </g>
  </g>
</svg>
