<svg xmlns="http://www.w3.org/2000/svg" xmlns:xlink="http://www.w3.org/1999/xlink" width="110" height="110" viewBox="0 0 110 110">
  <defs>
    <filter id="Trazado_982547" x="0" y="0" width="110" height="110" filterUnits="userSpaceOnUse">
      <feOffset dy="3" input="SourceAlpha"/>
      <feGaussianBlur stdDeviation="3" result="blur"/>
      <feFlood flood-opacity="0.161"/>
      <feComposite operator="in" in2="blur"/>
      <feComposite in="SourceGraphic"/>
    </filter>
  </defs>
  <g id="Grupo_1183747" data-name="Grupo 1183747" transform="translate(-9021 -2764)">
    <g id="Grupo_1181562" data-name="Grupo 1181562" transform="translate(8643.539 -180)">
      <g id="Grupo_1177562" data-name="Grupo 1177562" transform="translate(0 -12113)">
        <g id="Grupo_1173147" data-name="Grupo 1173147" transform="translate(386.461 15063)">
          <g id="Grupo_1163801" data-name="Grupo 1163801" transform="translate(0 0)">
            <g id="Grupo_1163014" data-name="Grupo 1163014">
              <g id="Grupo_1157015" data-name="Grupo 1157015" transform="translate(0 0)">
                <g id="Grupo_1155792" data-name="Grupo 1155792" transform="translate(0 0)">
                  <g id="Grupo_1154703" data-name="Grupo 1154703">
                    <g id="Grupo_1150789" data-name="Grupo 1150789">
                      <g id="Grupo_1154212" data-name="Grupo 1154212">
                        <g id="Grupo_1152583" data-name="Grupo 1152583">
                          <g id="Grupo_1146973" data-name="Grupo 1146973" transform="translate(0 0)">
                            <g id="Grupo_1146954" data-name="Grupo 1146954">
                              <g transform="matrix(1, 0, 0, 1, -9, -6)" filter="url(#Trazado_982547)">
                                <g id="Trazado_982547-2" data-name="Trazado 982547" transform="translate(9 6)" fill="#f2f7e5">
                                  <path d="M 46.00000381469727 90.49988555908203 C 39.99188232421875 90.49988555908203 34.16427230834961 89.32352447509766 28.67905807495117 87.00347137451172 C 23.38020324707031 84.76226043701172 18.62103080749512 81.55342864990234 14.53375053405762 77.46615600585938 C 10.44645690917969 73.37887573242188 7.237643718719482 68.61971282958984 4.996417045593262 63.32085800170898 C 2.676363706588745 57.83565902709961 1.500003814697266 52.00806045532227 1.500003814697266 45.99993896484375 C 1.500003814697266 39.99181747436523 2.676363706588745 34.16421890258789 4.996417045593262 28.67901802062988 C 7.237643718719482 23.38017845153809 10.44645690917969 18.62101936340332 14.53375053405762 14.53373908996582 C 18.62103080749512 10.44645881652832 23.38020324707031 7.237632274627686 28.67905807495117 4.996418952941895 C 34.16427230834961 2.676365613937378 39.99188232421875 1.500005602836609 46.00000381469727 1.500005602836609 C 52.00812530517578 1.500005602836609 57.83573532104492 2.676365613937378 63.32094955444336 4.996418952941895 C 68.61980438232422 7.237632274627686 73.37896728515625 10.44645881652832 77.46625518798828 14.53373908996582 C 81.55353546142578 18.62101936340332 84.76236724853516 23.38017845153809 87.00359344482422 28.67901802062988 C 89.32364654541016 34.16421890258789 90.5 39.99181747436523 90.5 45.99993896484375 C 90.5 52.00806045532227 89.32364654541016 57.83565902709961 87.00359344482422 63.32085800170898 C 84.76236724853516 68.61971282958984 81.55353546142578 73.37887573242188 77.46625518798828 77.46615600585938 C 73.37896728515625 81.55342864990234 68.61980438232422 84.76226043701172 63.32094955444336 87.00347137451172 C 57.83573532104492 89.32352447509766 52.00812530517578 90.49988555908203 46.00000381469727 90.49988555908203 Z" stroke="none"/>
                                  <path d="M 46.00000381469727 2.999992370605469 C 40.19371795654297 2.999992370605469 34.56270217895508 4.136497497558594 29.26338958740234 6.377906799316406 C 24.14333343505859 8.543510437011719 19.54441833496094 11.64437866210938 15.59440612792969 15.59439849853516 C 11.64440155029297 19.54439544677734 8.54351806640625 24.14329528808594 6.377914428710938 29.26335144042969 C 4.136505126953125 34.56266784667969 3.000007629394531 40.19366836547852 3.000007629394531 45.99993896484375 C 3.000007629394531 51.80620956420898 4.136505126953125 57.43722534179688 6.377914428710938 62.73654174804688 C 8.54351806640625 67.85658264160156 11.64440155029297 72.45548248291016 15.59440612792969 76.40549468994141 C 19.54441833496094 80.35549926757812 24.14333343505859 83.45636749267578 29.26337432861328 85.62196350097656 C 34.56270217895508 87.86338043212891 40.19371795654297 88.9998779296875 46.00000381469727 88.9998779296875 C 51.80628967285156 88.9998779296875 57.43730545043945 87.86338043212891 62.73663330078125 85.62196350097656 C 67.85667419433594 83.45636749267578 72.45558929443359 80.35549926757812 76.40560150146484 76.40549468994141 C 80.35560607910156 72.45548248291016 83.45648956298828 67.85658264160156 85.62208557128906 62.73654174804688 C 87.86350250244141 57.43722534179688 89 51.80620956420898 89 45.99993896484375 C 89 40.19366836547852 87.86350250244141 34.56266784667969 85.62208557128906 29.26335144042969 C 83.45648956298828 24.14329528808594 80.35560607910156 19.54439544677734 76.40560150146484 15.59439849853516 C 72.45558929443359 11.64437866210938 67.85667419433594 8.543510437011719 62.73661804199219 6.377906799316406 C 57.43730545043945 4.136497497558594 51.80628967285156 2.999992370605469 46.00000381469727 2.999992370605469 M 46.00000381469727 -7.62939453125e-06 C 71.40510559082031 -7.62939453125e-06 92 20.59487915039062 92 45.99993896484375 C 92 71.40501403808594 71.40510559082031 91.99988555908203 46.00000381469727 91.99988555908203 C 20.59490203857422 91.99988555908203 7.62939453125e-06 71.40501403808594 7.62939453125e-06 45.99993896484375 C 7.62939453125e-06 20.59487915039062 20.59490203857422 -7.62939453125e-06 46.00000381469727 -7.62939453125e-06 Z" stroke="none" fill="#86b60c"/>
                                </g>
                              </g>
                            </g>
                          </g>
                        </g>
                      </g>
                    </g>
                  </g>
                </g>
              </g>
            </g>
          </g>
        </g>
      </g>
    </g>
    <g id="grafico" transform="translate(9048 2764.572)">
      <g id="Grupo_1183746" data-name="Grupo 1183746" transform="translate(5.619 26.691)">
        <path id="Trazado_1044089" data-name="Trazado 1044089" d="M430.047,51.148h-9.223v-6.6h9.223l-2.009,3.3Z" transform="translate(-379.125 -44.55)" fill="#de5974"/>
        <g id="Grupo_1183745" data-name="Grupo 1183745" transform="translate(41.699 4.574)">
          <path id="Trazado_1044090" data-name="Trazado 1044090" d="M420.824,85.232v2.024h9.223l-1.232-2.024Z" transform="translate(-420.824 -85.232)" fill="#c7495d"/>
        </g>
        <path id="Trazado_1044091" data-name="Trazado 1044091" d="M388.884,196.53h-9.267V161.791a1.124,1.124,0,0,1,1.124-1.124h7.018a1.124,1.124,0,0,1,1.124,1.124Z" transform="translate(-342.552 -147.611)" fill="#a2dafd"/>
        <path id="Trazado_1044092" data-name="Trazado 1044092" d="M306.472,244.975h-9.266v-28.6a1.124,1.124,0,0,1,1.124-1.124h7.018a1.124,1.124,0,0,1,1.124,1.124Z" transform="translate(-269.407 -196.055)" fill="#b3e59f"/>
        <path id="Trazado_1044093" data-name="Trazado 1044093" d="M224.06,293.42h-9.266V270.955a1.124,1.124,0,0,1,1.124-1.124h7.018a1.124,1.124,0,0,1,1.124,1.124Z" transform="translate(-196.261 -244.5)" fill="#ffe07d"/>
        <path id="Trazado_1044094" data-name="Trazado 1044094" d="M141.648,341.866h-9.266V325.538a1.124,1.124,0,0,1,1.124-1.124h7.018a1.124,1.124,0,0,1,1.124,1.124Z" transform="translate(-123.116 -292.946)" fill="#e7a561"/>
        <path id="Trazado_1044095" data-name="Trazado 1044095" d="M59.236,390.31H49.97V380.12A1.124,1.124,0,0,1,51.094,379h7.018a1.124,1.124,0,0,1,1.124,1.124Z" transform="translate(-49.97 -341.391)" fill="#de5974"/>
        <path id="Trazado_1044096" data-name="Trazado 1044096" d="M379.618,461.62h9.266v2.024h-9.266Z" transform="translate(-342.552 -414.724)" fill="#83c8ea"/>
        <path id="Trazado_1044097" data-name="Trazado 1044097" d="M297.206,461.62h9.266v2.024h-9.266Z" transform="translate(-269.407 -414.724)" fill="#95d6a4"/>
        <path id="Trazado_1044098" data-name="Trazado 1044098" d="M214.794,461.62h9.266v2.024h-9.266Z" transform="translate(-196.261 -414.724)" fill="#ffd064"/>
        <path id="Trazado_1044099" data-name="Trazado 1044099" d="M132.382,461.62h9.266v2.024h-9.266Z" transform="translate(-123.116 -414.724)" fill="#e49542"/>
        <path id="Trazado_1044100" data-name="Trazado 1044100" d="M49.97,461.62h9.266v2.024H49.97Z" transform="translate(-49.97 -414.724)" fill="#c7495d"/>
      </g>
      <path id="Trazado_1044101" data-name="Trazado 1044101" d="M56.725,74.815H52.841V70.782a.845.845,0,1,0-1.69,0v4.033H43.557V40.853a.282.282,0,0,1,.282-.282H50.87a.282.282,0,0,1,.282.282V67.4a.845.845,0,1,0,1.69,0V40.853a1.974,1.974,0,0,0-1.972-1.972H48.2V34.1h8.4a.851.851,0,0,0,.722-1.284L55.571,29.95l1.745-2.866a.851.851,0,0,0-.722-1.284H48.2v-.526a.845.845,0,0,0-1.69,0V38.881H43.838a1.974,1.974,0,0,0-1.972,1.972v4.2a1.971,1.971,0,0,0-.282-.022H34.554A1.974,1.974,0,0,0,32.582,47v4.2a1.971,1.971,0,0,0-.282-.022H25.269A1.974,1.974,0,0,0,23.3,53.151v4.2a1.97,1.97,0,0,0-.282-.022H15.985A1.974,1.974,0,0,0,14.013,59.3v4.2a1.971,1.971,0,0,0-.282-.022H6.7A1.974,1.974,0,0,0,4.728,65.45v9.365H.845a.845.845,0,1,0,0,1.69h55.88a.845.845,0,1,0,0-1.69ZM55.091,27.489,53.86,29.51a.845.845,0,0,0,0,.879l1.231,2.021H48.2V27.489Zm-30.1,25.662a.282.282,0,0,1,.282-.282H32.3a.282.282,0,0,1,.282.282V59.86a.845.845,0,1,0,1.69,0V47a.282.282,0,0,1,.282-.282h7.031a.282.282,0,0,1,.282.282V74.815H34.272V63.24a.845.845,0,1,0-1.69,0V74.815H24.988ZM6.418,65.45a.282.282,0,0,1,.282-.282h7.031a.282.282,0,0,1,.282.282V68.3a.845.845,0,1,0,1.69,0v-9a.282.282,0,0,1,.282-.282h7.031a.282.282,0,0,1,.282.282V74.815H15.7V71.681a.845.845,0,1,0-1.69,0v3.133H6.418Z" transform="translate(0 0)"/>
    </g>
  </g>
</svg>
