<svg xmlns="http://www.w3.org/2000/svg" xmlns:xlink="http://www.w3.org/1999/xlink" width="110" height="110" viewBox="0 0 110 110">
  <defs>
    <filter id="Trazado_982547" x="0" y="0" width="110" height="110" filterUnits="userSpaceOnUse">
      <feOffset dy="3" input="SourceAlpha"/>
      <feGaussianBlur stdDeviation="3" result="blur"/>
      <feFlood flood-opacity="0.161"/>
      <feComposite operator="in" in2="blur"/>
      <feComposite in="SourceGraphic"/>
    </filter>
  </defs>
  <g id="Grupo_1183765" data-name="Grupo 1183765" transform="translate(-9337 -3143)">
    <g id="Grupo_1181565" data-name="Grupo 1181565" transform="translate(8644.26 198.323)">
      <g id="Grupo_1177563" data-name="Grupo 1177563" transform="translate(0.279 -12113.323)">
        <g id="Grupo_1173148" data-name="Grupo 1173148" transform="translate(701.461 15064)">
          <g id="Grupo_1163803" data-name="Grupo 1163803" transform="translate(0 0)">
            <g id="Grupo_1163015" data-name="Grupo 1163015">
              <g id="Grupo_1157017" data-name="Grupo 1157017" transform="translate(0 0)">
                <g id="Grupo_1155793" data-name="Grupo 1155793" transform="translate(0 0)">
                  <g id="Grupo_1154704" data-name="Grupo 1154704">
                    <g id="Grupo_1150790" data-name="Grupo 1150790">
                      <g id="Grupo_1154214" data-name="Grupo 1154214">
                        <g id="Grupo_1152583" data-name="Grupo 1152583">
                          <g id="Grupo_1146973" data-name="Grupo 1146973" transform="translate(0 0)">
                            <g id="Grupo_1146954" data-name="Grupo 1146954">
                              <g transform="matrix(1, 0, 0, 1, -9, -6)" filter="url(#Trazado_982547)">
                                <g id="Trazado_982547-2" data-name="Trazado 982547" transform="translate(9 6)" fill="#f2f7e5">
                                  <path d="M 46.00000381469727 90.49988555908203 C 39.99188232421875 90.49988555908203 34.16427230834961 89.32352447509766 28.67905807495117 87.00347137451172 C 23.38020324707031 84.76226043701172 18.62103080749512 81.55342864990234 14.53375053405762 77.46615600585938 C 10.44645690917969 73.37887573242188 7.237643718719482 68.61971282958984 4.996417045593262 63.32085800170898 C 2.676363706588745 57.83565902709961 1.500003814697266 52.00806045532227 1.500003814697266 45.99993896484375 C 1.500003814697266 39.99181747436523 2.676363706588745 34.16421890258789 4.996417045593262 28.67901802062988 C 7.237643718719482 23.38017845153809 10.44645690917969 18.62101936340332 14.53375053405762 14.53373908996582 C 18.62103080749512 10.44645881652832 23.38020324707031 7.237632274627686 28.67905807495117 4.996418952941895 C 34.16427230834961 2.676365613937378 39.99188232421875 1.500005602836609 46.00000381469727 1.500005602836609 C 52.00812530517578 1.500005602836609 57.83573532104492 2.676365613937378 63.32094955444336 4.996418952941895 C 68.61980438232422 7.237632274627686 73.37896728515625 10.44645881652832 77.46625518798828 14.53373908996582 C 81.55353546142578 18.62101936340332 84.76236724853516 23.38017845153809 87.00359344482422 28.67901802062988 C 89.32364654541016 34.16421890258789 90.5 39.99181747436523 90.5 45.99993896484375 C 90.5 52.00806045532227 89.32364654541016 57.83565902709961 87.00359344482422 63.32085800170898 C 84.76236724853516 68.61971282958984 81.55353546142578 73.37887573242188 77.46625518798828 77.46615600585938 C 73.37896728515625 81.55342864990234 68.61980438232422 84.76226043701172 63.32094955444336 87.00347137451172 C 57.83573532104492 89.32352447509766 52.00812530517578 90.49988555908203 46.00000381469727 90.49988555908203 Z" stroke="none"/>
                                  <path d="M 46.00000381469727 2.999992370605469 C 40.19371795654297 2.999992370605469 34.56270217895508 4.136497497558594 29.26338958740234 6.377906799316406 C 24.14333343505859 8.543510437011719 19.54441833496094 11.64437866210938 15.59440612792969 15.59439849853516 C 11.64440155029297 19.54439544677734 8.54351806640625 24.14329528808594 6.377914428710938 29.26335144042969 C 4.136505126953125 34.56266784667969 3.000007629394531 40.19366836547852 3.000007629394531 45.99993896484375 C 3.000007629394531 51.80620956420898 4.136505126953125 57.43722534179688 6.377914428710938 62.73654174804688 C 8.54351806640625 67.85658264160156 11.64440155029297 72.45548248291016 15.59440612792969 76.40549468994141 C 19.54441833496094 80.35549926757812 24.14333343505859 83.45636749267578 29.26337432861328 85.62196350097656 C 34.56270217895508 87.86338043212891 40.19371795654297 88.9998779296875 46.00000381469727 88.9998779296875 C 51.80628967285156 88.9998779296875 57.43730545043945 87.86338043212891 62.73663330078125 85.62196350097656 C 67.85667419433594 83.45636749267578 72.45558929443359 80.35549926757812 76.40560150146484 76.40549468994141 C 80.35560607910156 72.45548248291016 83.45648956298828 67.85658264160156 85.62208557128906 62.73654174804688 C 87.86350250244141 57.43722534179688 89 51.80620956420898 89 45.99993896484375 C 89 40.19366836547852 87.86350250244141 34.56266784667969 85.62208557128906 29.26335144042969 C 83.45648956298828 24.14329528808594 80.35560607910156 19.54439544677734 76.40560150146484 15.59439849853516 C 72.45558929443359 11.64437866210938 67.85667419433594 8.543510437011719 62.73661804199219 6.377906799316406 C 57.43730545043945 4.136497497558594 51.80628967285156 2.999992370605469 46.00000381469727 2.999992370605469 M 46.00000381469727 -7.62939453125e-06 C 71.40510559082031 -7.62939453125e-06 92 20.59487915039062 92 45.99993896484375 C 92 71.40501403808594 71.40510559082031 91.99988555908203 46.00000381469727 91.99988555908203 C 20.59490203857422 91.99988555908203 7.62939453125e-06 71.40501403808594 7.62939453125e-06 45.99993896484375 C 7.62939453125e-06 20.59487915039062 20.59490203857422 -7.62939453125e-06 46.00000381469727 -7.62939453125e-06 Z" stroke="none" fill="#86b60c"/>
                                </g>
                              </g>
                            </g>
                          </g>
                        </g>
                      </g>
                    </g>
                  </g>
                </g>
              </g>
            </g>
          </g>
        </g>
      </g>
    </g>
    <g id="necesidades" transform="translate(9360 3163.995)">
      <g id="Grupo_1183763" data-name="Grupo 1183763" transform="translate(0.916 0.921)">
        <path id="Trazado_1044147" data-name="Trazado 1044147" d="M75.239,32.994a10.2,10.2,0,0,0-6.553-9.527.487.487,0,0,1-.307-.536,10.081,10.081,0,0,0-14.443-10.7.488.488,0,0,1-.627-.169,10.079,10.079,0,0,0-16.865,0,.487.487,0,0,1-.627.169,10.02,10.02,0,0,0-3.854-1.041,7.664,7.664,0,0,1-1.138.22c-5.161.243-8.491,4.37-8.734,9.531A10.119,10.119,0,0,0,22.22,23.1a.487.487,0,0,1-.307.536,9.629,9.629,0,0,0-6.424,9.177,10.223,10.223,0,0,0,6.687,9.569.487.487,0,0,1,.317.486l-.039.658A9.308,9.308,0,0,0,34.2,52.986a9.158,9.158,0,0,0,4.932-3.4,8.1,8.1,0,0,0,11.562.08c5.531,7.172,17.793,3.27,17.463-5.958l-.039-.657a.487.487,0,0,1,.317-.486A10.323,10.323,0,0,0,75.239,32.994Z" transform="translate(-14.513 -7.505)" fill="#d9f5f9"/>
        <path id="Trazado_1044148" data-name="Trazado 1044148" d="M27.183,79.313c-5.85,1.678-12.971-2.246-12.718-9.279l.039-.659a.488.488,0,0,0-.316-.486,10.2,10.2,0,0,1-.133-19.1.488.488,0,0,0,.307-.535,10.081,10.081,0,0,1,9.456-11.749,9.715,9.715,0,0,1,1.133.01,10.082,10.082,0,0,0-7.168,11.373.488.488,0,0,1-.307.535,10.2,10.2,0,0,0,.133,19.1.488.488,0,0,1,.316.486l-.039.659c-.205,5.694,4.423,9.35,9.3,9.645Z" transform="translate(-7.5 -33.832)" fill="#c6ebf4"/>
        <path id="Trazado_1044149" data-name="Trazado 1044149" d="M60.627,155.975l1.746,3.537a.443.443,0,0,0,.334.242l3.9.567a.443.443,0,0,1,.245.756l-2.824,2.753a.443.443,0,0,0-.127.392l.222,1.293.086,2.095a.443.443,0,0,1-.643.467l-3.109-1.518a.443.443,0,0,0-.412,0l-3.281,1.673a.443.443,0,0,1-.643-.467l.676-3.671a.443.443,0,0,0-.127-.392l-2.763-2.572a.443.443,0,0,1,.245-.756L56.044,160l1.71-.248a.443.443,0,0,0,.334-.242l1.746-3.537A.443.443,0,0,1,60.627,155.975Z" transform="translate(-48.119 -137.618)" fill="#ffe077"/>
        <path id="Trazado_1044150" data-name="Trazado 1044150" d="M61.757,199.286l-3.492-1.835a.439.439,0,0,0-.412,0l-3.491,1.835a.443.443,0,0,1-.643-.468l.667-3.887a.442.442,0,0,0-.128-.392l-2.824-2.753a.442.442,0,0,1,.246-.755l2.193-.319a6.024,6.024,0,0,0,8.081,5.512l.445,2.594A.444.444,0,0,1,61.757,199.286Z" transform="translate(-45.949 -168.327)" fill="#ffd05b"/>
        <path id="Trazado_1044151" data-name="Trazado 1044151" d="M372.566,175.608a3.788,3.788,0,0,0-3.714-3.864,3.718,3.718,0,0,0-2.758,1.218.244.244,0,0,1-.361,0,3.678,3.678,0,0,0-2.747-1.2q-.142,0-.281.013s-.486.115-.722.186a3.426,3.426,0,0,0-2.351,3.512c-.078,4.024,5.285,6.889,6.164,7.336a.241.241,0,0,0,.223,0c.259-.137,1.789-.8,1.789-.8C369.761,180.685,372.528,178.34,372.566,175.608Z" transform="translate(-316.606 -151.676)" fill="#ff7892"/>
        <path id="Trazado_1044152" data-name="Trazado 1044152" d="M365.063,182.206a19.756,19.756,0,0,1-1.783,1.077.241.241,0,0,1-.224,0c-.879-.447-6.631-3.53-6.552-7.555a3.838,3.838,0,0,1,3.455-3.753,3.872,3.872,0,0,0-1.256,2.776C358.629,178.551,363.749,181.511,365.063,182.206Z" transform="translate(-313.86 -151.88)" fill="#ff5f7a"/>
        <path id="Trazado_1044153" data-name="Trazado 1044153" d="M214.671,59.531A7.027,7.027,0,0,0,203.732,53.7s-.254.24-.4.359a6.758,6.758,0,0,0-2.414,5.468c0,3.88,2.785,6.463,6.666,6.463a6.784,6.784,0,0,0,4.726-1.341c.294-.264.841-.744.841-.744A7,7,0,0,0,214.671,59.531Z" transform="translate(-177.283 -47.007)" fill="#ccf49f"/>
        <path id="Trazado_1044154" data-name="Trazado 1044154" d="M211.028,72.45a7.026,7.026,0,1,1-9.416-10.2,7.026,7.026,0,0,0,9.416,10.2Z" transform="translate(-175.163 -55.557)" fill="#b3e59f"/>
        <g id="Grupo_1183762" data-name="Grupo 1183762" transform="translate(16.381 23.704)">
          <path id="Trazado_1044155" data-name="Trazado 1044155" d="M170.673,431.133a.489.489,0,0,0,.489-.489v-2.558a3.665,3.665,0,0,0-1.946-3.237l-7.993-3.929-7.737.151-7.986,4.106a3.665,3.665,0,0,0-1.959,3.244l-.116,1.963a.489.489,0,0,0,.489.489l1.362.261h6.086l5.818-.7,5.93.7Z" transform="translate(-143.198 -394.111)" fill="#ccf49f"/>
          <path id="Trazado_1044156" data-name="Trazado 1044156" d="M231.986,386.228l-.437,2.028.77.949.1.854a2.748,2.748,0,0,1-.574,2.041,4.315,4.315,0,0,1-3.577,1.485,4.417,4.417,0,0,1-3.405-1.286s.141-.354.088-.42a2.309,2.309,0,0,1-.589-1.844l.25-4.009Z" transform="translate(-214.227 -363.479)" fill="#d6995c"/>
          <path id="Trazado_1044157" data-name="Trazado 1044157" d="M152.2,423.443l-7.728,3.78a1.585,1.585,0,0,0-.827,1.394v3.029h-1.588a.489.489,0,0,1-.489-.489v-2.54a3.668,3.668,0,0,1,1.959-3.244l7.908-3.868.766.672A8.57,8.57,0,0,0,152.2,423.443Z" transform="translate(-141.57 -394.624)" fill="#b3e59f"/>
          <path id="Trazado_1044158" data-name="Trazado 1044158" d="M220.128,483.771v1.246H208.38v-1.246a1.466,1.466,0,0,1,1.466-1.466h8.816A1.466,1.466,0,0,1,220.128,483.771Z" transform="translate(-200.217 -447.995)" fill="#f0fbff"/>
          <path id="Trazado_1044159" data-name="Trazado 1044159" d="M168.071,306.594c-2.1,0-3.019.448-2.955,1.906a3.508,3.508,0,0,0,3.559,3.433h15.2a3.508,3.508,0,0,0,3.559-3.433c.064-1.458-.853-1.906-2.955-1.906Z" transform="translate(-162.236 -293.754)" fill="#d6995c"/>
          <path id="Trazado_1044160" data-name="Trazado 1044160" d="M230.545,389.2l-.334-2.977-7.378-.2-.495,4.033a2.787,2.787,0,0,0-.02.3,2.73,2.73,0,0,0,.594,1.74q.079.1.172.2l.674-.329a1.222,1.222,0,0,0,.682-1l.02-.253a.609.609,0,0,1,.7-.554,8.121,8.121,0,0,0,1.294.1A8.562,8.562,0,0,0,230.545,389.2Z" transform="translate(-212.453 -363.479)" fill="#ce8d57"/>
          <path id="Trazado_1044161" data-name="Trazado 1044161" d="M189.688,245.1l-.178-1.96,4.336-6.6,11.875,2.139V245.1c0,8.647-4.489,11.869-8.064,11.869C194.177,256.964,189.688,253.742,189.688,245.1Z" transform="translate(-183.652 -232.257)" fill="#e3a76f"/>
          <path id="Trazado_1044162" data-name="Trazado 1044162" d="M179.814,206.118a4.38,4.38,0,0,1,1.235-1.44c.322-.2.929-.53.929-.53a4.067,4.067,0,0,1,2.016-.094.487.487,0,0,0,.477-.161c2.457-2.95,6.105-2.784,8.993-1.547a7.532,7.532,0,0,1,4.36,9.886,10.494,10.494,0,0,1-1.133,2.112c-.014-.1,0-3.179-1.982-3.508-4.3-.714-7.909-1.8-9.06-2.852a.669.669,0,0,0-1.074.248,4.773,4.773,0,0,1-1.961,2.524,3.24,3.24,0,0,0-1.063,1.25l-.894,1.662S178.1,208.561,179.814,206.118Z" transform="translate(-174.622 -201.505)" fill="#6fbbc6"/>
          <path id="Trazado_1044163" data-name="Trazado 1044163" d="M177.253,230.992a11.006,11.006,0,0,0-.893,2.339c-1.986-2.034-2.821-5.933-1.107-8.376a4.484,4.484,0,0,1,2.427-1.821,4.677,4.677,0,0,0-.594.721C175.676,225.865,175.991,228.859,177.253,230.992Z" transform="translate(-170.324 -220.491)" fill="#61aab8"/>
        </g>
      </g>
      <g id="Grupo_1183764" data-name="Grupo 1183764" transform="translate(0 0.005)">
        <path id="Trazado_1044164" data-name="Trazado 1044164" d="M55.738,16.155A11,11,0,0,0,40.267,4.667a10.994,10.994,0,0,0-17.975,0A11,11,0,0,0,6.821,16.155a11.112,11.112,0,0,0,.166,20.569A10.45,10.45,0,0,0,7.6,41.053.916.916,0,0,0,9.312,40.4,8.231,8.231,0,0,1,8.8,37.167l.06-1.015a.917.917,0,0,0-.628-.925,9.281,9.281,0,0,1-.084-17.615.916.916,0,0,0,.6-1.056,9.164,9.164,0,0,1,13.417-9.9A.916.916,0,0,0,23.4,6.324a9.163,9.163,0,0,1,15.76,0,.917.917,0,0,0,1.233.332,9.166,9.166,0,0,1,13.417,9.9.917.917,0,0,0,.6,1.056,9.28,9.28,0,0,1,6.313,8.8,9.464,9.464,0,0,1-6.519,8.818.917.917,0,0,0-.628.924A8.281,8.281,0,0,1,48.7,45a8.978,8.978,0,0,1-9.441-1.128,4.567,4.567,0,0,0,4.148-4.4,2.538,2.538,0,0,0-.633-1.946,3.144,3.144,0,0,0-1.875-.834,7.978,7.978,0,0,0,.464-1.035A8.458,8.458,0,0,0,36.5,24.624c-3.875-1.66-7.525-1.053-9.89,1.608a5.3,5.3,0,0,0-5.14,2.339c-1.663,2.378-1.273,5.755.15,8.143a3.031,3.031,0,0,0-1.726.811,2.539,2.539,0,0,0-.633,1.946,4.5,4.5,0,0,0,4.157,4.353,9.347,9.347,0,0,1-11.933-.306.916.916,0,1,0-1.217,1.371A11.649,11.649,0,0,0,17.818,47.7a10.559,10.559,0,0,0,6.4-2.1,9.8,9.8,0,0,0,2.361,2.886l-.284,2.436c-.018.009-7.427,3.619-7.464,3.638a4.57,4.57,0,0,0-2.448,4.055v3.029a.916.916,0,1,0,1.833,0V58.619a2.742,2.742,0,0,1,1.458-2.427L26.5,52.866a3.562,3.562,0,0,0,.547.955,5.208,5.208,0,0,0,4.291,1.827,5.208,5.208,0,0,0,4.292-1.828,3.564,3.564,0,0,0,.545-.95L40.1,54.8a.916.916,0,1,0,.809-1.645l-4.532-2.23-.283-2.434a9.749,9.749,0,0,0,2.345-2.82,10.937,10.937,0,0,0,11.026.994,9.939,9.939,0,0,0,5.986-9.945A11.314,11.314,0,0,0,62.559,26.41a11.111,11.111,0,0,0-6.821-10.254ZM41.451,38.791a.839.839,0,0,1,.126.6,2.53,2.53,0,0,1-1.717,2.388,20.029,20.029,0,0,0,.4-3.313C41.021,38.521,41.331,38.665,41.451,38.791Zm-20.358.6a.84.84,0,0,1,.126-.6c.122-.127.438-.274,1.221-.328a20.065,20.065,0,0,0,.4,3.326,2.531,2.531,0,0,1-1.749-2.4ZM34.2,52.671a3.47,3.47,0,0,1-2.863,1.143,3.47,3.47,0,0,1-2.863-1.143,1.839,1.839,0,0,1-.378-1.361l.2-1.743a7.138,7.138,0,0,0,3.005.683,7.342,7.342,0,0,0,3.069-.689l.2,1.75a1.841,1.841,0,0,1-.378,1.361Zm-2.9-4.255c-3.381,0-7.016-3.4-7.051-10.845.261-1,.89-2.545,1.5-2.906A5.541,5.541,0,0,0,27.973,32c2.1,1.573,7.574,2.579,9.262,2.859,1.037.172,1.191,2.021,1.214,2.583,0,.016,0,.029,0,.042C38.443,46.114,33.955,48.417,31.3,48.417Zm6.231-15.365c-4.829-.8-7.795-1.9-8.592-2.624a1.586,1.586,0,0,0-2.543.585,3.873,3.873,0,0,1-1.574,2.074,5.092,5.092,0,0,0-1.792,2.4c-.949-1.811-1.182-4.262-.056-5.866l.011-.016A3.519,3.519,0,0,1,25.858,28a2.938,2.938,0,0,1,.84.121.916.916,0,0,0,.988-.32c2.593-3.371,6.524-2.171,8.093-1.5a6.61,6.61,0,0,1,3.938,8.5,2.92,2.92,0,0,0-2.183-1.752Z" transform="translate(0 -0.005)"/>
        <path id="Trazado_1044165" data-name="Trazado 1044165" d="M46.769,162.7a1.351,1.351,0,0,0,1.432.1l3.271-1.72,3.271,1.72a1.359,1.359,0,0,0,1.972-1.433l-.625-3.642,2.646-2.579a1.359,1.359,0,0,0-.753-2.319l-3.657-.531-1.635-3.314a1.359,1.359,0,0,0-2.438,0L48.617,152.3l-3.657.532a1.359,1.359,0,0,0-.753,2.319l2.646,2.579-.625,3.642A1.351,1.351,0,0,0,46.769,162.7Zm-.6-8.194,2.954-.429a1.359,1.359,0,0,0,1.024-.744l1.321-2.677,1.321,2.676a1.359,1.359,0,0,0,1.024.744l2.954.429-2.137,2.083a1.359,1.359,0,0,0-.391,1.2l.5,2.942L52.1,159.346a1.36,1.36,0,0,0-1.265,0L48.2,160.735l.5-2.942a1.359,1.359,0,0,0-.391-1.2Z" transform="translate(-38.444 -130.117)"/>
        <path id="Trazado_1044166" data-name="Trazado 1044166" d="M362.78,171.107a.916.916,0,0,0,1.141-.615,5.336,5.336,0,0,0,.229-1.457,4.729,4.729,0,0,0-1.367-3.406,4.586,4.586,0,0,0-6.2-.34,4.55,4.55,0,0,0-2.934-1.031A4.752,4.752,0,0,0,349,168.924c-.1,4.889,6.886,8.311,7.183,8.454a.916.916,0,0,0,.808-.006,20.5,20.5,0,0,0,4.244-2.958.916.916,0,0,0-1.246-1.345,18.815,18.815,0,0,1-3.421,2.448c-1.936-1.032-5.792-3.687-5.736-6.558a2.821,2.821,0,0,1,5.029-1.8.917.917,0,0,0,.718.348h0a.916.916,0,0,0,.718-.347,2.986,2.986,0,0,1,2.217-1.083,2.749,2.749,0,0,1,1.96.839,2.91,2.91,0,0,1,.841,2.1,3.508,3.508,0,0,1-.152.956.917.917,0,0,0,.614,1.141Z" transform="translate(-306.357 -144.175)"/>
        <path id="Trazado_1044167" data-name="Trazado 1044167" d="M193.194,53.641a.916.916,0,1,0-1.821.206,7.94,7.94,0,1,0,.908-4.687.916.916,0,0,0,1.61.875,6.11,6.11,0,1,1-.7,3.607Z" transform="translate(-167.985 -39.506)"/>
        <path id="Trazado_1044168" data-name="Trazado 1044168" d="M237.092,76.634a.916.916,0,0,0-.591,1.735,5.7,5.7,0,0,0,.921.233v.245a.916.916,0,0,0,1.833,0v-.382a2.349,2.349,0,0,0,1.414-1.429,2.264,2.264,0,0,0-1.392-2.907,7.78,7.78,0,0,0-.816-.232,1.47,1.47,0,0,1-.56-.2.351.351,0,0,1-.134-.341.458.458,0,0,1,.271-.357.882.882,0,0,1,.883.145.916.916,0,0,0,1.213-1.374,2.881,2.881,0,0,0-.879-.509v-.345a.916.916,0,0,0-1.833,0v.356a2.406,2.406,0,0,0-1.47,1.827,2.188,2.188,0,0,0,.794,2.021,2.953,2.953,0,0,0,1.287.554,6.049,6.049,0,0,1,.633.178.447.447,0,0,1,.271.578c-.128.368-.748.572-1.845.2Z" transform="translate(-207.059 -61.453)"/>
        <path id="Trazado_1044169" data-name="Trazado 1044169" d="M354.871,451.569a.916.916,0,0,0-.028,1.3,2.738,2.738,0,0,1,.764,1.9v3.047a.916.916,0,1,0,1.833,0v-3.047a4.562,4.562,0,0,0-1.273-3.17A.916.916,0,0,0,354.871,451.569Z" transform="translate(-311.263 -396.171)"/>
        <path id="Trazado_1044170" data-name="Trazado 1044170" d="M212.074,474.8h-8.817a2.385,2.385,0,0,0-2.383,2.383v1.247a.916.916,0,0,0,1.833,0v-1.247a.551.551,0,0,1,.55-.55h8.817a.551.551,0,0,1,.55.55v1.247a.916.916,0,0,0,1.833,0v-1.247A2.385,2.385,0,0,0,212.074,474.8Z" transform="translate(-176.331 -416.79)"/>
      </g>
    </g>
  </g>
</svg>
