<svg xmlns="http://www.w3.org/2000/svg" xmlns:xlink="http://www.w3.org/1999/xlink" width="179" height="215.328" viewBox="0 0 179 215.328">
  <defs>
    <filter id="Rectángulo_415529" x="0" y="0" width="179" height="215.328" filterUnits="userSpaceOnUse">
      <feOffset dy="3" input="SourceAlpha"/>
      <feGaussianBlur stdDeviation="10" result="blur"/>
      <feFlood flood-color="#0f1f33" flood-opacity="0.235"/>
      <feComposite operator="in" in2="blur"/>
      <feComposite in="SourceGraphic"/>
    </filter>
    <clipPath id="clip-path">
      <rect id="Rectángulo_415695" data-name="Rectángulo 415695" width="117" height="133" transform="translate(180.044 761)" fill="#fff" stroke="#707070" stroke-width="1"/>
    </clipPath>
  </defs>
  <g id="Grupo_1183739" data-name="Grupo 1183739" transform="translate(-150 -726)">
    <g transform="matrix(1, 0, 0, 1, 150, 726)" filter="url(#Rectángulo_415529)">
      <g id="Rectángulo_415529-2" data-name="Rectángulo 415529" transform="translate(30 27)" fill="#e9f9fd" stroke="#1d7083" stroke-width="2">
        <rect width="119" height="155.328" rx="10" stroke="none"/>
        <rect x="1" y="1" width="117" height="153.328" rx="9" fill="none"/>
      </g>
    </g>
    <g id="Enmascarar_grupo_1098830" data-name="Enmascarar grupo 1098830" clip-path="url(#clip-path)">
      <g id="silla-de-ruedas" transform="translate(166.832 774.88)">
        <path id="Trazado_1043991" data-name="Trazado 1043991" d="M241.417,190.734l2.974,8.963,1.654.416a5.324,5.324,0,0,0,1.3.162l.035,0v-3.9a11.668,11.668,0,0,1,1.88-6.36,5.375,5.375,0,0,0-.623-.2l-9.521-2.4A7.112,7.112,0,0,1,241.417,190.734Z" transform="translate(-170.599 -152.452)" fill="#103d47"/>
        <path id="Trazado_1043992" data-name="Trazado 1043992" d="M322.088,260.292h-4.507A6.066,6.066,0,0,0,320.1,253.5l-7.628-26.06a6.065,6.065,0,0,0-5.82-4.361H296.563v-7.226l14.073-6.474a5.054,5.054,0,1,0-4.224-9.183l-9.849,4.531v-7.389a8.622,8.622,0,0,0-8.622-8.622H277.148a8.622,8.622,0,0,0-8.622,8.622v5.3l5.969-4.382-9.726,10.809a5.054,5.054,0,0,0-.19,6.537L278.6,233.129a5.149,5.149,0,0,0,.414.457v6.24a8.085,8.085,0,0,1,3.876,0v-4.813a5.051,5.051,0,0,0,3.6-8.2l-11.34-14.18,6.858-7.621-3.831,6.57,6.67,8.34a28.054,28.054,0,0,1,23.121,35.31l.489,1.672a6.038,6.038,0,0,0,2.525,3.384h-4.975a28.173,28.173,0,0,1-4.492,6.459h20.571a3.229,3.229,0,0,0,0-6.459Z" transform="translate(-188.628 -153.411)" fill="#103d47"/>
        <path id="Trazado_1043993" data-name="Trazado 1043993" d="M314.13,112.846l.079.008a11.468,11.468,0,1,0-.079-.008Z" transform="translate(-218.463 -80.658)" fill="#103d47"/>
        <path id="Trazado_1043994" data-name="Trazado 1043994" d="M244.235,270.905l-.972-2.929-3.761-4.7a6.494,6.494,0,0,1-.337-7.648l-1.159-3.492a9.084,9.084,0,0,1-3.977,8.525l4.852,14.623a28.257,28.257,0,0,1,5.353-4.376Z" transform="translate(-166.834 -200.355)" fill="#103d47"/>
        <path id="Trazado_1043995" data-name="Trazado 1043995" d="M209.548,200.425l5.989,3.684a9.05,9.05,0,0,1,3.06,3.112l-2.855-8.605a3.228,3.228,0,0,0-6.193,1.809Z" transform="translate(-148.639 -159.101)" fill="#103d47"/>
        <path id="Trazado_1043996" data-name="Trazado 1043996" d="M268.4,325.947a8.224,8.224,0,0,1,1.884,7.907,18.178,18.178,0,0,1,5.22,4.79l-8.706,5.026a8.11,8.11,0,0,1,1.942,3.354L277.445,342a17.977,17.977,0,0,1,0,14.571l-8.706-5.026A8.11,8.11,0,0,1,266.8,354.9l8.706,5.026a18.04,18.04,0,0,1-12.615,7.292V357.16a8.086,8.086,0,0,1-3.876,0v10.056a18.04,18.04,0,0,1-12.615-7.292L255.1,354.9a8.111,8.111,0,0,1-1.942-3.354l-8.706,5.026a17.977,17.977,0,0,1,0-14.571l8.706,5.026a8.111,8.111,0,0,1,1.942-3.354l-8.706-5.026a18.149,18.149,0,0,1,6.922-5.7L249.2,327.8a24.489,24.489,0,1,0,19.2-1.848Z" transform="translate(-168.629 -254.993)" fill="#103d47"/>
        <circle id="Elipse_13201" data-name="Elipse 13201" cx="5.528" cy="5.528" r="5.528" transform="translate(84.769 92.509) rotate(-31.72)" fill="#103d47"/>
        <path id="Trazado_1043997" data-name="Trazado 1043997" d="M64.916,138.352l-16.774-10.32-4.774-13.706,6.5,10.326,7.2,4.429a7.131,7.131,0,0,1,5.658-5.449l-2.933-.738-7.122-8.2.144-2.153a7.861,7.861,0,0,0-7.319-8.367l-13.986-.935a7.861,7.861,0,0,0-8.367,7.319L20.527,150.8s.759,15.281,1.126,22.656L9.24,199.886a6.371,6.371,0,0,0,11.56,5.36l13.074-27.858a6.369,6.369,0,0,0,.583-3l-1.133-22.737,2.872.192,7.05,20.964,2.675,30.31a6.371,6.371,0,1,0,12.694-1.108l-2.741-31.066a6.364,6.364,0,0,0-.308-1.477l-5.617-16.7.6-6.344-12.9-7.935a5.333,5.333,0,0,1-2.486-3.932l-1.823-16.735,5.4,15.491a5.31,5.31,0,0,0,2.232,2.776L59.353,147.4a5.309,5.309,0,1,0,5.564-9.044Z" transform="translate(0 -90.122)" fill="#103d47"/>
        <circle id="Elipse_13202" data-name="Elipse 13202" cx="11.636" cy="11.636" r="11.636" transform="translate(24.666 -2.079) rotate(-45)" fill="#103d47"/>
      </g>
    </g>
  </g>
</svg>
