<svg xmlns="http://www.w3.org/2000/svg" xmlns:xlink="http://www.w3.org/1999/xlink" width="179" height="215.328" viewBox="0 0 179 215.328">
  <defs>
    <filter id="Trazado_1040446" x="0" y="0" width="179" height="215.328" filterUnits="userSpaceOnUse">
      <feOffset dy="3" input="SourceAlpha"/>
      <feGaussianBlur stdDeviation="10" result="blur"/>
      <feFlood flood-color="#0f1f33" flood-opacity="0.235"/>
      <feComposite operator="in" in2="blur"/>
      <feComposite in="SourceGraphic"/>
    </filter>
  </defs>
  <g id="Grupo_1183741" data-name="Grupo 1183741" transform="translate(-150 -939)">
    <g transform="matrix(1, 0, 0, 1, 150, 939)" filter="url(#Trazado_1040446)">
      <g id="Trazado_1040446-2" data-name="Trazado 1040446" transform="translate(30 27)" fill="#e9f9fd">
        <path d="M 109 154.328125 L 10 154.328125 C 5.037380218505859 154.328125 1 150.2907409667969 1 145.328125 L 1 10.00000286102295 C 1 5.03738260269165 5.037380218505859 1.000002503395081 10 1.000002503395081 L 109 1.000002503395081 C 113.9626235961914 1.000002503395081 118 5.03738260269165 118 10.00000286102295 L 118 145.328125 C 118 150.2907409667969 113.9626235961914 154.328125 109 154.328125 Z" stroke="none"/>
        <path d="M 10 2 C 5.588790893554688 2 2 5.588790893554688 2 10 L 2 145.328125 C 2 149.7393341064453 5.588790893554688 153.328125 10 153.328125 L 109 153.328125 C 113.4112091064453 153.328125 117 149.7393341064453 117 145.328125 L 117 10 C 117 5.588790893554688 113.4112091064453 2 109 2 L 10 2 M 10 0 L 109 0 C 114.5228576660156 0 119 4.477142333984375 119 10 L 119 145.328125 C 119 150.8509521484375 114.5228576660156 155.328125 109 155.328125 L 10 155.328125 C 4.477142333984375 155.328125 0 150.8509521484375 0 145.328125 L 0 10 C 0 4.477142333984375 4.477142333984375 0 10 0 Z" stroke="none" fill="#1d7083"/>
      </g>
    </g>
    <g id="XMLID_28_" transform="translate(187.373 973.001)">
      <path id="XMLID_31_" d="M207.749,93.514l3.184,1.866,4.618-2.84a8.7,8.7,0,0,1,2.322-1L211.2,87.629a3.41,3.41,0,1,0-3.448,5.884Z" transform="translate(-159.246 -48.812)" fill="#103d47"/>
      <circle id="XMLID_866_" cx="9.406" cy="9.406" r="9.406" transform="translate(27.551 23.999)" fill="#103d47"/>
      <path id="XMLID_867_" d="M43.775,154.191a5.113,5.113,0,0,0-3.256-3.153l-5.372-1.722,3.788-13.222-9.279-7.764,14.917,6.893a4.262,4.262,0,0,0,4.02-.239l14.5-8.92a4.262,4.262,0,1,0-4.465-7.26l-12.557,7.723-12.843-5.935,7.224,1.232a6.325,6.325,0,0,0-3.37-2.347L26.692,116.5a6.354,6.354,0,0,0-7.977,4.843l-6.267,30.826a5.411,5.411,0,0,0,1.894,5.289H11.374L6.792,121.276a3.409,3.409,0,1,0-6.765.857l4.848,38.281v24.82a3.409,3.409,0,1,0,6.819,0V164.276H28.969v20.957a3.409,3.409,0,1,0,6.819,0V162.247l8.2,23a5.114,5.114,0,1,0,9.634-3.433Z" transform="translate(0 -71.295)" fill="#103d47"/>
      <path id="XMLID_868_" d="M268.138,261.75H214.03a.856.856,0,0,0-.856.856v7.835a.856.856,0,0,0,.856.856h23.645v22.968h-4.116a3.409,3.409,0,1,0,0,6.819h15.051a3.409,3.409,0,1,0,0-6.819h-4.116V271.3h23.645a.856.856,0,0,0,.856-.856v-7.835A.856.856,0,0,0,268.138,261.75Z" transform="translate(-164.741 -183.735)" fill="#103d47"/>
      <path id="XMLID_869_" d="M244.238,211.087a1.643,1.643,0,0,0-.044.37c0,2.072,3.363,3.86,8.218,4.686v1.189a1.443,1.443,0,0,0,1.443,1.443h9.223a1.443,1.443,0,0,0,1.443-1.443v-1.189c4.855-.826,8.218-2.613,8.218-4.686a1.659,1.659,0,0,0-.043-.369c-.054-.238-.456-.417-.936-.417H245.174C244.7,210.671,244.293,210.85,244.238,211.087Z" transform="translate(-188.714 -144.261)" fill="#103d47"/>
    </g>
  </g>
</svg>
