<svg xmlns="http://www.w3.org/2000/svg" xmlns:xlink="http://www.w3.org/1999/xlink" width="93.656" height="93.656" viewBox="0 0 93.656 93.656">
  <defs>
    <filter id="Trazado_982547" x="0" y="0" width="93.656" height="93.656" filterUnits="userSpaceOnUse">
      <feOffset dy="3" input="SourceAlpha"/>
      <feGaussianBlur stdDeviation="3" result="blur"/>
      <feFlood flood-opacity="0.161"/>
      <feComposite operator="in" in2="blur"/>
      <feComposite in="SourceGraphic"/>
    </filter>
  </defs>
  <g id="Grupo_1181616" data-name="Grupo 1181616" transform="translate(-195 -1081)">
    <g id="Grupo_1180309" data-name="Grupo 1180309" transform="translate(-5.461 -6709)">
      <g id="Grupo_1174894" data-name="Grupo 1174894" transform="translate(11.291 2507.168)">
        <g id="Grupo_1172067" data-name="Grupo 1172067" transform="translate(198.17 5288.832)">
          <g id="Grupo_1164308" data-name="Grupo 1164308" transform="translate(0 0)">
            <g id="Grupo_1163948" data-name="Grupo 1163948" transform="translate(0)">
              <g id="Grupo_1158168" data-name="Grupo 1158168" transform="translate(0)">
                <g id="Grupo_1152576" data-name="Grupo 1152576">
                  <g id="Grupo_1148633" data-name="Grupo 1148633">
                    <g id="Grupo_1148525" data-name="Grupo 1148525">
                      <g transform="matrix(1, 0, 0, 1, -9, -6)" filter="url(#Trazado_982547)">
                        <g id="Trazado_982547-2" data-name="Trazado 982547" transform="translate(9 6)" fill="#e9f9fd">
                          <path d="M 37.8281364440918 74.15627288818359 C 32.92320251464844 74.15627288818359 28.16579246520996 73.19596862792969 23.68804740905762 71.30204772949219 C 19.36230278015137 69.47240447998047 15.47705841064453 66.85280609130859 12.1402702331543 63.51601409912109 C 8.803469657897949 60.17921447753906 6.1838698387146 56.29397964477539 4.354236602783203 51.96822357177734 C 2.460303068161011 47.49048233032227 1.500003099441528 42.73307037353516 1.500003099441528 37.8281364440918 C 1.500003099441528 32.92321395874023 2.460303068161011 28.16579246520996 4.354236602783203 23.68804740905762 C 6.1838698387146 19.36230278015137 8.803469657897949 15.47706985473633 12.1402702331543 12.1402702331543 C 15.47706985473633 8.803469657897949 19.36230278015137 6.1838698387146 23.68804740905762 4.354236602783203 C 28.16579246520996 2.460303068161011 32.92321395874023 1.500003099441528 37.8281364440918 1.500003099441528 C 42.73307037353516 1.500003099441528 47.49048233032227 2.460303068161011 51.96822357177734 4.354236602783203 C 56.29397964477539 6.1838698387146 60.17921447753906 8.803469657897949 63.51601409912109 12.1402702331543 C 66.85280609130859 15.47705841064453 69.47240447998047 19.36230278015137 71.30204772949219 23.68804740905762 C 73.19596862792969 28.16579246520996 74.15627288818359 32.92320251464844 74.15627288818359 37.8281364440918 C 74.15627288818359 42.73307037353516 73.19596862792969 47.49048233032227 71.30204772949219 51.96822357177734 C 69.47240447998047 56.29397964477539 66.85280609130859 60.17921447753906 63.51601409912109 63.51601409912109 C 60.17921447753906 66.85280609130859 56.29397964477539 69.47240447998047 51.96822357177734 71.30204772949219 C 47.49048233032227 73.19596862792969 42.73307037353516 74.15627288818359 37.8281364440918 74.15627288818359 Z" stroke="none"/>
                          <path d="M 37.8281364440918 3 C 33.12504959106445 3 28.56423568725586 3.920433044433594 24.27237319946289 5.735733032226562 C 20.12542343139648 7.48974609375 16.40044784545898 10.00139617919922 13.20092391967773 13.20092391967773 C 10.00139617919922 16.40044784545898 7.48974609375 20.12542343139648 5.735733032226562 24.27237319946289 C 3.920433044433594 28.56423568725586 3 33.12504959106445 3 37.8281364440918 C 3 42.53122329711914 3.920433044433594 47.09203720092773 5.735733032226562 51.3838996887207 C 7.48974609375 55.53084945678711 10.00139617919922 59.25582122802734 13.20092391967773 62.45534896850586 C 16.40044784545898 65.65487670898438 20.12542343139648 68.16652679443359 24.27237319946289 69.92053985595703 C 28.56423568725586 71.73583984375 33.12504959106445 72.65627288818359 37.8281364440918 72.65627288818359 C 42.53122329711914 72.65627288818359 47.09203720092773 71.73583984375 51.3838996887207 69.92053985595703 C 55.53084945678711 68.16652679443359 59.25582122802734 65.65487670898438 62.45534896850586 62.45534896850586 C 65.65487670898438 59.25582122802734 68.16652679443359 55.53084945678711 69.92053985595703 51.3838996887207 C 71.73583984375 47.09203720092773 72.65627288818359 42.53122329711914 72.65627288818359 37.8281364440918 C 72.65627288818359 33.12504959106445 71.73583984375 28.56423568725586 69.92053985595703 24.27237319946289 C 68.16652679443359 20.12542343139648 65.65487670898438 16.40044784545898 62.45534896850586 13.20092391967773 C 59.25582122802734 10.00139617919922 55.53084945678711 7.48974609375 51.3838996887207 5.735733032226562 C 47.09203720092773 3.920433044433594 42.53122329711914 3 37.8281364440918 3 M 37.8281364440918 0 C 58.72003555297852 0 75.65627288818359 16.93623733520508 75.65627288818359 37.8281364440918 C 75.65627288818359 58.72003555297852 58.72003555297852 75.65627288818359 37.8281364440918 75.65627288818359 C 16.93623733520508 75.65627288818359 0 58.72003555297852 0 37.8281364440918 C 0 16.93623733520508 16.93623733520508 0 37.8281364440918 0 Z" stroke="none" fill="#1d7083"/>
                        </g>
                      </g>
                    </g>
                  </g>
                </g>
              </g>
            </g>
          </g>
        </g>
      </g>
    </g>
    <g id="hierarchical-structure_14703464" transform="translate(210.501 1088.884)">
      <g id="Grupo_1181614" data-name="Grupo 1181614" transform="translate(7.499 7.5)">
        <path id="Trazado_1041338" data-name="Trazado 1041338" d="M195.519,14.059l-7.962,2.006-2.589-.795-3.941-1.211a7.283,7.283,0,0,1,6.441-6.515,7.14,7.14,0,0,1,.806-.044A7.282,7.282,0,0,1,195.519,14.059Z" transform="translate(-164.244 -7.5)" fill="#db9e82"/>
        <path id="Trazado_1041339" data-name="Trazado 1041339" d="M184.967,15.685l-3.941-1.211a7.283,7.283,0,0,1,6.441-6.515A13.3,13.3,0,0,0,184.967,15.685Z" transform="translate(-164.244 -7.916)" fill="#c8866a"/>
        <path id="Trazado_1041340" data-name="Trazado 1041340" d="M213.456,140.6v2.19A1.451,1.451,0,0,1,212,144.239h-7.294a1.451,1.451,0,0,1-1.451-1.451V140.6a5.1,5.1,0,0,1,10.2,0Z" transform="translate(-184.327 -123.122)" fill="#00c9df"/>
        <path id="Trazado_1041341" data-name="Trazado 1041341" d="M206.471,145.071v2.606a1.269,1.269,0,0,0,.6,1.032h-2.356a1.451,1.451,0,0,1-1.451-1.451v-2.19a5.1,5.1,0,0,1,2.94-4.619l1.492,1.675A3.43,3.43,0,0,0,206.471,145.071Z" transform="translate(-184.327 -127.592)" fill="#00bad5"/>
        <path id="Trazado_1041342" data-name="Trazado 1041342" d="M187.925,63.74q-.337,0-.664-.03h0l-1.658-.884-1.107.058a7.277,7.277,0,0,1-3.817-7.148l2.044.7,1.976-1.112a6.242,6.242,0,0,0,2.256-1.309,1.432,1.432,0,0,1,1.942,0,7.17,7.17,0,0,0,4.138,1.713l.042,0a10.063,10.063,0,0,0,2.095,0A7.284,7.284,0,0,1,187.925,63.74Z" transform="translate(-163.895 -49.175)" fill="#ffddcf"/>
        <path id="Trazado_1041343" data-name="Trazado 1041343" d="M187.257,79.473a7.283,7.283,0,0,1-6.582-7.974,9.829,9.829,0,0,0,2.092,0l.038,0h.007a8.756,8.756,0,0,0,1.883-.4A10.826,10.826,0,0,0,187.257,79.473Z" transform="translate(-163.892 -64.94)" fill="#ffcbbe"/>
        <path id="Trazado_1041344" data-name="Trazado 1041344" d="M394.166,426.718v1.462a1.451,1.451,0,0,1-1.451,1.451h-7.293a1.451,1.451,0,0,1-1.451-1.451v-1.462a5.1,5.1,0,0,1,10.195,0Z" transform="translate(-347.561 -381.57)" fill="#ace094"/>
        <path id="Trazado_1041345" data-name="Trazado 1041345" d="M387.39,428.625v1.89a1.181,1.181,0,0,0,.465.841h-2.433a1.451,1.451,0,0,1-1.451-1.451v-1.462a5.1,5.1,0,0,1,3.732-4.912c.667.694,1.2,1.27,1.2,1.27S387.39,425.712,387.39,428.625Z" transform="translate(-347.561 -383.295)" fill="#8dd470"/>
        <path id="Trazado_1041346" data-name="Trazado 1041346" d="M382.285,307.053l-6.2,2.659-3.12-1.212-3.723-1.447a6.554,6.554,0,0,1,13.044,0Z" transform="translate(-334.256 -272.751)" fill="#687daa"/>
        <path id="Trazado_1041347" data-name="Trazado 1041347" d="M372.964,309.024l-3.723-1.447a6.556,6.556,0,0,1,5.664-5.846A12.705,12.705,0,0,0,372.964,309.024Z" transform="translate(-334.256 -273.275)" fill="#4a66a0"/>
        <path id="Trazado_1041348" data-name="Trazado 1041348" d="M382.018,345.2a6.554,6.554,0,0,1-6.554,6.554l-.161,0-1.547-.678-1.083.057a6.554,6.554,0,0,1-3.762-5.931c0-.22.011-.437.032-.651l1.291.945,2.461-1.36a5.539,5.539,0,0,0,1.9-1.132,1.292,1.292,0,0,1,1.749,0,6.437,6.437,0,0,0,3.724,1.542l.038,0h.011a8.932,8.932,0,0,0,1.875,0C382.007,344.766,382.018,344.984,382.018,345.2Z" transform="translate(-333.957 -310.25)" fill="#ffddcf"/>
        <path id="Trazado_1041349" data-name="Trazado 1041349" d="M375.3,365.509a6.554,6.554,0,0,1-6.393-6.552c0-.22.011-.437.032-.651a8.879,8.879,0,0,0,1.877,0l.04,0h.006a7.86,7.86,0,0,0,1.83-.41A9.3,9.3,0,0,0,375.3,365.509Z" transform="translate(-333.957 -324.003)" fill="#ffcbbe"/>
        <path id="Trazado_1041350" data-name="Trazado 1041350" d="M213.46,426.714v1.462a1.451,1.451,0,0,1-1.451,1.451h-7.293a1.451,1.451,0,0,1-1.451-1.451v-1.462a5.1,5.1,0,0,1,10.195,0Z" transform="translate(-184.332 -381.566)" fill="#fad989"/>
        <path id="Trazado_1041351" data-name="Trazado 1041351" d="M206.684,428.621v1.89a1.181,1.181,0,0,0,.465.841h-2.433a1.451,1.451,0,0,1-1.451-1.451v-1.462A5.1,5.1,0,0,1,207,423.527c.667.694,1.2,1.27,1.2,1.27S206.684,425.708,206.684,428.621Z" transform="translate(-184.332 -383.291)" fill="#fdc072"/>
        <path id="Trazado_1041352" data-name="Trazado 1041352" d="M201.579,307.049l-6.2,2.659-3.12-1.212-3.723-1.447a6.554,6.554,0,0,1,13.044,0Z" transform="translate(-171.026 -272.747)" fill="#687daa"/>
        <path id="Trazado_1041353" data-name="Trazado 1041353" d="M192.258,309.02l-3.723-1.447a6.556,6.556,0,0,1,5.664-5.846A12.705,12.705,0,0,0,192.258,309.02Z" transform="translate(-171.026 -273.271)" fill="#4a66a0"/>
        <path id="Trazado_1041354" data-name="Trazado 1041354" d="M201.309,345.2a6.555,6.555,0,0,1-6.555,6.554l-.161,0-1.775-.875-.857.253A6.552,6.552,0,0,1,188.2,345.2c0-.22.012-.437.032-.651l1.78,1.447,1.973-1.862a5.53,5.53,0,0,0,1.9-1.132,1.293,1.293,0,0,1,1.75,0,6.435,6.435,0,0,0,3.723,1.542l.037,0h.012a8.923,8.923,0,0,0,1.874,0C201.3,344.766,201.309,344.984,201.309,345.2Z" transform="translate(-170.724 -310.25)" fill="#db9e82"/>
        <path id="Trazado_1041355" data-name="Trazado 1041355" d="M194.6,365.505a6.554,6.554,0,0,1-6.393-6.552c0-.219.011-.437.032-.651a8.879,8.879,0,0,0,1.877,0l.04,0h.006a7.86,7.86,0,0,0,1.83-.41A9.3,9.3,0,0,0,194.6,365.505Z" transform="translate(-170.728 -324)" fill="#c8866a"/>
        <path id="Trazado_1041356" data-name="Trazado 1041356" d="M32.754,426.718v1.462a1.451,1.451,0,0,1-1.451,1.451H24.01a1.451,1.451,0,0,1-1.451-1.451v-1.462a5.1,5.1,0,0,1,10.195,0Z" transform="translate(-21.102 -381.57)" fill="#fd7a6e"/>
        <path id="Trazado_1041357" data-name="Trazado 1041357" d="M25.978,428.625v1.89a1.181,1.181,0,0,0,.465.841H24.01a1.451,1.451,0,0,1-1.451-1.451v-1.462a5.1,5.1,0,0,1,3.732-4.912c.667.694,1.2,1.27,1.2,1.27S25.978,425.712,25.978,428.625Z" transform="translate(-21.102 -383.295)" fill="#f85647"/>
        <path id="Trazado_1041358" data-name="Trazado 1041358" d="M20.873,307.053l-6.2,2.659-3.12-1.212-3.723-1.447a6.554,6.554,0,0,1,13.044,0Z" transform="translate(-7.797 -272.751)" fill="#687daa"/>
        <path id="Trazado_1041359" data-name="Trazado 1041359" d="M11.552,309.023l-3.723-1.447a6.556,6.556,0,0,1,5.664-5.846A12.706,12.706,0,0,0,11.552,309.023Z" transform="translate(-7.797 -273.274)" fill="#4a66a0"/>
        <path id="Trazado_1041360" data-name="Trazado 1041360" d="M20.608,345.2a6.554,6.554,0,0,1-6.554,6.554l-.161,0-1.921-.859-.712.237A6.554,6.554,0,0,1,7.5,345.2c0-.22.011-.437.032-.651l1.74,1.62,2.013-2.035a5.539,5.539,0,0,0,1.9-1.132,1.292,1.292,0,0,1,1.749,0,6.437,6.437,0,0,0,3.723,1.542l.038,0H18.7a8.936,8.936,0,0,0,1.875,0C20.6,344.766,20.608,344.984,20.608,345.2Z" transform="translate(-7.5 -310.25)" fill="#ffddcf"/>
        <path id="Trazado_1041361" data-name="Trazado 1041361" d="M13.892,365.508A6.554,6.554,0,0,1,7.5,358.956c0-.22.011-.437.032-.651a8.881,8.881,0,0,0,1.877,0l.04,0h.006a7.861,7.861,0,0,0,1.83-.41A9.3,9.3,0,0,0,13.892,365.508Z" transform="translate(-7.499 -324.002)" fill="#ffcbbe"/>
      </g>
      <g id="Grupo_1181615" data-name="Grupo 1181615" transform="translate(7.499 7.5)">
        <line id="Línea_965" data-name="Línea 965" y2="6.782" transform="translate(24.03 21.329)" fill="none" stroke="#000" stroke-linecap="round" stroke-linejoin="round" stroke-miterlimit="10" stroke-width="1"/>
        <path id="Trazado_1041362" data-name="Trazado 1041362" d="M75.264,266.908V266.4a2.9,2.9,0,0,1,2.9-2.9h29.151a2.9,2.9,0,0,1,2.9,2.9v.506" transform="translate(-68.71 -238.741)" fill="none" stroke="#000" stroke-linecap="round" stroke-linejoin="round" stroke-miterlimit="10" stroke-width="1"/>
        <path id="Trazado_1041363" data-name="Trazado 1041363" d="M211.918,150.49a5.079,5.079,0,0,1,1.538,3.648v2.19A1.451,1.451,0,0,1,212,157.778h-7.294a1.451,1.451,0,0,1-1.451-1.451v-2.19a5.08,5.08,0,0,1,1.538-3.648" transform="translate(-184.327 -136.661)" fill="none" stroke="#000" stroke-linecap="round" stroke-linejoin="round" stroke-miterlimit="10" stroke-width="1"/>
        <path id="Trazado_1041364" data-name="Trazado 1041364" d="M195.006,16.629a7.287,7.287,0,1,0-1.6,2.988" transform="translate(-163.931 -7.5)" fill="none" stroke="#000" stroke-linecap="round" stroke-linejoin="round" stroke-miterlimit="10" stroke-width="1"/>
        <path id="Trazado_1041365" data-name="Trazado 1041365" d="M181.54,55.736a10.472,10.472,0,0,0,2.088-.01,7.166,7.166,0,0,0,4.139-1.713,1.436,1.436,0,0,1,1.943,0,7.161,7.161,0,0,0,4.137,1.713,10.1,10.1,0,0,0,2.089.01" transform="translate(-164.708 -49.173)" fill="none" stroke="#000" stroke-linecap="round" stroke-linejoin="round" stroke-miterlimit="10" stroke-width="1"/>
        <path id="Trazado_1041366" data-name="Trazado 1041366" d="M386.033,431.98a5.087,5.087,0,0,0-2.063,4.095v1.462a1.451,1.451,0,0,0,1.451,1.451h3.646" transform="translate(-347.56 -390.927)" fill="none" stroke="#000" stroke-linecap="round" stroke-linejoin="round" stroke-miterlimit="10" stroke-width="1"/>
        <path id="Trazado_1041367" data-name="Trazado 1041367" d="M468.06,431.98a5.089,5.089,0,0,1,2.062,4.095v1.462a1.451,1.451,0,0,1-1.451,1.451h-.262" transform="translate(-423.517 -390.927)" fill="none" stroke="#000" stroke-linecap="round" stroke-linejoin="round" stroke-miterlimit="10" stroke-width="1"/>
        <circle id="Elipse_13092" data-name="Elipse 13092" cx="6.554" cy="6.554" r="6.554" transform="translate(34.953 28.4)" fill="none" stroke="#000" stroke-linecap="round" stroke-linejoin="round" stroke-miterlimit="10" stroke-width="1"/>
        <path id="Trazado_1041368" data-name="Trazado 1041368" d="M369.6,344.556a9.294,9.294,0,0,0,1.888-.009,6.443,6.443,0,0,0,3.725-1.542,1.292,1.292,0,0,1,1.749,0,6.44,6.44,0,0,0,3.724,1.542l.037,0a9,9,0,0,0,1.851,0" transform="translate(-334.58 -310.25)" fill="none" stroke="#000" stroke-linecap="round" stroke-linejoin="round" stroke-miterlimit="10" stroke-width="1"/>
        <path id="Trazado_1041369" data-name="Trazado 1041369" d="M211.394,431.98a5.089,5.089,0,0,1,2.062,4.095v1.462A1.451,1.451,0,0,1,212,438.988h-7.294a1.451,1.451,0,0,1-1.451-1.451v-1.462a5.087,5.087,0,0,1,2.062-4.095" transform="translate(-184.327 -390.927)" fill="none" stroke="#000" stroke-linecap="round" stroke-linejoin="round" stroke-miterlimit="10" stroke-width="1"/>
        <circle id="Elipse_13093" data-name="Elipse 13093" cx="6.554" cy="6.554" r="6.554" transform="translate(17.477 28.4)" fill="none" stroke="#000" stroke-linecap="round" stroke-linejoin="round" stroke-miterlimit="10" stroke-width="1"/>
        <path id="Trazado_1041370" data-name="Trazado 1041370" d="M188.9,344.556a9.315,9.315,0,0,0,1.888-.009,6.44,6.44,0,0,0,3.724-1.542,1.292,1.292,0,0,1,1.749,0,6.44,6.44,0,0,0,3.724,1.542,9.152,9.152,0,0,0,1.888.009" transform="translate(-171.356 -310.25)" fill="none" stroke="#000" stroke-linecap="round" stroke-linejoin="round" stroke-miterlimit="10" stroke-width="1"/>
        <path id="Trazado_1041371" data-name="Trazado 1041371" d="M30.692,431.98a5.086,5.086,0,0,1,2.063,4.095v1.462a1.451,1.451,0,0,1-1.451,1.451H24.011a1.451,1.451,0,0,1-1.451-1.451v-1.462a5.087,5.087,0,0,1,2.062-4.095" transform="translate(-21.103 -390.927)" fill="none" stroke="#000" stroke-linecap="round" stroke-linejoin="round" stroke-miterlimit="10" stroke-width="1"/>
        <path id="Trazado_1041372" data-name="Trazado 1041372" d="M10.793,302.018a6.552,6.552,0,1,1-2.4,2.386" transform="translate(-7.5 -272.75)" fill="none" stroke="#000" stroke-linecap="round" stroke-linejoin="round" stroke-miterlimit="10" stroke-width="1"/>
        <path id="Trazado_1041373" data-name="Trazado 1041373" d="M8.19,344.556a9.315,9.315,0,0,0,1.888-.009,6.443,6.443,0,0,0,3.725-1.542,1.292,1.292,0,0,1,1.749,0,6.437,6.437,0,0,0,3.723,1.542,9.121,9.121,0,0,0,1.889.009" transform="translate(-8.123 -310.25)" fill="none" stroke="#000" stroke-linecap="round" stroke-linejoin="round" stroke-miterlimit="10" stroke-width="1"/>
      </g>
    </g>
  </g>
</svg>
