<svg xmlns="http://www.w3.org/2000/svg" xmlns:xlink="http://www.w3.org/1999/xlink" width="93.656" height="93.656" viewBox="0 0 93.656 93.656">
  <defs>
    <filter id="Trazado_982547" x="0" y="0" width="93.656" height="93.656" filterUnits="userSpaceOnUse">
      <feOffset dy="3" input="SourceAlpha"/>
      <feGaussianBlur stdDeviation="3" result="blur"/>
      <feFlood flood-opacity="0.161"/>
      <feComposite operator="in" in2="blur"/>
      <feComposite in="SourceGraphic"/>
    </filter>
  </defs>
  <g id="Grupo_1181638" data-name="Grupo 1181638" transform="translate(-827 -1081)">
    <g id="Grupo_1180313" data-name="Grupo 1180313" transform="translate(-3.461 -6709)">
      <g id="Grupo_1180312" data-name="Grupo 1180312">
        <g id="Grupo_1174895" data-name="Grupo 1174895" transform="translate(641.291 2507.168)">
          <g id="Grupo_1172067" data-name="Grupo 1172067" transform="translate(198.17 5288.832)">
            <g id="Grupo_1164308" data-name="Grupo 1164308" transform="translate(0 0)">
              <g id="Grupo_1163948" data-name="Grupo 1163948" transform="translate(0)">
                <g id="Grupo_1158168" data-name="Grupo 1158168" transform="translate(0)">
                  <g id="Grupo_1152576" data-name="Grupo 1152576">
                    <g id="Grupo_1148633" data-name="Grupo 1148633">
                      <g id="Grupo_1148525" data-name="Grupo 1148525">
                        <g transform="matrix(1, 0, 0, 1, -9, -6)" filter="url(#Trazado_982547)">
                          <g id="Trazado_982547-2" data-name="Trazado 982547" transform="translate(9 6)" fill="#e9f9fd">
                            <path d="M 37.8281364440918 74.15627288818359 C 32.92320251464844 74.15627288818359 28.16579246520996 73.19596862792969 23.68804740905762 71.30204772949219 C 19.36230278015137 69.47240447998047 15.47705841064453 66.85280609130859 12.1402702331543 63.51601409912109 C 8.803469657897949 60.17921447753906 6.1838698387146 56.29397964477539 4.354236602783203 51.96822357177734 C 2.460303068161011 47.49048233032227 1.500003099441528 42.73307037353516 1.500003099441528 37.8281364440918 C 1.500003099441528 32.92321395874023 2.460303068161011 28.16579246520996 4.354236602783203 23.68804740905762 C 6.1838698387146 19.36230278015137 8.803469657897949 15.47706985473633 12.1402702331543 12.1402702331543 C 15.47706985473633 8.803469657897949 19.36230278015137 6.1838698387146 23.68804740905762 4.354236602783203 C 28.16579246520996 2.460303068161011 32.92321395874023 1.500003099441528 37.8281364440918 1.500003099441528 C 42.73307037353516 1.500003099441528 47.49048233032227 2.460303068161011 51.96822357177734 4.354236602783203 C 56.29397964477539 6.1838698387146 60.17921447753906 8.803469657897949 63.51601409912109 12.1402702331543 C 66.85280609130859 15.47705841064453 69.47240447998047 19.36230278015137 71.30204772949219 23.68804740905762 C 73.19596862792969 28.16579246520996 74.15627288818359 32.92320251464844 74.15627288818359 37.8281364440918 C 74.15627288818359 42.73307037353516 73.19596862792969 47.49048233032227 71.30204772949219 51.96822357177734 C 69.47240447998047 56.29397964477539 66.85280609130859 60.17921447753906 63.51601409912109 63.51601409912109 C 60.17921447753906 66.85280609130859 56.29397964477539 69.47240447998047 51.96822357177734 71.30204772949219 C 47.49048233032227 73.19596862792969 42.73307037353516 74.15627288818359 37.8281364440918 74.15627288818359 Z" stroke="none"/>
                            <path d="M 37.8281364440918 3 C 33.12504959106445 3 28.56423568725586 3.920433044433594 24.27237319946289 5.735733032226562 C 20.12542343139648 7.48974609375 16.40044784545898 10.00139617919922 13.20092391967773 13.20092391967773 C 10.00139617919922 16.40044784545898 7.48974609375 20.12542343139648 5.735733032226562 24.27237319946289 C 3.920433044433594 28.56423568725586 3 33.12504959106445 3 37.8281364440918 C 3 42.53122329711914 3.920433044433594 47.09203720092773 5.735733032226562 51.3838996887207 C 7.48974609375 55.53084945678711 10.00139617919922 59.25582122802734 13.20092391967773 62.45534896850586 C 16.40044784545898 65.65487670898438 20.12542343139648 68.16652679443359 24.27237319946289 69.92053985595703 C 28.56423568725586 71.73583984375 33.12504959106445 72.65627288818359 37.8281364440918 72.65627288818359 C 42.53122329711914 72.65627288818359 47.09203720092773 71.73583984375 51.3838996887207 69.92053985595703 C 55.53084945678711 68.16652679443359 59.25582122802734 65.65487670898438 62.45534896850586 62.45534896850586 C 65.65487670898438 59.25582122802734 68.16652679443359 55.53084945678711 69.92053985595703 51.3838996887207 C 71.73583984375 47.09203720092773 72.65627288818359 42.53122329711914 72.65627288818359 37.8281364440918 C 72.65627288818359 33.12504959106445 71.73583984375 28.56423568725586 69.92053985595703 24.27237319946289 C 68.16652679443359 20.12542343139648 65.65487670898438 16.40044784545898 62.45534896850586 13.20092391967773 C 59.25582122802734 10.00139617919922 55.53084945678711 7.48974609375 51.3838996887207 5.735733032226562 C 47.09203720092773 3.920433044433594 42.53122329711914 3 37.8281364440918 3 M 37.8281364440918 0 C 58.72003555297852 0 75.65627288818359 16.93623733520508 75.65627288818359 37.8281364440918 C 75.65627288818359 58.72003555297852 58.72003555297852 75.65627288818359 37.8281364440918 75.65627288818359 C 16.93623733520508 75.65627288818359 0 58.72003555297852 0 37.8281364440918 C 0 16.93623733520508 16.93623733520508 0 37.8281364440918 0 Z" stroke="none" fill="#1d7083"/>
                          </g>
                        </g>
                      </g>
                    </g>
                  </g>
                </g>
              </g>
            </g>
          </g>
        </g>
      </g>
    </g>
    <g id="organizado" transform="translate(811.48 1097.777)">
      <g id="Grupo_1181620" data-name="Grupo 1181620" transform="translate(47.673 11.496)">
        <g id="Grupo_1181617" data-name="Grupo 1181617" transform="translate(0)">
          <path id="Trazado_1041374" data-name="Trazado 1041374" d="M108.954,116.032a8.251,8.251,0,0,1,.333-2.319,11.977,11.977,0,1,0,7.83,11.236c0-.224-.007-.445-.019-.666A8.253,8.253,0,0,1,108.954,116.032Z" transform="translate(-93.163 -112.973)" fill="#05e39c"/>
        </g>
        <path id="Trazado_1041375" data-name="Trazado 1041375" d="M101.095,132.588a8.642,8.642,0,0,1,0-15.274,11.993,11.993,0,0,1,6.632-4.058,11.977,11.977,0,1,0,0,23.389A11.994,11.994,0,0,1,101.095,132.588Z" transform="translate(-93.163 -112.974)" fill="#0ed290"/>
        <g id="Grupo_1181618" data-name="Grupo 1181618" transform="translate(3.335 3.335)">
          <path id="Trazado_1041376" data-name="Trazado 1041376" d="M138.48,146.677a8.653,8.653,0,1,0,4.612,6.244A8.262,8.262,0,0,1,138.48,146.677Z" transform="translate(-125.935 -145.745)" fill="#fff"/>
        </g>
        <g id="Grupo_1181619" data-name="Grupo 1181619" transform="translate(3.335 3.335)">
          <path id="Trazado_1041377" data-name="Trazado 1041377" d="M130.216,154.388a8.645,8.645,0,0,1,6.5-8.373,8.641,8.641,0,1,0,0,16.748A8.645,8.645,0,0,1,130.216,154.388Z" transform="translate(-125.935 -145.746)" fill="#f9f3f1"/>
        </g>
      </g>
      <g id="Grupo_1181627" data-name="Grupo 1181627" transform="translate(43.301 38.995)">
        <g id="Grupo_1181621" data-name="Grupo 1181621" transform="translate(12.581 0.172)">
          <path id="Trazado_1041378" data-name="Trazado 1041378" d="M196.308,386.3a4.8,4.8,0,0,0-6.791,0l-4.237,4.237h-1.954v.237a.95.95,0,0,1-.95.95h-8.546v4.273h12.481a2.967,2.967,0,0,0,2.1-.869l7.9-7.9a.658.658,0,0,0,0-.93Z" transform="translate(-173.831 -384.89)" fill="#ffb09e"/>
        </g>
        <g id="Grupo_1181622" data-name="Grupo 1181622" transform="translate(12.581 0.57)">
          <path id="Trazado_1041379" data-name="Trazado 1041379" d="M196.309,389.811a4.785,4.785,0,0,0-1.481-1.008l-7.292,7.292a2.967,2.967,0,0,1-2.1.869H173.832v2.544h12.481a2.967,2.967,0,0,0,2.1-.869l7.9-7.9a.658.658,0,0,0,0-.93Z" transform="translate(-173.832 -388.803)" fill="#f89580"/>
        </g>
        <g id="Grupo_1181623" data-name="Grupo 1181623" transform="translate(12.581 1.543)">
          <path id="Trazado_1041380" data-name="Trazado 1041380" d="M179.33,398.362h-5.5v5.46h8.546a.949.949,0,0,0,.95-.949v-.514A4,4,0,0,0,179.33,398.362Z" transform="translate(-173.831 -398.362)" fill="#ffcebf"/>
        </g>
        <g id="Grupo_1181624" data-name="Grupo 1181624" transform="translate(12.581 1.543)">
          <path id="Trazado_1041381" data-name="Trazado 1041381" d="M176.392,401.953a1.253,1.253,0,0,1,1.252-1.252h4.246a4,4,0,0,1,1.147.168,4,4,0,0,0-3.708-2.507h-5.5v5.46h2.561Z" transform="translate(-173.831 -398.362)" fill="#ffb09e"/>
        </g>
        <g id="Grupo_1181625" data-name="Grupo 1181625" transform="translate(0)">
          <path id="Trazado_1041382" data-name="Trazado 1041382" d="M51.217,395.544H61.762a1.018,1.018,0,0,0,1.018-1.018V384.218a1.018,1.018,0,0,0-1.018-1.018H51.217a1.018,1.018,0,0,0-1.018,1.018v10.308A1.018,1.018,0,0,0,51.217,395.544Z" transform="translate(-50.199 -383.2)" fill="#b9acac"/>
        </g>
        <g id="Grupo_1181626" data-name="Grupo 1181626" transform="translate(0)">
          <path id="Trazado_1041383" data-name="Trazado 1041383" d="M53.639,386.813a1.018,1.018,0,0,1,1.018-1.018H62.78v-1.577a1.018,1.018,0,0,0-1.018-1.018H51.217a1.018,1.018,0,0,0-1.018,1.018v10.308a1.018,1.018,0,0,0,1.018,1.018h2.422Z" transform="translate(-50.199 -383.2)" fill="#9e9797"/>
        </g>
      </g>
      <g id="Grupo_1181628" data-name="Grupo 1181628" transform="translate(78.411 21.306)">
        <path id="Trazado_1041384" data-name="Trazado 1041384" d="M398.243,209.636a3.9,3.9,0,0,1-2.768,2.768.393.393,0,0,0,0,.739,3.9,3.9,0,0,1,2.768,2.768.393.393,0,0,0,.739,0,3.9,3.9,0,0,1,2.768-2.768.393.393,0,0,0,0-.739,3.9,3.9,0,0,1-2.768-2.768A.393.393,0,0,0,398.243,209.636Z" transform="translate(-395.216 -209.377)" fill="#ffd15b"/>
      </g>
      <g id="Grupo_1181630" data-name="Grupo 1181630" transform="translate(78.411 23.627)">
        <g id="Grupo_1181629" data-name="Grupo 1181629" transform="translate(0)">
          <path id="Trazado_1041385" data-name="Trazado 1041385" d="M399.677,234.96a3.9,3.9,0,0,0-2.768-2.768c-.011,0-.02-.009-.03-.014a5.312,5.312,0,0,1-1.4.707.393.393,0,0,0,0,.739,3.9,3.9,0,0,1,2.768,2.768.393.393,0,0,0,.739,0,5.309,5.309,0,0,1,.707-1.4C399.686,234.98,399.681,234.971,399.677,234.96Z" transform="translate(-395.217 -232.178)" fill="#ffc344"/>
        </g>
      </g>
      <g id="Grupo_1181631" data-name="Grupo 1181631" transform="translate(43.283 6.12)">
        <path id="Trazado_1041386" data-name="Trazado 1041386" d="M53.046,60.4a3.9,3.9,0,0,1-2.768,2.768.393.393,0,0,0,0,.739,3.9,3.9,0,0,1,2.768,2.768.393.393,0,0,0,.739,0A3.9,3.9,0,0,1,56.554,63.9a.393.393,0,0,0,0-.739A3.9,3.9,0,0,1,53.786,60.4.393.393,0,0,0,53.046,60.4Z" transform="translate(-50.019 -60.137)" fill="#ffd15b"/>
      </g>
      <g id="Grupo_1181633" data-name="Grupo 1181633" transform="translate(43.283 8.395)">
        <g id="Grupo_1181632" data-name="Grupo 1181632" transform="translate(0)">
          <path id="Trazado_1041387" data-name="Trazado 1041387" d="M54.528,85.274a3.9,3.9,0,0,0-2.768-2.768l-.022-.01a5.163,5.163,0,0,1-1.459.752.393.393,0,0,0,0,.739,3.9,3.9,0,0,1,2.768,2.768.393.393,0,0,0,.739,0,5.165,5.165,0,0,1,.752-1.46C54.535,85.289,54.531,85.282,54.528,85.274Z" transform="translate(-50.02 -82.496)" fill="#ffc344"/>
        </g>
      </g>
      <g id="Grupo_1181636" data-name="Grupo 1181636" transform="translate(63.464 6.301)">
        <g id="Grupo_1181634" data-name="Grupo 1181634">
          <circle id="Elipse_13094" data-name="Elipse 13094" cx="8.254" cy="8.254" r="8.254" fill="#ffd15b"/>
        </g>
        <g id="Grupo_1181635" data-name="Grupo 1181635" transform="translate(0 0)">
          <path id="Trazado_1041388" data-name="Trazado 1041388" d="M252.659,70.177a8.256,8.256,0,0,1,6.1-7.967,8.254,8.254,0,1,0,0,15.934A8.256,8.256,0,0,1,252.659,70.177Z" transform="translate(-248.341 -61.923)" fill="#ffc344"/>
        </g>
      </g>
      <g id="Grupo_1181637" data-name="Grupo 1181637" transform="translate(42.52)">
        <path id="Trazado_1041389" data-name="Trazado 1041389" d="M219.768,2.241a.763.763,0,0,0,.763-.763V.763a.763.763,0,1,0-1.526,0v.714A.763.763,0,0,0,219.768,2.241Z" transform="translate(-201.046)"/>
        <path id="Trazado_1041390" data-name="Trazado 1041390" d="M219.768,54.539a.763.763,0,0,0,.763-.763v-.714a.763.763,0,1,0-1.526,0v.714A.763.763,0,0,0,219.768,54.539Z" transform="translate(-201.046 -46.976)"/>
        <path id="Trazado_1041391" data-name="Trazado 1041391" d="M190.275,31.353h.714a.763.763,0,0,0,0-1.526h-.714a.763.763,0,0,0,0,1.526Z" transform="translate(-174.554 -26.792)"/>
        <path id="Trazado_1041392" data-name="Trazado 1041392" d="M242.574,31.353h.714a.763.763,0,1,0,0-1.526h-.714a.763.763,0,1,0,0,1.526Z" transform="translate(-221.531 -26.792)"/>
        <path id="Trazado_1041393" data-name="Trazado 1041393" d="M361.233,292.263a.763.763,0,1,0-1.526,0v.57a.763.763,0,0,0,1.526,0Z" transform="translate(-327.43 -261.837)"/>
        <path id="Trazado_1041394" data-name="Trazado 1041394" d="M360.47,333.22a.763.763,0,0,0-.763.763v.57a.763.763,0,0,0,1.526,0v-.57A.763.763,0,0,0,360.47,333.22Z" transform="translate(-327.43 -299.311)"/>
        <path id="Trazado_1041395" data-name="Trazado 1041395" d="M336.944,315.293a.763.763,0,1,0,0,1.526h.57a.763.763,0,0,0,0-1.526Z" transform="translate(-306.298 -283.209)"/>
        <path id="Trazado_1041396" data-name="Trazado 1041396" d="M378.663,316.819h.57a.763.763,0,1,0,0-1.526h-.57a.763.763,0,1,0,0,1.526Z" transform="translate(-343.772 -283.209)"/>
        <path id="Trazado_1041397" data-name="Trazado 1041397" d="M98.4,59.619a12.74,12.74,0,1,0,12.739,12.813,9.048,9.048,0,0,0,8.01-6.55.763.763,0,1,0-1.47-.413,7.489,7.489,0,1,1,.183-3.233.763.763,0,0,0,1.507-.244,9.017,9.017,0,0,0-17.3-1.834A12.677,12.677,0,0,0,98.4,59.619Zm7.817,11.773a7.833,7.833,0,0,1-1.046,4.995.763.763,0,1,0,1.311.782,9.4,9.4,0,0,0,1.323-4.81c0-.1,0-.2-.006-.3a8.961,8.961,0,0,0,1.813.362,11.219,11.219,0,1,1-7.978-10.794,9.023,9.023,0,0,0-.184,1.818c0,.007,0,.014,0,.021a9.308,9.308,0,0,0-3.051-.509,9.405,9.405,0,1,0,5.453,17.066.763.763,0,0,0-.886-1.243,7.878,7.878,0,1,1-1.349-13.609,9.046,9.046,0,0,0,4.6,6.224Z" transform="translate(-81.273 -48.886)"/>
        <path id="Trazado_1041398" data-name="Trazado 1041398" d="M204.885,176.051v-4.575a.763.763,0,1,0-1.526,0v5.338a.763.763,0,0,0,.763.763h4.254a.763.763,0,1,0,0-1.526Z" transform="translate(-186.992 -153.341)"/>
        <path id="Trazado_1041399" data-name="Trazado 1041399" d="M75.125,375.872a5.528,5.528,0,0,0-3.935,1.63l-4.014,4.014h-.9a4.766,4.766,0,0,0-4.735-4.273H56.789a1.782,1.782,0,0,0-1.763-1.543H44.48a1.783,1.783,0,0,0-1.781,1.781v10.308a1.783,1.783,0,0,0,1.781,1.781h5.475a.763.763,0,1,0,0-1.526H44.48a.255.255,0,0,1-.254-.254V377.481a.255.255,0,0,1,.254-.254H55.026a.255.255,0,0,1,.254.254v10.308a.255.255,0,0,1-.254.254H53.516a.763.763,0,1,0,0,1.526h1.509a1.783,1.783,0,0,0,1.631-1.068H68.524a3.706,3.706,0,0,0,2.638-1.092l7.9-7.9a1.423,1.423,0,0,0,0-2.01A5.528,5.528,0,0,0,75.125,375.872Zm-18.318,2.9h4.735A3.237,3.237,0,0,1,64.775,382v.514a.186.186,0,0,1-.186.186H56.806Zm13.276,7.561a2.189,2.189,0,0,1-1.558.646H56.806v-2.746h7.782a1.715,1.715,0,0,0,1.629-1.187h1.274a.763.763,0,0,0,.54-.223l4.238-4.237a4.043,4.043,0,0,1,5.636-.074Z" transform="translate(-42.681 -337.469)"/>
        <path id="Trazado_1041400" data-name="Trazado 1041400" d="M395.272,204.948a3.167,3.167,0,0,1-2.308-2.308,1.144,1.144,0,0,0-1.088-.764h0a1.144,1.144,0,0,0-1.088.764,3.167,3.167,0,0,1-2.308,2.308,1.156,1.156,0,0,0,0,2.176,3.168,3.168,0,0,1,2.308,2.308,1.156,1.156,0,0,0,2.176,0,3.167,3.167,0,0,1,2.308-2.308,1.156,1.156,0,0,0,0-2.176Zm-3.4,3.139a4.238,4.238,0,0,0-2.051-2.051,4.238,4.238,0,0,0,2.051-2.05,4.237,4.237,0,0,0,2.051,2.05A4.238,4.238,0,0,0,391.876,208.087Z" transform="translate(-352.589 -181.333)"/>
        <path id="Trazado_1041401" data-name="Trazado 1041401" d="M43.284,57.885a3.168,3.168,0,0,1,2.308,2.308,1.157,1.157,0,0,0,2.176,0,3.167,3.167,0,0,1,2.308-2.308,1.156,1.156,0,0,0,0-2.176A3.168,3.168,0,0,1,47.768,53.4a1.144,1.144,0,0,0-1.088-.764h0a1.144,1.144,0,0,0-1.088.764h0a3.167,3.167,0,0,1-2.308,2.308,1.156,1.156,0,0,0,0,2.176Zm3.4-3.138a4.238,4.238,0,0,0,2.05,2.051,4.238,4.238,0,0,0-2.05,2.051A4.238,4.238,0,0,0,44.63,56.8,4.238,4.238,0,0,0,46.68,54.746Z" transform="translate(-42.52 -47.281)"/>
        <path id="Trazado_1041402" data-name="Trazado 1041402" d="M303.708,158.313h.547a2.723,2.723,0,0,0,2.72-2.72.763.763,0,0,0-1.526,0,1.2,1.2,0,0,1-1.194,1.194h-.547a1.2,1.2,0,0,1-1.194-1.194.763.763,0,0,0-1.526,0A2.723,2.723,0,0,0,303.708,158.313Z" transform="translate(-274.686 -139.074)"/>
        <path id="Trazado_1041403" data-name="Trazado 1041403" d="M300.569,111.782v-1.026a.763.763,0,1,0-1.526,0v1.026a.763.763,0,1,0,1.526,0Z" transform="translate(-272.939 -98.8)"/>
        <path id="Trazado_1041404" data-name="Trazado 1041404" d="M346.392,110.756a.763.763,0,1,0-1.526,0v1.026a.763.763,0,1,0,1.526,0Z" transform="translate(-314.099 -98.8)"/>
        <circle id="Elipse_13095" data-name="Elipse 13095" cx="0.763" cy="0.763" r="0.763" transform="translate(9.038 41.318)"/>
      </g>
    </g>
  </g>
</svg>
