<svg xmlns="http://www.w3.org/2000/svg" xmlns:xlink="http://www.w3.org/1999/xlink" width="93.656" height="93.656" viewBox="0 0 93.656 93.656">
  <defs>
    <filter id="Trazado_982547" x="0" y="0" width="93.656" height="93.656" filterUnits="userSpaceOnUse">
      <feOffset dy="3" input="SourceAlpha"/>
      <feGaussianBlur stdDeviation="3" result="blur"/>
      <feFlood flood-opacity="0.161"/>
      <feComposite operator="in" in2="blur"/>
      <feComposite in="SourceGraphic"/>
    </filter>
  </defs>
  <g id="Grupo_1181671" data-name="Grupo 1181671" transform="translate(-195 -1233)">
    <g id="Grupo_1180314" data-name="Grupo 1180314" transform="translate(-5.461 -6557)">
      <g id="Grupo_1174894" data-name="Grupo 1174894" transform="translate(11.291 2507.168)">
        <g id="Grupo_1172067" data-name="Grupo 1172067" transform="translate(198.17 5288.832)">
          <g id="Grupo_1164308" data-name="Grupo 1164308" transform="translate(0 0)">
            <g id="Grupo_1163948" data-name="Grupo 1163948" transform="translate(0)">
              <g id="Grupo_1158168" data-name="Grupo 1158168" transform="translate(0)">
                <g id="Grupo_1152576" data-name="Grupo 1152576">
                  <g id="Grupo_1148633" data-name="Grupo 1148633">
                    <g id="Grupo_1148525" data-name="Grupo 1148525">
                      <g transform="matrix(1, 0, 0, 1, -9, -6)" filter="url(#Trazado_982547)">
                        <g id="Trazado_982547-2" data-name="Trazado 982547" transform="translate(9 6)" fill="#e9f9fd">
                          <path d="M 37.8281364440918 74.15627288818359 C 32.92320251464844 74.15627288818359 28.16579246520996 73.19596862792969 23.68804740905762 71.30204772949219 C 19.36230278015137 69.47240447998047 15.47705841064453 66.85280609130859 12.1402702331543 63.51601409912109 C 8.803469657897949 60.17921447753906 6.1838698387146 56.29397964477539 4.354236602783203 51.96822357177734 C 2.460303068161011 47.49048233032227 1.500003099441528 42.73307037353516 1.500003099441528 37.8281364440918 C 1.500003099441528 32.92321395874023 2.460303068161011 28.16579246520996 4.354236602783203 23.68804740905762 C 6.1838698387146 19.36230278015137 8.803469657897949 15.47706985473633 12.1402702331543 12.1402702331543 C 15.47706985473633 8.803469657897949 19.36230278015137 6.1838698387146 23.68804740905762 4.354236602783203 C 28.16579246520996 2.460303068161011 32.92321395874023 1.500003099441528 37.8281364440918 1.500003099441528 C 42.73307037353516 1.500003099441528 47.49048233032227 2.460303068161011 51.96822357177734 4.354236602783203 C 56.29397964477539 6.1838698387146 60.17921447753906 8.803469657897949 63.51601409912109 12.1402702331543 C 66.85280609130859 15.47705841064453 69.47240447998047 19.36230278015137 71.30204772949219 23.68804740905762 C 73.19596862792969 28.16579246520996 74.15627288818359 32.92320251464844 74.15627288818359 37.8281364440918 C 74.15627288818359 42.73307037353516 73.19596862792969 47.49048233032227 71.30204772949219 51.96822357177734 C 69.47240447998047 56.29397964477539 66.85280609130859 60.17921447753906 63.51601409912109 63.51601409912109 C 60.17921447753906 66.85280609130859 56.29397964477539 69.47240447998047 51.96822357177734 71.30204772949219 C 47.49048233032227 73.19596862792969 42.73307037353516 74.15627288818359 37.8281364440918 74.15627288818359 Z" stroke="none"/>
                          <path d="M 37.8281364440918 3 C 33.12504959106445 3 28.56423568725586 3.920433044433594 24.27237319946289 5.735733032226562 C 20.12542343139648 7.48974609375 16.40044784545898 10.00139617919922 13.20092391967773 13.20092391967773 C 10.00139617919922 16.40044784545898 7.48974609375 20.12542343139648 5.735733032226562 24.27237319946289 C 3.920433044433594 28.56423568725586 3 33.12504959106445 3 37.8281364440918 C 3 42.53122329711914 3.920433044433594 47.09203720092773 5.735733032226562 51.3838996887207 C 7.48974609375 55.53084945678711 10.00139617919922 59.25582122802734 13.20092391967773 62.45534896850586 C 16.40044784545898 65.65487670898438 20.12542343139648 68.16652679443359 24.27237319946289 69.92053985595703 C 28.56423568725586 71.73583984375 33.12504959106445 72.65627288818359 37.8281364440918 72.65627288818359 C 42.53122329711914 72.65627288818359 47.09203720092773 71.73583984375 51.3838996887207 69.92053985595703 C 55.53084945678711 68.16652679443359 59.25582122802734 65.65487670898438 62.45534896850586 62.45534896850586 C 65.65487670898438 59.25582122802734 68.16652679443359 55.53084945678711 69.92053985595703 51.3838996887207 C 71.73583984375 47.09203720092773 72.65627288818359 42.53122329711914 72.65627288818359 37.8281364440918 C 72.65627288818359 33.12504959106445 71.73583984375 28.56423568725586 69.92053985595703 24.27237319946289 C 68.16652679443359 20.12542343139648 65.65487670898438 16.40044784545898 62.45534896850586 13.20092391967773 C 59.25582122802734 10.00139617919922 55.53084945678711 7.48974609375 51.3838996887207 5.735733032226562 C 47.09203720092773 3.920433044433594 42.53122329711914 3 37.8281364440918 3 M 37.8281364440918 0 C 58.72003555297852 0 75.65627288818359 16.93623733520508 75.65627288818359 37.8281364440918 C 75.65627288818359 58.72003555297852 58.72003555297852 75.65627288818359 37.8281364440918 75.65627288818359 C 16.93623733520508 75.65627288818359 0 58.72003555297852 0 37.8281364440918 C 0 16.93623733520508 16.93623733520508 0 37.8281364440918 0 Z" stroke="none" fill="#1d7083"/>
                        </g>
                      </g>
                    </g>
                  </g>
                </g>
              </g>
            </g>
          </g>
        </g>
      </g>
    </g>
    <g id="red_1_" data-name="red (1)" transform="translate(218 1253)">
      <g id="Grupo_1181643" data-name="Grupo 1181643" transform="translate(35.359 30.085)">
        <g id="Grupo_1181639" data-name="Grupo 1181639" transform="translate(0 7.535)">
          <path id="Trazado_1041405" data-name="Trazado 1041405" d="M379.24,406.875v4.144h11.679v-4.144a3.391,3.391,0,0,0-3.391-3.391h-4.9A3.391,3.391,0,0,0,379.24,406.875Z" transform="translate(-379.24 -403.484)" fill="#e69642"/>
        </g>
        <g id="Grupo_1181640" data-name="Grupo 1181640" transform="translate(5.839 7.535)">
          <path id="Trazado_1041406" data-name="Trazado 1041406" d="M444.319,403.484H441.87a3.391,3.391,0,0,1,3.391,3.391v4.144h2.449v-4.144A3.391,3.391,0,0,0,444.319,403.484Z" transform="translate(-441.87 -403.484)" fill="#e38523"/>
        </g>
        <g id="Grupo_1181641" data-name="Grupo 1181641" transform="translate(2.072)">
          <circle id="Elipse_13096" data-name="Elipse 13096" cx="3.767" cy="3.767" r="3.767" fill="#fed2a4"/>
        </g>
        <g id="Grupo_1181642" data-name="Grupo 1181642" transform="translate(2.514 0.442)">
          <path id="Trazado_1041407" data-name="Trazado 1041407" d="M411.3,327.413a3.768,3.768,0,0,1-5.1,5.1,3.767,3.767,0,1,0,5.1-5.1Z" transform="translate(-406.206 -327.413)" fill="#ffbd86"/>
        </g>
      </g>
      <g id="Grupo_1181648" data-name="Grupo 1181648" transform="translate(0.699 30.085)">
        <g id="Grupo_1181644" data-name="Grupo 1181644" transform="translate(0 7.535)">
          <path id="Trazado_1041408" data-name="Trazado 1041408" d="M7.5,406.875v4.144H19.179v-4.144a3.391,3.391,0,0,0-3.391-3.391h-4.9A3.391,3.391,0,0,0,7.5,406.875Z" transform="translate(-7.5 -403.484)" fill="#ad7fdd"/>
        </g>
        <g id="Grupo_1181645" data-name="Grupo 1181645" transform="translate(5.839 7.535)">
          <path id="Trazado_1041409" data-name="Trazado 1041409" d="M72.579,403.484H70.13a3.391,3.391,0,0,1,3.391,3.391v4.144h2.449v-4.144A3.391,3.391,0,0,0,72.579,403.484Z" transform="translate(-70.13 -403.484)" fill="#9d66d6"/>
        </g>
        <g id="Grupo_1181646" data-name="Grupo 1181646" transform="translate(2.072)">
          <circle id="Elipse_13097" data-name="Elipse 13097" cx="3.767" cy="3.767" r="3.767" fill="#fed2a4"/>
        </g>
        <g id="Grupo_1181647" data-name="Grupo 1181647" transform="translate(2.514 0.442)">
          <path id="Trazado_1041410" data-name="Trazado 1041410" d="M39.561,327.413a3.768,3.768,0,0,1-5.1,5.1,3.767,3.767,0,1,0,5.1-5.1Z" transform="translate(-34.465 -327.413)" fill="#ffbd86"/>
        </g>
      </g>
      <g id="Grupo_1181653" data-name="Grupo 1181653" transform="translate(35.359 2.583)">
        <g id="Grupo_1181649" data-name="Grupo 1181649" transform="translate(0 7.535)">
          <path id="Trazado_1041411" data-name="Trazado 1041411" d="M379.24,111.907v4.144h11.679v-4.144a3.391,3.391,0,0,0-3.391-3.391h-4.9A3.391,3.391,0,0,0,379.24,111.907Z" transform="translate(-379.24 -108.516)" fill="#62a4fb"/>
        </g>
        <g id="Grupo_1181650" data-name="Grupo 1181650" transform="translate(5.839 7.535)">
          <path id="Trazado_1041412" data-name="Trazado 1041412" d="M444.319,108.516H441.87a3.391,3.391,0,0,1,3.391,3.391v4.144h2.449v-4.144A3.391,3.391,0,0,0,444.319,108.516Z" transform="translate(-441.87 -108.516)" fill="#5392f9"/>
        </g>
        <g id="Grupo_1181651" data-name="Grupo 1181651" transform="translate(2.072)">
          <circle id="Elipse_13098" data-name="Elipse 13098" cx="3.767" cy="3.767" r="3.767" fill="#fed2a4"/>
        </g>
        <g id="Grupo_1181652" data-name="Grupo 1181652" transform="translate(2.514 0.442)">
          <path id="Trazado_1041413" data-name="Trazado 1041413" d="M411.3,32.445a3.768,3.768,0,0,1-5.1,5.1,3.767,3.767,0,1,0,5.1-5.1Z" transform="translate(-406.206 -32.445)" fill="#ffbd86"/>
        </g>
      </g>
      <g id="Grupo_1181658" data-name="Grupo 1181658" transform="translate(0.699 2.583)">
        <g id="Grupo_1181654" data-name="Grupo 1181654" transform="translate(0 7.535)">
          <path id="Trazado_1041414" data-name="Trazado 1041414" d="M7.5,111.907v4.144H19.179v-4.144a3.391,3.391,0,0,0-3.391-3.391h-4.9A3.391,3.391,0,0,0,7.5,111.907Z" transform="translate(-7.5 -108.516)" fill="#e175a5"/>
        </g>
        <g id="Grupo_1181655" data-name="Grupo 1181655" transform="translate(5.839 7.535)">
          <path id="Trazado_1041415" data-name="Trazado 1041415" d="M72.579,108.516H70.13a3.391,3.391,0,0,1,3.391,3.391v4.144h2.449v-4.144A3.391,3.391,0,0,0,72.579,108.516Z" transform="translate(-70.13 -108.516)" fill="#de5791"/>
        </g>
        <g id="Grupo_1181656" data-name="Grupo 1181656" transform="translate(2.072)">
          <circle id="Elipse_13099" data-name="Elipse 13099" cx="3.767" cy="3.767" r="3.767" fill="#fed2a4"/>
        </g>
        <g id="Grupo_1181657" data-name="Grupo 1181657" transform="translate(2.514 0.442)">
          <path id="Trazado_1041416" data-name="Trazado 1041416" d="M39.561,32.445a3.768,3.768,0,0,1-5.1,5.1,3.768,3.768,0,1,0,5.1-5.1Z" transform="translate(-34.465 -32.445)" fill="#ffbd86"/>
        </g>
      </g>
      <g id="Grupo_1181665" data-name="Grupo 1181665" transform="translate(17.024 17.024)">
        <g id="Grupo_1181661" data-name="Grupo 1181661">
          <g id="Grupo_1181659" data-name="Grupo 1181659">
            <circle id="Elipse_13100" data-name="Elipse 13100" cx="6.845" cy="6.845" r="6.845" fill="#a2f5c3"/>
          </g>
          <g id="Grupo_1181660" data-name="Grupo 1181660" transform="translate(1.083 1.083)">
            <path id="Trazado_1041417" data-name="Trazado 1041417" d="M203.659,194.2a6.843,6.843,0,0,1-9.455,9.455,6.844,6.844,0,1,0,9.455-9.455Z" transform="translate(-194.204 -194.204)" fill="#88f2a9"/>
          </g>
        </g>
        <g id="Grupo_1181664" data-name="Grupo 1181664" transform="translate(3.359 3.948)">
          <g id="Grupo_1181663" data-name="Grupo 1181663">
            <g id="Grupo_1181662" data-name="Grupo 1181662">
              <path id="Trazado_1041418" data-name="Trazado 1041418" d="M221.3,230.723a1.507,1.507,0,0,1-1.065-.441l-1.177-1.177a1.507,1.507,0,1,1,2.131-2.131l.112.112,1.714-1.714a1.507,1.507,0,1,1,2.131,2.131l-2.78,2.78a1.506,1.506,0,0,1-1.066.441Z" transform="translate(-218.616 -224.93)" fill="#e6f7fe"/>
            </g>
          </g>
        </g>
      </g>
      <g id="Grupo_1181666" data-name="Grupo 1181666" transform="translate(21.42 0.699)">
        <circle id="Elipse_13101" data-name="Elipse 13101" cx="2.449" cy="2.449" r="2.449" fill="#a2f5c3"/>
      </g>
      <g id="Grupo_1181667" data-name="Grupo 1181667" transform="translate(42.14 21.42)">
        <circle id="Elipse_13102" data-name="Elipse 13102" cx="2.449" cy="2.449" r="2.449" fill="#a2f5c3"/>
      </g>
      <g id="Grupo_1181668" data-name="Grupo 1181668" transform="translate(0.699 21.42)">
        <circle id="Elipse_13103" data-name="Elipse 13103" cx="2.449" cy="2.449" r="2.449" fill="#a2f5c3"/>
      </g>
      <g id="Grupo_1181669" data-name="Grupo 1181669" transform="translate(21.42 42.14)">
        <circle id="Elipse_13104" data-name="Elipse 13104" cx="2.449" cy="2.449" r="2.449" fill="#a2f5c3"/>
      </g>
      <g id="Grupo_1181670" data-name="Grupo 1181670" transform="translate(0 0)">
        <path id="Trazado_1041419" data-name="Trazado 1041419" d="M47.038,18.352a.7.7,0,0,0,.7-.7V13.508a4.1,4.1,0,0,0-3.36-4.023A4.466,4.466,0,1,0,36.732,6.35c0,.136.007.271.019.4a21.328,21.328,0,0,0-9.77-4.08,3.148,3.148,0,0,0-6.225,0,21.326,21.326,0,0,0-9.77,4.08c.012-.133.019-.268.019-.4A4.467,4.467,0,1,0,3.361,9.485,4.1,4.1,0,0,0,0,13.508v4.144a.7.7,0,0,0,.7.7H3.167a21.37,21.37,0,0,0-.493,2.4,3.148,3.148,0,0,0,0,6.225,21.355,21.355,0,0,0,.844,3.584,4.458,4.458,0,0,0-.158,6.421A4.1,4.1,0,0,0,0,41.01v4.144a.7.7,0,0,0,.7.7H12.378a.7.7,0,0,0,.7-.7V42.373a21.459,21.459,0,0,0,7.679,2.69,3.148,3.148,0,0,0,6.225,0,21.459,21.459,0,0,0,7.679-2.69v2.781a.7.7,0,0,0,.7.7h3.858a.7.7,0,0,0,0-1.4H36.058V41.01a2.7,2.7,0,0,1,2.692-2.692h4.9a2.7,2.7,0,0,1,2.692,2.692v3.445H42.48a.7.7,0,1,0,0,1.4h4.557a.7.7,0,0,0,.7-.7V41.01a4.1,4.1,0,0,0-3.36-4.024,4.458,4.458,0,0,0-.158-6.421,21.357,21.357,0,0,0,.844-3.584,3.148,3.148,0,0,0,0-6.225,21.366,21.366,0,0,0-.493-2.4Zm-.7-4.843v3.445H36.058V13.508a2.694,2.694,0,0,1,2.691-2.691h4.9A2.694,2.694,0,0,1,46.338,13.508ZM41.2,3.282A3.068,3.068,0,1,1,38.13,6.35,3.072,3.072,0,0,1,41.2,3.282ZM23.869,1.4a1.749,1.749,0,1,1-1.75,1.749A1.751,1.751,0,0,1,23.869,1.4ZM6.539,3.282A3.068,3.068,0,1,1,3.471,6.35,3.072,3.072,0,0,1,6.539,3.282ZM1.4,23.869a1.749,1.749,0,1,1,1.749,1.749A1.751,1.751,0,0,1,1.4,23.869Zm5.14,6.915a3.068,3.068,0,1,1-3.068,3.068A3.072,3.072,0,0,1,6.539,30.784ZM1.4,44.455V41.01A2.694,2.694,0,0,1,4.09,38.319h4.9a2.694,2.694,0,0,1,2.691,2.691v3.445Zm22.47,1.884a1.749,1.749,0,1,1,1.75-1.749A1.751,1.751,0,0,1,23.869,46.338ZM41.213,36.92h-.029a3.068,3.068,0,1,1,.029,0Zm5.126-13.051a1.75,1.75,0,1,1-1.75-1.749A1.751,1.751,0,0,1,46.338,23.869Zm-2.674-3.009a3.148,3.148,0,0,0,0,6.018A19.969,19.969,0,0,1,43,29.768a4.464,4.464,0,0,0-4.984,7.218,4.1,4.1,0,0,0-3.349,3.739,20.042,20.042,0,0,1-7.793,2.939,3.148,3.148,0,0,0-6.019,0,20.044,20.044,0,0,1-7.793-2.939,4.1,4.1,0,0,0-3.349-3.739,4.464,4.464,0,0,0-4.984-7.218,19.97,19.97,0,0,1-.659-2.891,3.148,3.148,0,0,0,0-6.018,19.95,19.95,0,0,1,.545-2.508H6.033a.7.7,0,1,0,0-1.4H1.4V13.508A2.694,2.694,0,0,1,4.09,10.817h4.9a2.694,2.694,0,0,1,2.692,2.691v3.445H9.3a.7.7,0,0,0,0,1.4h3.081a.7.7,0,0,0,.7-.7V13.508A4.1,4.1,0,0,0,9.9,9.523a19.956,19.956,0,0,1,10.956-5.45,3.148,3.148,0,0,0,6.018,0A19.956,19.956,0,0,1,37.834,9.523a4.1,4.1,0,0,0-3.174,3.985v4.144a.7.7,0,0,0,.7.7h7.76a19.943,19.943,0,0,1,.545,2.508Z" transform="translate(0 0)"/>
        <path id="Trazado_1041420" data-name="Trazado 1041420" d="M188.121,178.481a.7.7,0,0,0-.233.961,6.141,6.141,0,1,1-2.062-2.062.7.7,0,1,0,.728-1.194,7.54,7.54,0,1,0,2.529,2.529.7.7,0,0,0-.961-.233Z" transform="translate(-158.766 -158.765)"/>
        <path id="Trazado_1041421" data-name="Trazado 1041421" d="M217.28,217.43a2.191,2.191,0,0,0-1.56.646l-1.267,1.267a2.207,2.207,0,0,0-2.69,3.456l1.177,1.177a2.206,2.206,0,0,0,3.12,0l2.78-2.78a2.206,2.206,0,0,0-1.56-3.766Zm.571,2.777-2.78,2.78a.807.807,0,0,1-1.142,0l-1.177-1.177a.808.808,0,1,1,1.142-1.142l.112.112a.7.7,0,0,0,.989,0l1.714-1.714a.808.808,0,1,1,1.142,1.142Z" transform="translate(-191.433 -197.158)"/>
        <path id="Trazado_1041422" data-name="Trazado 1041422" d="M249.2,91.62a.7.7,0,0,0,.7-.7V85.552a.7.7,0,1,0-1.4,0v5.369A.7.7,0,0,0,249.2,91.62Z" transform="translate(-225.331 -76.942)"/>
        <path id="Trazado_1041423" data-name="Trazado 1041423" d="M354.567,249.2a.7.7,0,0,0,.7.7h5.368a.7.7,0,1,0,0-1.4h-5.368A.7.7,0,0,0,354.567,249.2Z" transform="translate(-321.508 -225.331)"/>
        <path id="Trazado_1041424" data-name="Trazado 1041424" d="M249.2,354.567a.7.7,0,0,0-.7.7v5.369a.7.7,0,0,0,1.4,0v-5.369A.7.7,0,0,0,249.2,354.567Z" transform="translate(-225.331 -321.508)"/>
        <path id="Trazado_1041425" data-name="Trazado 1041425" d="M90.922,248.5H85.553a.7.7,0,1,0,0,1.4h5.368a.7.7,0,0,0,0-1.4Z" transform="translate(-76.943 -225.331)"/>
      </g>
    </g>
  </g>
</svg>
