<svg xmlns="http://www.w3.org/2000/svg" xmlns:xlink="http://www.w3.org/1999/xlink" width="400" height="312" viewBox="0 0 400 312">
  <defs>
    <clipPath id="clip-path">
      <rect id="Rectángulo_415651" data-name="Rectángulo 415651" width="400" height="312" transform="translate(1020 1417)" fill="#fff" stroke="#707070" stroke-width="1" opacity="0.77"/>
    </clipPath>
  </defs>
  <g id="Enmascarar_grupo_1098821" data-name="Enmascarar grupo 1098821" transform="translate(-1020 -1417)" clip-path="url(#clip-path)">
    <g id="Grupo_1182190" data-name="Grupo 1182190">
      <path id="Trazado_1041441" data-name="Trazado 1041441" d="M72.066,234.518c-25.21-18.205-44.977-45.031-50.122-75.632-3.84-22.844,1.467-47.519,15.144-66.316,6.246-8.587,15.61-18.211,25.551-22.379,12.14-5.09,26.09-1.222,38.787-2.541,27.671-2.876,46.765-27.941,69.765-43.591,30.86-21,70.158-25.209,107.457-23.818C296.4.9,314.754,2.886,330.08,11.863,356.7,27.45,367.642,59.486,379.991,87.75c13.068,29.909,29.926,58.483,37.743,90.174,4.377,17.748,5.223,38.293-6.3,52.485-8.4,10.351-21.69,15.2-34.416,19.18-67.893,21.224-140.31,30.718-210.614,19.882-32.062-4.941-64.02-14.326-90.872-32.528q-1.749-1.186-3.467-2.426" transform="translate(999.272 1497.261)" fill="#e9f9fd" opacity="0.54"/>
      <g id="Grupo_1182189" data-name="Grupo 1182189" transform="translate(1044.002 1419.114)">
        <g id="Grupo_1181807" data-name="Grupo 1181807" transform="translate(0 0)">
          <g id="Grupo_1181720" data-name="Grupo 1181720" transform="translate(215.152)">
            <path id="Trazado_1041643" data-name="Trazado 1041643" d="M115.688,114.063c2.26-5.234,4.9-10.287,8.714-14.479,8.366-9.188,21.708-12.972,34.016-11.26,19.336,2.689,39.982,18.2,42.252,38.655.878,7.913-1.887,16.508-8.27,21.267A37.976,37.976,0,0,1,227.307,197.1c-3.307,11.026-14.133,21.045-25.336,18.4.4,14.827-11.214,28.448-25.453,32.6s-30.092-.164-41.927-9.1-20.006-22.021-25.447-35.819c-5.986-15.179-8.956-31.783-6.706-47.943,1.682-12.081,6.2-23.56,10.687-34.9C113.954,118.245,114.792,116.14,115.688,114.063Z" transform="translate(-101.687 -87.924)" fill="#8b550e"/>
          </g>
          <g id="Grupo_1181721" data-name="Grupo 1181721" transform="translate(184.824 27.997)">
            <path id="Trazado_1041644" data-name="Trazado 1041644" d="M209.894,120.039c4.979-3.147,11.072-3.971,16.961-4.1,5.693-.124,11.518.36,16.746,2.615,12.214,5.267,18.789,20.871,14.028,33.291-1.1,2.861-2.7,5.526-3.565,8.464-1.23,4.159-1.091,9.012-4.033,12.2-3.82,4.139-10.722,3.1-15.64.351-7.607-4.245-13.044-11.433-18.252-18.416-3.918-5.254-7.875-10.48-11.783-15.74-2.849-3.836-2.74-7.714-.572-12A19.216,19.216,0,0,1,209.894,120.039Z" transform="translate(-202.185 -115.921)" fill="#8b550e"/>
          </g>
          <g id="Grupo_1181722" data-name="Grupo 1181722" transform="translate(179.811 275.217)">
            <path id="Trazado_1041645" data-name="Trazado 1041645" d="M243.6,383.522a266.464,266.464,0,0,1,20.6,97.146c-45.271,12.528-92.046,16.119-139.012,11.573-2.395-21.691-4.235-45.06-4.469-66.865-.144-13.447.449-27.864,8.925-38.735,5.76-7.388,14.548-12.228,23.586-15.732a119.117,119.117,0,0,1,86.378.683C241.419,372.328,245.328,384.419,243.6,383.522Z" transform="translate(-120.701 -363.141)" fill="#308391"/>
          </g>
          <g id="Grupo_1181723" data-name="Grupo 1181723" transform="translate(122.197 159.812)">
            <path id="Trazado_1041646" data-name="Trazado 1041646" d="M319.7,247.736a90.446,90.446,0,0,1-19.465,15.708,33.684,33.684,0,0,1-9.959,4.289c-7.274,1.536-14.464-1.194-21.347-3.9-3.012,15.762-2.89,33.311,1.35,48.116a9.184,9.184,0,0,0,1.329,3.1,6.283,6.283,0,0,0,2.909,1.852c6.221,2.4,12.766,3.959,19.367,3.254a27.218,27.218,0,0,0,18.2-9.792c6-7.288,8.711-17.936,9.581-28.206S319.307,258.021,319.7,247.736Z" transform="translate(-266.86 -247.736)" fill="#ff9976"/>
          </g>
          <g id="Grupo_1181724" data-name="Grupo 1181724" transform="translate(42.249 94.001)">
            <path id="Trazado_1041647" data-name="Trazado 1041647" d="M399.912,194.024c1.034-2.9,2.58-6.032,1.461-8.9a5.483,5.483,0,0,0-8.172-2.154c-1.617,1.318-2.287,3.434-3.129,5.343-1.263,2.866-3.06,5.466-4.433,8.281s-2.327,5.992-1.731,9.067,3.108,5.933,6.236,6.091c2.474.125,4.742-1.38,6.516-3.109,1.355-1.321,2.835-3.344,2.458-5.359-.128-.682-.621-1.2-.689-1.9a12.658,12.658,0,0,1,.412-3.44A27.3,27.3,0,0,1,399.912,194.024Z" transform="translate(-383.727 -181.924)" fill="#ff9976"/>
          </g>
          <g id="Grupo_1181736" data-name="Grupo 1181736" transform="translate(4.107 115.605)">
            <g id="Grupo_1181727" data-name="Grupo 1181727">
              <g id="Grupo_1181725" data-name="Grupo 1181725">
                <path id="Trazado_1041648" data-name="Trazado 1041648" d="M310.806,329.712h121.1a7.465,7.465,0,0,0,7.465-7.465V211.524a7.465,7.465,0,0,0-7.465-7.465h-121.1a7.465,7.465,0,0,0-7.465,7.465V322.246A7.466,7.466,0,0,0,310.806,329.712Z" transform="translate(-302.81 -203.529)" fill="#fff"/>
                <path id="Trazado_1041649" data-name="Trazado 1041649" d="M310.8,330.242h121.1a8,8,0,0,0,8-7.995V211.524a8,8,0,0,0-8-7.995H310.8a8,8,0,0,0-7.995,7.995V322.247A8.005,8.005,0,0,0,310.8,330.242Zm121.1-125.653a6.944,6.944,0,0,1,6.936,6.935V322.247a6.943,6.943,0,0,1-6.936,6.935H310.8a6.943,6.943,0,0,1-6.935-6.935V211.524a6.943,6.943,0,0,1,6.935-6.935Z" transform="translate(-302.809 -203.529)" fill="#442a3a"/>
              </g>
              <g id="Grupo_1181726" data-name="Grupo 1181726" transform="translate(0.001 17.834)">
                <line id="Línea_966" data-name="Línea 966" x1="136.033" transform="translate(0.53 0.53)" fill="#fff"/>
                <path id="Trazado_1041650" data-name="Trazado 1041650" d="M303.339,222.423H439.372a.53.53,0,0,0,0-1.06H303.339a.53.53,0,0,0,0,1.06Z" transform="translate(-302.809 -221.363)" fill="#442a3a"/>
              </g>
            </g>
            <g id="Grupo_1181732" data-name="Grupo 1181732" transform="translate(98.72 7.512)">
              <g id="Grupo_1181728" data-name="Grupo 1181728" transform="translate(10.644)">
                <circle id="Elipse_13106" data-name="Elipse 13106" cx="2.851" cy="2.851" r="2.851" transform="translate(0)" fill="#f45151"/>
              </g>
              <g id="Grupo_1181731" data-name="Grupo 1181731">
                <g id="Grupo_1181729" data-name="Grupo 1181729" transform="translate(21.289)">
                  <circle id="Elipse_13107" data-name="Elipse 13107" cx="2.851" cy="2.851" r="2.851" transform="translate(0)" fill="#4ebdf4"/>
                </g>
                <g id="Grupo_1181730" data-name="Grupo 1181730">
                  <circle id="Elipse_13108" data-name="Elipse 13108" cx="2.851" cy="2.851" r="2.851" transform="translate(0)" fill="#ffc94f"/>
                </g>
              </g>
            </g>
            <g id="Grupo_1181733" data-name="Grupo 1181733" transform="translate(68.018 28.202)">
              <path id="Trazado_1041651" data-name="Trazado 1041651" d="M371.355,321.467a.53.53,0,0,0,.53-.53V232.261a.53.53,0,1,0-1.06,0v88.676A.53.53,0,0,0,371.355,321.467Z" transform="translate(-370.825 -231.731)" fill="#442a3a"/>
            </g>
            <g id="Grupo_1181734" data-name="Grupo 1181734" transform="translate(85.551 34.538)">
              <rect id="Rectángulo_415647" data-name="Rectángulo 415647" width="34.458" height="51.842" transform="translate(0)" fill="#36ceef"/>
            </g>
            <g id="Grupo_1181735" data-name="Grupo 1181735" transform="translate(16.981 34.538)">
              <rect id="Rectángulo_415648" data-name="Rectángulo 415648" width="34.458" height="51.842" transform="translate(0)" fill="#ff9d1c"/>
            </g>
          </g>
          <g id="Grupo_1181737" data-name="Grupo 1181737" transform="translate(153.178 116.36)">
            <path id="Trazado_1041652" data-name="Trazado 1041652" d="M234.749,204.579c14.053,2.192,26.38,11.825,35.481,23.649a100.824,100.824,0,0,1,20.023,51.257c.93,9.478.551,19.042.171,28.564q-1.659,41.6-3.32,83.2c-40.64,19.046-86.094,26.3-129.625,17.566-1.813-27.214-5.455-56.735-13.391-82.625-3.923-12.8-9.332-25.225-10.892-38.605-2.792-23.952,17.244-52.852,26.374-62.944,4.841-4.673,13.14-13.8,17.144-14.583,17.273-3.389,12.537,1.642,26.461-1.077C212.216,207.219,225.655,203.16,234.749,204.579Z" transform="translate(-132.931 -204.284)" fill="#86b60c"/>
          </g>
          <g id="Grupo_1181755" data-name="Grupo 1181755" transform="translate(181.182 36.495)">
            <g id="Grupo_1181738" data-name="Grupo 1181738">
              <path id="Trazado_1041653" data-name="Trazado 1041653" d="M204.95,145.141a29.866,29.866,0,0,1,1.376-11.3,14.264,14.264,0,0,1,7.346-8.374,15.336,15.336,0,0,1,7.321-.979,22.886,22.886,0,0,1,18.546,12.4,18.206,18.206,0,0,0,3.73,5.35,2.652,2.652,0,0,0,1.657.853c1.975.09,2.473-2.732,3.9-4.1,1.663-1.589,4.608-.851,6.078.919s1.84,4.18,2.1,6.466a16.577,16.577,0,0,1-.3,7.1c-.759,2.265-2.7,4.3-5.09,4.427a8.861,8.861,0,0,0-2.319.132c-1.527.505-2.049,2.556-1.457,4.052s10.505,30.5,15,32.746c-2.41,5.221-7.538,12.652-14.863,16.325a7.2,7.2,0,0,1-10.329-6.3c-.2-7.539,0-17.206-.753-22.642-4.523,2.829-7.267,3.425-12.207,1.887a17.84,17.84,0,0,1-5.911-3.064C208.439,172.744,205.408,158.114,204.95,145.141Z" transform="translate(-204.914 -124.418)" fill="#ff9976"/>
            </g>
            <g id="Grupo_1181739" data-name="Grupo 1181739" transform="translate(30.559 46.559)">
              <path id="Trazado_1041654" data-name="Trazado 1041654" d="M224.51,183.347a.518.518,0,0,0,.277-.079,16.307,16.307,0,0,0,7.479-11.7.53.53,0,0,0-1.053-.125,15.224,15.224,0,0,1-6.982,10.92.53.53,0,0,0,.279.981Z" transform="translate(-223.979 -170.978)" fill="#892e0a"/>
            </g>
            <g id="Grupo_1181740" data-name="Grupo 1181740" transform="translate(19.281 20.772)">
              <path id="Trazado_1041655" data-name="Trazado 1041655" d="M243.158,146.463a.53.53,0,0,0-.048-1.033,16.175,16.175,0,0,0-9.286,1.134.53.53,0,1,0,.431.969,15.078,15.078,0,0,1,8.671-1.059A.517.517,0,0,0,243.158,146.463Z" transform="translate(-233.509 -145.191)" fill="#442a3a"/>
            </g>
            <g id="Grupo_1181741" data-name="Grupo 1181741" transform="translate(3.075 25.338)">
              <path id="Trazado_1041656" data-name="Trazado 1041656" d="M259.385,151.081a.53.53,0,0,0-.041-1.02,11.62,11.62,0,0,0-7.325.682.53.53,0,0,0,.429.969,10.566,10.566,0,0,1,6.654-.619A.541.541,0,0,0,259.385,151.081Z" transform="translate(-251.704 -149.757)" fill="#442a3a"/>
            </g>
            <g id="Grupo_1181742" data-name="Grupo 1181742" transform="translate(21.478 21.393)">
              <path id="Trazado_1041657" data-name="Trazado 1041657" d="M238,148.962c.359,1.515,1.372,2.571,2.263,2.36s1.322-1.61.963-3.124-1.372-2.571-2.263-2.36S237.639,147.448,238,148.962Z" transform="translate(-237.871 -145.811)" fill="#442a3a"/>
            </g>
            <g id="Grupo_1181743" data-name="Grupo 1181743" transform="translate(5.154 25.908)">
              <path id="Trazado_1041658" data-name="Trazado 1041658" d="M254.733,153.091c.315,1.328,1.2,2.255,1.985,2.07s1.16-1.413.845-2.741-1.2-2.255-1.985-2.07S254.419,151.763,254.733,153.091Z" transform="translate(-254.623 -150.326)" fill="#442a3a"/>
            </g>
            <g id="Grupo_1181744" data-name="Grupo 1181744" transform="translate(19.588 13.281)">
              <path id="Trazado_1041659" data-name="Trazado 1041659" d="M235.111,141.211c-.694-.258-1.4-.874-1.266-1.6a1.6,1.6,0,0,1,.587-.884,4.847,4.847,0,0,1,4.372-.837,8.263,8.263,0,0,1,3.826,2.5c.449.488.919,1.214.346,1.8-.392.4-.856.144-1.284-.057a9.609,9.609,0,0,0-4.131-.568A7.278,7.278,0,0,1,235.111,141.211Z" transform="translate(-233.829 -137.7)" fill="#8b550e"/>
            </g>
            <g id="Grupo_1181745" data-name="Grupo 1181745" transform="translate(0.987 18.399)">
              <path id="Trazado_1041660" data-name="Trazado 1041660" d="M261.26,145.622a.9.9,0,0,0,.423-1.336,2.371,2.371,0,0,0-.792-.705A4.626,4.626,0,0,0,257.1,143a3.693,3.693,0,0,0-2.134,2.128,1.1,1.1,0,0,0,.384,1.476.755.755,0,0,0,1-.077,6.234,6.234,0,0,1,3.086-.562A4.665,4.665,0,0,0,261.26,145.622Z" transform="translate(-254.83 -142.817)" fill="#8b550e"/>
            </g>
            <g id="Grupo_1181746" data-name="Grupo 1181746" transform="translate(21.573 28.084)">
              <path id="Trazado_1041661" data-name="Trazado 1041661" d="M232.05,155.665c.1,1.575,2.243,2.72,4.784,2.557s4.519-1.572,4.418-3.147-2.243-2.72-4.784-2.557S231.949,154.09,232.05,155.665Z" transform="translate(-232.046 -152.503)" fill="#d64747"/>
            </g>
            <g id="Grupo_1181747" data-name="Grupo 1181747" transform="translate(4.4 32.561)">
              <path id="Trazado_1041662" data-name="Trazado 1041662" d="M251.953,160.047a3.267,3.267,0,1,0,3.052-3.06A3.069,3.069,0,0,0,251.953,160.047Z" transform="translate(-251.948 -156.979)" fill="#d64747"/>
            </g>
            <g id="Grupo_1181748" data-name="Grupo 1181748" transform="translate(15.779 60.376)">
              <path id="Trazado_1041663" data-name="Trazado 1041663" d="M224.847,188.927a33.483,33.483,0,0,0,22.2,16.114s-56.863,81.368-60.154,5.022c0,0,17.821-3.715,16.7-20.454C202.9,179.19,224.847,188.927,224.847,188.927Z" transform="translate(-186.896 -184.795)" fill="#ff9976"/>
            </g>
            <g id="Grupo_1181750" data-name="Grupo 1181750" transform="translate(12.449 27.845)">
              <g id="Grupo_1181749" data-name="Grupo 1181749">
                <path id="Trazado_1041664" data-name="Trazado 1041664" d="M248.726,152.722a14.5,14.5,0,0,1,.438,7.432c-.253,1.242-.816,2.347-1.155,3.555a1.738,1.738,0,0,0,.213,1.69,1.534,1.534,0,0,0,1.326.536c.834-.117,1.194,1.159.352,1.278a2.9,2.9,0,0,1-2.887-1.225c-.827-1.232-.317-2.614.177-3.862a13.225,13.225,0,0,0,.259-9.051c-.269-.812,1.01-1.16,1.277-.353Z" transform="translate(-246.575 -152.264)" fill="#892e0a"/>
              </g>
            </g>
            <g id="Grupo_1181752" data-name="Grupo 1181752" transform="translate(19.336 39.622)">
              <g id="Grupo_1181751" data-name="Grupo 1181751">
                <path id="Trazado_1041665" data-name="Trazado 1041665" d="M243.473,164.877a7.371,7.371,0,0,1-4.985,5.262.663.663,0,1,1-.352-1.278,5.9,5.9,0,0,0,2.6-1.632,5.577,5.577,0,0,0,.9-1.242,5.315,5.315,0,0,0,.557-1.462.662.662,0,1,1,1.277.352Z" transform="translate(-237.65 -164.04)" fill="#892e0a"/>
              </g>
            </g>
            <g id="Grupo_1181754" data-name="Grupo 1181754" transform="translate(24.494 43.771)">
              <g id="Grupo_1181753" data-name="Grupo 1181753">
                <path id="Trazado_1041666" data-name="Trazado 1041666" d="M238.14,169.32l-.844,1.025a.5.5,0,0,1-.213.137.488.488,0,0,1-.255.057.672.672,0,0,1-.468-.194.665.665,0,0,1-.194-.468l.024-.176a.654.654,0,0,1,.17-.292l.844-1.025a.5.5,0,0,1,.213-.137.488.488,0,0,1,.255-.057.662.662,0,0,1,.662.662l-.024.176a.66.66,0,0,1-.17.292Z" transform="translate(-236.165 -168.189)" fill="#892e0a"/>
              </g>
            </g>
          </g>
          <g id="Grupo_1181756" data-name="Grupo 1181756" transform="translate(212.429 196.108)">
            <path id="Trazado_1041667" data-name="Trazado 1041667" d="M217,293.666s42.1,26.507-16.793,18.627c0,0-109.9-27.49-39.815-28.261Z" transform="translate(-137.026 -284.032)" fill="#273603"/>
          </g>
          <g id="Grupo_1181757" data-name="Grupo 1181757" transform="translate(39.568 196.108)">
            <path id="Trazado_1041668" data-name="Trazado 1041668" d="M347.833,284.032c-4.407,13.954-18.552,28.779-30.167,43.062l-80.243.08c-2.766-7.457-13.469-10.72-19.825-15.785-4.813-3.835-8.113-9.161-12.907-13.017-1.99-1.6-4.932-2.94-7.1-1.513-2.549,1.678-1.634,5.425-.21,8.009a50.545,50.545,0,0,0,6.781,9.5,17.461,17.461,0,0,1,3.413,4.534,4.747,4.747,0,0,1-.72,5.279,6.871,6.871,0,0,1-3.971,1.48c-15,1.854-28.6-7.477-43.205-10.977a9.929,9.929,0,0,0-5.326-.193c-1.714.556-3.141,2.3-2.653,3.949a4.686,4.686,0,0,0,1.469,1.988,30.926,30.926,0,0,0,11.949,6.766,21.166,21.166,0,0,0,10.357,9.378c1.518,4.789,5.492,8.385,10.267,10.457,1.319,7.394,7.453,13.437,14.731,16.262s15.331,3.236,23.21,3.613l50.134,2.4c25.489,1.219,51.011,2.439,76.546,1.7,4.717-.136,10.85-5.424,13.854-8.866,18.692-21.414,34.329-44.605,40.226-68.465A213.878,213.878,0,0,0,347.833,284.032Z" transform="translate(-151.602 -284.032)" fill="#ff9976"/>
          </g>
          <g id="Grupo_1181759" data-name="Grupo 1181759" transform="translate(212.34 144.671)">
            <g id="Grupo_1181758" data-name="Grupo 1181758">
              <path id="Trazado_1041669" data-name="Trazado 1041669" d="M189.856,286.862a173.031,173.031,0,0,1,29.869-43.578q5.163-5.493,10.8-10.513c.634-.567,1.574.367.937.937a171.827,171.827,0,0,0-33.473,40.725q-3.775,6.395-6.984,13.1c-.37.768-1.512.1-1.145-.669Z" transform="translate(-189.785 -232.595)" fill="#273603"/>
            </g>
          </g>
          <g id="Grupo_1181761" data-name="Grupo 1181761" transform="translate(259.037 132.322)">
            <g id="Grupo_1181760" data-name="Grupo 1181760">
              <path id="Trazado_1041670" data-name="Trazado 1041670" d="M174.2,228.449l9.614-8.039c.65-.543,1.592.389.937.937l-9.614,8.039c-.651.544-1.593-.389-.937-.937Z" transform="translate(-173.978 -220.246)" fill="#273603"/>
            </g>
          </g>
          <g id="Grupo_1181763" data-name="Grupo 1181763" transform="translate(304.737 185.388)">
            <g id="Grupo_1181762" data-name="Grupo 1181762">
              <path id="Trazado_1041671" data-name="Trazado 1041671" d="M136.851,273.781a70.336,70.336,0,0,1,.223,35.758.663.663,0,0,1-1.278-.352,68.925,68.925,0,0,0-.223-35.054.663.663,0,0,1,1.278-.352Z" transform="translate(-135.547 -273.312)" fill="#496406"/>
            </g>
          </g>
          <g id="Grupo_1181765" data-name="Grupo 1181765" transform="translate(85.115 208.566)">
            <g id="Grupo_1181764" data-name="Grupo 1181764">
              <path id="Trazado_1041672" data-name="Trazado 1041672" d="M358.874,300.851c-.25,1.037-1.4,1.269-2.315,1.258a8.633,8.633,0,0,1-3.045-.6,9.058,9.058,0,0,1-4.64-4.023c-.41-.748.733-1.417,1.144-.669a7.736,7.736,0,0,0,3.525,3.273,7.428,7.428,0,0,0,2.232.644,5.631,5.631,0,0,0,1.217.041,1.4,1.4,0,0,0,.41-.087c.165-.073.168-.086.193-.19.2-.827,1.479-.477,1.279.353Z" transform="translate(-348.787 -296.49)" fill="#892e0a"/>
            </g>
          </g>
          <g id="Grupo_1181767" data-name="Grupo 1181767" transform="translate(41.098 226.413)">
            <g id="Grupo_1181766" data-name="Grupo 1181766">
              <path id="Trazado_1041673" data-name="Trazado 1041673" d="M397.927,314.457a11.82,11.82,0,0,1,4.986,9.448.663.663,0,0,1-1.325,0,10.433,10.433,0,0,0-4.33-8.3c-.69-.489-.029-1.638.669-1.144Z" transform="translate(-396.966 -314.336)" fill="#892e0a"/>
            </g>
          </g>
          <g id="Grupo_1181769" data-name="Grupo 1181769" transform="translate(52.868 238.624)">
            <g id="Grupo_1181768" data-name="Grupo 1181768">
              <path id="Trazado_1041674" data-name="Trazado 1041674" d="M361.315,326.625c4.849,2.449,9.672,4.962,14.565,7.323a53.748,53.748,0,0,0,14.783,5.086c.84.134.483,1.411-.352,1.277a54.035,54.035,0,0,1-14.664-5.01c-5.046-2.413-10.008-5.011-15-7.533-.762-.383-.092-1.527.668-1.143Z" transform="translate(-360.312 -326.547)" fill="#892e0a"/>
            </g>
          </g>
          <g id="Grupo_1181771" data-name="Grupo 1181771" transform="translate(62.75 247.775)">
            <g id="Grupo_1181770" data-name="Grupo 1181770">
              <path id="Trazado_1041675" data-name="Trazado 1041675" d="M362.406,335.819a38.315,38.315,0,0,0,18.22,6.793c.841.083.849,1.409,0,1.325a39.661,39.661,0,0,1-18.888-6.974c-.694-.487-.032-1.636.668-1.144Z" transform="translate(-361.444 -335.699)" fill="#892e0a"/>
            </g>
          </g>
          <g id="Grupo_1181773" data-name="Grupo 1181773" transform="translate(73.098 258.088)">
            <g id="Grupo_1181772" data-name="Grupo 1181772">
              <path id="Trazado_1041676" data-name="Trazado 1041676" d="M360.741,346.1a30.589,30.589,0,0,0,9.689,3.605.668.668,0,0,1,.463.815.679.679,0,0,1-.815.463,31.668,31.668,0,0,1-10.005-3.739c-.751-.406-.083-1.55.668-1.144Z" transform="translate(-359.744 -346.012)" fill="#892e0a"/>
            </g>
          </g>
          <g id="Grupo_1181774" data-name="Grupo 1181774" transform="translate(84.343 242.641)">
            <path id="Trazado_1041677" data-name="Trazado 1041677" d="M356.488,336.921a3.178,3.178,0,1,0-3.178-3.178A3.183,3.183,0,0,0,356.488,336.921Zm0-5.3a2.118,2.118,0,1,1-2.118,2.118A2.12,2.12,0,0,1,356.488,331.624Z" transform="translate(-353.31 -330.565)" fill="#892e0a"/>
          </g>
          <g id="Grupo_1181775" data-name="Grupo 1181775" transform="translate(85.094 251.379)">
            <path id="Trazado_1041678" data-name="Trazado 1041678" d="M356.447,344.239a2.468,2.468,0,1,0-2.469-2.468A2.471,2.471,0,0,0,356.447,344.239Zm0-3.876a1.408,1.408,0,1,1-1.409,1.408A1.411,1.411,0,0,1,356.447,340.363Z" transform="translate(-353.978 -339.303)" fill="#892e0a"/>
          </g>
          <g id="Grupo_1181776" data-name="Grupo 1181776" transform="translate(85.815 258.216)">
            <path id="Trazado_1041679" data-name="Trazado 1041679" d="M356.087,350.356a2.108,2.108,0,1,0-2.108-2.108A2.111,2.111,0,0,0,356.087,350.356Zm0-3.156a1.048,1.048,0,1,1-1.049,1.048A1.048,1.048,0,0,1,356.087,347.2Z" transform="translate(-353.979 -346.14)" fill="#892e0a"/>
          </g>
          <g id="Grupo_1181777" data-name="Grupo 1181777" transform="translate(84.306 265.105)">
            <path id="Trazado_1041680" data-name="Trazado 1041680" d="M357.411,357.615a2.293,2.293,0,1,0-2.293-2.293A2.3,2.3,0,0,0,357.411,357.615Zm0-3.526a1.233,1.233,0,1,1-1.233,1.233A1.234,1.234,0,0,1,357.411,354.089Z" transform="translate(-355.118 -353.029)" fill="#892e0a"/>
          </g>
          <g id="Grupo_1181779" data-name="Grupo 1181779" transform="translate(206.211 239.961)">
            <g id="Grupo_1181778" data-name="Grupo 1181778">
              <path id="Trazado_1041681" data-name="Trazado 1041681" d="M236.539,339.975l-7.646-11.125c-.484-.7.663-1.368,1.144-.669l7.646,11.125c.484.7-.664,1.368-1.144.669Z" transform="translate(-228.776 -327.884)" fill="#892e0a"/>
            </g>
          </g>
          <g id="Grupo_1181780" data-name="Grupo 1181780" transform="translate(0 102.416)">
            <path id="Trazado_1041682" data-name="Trazado 1041682" d="M437.955,197.461c2.745,2.813,5.26,6.106,5.932,9.978a5.738,5.738,0,0,1,.006,2.331,4.621,4.621,0,0,1-4.073,3.242,7.58,7.58,0,0,1-5.159-1.678,22.5,22.5,0,0,1-3.826-4,16.535,16.535,0,0,1,3.419,5.475,6.24,6.24,0,0,1,.392,2.165c-.076,2.434-2.465,4.343-4.893,4.532a9.847,9.847,0,0,1-6.681-2.5,18.557,18.557,0,0,1-4.682-5.559,4.986,4.986,0,0,1,.579,5.023,4.067,4.067,0,0,1-4.6,2.237,6.2,6.2,0,0,1-2.84-2.218,26.586,26.586,0,0,1-4.155-7.074c.657,1.346,1.306,3.267.623,4.6a3.565,3.565,0,0,1-3.711,1.936,5.668,5.668,0,0,1-3.151-2.515c-2.632-3.59-4.635-8.158-3.381-12.429a5.871,5.871,0,0,1,3-3.821,3.466,3.466,0,0,1,4.383,1.243c-.132-1.861,1.75-3.432,3.58-3.795a4.006,4.006,0,0,1,4.427,2.578c-.966-1.422-.156-3.562,1.181-4.642a5.4,5.4,0,0,1,4.9-.741,11.338,11.338,0,0,1,4.319,2.732c-.912-1.063.279-3.448,1.581-3.964a6.562,6.562,0,0,1,4.119.213C432.326,191.666,435.719,195.17,437.955,197.461Z" transform="translate(-397.37 -190.34)" fill="#ff9976"/>
          </g>
          <g id="Grupo_1181782" data-name="Grupo 1181782" transform="translate(56.84 94.736)">
            <g id="Grupo_1181781" data-name="Grupo 1181781">
              <path id="Trazado_1041683" data-name="Trazado 1041683" d="M385.859,192.613a14.782,14.782,0,0,1-.436-9.487.663.663,0,0,1,1.278.352,13.583,13.583,0,0,0,.436,8.783.668.668,0,0,1-.463.815.677.677,0,0,1-.815-.463Z" transform="translate(-384.843 -182.66)" fill="#892e0a"/>
            </g>
          </g>
          <g id="Grupo_1181784" data-name="Grupo 1181784" transform="translate(25.284 103.414)">
            <g id="Grupo_1181783" data-name="Grupo 1181783">
              <path id="Trazado_1041684" data-name="Trazado 1041684" d="M401.249,191.976c-.274,4.965,2.418,9.3,5.521,12.947a57.937,57.937,0,0,0,4.548,4.927c1.787,1.66,4.179,2.926,6.616,1.929.789-.323,1.132.958.352,1.277-5.1,2.088-9.354-3.6-12.215-6.919-3.424-3.969-6.448-8.708-6.147-14.161.047-.848,1.372-.853,1.325,0Z" transform="translate(-399.904 -191.338)" fill="#892e0a"/>
            </g>
          </g>
          <g id="Grupo_1181786" data-name="Grupo 1181786" transform="translate(33.965 117.191)">
            <g id="Grupo_1181785" data-name="Grupo 1181785">
              <path id="Trazado_1041685" data-name="Trazado 1041685" d="M408.751,209.217a3.7,3.7,0,0,0-3.269-2.763,5.457,5.457,0,0,0-4.59,2.212.669.669,0,0,1-.937,0,.677.677,0,0,1,0-.937,6.626,6.626,0,0,1,5.8-2.569,5.015,5.015,0,0,1,4.271,3.7c.184.831-1.093,1.186-1.277.353Z" transform="translate(-399.766 -205.115)" fill="#892e0a"/>
            </g>
          </g>
          <g id="Grupo_1181788" data-name="Grupo 1181788" transform="translate(14.703 105.915)">
            <g id="Grupo_1181787" data-name="Grupo 1181787">
              <path id="Trazado_1041686" data-name="Trazado 1041686" d="M415.568,194.318c1.47,9.263,4.948,18.967,13.422,24.005a.663.663,0,0,1-.669,1.144c-8.77-5.214-12.505-15.184-14.031-24.8-.132-.834,1.144-1.193,1.278-.352Z" transform="translate(-414.28 -193.838)" fill="#892e0a"/>
            </g>
          </g>
          <g id="Grupo_1181790" data-name="Grupo 1181790" transform="translate(23.09 123.295)">
            <g id="Grupo_1181789" data-name="Grupo 1181789">
              <path id="Trazado_1041687" data-name="Trazado 1041687" d="M419.705,215.52a5.253,5.253,0,0,0-3.751-2.915,5.184,5.184,0,0,0-4.583,1.53c-.6.613-1.531-.324-.937-.937a6.552,6.552,0,0,1,5.734-1.9,6.484,6.484,0,0,1,4.68,3.548c.369.765-.773,1.438-1.143.669Z" transform="translate(-410.245 -211.218)" fill="#892e0a"/>
            </g>
          </g>
          <g id="Grupo_1181792" data-name="Grupo 1181792" transform="translate(7.574 108.849)">
            <g id="Grupo_1181791" data-name="Grupo 1181791">
              <path id="Trazado_1041688" data-name="Trazado 1041688" d="M430.246,197.41a26.533,26.533,0,0,0,6.026,18.632c.542.651-.39,1.593-.937.937a27.887,27.887,0,0,1-6.414-19.569c.055-.847,1.38-.853,1.325,0Z" transform="translate(-428.864 -196.773)" fill="#892e0a"/>
            </g>
          </g>
          <g id="Grupo_1181794" data-name="Grupo 1181794" transform="translate(11.836 123.181)">
            <g id="Grupo_1181793" data-name="Grupo 1181793">
              <path id="Trazado_1041689" data-name="Trazado 1041689" d="M430.864,215.587a5.231,5.231,0,0,0-6.125-2.973.663.663,0,0,1-.352-1.278,6.576,6.576,0,0,1,7.754,3.9.668.668,0,0,1-.463.815.679.679,0,0,1-.814-.463Z" transform="translate(-423.921 -211.105)" fill="#892e0a"/>
            </g>
          </g>
          <g id="Grupo_1181796" data-name="Grupo 1181796" transform="translate(2.872 122.53)">
            <g id="Grupo_1181795" data-name="Grupo 1181795">
              <path id="Trazado_1041690" data-name="Trazado 1041690" d="M439.809,214.419a3.218,3.218,0,0,0-1.468-2.2,3.153,3.153,0,0,0-2.916-.172.681.681,0,0,1-.906-.238.667.667,0,0,1,.238-.906,4.431,4.431,0,0,1,6.378,3.52.665.665,0,0,1-.662.662.678.678,0,0,1-.664-.662Z" transform="translate(-434.433 -210.454)" fill="#892e0a"/>
            </g>
          </g>
          <g id="Grupo_1181798" data-name="Grupo 1181798" transform="translate(199.233 351.616)">
            <g id="Grupo_1181797" data-name="Grupo 1181797">
              <path id="Trazado_1041691" data-name="Trazado 1041691" d="M243.393,493.393c.321-4.823-.745-9.518-2.019-14.139-1.029-3.731-2.1-7.459-3.354-11.12-2.47-7.185-5.831-14.329-11.493-19.565-3.6-3.33-7.993-5.6-12.332-7.807-.76-.387-.09-1.53.669-1.144a60.154,60.154,0,0,1,11.316,6.892,35.1,35.1,0,0,1,7.4,8.677c4.156,6.734,6.453,14.432,8.587,21.991,1.493,5.286,2.917,10.672,2.548,16.214-.056.847-1.381.853-1.325,0Z" transform="translate(-213.861 -439.539)" fill="#0d4349"/>
            </g>
          </g>
          <g id="Grupo_1181800" data-name="Grupo 1181800" transform="translate(203.879 363.361)">
            <g id="Grupo_1181799" data-name="Grupo 1181799">
              <path id="Trazado_1041692" data-name="Trazado 1041692" d="M238.994,457.344a21.639,21.639,0,0,0-7.484-4.749.681.681,0,0,1-.463-.815.668.668,0,0,1,.815-.463,23.238,23.238,0,0,1,8.069,5.089c.613.6-.324,1.532-.937.938Z" transform="translate(-231.023 -451.285)" fill="#0d4349"/>
            </g>
          </g>
          <g id="Grupo_1181802" data-name="Grupo 1181802" transform="translate(276.451 315.214)">
            <g id="Grupo_1181801" data-name="Grupo 1181801">
              <path id="Trazado_1041693" data-name="Trazado 1041693" d="M167.089,438.857c-8.093,2.085-16.4-2.735-22.813-7.216a50.8,50.8,0,0,1-15.156-15.927,35.293,35.293,0,0,1-4.265-11.745c-.14-.834,1.136-1.192,1.278-.352,2.4,14.253,14.031,25.252,26.492,31.481,4.349,2.174,9.257,3.733,14.112,2.482a.663.663,0,0,1,.352,1.277Z" transform="translate(-124.844 -403.138)" fill="#0d4349"/>
            </g>
          </g>
          <g id="Grupo_1181804" data-name="Grupo 1181804" transform="translate(295.927 343.927)">
            <g id="Grupo_1181803" data-name="Grupo 1181803">
              <path id="Trazado_1041694" data-name="Trazado 1041694" d="M137.366,432.313a268.875,268.875,0,0,1,10.713,52.246c.088.847-1.238.841-1.325,0a267.137,267.137,0,0,0-10.666-51.894c-.254-.816,1.025-1.165,1.278-.352Z" transform="translate(-136.055 -431.851)" fill="#0d4349"/>
            </g>
          </g>
          <g id="Grupo_1181806" data-name="Grupo 1181806" transform="translate(225.193 27.76)">
            <g id="Grupo_1181805" data-name="Grupo 1181805">
              <path id="Trazado_1041695" data-name="Trazado 1041695" d="M200.2,115.821c13.614,5.467,21.124,21.358,17.86,35.5a22.677,22.677,0,0,1-5.935,10.95c-2.413,2.417-6.161-1.33-3.747-3.747,5.508-5.517,6.132-14.267,4.06-21.434-2-6.913-6.824-13.423-13.647-16.162a2.733,2.733,0,0,1-1.851-3.259,2.669,2.669,0,0,1,3.26-1.852Z" transform="translate(-196.841 -115.684)" fill="#ffc94f"/>
            </g>
          </g>
        </g>
        <g id="Grupo_1181910" data-name="Grupo 1181910" transform="translate(308.084 144.269)">
          <g id="Grupo_1181908" data-name="Grupo 1181908" transform="translate(0 0)">
            <path id="Trazado_1041756" data-name="Trazado 1041756" d="M496.671,372.852h2.716a2.079,2.079,0,0,0,2.038-1.626l.549-2.419a.544.544,0,0,1,.322-.382l1.8-.744a.547.547,0,0,1,.5.042l2.1,1.322a2.079,2.079,0,0,0,2.591-.291l1.921-1.921a2.078,2.078,0,0,0,.29-2.591l-1.322-2.1a.544.544,0,0,1-.042-.5l.744-1.8a.543.543,0,0,1,.382-.322l2.418-.549a2.078,2.078,0,0,0,1.626-2.038v-2.716a2.078,2.078,0,0,0-1.626-2.038l-2.418-.549a.544.544,0,0,1-.382-.321l-.744-1.8a.544.544,0,0,1,.042-.5l1.322-2.1a2.078,2.078,0,0,0-.29-2.591l-1.921-1.921a2.079,2.079,0,0,0-2.591-.291l-2.1,1.322a.544.544,0,0,1-.5.042l-1.8-.744a.544.544,0,0,1-.322-.381l-.549-2.419a2.08,2.08,0,0,0-2.038-1.627h-2.716a2.079,2.079,0,0,0-2.038,1.627l-.549,2.419a.545.545,0,0,1-.322.382l-1.8.744a.548.548,0,0,1-.5-.042l-2.1-1.322a2.08,2.08,0,0,0-2.592.291l-1.921,1.921a2.079,2.079,0,0,0-.291,2.591l1.322,2.1a.544.544,0,0,1,.042.5l-.744,1.8a.544.544,0,0,1-.382.322l-2.419.549a2.078,2.078,0,0,0-1.627,2.038v2.716a2.078,2.078,0,0,0,1.627,2.038l2.419.549a.544.544,0,0,1,.382.322l.744,1.8a.544.544,0,0,1-.042.5l-1.322,2.1a2.078,2.078,0,0,0,.29,2.591l1.921,1.921a2.08,2.08,0,0,0,2.592.291l2.1-1.322a.546.546,0,0,1,.5-.042l1.8.744a.545.545,0,0,1,.322.382l.549,2.419A2.08,2.08,0,0,0,496.671,372.852Zm7.63-5.995a1.326,1.326,0,0,0-.506.1l-1.8.744a1.329,1.329,0,0,0-.785.931l-.549,2.419a1.3,1.3,0,0,1-1.275,1.017h-2.716a1.3,1.3,0,0,1-1.274-1.017l-.549-2.419a1.329,1.329,0,0,0-.785-.931l-1.8-.744a1.329,1.329,0,0,0-1.214.1l-2.1,1.322a1.3,1.3,0,0,1-1.621-.182l-1.921-1.921a1.3,1.3,0,0,1-.182-1.621l1.321-2.1a1.327,1.327,0,0,0,.1-1.214l-.744-1.8a1.327,1.327,0,0,0-.931-.785l-2.419-.549a1.3,1.3,0,0,1-1.018-1.275v-2.716a1.3,1.3,0,0,1,1.018-1.275l2.419-.549a1.327,1.327,0,0,0,.931-.785l.744-1.8a1.327,1.327,0,0,0-.1-1.214l-1.322-2.1a1.3,1.3,0,0,1,.182-1.621l1.921-1.921a1.3,1.3,0,0,1,1.621-.182l2.1,1.322a1.329,1.329,0,0,0,1.214.1l1.8-.744a1.329,1.329,0,0,0,.785-.931l.55-2.418a1.3,1.3,0,0,1,1.274-1.018h2.716a1.3,1.3,0,0,1,1.275,1.018l.549,2.418a1.328,1.328,0,0,0,.785.931l1.8.744a1.328,1.328,0,0,0,1.214-.1l2.1-1.322a1.3,1.3,0,0,1,1.621.182l1.921,1.921a1.3,1.3,0,0,1,.182,1.621l-1.322,2.1a1.326,1.326,0,0,0-.1,1.214l.744,1.8a1.327,1.327,0,0,0,.931.785l2.419.549a1.3,1.3,0,0,1,1.018,1.275v2.716a1.3,1.3,0,0,1-1.018,1.275l-2.419.549a1.326,1.326,0,0,0-.931.786l-.744,1.8a1.327,1.327,0,0,0,.1,1.214l1.322,2.1a1.3,1.3,0,0,1-.182,1.621l-1.921,1.921a1.3,1.3,0,0,1-1.621.182l-2.1-1.322A1.329,1.329,0,0,0,504.3,366.857Z" transform="translate(-480.759 -338.313)" fill="#fff"/>
          </g>
          <g id="Grupo_1181909" data-name="Grupo 1181909" transform="translate(7.729 7.727)">
            <path id="Trazado_1041757" data-name="Trazado 1041757" d="M511.24,378.335a9.542,9.542,0,1,0-9.542-9.542A9.552,9.552,0,0,0,511.24,378.335Zm0-18.3a8.759,8.759,0,1,1-8.759,8.759A8.769,8.769,0,0,1,511.24,360.033Z" transform="translate(-501.698 -359.251)" fill="#fff"/>
          </g>
        </g>
        <g id="Grupo_1181917" data-name="Grupo 1181917" transform="translate(318.81 178.808)">
          <g id="Grupo_1181913" data-name="Grupo 1181913" transform="translate(0 0)">
            <g id="Grupo_1181912" data-name="Grupo 1181912">
              <g id="Grupo_1181911" data-name="Grupo 1181911">
                <path id="Trazado_1041758" data-name="Trazado 1041758" d="M468.335,280.155h2.147a1.74,1.74,0,0,0,1.7-1.36l.434-1.912a.332.332,0,0,1,.2-.234l1.421-.588a.334.334,0,0,1,.305.026l1.659,1.045a1.739,1.739,0,0,0,2.167-.243l1.518-1.518a1.738,1.738,0,0,0,.243-2.168l-1.044-1.659a.332.332,0,0,1-.026-.3l.588-1.421a.336.336,0,0,1,.234-.2l1.913-.434a1.739,1.739,0,0,0,1.36-1.7v-2.147a1.739,1.739,0,0,0-1.36-1.7l-1.912-.434a.335.335,0,0,1-.234-.2l-.588-1.42a.334.334,0,0,1,.026-.305l1.045-1.659a1.739,1.739,0,0,0-.243-2.167l-1.518-1.518a1.739,1.739,0,0,0-2.167-.243l-1.659,1.045a.334.334,0,0,1-.306.026l-1.42-.588a.333.333,0,0,1-.2-.234l-.434-1.912a1.739,1.739,0,0,0-1.7-1.361h-2.147a1.74,1.74,0,0,0-1.705,1.361l-.434,1.912a.333.333,0,0,1-.2.234l-1.421.588a.335.335,0,0,1-.3-.026l-1.659-1.045a1.74,1.74,0,0,0-2.168.243l-1.518,1.518a1.739,1.739,0,0,0-.243,2.167l1.044,1.659a.334.334,0,0,1,.026.305L459.167,263a.336.336,0,0,1-.234.2l-1.912.434a1.739,1.739,0,0,0-1.361,1.7v2.147a1.739,1.739,0,0,0,1.361,1.7l1.912.434a.335.335,0,0,1,.234.2l.588,1.421a.332.332,0,0,1-.026.3l-1.045,1.659a1.74,1.74,0,0,0,.243,2.168l1.518,1.518a1.739,1.739,0,0,0,2.168.243l1.659-1.045a.331.331,0,0,1,.3-.026l1.421.588a.333.333,0,0,1,.2.234l.434,1.912A1.739,1.739,0,0,0,468.335,280.155Z" transform="translate(-455.66 -252.659)" fill="#36ceef"/>
              </g>
            </g>
          </g>
          <g id="Grupo_1181916" data-name="Grupo 1181916" transform="translate(3.597 1.609)">
            <g id="Grupo_1181914" data-name="Grupo 1181914">
              <path id="Trazado_1041759" data-name="Trazado 1041759" d="M464.474,281.9h1.939a1.6,1.6,0,0,0,1.564-1.249l.392-1.727a.277.277,0,0,1,.163-.194l1.283-.531a.276.276,0,0,1,.252.021l1.5.944a1.6,1.6,0,0,0,1.989-.223l1.371-1.371a1.6,1.6,0,0,0,.223-1.989l-.943-1.5a.279.279,0,0,1-.021-.253l.531-1.283a.277.277,0,0,1,.194-.164l1.727-.392a1.6,1.6,0,0,0,1.249-1.564V268.49a1.6,1.6,0,0,0-1.249-1.564l-1.727-.392a.277.277,0,0,1-.194-.163l-.531-1.283a.278.278,0,0,1,.021-.252l.943-1.5a1.6,1.6,0,0,0-.223-1.988l-1.371-1.371a1.6,1.6,0,0,0-1.989-.223l-1.5.943a.276.276,0,0,1-.252.021l-1.283-.531a.277.277,0,0,1-.164-.194l-.392-1.726a1.6,1.6,0,0,0-1.564-1.249h-1.939a1.6,1.6,0,0,0-1.564,1.249l-.392,1.726a.275.275,0,0,1-.163.194l-1.283.531a.278.278,0,0,1-.253-.021l-1.5-.943a1.6,1.6,0,0,0-1.989.223l-1.371,1.371a1.6,1.6,0,0,0-.223,1.989l.944,1.5a.277.277,0,0,1,.021.252l-.531,1.283a.277.277,0,0,1-.193.163l-1.727.392A1.6,1.6,0,0,0,453,268.49v1.939a1.6,1.6,0,0,0,1.249,1.564l1.726.392a.277.277,0,0,1,.194.164l.531,1.283a.277.277,0,0,1-.021.252l-.944,1.5a1.6,1.6,0,0,0,.223,1.988l1.371,1.371a1.6,1.6,0,0,0,1.989.223l1.5-.944a.275.275,0,0,1,.252-.021l1.283.531a.275.275,0,0,1,.163.193l.392,1.727A1.6,1.6,0,0,0,464.474,281.9Zm5.446-4.5a1.057,1.057,0,0,0-.4.08l-1.283.531a1.059,1.059,0,0,0-.627.743l-.392,1.727a.816.816,0,0,1-.8.639h-1.939a.816.816,0,0,1-.8-.639l-.392-1.727a1.06,1.06,0,0,0-.627-.743l-1.283-.531a1.059,1.059,0,0,0-.969.082l-1.5.943a.817.817,0,0,1-1.018-.114l-1.371-1.371A.817.817,0,0,1,456.4,276l.944-1.5a1.058,1.058,0,0,0,.083-.969l-.531-1.283a1.061,1.061,0,0,0-.743-.627l-1.727-.392a.817.817,0,0,1-.64-.8v-1.939a.817.817,0,0,1,.64-.8l1.727-.392a1.061,1.061,0,0,0,.743-.627l.531-1.283a1.058,1.058,0,0,0-.083-.969l-.944-1.5a.817.817,0,0,1,.114-1.018l1.371-1.371a.817.817,0,0,1,1.018-.114l1.5.943a1.061,1.061,0,0,0,.969.082l1.283-.531a1.06,1.06,0,0,0,.627-.744l.392-1.726a.816.816,0,0,1,.8-.64h1.939a.816.816,0,0,1,.8.639l.392,1.727a1.06,1.06,0,0,0,.628.744l1.283.531a1.058,1.058,0,0,0,.969-.082l1.5-.943a.816.816,0,0,1,1.018.114l1.371,1.371a.817.817,0,0,1,.114,1.018l-.943,1.5a1.059,1.059,0,0,0-.083.968l.531,1.284a1.059,1.059,0,0,0,.744.627l1.726.392a.817.817,0,0,1,.64.8v1.939a.817.817,0,0,1-.64.8l-1.726.392a1.059,1.059,0,0,0-.743.627l-.531,1.283a1.06,1.06,0,0,0,.083.969l.943,1.5a.817.817,0,0,1-.114,1.018L473,278.387a.817.817,0,0,1-1.018.114l-1.5-.944A1.07,1.07,0,0,0,469.921,277.4Z" transform="translate(-453.004 -257.019)" fill="#fff"/>
            </g>
            <g id="Grupo_1181915" data-name="Grupo 1181915" transform="translate(5.516 5.516)">
              <path id="Trazado_1041760" data-name="Trazado 1041760" d="M474.876,285.812a6.924,6.924,0,1,0-6.924-6.923A6.931,6.931,0,0,0,474.876,285.812Zm0-13.064a6.141,6.141,0,1,1-6.141,6.141A6.148,6.148,0,0,1,474.876,272.748Z" transform="translate(-467.952 -271.965)" fill="#fff"/>
            </g>
          </g>
        </g>
        <g id="Grupo_1182185" data-name="Grupo 1182185" transform="translate(82.444 24.269)">
          <g id="Grupo_1182092" data-name="Grupo 1182092" transform="translate(0 4.885)">
            <g id="Grupo_1182091" data-name="Grupo 1182091">
              <path id="Trazado_1041860" data-name="Trazado 1041860" d="M214.6,524.613A36.086,36.086,0,1,0,250.682,560.7H214.6Z" transform="translate(-178.51 -524.613)" fill="#ff9d1c"/>
            </g>
          </g>
          <g id="Grupo_1182094" data-name="Grupo 1182094" transform="translate(39.298)">
            <g id="Grupo_1182093" data-name="Grupo 1182093">
              <path id="Trazado_1041861" data-name="Trazado 1041861" d="M173.082,557.894h38.3v-.628a43.245,43.245,0,0,0-4.7-18.038c-4.3-8.35-13.507-18.5-32.942-19.468l-.659-.032v38.166Zm37.024-1.256H174.338V521.052c14.758.9,25.254,7.19,31.206,18.709A43.32,43.32,0,0,1,210.106,556.638Z" transform="translate(-173.082 -519.728)" fill="#fff"/>
            </g>
          </g>
        </g>
        <g id="Grupo_1182186" data-name="Grupo 1182186" transform="translate(7.481 257.28)">
          <g id="Grupo_1182183" data-name="Grupo 1182183" transform="translate(8 1)">
            <g id="Grupo_1182182" data-name="Grupo 1182182">
              <path id="Trazado_1041891" data-name="Trazado 1041891" d="M545.915,547.1a40.683,40.683,0,0,1-14.85-18.529,38.761,38.761,0,0,1-2.708-11.773c-.285-4.1.33-8.9,3.752-11.64a8.478,8.478,0,0,1,5.423-2,6.865,6.865,0,0,1,5.288,2.8,10.713,10.713,0,0,1,1.462,10.108,17.352,17.352,0,0,1-17.1,10.905c-8.555-.726-15.536-6.264-21.552-11.945q-1.133-1.07-2.246-2.162c-1.367-1.334.729-3.429,2.1-2.1,5.231,5.1,10.966,10.573,18.195,12.585a14.578,14.578,0,0,0,16.379-5.517,9.048,9.048,0,0,0,1.651-7.593,5.917,5.917,0,0,0-2.7-3.756,4.313,4.313,0,0,0-3.872.2c-3.3,1.711-3.97,5.607-3.871,9a34.739,34.739,0,0,0,2.017,10.389,37.315,37.315,0,0,0,14.129,18.461c1.57,1.062.089,3.63-1.5,2.557Z" transform="translate(-502.941 -503.154)" fill="#ffca5f"/>
            </g>
          </g>
        </g>
        <g id="Grupo_1182187" data-name="Grupo 1182187" transform="translate(52.619 66.37)">
          <g id="Grupo_1182156" data-name="Grupo 1182156">
            <g id="Grupo_1182155" data-name="Grupo 1182155">
              <path id="Trazado_1041881" data-name="Trazado 1041881" d="M543.309,468.576a5.3,5.3,0,1,1,5.3-5.3,5.359,5.359,0,0,1-5.3,5.3Z" transform="translate(-538.005 -457.978)" fill="#fff"/>
            </g>
          </g>
        </g>
        <g id="Grupo_1182188" data-name="Grupo 1182188" transform="translate(10.941 77.824)">
          <g id="Grupo_1182162" data-name="Grupo 1182162">
            <g id="Grupo_1182161" data-name="Grupo 1182161">
              <path id="Trazado_1041883" data-name="Trazado 1041883" d="M584.987,480.03a5.3,5.3,0,1,1,5.3-5.3,5.358,5.358,0,0,1-5.3,5.3Z" transform="translate(-579.683 -469.432)" fill="#fff"/>
            </g>
          </g>
        </g>
      </g>
    </g>
  </g>
</svg>
