<svg xmlns="http://www.w3.org/2000/svg" xmlns:xlink="http://www.w3.org/1999/xlink" width="93.934" height="93.934" viewBox="0 0 93.934 93.934">
  <defs>
    <filter id="Trazado_982547" x="0" y="0" width="93.934" height="93.934" filterUnits="userSpaceOnUse">
      <feOffset dy="3" input="SourceAlpha"/>
      <feGaussianBlur stdDeviation="3" result="blur"/>
      <feFlood flood-opacity="0.161"/>
      <feComposite operator="in" in2="blur"/>
      <feComposite in="SourceGraphic"/>
    </filter>
  </defs>
  <g id="Grupo_1183698" data-name="Grupo 1183698" transform="translate(-186 -1221)">
    <g id="Grupo_1180682" data-name="Grupo 1180682" transform="translate(0 -1433)">
      <g id="Grupo_1179660" data-name="Grupo 1179660" transform="translate(-3 47)">
        <g id="Grupo_1173782" data-name="Grupo 1173782" transform="translate(-0.033 621)">
          <g id="Grupo_1167337" data-name="Grupo 1167337" transform="translate(198.033 1992)">
            <g id="Grupo_1166720" data-name="Grupo 1166720">
              <g id="Grupo_1164305" data-name="Grupo 1164305">
                <g id="Grupo_1163948" data-name="Grupo 1163948">
                  <g id="Grupo_1158168" data-name="Grupo 1158168">
                    <g id="Grupo_1152576" data-name="Grupo 1152576">
                      <g id="Grupo_1148633" data-name="Grupo 1148633">
                        <g id="Grupo_1148525" data-name="Grupo 1148525">
                          <g transform="matrix(1, 0, 0, 1, -9, -6)" filter="url(#Trazado_982547)">
                            <g id="Trazado_982547-2" data-name="Trazado 982547" transform="translate(9 6)" fill="#e9f9fd">
                              <path d="M 37.966796875 74.43359375 C 33.04315185546875 74.43359375 28.26757431030273 73.46962738037109 23.77274131774902 71.56847381591797 C 19.43047523498535 69.73184967041016 15.53040790557861 67.10224914550781 12.18087482452393 63.75271987915039 C 8.831341743469238 60.4031867980957 6.201741218566895 56.50312042236328 4.365118980407715 52.16086196899414 C 2.463963508605957 47.66601943969727 1.499996900558472 42.89044189453125 1.499996900558472 37.966796875 C 1.499996900558472 33.04315185546875 2.463963508605957 28.26757431030273 4.365118980407715 23.77274131774902 C 6.201741218566895 19.43047523498535 8.831341743469238 15.53040790557861 12.18087482452393 12.18087482452393 C 15.53040790557861 8.831341743469238 19.43047523498535 6.201741218566895 23.77274131774902 4.365118980407715 C 28.26757431030273 2.463963508605957 33.04315185546875 1.499996900558472 37.966796875 1.499996900558472 C 42.89044189453125 1.499996900558472 47.66601943969727 2.463963508605957 52.16086196899414 4.365118980407715 C 56.50312042236328 6.201741218566895 60.4031867980957 8.831341743469238 63.75271987915039 12.18087482452393 C 67.10224914550781 15.53040790557861 69.73184967041016 19.43047523498535 71.56847381591797 23.77274131774902 C 73.46962738037109 28.26757431030273 74.43359375 33.04315185546875 74.43359375 37.966796875 C 74.43359375 42.89044189453125 73.46962738037109 47.66601943969727 71.56847381591797 52.16086196899414 C 69.73184967041016 56.50313186645508 67.10224914550781 60.4031867980957 63.75271987915039 63.75271987915039 C 60.4031867980957 67.10224914550781 56.50313186645508 69.73184967041016 52.16086196899414 71.56847381591797 C 47.66601943969727 73.46962738037109 42.89044189453125 74.43359375 37.966796875 74.43359375 Z" stroke="none"/>
                              <path d="M 37.966796875 3 C 33.2449836730957 3 28.66600799560547 3.924095153808594 24.35705947875977 5.746635437011719 C 20.19359588623047 7.507637023925781 16.45379638671875 10.02928161621094 13.24153518676758 13.24153518676758 C 10.02927398681641 16.45379638671875 7.507621765136719 20.19359588623047 5.746635437011719 24.35705947875977 C 3.924095153808594 28.66600799560547 3 33.2449836730957 3 37.966796875 C 3 42.6886100769043 3.924095153808594 47.26758575439453 5.746635437011719 51.57653427124023 C 7.507621765136719 55.73999786376953 10.02927398681641 59.47979736328125 13.24153518676758 62.69205856323242 C 16.45379638671875 65.90431976318359 20.19359588623047 68.42597198486328 24.35705947875977 70.18695831298828 C 28.66600799560547 72.00949859619141 33.2449836730957 72.93359375 37.966796875 72.93359375 C 42.6886100769043 72.93359375 47.26758575439453 72.00949859619141 51.57653427124023 70.18695831298828 C 55.73999786376953 68.42597198486328 59.47979736328125 65.90431976318359 62.69205856323242 62.69205856323242 C 65.90431976318359 59.47979736328125 68.42597198486328 55.73999786376953 70.18695831298828 51.57653427124023 C 72.00949859619141 47.26758575439453 72.93359375 42.6886100769043 72.93359375 37.966796875 C 72.93359375 33.2449836730957 72.00949859619141 28.66600799560547 70.18695831298828 24.35705947875977 C 68.42597198486328 20.19359588623047 65.90431976318359 16.45379638671875 62.69205856323242 13.24153518676758 C 59.47979736328125 10.02928161621094 55.73999786376953 7.507637023925781 51.57653427124023 5.746635437011719 C 47.26758575439453 3.924095153808594 42.6886100769043 3 37.966796875 3 M 37.966796875 0 C 58.93528366088867 0 75.93359375 16.99832153320312 75.93359375 37.966796875 C 75.93359375 58.93528366088867 58.93528366088867 75.93359375 37.966796875 75.93359375 C 16.99831008911133 75.93359375 0 58.93528366088867 0 37.966796875 C 0 16.99832153320312 16.99831008911133 0 37.966796875 0 Z" stroke="none" fill="#1d7083"/>
                            </g>
                          </g>
                        </g>
                      </g>
                    </g>
                  </g>
                </g>
              </g>
            </g>
          </g>
        </g>
      </g>
    </g>
    <g id="jerarquia" transform="translate(210 1238.997)">
      <g id="Grupo_1183697" data-name="Grupo 1183697" transform="translate(0.678 0.681)">
        <g id="Grupo_1183694" data-name="Grupo 1183694">
          <g id="Grupo_1183693" data-name="Grupo 1183693">
            <path id="Trazado_1043888" data-name="Trazado 1043888" d="M190.552,15.155l3.921-7.312a.645.645,0,0,1,1.136,0l3.921,7.312a.645.645,0,0,1-.568.95H191.12A.645.645,0,0,1,190.552,15.155Z" transform="translate(-173.94 -7.503)" fill="#8795de"/>
            <path id="Trazado_1043889" data-name="Trazado 1043889" d="M206.028,15.155l-3.921-7.312a.645.645,0,0,0-1.136,0l-.787,1.468,3.133,5.844a.645.645,0,0,1-.568.95h2.711A.645.645,0,0,0,206.028,15.155Z" transform="translate(-180.439 -7.503)" fill="#6c7fd8"/>
            <path id="Trazado_1043890" data-name="Trazado 1043890" d="M139.927,153.652l3.509-6.543a.645.645,0,0,1,.568-.34h9.974a.645.645,0,0,1,.568.34l3.509,6.543a.645.645,0,0,1-.568.95H140.5A.645.645,0,0,1,139.927,153.652Z" transform="translate(-127.89 -134.183)" fill="#fee97d"/>
            <path id="Trazado_1043891" data-name="Trazado 1043891" d="M74.3,288.665l3.509-6.543a.645.645,0,0,1,.568-.34h21.834a.645.645,0,0,1,.568.34l3.509,6.543a.645.645,0,0,1-.568.95H74.87A.645.645,0,0,1,74.3,288.665Z" transform="translate(-68.195 -256.996)" fill="#f58a97"/>
            <path id="Trazado_1043892" data-name="Trazado 1043892" d="M46.022,416.114l3.608,6.728a.645.645,0,0,1-.568.95H8.152a.645.645,0,0,1-.568-.95l3.608-6.728a.645.645,0,0,1,.568-.34H45.454A.645.645,0,0,1,46.022,416.114Z" transform="translate(-7.506 -378.881)" fill="#c9f6b0"/>
          </g>
        </g>
        <g id="Grupo_1183696" data-name="Grupo 1183696" transform="translate(4.253 12.585)">
          <path id="Trazado_1043893" data-name="Trazado 1043893" d="M264.859,153.652l-1.164-2.171-2.345-4.372a.645.645,0,0,0-.568-.34h-2.711a.645.645,0,0,1,.568.34l2.039,3.8a1.356,1.356,0,0,1-.589,1.852,15.349,15.349,0,0,0-2.825,1.839h7.026A.645.645,0,0,0,264.859,153.652Z" transform="translate(-238.948 -146.768)" fill="#f4da6e"/>
          <path id="Trazado_1043894" data-name="Trazado 1043894" d="M210.639,282.121a.645.645,0,0,0-.568-.34H196.957a15.244,15.244,0,0,0-1.961,7.5c0,.112,0,.224,0,.336h18.579a.645.645,0,0,0,.568-.95Z" transform="translate(-182.307 -269.581)" fill="#f07281"/>
          <path id="Trazado_1043895" data-name="Trazado 1043895" d="M92.443,422.842l-3.608-6.728a.645.645,0,0,0-.568-.34h-20.3a15.405,15.405,0,0,0,5.934,8.018H91.875A.645.645,0,0,0,92.443,422.842Z" transform="translate(-54.573 -391.465)" fill="#9be69d"/>
          <circle id="Elipse_13190" data-name="Elipse 13190" cx="12.629" cy="12.629" r="12.629" transform="translate(15.4 7.069)" fill="#f9f7f8"/>
          <path id="Trazado_1043896" data-name="Trazado 1043896" d="M351.107,224.993a12.756,12.756,0,0,0-1.355.073,12.629,12.629,0,0,1,0,25.113,12.772,12.772,0,0,0,1.355.073,12.629,12.629,0,0,0,0-25.258Z" transform="translate(-323.077 -217.924)" fill="#e2dee2"/>
          <g id="Grupo_1183695" data-name="Grupo 1183695" transform="translate(19.552 14.538)">
            <path id="Trazado_1043897" data-name="Trazado 1043897" d="M297.355,382.069H284.771a1.028,1.028,0,0,1-1.028-1.028v-5.13h14.641v5.13A1.028,1.028,0,0,1,297.355,382.069Z" transform="translate(-282.586 -369.742)" fill="#ecbba3"/>
            <path id="Trazado_1043898" data-name="Trazado 1043898" d="M405.409,375.911v5.13a1.028,1.028,0,0,1-1.028,1.028h2.711a1.028,1.028,0,0,0,1.028-1.028v-5.13Z" transform="translate(-392.323 -369.742)" fill="#e8ad8c"/>
            <path id="Trazado_1043899" data-name="Trazado 1043899" d="M286.87,307.646h-14.9a1.028,1.028,0,0,0-1.028,1.028v4.113a1.028,1.028,0,0,0,1.028,1.028h14.9a1.028,1.028,0,0,0,1.028-1.028v-4.113A1.028,1.028,0,0,0,286.87,307.646Z" transform="translate(-270.944 -307.646)" fill="#e19974"/>
            <path id="Trazado_1043900" data-name="Trazado 1043900" d="M419.892,307.646h-2.711a1.028,1.028,0,0,1,1.028,1.028v4.113a1.028,1.028,0,0,1-1.028,1.028h2.711a1.028,1.028,0,0,0,1.028-1.028v-4.113A1.028,1.028,0,0,0,419.892,307.646Z" transform="translate(-403.966 -307.646)" fill="#dc8758"/>
            <path id="Trazado_1043901" data-name="Trazado 1043901" d="M340.294,362.931h-4.406a.445.445,0,0,1-.445-.445v-1.973a.445.445,0,0,1,.445-.445h4.406a.445.445,0,0,1,.445.445v1.973A.445.445,0,0,1,340.294,362.931Z" transform="translate(-329.615 -355.331)" fill="#7a6d79"/>
            <path id="Trazado_1043902" data-name="Trazado 1043902" d="M361.841,360.068H359.13a.445.445,0,0,1,.445.445v1.972a.445.445,0,0,1-.445.445h2.711a.445.445,0,0,0,.445-.445v-1.972A.445.445,0,0,0,361.841,360.068Z" transform="translate(-351.161 -355.331)" fill="#685e68"/>
          </g>
        </g>
      </g>
      <path id="Trazado_1043903" data-name="Trazado 1043903" d="M17.857,9.961H25.7a1.323,1.323,0,0,0,1.165-1.948L22.944.7a1.322,1.322,0,0,0-2.331,0L16.692,8.013a1.323,1.323,0,0,0,1.165,1.948ZM21.778,1.4l3.866,7.21H17.912ZM32.96,19.656a13.364,13.364,0,0,0-1.564.092l-3.466-6.462a1.32,1.32,0,0,0-1.166-.7H16.792a1.32,1.32,0,0,0-1.166.7l-3.509,6.544a1.322,1.322,0,0,0,1.166,1.948h2.944a.678.678,0,1,0,0-1.355h-2.89l3.474-6.478h9.933l3.244,6.049a13.2,13.2,0,0,0-1.473.43H19.39a.678.678,0,1,0,0,1.355h6.372a13.415,13.415,0,0,0-3.294,3.012H10.861a1.322,1.322,0,0,0-1.166.7L6.187,32.029a1.323,1.323,0,0,0,1.165,1.948h12.34a13.225,13.225,0,0,0,.555,2.919H4.931a1.321,1.321,0,0,0-1.166.7L.158,44.322A1.322,1.322,0,0,0,1.323,46.27h40.91A1.322,1.322,0,0,0,43.4,44.322L42.357,42.38A13.263,13.263,0,0,0,45.065,38.5a.678.678,0,1,0-1.232-.564,11.912,11.912,0,1,1,.891-2.845.678.678,0,0,0,1.334.239,13.318,13.318,0,0,0-13.1-15.671Zm8.357,23.654.86,1.6H38.8A13.414,13.414,0,0,0,41.318,43.311Zm-14.2,1.6H1.379l3.572-6.663h15.8A13.389,13.389,0,0,0,27.113,44.914ZM19.658,32.622H7.407l3.473-6.478H21.538A13.22,13.22,0,0,0,19.658,32.622Zm7.01,8.186H39.253A1.708,1.708,0,0,0,40.958,39.1V34.557a1.708,1.708,0,0,0,1.156-1.614V28.831a1.708,1.708,0,0,0-1.706-1.706H37.484V25.581a1.708,1.708,0,0,0-1.706-1.706H30.143a1.708,1.708,0,0,0-1.706,1.706v1.545H25.512a1.708,1.708,0,0,0-1.706,1.706v4.113a1.708,1.708,0,0,0,1.156,1.613V39.1a1.708,1.708,0,0,0,1.706,1.706ZM39.6,39.1a.351.351,0,0,1-.35.35H26.668a.351.351,0,0,1-.35-.35V34.65h3.316v.308a1.124,1.124,0,0,0,1.123,1.123h4.406a1.124,1.124,0,0,0,1.123-1.123V34.65H39.6ZM30.99,33.218h3.941v1.508H30.99Zm-1.2-7.638a.351.351,0,0,1,.35-.35h5.635a.351.351,0,0,1,.35.35v1.545H29.793Zm-4.631,3.251a.351.351,0,0,1,.351-.351h14.9a.351.351,0,0,1,.351.351v4.113a.351.351,0,0,1-.351.351H36.286v-.309a1.124,1.124,0,0,0-1.123-1.123H30.757a1.124,1.124,0,0,0-1.123,1.123v.309H25.512a.351.351,0,0,1-.351-.351V28.831Z" transform="translate(0 0)"/>
    </g>
  </g>
</svg>
