<svg xmlns="http://www.w3.org/2000/svg" xmlns:xlink="http://www.w3.org/1999/xlink" width="93.934" height="93.934" viewBox="0 0 93.934 93.934">
  <defs>
    <filter id="Trazado_982547" x="0" y="0" width="93.934" height="93.934" filterUnits="userSpaceOnUse">
      <feOffset dy="3" input="SourceAlpha"/>
      <feGaussianBlur stdDeviation="3" result="blur"/>
      <feFlood flood-opacity="0.161"/>
      <feComposite operator="in" in2="blur"/>
      <feComposite in="SourceGraphic"/>
    </filter>
  </defs>
  <g id="Grupo_1183715" data-name="Grupo 1183715" transform="translate(-609.461 -1388)">
    <g id="Grupo_1180707" data-name="Grupo 1180707" transform="translate(0.461 -1433)">
      <g id="Grupo_1179708" data-name="Grupo 1179708" transform="translate(0 42)">
        <g id="Grupo_1174890" data-name="Grupo 1174890" transform="translate(419.967 793)">
          <g id="Grupo_1167337" data-name="Grupo 1167337" transform="translate(198.033 1992)">
            <g id="Grupo_1166720" data-name="Grupo 1166720">
              <g id="Grupo_1164305" data-name="Grupo 1164305">
                <g id="Grupo_1163948" data-name="Grupo 1163948">
                  <g id="Grupo_1158168" data-name="Grupo 1158168">
                    <g id="Grupo_1152576" data-name="Grupo 1152576">
                      <g id="Grupo_1148633" data-name="Grupo 1148633">
                        <g id="Grupo_1148525" data-name="Grupo 1148525">
                          <g transform="matrix(1, 0, 0, 1, -9, -6)" filter="url(#Trazado_982547)">
                            <g id="Trazado_982547-2" data-name="Trazado 982547" transform="translate(9 6)" fill="#e9f9fd">
                              <path d="M 37.966796875 74.43359375 C 33.04315185546875 74.43359375 28.26757431030273 73.46962738037109 23.77274131774902 71.56847381591797 C 19.43047523498535 69.73184967041016 15.53040790557861 67.10224914550781 12.18087482452393 63.75271987915039 C 8.831341743469238 60.4031867980957 6.201741218566895 56.50312042236328 4.365118980407715 52.16086196899414 C 2.463963508605957 47.66601943969727 1.499996900558472 42.89044189453125 1.499996900558472 37.966796875 C 1.499996900558472 33.04315185546875 2.463963508605957 28.26757431030273 4.365118980407715 23.77274131774902 C 6.201741218566895 19.43047523498535 8.831341743469238 15.53040790557861 12.18087482452393 12.18087482452393 C 15.53040790557861 8.831341743469238 19.43047523498535 6.201741218566895 23.77274131774902 4.365118980407715 C 28.26757431030273 2.463963508605957 33.04315185546875 1.499996900558472 37.966796875 1.499996900558472 C 42.89044189453125 1.499996900558472 47.66601943969727 2.463963508605957 52.16086196899414 4.365118980407715 C 56.50312042236328 6.201741218566895 60.4031867980957 8.831341743469238 63.75271987915039 12.18087482452393 C 67.10224914550781 15.53040790557861 69.73184967041016 19.43047523498535 71.56847381591797 23.77274131774902 C 73.46962738037109 28.26757431030273 74.43359375 33.04315185546875 74.43359375 37.966796875 C 74.43359375 42.89044189453125 73.46962738037109 47.66601943969727 71.56847381591797 52.16086196899414 C 69.73184967041016 56.50313186645508 67.10224914550781 60.4031867980957 63.75271987915039 63.75271987915039 C 60.4031867980957 67.10224914550781 56.50313186645508 69.73184967041016 52.16086196899414 71.56847381591797 C 47.66601943969727 73.46962738037109 42.89044189453125 74.43359375 37.966796875 74.43359375 Z" stroke="none"/>
                              <path d="M 37.966796875 3 C 33.2449836730957 3 28.66600799560547 3.924095153808594 24.35705947875977 5.746635437011719 C 20.19359588623047 7.507637023925781 16.45379638671875 10.02928161621094 13.24153518676758 13.24153518676758 C 10.02927398681641 16.45379638671875 7.507621765136719 20.19359588623047 5.746635437011719 24.35705947875977 C 3.924095153808594 28.66600799560547 3 33.2449836730957 3 37.966796875 C 3 42.6886100769043 3.924095153808594 47.26758575439453 5.746635437011719 51.57653427124023 C 7.507621765136719 55.73999786376953 10.02927398681641 59.47979736328125 13.24153518676758 62.69205856323242 C 16.45379638671875 65.90431976318359 20.19359588623047 68.42597198486328 24.35705947875977 70.18695831298828 C 28.66600799560547 72.00949859619141 33.2449836730957 72.93359375 37.966796875 72.93359375 C 42.6886100769043 72.93359375 47.26758575439453 72.00949859619141 51.57653427124023 70.18695831298828 C 55.73999786376953 68.42597198486328 59.47979736328125 65.90431976318359 62.69205856323242 62.69205856323242 C 65.90431976318359 59.47979736328125 68.42597198486328 55.73999786376953 70.18695831298828 51.57653427124023 C 72.00949859619141 47.26758575439453 72.93359375 42.6886100769043 72.93359375 37.966796875 C 72.93359375 33.2449836730957 72.00949859619141 28.66600799560547 70.18695831298828 24.35705947875977 C 68.42597198486328 20.19359588623047 65.90431976318359 16.45379638671875 62.69205856323242 13.24153518676758 C 59.47979736328125 10.02928161621094 55.73999786376953 7.507637023925781 51.57653427124023 5.746635437011719 C 47.26758575439453 3.924095153808594 42.6886100769043 3 37.966796875 3 M 37.966796875 0 C 58.93528366088867 0 75.93359375 16.99832153320312 75.93359375 37.966796875 C 75.93359375 58.93528366088867 58.93528366088867 75.93359375 37.966796875 75.93359375 C 16.99831008911133 75.93359375 0 58.93528366088867 0 37.966796875 C 0 16.99832153320312 16.99831008911133 0 37.966796875 0 Z" stroke="none" fill="#1d7083"/>
                            </g>
                          </g>
                        </g>
                      </g>
                    </g>
                  </g>
                </g>
              </g>
            </g>
          </g>
        </g>
      </g>
    </g>
    <g id="carismatico" transform="translate(624.427 1398.705)">
      <g id="Grupo_1183714" data-name="Grupo 1183714" transform="translate(10.7 6.308)">
        <g id="Grupo_1183713" data-name="Grupo 1183713">
          <path id="Trazado_1043930" data-name="Trazado 1043930" d="M49.688,33.91a3.859,3.859,0,0,0,3.857,3.857,3.859,3.859,0,0,0-3.857,3.857,3.859,3.859,0,0,0-3.857-3.857A3.859,3.859,0,0,0,49.688,33.91Z" transform="translate(-9.664 -5.488)" fill="#ffca29"/>
          <path id="Trazado_1043931" data-name="Trazado 1043931" d="M27.089,6.28a3.859,3.859,0,0,0,3.857,3.857,3.859,3.859,0,0,0-3.857,3.857,3.861,3.861,0,0,0-3.868-3.857A3.861,3.861,0,0,0,27.089,6.28Z" transform="translate(-10.311 -6.28)" fill="#ffca29"/>
          <path id="Trazado_1043932" data-name="Trazado 1043932" d="M14.528,26.37a3.859,3.859,0,0,0,3.857,3.857A3.861,3.861,0,0,0,14.528,34.1a3.861,3.861,0,0,0-3.857-3.868A3.859,3.859,0,0,0,14.528,26.37Z" transform="translate(-10.671 -5.704)" fill="#ffca29"/>
        </g>
        <path id="Trazado_1043933" data-name="Trazado 1043933" d="M30.625,43.463l-3-1.769V38.32a8.686,8.686,0,0,0,8.97.01v3.364c-.99.583-3.53,2.087-4.485,2.654,0-.01-1.5-.865-1.481-.885Z" transform="translate(-10.185 -5.362)" fill="#f5c29d"/>
        <path id="Trazado_1043934" data-name="Trazado 1043934" d="M33.554,43.32l1.42,14.813H29.151l1.43-14.8,1.481.874Z" transform="translate(-10.141 -5.219)" fill="#90c9ed"/>
        <path id="Trazado_1043935" data-name="Trazado 1043935" d="M48.9,50.662v7.519H34.851l-1.42-14.813L36.424,41.6l7.962,2.736A6.679,6.679,0,0,1,48.9,50.662Z" transform="translate(-10.019 -5.268)" fill="#5ca0d7"/>
        <path id="Trazado_1043936" data-name="Trazado 1043936" d="M30.972,43.369c.005,0-1.432,14.809-1.43,14.813H15.491V50.662a6.688,6.688,0,0,1,4.526-6.326L27.969,41.6Z" transform="translate(-10.533 -5.268)" fill="#5ca0d7"/>
        <path id="Trazado_1043937" data-name="Trazado 1043937" d="M41.581,27.464c-1.368-.237-2.15-2.7-2.15-2.7-2.51.134-5.071-2.716-5.071-2.716a11.027,11.027,0,0,1-9.1,2.633,4.046,4.046,0,0,1-1.749,2.8c-.107.183-.1-.011-.37,0a1.155,1.155,0,0,0-1.306,1.142V26.271a10.441,10.441,0,1,1,20.882,0v2.242a1.124,1.124,0,0,0-1.132-1.029Z" transform="translate(-10.351 -6.006)"/>
        <path id="Trazado_1043938" data-name="Trazado 1043938" d="M39.432,24.6c-.016.024.829,2.449,2.15,2.716a1.137,1.137,0,0,1,1.142,1.142v2.212a1.133,1.133,0,0,1-1.142,1.142.579.579,0,0,1-.71-.535c-.241,11.66-16.956,11.633-17.2,0a.575.575,0,0,1-.71.535,1.131,1.131,0,0,1-1.132-1.142V28.741a1.186,1.186,0,0,1,1.6-1.337,4.4,4.4,0,0,0,1.821-2.891,11.027,11.027,0,0,0,9.1-2.633S36.922,24.729,39.432,24.6Z" transform="translate(-10.352 -5.833)" fill="#f5c29d"/>
      </g>
      <path id="Trazado_1043939" data-name="Trazado 1043939" d="M19.713,44.129a7.72,7.72,0,0,0-5.221,7.3v7.519a1.028,1.028,0,0,0,1.029,1.029H49.446a1.028,1.028,0,0,0,1.029-1.029V51.43a7.713,7.713,0,0,0-5.21-7.3L38,41.633V39.541a9.539,9.539,0,0,0,4.019-6.515,2.174,2.174,0,0,0,1.948-2.159c0-1.169-.013-3.4-.011-4.567a11.469,11.469,0,1,0-22.938,0c.008,1.146-.006,3.426,0,4.567a2.17,2.17,0,0,0,1.937,2.159,9.538,9.538,0,0,0,4.019,6.505v2.1Zm12.77-2.842a9.64,9.64,0,0,0,3.455-.656v1.15l-3.456,2.045c-.643-.384-2.773-1.65-3.455-2.047V40.624a9.576,9.576,0,0,0,3.456.663Zm-.617,4.564a1.068,1.068,0,0,0,1.24,0L34.263,57.92H30.7ZM16.548,51.43a5.663,5.663,0,0,1,3.833-5.354l7.5-2.582,2.032,1.2L28.638,57.92H16.548Zm31.869,0V57.92H36.328L35.061,44.69l2.021-1.2L44.6,46.075a5.658,5.658,0,0,1,3.82,5.354ZM25.825,19.641c5.872-5.957,16.251-1.561,16.07,6.808a3.716,3.716,0,0,1-1.271-1.963,1.025,1.025,0,0,0-1.035-.716c-1.648.1-3.626-1.687-4.252-2.377a1.029,1.029,0,0,0-1.464-.065,10.072,10.072,0,0,1-8.194,2.38,1.035,1.035,0,0,0-1.228.857,3.08,3.08,0,0,1-1.069,1.926,1.366,1.366,0,0,0-.311.005,9.415,9.415,0,0,1,2.755-6.855Zm-.913,12.018a1.042,1.042,0,0,0-1.841-.816V28.68a1.029,1.029,0,0,0,1.822-.791,5.116,5.116,0,0,0,1.348-2.037,12,12,0,0,0,8.278-2.374,8.626,8.626,0,0,0,4.4,2.321,6.2,6.2,0,0,0,1.192,1.841A1.044,1.044,0,0,0,41.9,28.67c.011.033,0,2.156,0,2.188a1.035,1.035,0,0,0-1.853.616,7.55,7.55,0,0,1-3.624,6.653c-4.868,3.054-11.643-.648-11.518-6.468Z" transform="translate(0.138 0.273)"/>
      <path id="Trazado_1043940" data-name="Trazado 1043940" d="M49.717,32.91a1.028,1.028,0,0,0-1.029,1.029,2.831,2.831,0,0,1-2.829,2.829,1.029,1.029,0,0,0,0,2.057,2.831,2.831,0,0,1,2.829,2.829,1.029,1.029,0,0,0,2.057,0,2.831,2.831,0,0,1,2.829-2.829,1.029,1.029,0,1,0,0-2.057,2.831,2.831,0,0,1-2.829-2.829A1.028,1.028,0,0,0,49.717,32.91Zm0,5.748a4.913,4.913,0,0,0-.862-.861,4.948,4.948,0,0,0,.862-.861,4.913,4.913,0,0,0,.862.861A4.878,4.878,0,0,0,49.717,38.658Z" transform="translate(1.007 0.791)"/>
      <path id="Trazado_1043941" data-name="Trazado 1043941" d="M26.089,14.023a1.029,1.029,0,0,0,2.057,0,2.831,2.831,0,0,1,2.829-2.829,1.029,1.029,0,0,0,0-2.057,2.831,2.831,0,0,1-2.829-2.829,1.029,1.029,0,0,0-2.057,0A2.837,2.837,0,0,1,23.25,9.137a1.029,1.029,0,0,0,0,2.057A2.837,2.837,0,0,1,26.089,14.023ZM27.117,9.3a4.9,4.9,0,0,0,.863.863,4.93,4.93,0,0,0-.863.863,4.907,4.907,0,0,0-.865-.863A4.978,4.978,0,0,0,27.117,9.3Z" transform="translate(0.36)"/>
      <path id="Trazado_1043942" data-name="Trazado 1043942" d="M9.671,30.256A1.028,1.028,0,0,0,10.7,31.285a2.837,2.837,0,0,1,2.829,2.839,1.029,1.029,0,0,0,2.057,0,2.837,2.837,0,0,1,2.829-2.839,1.029,1.029,0,0,0,0-2.057A2.832,2.832,0,0,1,15.586,26.4a1.029,1.029,0,1,0-2.057,0A2.832,2.832,0,0,1,10.7,29.227,1.028,1.028,0,0,0,9.671,30.256Zm4.886-.861a4.89,4.89,0,0,0,.863.862,4.972,4.972,0,0,0-.863.864,4.936,4.936,0,0,0-.863-.864A4.925,4.925,0,0,0,14.557,29.4Z" transform="translate(0 0.575)"/>
    </g>
  </g>
</svg>
