<svg xmlns="http://www.w3.org/2000/svg" xmlns:xlink="http://www.w3.org/1999/xlink" width="190" height="169" viewBox="0 0 190 169">
  <defs>
    <clipPath id="clip-path">
      <rect id="Rectángulo_415653" data-name="Rectángulo 415653" width="190" height="169" transform="translate(180 680)" fill="#fff" stroke="#707070" stroke-width="1" opacity="0.73"/>
    </clipPath>
  </defs>
  <g id="Enmascarar_grupo_1098823" data-name="Enmascarar grupo 1098823" transform="translate(-180 -680)" clip-path="url(#clip-path)">
    <g id="_169540884_e349625f-474d-4454-9de2-a8c83b4aaa4a" data-name="169540884_e349625f-474d-4454-9de2-a8c83b4aaa4a" transform="translate(138.481 656.433)">
      <path id="Trazado_1041892" data-name="Trazado 1041892" d="M195.2,122.767c-.12-2.415-.233-4.7-.28-6.971-.374-17.91-.96-36.955-3.591-55.608-1.957-13.87-8.821-22.34-20.987-25.9-10.421-3.045-22.981-2.075-35.127-1.136l-.815.063c-15.185,1.171-33.564,4.235-40.97,17.656-9.4,17.037-15.891,43.835-17.356,71.682l-.022.417c-.618,11.728-1.319,25.02,7.554,34.036,10.236,10.4,28.419,10.593,43.029,10.748,2.463.026,4.791.051,6.927.126,2.432.086,5.078.257,7.877.439l1.733.111c4.029,7.758,10.911,17.873,21.278,23.455a1.332,1.332,0,0,0,1.961-1.251c-.008-.127-.7-12.409.768-22.412,8.872-1.27,15.411-4.309,19.967-9.274C196.495,148.77,195.839,135.551,195.2,122.767Z" transform="translate(-3.518 -0.369)" fill="#31344c"/>
      <path id="Trazado_1041893" data-name="Trazado 1041893" d="M169.2,169.056c8.73-1.1,15.054-3.9,19.334-8.566,8.59-9.362,7.962-22.015,7.355-34.253-.115-2.327-.235-4.734-.283-7.047-.372-17.829-.954-36.784-3.565-55.292-1.82-12.9-7.888-20.435-19.1-23.711a59.6,59.6,0,0,0-16.552-1.955c-5.751,0-11.736.463-17.622.917l-.816.063C123.434,40.332,105.9,43.195,99.108,55.5,89.891,72.2,83.525,98.57,82.08,126.035l-.022.417c-.589,11.179-1.257,23.849,6.793,32.028,9.465,9.617,27.039,9.8,41.159,9.953,2.48.026,4.824.051,6.992.127,2.472.087,5.136.26,7.956.443q1.226.08,2.483.159a1.331,1.331,0,0,1,1.1.727c3.537,6.972,9.532,16.174,18.448,21.788a121.143,121.143,0,0,1,1.055-21.516A1.333,1.333,0,0,1,169.2,169.056Z" transform="translate(-6.859 -3.707)" fill="#5b96c5"/>
      <g id="Grupo_1182191" data-name="Grupo 1182191" transform="translate(117.473 63.532)">
        <path id="Trazado_1041894" data-name="Trazado 1041894" d="M221.044,121.3a22.969,22.969,0,0,0-15.834-16.86c-8.029-2.274-17.627,0-23.238,6.345-3.254,3.68-5.16,8.668-3.86,13.565a12.022,12.022,0,0,0,10.729,9c2.592.24,4.813-2.384,4.813-4.813,0-2.8-2.214-4.573-4.813-4.813-.839-.078-1.671-1.988-1.495-3.169.356-2.388,2.441-4.287,4.415-5.451a13.708,13.708,0,0,1,14.809.535,13.336,13.336,0,0,1,5.3,12.359,13.154,13.154,0,0,1-9.017,10.3c-3.825,1.27-7.257,2.856-9.4,6.459-1.914,3.213-2.317,7.017-2.6,10.666-.2,2.595,2.357,4.813,4.813,4.813a4.908,4.908,0,0,0,4.813-4.813c.214-2.746.319-6.006,3.116-7.24,1.689-.745,3.524-1.144,5.219-1.91a21.74,21.74,0,0,0,5.205-3.435A22.4,22.4,0,0,0,221.044,121.3Z" transform="translate(-177.7 -103.581)" fill="#31344c"/>
        <path id="Trazado_1041895" data-name="Trazado 1041895" d="M215.395,241.2a4.638,4.638,0,0,0-4.8-2.3,3.579,3.579,0,0,0-1.79.571l-.974.752a4.812,4.812,0,0,0-1.238,2.124l-.172,1.28a4.794,4.794,0,0,0,.657,2.429l.559.946a4.638,4.638,0,0,0,4.8,2.3,3.579,3.579,0,0,0,1.79-.571l.974-.753a4.812,4.812,0,0,0,1.238-2.124l.172-1.28a4.8,4.8,0,0,0-.657-2.429Z" transform="translate(-193.675 -178.785)" fill="#31344c"/>
      </g>
      <g id="Grupo_1182192" data-name="Grupo 1182192" transform="translate(146.943 42.546)">
        <path id="Trazado_1041896" data-name="Trazado 1041896" d="M256.065,56.363a15.941,15.941,0,0,0-7.929,1.089,6.986,6.986,0,0,0-3.927,4.633c-.657,3.151,1.541,6.2,4.038,8.233,4.382,3.562,10.064,5.509,13.761,9.778,5.544,6.4,5.063,16.057,9.008,23.552.985,1.872,2.777,3.821,4.839,3.347a4.263,4.263,0,0,0,2.483-2.061,14.77,14.77,0,0,0,1.857-6.4c.538-5.419-.168-10.873-.731-16.289-.453-4.359-.827-8.783-2.308-12.908-3.384-9.42-11.944-12.025-21.091-12.977" transform="translate(-244.091 -56.301)" fill="#6eb9db"/>
      </g>
      <g id="Grupo_1182193" data-name="Grupo 1182193" transform="translate(172.105 97.395)">
        <path id="Trazado_1041897" data-name="Trazado 1041897" d="M305.789,179.881c-5.572-.361-6.781,7.97-2.183,10.133,2.769,1.3,6.994,1.275,8.362-2,1.253-3-.595-5.654-2.628-7.506Z" transform="translate(-300.779 -179.869)" fill="#6eb9db"/>
      </g>
      <g id="Grupo_1182195" data-name="Grupo 1182195" transform="translate(78.011 31.567)">
        <g id="Grupo_1182194" data-name="Grupo 1182194" transform="translate(0 0)">
          <path id="Trazado_1041898" data-name="Trazado 1041898" d="M113.892,31.7a46.462,46.462,0,0,0-22.108,22.49,45.2,45.2,0,0,0-2.954,8.593c-.323,1.39,1.817,1.983,2.14.59a44.354,44.354,0,0,1,16.5-25.221,43.82,43.82,0,0,1,7.541-4.536,1.119,1.119,0,0,0,.4-1.518,1.135,1.135,0,0,0-1.519-.4Z" transform="translate(-88.798 -31.567)" fill="#31344c"/>
        </g>
      </g>
      <g id="Grupo_1182197" data-name="Grupo 1182197" transform="translate(75.845 67.554)">
        <g id="Grupo_1182196" data-name="Grupo 1182196" transform="translate(0 0)">
          <path id="Trazado_1041899" data-name="Trazado 1041899" d="M84.453,113.454l-.5,1.872a1.153,1.153,0,0,0,.112.855,1.109,1.109,0,0,0,1.518.4,1.151,1.151,0,0,0,.51-.663l.5-1.872a1.153,1.153,0,0,0-.112-.855,1.109,1.109,0,0,0-1.518-.4,1.148,1.148,0,0,0-.51.663Z" transform="translate(-83.916 -112.643)" fill="#31344c"/>
        </g>
      </g>
      <g id="Grupo_1182199" data-name="Grupo 1182199" transform="translate(168.704 129.089)">
        <g id="Grupo_1182198" data-name="Grupo 1182198">
          <path id="Trazado_1041900" data-name="Trazado 1041900" d="M294.487,294.038c6.529-1.891,13.428-3.972,18.335-8.945,5.019-5.086,7.206-12.2,7.863-19.164a95.506,95.506,0,0,0,.022-13.585c-.069-1.422-2.289-1.43-2.219,0,.356,7.354.638,14.926-1.765,22a24.475,24.475,0,0,1-4.613,8.262,23.662,23.662,0,0,1-7.8,5.669A68.617,68.617,0,0,1,293.9,291.9a1.111,1.111,0,0,0,.59,2.14Z" transform="translate(-293.117 -251.274)" fill="#31344c"/>
        </g>
      </g>
      <g id="Grupo_1182201" data-name="Grupo 1182201" transform="translate(69.402 146.97)">
        <g id="Grupo_1182200" data-name="Grupo 1182200">
          <path id="Trazado_1041901" data-name="Trazado 1041901" d="M69.438,292.958a16.469,16.469,0,0,0,5.379,8.5,1.14,1.14,0,0,0,1.569,0,1.119,1.119,0,0,0,0-1.569,14.355,14.355,0,0,1-4.808-7.521,1.11,1.11,0,1,0-2.14.59Z" transform="translate(-69.402 -291.556)" fill="#31344c"/>
        </g>
      </g>
      <g id="Grupo_1182203" data-name="Grupo 1182203" transform="translate(177.408 35.161)">
        <g id="Grupo_1182202" data-name="Grupo 1182202" transform="translate(0 0)">
          <path id="Trazado_1041902" data-name="Trazado 1041902" d="M313.268,41.734a29.67,29.67,0,0,1,6.888,6.342,1.116,1.116,0,0,0,1.569,0,1.136,1.136,0,0,0,0-1.569,31.462,31.462,0,0,0-7.337-6.689,1.118,1.118,0,0,0-1.519.4,1.136,1.136,0,0,0,.4,1.518Z" transform="translate(-312.727 -39.665)" fill="#31344c"/>
        </g>
      </g>
      <g id="Grupo_1182205" data-name="Grupo 1182205" transform="translate(134.834 170.319)">
        <g id="Grupo_1182204" data-name="Grupo 1182204" transform="translate(0)">
          <path id="Trazado_1041903" data-name="Trazado 1041903" d="M216.967,345.82c3.469,6.062,7.127,12.356,12.583,16.866a26.687,26.687,0,0,0,4.99,3.3c1.273.64,2.4-1.274,1.12-1.916-6.107-3.073-10.306-8.638-13.814-14.335-1.021-1.658-2-3.344-2.962-5.034a1.111,1.111,0,0,0-1.917,1.12Z" transform="translate(-216.812 -344.16)" fill="#31344c"/>
        </g>
      </g>
      <path id="Trazado_1041904" data-name="Trazado 1041904" d="M169.2,169.441c8.73-1.1,15.054-3.9,19.334-8.566a27.694,27.694,0,0,0,6.618-13.226,160.467,160.467,0,0,1-16.492,3.178,149.322,149.322,0,0,1-25.245,1.4c-4.1-.131-8.193-.449-12.26-.985a49.29,49.29,0,0,1-10.385-2.333A23.693,23.693,0,0,1,118,138.781c-3.311-5.681-4-12.318-4.264-18.757-.525-12.741-.308-26,.112-38.936.32-9.849.388-22.051,9.368-28.349,7.443-5.22,14.619-7.94,24.1-13.815-2.849.17-5.711.39-8.552.61l-.816.063c-14.517,1.119-32.052,3.982-38.843,16.287-9.218,16.7-15.583,43.071-17.028,70.536l-.022.417c-.589,11.179-1.257,23.849,6.793,32.028,9.465,9.617,27.039,9.8,41.159,9.953,2.48.026,4.824.051,6.992.127,2.472.087,5.136.26,7.956.443q1.226.08,2.483.159a1.331,1.331,0,0,1,1.1.727c3.537,6.972,9.532,16.174,18.448,21.788a121.14,121.14,0,0,1,1.055-21.516A1.333,1.333,0,0,1,169.2,169.441Z" transform="translate(-6.859 -4.092)" fill="#626aa8"/>
    </g>
  </g>
</svg>
