<svg xmlns="http://www.w3.org/2000/svg" xmlns:xlink="http://www.w3.org/1999/xlink" width="588.434" height="377.453" viewBox="0 0 588.434 377.453">
  <defs>
    <filter id="Trazado_1039715" x="3.112" y="0" width="171.295" height="171.295" filterUnits="userSpaceOnUse">
      <feOffset dy="3" input="SourceAlpha"/>
      <feGaussianBlur stdDeviation="3" result="blur"/>
      <feFlood flood-opacity="0.161"/>
      <feComposite operator="in" in2="blur"/>
      <feComposite in="SourceGraphic"/>
    </filter>
    <filter id="Trazado_1039427" x="0" y="206.175" width="171.067" height="171.067" filterUnits="userSpaceOnUse">
      <feOffset dy="3" input="SourceAlpha"/>
      <feGaussianBlur stdDeviation="3" result="blur-2"/>
      <feFlood flood-opacity="0.161"/>
      <feComposite operator="in" in2="blur-2"/>
      <feComposite in="SourceGraphic"/>
    </filter>
    <filter id="Trazado_1039123" x="211.469" y="206.16" width="171.081" height="171.081" filterUnits="userSpaceOnUse">
      <feOffset dy="3" input="SourceAlpha"/>
      <feGaussianBlur stdDeviation="3" result="blur-3"/>
      <feFlood flood-opacity="0.161"/>
      <feComposite operator="in" in2="blur-3"/>
      <feComposite in="SourceGraphic"/>
    </filter>
    <filter id="Trazado_1039553" x="417.14" y="206.175" width="171.295" height="171.278" filterUnits="userSpaceOnUse">
      <feOffset dy="3" input="SourceAlpha"/>
      <feGaussianBlur stdDeviation="3" result="blur-4"/>
      <feFlood flood-opacity="0.161"/>
      <feComposite operator="in" in2="blur-4"/>
      <feComposite in="SourceGraphic"/>
    </filter>
    <filter id="Trazado_1039687" x="211.363" y="0" width="171.295" height="171.295" filterUnits="userSpaceOnUse">
      <feOffset dy="3" input="SourceAlpha"/>
      <feGaussianBlur stdDeviation="3" result="blur-5"/>
      <feFlood flood-opacity="0.161"/>
      <feComposite operator="in" in2="blur-5"/>
      <feComposite in="SourceGraphic"/>
    </filter>
    <filter id="Trazado_1039484" x="419.613" y="0" width="166.349" height="166.349" filterUnits="userSpaceOnUse">
      <feOffset dy="3" input="SourceAlpha"/>
      <feGaussianBlur stdDeviation="3" result="blur-6"/>
      <feFlood flood-opacity="0.161"/>
      <feComposite operator="in" in2="blur-6"/>
      <feComposite in="SourceGraphic"/>
    </filter>
  </defs>
  <g id="Grupo_1181476" data-name="Grupo 1181476" transform="translate(-502.99 -7664.46)">
    <path id="Trazado_1039829" data-name="Trazado 1039829" d="M-76.274,6582.939H378.2" transform="translate(646.308 1164.171)" fill="none" stroke="#4b2e08" stroke-linecap="round" stroke-width="6" stroke-dasharray="0 10"/>
    <path id="Trazado_1039832" data-name="Trazado 1039832" d="M-76.274,6851.1H87.279" transform="translate(7439.625 7865.881) rotate(90)" fill="none" stroke="#4b2e08" stroke-linecap="round" stroke-width="6" stroke-dasharray="0 10"/>
    <g id="Grupo_1181324" data-name="Grupo 1181324" transform="translate(515.103 7670.46)">
      <g id="Grupo_1181294" data-name="Grupo 1181294" transform="translate(0 0)">
        <g transform="matrix(1, 0, 0, 1, -12.11, -6)" filter="url(#Trazado_1039715)">
          <path id="Trazado_1039715-2" data-name="Trazado 1039715" d="M189.291,229.857a76.293,76.293,0,0,1-20.65,52.331c-.164.2-.329.378-.51.559-.23.247-.477.493-.707.723a75.412,75.412,0,0,1-9.5,8.22c-.444.345-.888.674-1.348.97a76.215,76.215,0,0,1-43.93,13.843,80.752,80.752,0,0,1-9.832-.608.148.148,0,0,0-.082-.016,76.567,76.567,0,0,1-22.376-6.494c-.575-.263-1.151-.543-1.726-.822A76.632,76.632,0,0,1,50.283,274.4c-.625-.888-1.25-1.776-1.841-2.7a71.3,71.3,0,0,1-4.044-6.938,76.65,76.65,0,1,1,144.893-34.9Z" transform="translate(-23.88 -147.21)" fill="#ffe1b9"/>
        </g>
      </g>
      <g id="Grupo_1181296" data-name="Grupo 1181296" transform="translate(44.357 89.18)">
        <g id="Grupo_1181295" data-name="Grupo 1181295">
          <path id="Trazado_1039716" data-name="Trazado 1039716" d="M151.263,247.258c-.164.2-.329.378-.51.559-.23.247-.477.493-.707.723a76.436,76.436,0,0,1-54.781,23.034,80.746,80.746,0,0,1-9.832-.608.148.148,0,0,0-.082-.016,76.567,76.567,0,0,1-22.376-6.494c.658-27.769.378-52.068.378-52.529.263-.575,13.12-3.88,30.235-4.439C120.519,206.633,143.273,221.824,151.263,247.258Z" transform="translate(-62.976 -207.453)" fill="#f74d76"/>
        </g>
      </g>
      <g id="Grupo_1181298" data-name="Grupo 1181298" transform="translate(14.287 93.259)">
        <g id="Grupo_1181297" data-name="Grupo 1181297">
          <path id="Trazado_1039717" data-name="Trazado 1039717" d="M97.215,269.368a.148.148,0,0,0-.082-.016,76.566,76.566,0,0,1-22.376-6.494c-.575-.263-1.151-.543-1.726-.822a76.633,76.633,0,0,1-28.344-24.168c14.764-20.239,26.831-26.141,30.448-27.538a10.669,10.669,0,0,1,1.118-.395Z" transform="translate(-44.686 -209.934)" fill="#f74d76"/>
        </g>
      </g>
      <g id="Grupo_1181299" data-name="Grupo 1181299" transform="translate(46.511 11.502)">
        <path id="Trazado_1039718" data-name="Trazado 1039718" d="M94.72,192.866s17.7.845,18.7-16.127c1.067-18.069-15.652-19.8-22.751-12.5s-5.786,14.736-5.786,14.736-4.949-4.46-10.346,1.018c-3.962,4.02-1.917,10.595-1.917,10.595s-9.128-.352-8.276,7.619a17.79,17.79,0,0,0,6.55,12.017Z" transform="translate(-64.286 -160.206)" fill="#ffaf45"/>
      </g>
      <g id="Grupo_1181301" data-name="Grupo 1181301" transform="translate(60.765 75.409)">
        <g id="Grupo_1181300" data-name="Grupo 1181300">
          <path id="Trazado_1039719" data-name="Trazado 1039719" d="M72.956,199.077l1.84,18.805s3.92,5.074,15.009,4.891c8.26-.135,10.958-2.27,10.958-2.27l-2.075-9.412-2.035-9.177-20.291-2.427Z" transform="translate(-72.956 -199.077)" fill="#fc8165"/>
        </g>
      </g>
      <g id="Grupo_1181303" data-name="Grupo 1181303" transform="translate(64.17 75.82)">
        <g id="Grupo_1181302" data-name="Grupo 1181302">
          <path id="Trazado_1039720" data-name="Trazado 1039720" d="M75.027,199.327a6.213,6.213,0,0,0,.723,1.761c5.126,8.982,16.827,9.881,21.6,9.843l-2.035-9.177Z" transform="translate(-75.027 -199.327)"/>
        </g>
      </g>
      <g id="Grupo_1181305" data-name="Grupo 1181305" transform="translate(46.317 29.023)">
        <g id="Grupo_1181304" data-name="Grupo 1181304">
          <path id="Trazado_1039721" data-name="Trazado 1039721" d="M102.312,176.815s12.174,22.611,9.567,36.091S97.1,225.3,89.7,223.342a23.848,23.848,0,0,1-11.088-6.088,10.162,10.162,0,0,1-11.523-3.043c-5-5.871-2.826-13.263.87-15.219s8.479.436,8.479.436l-4.132-6.522S84.484,157.031,102.312,176.815Z" transform="translate(-64.168 -170.863)" fill="#fc8165"/>
        </g>
      </g>
      <g id="Grupo_1181306" data-name="Grupo 1181306" transform="translate(50.534 61.906)">
        <path id="Trazado_1039722" data-name="Trazado 1039722" d="M75.011,196.837a.823.823,0,0,1-.413-.11L67.143,192.4a.822.822,0,0,1,.824-1.424l7.456,4.327a.824.824,0,0,1,.3,1.125A.814.814,0,0,1,75.011,196.837Z" transform="translate(-66.733 -190.864)"/>
      </g>
      <g id="Grupo_1181307" data-name="Grupo 1181307" transform="translate(51.905 64.904)">
        <path id="Trazado_1039723" data-name="Trazado 1039723" d="M68.389,196.314a.823.823,0,0,1-.381-1.552l3.795-1.981a.823.823,0,0,1,.761,1.458l-3.795,1.981A.831.831,0,0,1,68.389,196.314Z" transform="translate(-67.566 -192.687)"/>
      </g>
      <g id="Grupo_1181308" data-name="Grupo 1181308" transform="translate(81.888 41.403)">
        <path id="Trazado_1039724" data-name="Trazado 1039724" d="M91.675,180.829a.829.829,0,0,1-.459-.14,3.676,3.676,0,0,0-4.11-.015.822.822,0,0,1-.967-1.33,5.308,5.308,0,0,1,5.994-.018.821.821,0,0,1-.459,1.5Z" transform="translate(-85.804 -178.393)"/>
      </g>
      <g id="Grupo_1181309" data-name="Grupo 1181309" transform="translate(81.461 51.263)">
        <path id="Trazado_1039725" data-name="Trazado 1039725" d="M89.319,198.375a.869.869,0,0,1-.158-.015.824.824,0,0,1-.651-.963,14.243,14.243,0,0,0-2.754-11.632.822.822,0,0,1,1.217-1.106,15.635,15.635,0,0,1,3.152,13.051A.822.822,0,0,1,89.319,198.375Z" transform="translate(-85.544 -184.39)"/>
      </g>
      <g id="Grupo_1181310" data-name="Grupo 1181310" transform="translate(86.758 48.806)">
        <path id="Trazado_1039726" data-name="Trazado 1039726" d="M89.779,189.029a.822.822,0,0,1-.82-.788l-.192-4.488a.822.822,0,0,1,1.642-.071l.192,4.488a.822.822,0,0,1-.786.857A.25.25,0,0,1,89.779,189.029Z" transform="translate(-88.766 -182.896)"/>
      </g>
      <g id="Grupo_1181311" data-name="Grupo 1181311" transform="translate(74.416 49.985)">
        <path id="Trazado_1039727" data-name="Trazado 1039727" d="M82.27,189.745a.822.822,0,0,1-.82-.788l-.191-4.487a.822.822,0,0,1,.786-.857.8.8,0,0,1,.857.786l.191,4.487a.822.822,0,0,1-.786.857A.254.254,0,0,1,82.27,189.745Z" transform="translate(-81.259 -183.613)"/>
      </g>
      <g id="Grupo_1181312" data-name="Grupo 1181312" transform="translate(49.747 23.39)">
        <path id="Trazado_1039728" data-name="Trazado 1039728" d="M103.468,184.141a7.975,7.975,0,0,0-7.106-3.153,10.2,10.2,0,0,0-7.111,4s2.831,7.7-3.137,12.518-11.019,4.13-11.019,4.13l-4.788-1.2-4.054-6.428,11.974-15.734,16.429-10.838,9.611,7.152Z" transform="translate(-66.254 -167.437)" fill="#ffaf45"/>
      </g>
      <g id="Grupo_1181313" data-name="Grupo 1181313" transform="translate(75.062 65.451)">
        <path id="Trazado_1039729" data-name="Trazado 1039729" d="M87.919,197.635a6.9,6.9,0,0,1-6.152-3.372.822.822,0,1,1,1.412-.84,5.566,5.566,0,0,0,5.67,2.5.822.822,0,0,1,.311,1.615A6.961,6.961,0,0,1,87.919,197.635Z" transform="translate(-81.652 -193.02)"/>
      </g>
      <g id="Grupo_1181314" data-name="Grupo 1181314" transform="translate(84.71 45.203)">
        <path id="Trazado_1039730" data-name="Trazado 1039730" d="M95.532,197.214a8.259,8.259,0,1,1,8.012-8.255A8.144,8.144,0,0,1,95.532,197.214Zm0-14.866a6.616,6.616,0,1,0,6.368,6.611A6.5,6.5,0,0,0,95.532,182.348Z" transform="translate(-87.52 -180.704)" fill="#80baff"/>
      </g>
      <g id="Grupo_1181315" data-name="Grupo 1181315" transform="translate(65.435 47.042)">
        <path id="Trazado_1039731" data-name="Trazado 1039731" d="M84.051,198.333a8.255,8.255,0,1,1,8.255-8.255A8.263,8.263,0,0,1,84.051,198.333Zm0-14.867a6.611,6.611,0,1,0,6.611,6.611A6.619,6.619,0,0,0,84.051,183.465Z" transform="translate(-75.796 -181.823)" fill="#80baff"/>
      </g>
      <g id="Grupo_1181316" data-name="Grupo 1181316" transform="translate(79.502 53.139)">
        <path id="Trazado_1039732" data-name="Trazado 1039732" d="M85.174,187.65a.822.822,0,0,1-.066-1.641l5.812-.477a.822.822,0,1,1,.135,1.639l-5.812.477Z" transform="translate(-84.352 -185.531)" fill="#80baff"/>
      </g>
      <g id="Grupo_1181317" data-name="Grupo 1181317" transform="translate(52.979 53.649)">
        <path id="Trazado_1039733" data-name="Trazado 1039733" d="M69.042,189.4a.822.822,0,0,1-.6-1.386c4.419-4.7,13.062-.355,13.429-.168a.822.822,0,0,1-.748,1.463c-.079-.041-7.906-3.974-11.482-.169A.825.825,0,0,1,69.042,189.4Z" transform="translate(-68.22 -185.842)" fill="#80baff"/>
      </g>
      <g id="Grupo_1181318" data-name="Grupo 1181318" transform="translate(60.028 92.039)">
        <path id="Trazado_1039734" data-name="Trazado 1039734" d="M90.317,216.423a29,29,0,0,1-17.473-5.746.822.822,0,0,1,.973-1.325c14.544,10.68,30.182,2.356,30.338,2.27a.822.822,0,1,1,.789,1.442A33.853,33.853,0,0,1,90.317,216.423Z" transform="translate(-72.508 -209.192)" fill="#fff"/>
      </g>
      <g id="Grupo_1181319" data-name="Grupo 1181319" transform="translate(68.786 42.19)">
        <path id="Trazado_1039735" data-name="Trazado 1039735" d="M78.656,183.19a.821.821,0,0,1-.7-1.258,5.913,5.913,0,0,1,7.292-2.668.822.822,0,0,1-.633,1.518,4.287,4.287,0,0,0-5.264,2.025A.83.83,0,0,1,78.656,183.19Z" transform="translate(-77.834 -178.871)"/>
      </g>
      <g id="Grupo_1181321" data-name="Grupo 1181321" transform="translate(117.255 131.723)">
        <g id="Grupo_1181320" data-name="Grupo 1181320">
          <path id="Trazado_1039736" data-name="Trazado 1039736" d="M111.986,240.088c-.444.345-.888.674-1.348.97l-3.239-6.543a.824.824,0,1,1,1.48-.723Z" transform="translate(-107.315 -233.329)" fill="#fff"/>
        </g>
      </g>
      <g id="Grupo_1181322" data-name="Grupo 1181322" transform="translate(26.384 102.885)">
        <path id="Trazado_1039737" data-name="Trazado 1039737" d="M99.083,230.575c-29.878,0-46.5-10.79-46.672-10.907a.823.823,0,0,1,.909-1.371c.186.123,18.96,12.275,52.619,10.447,28.5-1.559,35.548-12.452,35.616-12.562a.823.823,0,0,1,1.406.855c-.289.478-7.44,11.737-36.929,13.348Q102.445,230.579,99.083,230.575Z" transform="translate(-52.044 -215.789)" fill="#fff"/>
      </g>
      <g id="Grupo_1181323" data-name="Grupo 1181323" transform="translate(16.524 117.304)">
        <path id="Trazado_1039738" data-name="Trazado 1039738" d="M106.509,243.686c-35.121,0-59.868-17.457-60.119-17.638a.822.822,0,1,1,.958-1.335c.252.181,25.569,18.044,61.308,17.306,35.521-.732,48.1-16.967,48.226-17.131a.822.822,0,0,1,1.319.983c-.518.7-13.112,17.039-49.51,17.791C107.959,243.68,107.229,243.686,106.509,243.686Z" transform="translate(-46.046 -224.559)" fill="#fff"/>
      </g>
    </g>
    <path id="Trazado_1040137" data-name="Trazado 1040137" d="M-76.274,6788.99H378.2" transform="translate(646.308 1164.171)" fill="none" stroke="#4b2e08" stroke-linecap="round" stroke-width="6" stroke-dasharray="0 10"/>
    <g id="Grupo_1180874" data-name="Grupo 1180874" transform="translate(511.99 7876.635)">
      <g id="Grupo_1180846" data-name="Grupo 1180846" transform="translate(0 0)">
        <g transform="matrix(1, 0, 0, 1, -9, -212.17)" filter="url(#Trazado_1039427)">
          <path id="Trazado_1039427-2" data-name="Trazado 1039427" d="M313.963,350.116a76.51,76.51,0,0,1-76.525,76.525,77.31,77.31,0,0,1-13.46-1.182,71.986,71.986,0,0,1-10.128-2.544,76.532,76.532,0,1,1,100.113-72.8Z" transform="translate(-151.9 -61.4)" fill="#ffe1b9"/>
        </g>
      </g>
      <g id="Grupo_1180847" data-name="Grupo 1180847" transform="translate(11.773 31.026)">
        <path id="Trazado_1039428" data-name="Trazado 1039428" d="M221.179,297.007a31.828,31.828,0,0,0-32.166-.309c-17.431,9.68-11.965,27.638-11.965,27.638s-13.667,17.135-7.28,34.157,34.781,21.864,47.391,2.666-7.411-36.314-7.411-36.314S225.992,324.756,221.179,297.007Z" transform="translate(-168.068 -292.475)"/>
      </g>
      <g id="Grupo_1180848" data-name="Grupo 1180848" transform="translate(114.542 105.53)">
        <path id="Trazado_1039429" data-name="Trazado 1039429" d="M251.917,357.315a76.939,76.939,0,0,1-21.241,17.991c.148-22.39,8.93-37.442,8.93-37.442A213.993,213.993,0,0,0,251.917,357.315Z" transform="translate(-230.676 -337.864)" fill="#b55c4d"/>
      </g>
      <g id="Grupo_1180849" data-name="Grupo 1180849" transform="translate(57.357 19.102)">
        <path id="Trazado_1039430" data-name="Trazado 1039430" d="M243.894,316.788s6.3-19.469,5.435-24.394-21.513-11.28-37.925-3.629-17.515,29.228-13.815,38.153c9.529,22.982,29.331,12.4,29.331,12.4S258.48,329.7,243.894,316.788Z" transform="translate(-195.838 -285.211)"/>
      </g>
      <g id="Grupo_1180850" data-name="Grupo 1180850" transform="translate(52.954 86.746)">
        <path id="Trazado_1039431" data-name="Trazado 1039431" d="M269.649,371.5a76.384,76.384,0,0,1-52.9,21.241,77.31,77.31,0,0,1-13.46-1.182,71.986,71.986,0,0,1-10.128-2.544c.837-16.234,1.937-32.977,3.3-44.238.87-7.206,1.855-12.163,2.955-13.329.985-1.051,2.955-2.035,5.68-2.856a62.356,62.356,0,0,1,16.677-2.167,72.051,72.051,0,0,1,20.994,2.741c6.221,1.871,12.016,4.76,16.448,9.028a21.057,21.057,0,0,1,4.465,7.009C266.546,351.82,268.418,361.143,269.649,371.5Z" transform="translate(-193.156 -326.421)" fill="#ada4f7"/>
      </g>
      <g id="Grupo_1180854" data-name="Grupo 1180854" transform="translate(79.879 72.658)">
        <g id="Grupo_1180853" data-name="Grupo 1180853">
          <g id="Grupo_1180852" data-name="Grupo 1180852">
            <g id="Grupo_1180851" data-name="Grupo 1180851">
              <path id="Trazado_1039432" data-name="Trazado 1039432" d="M232.224,321.323l.016.483-.011,9.109.018,7.14s.65,1.633-7.288,1.428c-10.64-.318-14.258-4.952-14.258-4.952l-1.142-16.692,3.244.507Z" transform="translate(-209.559 -317.838)" fill="#b55c4d"/>
            </g>
          </g>
        </g>
      </g>
      <g id="Grupo_1180858" data-name="Grupo 1180858" transform="translate(83.776 73.981)">
        <g id="Grupo_1180857" data-name="Grupo 1180857">
          <g id="Grupo_1180856" data-name="Grupo 1180856">
            <g id="Grupo_1180855" data-name="Grupo 1180855">
              <path id="Trazado_1039433" data-name="Trazado 1039433" d="M230.736,321.778l-.025,8.409c-5.015-.4-14.186-2.18-18.179-9.875a6.353,6.353,0,0,1-.6-1.668l18.769,3.007Z" transform="translate(-211.933 -318.644)"/>
            </g>
          </g>
        </g>
      </g>
      <g id="Grupo_1180862" data-name="Grupo 1180862" transform="translate(67.612 30.871)">
        <g id="Grupo_1180861" data-name="Grupo 1180861">
          <g id="Grupo_1180860" data-name="Grupo 1180860">
            <g id="Grupo_1180859" data-name="Grupo 1180859">
              <path id="Trazado_1039434" data-name="Trazado 1039434" d="M238.635,298.318s10.458,21.456,7.529,33.877-14.2,10.954-20.986,8.859a22.172,22.172,0,0,1-10.069-6.07,9.444,9.444,0,0,1-10.587-3.26c-4.424-5.64-2.127-12.423,1.379-14.1s7.858.722,7.858.722l-3.592-6.213S222.821,279.274,238.635,298.318Z" transform="translate(-202.086 -292.381)" fill="#b55c4d"/>
            </g>
          </g>
        </g>
      </g>
      <g id="Grupo_1180863" data-name="Grupo 1180863" transform="translate(101.255 54.145)">
        <path id="Trazado_1039435" data-name="Trazado 1039435" d="M225.611,317.157a.824.824,0,0,1-.793-1.036c1.09-4.012-2.039-8.2-2.07-8.245a.82.82,0,0,1,1.308-.99c.149.2,3.644,4.885,2.346,9.667A.822.822,0,0,1,225.611,317.157Z" transform="translate(-222.581 -306.56)"/>
      </g>
      <g id="Grupo_1180864" data-name="Grupo 1180864" transform="translate(71.711 59.518)">
        <path id="Trazado_1039436" data-name="Trazado 1039436" d="M211.561,317.56a.818.818,0,0,1-.578-.238l-6.157-6.085a.821.821,0,1,1,1.154-1.167l6.157,6.085a.822.822,0,0,1-.576,1.405Z" transform="translate(-204.583 -309.833)"/>
      </g>
      <g id="Grupo_1180865" data-name="Grupo 1180865" transform="translate(71.523 63.372)">
        <path id="Trazado_1039437" data-name="Trazado 1039437" d="M205.289,314.587a.82.82,0,0,1-.149-1.627l4.086-.765a.82.82,0,1,1,.3,1.612l-4.086.765A.8.8,0,0,1,205.289,314.587Z" transform="translate(-204.468 -312.181)"/>
      </g>
      <g id="Grupo_1180866" data-name="Grupo 1180866" transform="translate(91.716 65.698)">
        <path id="Trazado_1039438" data-name="Trazado 1039438" d="M222.543,319.609a4.147,4.147,0,0,1-1.733-.381,8.26,8.26,0,0,1-4-4.55.82.82,0,0,1,.189-.829.812.812,0,0,1,.821-.217l8.646,2.543a.821.821,0,0,1,.374,1.341A6.6,6.6,0,0,1,222.543,319.609Zm-3.327-3.857a5.734,5.734,0,0,0,2.277,1.981,3.154,3.154,0,0,0,3.024-.424Z" transform="translate(-216.77 -313.598)"/>
      </g>
      <g id="Grupo_1180867" data-name="Grupo 1180867" transform="translate(89.207 45.668)">
        <path id="Trazado_1039439" data-name="Trazado 1039439" d="M216.061,304.986a.833.833,0,0,1-.35-.079.82.82,0,0,1-.392-1.092c1.421-3.015,5.189-2.37,5.348-2.347a.82.82,0,0,1-.289,1.615c-.11-.02-2.692-.44-3.575,1.43A.814.814,0,0,1,216.061,304.986Z" transform="translate(-215.241 -301.395)"/>
      </g>
      <g id="Grupo_1180868" data-name="Grupo 1180868" transform="translate(100.924 43.382)">
        <path id="Trazado_1039440" data-name="Trazado 1039440" d="M223.2,302.951a.82.82,0,0,1-.693-1.259,3.411,3.411,0,0,1,2.354-1.648,5.612,5.612,0,0,1,3.894,1.279.82.82,0,0,1-1.042,1.267,4,4,0,0,0-2.6-.927,1.788,1.788,0,0,0-1.221.906A.817.817,0,0,1,223.2,302.951Z" transform="translate(-222.38 -300.003)"/>
      </g>
      <g id="Grupo_1180869" data-name="Grupo 1180869" transform="translate(104.593 47.884)">
        <path id="Trazado_1039441" data-name="Trazado 1039441" d="M226.173,310.4a.82.82,0,0,1-.806-.673l-.739-4.041a.824.824,0,0,1,.151-.642l1.482-1.971a.821.821,0,1,1,1.312.987l-1.266,1.684.675,3.687a.821.821,0,0,1-.66.955A.783.783,0,0,1,226.173,310.4Z" transform="translate(-224.615 -302.746)"/>
      </g>
      <g id="Grupo_1180870" data-name="Grupo 1180870" transform="translate(90.929 48.922)">
        <path id="Trazado_1039442" data-name="Trazado 1039442" d="M217.772,311.39a.82.82,0,0,1-.809-.688l-.662-4.054a.826.826,0,0,1,.213-.7l2.193-2.316a.821.821,0,0,1,1.193,1.128l-1.914,2.021.6,3.652a.821.821,0,0,1-.678.942A.634.634,0,0,1,217.772,311.39Z" transform="translate(-216.29 -303.378)"/>
      </g>
      <g id="Grupo_1180871" data-name="Grupo 1180871" transform="translate(71.842 27.002)">
        <path id="Trazado_1039443" data-name="Trazado 1039443" d="M212.105,319.858s9.368-5.223,12.579-12.214S227.9,297.2,227.9,297.2s1.554,4.457,5.07,5.4a26.566,26.566,0,0,0,5.681.983l2.444,6.328-1.978-15.223s-9.6-4.708-10.865-4.663-17.081,3.454-17.968,4.445S204.816,308,204.816,308l-.153,5.6Z" transform="translate(-204.663 -290.024)"/>
      </g>
      <g id="Grupo_1180872" data-name="Grupo 1180872" transform="translate(25.87 91.775)">
        <path id="Trazado_1039444" data-name="Trazado 1039444" d="M213.868,389.595a71.986,71.986,0,0,1-10.128-2.544,75.854,75.854,0,0,1-27.084-15.463,117.84,117.84,0,0,1,13.854-21.864,139.132,139.132,0,0,1,19.484-20.239l.9,4.161a131.326,131.326,0,0,1,2.961,27.728C213.853,370.731,213.868,379.728,213.868,389.595Z" transform="translate(-176.656 -329.484)" fill="#b55c4d"/>
      </g>
      <g id="Grupo_1180873" data-name="Grupo 1180873" transform="translate(79.059 87.792)">
        <path id="Trazado_1039445" data-name="Trazado 1039445" d="M224.991,334.346a24.181,24.181,0,0,1-15.684-5.883.821.821,0,0,1,1.147-1.175c.389.376,9.683,9.194,23.5,3.593a.821.821,0,0,1,.617,1.522A25.316,25.316,0,0,1,224.991,334.346Z" transform="translate(-209.06 -327.057)" fill="#fff"/>
      </g>
    </g>
    <path id="Trazado_1040138" data-name="Trazado 1040138" d="M-76.274,6851.1H87.279" transform="translate(7651.101 7865.881) rotate(90)" fill="none" stroke="#4b2e08" stroke-linecap="round" stroke-width="6" stroke-dasharray="0 10"/>
    <path id="Trazado_1040139" data-name="Trazado 1040139" d="M-76.274,6851.1H87.279" transform="translate(7856.878 7865.881) rotate(90)" fill="none" stroke="#4b2e08" stroke-linecap="round" stroke-width="6" stroke-dasharray="0 10"/>
    <g id="Grupo_1181475" data-name="Grupo 1181475" transform="translate(723.459 7876.62)">
      <g id="Grupo_1181474" data-name="Grupo 1181474">
        <g id="Grupo_1180374" data-name="Grupo 1180374">
          <g transform="matrix(1, 0, 0, 1, -220.47, -212.16)" filter="url(#Trazado_1039123)">
            <path id="Trazado_1039123-2" data-name="Trazado 1039123" d="M442.707,350.379a76.244,76.244,0,0,1-7.223,32.488,74.137,74.137,0,0,1-6.173,10.753,74.978,74.978,0,0,1-7.617,9.423,76.323,76.323,0,0,1-27.6,18.6c-.361.148-.706.279-1.051.41a76.063,76.063,0,0,1-26.873,4.859c-1.2,0-2.4-.033-3.579-.082a76.081,76.081,0,0,1-38.545-12.542c-1.757-1.149-3.447-2.364-5.089-3.661a76.841,76.841,0,0,1-16.137-17.27c-.082-.115-.164-.23-.246-.361a76.546,76.546,0,1,1,140.129-42.616Z" transform="translate(-69.16 -61.67)" fill="#ffe1b9"/>
          </g>
        </g>
        <g id="Grupo_1180691" data-name="Grupo 1180691" transform="translate(57.816 23.439)">
          <path id="Trazado_1039326" data-name="Trazado 1039326" d="M330.312,302.031s10.6-21.443,28.52-11.109,2.912,31.247,29.992,36.767c14.1,2.874,22.912,14.528,19.284,28.2-3.526,13.291-19.241,13.936-19.241,13.936s-17.16,24.629-36.753,17.365-28.71-18.819-27.085-37.329S330.312,302.031,330.312,302.031Z" transform="translate(-324.845 -288.107)" fill="#e56445"/>
        </g>
        <g id="Grupo_1180692" data-name="Grupo 1180692" transform="translate(41.279 22.178)">
          <path id="Trazado_1039327" data-name="Trazado 1039327" d="M317.667,321.428s-11.4-16.163,11.04-29.337,39.166,4.23,39.484,13.706-5.012,13.941-5.012,13.941,2.39,20.5-17.355,19.366S317.667,321.428,317.667,321.428Z" transform="translate(-314.771 -287.338)" fill="#e56445"/>
        </g>
        <g id="Grupo_1180694" data-name="Grupo 1180694" transform="translate(52.542 70.618)">
          <g id="Grupo_1180693" data-name="Grupo 1180693" transform="translate(0 0)">
            <path id="Trazado_1039328" data-name="Trazado 1039328" d="M343.265,316.847l.647,16.582s-2.8,4.884-12.475,6.049c-7.2.868-9.805-.666-9.805-.666l.68-8.438.675-8.229,17.367-4.536Z" transform="translate(-321.632 -316.847)" fill="#fca397"/>
          </g>
        </g>
        <g id="Grupo_1180696" data-name="Grupo 1180696" transform="translate(53.218 69.828)">
          <g id="Grupo_1180695" data-name="Grupo 1180695" transform="translate(0 0)">
            <path id="Trazado_1039329" data-name="Trazado 1039329" d="M342.94,316.366a5.435,5.435,0,0,1-.42,1.619c-3.388,8.428-16.316,12.163-20.476,12.7l.675-8.23Z" transform="translate(-322.044 -316.366)"/>
          </g>
        </g>
        <g id="Grupo_1180698" data-name="Grupo 1180698" transform="translate(43.64 31.727)">
          <g id="Grupo_1180697" data-name="Grupo 1180697" transform="translate(0 0)">
            <path id="Trazado_1039330" data-name="Trazado 1039330" d="M321.295,299.693s-7.893,21.131-4.012,32.548,14.346,9.017,20.545,6.432a20.942,20.942,0,0,0,8.921-6.622,8.925,8.925,0,0,0,9.663-4.025c3.649-5.706.875-11.879-2.576-13.14s-7.327,1.392-7.327,1.392l2.815-6.169S334.444,280.346,321.295,299.693Z" transform="translate(-316.209 -293.156)" fill="#fca397"/>
          </g>
        </g>
        <g id="Grupo_1180699" data-name="Grupo 1180699" transform="translate(49.574 51.496)">
          <path id="Trazado_1039331" data-name="Trazado 1039331" d="M320.965,317.208a.82.82,0,0,1-.806-.676c-1.264-7.049,1.456-10.841,1.573-11a.821.821,0,0,1,1.325.972c-.025.033-2.411,3.434-1.28,9.741a.821.821,0,0,1-.663.952A1.168,1.168,0,0,1,320.965,317.208Z" transform="translate(-319.824 -305.198)"/>
        </g>
        <g id="Grupo_1180700" data-name="Grupo 1180700" transform="translate(73.679 57.339)">
          <path id="Trazado_1039332" data-name="Trazado 1039332" d="M335.33,314.814a.822.822,0,0,1-.4-1.541l8.021-4.413a.822.822,0,0,1,.793,1.44l-8.021,4.413A.8.8,0,0,1,335.33,314.814Z" transform="translate(-334.508 -308.758)"/>
        </g>
        <g id="Grupo_1180701" data-name="Grupo 1180701" transform="translate(77.291 59.77)">
          <path id="Trazado_1039333" data-name="Trazado 1039333" d="M341.469,315.218a.82.82,0,0,1-.53-.194L337,311.685a.821.821,0,0,1,1.06-1.254L342,313.77a.823.823,0,0,1,.1,1.157A.812.812,0,0,1,341.469,315.218Z" transform="translate(-336.708 -310.239)"/>
        </g>
        <g id="Grupo_1180702" data-name="Grupo 1180702" transform="translate(43.859 27.546)">
          <path id="Trazado_1039334" data-name="Trazado 1039334" d="M316.658,319.329s1.2-6.4,7.217-13.755l6.017-7.353s.259,13.029,6.491,18.184,10.04,1.507,10.04,1.507L356.8,307.319l-21.169-16.71S313.459,291.454,316.658,319.329Z" transform="translate(-316.343 -290.609)" fill="#e56445"/>
        </g>
        <g id="Grupo_1180703" data-name="Grupo 1180703" transform="translate(27.581 86.957)">
          <path id="Trazado_1039335" data-name="Trazado 1039335" d="M382.268,388.066a76.063,76.063,0,0,1-26.873,4.859c-1.2,0-2.4-.033-3.579-.082A76.08,76.08,0,0,1,313.271,380.3c-1.757-1.149-3.447-2.364-5.089-3.661a88.074,88.074,0,0,1-1.707-13.494c-.427-7.666,2.085-15.169,4.859-20.947a23.481,23.481,0,0,1,11.147-11.114,23.109,23.109,0,0,1,5.253-1.806l4.843-1.051s35.508-3.1,41.96-.164a.679.679,0,0,0,.082.033c.575.279.886.607.919.985C375.866,333.219,379.478,364.377,382.268,388.066Z" transform="translate(-306.427 -326.8)" fill="#fcb35b"/>
        </g>
        <g id="Grupo_1180704" data-name="Grupo 1180704" transform="translate(72.56 88.222)">
          <path id="Trazado_1039336" data-name="Trazado 1039336" d="M400.952,359.138a74.967,74.967,0,0,1-7.617,9.423,76.324,76.324,0,0,1-27.6,18.6c-.361.148-.706.279-1.051.41a76.063,76.063,0,0,1-26.873,4.859c-1.2,0-2.4-.033-3.579-.082l-.41-2.216,23.13-62.562a.685.685,0,0,0,.082.033C358.549,328.178,389.149,333.71,400.952,359.138Z" transform="translate(-333.826 -327.57)" fill="#fcb35b"/>
        </g>
        <g id="Grupo_1180705" data-name="Grupo 1180705" transform="translate(46.684 85.895)">
          <path id="Trazado_1039337" data-name="Trazado 1039337" d="M324.334,327.7l-6.246,2.461s-1.2,12.411,13.519,12.045c15.453-.384,26.621-14.929,26.621-14.929l-13.607-1.126Z" transform="translate(-318.064 -326.153)" fill="#fca397"/>
        </g>
        <g id="Grupo_1180706" data-name="Grupo 1180706" transform="translate(45.871 86.2)">
          <path id="Trazado_1039338" data-name="Trazado 1039338" d="M331.234,342.921c-4.439,0-7.886-1.2-10.263-3.585a12.819,12.819,0,0,1-3.383-9.357.82.82,0,0,1,1.635.13c0,.048-.33,4.833,2.92,8.08,2.39,2.387,6.11,3.392,11.089,3.011,15.361-1.2,24.544-14.371,24.634-14.5a.821.821,0,0,1,1.356.926c-.387.57-9.7,13.946-25.862,15.213Q332.262,342.92,331.234,342.921Z" transform="translate(-317.569 -326.339)" fill="#fff"/>
        </g>
        <g id="Grupo_1180707" data-name="Grupo 1180707" transform="translate(55.133 64.388)">
          <path id="Trazado_1039339" data-name="Trazado 1039339" d="M324.032,318.061a.821.821,0,0,1-.281-1.592,7.16,7.16,0,0,0,3.328-3,.821.821,0,1,1,1.425.818,8.679,8.679,0,0,1-4.194,3.73A.786.786,0,0,1,324.032,318.061Z" transform="translate(-323.21 -313.052)"/>
        </g>
        <g id="Grupo_1180708" data-name="Grupo 1180708" transform="translate(79.529 22.173)">
          <path id="Trazado_1039340" data-name="Trazado 1039340" d="M352.967,310.97a.823.823,0,0,1-.821-.837c.309-16.127-12.961-21-13.527-21.2a.821.821,0,0,1,.543-1.55,23.578,23.578,0,0,1,14.625,22.781A.821.821,0,0,1,352.967,310.97Z" transform="translate(-338.071 -287.336)" fill="#fcb35b"/>
        </g>
        <g id="Grupo_1180776" data-name="Grupo 1180776" transform="translate(12.952 91.225)">
          <path id="Trazado_1039387" data-name="Trazado 1039387" d="M328.2,329.4c0,.017-3.923,48.182-3.923,48.182l-5.286,1.051c-1.757-1.149-3.447-2.364-5.089-3.661a76.844,76.844,0,0,1-16.137-17.27c-.082-.115-.164-.23-.246-.361a126.526,126.526,0,0,1,15.546-17.2C323.733,330.8,328.2,329.4,328.2,329.4Z" transform="translate(-297.516 -329.4)" fill="#fcb35b"/>
        </g>
        <g id="Grupo_1180781" data-name="Grupo 1180781" transform="translate(26.724 98.23)">
          <path id="Trazado_1039391" data-name="Trazado 1039391" d="M308.147,371.359a.82.82,0,0,1-.8-.64c-5.47-24.112,6.342-36.3,6.847-36.81a.821.821,0,1,1,1.164,1.157c-.117.118-11.669,12.109-6.41,35.29a.82.82,0,0,1-.619.982A.786.786,0,0,1,308.147,371.359Z" transform="translate(-305.905 -333.667)" fill="#fff"/>
        </g>
        <g id="Grupo_1180782" data-name="Grupo 1180782" transform="translate(98.784 139.632)">
          <path id="Trazado_1039392" data-name="Trazado 1039392" d="M351.74,368.872a.82.82,0,0,1-.811-.712l-1.121-8.338a.821.821,0,0,1,.7-.923.81.81,0,0,1,.923.7l1.121,8.338a.821.821,0,0,1-.7.923A.67.67,0,0,1,351.74,368.872Z" transform="translate(-349.8 -358.886)" fill="#fff"/>
        </g>
        <g id="Grupo_1180783" data-name="Grupo 1180783" transform="translate(45.441 44.459)">
          <path id="Trazado_1039393" data-name="Trazado 1039393" d="M318.126,303.463a.821.821,0,0,1-.181-1.622l3.991-.906a.821.821,0,1,1,.363,1.6l-3.991.906A.786.786,0,0,1,318.126,303.463Z" transform="translate(-317.307 -300.912)"/>
        </g>
        <g id="Grupo_1180784" data-name="Grupo 1180784" transform="translate(55.785 44.278)">
          <path id="Trazado_1039394" data-name="Trazado 1039394" d="M329.261,304.051a.839.839,0,0,1-.259-.041l-4.833-1.607a.821.821,0,1,1,.52-1.558l4.833,1.609a.819.819,0,0,1-.261,1.6Z" transform="translate(-323.607 -300.802)"/>
        </g>
        <g id="Grupo_1180785" data-name="Grupo 1180785" transform="translate(46.144 48.306)">
          <path id="Trazado_1039395" data-name="Trazado 1039395" d="M319.232,309.774a.912.912,0,0,1-.149-.013.823.823,0,0,1-.66-.955l.547-2.989-1.038-1.208a.821.821,0,0,1,1.248-1.067l1.292,1.505a.821.821,0,0,1,.184.681l-.617,3.375A.823.823,0,0,1,319.232,309.774Z" transform="translate(-317.735 -303.255)"/>
        </g>
        <g id="Grupo_1180786" data-name="Grupo 1180786" transform="translate(56.994 48.735)">
          <path id="Trazado_1039396" data-name="Trazado 1039396" d="M326.064,309.964a.917.917,0,0,1-.149-.013.82.82,0,0,1-.66-.955l.537-2.937-1.192-1.124a.821.821,0,1,1,1.128-1.193l1.515,1.432a.817.817,0,0,1,.243.744l-.617,3.375A.82.82,0,0,1,326.064,309.964Z" transform="translate(-324.344 -303.517)"/>
        </g>
      </g>
    </g>
    <g id="Grupo_1181078" data-name="Grupo 1181078" transform="translate(929.13 7876.635)">
      <g id="Grupo_1181047" data-name="Grupo 1181047" transform="translate(0 0)">
        <g transform="matrix(1, 0, 0, 1, -426.14, -212.17)" filter="url(#Trazado_1039553)">
          <path id="Trazado_1039553-2" data-name="Trazado 1039553" d="M561.82,229.573a76.007,76.007,0,0,1-14.91,45.388c-.444.625-.92,1.249-1.4,1.858a76.825,76.825,0,0,1-68.37,28.982c-1.726-.181-3.436-.427-5.129-.723-1.874-.329-3.715-.723-5.54-1.184-.345-.082-.707-.164-1.052-.263-.312-.082-.608-.164-.921-.247a71.121,71.121,0,0,1-7.661-2.6,75.545,75.545,0,0,1-13.907-7.266c-.789-.526-1.562-1.052-2.334-1.611q-.838-.567-1.628-1.184a75.763,75.763,0,0,1-7.3-6.28c-.74-.707-1.447-1.447-2.154-2.186a76.641,76.641,0,1,1,132.3-52.687Z" transform="translate(17.61 59.24)" fill="#ffe1b9"/>
        </g>
      </g>
      <g id="Grupo_1181048" data-name="Grupo 1181048" transform="translate(30.611 34.409)">
        <path id="Trazado_1039554" data-name="Trazado 1039554" d="M450.854,177.4s-8.387,7.453-9.107,15.02l-.72,7.567s-10.115,3.329-13.041,16.329c-3.97,17.647,7.447,23.93,7.447,23.93L523.7,251.366a29.934,29.934,0,0,0,8.017-25.06c-2.241-15.528-10.833-20.56-10.833-20.56a39.35,39.35,0,0,0-3.529-20.02A20.251,20.251,0,0,0,500.6,173.865Z" transform="translate(-427.147 -173.865)"/>
      </g>
      <g id="Grupo_1181049" data-name="Grupo 1181049" transform="translate(32.073 80.844)">
        <path id="Trazado_1039555" data-name="Trazado 1039555" d="M534.348,243.3c-.444.625-.921,1.249-1.4,1.858a76.824,76.824,0,0,1-68.37,28.982c-1.726-.181-3.436-.427-5.129-.723-1.874-.329-3.715-.723-5.54-1.184-.345-.082-.707-.164-1.052-.263a72.845,72.845,0,0,1-8.581-2.844,75.541,75.541,0,0,1-13.907-7.266c-.789-.526-1.562-1.052-2.334-1.611.1-1.364.181-2.088.181-2.088L441.3,216.878l1.282-4.077a10.822,10.822,0,0,1,4.406-5.819,10.227,10.227,0,0,1,3.551-1.512c2.4-.559,5.376-1.167,8.779-1.743,1.052-.148,2.121-.329,3.238-.477,3.518-.493,7.381-.871,11.359-1.052,2.4-.1,4.8-.115,7.217-.033,1.069.033,2.154.082,3.238.164,1.249.1,2.482.214,3.732.362,1.4.164,2.762.378,4.143.658a52.764,52.764,0,0,1,9.091,2.548c7.693,3.008,14.384,9.206,19.908,16.143A118.985,118.985,0,0,1,534.348,243.3Z" transform="translate(-428.036 -202.112)" fill="#f74d76"/>
      </g>
      <g id="Grupo_1181050" data-name="Grupo 1181050" transform="translate(62.266 77.185)">
        <path id="Trazado_1039556" data-name="Trazado 1039556" d="M472.786,199.886s5.676,1.861,7.4,4.5c1.93,2.962-1.678,10.759-11.946,16.824a57.418,57.418,0,0,1-13.834,6s-6.531-9.033-7.784-14.526,3.345-12.7,3.345-12.7Z" transform="translate(-446.402 -199.886)" fill="#80baff"/>
      </g>
      <g id="Grupo_1181051" data-name="Grupo 1181051" transform="translate(51.819 16.525)">
        <path id="Trazado_1039557" data-name="Trazado 1039557" d="M446.823,197.524S440,187.1,440.048,181.983s17.107-23.136,34.943-18.126,22.518,26.613,20.258,36.237c-5.819,24.78-27.565,17.376-27.565,17.376S434.232,212.979,446.823,197.524Z" transform="translate(-440.048 -162.986)"/>
      </g>
      <g id="Grupo_1181055" data-name="Grupo 1181055" transform="translate(65.77 69.993)">
        <g id="Grupo_1181054" data-name="Grupo 1181054">
          <g id="Grupo_1181053" data-name="Grupo 1181053">
            <g id="Grupo_1181052" data-name="Grupo 1181052">
              <path id="Trazado_1039558" data-name="Trazado 1039558" d="M448.534,202.353l.058.452,1.415,8.486,1.083,6.658s-.383,1.624,7.343.174c10.35-1.983,13.171-6.875,13.171-6.875l-1.458-15.737-3.091.986Z" transform="translate(-448.534 -195.511)" fill="#fc8165"/>
            </g>
          </g>
        </g>
      </g>
      <g id="Grupo_1181059" data-name="Grupo 1181059" transform="translate(65.827 71.012)">
        <g id="Grupo_1181058" data-name="Grupo 1181058">
          <g id="Grupo_1181057" data-name="Grupo 1181057">
            <g id="Grupo_1181056" data-name="Grupo 1181056">
              <path id="Trazado_1039559" data-name="Trazado 1039559" d="M448.569,202.406l1.415,8.486c5-1.231,13.962-4.547,16.722-12.979a6.591,6.591,0,0,0,.33-1.782l-18.453,6.142Z" transform="translate(-448.569 -196.131)"/>
            </g>
          </g>
        </g>
      </g>
      <g id="Grupo_1181063" data-name="Grupo 1181063" transform="translate(53.758 29.07)">
        <g id="Grupo_1181062" data-name="Grupo 1181062">
          <g id="Grupo_1181061" data-name="Grupo 1181061">
            <g id="Grupo_1181060" data-name="Grupo 1181060">
              <path id="Trazado_1039560" data-name="Trazado 1039560" d="M445.032,178.4s-7.011,23.395-2,35.451,16.145,8.713,22.655,5.474a22.685,22.685,0,0,0,9.163-7.794A9.663,9.663,0,0,0,485,206.488c3.534-6.426.092-12.895-3.725-14.009s-7.815,2.029-7.815,2.029l2.6-6.867S457.85,156.555,445.032,178.4Z" transform="translate(-441.227 -170.618)" fill="#fc8165"/>
            </g>
          </g>
        </g>
      </g>
      <g id="Grupo_1181064" data-name="Grupo 1181064" transform="translate(60.389 54.02)">
        <path id="Trazado_1039561" data-name="Trazado 1039561" d="M446.795,196.844a.822.822,0,0,1-.748-.48c-2.1-4.608.653-9.908.769-10.131a.823.823,0,0,1,1.455.768c-.026.048-2.489,4.82-.727,8.683a.823.823,0,0,1-.408,1.09A.867.867,0,0,1,446.795,196.844Z" transform="translate(-445.261 -185.795)"/>
      </g>
      <g id="Grupo_1181065" data-name="Grupo 1181065" transform="translate(87.359 54.557)">
        <path id="Trazado_1039562" data-name="Trazado 1039562" d="M462.489,194.927a.822.822,0,0,1-.664-1.305l5.21-7.163a.821.821,0,1,1,1.328.967l-5.21,7.163A.814.814,0,0,1,462.489,194.927Z" transform="translate(-461.667 -186.121)"/>
      </g>
      <g id="Grupo_1181066" data-name="Grupo 1181066" transform="translate(89.269 59.092)">
        <path id="Trazado_1039563" data-name="Trazado 1039563" d="M467.9,190.621l-4.273-.1a.822.822,0,0,1-.8-.84.842.842,0,0,1,.842-.8l4.253.1a.822.822,0,0,1-.02,1.644Z" transform="translate(-462.829 -188.88)"/>
      </g>
      <g id="Grupo_1181067" data-name="Grupo 1181067" transform="translate(63.068 64.461)">
        <path id="Trazado_1039564" data-name="Trazado 1039564" d="M450.805,200.977a2.5,2.5,0,0,1-.755-.118c-1.89-.6-2.985-3.293-3.1-3.6a.82.82,0,0,1,.409-1.037l8.31-4a.823.823,0,0,1,1.138,1c-.074.224-1.817,5.481-4.462,7.255A2.758,2.758,0,0,1,450.805,200.977Zm-2.009-3.623a4,4,0,0,0,1.749,1.937.948.948,0,0,0,.881-.179c1.226-.824,2.341-2.854,3.069-4.5Z" transform="translate(-446.891 -192.146)"/>
      </g>
      <g id="Grupo_1181068" data-name="Grupo 1181068" transform="translate(67.077 43.978)">
        <path id="Trazado_1039565" data-name="Trazado 1039565" d="M454.967,182.786a.82.82,0,0,1-.677-.357c-1.205-1.754-3.758-.9-3.868-.86a.822.822,0,0,1-.546-1.55c.158-.056,3.842-1.323,5.769,1.48a.821.821,0,0,1-.212,1.143A.81.81,0,0,1,454.967,182.786Z" transform="translate(-449.329 -179.686)"/>
      </g>
      <g id="Grupo_1181069" data-name="Grupo 1181069" transform="translate(53.939 43.7)">
        <path id="Trazado_1039566" data-name="Trazado 1039566" d="M442.159,182.808a.82.82,0,0,1-.618-1.361,5.748,5.748,0,0,1,3.7-1.93,3.488,3.488,0,0,1,2.637,1.269.821.821,0,1,1-1.226,1.093,1.842,1.842,0,0,0-1.4-.718,4.06,4.06,0,0,0-2.484,1.369A.824.824,0,0,1,442.159,182.808Z" transform="translate(-441.337 -179.517)"/>
      </g>
      <g id="Grupo_1181070" data-name="Grupo 1181070" transform="translate(54.552 25.487)">
        <path id="Trazado_1039567" data-name="Trazado 1039567" d="M473.151,195.909s-10.324-3.723-14.721-10.251-4.978-10.01-4.978-10.01-.833,4.758-4.227,6.288a27.272,27.272,0,0,1-5.574,1.933l-1.42,6.793-.521-15.7s8.918-6.342,10.2-6.5,17.818.663,18.877,1.516,7.764,12.757,7.764,12.757l1.08,5.625Z" transform="translate(-441.71 -168.438)"/>
      </g>
      <g id="Grupo_1181071" data-name="Grupo 1181071" transform="translate(65.021 78.298)">
        <path id="Trazado_1039568" data-name="Trazado 1039568" d="M471.211,200.563s-11.052,10.417-17.524,10.478-5.565-5.323-5.565-5.323l1.069,12.418,5.717,1.874,14.292-5.76,8.021-8.977Z" transform="translate(-448.078 -200.563)" fill="#80baff"/>
      </g>
      <g id="Grupo_1181072" data-name="Grupo 1181072" transform="translate(55.837 95.875)">
        <path id="Trazado_1039569" data-name="Trazado 1039569" d="M463.117,213.754a37.03,37.03,0,0,1,5.831,17.031c.985,10.4-5.053,22.091-5.053,22.091s-9.683-10.978-10.963-19.267,3.153-20.056,3.153-20.056-4.389,9.983-5.473,16.092-2.581,13.962-2.581,13.962-5.875-7.789-5.523-17.034,10.281-15.318,10.281-15.318Z" transform="translate(-442.492 -211.255)" fill="#80baff"/>
      </g>
      <g id="Grupo_1181073" data-name="Grupo 1181073" transform="translate(65.907 88.025)">
        <path id="Trazado_1039570" data-name="Trazado 1039570" d="M457.931,219.837a29.182,29.182,0,0,1-6.584-1.065c-.058-.018-.1-.033-.132-.048a.822.822,0,0,1-.408-.424c-.584-1.379-3.4-8.377-1.593-10.879a2.346,2.346,0,0,1,2.227-.929,2.739,2.739,0,0,1,2.213,1.32c1.453,2.387-.2,7.488-.988,9.605,1.874.45,5.121,1.065,6.63.633,1.583-.455,2.486-5.87,1.856-8.928a.823.823,0,1,1,1.613-.33c.561,2.731.2,9.911-3.012,10.838A6.937,6.937,0,0,1,457.931,219.837Zm-6.773-11.718a.655.655,0,0,0-.61.261c-.75,1.036,0,4.386,1,7.258.835-2.566,1.476-5.709.7-6.977a1.1,1.1,0,0,0-.942-.536C451.255,208.124,451.206,208.119,451.158,208.119Z" transform="translate(-448.617 -206.48)" fill="#fff"/>
      </g>
      <g id="Grupo_1181074" data-name="Grupo 1181074" transform="translate(72.021 100.071)">
        <path id="Trazado_1039571" data-name="Trazado 1039571" d="M455.229,229.208a2.294,2.294,0,0,1-1.841-.9c-2.295-2.857-.155-12.74.1-13.858a.821.821,0,0,1,1.573-.1c.667,1.836,3.9,11.139,1.953,13.939a2.088,2.088,0,0,1-1.772.919Zm-.727-11.294c-.589,3.723-.875,8.068.169,9.367a.663.663,0,0,0,.559.283.46.46,0,0,0,.434-.214C456.506,226.139,455.653,221.781,454.5,217.915Z" transform="translate(-452.337 -213.808)" fill="#fff"/>
      </g>
      <g id="Grupo_1181075" data-name="Grupo 1181075" transform="translate(20.993 85.089)">
        <path id="Trazado_1039572" data-name="Trazado 1039572" d="M456.278,270.056a71.112,71.112,0,0,1-7.661-2.6,75.541,75.541,0,0,1-13.907-7.266c-.789-.526-1.562-1.052-2.334-1.611q-.838-.567-1.627-1.184a75.746,75.746,0,0,1-7.3-6.28c-.74-.707-1.447-1.447-2.154-2.186,4.619-17.688,12.346-28.818,18.823-35.492a37.93,37.93,0,0,1,12.3-8.746c-.1.214-1.019.395-1.085.625a43.957,43.957,0,0,0-1.019,10.39C450.262,229.6,453.221,251.266,456.278,270.056Z" transform="translate(-421.296 -204.694)" fill="#f74d76"/>
      </g>
      <g id="Grupo_1181076" data-name="Grupo 1181076" transform="translate(67.222 49.095)">
        <path id="Trazado_1039573" data-name="Trazado 1039573" d="M452.5,189.9a.822.822,0,0,1-.822-.822V185.8l-1.948-1.53a.822.822,0,0,1,1.014-1.294l2.262,1.777a.821.821,0,0,1,.314.646v3.684A.819.819,0,0,1,452.5,189.9Z" transform="translate(-449.417 -182.799)"/>
      </g>
      <g id="Grupo_1181077" data-name="Grupo 1181077" transform="translate(54.723 49.095)">
        <path id="Trazado_1039574" data-name="Trazado 1039574" d="M444.9,189.9a.822.822,0,0,1-.822-.822V185.8l-1.946-1.53a.822.822,0,1,1,1.014-1.294l2.262,1.777a.821.821,0,0,1,.314.646v3.684A.822.822,0,0,1,444.9,189.9Z" transform="translate(-441.814 -182.799)"/>
      </g>
    </g>
    <g id="Grupo_1181293" data-name="Grupo 1181293" transform="translate(723.353 7670.46)">
      <g id="Grupo_1181257" data-name="Grupo 1181257" transform="translate(0 0)">
        <g transform="matrix(1, 0, 0, 1, -220.36, -6)" filter="url(#Trazado_1039687)">
          <path id="Trazado_1039687-2" data-name="Trazado 1039687" d="M441.421,228.116a76.352,76.352,0,0,1-7.233,32.533,72.291,72.291,0,0,1-5.162,9.222c-.329.526-.674,1.036-1.019,1.545a75.092,75.092,0,0,1-7.628,9.436,76.223,76.223,0,0,1-9.4,8.417l-1.332.986a76.123,76.123,0,0,1-16.9,9.222c-.049.016-.082.033-.132.049-.312.132-.625.247-.921.362a75.991,75.991,0,0,1-9.814,2.959c-.559.115-1.1.23-1.66.345a75.757,75.757,0,0,1-15.436,1.562c-1.036,0-2.055-.016-3.074-.066-.181,0-.345-.016-.51-.016-1.907-.082-3.814-.247-5.671-.477-.608-.066-1.216-.148-1.808-.23a75.776,75.776,0,0,1-21.568-6.493c-.625-.279-1.233-.592-1.841-.9-1.562-.773-3.074-1.611-4.57-2.5-1.068-.625-2.1-1.282-3.14-1.956-1.759-1.151-3.452-2.367-5.1-3.666-.329-.263-.658-.51-.97-.789-.641-.493-1.249-1.019-1.858-1.545-.493-.411-.97-.838-1.43-1.266a76.322,76.322,0,0,1-11.9-13.694c-.082-.115-.164-.23-.247-.362-.181-.263-.345-.526-.51-.789a76.648,76.648,0,1,1,140.834-41.887Z" transform="translate(-67.76 -145.46)" fill="#ffe1b9"/>
        </g>
      </g>
      <g id="Grupo_1181258" data-name="Grupo 1181258" transform="translate(41.044 65.699)">
        <path id="Trazado_1039688" data-name="Trazado 1039688" d="M319.849,198.813c0,4.08-1.512,7.388-3.378,7.388s-3.378-3.308-3.378-7.388,1.512-7.388,3.378-7.388S319.849,194.733,319.849,198.813Z" transform="translate(-313.093 -191.425)" fill="#f74d76"/>
      </g>
      <g id="Grupo_1181259" data-name="Grupo 1181259" transform="translate(56.698 21.184)">
        <path id="Trazado_1039689" data-name="Trazado 1039689" d="M328.427,179.143s11.266-22.786,30.306-11.8,3.094,33.2,31.87,39.069c14.983,3.054,24.348,15.44,20.491,29.972-3.748,14.123-20.445,14.808-20.445,14.808s-18.234,26.173-39.056,18.453-30.508-20-28.782-39.668S328.427,179.143,328.427,179.143Z" transform="translate(-322.616 -164.346)"/>
      </g>
      <g id="Grupo_1181260" data-name="Grupo 1181260" transform="translate(39.128 19.844)">
        <path id="Trazado_1039690" data-name="Trazado 1039690" d="M315,199.756s-12.112-17.177,11.731-31.175,41.619,4.5,41.959,14.565-5.326,14.813-5.326,14.813,2.541,21.787-18.441,20.578S315,199.756,315,199.756Z" transform="translate(-311.928 -163.531)"/>
      </g>
      <g id="Grupo_1181262" data-name="Grupo 1181262" transform="translate(51.094 71.319)">
        <g id="Grupo_1181261" data-name="Grupo 1181261">
          <path id="Trazado_1039691" data-name="Trazado 1039691" d="M342.2,194.844l.687,17.621s-2.98,5.19-13.257,6.429c-7.656.924-10.421-.707-10.421-.707l.723-8.966.717-8.744,18.455-4.82Z" transform="translate(-319.207 -194.844)" fill="#fca397"/>
        </g>
      </g>
      <g id="Grupo_1181264" data-name="Grupo 1181264" transform="translate(51.818 70.481)">
        <g id="Grupo_1181263" data-name="Grupo 1181263">
          <path id="Trazado_1039692" data-name="Trazado 1039692" d="M341.85,194.334a5.8,5.8,0,0,1-.445,1.721c-3.6,8.956-17.338,12.924-21.757,13.495l.717-8.744Z" transform="translate(-319.647 -194.334)"/>
        </g>
      </g>
      <g id="Grupo_1181266" data-name="Grupo 1181266" transform="translate(41.635 29.993)">
        <g id="Grupo_1181265" data-name="Grupo 1181265">
          <path id="Trazado_1039693" data-name="Trazado 1039693" d="M318.857,176.65s-8.387,22.454-4.264,34.586,15.244,9.582,21.831,6.834a22.254,22.254,0,0,0,9.48-7.038,9.483,9.483,0,0,0,10.268-4.277c3.878-6.063.929-12.622-2.737-13.962s-7.786,1.478-7.786,1.478l2.992-6.556S332.83,156.093,318.857,176.65Z" transform="translate(-313.453 -169.705)" fill="#fca397"/>
        </g>
      </g>
      <g id="Grupo_1181267" data-name="Grupo 1181267" transform="translate(47.992 51.048)">
        <path id="Trazado_1039694" data-name="Trazado 1039694" d="M318.481,195.174a.821.821,0,0,1-.807-.677c-1.338-7.47,1.539-11.483,1.662-11.65a.821.821,0,0,1,1.323.972c-.051.072-2.566,3.7-1.368,10.388a.822.822,0,0,1-.664.955A.858.858,0,0,1,318.481,195.174Z" transform="translate(-317.32 -182.513)"/>
      </g>
      <g id="Grupo_1181268" data-name="Grupo 1181268" transform="translate(73.606 57.263)">
        <path id="Trazado_1039695" data-name="Trazado 1039695" d="M333.725,192.625a.822.822,0,0,1-.4-1.542l8.524-4.688a.822.822,0,1,1,.794,1.44l-8.524,4.688A.818.818,0,0,1,333.725,192.625Z" transform="translate(-332.901 -186.293)"/>
      </g>
      <g id="Grupo_1181269" data-name="Grupo 1181269" transform="translate(77.443 59.84)">
        <path id="Trazado_1039696" data-name="Trazado 1039696" d="M340.244,193.054a.817.817,0,0,1-.531-.2l-4.187-3.549a.822.822,0,1,1,1.062-1.254l4.187,3.549a.822.822,0,0,1-.531,1.45Z" transform="translate(-335.235 -187.861)"/>
      </g>
      <g id="Grupo_1181270" data-name="Grupo 1181270" transform="translate(41.868 25.55)">
        <path id="Trazado_1039697" data-name="Trazado 1039697" d="M313.931,197.521s1.274-6.8,7.669-14.618l6.393-7.814s.275,13.847,6.9,19.324,10.669,1.6,10.669,1.6l11.027-11.258L334.093,167S310.529,167.9,313.931,197.521Z" transform="translate(-313.595 -167.002)"/>
      </g>
      <g id="Grupo_1181271" data-name="Grupo 1181271" transform="translate(24.574 88.68)">
        <path id="Trazado_1039698" data-name="Trazado 1039698" d="M382.988,264.8c-.312.132-.625.247-.921.362a76.169,76.169,0,0,1-26.911,4.866c-1.2,0-2.4-.033-3.584-.082a76.187,76.187,0,0,1-38.6-12.559c-1.759-1.151-3.452-2.367-5.1-3.666-1.463-1.151-2.893-2.351-4.258-3.6-.214-1.874-.378-3.913-.493-6.082-.46-8.154,2.2-16.127,5.162-22.259a25.339,25.339,0,0,1,17.425-13.743l5.145-1.118s37.728-3.288,44.583-.164a.529.529,0,0,0,.1.033c.608.3.937.641.97,1.052C376.823,211.9,380.16,240.6,382.988,264.8Z" transform="translate(-303.074 -205.405)" fill="#ada4f7"/>
      </g>
      <g id="Grupo_1181272" data-name="Grupo 1181272" transform="translate(73.581 90.027)">
        <path id="Trazado_1039699" data-name="Trazado 1039699" d="M400.2,234.614c-.329.526-.674,1.036-1.019,1.545a75.089,75.089,0,0,1-7.628,9.436,76.43,76.43,0,0,1-27.634,18.625c-.049.016-.082.033-.132.049-.312.132-.625.247-.921.362A76.17,76.17,0,0,1,335.96,269.5c-1.036,0-2.055-.016-3.074-.066l23.36-63.208a.53.53,0,0,0,.1.033C357.841,206.832,386.247,211.994,400.2,234.614Z" transform="translate(-332.886 -206.224)" fill="#ada4f7"/>
      </g>
      <g id="Grupo_1181273" data-name="Grupo 1181273" transform="translate(44.87 87.551)">
        <path id="Trazado_1039700" data-name="Trazado 1039700" d="M322.084,206.367l-6.638,2.615s-1.281,13.189,14.364,12.8c16.421-.409,28.288-15.865,28.288-15.865l-14.46-1.2Z" transform="translate(-315.421 -204.718)" fill="#fca397"/>
      </g>
      <g id="Grupo_1181274" data-name="Grupo 1181274" transform="translate(44.058 87.928)">
        <path id="Trazado_1039701" data-name="Trazado 1039701" d="M329.4,222.468c-4.7,0-8.353-1.271-10.87-3.794-4-4.013-3.6-9.666-3.58-9.9a.834.834,0,0,1,.883-.753.822.822,0,0,1,.755.883c0,.051-.353,5.16,3.117,8.626,2.55,2.546,6.526,3.62,11.823,3.214,16.373-1.284,26.118-15.293,26.214-15.435a.822.822,0,0,1,1.358.927c-.413.6-10.293,14.8-27.444,16.143Q330.488,222.468,329.4,222.468Z" transform="translate(-314.927 -204.947)" fill="#fff"/>
      </g>
      <g id="Grupo_1181275" data-name="Grupo 1181275" transform="translate(53.9 64.751)">
        <path id="Trazado_1039702" data-name="Trazado 1039702" d="M321.736,196.07a.822.822,0,0,1-.279-1.595,7.667,7.667,0,0,0,3.561-3.214.822.822,0,0,1,1.427.817,9.181,9.181,0,0,1-4.429,3.944A.839.839,0,0,1,321.736,196.07Z" transform="translate(-320.913 -190.849)"/>
      </g>
      <g id="Grupo_1181276" data-name="Grupo 1181276" transform="translate(79.82 19.891)">
        <path id="Trazado_1039703" data-name="Trazado 1039703" d="M352.461,188.572a.826.826,0,0,1-.822-.838c.327-17.176-13.806-22.364-14.409-22.576a.822.822,0,0,1,.544-1.552,25.015,25.015,0,0,1,15.509,24.159A.82.82,0,0,1,352.461,188.572Z" transform="translate(-336.681 -163.56)" fill="#ffaf45"/>
      </g>
      <g id="Grupo_1181277" data-name="Grupo 1181277" transform="translate(12.461 93.216)">
        <path id="Trazado_1039704" data-name="Trazado 1039704" d="M324.869,208.164c0,.016-4.011,49.4-4.011,49.4-1.069-.625-2.1-1.282-3.14-1.956-1.759-1.151-3.452-2.367-5.1-3.666-1.463-1.151-2.893-2.351-4.258-3.6a76.323,76.323,0,0,1-11.9-13.694c-.082-.115-.164-.23-.247-.362-.181-.263-.345-.526-.51-.789a120.752,120.752,0,0,1,13.086-13.924C320.135,209.644,324.869,208.164,324.869,208.164Z" transform="translate(-295.706 -208.164)" fill="#ada4f7"/>
      </g>
      <g id="Grupo_1181279" data-name="Grupo 1181279" transform="translate(26.205 102.324)">
        <g id="Grupo_1181278" data-name="Grupo 1181278">
          <path id="Trazado_1039705" data-name="Trazado 1039705" d="M314.028,215.1c-.115.115-10.751,11.146-7.759,32.484-.641-.493-1.249-1.019-1.858-1.545-2.334-20.976,7.957-31.612,8.45-32.089a.814.814,0,0,1,1.167,0A.824.824,0,0,1,314.028,215.1Z" transform="translate(-304.067 -213.704)" fill="#fff"/>
        </g>
      </g>
      <g id="Grupo_1181280" data-name="Grupo 1181280" transform="translate(43.601 43.574)">
        <path id="Trazado_1039706" data-name="Trazado 1039706" d="M315.47,180.575a.822.822,0,0,1-.181-1.624l4.24-.963a.823.823,0,0,1,.363,1.6l-4.24.963A.887.887,0,0,1,315.47,180.575Z" transform="translate(-314.648 -177.966)"/>
      </g>
      <g id="Grupo_1181281" data-name="Grupo 1181281" transform="translate(54.59 43.382)">
        <path id="Trazado_1039707" data-name="Trazado 1039707" d="M327.29,181.2a.84.84,0,0,1-.26-.041l-5.136-1.71a.822.822,0,1,1,.521-1.56l5.136,1.711a.821.821,0,0,1-.261,1.6Z" transform="translate(-321.333 -177.85)"/>
      </g>
      <g id="Grupo_1181282" data-name="Grupo 1181282" transform="translate(44.346 47.66)">
        <path id="Trazado_1039708" data-name="Trazado 1039708" d="M316.643,187.278a.779.779,0,0,1-.15-.013.821.821,0,0,1-.661-.955l.584-3.2-1.116-1.3a.823.823,0,0,1,1.249-1.07l1.371,1.6a.825.825,0,0,1,.184.684l-.654,3.585A.822.822,0,0,1,316.643,187.278Z" transform="translate(-315.102 -180.452)"/>
      </g>
      <g id="Grupo_1181283" data-name="Grupo 1181283" transform="translate(55.878 48.113)">
        <path id="Trazado_1039709" data-name="Trazado 1039709" d="M323.892,187.481a.771.771,0,0,1-.15-.013.823.823,0,0,1-.661-.957l.577-3.148-1.286-1.216a.822.822,0,0,1,1.129-1.2l1.609,1.522a.819.819,0,0,1,.243.745L324.7,186.8A.824.824,0,0,1,323.892,187.481Z" transform="translate(-322.117 -180.728)"/>
      </g>
      <g id="Grupo_1181284" data-name="Grupo 1181284" transform="translate(75.696 66.25)">
        <path id="Trazado_1039710" data-name="Trazado 1039710" d="M340.928,199.148c0,4.08-1.512,7.388-3.378,7.388s-3.378-3.308-3.378-7.388,1.512-7.388,3.378-7.388S340.928,195.068,340.928,199.148Z" transform="translate(-334.172 -191.76)" fill="#f74d76"/>
      </g>
      <g id="Grupo_1181286" data-name="Grupo 1181286" transform="translate(41.029 99.344)">
        <g id="Grupo_1181285" data-name="Grupo 1181285">
          <path id="Trazado_1039711" data-name="Trazado 1039711" d="M320.189,213.007c-.1.247-8.746,24.1-4.11,45.553-.625-.279-1.233-.592-1.841-.9-4.176-21.6,4.323-44.961,4.406-45.224a.83.83,0,0,1,1.052-.493A.848.848,0,0,1,320.189,213.007Z" transform="translate(-313.084 -211.892)" fill="#fff"/>
        </g>
      </g>
      <g id="Grupo_1181288" data-name="Grupo 1181288" transform="translate(61.66 103.808)">
        <g id="Grupo_1181287" data-name="Grupo 1181287">
          <path id="Trazado_1039712" data-name="Trazado 1039712" d="M331.375,263.535c-.608-.066-1.216-.148-1.808-.23-1.956-6.658-5.08-21.93-3.5-47.936a.784.784,0,0,1,.871-.756.8.8,0,0,1,.773.855C326.114,242,329.533,257.419,331.375,263.535Z" transform="translate(-325.634 -214.607)" fill="#fff"/>
        </g>
      </g>
      <g id="Grupo_1181290" data-name="Grupo 1181290" transform="translate(73.19 99.706)">
        <g id="Grupo_1181289" data-name="Grupo 1181289">
          <path id="Trazado_1039713" data-name="Trazado 1039713" d="M353.21,263.793c-.559.115-1.1.23-1.66.345-4.882-8.778-14.746-28.522-18.889-51.06a.827.827,0,0,1,1.627-.3C338.464,235.5,348.492,255.344,353.21,263.793Z" transform="translate(-332.648 -212.112)" fill="#fff"/>
        </g>
      </g>
      <g id="Grupo_1181292" data-name="Grupo 1181292" transform="translate(81.855 94.03)">
        <g id="Grupo_1181291" data-name="Grupo 1181291">
          <path id="Trazado_1039714" data-name="Trazado 1039714" d="M378.913,252.438l-1.332.986c-4.981-9.962-16-31.469-39.207-43.209a.82.82,0,1,1,.74-1.463C362.507,220.572,373.751,242.164,378.913,252.438Z" transform="translate(-337.919 -208.659)" fill="#fff"/>
        </g>
      </g>
    </g>
    <g id="Grupo_1180979" data-name="Grupo 1180979" transform="translate(931.603 7670.46)">
      <g id="Grupo_1180945" data-name="Grupo 1180945" transform="translate(0 0)">
        <g transform="matrix(1, 0, 0, 1, -428.61, -6)" filter="url(#Trazado_1039484)">
          <path id="Trazado_1039484-2" data-name="Trazado 1039484" d="M308.525,227.389a74.175,74.175,0,1,1-74.175-74.175A74,74,0,0,1,308.525,227.389Z" transform="translate(268.44 -147.21)" fill="#ffe1b9"/>
        </g>
      </g>
      <g id="Grupo_1180949" data-name="Grupo 1180949" transform="translate(81.551 51.953)">
        <g id="Grupo_1180948" data-name="Grupo 1180948">
          <g id="Grupo_1180947" data-name="Grupo 1180947">
            <g id="Grupo_1180946" data-name="Grupo 1180946">
              <path id="Trazado_1039485" data-name="Trazado 1039485" d="M211.432,187.561s11.958-5.663,13.269,3.717c1.519,10.865-11.513,11.471-11.513,11.471Z" transform="translate(-211.432 -185.867)" fill="#fc907e"/>
            </g>
          </g>
        </g>
      </g>
      <g id="Grupo_1180950" data-name="Grupo 1180950" transform="translate(87.163 54.606)">
        <path id="Trazado_1039486" data-name="Trazado 1039486" d="M215.754,196.238a.783.783,0,0,1-.372-.094.8.8,0,0,1-.329-1.076l3.788-7.114a.8.8,0,0,1,1.4.748l-3.788,7.114A.791.791,0,0,1,215.754,196.238Z" transform="translate(-214.96 -187.535)"/>
      </g>
      <g id="Grupo_1180951" data-name="Grupo 1180951" transform="translate(88.33 59.449)">
        <path id="Trazado_1039487" data-name="Trazado 1039487" d="M216.489,192.246a.8.8,0,0,1-.017-1.591l3.472-.076a.839.839,0,0,1,.813.778.8.8,0,0,1-.778.813l-3.472.076Z" transform="translate(-215.693 -190.579)"/>
      </g>
      <g id="Grupo_1180952" data-name="Grupo 1180952" transform="translate(18.186 87.618)">
        <path id="Trazado_1039488" data-name="Trazado 1039488" d="M290.919,233.5a74.118,74.118,0,0,1-17.8,19.888c-.461.382-.923.732-1.4,1.066a74.252,74.252,0,0,1-72.138,9.085c-.493-.207-.986-.414-1.48-.636a74.11,74.11,0,0,1-26.491-19.427c2.975-9.244,8.528-18.027,18.424-23.6,25.266-14.208,63.1-14.208,79.934-6.221C280.306,218.562,287.132,227.345,290.919,233.5Z" transform="translate(-171.606 -208.284)" fill="#8758e7"/>
      </g>
      <g id="Grupo_1180953" data-name="Grupo 1180953" transform="translate(41.628 14.825)">
        <path id="Trazado_1039489" data-name="Trazado 1039489" d="M231.168,190.568s7.9-12.747,6.308-18.189-8.713-.108-8.713-.108-1.62-11.721-10.35-9.446c-11.621,3.029-23.164,23.5-23.164,23.5s-5.919-1.486-7.92,3.7c-2.331,6.04-.286,12.816,3.446,18.843s13.841,1.056,13.841,1.056Z" transform="translate(-186.34 -162.532)"/>
      </g>
      <g id="Grupo_1180957" data-name="Grupo 1180957" transform="translate(61.923 74.229)">
        <g id="Grupo_1180956" data-name="Grupo 1180956">
          <g id="Grupo_1180955" data-name="Grupo 1180955">
            <g id="Grupo_1180954" data-name="Grupo 1180954">
              <path id="Trazado_1039490" data-name="Trazado 1039490" d="M199.1,205.4l.422,13.961a26.317,26.317,0,0,0,11.5,2.563c8.546-.186,11.295-3.946,11.295-3.946l-.756-18.111Z" transform="translate(-199.096 -199.868)" fill="#fc907e"/>
            </g>
          </g>
        </g>
      </g>
      <g id="Grupo_1180961" data-name="Grupo 1180961" transform="translate(61.917 75.629)">
        <g id="Grupo_1180960" data-name="Grupo 1180960">
          <g id="Grupo_1180959" data-name="Grupo 1180959">
            <g id="Grupo_1180958" data-name="Grupo 1180958">
              <path id="Trazado_1039491" data-name="Trazado 1039491" d="M199.092,204.552s5.4,10.493,15.04,8.668c7.769-1.47,7.451-12.472,7.451-12.472Z" transform="translate(-199.092 -200.748)"/>
            </g>
          </g>
        </g>
      </g>
      <g id="Grupo_1180965" data-name="Grupo 1180965" transform="translate(44.196 33.185)">
        <g id="Grupo_1180964" data-name="Grupo 1180964">
          <g id="Grupo_1180963" data-name="Grupo 1180963">
            <g id="Grupo_1180962" data-name="Grupo 1180962">
              <path id="Trazado_1039492" data-name="Trazado 1039492" d="M230.214,183.747s4.275,24.279-.053,33.77c-4.854,10.647-17.28,9.222-21.735,6.063a26.882,26.882,0,0,1-8.6-11.148s-7.96,1.909-10.889-4.53c-3.076-6.762,1.7-12.5,5.7-12.985s4.5.229,4.5.229l-1.462-7.293S221.014,159.8,230.214,183.747Z" transform="translate(-187.954 -174.072)" fill="#fc907e"/>
            </g>
          </g>
        </g>
      </g>
      <g id="Grupo_1180966" data-name="Grupo 1180966" transform="translate(52.216 30.374)">
        <path id="Trazado_1039493" data-name="Trazado 1039493" d="M196.157,196.19s5.2.185,11.072-4.485c6.888-5.478,5.8-14.52,5.8-14.52s12.537,7.188,15.653,16.663,3.071-22.677-10.8-21.513S185.514,182.555,196.157,196.19Z" transform="translate(-192.995 -172.305)"/>
      </g>
      <g id="Grupo_1180967" data-name="Grupo 1180967" transform="translate(47.252 58.315)">
        <path id="Trazado_1039494" data-name="Trazado 1039494" d="M197.067,196.526a.792.792,0,0,1-.493-.172l-6.4-5.069a.8.8,0,0,1,.99-1.249l6.4,5.069a.8.8,0,0,1-.495,1.421Z" transform="translate(-189.875 -189.866)"/>
      </g>
      <g id="Grupo_1180968" data-name="Grupo 1180968" transform="translate(47.97 61.695)">
        <path id="Trazado_1039495" data-name="Trazado 1039495" d="M191.122,196.47a.8.8,0,0,1-.5-1.413l3.548-2.889a.8.8,0,0,1,1.006,1.235l-3.548,2.889A.794.794,0,0,1,191.122,196.47Z" transform="translate(-190.326 -191.99)"/>
      </g>
      <g id="Grupo_1180969" data-name="Grupo 1180969" transform="translate(66.532 52.348)">
        <path id="Trazado_1039496" data-name="Trazado 1039496" d="M203.169,191.629a.8.8,0,0,1-.791-.719L202,186.988a.8.8,0,0,1,1.583-.154l.382,3.922a.8.8,0,0,1-.714.869A.637.637,0,0,1,203.169,191.629Z" transform="translate(-201.993 -186.116)"/>
      </g>
      <g id="Grupo_1180970" data-name="Grupo 1180970" transform="translate(81.808 51.775)">
        <path id="Trazado_1039497" data-name="Trazado 1039497" d="M212.77,191.268a.8.8,0,0,1-.791-.719l-.382-3.922a.8.8,0,0,1,.714-.869.808.808,0,0,1,.869.714l.382,3.922a.8.8,0,0,1-.714.869A.649.649,0,0,1,212.77,191.268Z" transform="translate(-211.594 -185.756)"/>
      </g>
      <g id="Grupo_1180971" data-name="Grupo 1180971" transform="translate(75.362 54.406)">
        <path id="Trazado_1039498" data-name="Trazado 1039498" d="M209.567,200.008a.813.813,0,0,1-.124-.01.8.8,0,0,1-.662-.91,20.651,20.651,0,0,0-1.169-10.558.8.8,0,0,1,1.454-.649,22,22,0,0,1,1.289,11.456A.8.8,0,0,1,209.567,200.008Z" transform="translate(-207.542 -187.409)"/>
      </g>
      <g id="Grupo_1180972" data-name="Grupo 1180972" transform="translate(79.324 46.373)">
        <path id="Trazado_1039499" data-name="Trazado 1039499" d="M215.034,185.066a.8.8,0,0,1-.5-.175,6.41,6.41,0,0,0-3.667-.936.8.8,0,0,1-.084-1.589,7.927,7.927,0,0,1,4.748,1.286.794.794,0,0,1-.5,1.414Z" transform="translate(-210.032 -182.36)"/>
      </g>
      <g id="Grupo_1180973" data-name="Grupo 1180973" transform="translate(65.618 47.036)">
        <path id="Trazado_1039500" data-name="Trazado 1039500" d="M202.213,185.416a.8.8,0,0,1-.488-1.424,7.922,7.922,0,0,1,4.77-1.2.8.8,0,0,1-.111,1.586,6.358,6.358,0,0,0-3.682.873A.8.8,0,0,1,202.213,185.416Z" transform="translate(-201.418 -182.777)"/>
      </g>
      <g id="Grupo_1180974" data-name="Grupo 1180974" transform="translate(52.24 49.146)">
        <path id="Trazado_1039501" data-name="Trazado 1039501" d="M194.3,189.328s2.8,7.107,3.723,6.778-1.09-11.634-3.823-11.987S194.3,189.328,194.3,189.328Z" transform="translate(-193.009 -184.103)"/>
      </g>
      <g id="Grupo_1180975" data-name="Grupo 1180975" transform="translate(60.757 90.772)">
        <path id="Trazado_1039502" data-name="Trazado 1039502" d="M205.244,224.986c-.237,0-.477-.011-.724-.032a5.456,5.456,0,0,1-3.863-2c-2.821-3.365-2.258-9.8-2.232-10.071a.8.8,0,0,1,1.193-.613c.143.083,14.393,8.21,23.229-1.737a.774.774,0,0,1,.644-.266.8.8,0,0,1,.606.345c.334.488,3.252,4.861,2.628,7.8a2.955,2.955,0,0,1-1.37,1.982c-2.92,1.8-8.977-.959-11.207-2.094C213.209,220.261,210.407,224.985,205.244,224.986Zm-5.287-10.752c-.022,1.909.181,5.632,1.919,7.7a3.871,3.871,0,0,0,2.775,1.432c5.306.422,7.981-5.51,8.326-6.35A27.564,27.564,0,0,1,199.957,214.234Zm14.762,2.576c3.042,1.575,7.943,3.381,9.8,2.232a1.387,1.387,0,0,0,.651-.958c.336-1.585-.939-4.194-1.854-5.733A15.611,15.611,0,0,1,214.719,216.81Z" transform="translate(-198.363 -210.266)" fill="#ffaf45"/>
      </g>
      <g id="Grupo_1180976" data-name="Grupo 1180976" transform="translate(70.449 69.657)">
        <path id="Trazado_1039503" data-name="Trazado 1039503" d="M208.5,200.464a4.182,4.182,0,0,1-3.987-2.375.795.795,0,0,1,1.47-.6c.092.213.972,2.006,3.963,1.173a.8.8,0,0,1,.428,1.532A6.954,6.954,0,0,1,208.5,200.464Z" transform="translate(-204.454 -196.995)"/>
      </g>
      <g id="Grupo_1180978" data-name="Grupo 1180978" transform="translate(44.677 132.489)">
        <g id="Grupo_1180977" data-name="Grupo 1180977">
          <path id="Trazado_1039504" data-name="Trazado 1039504" d="M191.534,237.438l-1.8,9.435c-.493-.207-.986-.414-1.48-.636l1.734-9.1a.8.8,0,0,1,.939-.636A.777.777,0,0,1,191.534,237.438Z" transform="translate(-188.256 -236.486)" fill="#ffaf45"/>
        </g>
      </g>
    </g>
  </g>
</svg>
