<svg xmlns="http://www.w3.org/2000/svg" xmlns:xlink="http://www.w3.org/1999/xlink" width="93.656" height="93.656" viewBox="0 0 93.656 93.656">
  <defs>
    <filter id="Trazado_982547" x="0" y="0" width="93.656" height="93.656" filterUnits="userSpaceOnUse">
      <feOffset dy="3" input="SourceAlpha"/>
      <feGaussianBlur stdDeviation="3" result="blur"/>
      <feFlood flood-opacity="0.161"/>
      <feComposite operator="in" in2="blur"/>
      <feComposite in="SourceGraphic"/>
    </filter>
  </defs>
  <g id="Grupo_1182241" data-name="Grupo 1182241" transform="translate(-1305 -1797)">
    <g id="Grupo_1180318" data-name="Grupo 1180318" transform="translate(474.539 -5993)">
      <g id="Grupo_1180312" data-name="Grupo 1180312">
        <g id="Grupo_1174895" data-name="Grupo 1174895" transform="translate(641.291 2507.168)">
          <g id="Grupo_1172067" data-name="Grupo 1172067" transform="translate(198.17 5288.832)">
            <g id="Grupo_1164308" data-name="Grupo 1164308" transform="translate(0 0)">
              <g id="Grupo_1163948" data-name="Grupo 1163948" transform="translate(0)">
                <g id="Grupo_1158168" data-name="Grupo 1158168" transform="translate(0)">
                  <g id="Grupo_1152576" data-name="Grupo 1152576">
                    <g id="Grupo_1148633" data-name="Grupo 1148633">
                      <g id="Grupo_1148525" data-name="Grupo 1148525">
                        <g transform="matrix(1, 0, 0, 1, -9, -6)" filter="url(#Trazado_982547)">
                          <g id="Trazado_982547-2" data-name="Trazado 982547" transform="translate(9 6)" fill="#e9f9fd">
                            <path d="M 37.8281364440918 74.15627288818359 C 32.92320251464844 74.15627288818359 28.16579246520996 73.19596862792969 23.68804740905762 71.30204772949219 C 19.36230278015137 69.47240447998047 15.47705841064453 66.85280609130859 12.1402702331543 63.51601409912109 C 8.803469657897949 60.17921447753906 6.1838698387146 56.29397964477539 4.354236602783203 51.96822357177734 C 2.460303068161011 47.49048233032227 1.500003099441528 42.73307037353516 1.500003099441528 37.8281364440918 C 1.500003099441528 32.92321395874023 2.460303068161011 28.16579246520996 4.354236602783203 23.68804740905762 C 6.1838698387146 19.36230278015137 8.803469657897949 15.47706985473633 12.1402702331543 12.1402702331543 C 15.47706985473633 8.803469657897949 19.36230278015137 6.1838698387146 23.68804740905762 4.354236602783203 C 28.16579246520996 2.460303068161011 32.92321395874023 1.500003099441528 37.8281364440918 1.500003099441528 C 42.73307037353516 1.500003099441528 47.49048233032227 2.460303068161011 51.96822357177734 4.354236602783203 C 56.29397964477539 6.1838698387146 60.17921447753906 8.803469657897949 63.51601409912109 12.1402702331543 C 66.85280609130859 15.47705841064453 69.47240447998047 19.36230278015137 71.30204772949219 23.68804740905762 C 73.19596862792969 28.16579246520996 74.15627288818359 32.92320251464844 74.15627288818359 37.8281364440918 C 74.15627288818359 42.73307037353516 73.19596862792969 47.49048233032227 71.30204772949219 51.96822357177734 C 69.47240447998047 56.29397964477539 66.85280609130859 60.17921447753906 63.51601409912109 63.51601409912109 C 60.17921447753906 66.85280609130859 56.29397964477539 69.47240447998047 51.96822357177734 71.30204772949219 C 47.49048233032227 73.19596862792969 42.73307037353516 74.15627288818359 37.8281364440918 74.15627288818359 Z" stroke="none"/>
                            <path d="M 37.8281364440918 3 C 33.12504959106445 3 28.56423568725586 3.920433044433594 24.27237319946289 5.735733032226562 C 20.12542343139648 7.48974609375 16.40044784545898 10.00139617919922 13.20092391967773 13.20092391967773 C 10.00139617919922 16.40044784545898 7.48974609375 20.12542343139648 5.735733032226562 24.27237319946289 C 3.920433044433594 28.56423568725586 3 33.12504959106445 3 37.8281364440918 C 3 42.53122329711914 3.920433044433594 47.09203720092773 5.735733032226562 51.3838996887207 C 7.48974609375 55.53084945678711 10.00139617919922 59.25582122802734 13.20092391967773 62.45534896850586 C 16.40044784545898 65.65487670898438 20.12542343139648 68.16652679443359 24.27237319946289 69.92053985595703 C 28.56423568725586 71.73583984375 33.12504959106445 72.65627288818359 37.8281364440918 72.65627288818359 C 42.53122329711914 72.65627288818359 47.09203720092773 71.73583984375 51.3838996887207 69.92053985595703 C 55.53084945678711 68.16652679443359 59.25582122802734 65.65487670898438 62.45534896850586 62.45534896850586 C 65.65487670898438 59.25582122802734 68.16652679443359 55.53084945678711 69.92053985595703 51.3838996887207 C 71.73583984375 47.09203720092773 72.65627288818359 42.53122329711914 72.65627288818359 37.8281364440918 C 72.65627288818359 33.12504959106445 71.73583984375 28.56423568725586 69.92053985595703 24.27237319946289 C 68.16652679443359 20.12542343139648 65.65487670898438 16.40044784545898 62.45534896850586 13.20092391967773 C 59.25582122802734 10.00139617919922 55.53084945678711 7.48974609375 51.3838996887207 5.735733032226562 C 47.09203720092773 3.920433044433594 42.53122329711914 3 37.8281364440918 3 M 37.8281364440918 0 C 58.72003555297852 0 75.65627288818359 16.93623733520508 75.65627288818359 37.8281364440918 C 75.65627288818359 58.72003555297852 58.72003555297852 75.65627288818359 37.8281364440918 75.65627288818359 C 16.93623733520508 75.65627288818359 0 58.72003555297852 0 37.8281364440918 C 0 16.93623733520508 16.93623733520508 0 37.8281364440918 0 Z" stroke="none" fill="#1d7083"/>
                          </g>
                        </g>
                      </g>
                    </g>
                  </g>
                </g>
              </g>
            </g>
          </g>
        </g>
      </g>
    </g>
    <g id="organizacion_1_" data-name="organizacion (1)" transform="translate(1325 1816.001)">
      <path id="Trazado_1041972" data-name="Trazado 1041972" d="M88,269.282,96.8,264l8.8,5.278v8.8l-8.8,5.278L88,278.078Zm0,0" transform="translate(-78.324 -234.976)" fill="#60a2d7"/>
      <path id="Trazado_1041973" data-name="Trazado 1041973" d="M248,269.282,256.8,264l8.8,5.278v8.8l-8.8,5.278-8.8-5.278Zm0,0" transform="translate(-220.732 -234.976)" fill="#f6a7bd"/>
      <path id="Trazado_1041974" data-name="Trazado 1041974" d="M88,13.282,96.8,8l8.8,5.278v8.8l-8.8,5.278L88,22.078Zm0,0" transform="translate(-78.324 -7.124)" fill="#ee638c"/>
      <path id="Trazado_1041975" data-name="Trazado 1041975" d="M248,13.282,256.8,8l8.8,5.278v8.8l-8.8,5.278L248,22.078Zm0,0" transform="translate(-220.732 -7.124)" fill="#8cb28c"/>
      <path id="Trazado_1041976" data-name="Trazado 1041976" d="M8,141.282,16.8,136l8.8,5.278v8.8l-8.8,5.278L8,150.078Zm0,0" transform="translate(-7.12 -121.05)" fill="#f7cc38"/>
      <path id="Trazado_1041977" data-name="Trazado 1041977" d="M328,141.282,336.8,136l8.8,5.278v8.8l-8.8,5.278-8.8-5.278Zm0,0" transform="translate(-291.935 -121.05)" fill="#ef7559"/>
      <g id="Grupo_1182240" data-name="Grupo 1182240" transform="translate(7.917 8.796)">
        <path id="Trazado_1041978" data-name="Trazado 1041978" d="M75.519,209.763A1.759,1.759,0,1,1,73.759,208,1.759,1.759,0,0,1,75.519,209.763Zm0,0" transform="translate(-72 -193.93)" fill="#fff"/>
        <path id="Trazado_1041979" data-name="Trazado 1041979" d="M155.518,81.763A1.759,1.759,0,1,1,153.759,80,1.759,1.759,0,0,1,155.518,81.763Zm0,0" transform="translate(-143.204 -80.004)" fill="#fff"/>
        <path id="Trazado_1041980" data-name="Trazado 1041980" d="M315.518,81.763A1.759,1.759,0,1,1,313.759,80,1.759,1.759,0,0,1,315.518,81.763Zm0,0" transform="translate(-285.611 -80.004)" fill="#fff"/>
        <path id="Trazado_1041981" data-name="Trazado 1041981" d="M395.518,209.763A1.759,1.759,0,1,1,393.759,208,1.759,1.759,0,0,1,395.518,209.763Zm0,0" transform="translate(-356.815 -193.93)" fill="#fff"/>
        <path id="Trazado_1041982" data-name="Trazado 1041982" d="M315.518,337.763A1.759,1.759,0,1,1,313.759,336,1.759,1.759,0,0,1,315.518,337.763Zm0,0" transform="translate(-285.611 -307.856)" fill="#fff"/>
        <path id="Trazado_1041983" data-name="Trazado 1041983" d="M155.518,337.763A1.759,1.759,0,1,1,153.759,336,1.759,1.759,0,0,1,155.518,337.763Zm0,0" transform="translate(-143.204 -307.856)" fill="#fff"/>
      </g>
      <path id="Trazado_1041984" data-name="Trazado 1041984" d="M54.11,19.477l-8.37-5.022V6.409a.88.88,0,0,0-.411-.745L36.533.134a.879.879,0,0,0-.936,0L27.268,5.37,18.94.134a.879.879,0,0,0-.936,0l-8.8,5.529a.88.88,0,0,0-.411.745v8.047L.426,19.477A.88.88,0,0,0,0,20.231v8.8a.88.88,0,0,0,.426.754L8.8,34.8v8.3a.88.88,0,0,0,.426.754l8.8,5.278a.88.88,0,0,0,.906,0l8.343-5.006,8.343,5.006a.88.88,0,0,0,.906,0l8.8-5.278a.88.88,0,0,0,.426-.754V34.8l8.37-5.022a.88.88,0,0,0,.426-.754v-8.8a.88.88,0,0,0-.426-.754ZM28.148,6.9l7.917-4.976L43.981,6.9v7.32l-3.3,2.072-2.562-4.1a2.629,2.629,0,1,0-4.534-2.511h-5.44ZM42.8,26.261l-2.629,4.206-3.23-1.938v-7.8l3.23-1.935L42.8,23a2.579,2.579,0,0,0,0,3.263ZM36.635,36.13a2.607,2.607,0,0,0-3.048,1.694h-5.44V34.8l7.917-4.75,3.177,1.907Zm.309,2.573a.88.88,0,1,1-.88-.88A.88.88,0,0,1,36.944,38.7Zm0-28.148a.88.88,0,1,1-.88-.88A.88.88,0,0,1,36.944,10.555Zm-8.8.88h5.44a2.607,2.607,0,0,0,3.048,1.693l2.56,4.1-3.131,1.968-7.917-4.976ZM10.555,6.9l7.917-4.976L26.389,6.9V9.676h-5.44a2.631,2.631,0,1,0-4.534,2.511l-2.562,4.1-3.3-2.072ZM11.733,23l2.629-4.206,3.23,1.938v7.8l-3.23,1.935-2.629-4.207a2.579,2.579,0,0,0,0-3.263Zm3.607-5.774,2.56-4.1a2.606,2.606,0,0,0,3.049-1.693h5.44v2.78l-7.917,4.976Zm2.253-6.668a.88.88,0,1,1,.88.88A.879.879,0,0,1,17.592,10.555ZM1.759,28.529v-7.8l7.917-4.75,3.177,1.907-2.606,4.171a2.639,2.639,0,1,0,0,5.146l2.606,4.171L9.676,33.28Zm8.8-3.9a.88.88,0,1,1-.88-.88A.88.88,0,0,1,10.555,24.629ZM26.389,42.6l-7.917,4.75L10.555,42.6V34.8l3.23-1.935,2.629,4.207a2.628,2.628,0,1,0,4.534,2.509h5.44Zm-8.8-3.9a.88.88,0,1,1,.88.88A.879.879,0,0,1,17.592,38.7Zm8.8-.88h-5.44A2.607,2.607,0,0,0,17.9,36.13l-2.606-4.171,3.177-1.907,7.917,4.75Zm-7.037-9.294V20.718l7.917-4.972,7.917,4.977v7.812l-7.917,4.75ZM43.981,42.6l-7.917,4.75L28.148,42.6v-3.02h5.44a2.631,2.631,0,1,0,4.534-2.512l2.629-4.206,3.23,1.938Zm8.8-14.074-7.917,4.75-3.177-1.906L44.29,27.2a2.639,2.639,0,1,0,0-5.146l-2.606-4.171,3.177-1.907,7.917,4.75Zm-8.8-3.9a.88.88,0,1,1,.88.88A.879.879,0,0,1,43.981,24.629Zm0,0"/>
    </g>
  </g>
</svg>
