<svg xmlns="http://www.w3.org/2000/svg" xmlns:xlink="http://www.w3.org/1999/xlink" width="113" height="113" viewBox="0 0 113 113">
  <defs>
    <filter id="Trazado_982547" x="0" y="0" width="113" height="113" filterUnits="userSpaceOnUse">
      <feOffset dy="3" input="SourceAlpha"/>
      <feGaussianBlur stdDeviation="3" result="blur"/>
      <feFlood flood-opacity="0.161"/>
      <feComposite operator="in" in2="blur"/>
      <feComposite in="SourceGraphic"/>
    </filter>
  </defs>
  <g id="Grupo_1182237" data-name="Grupo 1182237" transform="translate(-324 -2192)">
    <g id="Grupo_1179952" data-name="Grupo 1179952" transform="translate(-0.461 -2181)">
      <g id="Grupo_1174861" data-name="Grupo 1174861" transform="translate(0.461 -1575.015)">
        <g id="Grupo_1174057" data-name="Grupo 1174057" transform="translate(333 5954.015)">
          <g id="Grupo_1172010" data-name="Grupo 1172010">
            <g id="Grupo_1171046" data-name="Grupo 1171046">
              <g id="Grupo_1148525" data-name="Grupo 1148525">
                <g transform="matrix(1, 0, 0, 1, -9, -6)" filter="url(#Trazado_982547)">
                  <g id="Trazado_982547-2" data-name="Trazado 982547" transform="translate(9 6)" fill="#f2f7e5">
                    <path d="M 47.5 93.5 C 41.28937149047852 93.5 35.26533508300781 92.28397369384766 29.59518623352051 89.88570404052734 C 24.11771965026855 87.56893157958984 19.19813346862793 84.25196075439453 14.97309303283691 80.02691650390625 C 10.74804019927979 75.80186462402344 7.431066513061523 70.88229370117188 5.114293098449707 65.40481567382812 C 2.716026782989502 59.73468017578125 1.5 53.71062850952148 1.5 47.5 C 1.5 41.28937149047852 2.716026782989502 35.26533508300781 5.114293098449707 29.59518623352051 C 7.431066513061523 24.11771965026855 10.74804019927979 19.19813346862793 14.97309303283691 14.97309303283691 C 19.19813346862793 10.74804019927979 24.11771965026855 7.431066513061523 29.59518623352051 5.114293098449707 C 35.26533508300781 2.716026782989502 41.28937149047852 1.5 47.5 1.5 C 53.71062850952148 1.5 59.73468017578125 2.716026782989502 65.40481567382812 5.114293098449707 C 70.88229370117188 7.431066513061523 75.80186462402344 10.74804019927979 80.02691650390625 14.97309303283691 C 84.25196075439453 19.19813346862793 87.56893157958984 24.11771965026855 89.88570404052734 29.59518623352051 C 92.28397369384766 35.26533508300781 93.5 41.28937149047852 93.5 47.5 C 93.5 53.71062850952148 92.28397369384766 59.73468017578125 89.88570404052734 65.40481567382812 C 87.56893157958984 70.88229370117188 84.25196075439453 75.80186462402344 80.02691650390625 80.02691650390625 C 75.80186462402344 84.25196075439453 70.88229370117188 87.56893157958984 65.40481567382812 89.88570404052734 C 59.73468017578125 92.28397369384766 53.71062850952148 93.5 47.5 93.5 Z" stroke="none"/>
                    <path d="M 47.5 3 C 41.49121475219727 3 35.66376876831055 4.176155090332031 30.17950439453125 6.495796203613281 C 24.88084411621094 8.736953735351562 20.12152099609375 11.94598388671875 16.03375244140625 16.03375244140625 C 11.94598388671875 20.12152099609375 8.736953735351562 24.88084411621094 6.495796203613281 30.17950439453125 C 4.176155090332031 35.66376876831055 3 41.49121475219727 3 47.5 C 3 53.50878524780273 4.176155090332031 59.33623123168945 6.495796203613281 64.82049560546875 C 8.736953735351562 70.11915588378906 11.94598388671875 74.87847900390625 16.03375244140625 78.96624755859375 C 20.12152099609375 83.05401611328125 24.88084411621094 86.26304626464844 30.17950439453125 88.50419616699219 C 35.66376876831055 90.82384490966797 41.49121475219727 92 47.5 92 C 53.50878524780273 92 59.33623123168945 90.82384490966797 64.82049560546875 88.50419616699219 C 70.11915588378906 86.26304626464844 74.87847900390625 83.05401611328125 78.96624755859375 78.96624755859375 C 83.05401611328125 74.87847900390625 86.26304626464844 70.11915588378906 88.50419616699219 64.82049560546875 C 90.82384490966797 59.33623123168945 92 53.50878524780273 92 47.5 C 92 41.49121475219727 90.82384490966797 35.66376876831055 88.50419616699219 30.17950439453125 C 86.26304626464844 24.88084411621094 83.05401611328125 20.12152099609375 78.96624755859375 16.03375244140625 C 74.87847900390625 11.94598388671875 70.11915588378906 8.736953735351562 64.82049560546875 6.495796203613281 C 59.33623123168945 4.176155090332031 53.50878524780273 3 47.5 3 M 47.5 0 C 73.7335205078125 0 95 21.2664794921875 95 47.5 C 95 73.7335205078125 73.7335205078125 95 47.5 95 C 21.2664794921875 95 0 73.7335205078125 0 47.5 C 0 21.2664794921875 21.2664794921875 0 47.5 0 Z" stroke="none" fill="#86b60c"/>
                  </g>
                </g>
              </g>
            </g>
          </g>
        </g>
      </g>
    </g>
    <g id="usuario" transform="translate(350 2215)">
      <g id="Grupo_1182209" data-name="Grupo 1182209" transform="translate(3.598 3.598)">
        <g id="Grupo_1182207" data-name="Grupo 1182207">
          <circle id="Elipse_13121" data-name="Elipse 13121" cx="4.891" cy="4.891" r="4.891" fill="#f6e266"/>
        </g>
        <g id="Grupo_1182208" data-name="Grupo 1182208" transform="translate(0.574 0.574)">
          <path id="Trazado_1041936" data-name="Trazado 1041936" d="M41.082,34.466a4.892,4.892,0,0,1-6.617,6.617,4.891,4.891,0,1,0,6.617-6.617Z" transform="translate(-34.465 -34.466)" fill="#f1d333"/>
        </g>
      </g>
      <g id="Grupo_1182212" data-name="Grupo 1182212" transform="translate(27.32 0.908)">
        <g id="Grupo_1182210" data-name="Grupo 1182210">
          <circle id="Elipse_13122" data-name="Elipse 13122" cx="3.668" cy="3.668" r="3.668" fill="#f6e266"/>
        </g>
        <g id="Grupo_1182211" data-name="Grupo 1182211" transform="translate(0.431 0.431)">
          <path id="Trazado_1041937" data-name="Trazado 1041937" d="M234.215,11.057a3.669,3.669,0,0,1-4.963,4.963,3.669,3.669,0,1,0,4.963-4.963Z" transform="translate(-229.252 -11.057)" fill="#f1d333"/>
        </g>
      </g>
      <g id="Grupo_1182215" data-name="Grupo 1182215" transform="translate(27.32 53.733)">
        <g id="Grupo_1182213" data-name="Grupo 1182213">
          <circle id="Elipse_13123" data-name="Elipse 13123" cx="3.668" cy="3.668" r="3.668" fill="#f6e266"/>
        </g>
        <g id="Grupo_1182214" data-name="Grupo 1182214" transform="translate(0.431 0.431)">
          <path id="Trazado_1041938" data-name="Trazado 1041938" d="M234.215,447.447a3.669,3.669,0,0,1-4.963,4.963,3.669,3.669,0,1,0,4.963-4.963Z" transform="translate(-229.252 -447.447)" fill="#f1d333"/>
        </g>
      </g>
      <g id="Grupo_1182218" data-name="Grupo 1182218" transform="translate(53.733 27.32)">
        <g id="Grupo_1182216" data-name="Grupo 1182216">
          <circle id="Elipse_13124" data-name="Elipse 13124" cx="3.668" cy="3.668" r="3.668" fill="#f6e266"/>
        </g>
        <g id="Grupo_1182217" data-name="Grupo 1182217" transform="translate(0.431 0.431)">
          <path id="Trazado_1041939" data-name="Trazado 1041939" d="M452.41,229.252a3.669,3.669,0,0,1-4.963,4.963,3.669,3.669,0,1,0,4.963-4.963Z" transform="translate(-447.447 -229.252)" fill="#f1d333"/>
        </g>
      </g>
      <g id="Grupo_1182221" data-name="Grupo 1182221" transform="translate(0.908 27.32)">
        <g id="Grupo_1182219" data-name="Grupo 1182219">
          <circle id="Elipse_13125" data-name="Elipse 13125" cx="3.668" cy="3.668" r="3.668" fill="#f6e266"/>
        </g>
        <g id="Grupo_1182220" data-name="Grupo 1182220" transform="translate(0.43 0.431)">
          <path id="Trazado_1041940" data-name="Trazado 1041940" d="M16.019,229.252a3.669,3.669,0,0,1-4.963,4.963,3.669,3.669,0,1,0,4.963-4.963Z" transform="translate(-11.056 -229.252)" fill="#f1d333"/>
        </g>
      </g>
      <g id="Grupo_1182226" data-name="Grupo 1182226" transform="translate(20.717 18.761)">
        <g id="Grupo_1182222" data-name="Grupo 1182222" transform="translate(4.158)">
          <circle id="Elipse_13126" data-name="Elipse 13126" cx="6.114" cy="6.114" r="6.114" fill="#f1d0a5"/>
        </g>
        <g id="Grupo_1182223" data-name="Grupo 1182223" transform="translate(4.968 0.811)">
          <path id="Trazado_1041941" data-name="Trazado 1041941" d="M220.534,161.682a6.113,6.113,0,0,1-8.344,8.344,6.113,6.113,0,1,0,8.344-8.344Z" transform="translate(-212.19 -161.682)" fill="#f1b986"/>
        </g>
        <g id="Grupo_1182224" data-name="Grupo 1182224" transform="translate(0 12.228)">
          <path id="Trazado_1041942" data-name="Trazado 1041942" d="M171.146,260.891v5.38h20.543v-5.38A4.891,4.891,0,0,0,186.8,256H176.037A4.891,4.891,0,0,0,171.146,260.891Z" transform="translate(-171.146 -256)" fill="#dd5790"/>
        </g>
        <g id="Grupo_1182225" data-name="Grupo 1182225" transform="translate(12.717 12.228)">
          <path id="Trazado_1041943" data-name="Trazado 1041943" d="M279.138,256H276.2a4.891,4.891,0,0,1,4.891,4.891v5.38h2.935v-5.38A4.891,4.891,0,0,0,279.138,256Z" transform="translate(-276.203 -256)" fill="#da387d"/>
        </g>
      </g>
      <g id="Grupo_1182229" data-name="Grupo 1182229" transform="translate(48.597 3.598)">
        <g id="Grupo_1182227" data-name="Grupo 1182227">
          <circle id="Elipse_13127" data-name="Elipse 13127" cx="4.891" cy="4.891" r="4.891" fill="#f6e266"/>
        </g>
        <g id="Grupo_1182228" data-name="Grupo 1182228" transform="translate(0.574 0.574)">
          <path id="Trazado_1041944" data-name="Trazado 1041944" d="M412.823,34.466a4.892,4.892,0,0,1-6.617,6.617,4.891,4.891,0,1,0,6.617-6.617Z" transform="translate(-406.206 -34.466)" fill="#f1d333"/>
        </g>
      </g>
      <g id="Grupo_1182232" data-name="Grupo 1182232" transform="translate(48.597 48.597)">
        <g id="Grupo_1182230" data-name="Grupo 1182230">
          <circle id="Elipse_13128" data-name="Elipse 13128" cx="4.891" cy="4.891" r="4.891" fill="#f6e266"/>
        </g>
        <g id="Grupo_1182231" data-name="Grupo 1182231" transform="translate(0.574 0.574)">
          <path id="Trazado_1041945" data-name="Trazado 1041945" d="M412.823,406.2a4.892,4.892,0,0,1-6.617,6.617,4.891,4.891,0,1,0,6.617-6.617Z" transform="translate(-406.206 -406.205)" fill="#f1d333"/>
        </g>
      </g>
      <g id="Grupo_1182235" data-name="Grupo 1182235" transform="translate(3.598 48.597)">
        <g id="Grupo_1182233" data-name="Grupo 1182233">
          <circle id="Elipse_13129" data-name="Elipse 13129" cx="4.891" cy="4.891" r="4.891" fill="#f6e266"/>
        </g>
        <g id="Grupo_1182234" data-name="Grupo 1182234" transform="translate(0.574 0.574)">
          <path id="Trazado_1041946" data-name="Trazado 1041946" d="M41.082,406.2a4.892,4.892,0,0,1-6.617,6.617,4.891,4.891,0,1,0,6.617-6.617Z" transform="translate(-34.465 -406.205)" fill="#f1d333"/>
        </g>
      </g>
      <g id="Grupo_1182236" data-name="Grupo 1182236" transform="translate(0 0)">
        <path id="Trazado_1041947" data-name="Trazado 1041947" d="M50.217,31.9h2.7a4.576,4.576,0,1,0,0-1.816h-2.7a19.176,19.176,0,0,0-5-12.04l4.862-4.862A5.808,5.808,0,1,0,48.8,11.895l-4.862,4.862a19.176,19.176,0,0,0-12.04-5v-2.7a4.576,4.576,0,1,0-1.816,0v2.7a19.176,19.176,0,0,0-12.04,5L13.179,11.9A5.794,5.794,0,0,0,11.73,3.679a.908.908,0,0,0-1.016,1.505A3.983,3.983,0,1,1,7.4,4.655a.908.908,0,0,0-.5-1.747A5.8,5.8,0,1,0,11.9,13.179l4.862,4.861a19.176,19.176,0,0,0-5,12.04h-2.7a4.576,4.576,0,1,0,0,1.816h2.7a19.176,19.176,0,0,0,5,12.04L11.895,48.8a5.808,5.808,0,1,0,1.284,1.284l4.862-4.862a19.176,19.176,0,0,0,12.04,5v2.7a4.577,4.577,0,1,0,1.816,0v-2.7a19.176,19.176,0,0,0,12.04-5L48.8,50.083a5.8,5.8,0,1,0,10.192,1.568.908.908,0,1,0-1.723.574,3.981,3.981,0,1,1-2.323-2.445.908.908,0,0,0,.664-1.69,5.794,5.794,0,0,0-5.527.709l-4.862-4.861a19.177,19.177,0,0,0,5-12.04ZM57.4,28.228a2.761,2.761,0,1,1-2.761,2.761A2.764,2.764,0,0,1,57.4,28.228ZM53.489,4.506a3.983,3.983,0,1,1-3.983,3.983,3.988,3.988,0,0,1,3.983-3.983Zm-25.26.07a2.761,2.761,0,1,1,2.761,2.761,2.764,2.764,0,0,1-2.761-2.761ZM4.576,33.749a2.761,2.761,0,1,1,2.76-2.761A2.764,2.764,0,0,1,4.576,33.749ZM30.989,13.555A17.434,17.434,0,1,1,13.555,30.989,17.454,17.454,0,0,1,30.989,13.555ZM8.489,57.472a3.983,3.983,0,1,1,3.983-3.983A3.988,3.988,0,0,1,8.489,57.472Zm25.26-.07a2.761,2.761,0,1,1-2.761-2.761A2.764,2.764,0,0,1,33.749,57.4Z"/>
        <path id="Trazado_1041948" data-name="Trazado 1041948" d="M164.56,171.8h8.153a.908.908,0,1,0,0-1.816H170.6v-1.537a.908.908,0,1,0-1.816,0v1.537h-3.32v-4.472a3.988,3.988,0,0,1,3.982-3.984h10.761a3.988,3.988,0,0,1,3.982,3.984v4.472h-3.32v-1.537a.908.908,0,1,0-1.816,0v1.537h-2.109a.908.908,0,1,0,0,1.816H185.1a.908.908,0,0,0,.908-.908v-5.379a5.805,5.805,0,0,0-5.8-5.8h-.674a7.022,7.022,0,1,0-9.413,0h-.674a5.805,5.805,0,0,0-5.8,5.8v5.379A.908.908,0,0,0,164.56,171.8Zm5.065-17.293a5.206,5.206,0,1,1,5.206,5.206A5.212,5.212,0,0,1,169.625,154.506Z" transform="translate(-143.842 -129.631)"/>
      </g>
    </g>
  </g>
</svg>
