<svg xmlns="http://www.w3.org/2000/svg" width="35.912" height="33.504" viewBox="0 0 35.912 33.504">
  <g id="evaluacion" transform="translate(0 -17.166)">
    <g id="Grupo_1180277" data-name="Grupo 1180277" transform="translate(0 17.166)">
      <path id="Trazado_1034111" data-name="Trazado 1034111" d="M35,45.347l-4.454-4.454a.7.7,0,0,0-.992,0L29.441,41,27.932,39.5a6.73,6.73,0,0,0-4-9.329V27.995a.7.7,0,1,0-1.4,0V29.87a6.739,6.739,0,1,0,0,13.411v2.943a.765.765,0,0,1-.764.764H2.167a.765.765,0,0,1-.764-.764V19.333a.765.765,0,0,1,.764-.764h19.6a.765.765,0,0,1,.764.764v2.486a.7.7,0,0,0,1.4,0V19.333a2.17,2.17,0,0,0-2.167-2.167H2.167A2.17,2.17,0,0,0,0,19.333v26.89a2.17,2.17,0,0,0,2.167,2.167h19.6a2.17,2.17,0,0,0,2.167-2.167v-3.24a6.692,6.692,0,0,0,.8-.311L26.25,44.2l-.126.126a.71.71,0,0,0,0,.992l4.454,4.454A3.125,3.125,0,0,0,35,45.347ZM26.326,39.5a5.335,5.335,0,1,1-.692-6.693A5.371,5.371,0,0,1,26.326,39.5Zm-.365,2.426a6.829,6.829,0,0,0,1.212-1.2L28.449,42,27.242,43.2Zm8.045,6.852a1.739,1.739,0,0,1-2.436,0l-3.958-3.958,2.436-2.436,3.958,3.958A1.724,1.724,0,0,1,34.006,48.775Z" transform="translate(0 -17.166)"/>
      <path id="Trazado_1034112" data-name="Trazado 1034112" d="M59.177,89.312a.7.7,0,0,0-.7-.7H54.541a.7.7,0,0,0-.7.7v3.934a.7.7,0,0,0,.7.7h3.934a.7.7,0,0,0,.7-.7Zm-1.4,3.233H55.243V90.014h2.531Z" transform="translate(-50.063 -83.6)"/>
      <path id="Trazado_1034113" data-name="Trazado 1034113" d="M59.177,202.4a.7.7,0,0,0-.7-.7H54.541a.7.7,0,0,0-.7.7v3.934a.7.7,0,0,0,.7.7h3.934a.7.7,0,0,0,.7-.7Zm-1.4,3.233H55.243V203.1h2.531Z" transform="translate(-50.063 -188.757)"/>
      <path id="Trazado_1034114" data-name="Trazado 1034114" d="M58.476,314.79H54.541a.7.7,0,0,0-.7.7v3.934a.7.7,0,0,0,.7.7h3.934a.7.7,0,0,0,.7-.7v-3.934A.7.7,0,0,0,58.476,314.79Zm-.7,3.934H55.243v-2.531h2.531Z" transform="translate(-50.063 -293.914)"/>
      <path id="Trazado_1034115" data-name="Trazado 1034115" d="M174.777,89.312a.7.7,0,0,0-.7-.7h-7.024a.7.7,0,1,0,0,1.4h7.024A.7.7,0,0,0,174.777,89.312Z" transform="translate(-154.682 -83.6)"/>
      <path id="Trazado_1034116" data-name="Trazado 1034116" d="M172.621,131.957a.7.7,0,0,0-.7-.7h-4.868a.7.7,0,1,0,0,1.4h4.868A.7.7,0,0,0,172.621,131.957Z" transform="translate(-154.682 -123.253)"/>
      <path id="Trazado_1034117" data-name="Trazado 1034117" d="M170.678,202.8a.7.7,0,0,0-.7-.7h-2.926a.7.7,0,1,0,0,1.4h2.926A.7.7,0,0,0,170.678,202.8Z" transform="translate(-154.682 -189.124)"/>
      <path id="Trazado_1034118" data-name="Trazado 1034118" d="M167.725,244.74h-.674a.7.7,0,1,0,0,1.4h.674a.7.7,0,1,0,0-1.4Z" transform="translate(-154.682 -228.777)"/>
      <path id="Trazado_1034119" data-name="Trazado 1034119" d="M167.051,316.193h.674a.7.7,0,1,0,0-1.4h-.674a.7.7,0,1,0,0,1.4Z" transform="translate(-154.682 -293.914)"/>
      <path id="Trazado_1034120" data-name="Trazado 1034120" d="M167.051,358.837h2.926a.7.7,0,1,0,0-1.4h-2.926a.7.7,0,1,0,0,1.4Z" transform="translate(-154.682 -333.566)"/>
      <path id="Trazado_1034121" data-name="Trazado 1034121" d="M264.237,264.6a.7.7,0,0,0-.992.992l1.673,1.673a.7.7,0,0,0,.992,0l3.419-3.419a.7.7,0,0,0-.992-.992l-2.923,2.923Z" transform="translate(-244.589 -245.427)"/>
      <path id="Trazado_1034122" data-name="Trazado 1034122" d="M322.567,118.112a.7.7,0,1,0-.38.915A.707.707,0,0,0,322.567,118.112Z" transform="translate(-298.688 -110.63)"/>
    </g>
  </g>
</svg>
