<svg xmlns="http://www.w3.org/2000/svg" xmlns:xlink="http://www.w3.org/1999/xlink" width="505" height="302" viewBox="0 0 505 302">
  <defs>
    <clipPath id="clip-path">
      <rect id="Rectángulo_415652" data-name="Rectángulo 415652" width="505" height="302" transform="translate(915 2655)" fill="#fff" stroke="#707070" stroke-width="1" opacity="0.81"/>
    </clipPath>
  </defs>
  <g id="Enmascarar_grupo_1098822" data-name="Enmascarar grupo 1098822" transform="translate(-915 -2655)" clip-path="url(#clip-path)">
    <g id="Grupo_1181678" data-name="Grupo 1181678" transform="translate(937.427 2646.903)">
      <path id="Trazado_1041441" data-name="Trazado 1041441" d="M82.664,273.549C52.25,252.314,28.4,221.024,22.2,185.329c-4.633-26.645,1.769-55.427,18.27-77.353C48,97.961,59.3,86.735,71.29,81.873c14.646-5.937,31.476-1.425,46.794-2.964,33.383-3.355,56.418-32.591,84.167-50.846,37.23-24.492,84.641-29.4,129.64-27.782,21.414.771,43.56,3.085,62.05,13.556,32.111,18.181,45.315,55.548,60.214,88.517,15.766,34.886,36.1,68.216,45.534,105.182,5.281,20.7,6.3,44.666-7.6,61.22-10.139,12.074-26.168,17.733-41.52,22.373-81.909,24.757-169.274,35.83-254.091,23.191-38.681-5.763-77.236-16.71-109.631-37.942q-2.11-1.384-4.182-2.83" transform="translate(-20.728 14.948)" fill="#ffebd0"/>
      <path id="Trazado_1041442" data-name="Trazado 1041442" d="M354.738,32.391A24.715,24.715,0,1,1,322.41,19.106a24.714,24.714,0,0,1,32.328,13.285" transform="translate(-32.065 -1.794)" fill="#ffc871"/>
      <path id="Trazado_1041443" data-name="Trazado 1041443" d="M340.455,61.722a21,21,0,1,1,11.287-27.465,21.021,21.021,0,0,1-11.287,27.465m-15.673-37.54A19.684,19.684,0,1,0,350.53,34.763a19.706,19.706,0,0,0-25.748-10.581" transform="translate(-32.499 -2.228)" fill="#f48656"/>
      <path id="Trazado_1041444" data-name="Trazado 1041444" d="M338.379,55.366a9.135,9.135,0,0,1-5.44.515,6.172,6.172,0,0,1-4.324-3.387,5.141,5.141,0,0,1-.044-4.2.984.984,0,1,1,1.8.8,3.143,3.143,0,0,0,.028,2.573,4.217,4.217,0,0,0,2.984,2.3,7.079,7.079,0,0,0,5.67-1.25,6.956,6.956,0,0,0,2.706-5.064,4.913,4.913,0,0,0-2.669-4.583c-1.621-.732-3.628-.387-5.569-.054l-.305.053c-2.342.4-5.015.605-7.074-.878a5.528,5.528,0,0,1-2.2-3.958,6.764,6.764,0,0,1,1.577-5.167,7.265,7.265,0,0,1,12.222,2.209.984.984,0,1,1-1.838.706,5.3,5.3,0,0,0-8.91-1.61,4.831,4.831,0,0,0-1.094,3.644,3.587,3.587,0,0,0,1.395,2.578c1.471,1.06,3.653.864,5.594.534l.3-.051c2.129-.366,4.542-.78,6.713.2a6.923,6.923,0,0,1,3.826,6.431,8.935,8.935,0,0,1-3.439,6.542,7.919,7.919,0,0,1-1.909,1.12" transform="translate(-33.807 -3.196)" fill="#f48656"/>
      <path id="Trazado_1041445" data-name="Trazado 1041445" d="M340.156,57.691a.655.655,0,0,1-.858-.353l-11.691-28a.656.656,0,1,1,1.211-.505l11.691,28a.655.655,0,0,1-.353.858" transform="translate(-34.189 -2.967)" fill="#f48656"/>
      <rect id="Rectángulo_415609" data-name="Rectángulo 415609" width="68.762" height="39.284" transform="matrix(0.555, -0.832, 0.832, 0.555, 301.987, 67.774)" fill="#299772"/>
      <path id="Trazado_1041446" data-name="Trazado 1041446" d="M369.96,86.713,342.121,68.156l34.137-51.21L404.1,35.5ZM345.016,67.549l24.391,16.259,31.8-47.7L376.81,19.851Z" transform="translate(-35.709 -1.769)" fill="#106645"/>
      <path id="Trazado_1041447" data-name="Trazado 1041447" d="M367.792,89.282s2.549-3.557,8.063-1.693l-3.506,4.549Z" transform="translate(-38.388 -9.086)" fill="#106645"/>
      <path id="Trazado_1041448" data-name="Trazado 1041448" d="M404.243,34.641s-2.3,3.72,1.54,8.095l2.85-4.987Z" transform="translate(-42.121 -3.616)" fill="#106645"/>
      <path id="Trazado_1041449" data-name="Trazado 1041449" d="M347.229,68.474s3.487,2.505,1.54,8.095l-4.455-3.454Z" transform="translate(-35.938 -7.147)" fill="#106645"/>
      <path id="Trazado_1041450" data-name="Trazado 1041450" d="M376.631,23.585s3.654,2.254,8.063-1.693l-4.9-2.784Z" transform="translate(-39.311 -1.994)" fill="#106645"/>
      <path id="Trazado_1041451" data-name="Trazado 1041451" d="M365.762,71.434a3.118,3.118,0,1,1-4.275.9,3.089,3.089,0,0,1,4.275-.9" transform="translate(-37.675 -7.403)" fill="#106645"/>
      <rect id="Rectángulo_415610" data-name="Rectángulo 415610" width="8.611" height="1.249" transform="translate(318.008 66.234) rotate(-56.312)" fill="#106645"/>
      <rect id="Rectángulo_415611" data-name="Rectángulo 415611" width="8.611" height="1.249" transform="translate(328.891 73.488) rotate(-56.312)" fill="#106645"/>
      <path id="Trazado_1041452" data-name="Trazado 1041452" d="M390.42,34.444a3.118,3.118,0,1,1-4.275.9,3.089,3.089,0,0,1,4.275-.9" transform="translate(-40.248 -3.542)" fill="#106645"/>
      <rect id="Rectángulo_415612" data-name="Rectángulo 415612" width="8.611" height="1.249" transform="translate(340.092 33.104) rotate(-56.312)" fill="#106645"/>
      <rect id="Rectángulo_415613" data-name="Rectángulo 415613" width="8.611" height="1.249" transform="translate(350.975 40.359) rotate(-56.312)" fill="#106645"/>
      <path id="Trazado_1041453" data-name="Trazado 1041453" d="M381.426,45.5c5.466,3.643,7.185,10.667,3.838,15.687s-10.49,6.135-15.956,2.492-7.185-10.667-3.839-15.687,10.49-6.135,15.956-2.492" transform="translate(-37.968 -4.525)" fill="#4bc99b"/>
      <path id="Trazado_1041454" data-name="Trazado 1041454" d="M378.233,51.575a6.7,6.7,0,0,0-3.346,1.937l-4.392-2.928a2.844,2.844,0,0,1,.549-.316,3.221,3.221,0,0,1,3.082.322.863.863,0,0,0,1.2-.2.828.828,0,0,0,.149-.641.855.855,0,0,0-.352-.562,4.979,4.979,0,0,0-4.763-.5,4.764,4.764,0,0,0-1.362.9l-.915-.61a.884.884,0,1,0-.98,1.472l.834.556a4.748,4.748,0,0,0-.475,1.5,4.568,4.568,0,0,0,1.044,3.494,3.771,3.771,0,0,0,2.748,1.412,5.572,5.572,0,0,0,3.774-1.676l5.758,3.84a4.175,4.175,0,0,1-1.568,1.094,2.477,2.477,0,0,1-2.206-.15,1.78,1.78,0,0,1-.82-1.2.863.863,0,0,0-1-.7.865.865,0,0,0-.7,1,3.53,3.53,0,0,0,1.624,2.385,4.177,4.177,0,0,0,3.708.289,5.935,5.935,0,0,0,2.4-1.75l1.046.7a.884.884,0,1,0,.981-1.472l-1.092-.727a3.726,3.726,0,0,0,.142-.374,5.955,5.955,0,0,0-.512-4.9,4.667,4.667,0,0,0-4.555-2.175M376.369,54.5a4.568,4.568,0,0,1,2.143-1.224,2.908,2.908,0,0,1,2.814,1.39,4.2,4.2,0,0,1,.357,3.377Zm-5.053,1.182a2.069,2.069,0,0,1-1.489-.8,2.861,2.861,0,0,1-.657-2.15,2.941,2.941,0,0,1,.218-.766l4.144,2.763a3.462,3.462,0,0,1-2.215.949" transform="translate(-38.275 -5.041)" fill="#299772"/>
      <rect id="Rectángulo_415614" data-name="Rectángulo 415614" width="68.762" height="39.284" transform="translate(304.833 65.956) rotate(-22.07)" fill="#299772"/>
      <path id="Trazado_1041455" data-name="Trazado 1041455" d="M357.885,103.452l-12.57-31L402.35,49.322l12.571,31.006Zm-9.836-29.878,11.014,27.165L412.186,79.2,401.172,52.036Z" transform="translate(-36.042 -5.148)" fill="#106645"/>
      <path id="Trazado_1041456" data-name="Trazado 1041456" d="M357.86,102.306s4.108-1.506,7.618,3.138l-5.459,1.787Z" transform="translate(-37.352 -10.654)" fill="#106645"/>
      <path id="Trazado_1041457" data-name="Trazado 1041457" d="M418.559,77.5s-4,1.781-3.282,7.558l5.162-2.519Z" transform="translate(-43.336 -8.09)" fill="#106645"/>
      <path id="Trazado_1041458" data-name="Trazado 1041458" d="M352.413,73.537s1.473,4.033-3.282,7.558l-1.74-5.362Z" transform="translate(-36.259 -7.676)" fill="#106645"/>
      <path id="Trazado_1041459" data-name="Trazado 1041459" d="M366.1,86.365a3.118,3.118,0,1,1-4.038-1.664,3.089,3.089,0,0,1,4.038,1.664" transform="translate(-37.586 -8.816)" fill="#106645"/>
      <rect id="Rectángulo_415615" data-name="Rectángulo 415615" width="8.611" height="1.249" transform="translate(318.944 73.698) rotate(-22.067)" fill="#106645"/>
      <rect id="Rectángulo_415616" data-name="Rectángulo 415616" width="8.611" height="1.249" transform="matrix(0.927, -0.376, 0.376, 0.927, 323.859, 85.819)" fill="#106645"/>
      <path id="Trazado_1041460" data-name="Trazado 1041460" d="M407.3,69.661A3.118,3.118,0,1,1,403.261,68a3.088,3.088,0,0,1,4.039,1.664" transform="translate(-41.886 -7.073)" fill="#106645"/>
      <rect id="Rectángulo_415617" data-name="Rectángulo 415617" width="8.611" height="1.249" transform="translate(355.842 58.738) rotate(-22.067)" fill="#106645"/>
      <rect id="Rectángulo_415618" data-name="Rectángulo 415618" width="8.611" height="1.25" transform="translate(360.757 70.859) rotate(-22.073)" fill="#106645"/>
      <path id="Trazado_1041461" data-name="Trazado 1041461" d="M393.007,74.066c2.468,6.088-.064,12.86-5.654,15.128s-12.124-.831-14.592-6.92.064-12.86,5.654-15.127,12.124.831,14.592,6.919" transform="translate(-38.808 -6.931)" fill="#4bc99b"/>
      <path id="Trazado_1041462" data-name="Trazado 1041462" d="M387.52,76.914a6.7,6.7,0,0,0-3.856-.282l-1.984-4.892a2.913,2.913,0,0,1,.632.048,3.219,3.219,0,0,1,2.366,2,.863.863,0,0,0,1.106.508.837.837,0,0,0,.485-.447.862.862,0,0,0,.025-.664,4.981,4.981,0,0,0-3.658-3.091A4.752,4.752,0,0,0,381,70.072l-.413-1.019a.884.884,0,1,0-1.639.665l.377.93a4.727,4.727,0,0,0-1.234.97,4.561,4.561,0,0,0-1.1,3.476,3.768,3.768,0,0,0,1.476,2.713,5.577,5.577,0,0,0,4.063.739l2.6,6.414a4.188,4.188,0,0,1-1.912.021,2.475,2.475,0,0,1-1.739-1.366,1.78,1.78,0,0,1,0-1.455.861.861,0,0,0-.429-1.141.864.864,0,0,0-1.14.427,3.525,3.525,0,0,0,0,2.885,4.175,4.175,0,0,0,2.9,2.326,5.935,5.935,0,0,0,2.967-.1l.473,1.165a.884.884,0,1,0,1.638-.665l-.493-1.215c.114-.073.225-.148.329-.229a5.957,5.957,0,0,0,2.333-4.34,4.665,4.665,0,0,0-2.541-4.361m-3.187,1.369a4.57,4.57,0,0,1,2.46.194,2.908,2.908,0,0,1,1.545,2.733,4.2,4.2,0,0,1-1.606,2.992Zm-4.843-1.866a2.07,2.07,0,0,1-.783-1.5,2.858,2.858,0,0,1,.666-2.148,2.928,2.928,0,0,1,.611-.51l1.871,4.615a3.464,3.464,0,0,1-2.365-.461" transform="translate(-39.346 -7.15)" fill="#299772"/>
      <path id="Trazado_1041463" data-name="Trazado 1041463" d="M419.138,81.515a.372.372,0,0,1-.344-.231L404.173,45.223,343.7,70.075a.371.371,0,0,1-.282-.686L404.58,44.253,419.482,81a.371.371,0,0,1-.205.484.375.375,0,0,1-.139.027" transform="translate(-35.82 -4.619)" fill="#211919"/>
      <path id="Trazado_1041464" data-name="Trazado 1041464" d="M350.108,332.772a3.119,3.119,0,0,1-3.068-3.665l5.161-28.813a3.114,3.114,0,0,1,4.729-2.085l18.649,11.784a3.114,3.114,0,0,1,.148,5.166l-23.808,17.029a3.1,3.1,0,0,1-1.811.585m3.516-32.225,1.422.253-5.161,28.814.352.226,23.81-17.032a.211.211,0,0,0,.095-.189l-18.753-11.967Z" transform="translate(-36.217 -31.076)" fill="#4bb2a1"/>
      <path id="Trazado_1041465" data-name="Trazado 1041465" d="M175.892,94.443a14.9,14.9,0,1,1,14.9,14.9,14.911,14.911,0,0,1-14.9-14.9m6.541,0a8.354,8.354,0,1,0,8.354-8.354,8.364,8.364,0,0,0-8.354,8.354" transform="translate(-18.359 -8.303)" fill="#f7ad68"/>
      <path id="Trazado_1041466" data-name="Trazado 1041466" d="M188.424,81.42h7.342V75.386a3.069,3.069,0,0,0-3.069-3.069h-1.2a3.069,3.069,0,0,0-3.069,3.069Z" transform="translate(-19.667 -7.548)" fill="#f7ad68"/>
      <path id="Trazado_1041467" data-name="Trazado 1041467" d="M188.424,109.877h7.342v6.035a3.069,3.069,0,0,1-3.069,3.068h-1.2a3.069,3.069,0,0,1-3.069-3.068Z" transform="translate(-19.667 -11.469)" fill="#f7ad68"/>
      <path id="Trazado_1041468" data-name="Trazado 1041468" d="M199.311,82.992l5.191,5.192,4.267-4.267a3.069,3.069,0,0,0,0-4.34l-.852-.852a3.069,3.069,0,0,0-4.34,0Z" transform="translate(-20.803 -8.123)" fill="#f7ad68"/>
      <path id="Trazado_1041469" data-name="Trazado 1041469" d="M179.336,102.967l5.192,5.192-4.267,4.267a3.069,3.069,0,0,1-4.34,0l-.852-.852a3.069,3.069,0,0,1,0-4.34Z" transform="translate(-18.179 -10.747)" fill="#f7ad68"/>
      <path id="Trazado_1041470" data-name="Trazado 1041470" d="M206.221,92.08v7.342h6.034a3.069,3.069,0,0,0,3.069-3.069v-1.2a3.069,3.069,0,0,0-3.069-3.069Z" transform="translate(-21.524 -9.611)" fill="#f7ad68"/>
      <path id="Trazado_1041471" data-name="Trazado 1041471" d="M177.763,92.08v7.342h-6.034a3.069,3.069,0,0,1-3.069-3.069v-1.2a3.069,3.069,0,0,1,3.069-3.069Z" transform="translate(-17.604 -9.611)" fill="#f7ad68"/>
      <path id="Trazado_1041472" data-name="Trazado 1041472" d="M204.5,102.967l-5.192,5.192,4.267,4.267a3.069,3.069,0,0,0,4.34,0l.852-.852a3.068,3.068,0,0,0,0-4.34Z" transform="translate(-20.803 -10.747)" fill="#f7ad68"/>
      <path id="Trazado_1041473" data-name="Trazado 1041473" d="M184.528,82.992l-5.192,5.192-4.267-4.267a3.069,3.069,0,0,1,0-4.34l.852-.852a3.069,3.069,0,0,1,4.34,0Z" transform="translate(-18.179 -8.123)" fill="#f7ad68"/>
      <path id="Trazado_1041474" data-name="Trazado 1041474" d="M252.239,314.546A19.259,19.259,0,1,1,271.5,295.289a19.278,19.278,0,0,1-19.259,19.257m0-34.764a15.505,15.505,0,1,0,15.505,15.507,15.525,15.525,0,0,0-15.505-15.507" transform="translate(-24.317 -28.811)" fill="#80d5ff"/>
      <path id="Trazado_1041475" data-name="Trazado 1041475" d="M222.318,320.411h0a2.373,2.373,0,0,1,0-3.355l14.661-14.662a2.373,2.373,0,1,1,3.356,3.355l-14.662,14.662a2.371,2.371,0,0,1-3.355,0" transform="translate(-23.132 -31.49)" fill="#211919"/>
      <path id="Trazado_1041476" data-name="Trazado 1041476" d="M222.318,302.394h0a2.373,2.373,0,0,1,3.355,0l14.662,14.662a2.373,2.373,0,0,1-3.356,3.355l-14.661-14.662a2.373,2.373,0,0,1,0-3.355" transform="translate(-23.132 -31.49)" fill="#211919"/>
      <path id="Trazado_1041477" data-name="Trazado 1041477" d="M403.628,121.879a4.217,4.217,0,1,1-4.217-4.217,4.217,4.217,0,0,1,4.217,4.217" transform="translate(-41.248 -12.281)" fill="#f26d6d"/>
      <path id="Trazado_1041478" data-name="Trazado 1041478" d="M373.008,305.558a5.906,5.906,0,1,1-5.906-5.906,5.905,5.905,0,0,1,5.906,5.906" transform="translate(-37.7 -31.276)" fill="#f26d6d"/>
      <path id="Trazado_1041479" data-name="Trazado 1041479" d="M393.692,140.719a7.9,7.9,0,1,1-7.9-7.9,7.9,7.9,0,0,1,7.9,7.9" transform="translate(-39.443 -13.863)" fill="#80d5ff"/>
      <path id="Trazado_1041480" data-name="Trazado 1041480" d="M404.873,135.639a1.791,1.791,0,1,1-1.79-1.791,1.79,1.79,0,0,1,1.79,1.791" transform="translate(-41.885 -13.97)" fill="#80d5ff"/>
      <path id="Trazado_1041481" data-name="Trazado 1041481" d="M27.318,231.974h0a1.728,1.728,0,0,1,.973-2.243l14.051-5.552a1.729,1.729,0,0,1,1.271,3.215L29.56,232.947a1.729,1.729,0,0,1-2.243-.973" transform="translate(-2.839 -23.386)" fill="#211919"/>
      <path id="Trazado_1041482" data-name="Trazado 1041482" d="M33.036,219.436h0a1.728,1.728,0,0,1,2.243.973l5.552,14.051a1.729,1.729,0,0,1-3.215,1.271l-5.552-14.051a1.729,1.729,0,0,1,.973-2.243" transform="translate(-3.334 -22.891)" fill="#211919"/>
      <path id="Trazado_1041483" data-name="Trazado 1041483" d="M197.724,296.183a25.509,25.509,0,0,1-5.2,6.568v-6.273Z" transform="translate(-20.095 -30.914)" fill="#68514a"/>
      <path id="Trazado_1041484" data-name="Trazado 1041484" d="M91.339,309.7s-.972,3.317,4.529,5.311v-9.522Z" transform="translate(-9.527 -31.886)" fill="#68514a"/>
      <path id="Trazado_1041485" data-name="Trazado 1041485" d="M97.352,299.8c-1.686,4.179-1.686,8.822-1.609,13.328q.263,15.464,1.357,30.9c18.512-1.2,37.369.244,55.882-.957,10.406-.675,20.829,3.425,30.679,0,1.127-13.234.432-33.652-1.168-46.838a7.78,7.78,0,0,0-1.18-3.83,7.951,7.951,0,0,0-3.745-2.286c-5.747-2.163-11.58-4.347-17.7-4.906-10.025-.917-19.847,2.579-29.511,5.4a229.233,229.233,0,0,1-32.51,6.962c-.168-.757-.329,2.989-.5,2.232" transform="translate(-9.99 -29.753)" fill="#f7ad68"/>
      <path id="Trazado_1041486" data-name="Trazado 1041486" d="M91.922,117.445c-9.71-.444-19.271,5.3-24.033,13.776s-4.823,19.245-.783,28.087c2.38,5.206,6.06,9.783,8.027,15.159.85,2.323,1.349,4.969.338,7.228s-4.036,3.7-6.088,2.32c-1.141-.768-1.7-2.156-2.716-3.085-2.466-2.261-6.946-.692-8.2,2.407s.155,6.79,2.61,9.062c1.832,1.7,4.492,3.795,3.385,6.032-.647,1.308-2.276,1.7-3.67,2.134a10.362,10.362,0,0,0-5.7,3.853,5.747,5.747,0,0,0-.047,6.568c1.835,2.316,5.689,2.635,6.917,5.324,1.6,3.518-2.672,6.79-3.831,10.479-1.213,3.861,1.427,8.163,5.083,9.9s7.974,1.4,11.882.348c12.479-3.35,22.1-13.132,30.337-23.089,4.49-5.429,8.825-11.141,11.334-17.724a66.013,66.013,0,0,0,3.284-14.79q1.878-13.946,2.524-28.022c.094-2.068.147-4.243-.8-6.086-1.23-2.407-3.847-3.7-5.891-5.467a8.045,8.045,0,0,1-2.334-3.317,10.5,10.5,0,0,1-.273-3.6c-.01-2.2-1.2-4.413-2.33-6.243a24.094,24.094,0,0,0-11.062-9.4,23.112,23.112,0,0,0-7.959-1.842" transform="translate(-5.639 -12.256)" fill="#5b3351"/>
      <path id="Trazado_1041487" data-name="Trazado 1041487" d="M113.562,136.11c-3.126,1.366-5.385,4.2-6.957,7.231a12.722,12.722,0,0,0-1.508,4.449,6.148,6.148,0,0,0,1.129,4.466,2.8,2.8,0,0,0,1.64,1.093,3.71,3.71,0,0,0,2.553-.839,32.3,32.3,0,0,0,11.413-13.263,2.37,2.37,0,0,0,.267-1.958,3.534,3.534,0,0,0-2.067-1.426,8.833,8.833,0,0,0-6.47.247" transform="translate(-10.965 -14.129)" fill="#ffcd82"/>
      <path id="Trazado_1041488" data-name="Trazado 1041488" d="M128.128,137.195l-5.2.459a23.224,23.224,0,0,0-6.967,1.341c-4.771,1.991-7.777,7.255-7.668,12.423a17.266,17.266,0,0,0,7.195,13.134,11.345,11.345,0,0,0,5.6,2.395c4.094.37,7.819-2.511,10.229-5.84a14.683,14.683,0,0,0,2.494-5.03c.858-3.493.226-7.084,1.35-10.558.812-2.509.724-5.711-1.611-7.474-1.531-1.156-3.612-1.008-5.415-.85" transform="translate(-11.302 -14.309)" fill="#5b3351"/>
      <path id="Trazado_1041489" data-name="Trazado 1041489" d="M100.27,192.741a56.025,56.025,0,0,0-25.6,47.01c.081,8.1,2.139,16.488,7.472,22.584,3.711,4.24,8.744,7.1,13.88,9.413-1.734,6.148-3.272,11.8-5,17.947a29.322,29.322,0,0,0-1.414,7.387,168.218,168.218,0,0,1,50.722-6.5c5.08.157,10.163.542,15.239.306,10.191-.472,20.084-3.421,29.856-6.35a201.429,201.429,0,0,0-6.916-28.358c8.784-5.985,15.308-15.305,16.794-25.831,1.834-12.987-4.948-26.281-15.378-34.236a56.979,56.979,0,0,0-36.167-11.517c-13.114.3-32.4,1.14-43.486,8.148" transform="translate(-7.794 -19.265)" fill="#b29387"/>
      <path id="Trazado_1041490" data-name="Trazado 1041490" d="M125.815,178.829s-16.77,7.932-26.236,15.841c0,0,41.185,33.141,68.089-7.291,0,0-18.939-12.1-41.853-8.55" transform="translate(-10.394 -18.597)" fill="#ffba97"/>
      <path id="Trazado_1041491" data-name="Trazado 1041491" d="M137.541,144.111c.229.535.4,1.1.591,1.65,1.084,3.188,3.273,6.292,4.188,9.531s1.011,6.941-.845,9.748c-2.024,3.063-6.74,4.277-10.274,3.281a10.878,10.878,0,0,1-7.675-7.186,3.4,3.4,0,0,1-4.092.686,4.031,4.031,0,0,1-2.139-4.11,3.856,3.856,0,0,1,3.5-3.038,19.46,19.46,0,0,1-.237-5.7,9.972,9.972,0,0,1,9.954-8.439,10.439,10.439,0,0,1,2.836.315,6.234,6.234,0,0,1,3.621,2.219,5.543,5.543,0,0,1,.572,1.043" transform="translate(-12.237 -14.668)" fill="#ffba97"/>
      <path id="Trazado_1041492" data-name="Trazado 1041492" d="M130.128,168.827c.113.349-5.876-5.66-5.869-5.293.072,3.44,1.192,14.519,1.264,17.96a107.224,107.224,0,0,0,11.312-1.978c2.114-.581.94,1.4,2.419-.216-1.335-2.509-3.773-7.6-5.109-10.11-2.5.211-1.531-.054-4.017-.364" transform="translate(-12.97 -17.067)" fill="#ffba97"/>
      <path id="Trazado_1041493" data-name="Trazado 1041493" d="M93.2,251.689c-1.358-7.926,1.831-15.991,6.259-22.7s10.1-12.524,14.619-19.178a67.887,67.887,0,0,0,11.044-28.833c.658-4.835.8-9.752,1.9-14.506a7.286,7.286,0,0,1,1.346-3.161,2.862,2.862,0,0,1,3.1-.983c1.6.644,2.132,2.232,2.436,3.934q.715,4.014,1.43,8.029a1.867,1.867,0,0,0,.445,1.082,1.277,1.277,0,0,0,1.571-.027,3.789,3.789,0,0,0,1.008-1.353,180.66,180.66,0,0,1,9.568-15.858,13.207,13.207,0,0,1,4.012-4.305,2.289,2.289,0,0,1,1.381-.389,2.022,2.022,0,0,1,1.211.721c1.663,1.866,1.077,4.754.392,7.16l-1.772,6.218a2,2,0,0,1,2.831-.008,3.616,3.616,0,0,1,1.15,3.3,2.7,2.7,0,0,1,2.9,1.914,8.174,8.174,0,0,1,.1,3.827,4.472,4.472,0,0,1,1.632,4.48,13.877,13.877,0,0,1-2.084,4.729Q148.6,204.2,136.7,222.1c-4.885,7.347-9.967,14.833-12.033,23.411,5.472,2.629,11.674.021,17.25-2.38a182.023,182.023,0,0,0,18.485-8.8c4.526-2.587,9.479-5.688,14.56-4.519,5.372,1.236,8.7,7.3,8.045,12.774s-4.5,10.154-9.112,13.166c-4.72,3.079-10.224,4.687-15.639,6.254l-32.548,9.423c-8.634,2.5-18,4.981-26.413,1.8-2.579-.974-5.31-3.164-4.829-5.88-2.084-1.821-3.153-5.551-1.95-8.044a8.953,8.953,0,0,1,.683-7.619" transform="translate(-9.599 -16.014)" fill="#ffba97"/>
      <path id="Trazado_1041494" data-name="Trazado 1041494" d="M128.819,183.8a.3.3,0,0,1-.039,0,.45.45,0,0,1-.408-.482l.088-1.014c.251-3.071.506-6.143.788-9.211.237-2.605.537-5.844,2.014-8.553.859-1.577,2.467-2.9,4.087-2.322,1.281.454,1.815,1.82,2.164,3.1a78.486,78.486,0,0,1,1.99,9.553,1.471,1.471,0,0,0,.324.911.791.791,0,0,0,.974-.147,3.169,3.169,0,0,0,.712-1.3.446.446,0,1,1,.838.3,4,4,0,0,1-.949,1.661,1.672,1.672,0,0,1-2.154.167,2.246,2.246,0,0,1-.631-1.466,78.052,78.052,0,0,0-1.961-9.443c-.29-1.054-.708-2.175-1.606-2.493-1.12-.407-2.349.7-3,1.909-1.386,2.546-1.676,5.684-1.909,8.206-.279,3.066-.534,6.134-.785,9.2l-.083,1.014a.45.45,0,0,1-.447.41" transform="translate(-13.399 -16.917)" fill="#211919"/>
      <path id="Trazado_1041495" data-name="Trazado 1041495" d="M140.35,158.178a.445.445,0,0,1-.366-.192,16.213,16.213,0,0,1-2.81-5.409A5.739,5.739,0,0,1,138.9,146.7a.447.447,0,0,1,.545.708,4.963,4.963,0,0,0-1.4,4.97,15.544,15.544,0,0,0,2.67,5.1.447.447,0,0,1-.366.7" transform="translate(-14.299 -15.302)" fill="#211919"/>
      <path id="Trazado_1041496" data-name="Trazado 1041496" d="M124.782,151.71a.429.429,0,0,1-.252-.079.443.443,0,0,1-.118-.619,6.45,6.45,0,0,1,5.445-2.77.447.447,0,0,1-.013.894c-.067,0-.119,0-.175,0a5.582,5.582,0,0,0-4.517,2.382.446.446,0,0,1-.37.2" transform="translate(-12.977 -15.472)" fill="#211919"/>
      <path id="Trazado_1041497" data-name="Trazado 1041497" d="M139.093,161.622a3.053,3.053,0,0,1-2.377-1.132.448.448,0,0,1,.7-.552,2.159,2.159,0,0,0,2.255.7.447.447,0,0,1,.262.855,2.89,2.89,0,0,1-.845.124" transform="translate(-14.26 -16.676)" fill="#211919"/>
      <path id="Trazado_1041498" data-name="Trazado 1041498" d="M154.625,177.7a.446.446,0,0,1-.391-.663l3.487-6.292a24.11,24.11,0,0,0,2.321-5.1.446.446,0,1,1,.859.237,24.741,24.741,0,0,1-2.4,5.291l-3.487,6.291a.449.449,0,0,1-.391.23" transform="translate(-16.092 -17.255)" fill="#211919"/>
      <path id="Trazado_1041499" data-name="Trazado 1041499" d="M160.334,182.214a.444.444,0,0,1-.381-.679c1.693-2.776,3.8-6.232,3.78-9.856a.448.448,0,0,1,.443-.449h0a.447.447,0,0,1,.446.445c.018,3.878-2.16,7.452-3.912,10.324a.446.446,0,0,1-.381.215" transform="translate(-16.688 -17.872)" fill="#211919"/>
      <path id="Trazado_1041500" data-name="Trazado 1041500" d="M164.246,186.018a.46.46,0,0,1-.22-.057.451.451,0,0,1-.171-.607c1.49-2.653,3.18-5.658,3.278-8.872a.447.447,0,0,1,.447-.433h.013a.446.446,0,0,1,.433.461c-.1,3.432-1.849,6.541-3.389,9.28a.449.449,0,0,1-.39.228" transform="translate(-17.097 -18.375)" fill="#211919"/>
      <path id="Trazado_1041501" data-name="Trazado 1041501" d="M149.6,181.761a.449.449,0,0,1-.423-.3,1.85,1.85,0,0,0-1.79-1.2.428.428,0,0,1-.468-.424.448.448,0,0,1,.425-.469,2.8,2.8,0,0,1,2.677,1.8.449.449,0,0,1-.272.571.457.457,0,0,1-.15.026" transform="translate(-15.335 -18.721)" fill="#211919"/>
      <path id="Trazado_1041502" data-name="Trazado 1041502" d="M155.912,185.457a.451.451,0,0,1-.377-.2,3.731,3.731,0,0,0-2.1-1.555.445.445,0,0,1-.307-.55.436.436,0,0,1,.552-.309,4.637,4.637,0,0,1,2.611,1.928.447.447,0,0,1-.136.618.428.428,0,0,1-.241.072" transform="translate(-15.981 -19.082)" fill="#211919"/>
      <path id="Trazado_1041503" data-name="Trazado 1041503" d="M160.715,188.7a.445.445,0,0,1-.366-.192,2.786,2.786,0,0,0-1.584-1.1.445.445,0,0,1-.325-.541.436.436,0,0,1,.541-.324,3.675,3.675,0,0,1,2.1,1.452.447.447,0,0,1-.111.621.442.442,0,0,1-.255.081" transform="translate(-16.536 -19.469)" fill="#211919"/>
      <path id="Trazado_1041504" data-name="Trazado 1041504" d="M164.029,192.1a.446.446,0,0,1-.419-.289,3.106,3.106,0,0,0-1.036-1.381.445.445,0,1,1,.53-.715,3.976,3.976,0,0,1,1.344,1.781.448.448,0,0,1-.262.576.455.455,0,0,1-.157.028" transform="translate(-16.95 -19.792)" fill="#211919"/>
      <path id="Trazado_1041505" data-name="Trazado 1041505" d="M162.055,159.492a.332.332,0,0,1-.042,0,3.256,3.256,0,0,1-2.681-2.471,5.658,5.658,0,0,1,.377-3.54.463.463,0,0,1,.579-.25.448.448,0,0,1,.252.581,4.793,4.793,0,0,0-.342,2.981,2.392,2.392,0,0,0,1.9,1.809.447.447,0,0,1-.042.892" transform="translate(-16.616 -15.99)" fill="#211919"/>
      <path id="Trazado_1041506" data-name="Trazado 1041506" d="M132.335,168.465a9.246,9.246,0,0,1-1.606-.173.445.445,0,0,1-.363-.517.425.425,0,0,1,.517-.363c1.089.19,2.313.34,3.054-.322a3.622,3.622,0,0,0,.889-2.046.459.459,0,0,1,.531-.342.444.444,0,0,1,.342.53,4.48,4.48,0,0,1-1.17,2.527,3.236,3.236,0,0,1-2.2.7" transform="translate(-13.606 -17.19)" fill="#211919"/>
      <path id="Trazado_1041507" data-name="Trazado 1041507" d="M109.245,269.374a15.575,15.575,0,0,1-4.925-.815,24.8,24.8,0,0,1-8.628-5.34c-.684-.622-1.637-1.267-2.237-.854a.451.451,0,0,1-.622-.119.443.443,0,0,1,.119-.619c.876-.6,2-.283,3.34.926a23.9,23.9,0,0,0,8.311,5.157,13.164,13.164,0,0,0,9.466-.215c.506-.23,1.682-.865,1.675-1.809,0-.787-.855-1.389-1.678-1.516a6.834,6.834,0,0,0-2.053.094c-.3.044-.6.087-.907.115a9.763,9.763,0,0,1-4.938-.832,4.13,4.13,0,0,1-2.443-2.377,3.55,3.55,0,0,1,.97-3.417,7.8,7.8,0,0,1,2.936-1.745,25.527,25.527,0,0,1,19.709.715.447.447,0,0,1-.377.811,24.946,24.946,0,0,0-19.015-.691,6.927,6.927,0,0,0-2.607,1.529,2.651,2.651,0,0,0-.764,2.53,3.456,3.456,0,0,0,1.961,1.832,8.9,8.9,0,0,0,4.485.756c.289-.027.579-.068.865-.108a7.633,7.633,0,0,1,2.318-.094,2.694,2.694,0,0,1,2.433,2.394c.011,1.413-1.376,2.253-2.2,2.628a12.582,12.582,0,0,1-5.194,1.065" transform="translate(-9.681 -26.55)" fill="#211919"/>
      <path id="Trazado_1041508" data-name="Trazado 1041508" d="M103.092,278.817a.426.426,0,0,1-.153-.028L99.7,277.6a17.382,17.382,0,0,1-5.371-2.74,8.936,8.936,0,0,1-2.8-4.408.449.449,0,0,1,.866-.234,7.993,7.993,0,0,0,2.513,3.961,16.439,16.439,0,0,0,5.1,2.583l3.239,1.192a.446.446,0,0,1-.153.865" transform="translate(-9.552 -28.169)" fill="#211919"/>
      <path id="Trazado_1041509" data-name="Trazado 1041509" d="M102.143,284.19c-.018,0-.035,0-.053,0a20.049,20.049,0,0,1-8.083-2.811.446.446,0,0,1,.468-.76,19.149,19.149,0,0,0,7.72,2.685.447.447,0,0,1-.052.89" transform="translate(-9.79 -29.282)" fill="#211919"/>
      <path id="Trazado_1041510" data-name="Trazado 1041510" d="M106.388,261.308a.447.447,0,0,1-.063-.89,4.583,4.583,0,0,0,3.822-4.094.448.448,0,0,1,.894.063,5.51,5.51,0,0,1-4.59,4.918c-.021,0-.042,0-.063,0" transform="translate(-11.057 -26.71)" fill="#211919"/>
      <path id="Trazado_1041511" data-name="Trazado 1041511" d="M92.682,269.742a.446.446,0,0,1-.129-.874,4.3,4.3,0,0,0,2.973-3.646.451.451,0,0,1,.485-.4.446.446,0,0,1,.4.485,5.209,5.209,0,0,1-3.6,4.421.429.429,0,0,1-.129.019" transform="translate(-9.627 -27.64)" fill="#211919"/>
      <path id="Trazado_1041512" data-name="Trazado 1041512" d="M131.638,153.568c.22.676.059,1.334-.36,1.471s-.938-.3-1.159-.976-.059-1.334.36-1.471.939.3,1.159.975" transform="translate(-13.571 -15.924)" fill="#211919"/>
      <path id="Trazado_1041513" data-name="Trazado 1041513" d="M140.6,151.58c.185.57.05,1.124-.3,1.24s-.79-.253-.975-.822-.05-1.124.3-1.24.791.253.976.822" transform="translate(-14.533 -15.733)" fill="#211919"/>
      <path id="Trazado_1041514" data-name="Trazado 1041514" d="M111.781,218.994a.447.447,0,0,1-.356-.719c9.43-12.285,14.589-23.983,15.336-34.769a.465.465,0,0,1,.478-.414.447.447,0,0,1,.415.476c-.76,10.962-5.982,22.824-15.517,35.251a.454.454,0,0,1-.356.175" transform="translate(-11.62 -19.11)" fill="#211919"/>
      <path id="Trazado_1041515" data-name="Trazado 1041515" d="M152.294,210.982a.437.437,0,0,1-.234-.066.445.445,0,0,1-.147-.613l13.322-21.793a14.189,14.189,0,0,0,2.175-4.841,4.45,4.45,0,0,0-1.6-4.441.446.446,0,1,1,.482-.75,5.331,5.331,0,0,1,2,5.334A14.73,14.73,0,0,1,166,188.976l-13.322,21.791a.446.446,0,0,1-.381.215" transform="translate(-15.849 -18.621)" fill="#211919"/>
      <path id="Trazado_1041516" data-name="Trazado 1041516" d="M108.438,278.672h-.014a.448.448,0,0,1-.433-.46A7.611,7.611,0,0,1,109,274.658a.448.448,0,0,1,.776.447,6.63,6.63,0,0,0-.89,3.135.447.447,0,0,1-.447.433" transform="translate(-11.272 -28.644)" fill="#211919"/>
      <path id="Trazado_1041517" data-name="Trazado 1041517" d="M107.707,285.38a.444.444,0,0,1-.44-.375,7.368,7.368,0,0,1,.192-3.216.459.459,0,0,1,.555-.305.447.447,0,0,1,.3.554,6.506,6.506,0,0,0-.171,2.825.446.446,0,0,1-.366.513.5.5,0,0,1-.073.005" transform="translate(-11.186 -29.378)" fill="#211919"/>
      <path id="Trazado_1041518" data-name="Trazado 1041518" d="M174.524,233.162a.447.447,0,0,1-.443-.392,30.928,30.928,0,0,1-.157-3.661c0-3.135,0-6.59,1.564-9.534.174-.328.37-.653.562-.977a4.57,4.57,0,0,0,.845-4.627l-.066-.27a22.267,22.267,0,0,1,4.32-19.082.446.446,0,0,1,.691.565,21.374,21.374,0,0,0-4.147,18.3l.066.265a7.111,7.111,0,0,1,.314,2.136,7.025,7.025,0,0,1-1.257,3.171c-.188.311-.374.622-.541.936-1.459,2.749-1.459,6.085-1.459,9.029a30.892,30.892,0,0,0,.15,3.639.444.444,0,0,1-.388.5c-.021,0-.038,0-.056,0" transform="translate(-18.153 -20.296)" fill="#211919"/>
      <path id="Trazado_1041519" data-name="Trazado 1041519" d="M193.569,242.15a.448.448,0,0,1-.443-.386,8.8,8.8,0,0,0-4.346-5.971,24.3,24.3,0,0,0-7.4-2.613.448.448,0,0,1,.2-.873,25.479,25.479,0,0,1,7.665,2.724,9.576,9.576,0,0,1,4.764,6.611.449.449,0,0,1-.381.5c-.021,0-.042,0-.063,0" transform="translate(-18.896 -24.246)" fill="#211919"/>
      <path id="Trazado_1041520" data-name="Trazado 1041520" d="M190.395,231.408a.448.448,0,0,1-.366-.19,3.565,3.565,0,0,0-2.638-1.486.446.446,0,0,1-.419-.473.459.459,0,0,1,.475-.416,4.421,4.421,0,0,1,3.316,1.862.449.449,0,0,1-.111.622.442.442,0,0,1-.255.081" transform="translate(-19.515 -23.885)" fill="#211919"/>
      <path id="Trazado_1041521" data-name="Trazado 1041521" d="M107.4,221.071a.447.447,0,0,1-.422-.3c-2.423-7.131-5.061-13.825-10.705-17.372a.447.447,0,0,1,.475-.758c5.891,3.7,8.6,10.554,11.074,17.844a.444.444,0,0,1-.279.566.408.408,0,0,1-.143.024" transform="translate(-10.027 -21.143)" fill="#211919"/>
      <path id="Trazado_1041522" data-name="Trazado 1041522" d="M121.854,171.154a1.668,1.668,0,0,1-.237-.019,2.541,2.541,0,0,1-1.72-1.283,8.888,8.888,0,0,1-.381-.826,2.19,2.19,0,0,0-1.867-1.782l-.15-.043a13.655,13.655,0,0,1-9.654-15.226.426.426,0,0,1,.509-.373.446.446,0,0,1,.371.511,12.76,12.76,0,0,0,9.025,14.228l.147.042a4.005,4.005,0,0,1,1.3.556,3.821,3.821,0,0,1,1.142,1.742,8.061,8.061,0,0,0,.339.74,1.69,1.69,0,0,0,1.075.829.543.543,0,0,0,.433-.121.452.452,0,0,1,.632.011.447.447,0,0,1-.011.631,1.348,1.348,0,0,1-.953.381" transform="translate(-11.24 -15.823)" fill="#211919"/>
      <path id="Trazado_1041523" data-name="Trazado 1041523" d="M76.979,192.995a.447.447,0,0,1-.049-.892c3.348-.361,5.613-3.858,6.373-7.163a21.94,21.94,0,0,0-2.08-14.559c-.636-1.282-1.389-2.546-2.119-3.771a29.16,29.16,0,0,1-3.626-7.7,14.834,14.834,0,0,1,11.19-18.083,25,25,0,0,1,7.79-.193,38.478,38.478,0,0,1,9.124,1.811.451.451,0,0,1,.272.571.441.441,0,0,1-.572.27,37.614,37.614,0,0,0-8.907-1.763,24.268,24.268,0,0,0-7.512.176A13.944,13.944,0,0,0,76.344,158.69a28.53,28.53,0,0,0,3.529,7.461c.736,1.24,1.5,2.518,2.153,3.831a22.844,22.844,0,0,1,2.15,15.157c-.772,3.349-3.107,7.417-7.148,7.855a.488.488,0,0,1-.049,0" transform="translate(-7.832 -14.656)" fill="#211919"/>
      <path id="Trazado_1041524" data-name="Trazado 1041524" d="M70.747,199.01a.453.453,0,0,1-.269-.089l-1.581-1.18a3.971,3.971,0,0,0-2.447-1.078,1.3,1.3,0,0,0-1,.773.6.6,0,0,0,.053.643.449.449,0,0,1-.056.63.444.444,0,0,1-.628-.055,1.473,1.473,0,0,1-.2-1.561,2.19,2.19,0,0,1,1.745-1.319,4.465,4.465,0,0,1,3.058,1.251l1.584,1.181a.445.445,0,0,1,.087.624.436.436,0,0,1-.356.18" transform="translate(-6.731 -20.432)" fill="#211919"/>
      <path id="Trazado_1041525" data-name="Trazado 1041525" d="M66.668,224.813a.484.484,0,0,1-.15-.026.45.45,0,0,1-.272-.569c.342-.973-.373-2.072-1.158-2.778-.276-.248-.573-.478-.87-.71a7.789,7.789,0,0,1-1.919-1.906,4.123,4.123,0,0,1,3.274-6.294.473.473,0,0,1,.471.422.446.446,0,0,1-.422.471,3.229,3.229,0,0,0-2.562,4.929,7.02,7.02,0,0,0,1.711,1.675c.314.243.625.487.918.749,1.291,1.166,1.818,2.564,1.4,3.74a.45.45,0,0,1-.422.3" transform="translate(-6.439 -22.183)" fill="#211919"/>
      <path id="Trazado_1041526" data-name="Trazado 1041526" d="M65.271,234.486a.445.445,0,0,1-.328-.749,7.2,7.2,0,0,0,1.48-2.486.447.447,0,0,1,.845.293,8.1,8.1,0,0,1-1.669,2.8.44.44,0,0,1-.328.145" transform="translate(-6.766 -24.106)" fill="#211919"/>
      <path id="Trazado_1041527" data-name="Trazado 1041527" d="M70.98,146.048a.511.511,0,0,1-.087-.009.447.447,0,0,1-.353-.523,16.864,16.864,0,0,1,8.272-11.378.442.442,0,0,1,.607.174.449.449,0,0,1-.175.608,15.959,15.959,0,0,0-7.825,10.767.45.45,0,0,1-.44.361" transform="translate(-7.362 -13.995)" fill="#211919"/>
      <path id="Trazado_1041528" data-name="Trazado 1041528" d="M103.928,135.315a.422.422,0,0,1-.258-.084,37.645,37.645,0,0,0-7.372-4.455,12.373,12.373,0,0,0-8.233-.691.446.446,0,0,1-.265-.851,13.3,13.3,0,0,1,8.841.715,38.268,38.268,0,0,1,7.546,4.557.446.446,0,0,1-.258.81" transform="translate(-9.131 -13.439)" fill="#211919"/>
      <path id="Trazado_1041529" data-name="Trazado 1041529" d="M89.213,187.586a.478.478,0,0,1-.153-.026.449.449,0,0,1-.266-.572,19.971,19.971,0,0,0-.565-14.933.448.448,0,0,1,.817-.367,20.885,20.885,0,0,1,.587,15.6.448.448,0,0,1-.419.295" transform="translate(-9.205 -17.892)" fill="#211919"/>
      <path id="Trazado_1041530" data-name="Trazado 1041530" d="M70.015,224.733a.447.447,0,0,1-.262-.808c1.2-.871,1.13-2.767.716-4.127-.143-.465-.322-.925-.5-1.384a9.549,9.549,0,0,1-.854-3.574,9.25,9.25,0,0,1,.847-3.246,6.633,6.633,0,0,1,1.431-2.412,2.65,2.65,0,0,1,2.914-.622.444.444,0,0,1,.206.6.438.438,0,0,1-.6.206,1.789,1.789,0,0,0-1.909.466,5.852,5.852,0,0,0-1.214,2.1,8.34,8.34,0,0,0-.785,2.929,8.817,8.817,0,0,0,.8,3.239c.184.478.366.957.513,1.44.53,1.719.534,3.964-1.044,5.111a.439.439,0,0,1-.262.085" transform="translate(-7.214 -21.746)" fill="#211919"/>
      <path id="Trazado_1041531" data-name="Trazado 1041531" d="M151.517,346.258a.447.447,0,0,1-.443-.4,63.017,63.017,0,0,1-.258-15.755c.579-4.077,2.16-9.874,6.429-14.331a.446.446,0,1,1,.642.618c-4.1,4.286-5.626,9.891-6.185,13.838a62.261,62.261,0,0,0,.259,15.528.444.444,0,0,1-.394.493.453.453,0,0,1-.049,0" transform="translate(-15.7 -32.945)" fill="#211919"/>
      <path id="Trazado_1041532" data-name="Trazado 1041532" d="M155.751,327.036a.454.454,0,0,1-.269-.089.449.449,0,0,1-.088-.627,25.032,25.032,0,0,1,3.672-3.926.448.448,0,0,1,.587.677,24.066,24.066,0,0,0-3.546,3.787.442.442,0,0,1-.356.178" transform="translate(-16.21 -33.638)" fill="#211919"/>
      <path id="Trazado_1041533" data-name="Trazado 1041533" d="M163.108,320.326a.448.448,0,0,1-.314-.766l2.175-2.14a.447.447,0,1,1,.629.635l-2.175,2.143a.452.452,0,0,1-.314.127" transform="translate(-16.978 -33.117)" fill="#211919"/>
      <path id="Trazado_1041534" data-name="Trazado 1041534" d="M96.19,320.63a.447.447,0,0,1-.052-.89c2.307-.269,4.282-1.875,5.912-3.41,3.814-3.6,6.077-7.043,6.918-10.542a.454.454,0,0,1,.537-.33.443.443,0,0,1,.328.539c-.88,3.674-3.224,7.264-7.169,10.982-1.738,1.637-3.857,3.349-6.422,3.647a.512.512,0,0,1-.053,0" transform="translate(-9.993 -31.881)" fill="#211919"/>
      <path id="Trazado_1041535" data-name="Trazado 1041535" d="M193.112,309.934a.427.427,0,0,1-.223-.061,17,17,0,0,1-7.616-9.6.446.446,0,1,1,.852-.262,16.122,16.122,0,0,0,7.211,9.092.446.446,0,0,1-.223.833" transform="translate(-19.336 -31.281)" fill="#211919"/>
      <path id="Trazado_1041536" data-name="Trazado 1041536" d="M103.474,347.395a.445.445,0,0,1-.44-.366,240.152,240.152,0,0,1-3.3-26.04.534.534,0,0,1-.29-.2.608.608,0,0,1,.049-.68.55.55,0,0,1,.6-.2.774.774,0,0,1,.513.785,239.378,239.378,0,0,0,3.308,26.176.446.446,0,0,1-.359.519.407.407,0,0,1-.081.007" transform="translate(-10.37 -33.388)" fill="#211919"/>
      <path id="Trazado_1041537" data-name="Trazado 1041537" d="M43.761,274.361c-2.421-2.838-5.3-5.608-8.956-6.35a5.88,5.88,0,0,0-5.346,1.245c-1.34,1.359-1.391,3.967.221,4.987-2,1.376-4.366-.95-6.335-2.374-3.589-2.6-8.65-2.235-12.66-.354A19.8,19.8,0,0,0,.953,281.647,8.971,8.971,0,0,0,.235,287.5c.549,1.927,2.409,3.58,4.4,3.334,3.048-.378,4.318-4.488,7.256-5.387,4.306-1.319,7.854,5,12.318,4.408,2.8-.373,4.467-3.268,6.905-4.683,2.3-1.334,5.167-1.263,7.749-.64s5.02,1.745,7.589,2.424a4.9,4.9,0,0,0,3.786-.141c2.457-1.5-.2-3.86-1.128-5.286a68.993,68.993,0,0,0-5.346-7.165" transform="translate(0 -27.957)" fill="#7ccea6"/>
      <path id="Trazado_1041538" data-name="Trazado 1041538" d="M45.744,245.6a5.932,5.932,0,0,0-3.292-1.811,2.713,2.713,0,0,0-3.008,1.921,5.57,5.57,0,0,1-.209,1.411,1.666,1.666,0,0,1-1.923.714,6.33,6.33,0,0,1-1.932-1.077c-5.588-3.816-19.715-2.854-19.363,6.371a4.717,4.717,0,0,0,2.564,4.1c1.54.7,3.322.354,5.011.249s3.663.216,4.51,1.681a11.893,11.893,0,0,0,.833,1.682,2.652,2.652,0,0,0,2.364.777,15.9,15.9,0,0,0,2.5-.67,10.412,10.412,0,0,1,10.268,2.939c.957,1.049,1.686,2.287,2.606,3.368a5.9,5.9,0,0,0,3.518,2.228,2.95,2.95,0,0,0,3.306-2.016,4.554,4.554,0,0,0-.039-1.576,66.789,66.789,0,0,0-2.154-10.8,22.353,22.353,0,0,0-5.49-9.427l-.074-.072" transform="translate(-1.671 -25.444)" fill="#7ccea6"/>
      <path id="Trazado_1041539" data-name="Trazado 1041539" d="M35.547,292.672a4.046,4.046,0,0,0-2.235,1.24,1.847,1.847,0,0,0,.018,2.428c.241.219.562.357.738.631a1.134,1.134,0,0,1-.286,1.366,4.286,4.286,0,0,1-1.319.723c-4.22,1.837-8.782,10.322-3.34,13.459a3.21,3.21,0,0,0,3.293.009,7.126,7.126,0,0,0,1.957-2.8c.552-1.01,1.45-2.031,2.6-1.989a8.066,8.066,0,0,0,1.27.13,1.808,1.808,0,0,0,1.3-1.081,10.854,10.854,0,0,0,.519-1.685,7.085,7.085,0,0,1,5.41-4.851c.951-.172,1.927-.143,2.884-.282a4.008,4.008,0,0,0,2.557-1.219,2.007,2.007,0,0,0,.036-2.634,3.093,3.093,0,0,0-.922-.547,45.311,45.311,0,0,0-7-2.668,15.2,15.2,0,0,0-7.418-.251l-.068.017" transform="translate(-2.78 -30.509)" fill="#7ccea6"/>
      <path id="Trazado_1041540" data-name="Trazado 1041540" d="M61.059,325.137a.387.387,0,0,1-.389-.356c-1.129-12.659-2.292-25.746-4.171-38.591-.93-6.366-2.1-13.067-5.269-18.881a30.974,30.974,0,0,0-26.479-15.734.391.391,0,1,1,0-.783,31.766,31.766,0,0,1,27.165,16.142c3.228,5.927,4.418,12.706,5.36,19.142,1.879,12.867,3.045,25.966,4.171,38.634a.389.389,0,0,1-.355.425.219.219,0,0,1-.034,0" transform="translate(-2.542 -26.177)" fill="#211919"/>
      <path id="Trazado_1041541" data-name="Trazado 1041541" d="M56.232,327.545a.392.392,0,0,1-.391-.37,241.586,241.586,0,0,0-3.121-27.9c-.8-4.68-1.812-9.582-4.517-13.56-2.444-3.6-7.117-6.824-11.957-5.9a19.1,19.1,0,0,0-4.046,1.428,15.464,15.464,0,0,1-5.339,1.608c-.144.006-.285.011-.423.011-2.472,0-4.749-1.1-6.955-2.156-.991-.477-2.02-.971-3.042-1.352a8.853,8.853,0,0,0-6.72.135A3.753,3.753,0,0,0,7.7,281.919a.393.393,0,1,1-.759-.2A4.568,4.568,0,0,1,9.361,278.8a9.646,9.646,0,0,1,7.356-.175c1.056.393,2.1.9,3.106,1.38,2.344,1.128,4.58,2.214,6.995,2.069a14.674,14.674,0,0,0,5.067-1.542,19.85,19.85,0,0,1,4.213-1.481c5.232-.983,10.164,2.421,12.754,6.227,2.793,4.106,3.822,9.1,4.638,13.869a242.113,242.113,0,0,1,3.133,27.988.393.393,0,0,1-.37.413Z" transform="translate(-0.723 -29.015)" fill="#211919"/>
      <path id="Trazado_1041542" data-name="Trazado 1041542" d="M54.366,331.616a.392.392,0,0,1-.364-.249c-1.913-4.89-1.851-10.283-1.79-15.5.064-5.41.132-11-2.056-15.913a5.827,5.827,0,0,0-1.668-2.374c-1.251-.929-3.111-.974-5.539-.127a23.037,23.037,0,0,0-12.156,10.061.392.392,0,0,1-.68-.391,23.85,23.85,0,0,1,12.579-10.41c2.681-.939,4.8-.852,6.26.239a6.631,6.631,0,0,1,1.919,2.685c2.254,5.065,2.187,10.746,2.124,16.24-.058,5.139-.123,10.455,1.735,15.2a.392.392,0,0,1-.365.534" transform="translate(-3.138 -30.902)" fill="#211919"/>
      <rect id="Rectángulo_415619" data-name="Rectángulo 415619" width="22.961" height="20.233" transform="translate(42.673 294.036)" fill="#f26d6d"/>
      <path id="Trazado_1041543" data-name="Trazado 1041543" d="M10.684,256a1.661,1.661,0,1,1-1.66-1.66,1.66,1.66,0,0,1,1.66,1.66" transform="translate(-0.768 -26.547)" fill="#ffaec1"/>
      <path id="Trazado_1041544" data-name="Trazado 1041544" d="M17.566,262.541A1.761,1.761,0,1,1,15.8,260.78a1.761,1.761,0,0,1,1.761,1.761" transform="translate(-1.466 -27.219)" fill="#ffaec1"/>
      <path id="Trazado_1041545" data-name="Trazado 1041545" d="M19.826,297.331a1.262,1.262,0,1,1-1.262-1.262,1.262,1.262,0,0,1,1.262,1.262" transform="translate(-1.806 -30.902)" fill="#ffaec1"/>
      <path id="Trazado_1041546" data-name="Trazado 1041546" d="M65.714,269.315a1.278,1.278,0,1,1-1.278-1.278,1.278,1.278,0,0,1,1.278,1.278" transform="translate(-6.592 -27.976)" fill="#ffaec1"/>
      <path id="Trazado_1041547" data-name="Trazado 1041547" d="M68.131,286.882a1.06,1.06,0,1,1-1.06-1.06,1.06,1.06,0,0,1,1.06,1.06" transform="translate(-6.89 -29.833)" fill="#ffaec1"/>
      <path id="Trazado_1041548" data-name="Trazado 1041548" d="M147.776,142.311a.382.382,0,0,1-.153-.032.392.392,0,0,1-.208-.514l7.68-17.9a.4.4,0,0,1,.514-.205.392.392,0,0,1,.208.514l-7.68,17.9a.392.392,0,0,1-.361.237" transform="translate(-15.383 -12.904)" fill="#211919"/>
      <path id="Trazado_1041549" data-name="Trazado 1041549" d="M153.875,142.95a.38.38,0,0,1-.133-.023.392.392,0,0,1-.238-.5,12.574,12.574,0,0,1,3.567-5.234.391.391,0,0,1,.514.59,11.78,11.78,0,0,0-3.342,4.907.391.391,0,0,1-.369.26" transform="translate(-16.02 -14.31)" fill="#211919"/>
      <path id="Trazado_1041550" data-name="Trazado 1041550" d="M158.183,145.6a.393.393,0,0,1-.275-.672,123.739,123.739,0,0,1,14.4-12.083.392.392,0,0,1,.459.636,122.474,122.474,0,0,0-14.311,12.007.392.392,0,0,1-.275.112" transform="translate(-16.47 -13.858)" fill="#211919"/>
      <path id="Trazado_1041551" data-name="Trazado 1041551" d="M260.207,339.995h0a2.089,2.089,0,0,1-2.089-2.089V246.472H262.3v91.434a2.089,2.089,0,0,1-2.089,2.089" transform="translate(-26.941 -25.726)" fill="#211919"/>
      <path id="Trazado_1041552" data-name="Trazado 1041552" d="M327.075,339.995h0a2.088,2.088,0,0,1-2.089-2.089V246.472h4.176v91.434a2.088,2.088,0,0,1-2.088,2.089" transform="translate(-33.92 -25.726)" fill="#211919"/>
      <rect id="Rectángulo_415620" data-name="Rectángulo 415620" width="59.559" height="3.479" transform="translate(232.811 236.853)" fill="#211919"/>
      <path id="Trazado_1041553" data-name="Trazado 1041553" d="M341.87,228.773H231.355a7.133,7.133,0,0,1-7.133-7.133V72.437a7.133,7.133,0,0,1,7.133-7.133H341.87A7.132,7.132,0,0,1,349,72.437v149.2a7.133,7.133,0,0,1-7.133,7.133" transform="translate(-23.403 -6.816)" fill="#fff"/>
      <path id="Trazado_1041554" data-name="Trazado 1041554" d="M341.635,230.565H231.118a9.171,9.171,0,0,1-9.16-9.161V72.2a9.172,9.172,0,0,1,9.16-9.16H341.635a9.172,9.172,0,0,1,9.16,9.16V221.4a9.171,9.171,0,0,1-9.16,9.161M231.118,67.1a5.11,5.11,0,0,0-5.1,5.1V221.4a5.11,5.11,0,0,0,5.1,5.105H341.635a5.111,5.111,0,0,0,5.1-5.105V72.2a5.11,5.11,0,0,0-5.1-5.1Z" transform="translate(-23.167 -6.58)" fill="#f7ad68"/>
      <rect id="Rectángulo_415621" data-name="Rectángulo 415621" width="3.212" height="12.862" transform="translate(213.719 198.746)" fill="#337d7f"/>
      <rect id="Rectángulo_415622" data-name="Rectángulo 415622" width="3.212" height="18.448" transform="translate(222.164 193.16)" fill="#337d7f"/>
      <rect id="Rectángulo_415623" data-name="Rectángulo 415623" width="3.212" height="9.67" transform="translate(230.61 201.938)" fill="#337d7f"/>
      <rect id="Rectángulo_415624" data-name="Rectángulo 415624" width="3.212" height="20.044" transform="translate(239.055 191.564)" fill="#337d7f"/>
      <rect id="Rectángulo_415625" data-name="Rectángulo 415625" width="3.212" height="6.478" transform="translate(247.5 205.13)" fill="#337d7f"/>
      <rect id="Rectángulo_415626" data-name="Rectángulo 415626" width="3.212" height="16.054" transform="translate(255.945 195.554)" fill="#337d7f"/>
      <rect id="Rectángulo_415627" data-name="Rectángulo 415627" width="3.212" height="26.429" transform="translate(264.39 185.179)" fill="#337d7f"/>
      <rect id="Rectángulo_415628" data-name="Rectángulo 415628" width="3.212" height="21.64" transform="translate(272.835 189.968)" fill="#337d7f"/>
      <rect id="Rectángulo_415629" data-name="Rectángulo 415629" width="3.212" height="19.246" transform="translate(281.281 192.362)" fill="#337d7f"/>
      <rect id="Rectángulo_415630" data-name="Rectángulo 415630" width="3.212" height="26.429" transform="translate(289.726 185.179)" fill="#337d7f"/>
      <rect id="Rectángulo_415631" data-name="Rectángulo 415631" width="3.212" height="28.823" transform="translate(298.171 182.785)" fill="#337d7f"/>
      <rect id="Rectángulo_415632" data-name="Rectángulo 415632" width="3.212" height="30.419" transform="translate(306.616 181.189)" fill="#337d7f"/>
      <rect id="Rectángulo_415633" data-name="Rectángulo 415633" width="3.212" height="14.905" transform="translate(213.719 181.654)" fill="#fdac29"/>
      <rect id="Rectángulo_415634" data-name="Rectángulo 415634" width="3.212" height="6.904" transform="translate(222.164 184.381)" fill="#fdac29"/>
      <rect id="Rectángulo_415635" data-name="Rectángulo 415635" width="3.212" height="12.178" transform="translate(230.61 188.018)" fill="#fdac29"/>
      <rect id="Rectángulo_415636" data-name="Rectángulo 415636" width="3.212" height="6.904" transform="translate(239.055 182.563)" fill="#fdac29"/>
      <rect id="Rectángulo_415637" data-name="Rectángulo 415637" width="3.212" height="17.631" transform="translate(247.5 186.2)" fill="#fdac29"/>
      <rect id="Rectángulo_415638" data-name="Rectángulo 415638" width="3.212" height="6.904" transform="translate(255.945 187.109)" fill="#fdac29"/>
      <rect id="Rectángulo_415639" data-name="Rectángulo 415639" width="3.212" height="9.393" transform="translate(264.39 172.803)" fill="#fdac29"/>
      <rect id="Rectángulo_415640" data-name="Rectángulo 415640" width="3.212" height="6.904" transform="translate(272.835 179.837)" fill="#fdac29"/>
      <rect id="Rectángulo_415641" data-name="Rectángulo 415641" width="3.212" height="4.177" transform="translate(281.281 186.199)" fill="#fdac29"/>
      <rect id="Rectángulo_415642" data-name="Rectángulo 415642" width="3.212" height="3.268" transform="translate(289.726 180.198)" fill="#fdac29"/>
      <rect id="Rectángulo_415643" data-name="Rectángulo 415643" width="3.212" height="6.709" transform="translate(298.171 174.031)" fill="#fdac29"/>
      <rect id="Rectángulo_415644" data-name="Rectángulo 415644" width="3.212" height="7.856" transform="translate(306.616 171.065)" fill="#fdac29"/>
      <path id="Trazado_1041555" data-name="Trazado 1041555" d="M270.943,197.755H257.135l-4.125-4.125H238.593a.272.272,0,0,1,0-.545h14.643l4.125,4.125h13.357l15.674-15.674h15.789l8.038,8.037h8.627l6.771-6.77h11.958a.272.272,0,0,1,0,.545H325.842l-6.771,6.771h-9.077l-8.039-8.038H286.618Z" transform="translate(-24.875 -18.948)" fill="#fdac29"/>
      <path id="Trazado_1041556" data-name="Trazado 1041556" d="M255.484,194.644a.749.749,0,1,1-.749-.75.748.748,0,0,1,.749.75" transform="translate(-26.51 -20.238)" fill="#fdac29"/>
      <path id="Trazado_1041557" data-name="Trazado 1041557" d="M260.148,199.254a.749.749,0,1,1-.749-.75.749.749,0,0,1,.749.75" transform="translate(-26.997 -20.719)" fill="#fdac29"/>
      <path id="Trazado_1041558" data-name="Trazado 1041558" d="M275.28,199.254a.749.749,0,1,1-.75-.75.749.749,0,0,1,.75.75" transform="translate(-28.576 -20.719)" fill="#fdac29"/>
      <path id="Trazado_1041559" data-name="Trazado 1041559" d="M292.8,181.753a.749.749,0,1,1-.749-.749.75.75,0,0,1,.749.749" transform="translate(-30.405 -18.892)" fill="#fdac29"/>
      <path id="Trazado_1041560" data-name="Trazado 1041560" d="M310.16,181.753a.75.75,0,1,1-.75-.749.75.75,0,0,1,.75.749" transform="translate(-32.217 -18.892)" fill="#fdac29"/>
      <path id="Trazado_1041561" data-name="Trazado 1041561" d="M319.044,190.652a.749.749,0,1,1-.749-.75.749.749,0,0,1,.749.75" transform="translate(-33.144 -19.821)" fill="#fdac29"/>
      <path id="Trazado_1041562" data-name="Trazado 1041562" d="M329.018,190.652a.749.749,0,1,1-.75-.75.75.75,0,0,1,.75.75" transform="translate(-34.185 -19.821)" fill="#fdac29"/>
      <path id="Trazado_1041563" data-name="Trazado 1041563" d="M336.623,183.314a.749.749,0,1,1-.749-.75.749.749,0,0,1,.749.75" transform="translate(-34.979 -19.055)" fill="#fdac29"/>
      <path id="Trazado_1041564" data-name="Trazado 1041564" d="M280.912,192.888l-22.9-8.779H238.625v-.545l19.531.018,22.635,8.677,18.542-17.14h16.592l3.326,3.326h5.688l6.533-6.534h6.134v.545H331.7l-6.534,6.533h-6.139l-3.326-3.326H299.546Z" transform="translate(-24.906 -17.943)" fill="#337d7f"/>
      <path id="Trazado_1041565" data-name="Trazado 1041565" d="M261.294,185.249a.783.783,0,1,1-.783-.784.783.783,0,0,1,.783.784" transform="translate(-27.109 -19.253)" fill="#337d7f"/>
      <path id="Trazado_1041566" data-name="Trazado 1041566" d="M286.464,194.89a.783.783,0,1,1-.783-.784.782.782,0,0,1,.783.784" transform="translate(-29.736 -20.26)" fill="#337d7f"/>
      <path id="Trazado_1041567" data-name="Trazado 1041567" d="M307.2,175.857a.783.783,0,1,1-.783-.783.783.783,0,0,1,.783.783" transform="translate(-31.9 -18.273)" fill="#337d7f"/>
      <path id="Trazado_1041568" data-name="Trazado 1041568" d="M325.55,175.857a.783.783,0,1,1-.783-.783.784.784,0,0,1,.783.783" transform="translate(-33.816 -18.273)" fill="#337d7f"/>
      <path id="Trazado_1041569" data-name="Trazado 1041569" d="M329.353,179.406a.783.783,0,1,1-.784-.784.784.784,0,0,1,.784.784" transform="translate(-34.213 -18.644)" fill="#337d7f"/>
      <path id="Trazado_1041570" data-name="Trazado 1041570" d="M335.816,179.406a.783.783,0,1,1-.783-.784.783.783,0,0,1,.783.784" transform="translate(-34.887 -18.644)" fill="#337d7f"/>
      <path id="Trazado_1041571" data-name="Trazado 1041571" d="M343.04,172.125a.783.783,0,1,1-.784-.784.783.783,0,0,1,.784.784" transform="translate(-35.641 -17.884)" fill="#337d7f"/>
      <path id="Trazado_1041572" data-name="Trazado 1041572" d="M237.346,169.363a.361.361,0,0,1-.26-.613c7.248-7.465,14.773-14.876,22.37-22.028a.36.36,0,1,1,.493.525c-7.588,7.146-15.1,14.549-22.344,22.005a.362.362,0,0,1-.26.11" transform="translate(-24.735 -15.304)" fill="#211919"/>
      <path id="Trazado_1041573" data-name="Trazado 1041573" d="M286.139,166.255a.369.369,0,0,1-.248-.1,200.446,200.446,0,0,1-18.009-19.39.362.362,0,0,1,.561-.458,199.364,199.364,0,0,0,17.945,19.323.362.362,0,0,1,.014.51.356.356,0,0,1-.262.113" transform="translate(-27.952 -15.257)" fill="#211919"/>
      <path id="Trazado_1041574" data-name="Trazado 1041574" d="M277.342,155.78a.36.36,0,0,1-.244-.626l17.793-16.377a.36.36,0,1,1,.488.53l-17.794,16.377a.354.354,0,0,1-.244.1" transform="translate(-28.91 -14.475)" fill="#211919"/>
      <path id="Trazado_1041575" data-name="Trazado 1041575" d="M313.859,150.712a.367.367,0,0,1-.23-.081c-4.156-3.445-8.2-7.124-12.024-10.936a.362.362,0,0,1,.51-.513c3.806,3.8,7.835,7.462,11.974,10.89a.362.362,0,0,1-.23.64" transform="translate(-31.469 -14.516)" fill="#211919"/>
      <path id="Trazado_1041576" data-name="Trazado 1041576" d="M269.855,143.959a5.417,5.417,0,1,1-5.417-5.417,5.417,5.417,0,0,1,5.417,5.417" transform="translate(-27.035 -14.46)" fill="#ffcd82"/>
      <path id="Trazado_1041577" data-name="Trazado 1041577" d="M303.345,138.407a5.417,5.417,0,1,1-5.417-5.417,5.417,5.417,0,0,1,5.417,5.417" transform="translate(-30.531 -13.881)" fill="#80d5ff"/>
      <path id="Trazado_1041578" data-name="Trazado 1041578" d="M264.068,150.032a5.434,5.434,0,0,1-5.385-6.447.361.361,0,0,1,.71.135,4.729,4.729,0,0,0,6.343,5.288.36.36,0,1,1,.259.671,5.31,5.31,0,0,1-1.927.353" transform="translate(-26.991 -14.956)" fill="#211919"/>
      <path id="Trazado_1041579" data-name="Trazado 1041579" d="M297.578,144.418a5.437,5.437,0,0,1-5.382-6.449.358.358,0,0,1,.422-.287.362.362,0,0,1,.289.423,4.726,4.726,0,0,0,6.341,5.287.36.36,0,1,1,.26.672,5.332,5.332,0,0,1-1.93.356" transform="translate(-30.489 -14.37)" fill="#211919"/>
      <path id="Trazado_1041580" data-name="Trazado 1041580" d="M289.658,124.847H244.78a5.718,5.718,0,0,1-5.711-5.711V92.576a5.717,5.717,0,0,1,5.711-5.711h44.878a5.717,5.717,0,0,1,5.711,5.711v26.559a5.718,5.718,0,0,1-5.711,5.711m-44.878-37.3a5.036,5.036,0,0,0-5.031,5.031v26.559a5.036,5.036,0,0,0,5.031,5.031h44.878a5.036,5.036,0,0,0,5.031-5.031V92.576a5.036,5.036,0,0,0-5.031-5.031Z" transform="translate(-24.953 -9.067)" fill="#211919"/>
      <path id="Trazado_1041581" data-name="Trazado 1041581" d="M274.1,120.906h-8.657a1.953,1.953,0,0,1-1.953-1.953V104.693a1.953,1.953,0,0,1,1.953-1.953H274.1a1.954,1.954,0,0,1,1.954,1.953v14.259a1.954,1.954,0,0,1-1.954,1.953" transform="translate(-27.501 -10.723)" fill="#4bb2a1"/>
      <path id="Trazado_1041582" data-name="Trazado 1041582" d="M256.082,119.9h-8.657a1.954,1.954,0,0,1-1.953-1.953V95.069a1.954,1.954,0,0,1,1.953-1.953h8.657a1.953,1.953,0,0,1,1.953,1.953v22.879a1.953,1.953,0,0,1-1.953,1.953" transform="translate(-25.621 -9.719)" fill="#4bb2a1"/>
      <path id="Trazado_1041583" data-name="Trazado 1041583" d="M292.109,121.81h-8.657a1.953,1.953,0,0,1-1.953-1.953v-6.5a1.953,1.953,0,0,1,1.953-1.953h8.657a1.953,1.953,0,0,1,1.953,1.953v6.5a1.953,1.953,0,0,1-1.953,1.953" transform="translate(-29.381 -11.628)" fill="#4bb2a1"/>
      <path id="Trazado_1041584" data-name="Trazado 1041584" d="M467.105,253.187s15.1,33.679,17.807,87.487H440.188l-2.6-.262-1.931.262H401.167s-6.363-79.616-6.149-84.261,72.088-3.226,72.088-3.226" transform="translate(-41.229 -26.405)" fill="#f26d6d"/>
      <path id="Trazado_1041585" data-name="Trazado 1041585" d="M409.607,148.593c-.247-1.41-1.221-3.854-.383-5.015,2.831-3.919,9.333-5.265,14.166-5.126-.563-.637.269-2.2.819-2.844a10.569,10.569,0,0,1,4.331-3.234,7.508,7.508,0,0,1,5.879,13.791c-.127.063-.1.262-.2.365s-.172-.2-.085-.088c1.668,2.184,5.153,2.747,5.793,5.419.576,2.408-2.082,4.848-1.241,7.177.611,1.695,12.075,3.238,14.282,8.632a13.182,13.182,0,0,1-4.715,15.449c-4.123,2.76-9.4,2.89-14.358,3.048-13.336.425-27.663,1.488-39.017-5.523.062-4.347,2.945-8.836,7.146-9.957a5.889,5.889,0,0,1,.751-5.114,15.5,15.5,0,0,1,3.36-3.757,23.262,23.262,0,0,1,5.158-2.293,7.811,7.811,0,0,0,4.363-3.4,3.185,3.185,0,0,0,.268-2.367c-.656-1.988-5.958-3.1-6.319-5.162" transform="translate(-41.215 -13.775)" fill="#993f30"/>
      <path id="Trazado_1041586" data-name="Trazado 1041586" d="M402.467,179.17c-8.056,2.408-14.39,7.788-19.352,14.354s-4.644,14.751-5.5,22.937c-.913,8.726,5.129,64.36,8.888,72.288,1.148,2.424,72.655,5.81,93.876-1.962-1.053-11.781-3.281-63.684-7.018-74.906s-10.44-21.866-20.511-28.071a71.309,71.309,0,0,0-13.961-6.584c-1.978-.742-9.421-1.923-12.29-1.59-8.836,1.025-16.173,1.154-24.132,3.533" transform="translate(-39.404 -18.326)" fill="#4bb2a1"/>
      <path id="Trazado_1041587" data-name="Trazado 1041587" d="M345.622,116.462c-1.291-2.247-3.39-4.29-5.975-4.473a3.359,3.359,0,0,0-1.69.268,3.165,3.165,0,0,0-1.618,2.462,7.041,7.041,0,0,0,.4,3.02,11.345,11.345,0,0,0,3.1,5.18,6.361,6.361,0,0,0,5.652,1.577c.982-.254,2.364-1.159,2.245-2.341a12.375,12.375,0,0,0-.459-1.571,15.9,15.9,0,0,0-1.648-4.123" transform="translate(-35.101 -11.688)" fill="#ffba97"/>
      <path id="Trazado_1041588" data-name="Trazado 1041588" d="M361.614,127.667H310.624a1.608,1.608,0,0,1-1.608-1.608V123.12a1.608,1.608,0,0,1,1.608-1.608h50.991a3.077,3.077,0,0,1,0,6.155" transform="translate(-32.254 -12.683)" fill="#211919"/>
      <path id="Trazado_1041589" data-name="Trazado 1041589" d="M313.311,125.759h-6.359a.918.918,0,0,1,0-1.837h6.359a.918.918,0,0,1,0,1.837" transform="translate(-31.942 -12.934)" fill="#211919"/>
      <path id="Trazado_1041590" data-name="Trazado 1041590" d="M411.372,146.237c-.213.482-.377.99-.552,1.488-1.011,2.872-3.024,5.661-3.883,8.583s-.983,6.27.67,8.829c1.8,2.791,6.057,3.934,9.264,3.068a9.848,9.848,0,0,0,7.015-6.427,3.078,3.078,0,0,0,3.694.661,3.649,3.649,0,0,0,1.977-3.7,3.491,3.491,0,0,0-3.137-2.783,17.531,17.531,0,0,0,.27-5.155,9.024,9.024,0,0,0-8.924-7.735,9.51,9.51,0,0,0-2.57.258,5.634,5.634,0,0,0-3.3,1.972,5.044,5.044,0,0,0-.528.94" transform="translate(-42.41 -14.932)" fill="#ffba97"/>
      <path id="Trazado_1041591" data-name="Trazado 1041591" d="M419.145,168.69c-.106.315,5.373-5.064,5.362-4.732-.1,3.112.69,8.837.591,11.949-1.975-.183-10.22,2.938-12.126,2.39s.8,1.854-.52.376c1.232-2.257,1.823-7.437,3.055-9.694,2.257.216,1.386-.033,3.638-.289" transform="translate(-43.03 -17.112)" fill="#ffba97"/>
      <path id="Trazado_1041592" data-name="Trazado 1041592" d="M429.506,175.644s-17.914-.141-24.132,3.533c0,0,3.25,16.675,24.132-3.533" transform="translate(-42.311 -18.333)" fill="#ffba97"/>
      <path id="Trazado_1041593" data-name="Trazado 1041593" d="M411.406,158.82a.391.391,0,0,1-.1-.014.361.361,0,0,1-.245-.449,6.087,6.087,0,0,1,1.671-2.4,4.186,4.186,0,0,0,1.512-2.458c.085-1.421-.283-2.361-2.461-3.236a.362.362,0,1,1,.268-.672c2.242.9,3.032,1.972,2.916,3.95a4.762,4.762,0,0,1-1.715,2.914,5.493,5.493,0,0,0-1.5,2.1.359.359,0,0,1-.347.26" transform="translate(-42.903 -15.611)" fill="#211919"/>
      <path id="Trazado_1041594" data-name="Trazado 1041594" d="M423.953,155.562a.363.363,0,0,1-.35-.268,3.293,3.293,0,0,0-3.308-2.342.371.371,0,0,1-.388-.333.363.363,0,0,1,.331-.389,4.046,4.046,0,0,1,4.064,2.878.362.362,0,0,1-.259.442.324.324,0,0,1-.091.012" transform="translate(-43.828 -15.888)" fill="#211919"/>
      <path id="Trazado_1041595" data-name="Trazado 1041595" d="M412.3,162.679a3,3,0,0,1-1-.169.363.363,0,0,1-.219-.463.366.366,0,0,1,.461-.219,2.449,2.449,0,0,0,2.756-.861.357.357,0,0,1,.505-.085.361.361,0,0,1,.085.5,3.215,3.215,0,0,1-2.59,1.3" transform="translate(-42.905 -16.785)" fill="#211919"/>
      <path id="Trazado_1041596" data-name="Trazado 1041596" d="M414.168,164.566a.362.362,0,0,1-.234-.638l.566-.471a.36.36,0,1,1,.462.553l-.562.472a.365.365,0,0,1-.232.084" transform="translate(-43.191 -17.052)" fill="#211919"/>
      <path id="Trazado_1041597" data-name="Trazado 1041597" d="M414.786,171.4a7.052,7.052,0,0,1-2-.282.362.362,0,0,1-.245-.449.371.371,0,0,1,.45-.245,6.8,6.8,0,0,0,6.586-1.69.361.361,0,1,1,.514.508,7.545,7.545,0,0,1-5.306,2.158" transform="translate(-43.057 -17.6)" fill="#211919"/>
      <path id="Trazado_1041598" data-name="Trazado 1041598" d="M420.117,156.557c-.2.487-.634.77-.981.631a.85.85,0,0,1-.275-1.134c.2-.487.634-.77.981-.631a.85.85,0,0,1,.275,1.134" transform="translate(-43.709 -16.219)" fill="#211919"/>
      <path id="Trazado_1041599" data-name="Trazado 1041599" d="M412.477,154.44c-.165.412-.536.651-.828.533a.718.718,0,0,1-.233-.957c.165-.412.536-.651.829-.534a.718.718,0,0,1,.232.958" transform="translate(-42.933 -16.017)" fill="#211919"/>
      <path id="Trazado_1041600" data-name="Trazado 1041600" d="M404.079,191.16c-9.627-1.115-18.012-7.407-24.012-15.017s-10.018-16.549-14.4-25.192-9.337-17.257-16.689-23.57a42.607,42.607,0,0,0-21.395-9.762c-1.968-.291-4.13-.4-5.786.7s-2.26,3.865-.658,5.045c-1.593,2.133-1.887,4-.624,6.344a4.985,4.985,0,0,0-.235,7.357c-1.179,4.629,1.761,7.936,4.906,11.53,11.9,13.595,18.7,30.769,27.612,46.481s21.285,31,38.638,36.013c7.865,2.273,16.244,2.253,24.355,1.137,9.352-1.286,18.7-4.106,26.26-9.763s13.116-14.464,13.3-23.9c.082-4.261-1.077-8.8-4.258-11.637-2.581-2.3-6.148-3.187-9.6-3.38-12.142-.679-25.326,9.014-37.406,7.616" transform="translate(-33.272 -12.256)" fill="#ffba97"/>
      <path id="Trazado_1041601" data-name="Trazado 1041601" d="M330.063,127.707a.342.342,0,0,1-.192-.056c-2.558-1.609-5.606-3.278-8.842-3.439a.362.362,0,0,1-.343-.378.349.349,0,0,1,.379-.344c3.4.172,6.554,1.89,9.189,3.552a.36.36,0,0,1-.192.665" transform="translate(-33.472 -12.889)" fill="#211919"/>
      <path id="Trazado_1041602" data-name="Trazado 1041602" d="M326.254,135.331a.344.344,0,0,1-.179-.048,45.964,45.964,0,0,1-5.882-4.012.361.361,0,0,1-.056-.508.366.366,0,0,1,.508-.056,45.547,45.547,0,0,0,5.789,3.95.361.361,0,0,1-.179.674" transform="translate(-33.406 -13.635)" fill="#211919"/>
      <path id="Trazado_1041603" data-name="Trazado 1041603" d="M325.122,143.243a.374.374,0,0,1-.154-.034,17.009,17.009,0,0,1-5.007-3.574.361.361,0,1,1,.519-.5,16.307,16.307,0,0,0,4.8,3.422.362.362,0,0,1-.154.689" transform="translate(-33.385 -14.51)" fill="#211919"/>
      <path id="Trazado_1041604" data-name="Trazado 1041604" d="M335.426,127.571a.385.385,0,0,1-.361-.364,4.736,4.736,0,0,1,2.309-3.981.362.362,0,0,1,.364.626,4,4,0,0,0-1.951,3.36.362.362,0,0,1-.361.358" transform="translate(-34.972 -12.857)" fill="#211919"/>
      <path id="Trazado_1041605" data-name="Trazado 1041605" d="M331.434,135.382h-.005a.36.36,0,0,1-.356-.367,5.115,5.115,0,0,1,1.909-3.325.362.362,0,1,1,.511.513,4.547,4.547,0,0,0-1.7,2.824.36.36,0,0,1-.361.356" transform="translate(-34.556 -13.734)" fill="#211919"/>
      <path id="Trazado_1041606" data-name="Trazado 1041606" d="M329.6,143.052a.361.361,0,0,1-.356-.3,3.987,3.987,0,0,1,1.716-3.876.362.362,0,0,1,.4.6,3.291,3.291,0,0,0-1.4,3.16.359.359,0,0,1-.3.412.185.185,0,0,1-.055.005" transform="translate(-34.36 -14.489)" fill="#211919"/>
      <path id="Trazado_1041607" data-name="Trazado 1041607" d="M328.139,148.62a.333.333,0,0,1-.093-.012.361.361,0,0,1-.255-.442l.451-1.69a.37.37,0,0,1,.442-.257.363.363,0,0,1,.255.443l-.451,1.69a.361.361,0,0,1-.348.268" transform="translate(-34.212 -15.26)" fill="#211919"/>
      <path id="Trazado_1041608" data-name="Trazado 1041608" d="M402.479,205.39a.353.353,0,0,1-.224-.079,2.123,2.123,0,0,0-1.04-.291,2.1,2.1,0,0,1-1.569-.651,1.3,1.3,0,0,1-.249-1.022,2.919,2.919,0,0,1,1.245-1.729l.12-.081c.652-.443,1.391-.944,1.361-1.6a1.51,1.51,0,0,0-.728-1.03,3.317,3.317,0,0,0-3.256-.175.369.369,0,0,1-.485-.155.363.363,0,0,1,.156-.488,3.986,3.986,0,0,1,3.985.218,2.172,2.172,0,0,1,1.051,1.6c.047,1.058-.909,1.711-1.677,2.232l-.118.081a2.171,2.171,0,0,0-.942,1.244.585.585,0,0,0,.11.469c.209.273.612.321,1.08.374a2.657,2.657,0,0,1,1.4.444.358.358,0,0,1,.059.5.362.362,0,0,1-.284.138" transform="translate(-41.501 -20.63)" fill="#211919"/>
      <path id="Trazado_1041609" data-name="Trazado 1041609" d="M436.609,146.96a.362.362,0,0,1-.333-.223,11.88,11.88,0,0,0-9.38-7.031.36.36,0,0,1-.32-.4.34.34,0,0,1,.4-.319,12.447,12.447,0,0,1,9.967,7.471.36.36,0,0,1-.193.471.353.353,0,0,1-.14.028" transform="translate(-44.524 -14.506)" fill="#211919"/>
      <path id="Trazado_1041610" data-name="Trazado 1041610" d="M450.191,172.769a.36.36,0,0,1-.361-.361,5.868,5.868,0,0,0-1.8-4.156,12.263,12.263,0,0,0-3.538-2.063,10.92,10.92,0,0,1-4.142-2.638,3.471,3.471,0,0,1-.876-1.859,4.744,4.744,0,0,1,.137-1.416l.5-2.477c.44-2.18.2-3.527-.741-4.116a.36.36,0,1,1,.383-.609c1.818,1.14,1.251,3.943,1.065,4.867l-.5,2.476a4.118,4.118,0,0,0-.125,1.2,2.748,2.748,0,0,0,.708,1.464,10.211,10.211,0,0,0,3.883,2.446,12.808,12.808,0,0,1,3.742,2.2,6.589,6.589,0,0,1,2.021,4.681.361.361,0,0,1-.359.361Z" transform="translate(-45.842 -15.971)" fill="#211919"/>
      <path id="Trazado_1041611" data-name="Trazado 1041611" d="M444.707,172.171a.362.362,0,0,1-.294-.152,9.651,9.651,0,0,0-2.493-2.418.36.36,0,1,1,.4-.6A10.294,10.294,0,0,1,445,171.6a.361.361,0,0,1-.294.57" transform="translate(-46.109 -17.633)" fill="#211919"/>
      <path id="Trazado_1041612" data-name="Trazado 1041612" d="M443.355,347.53a.494.494,0,0,1-.458-.307L432.715,322.34l-7.222-7.579a.494.494,0,0,1,.716-.682l7.386,7.8,10.217,24.968a.495.495,0,0,1-.458.682" transform="translate(-44.397 -32.766)" fill="#211919"/>
      <path id="Trazado_1041613" data-name="Trazado 1041613" d="M489.316,322.941l-.048,0c-21.77-2.073-26.069-17.582-26.11-17.739a.494.494,0,1,1,.957-.251c.039.15,4.193,15,25.249,17.005a.495.495,0,0,1-.047.987" transform="translate(-48.34 -31.791)" fill="#211919"/>
      <path id="Trazado_1041614" data-name="Trazado 1041614" d="M488.243,348.445a.494.494,0,0,1-.491-.434c-1.134-9.306-2.926-23.407-3.271-24.572a.484.484,0,0,1-.056-.381.5.5,0,0,1,.6-.352c.425.111.656.173,3.7,25.184a.493.493,0,0,1-.43.551.477.477,0,0,1-.061,0" transform="translate(-50.56 -33.681)" fill="#211919"/>
      <path id="Trazado_1041615" data-name="Trazado 1041615" d="M226.444,162.094a.371.371,0,0,1-.371-.371V79.556a.371.371,0,0,1,.742,0v82.167a.371.371,0,0,1-.371.371" transform="translate(-23.596 -8.265)" fill="#211919"/>
      <path id="Trazado_1041616" data-name="Trazado 1041616" d="M226.444,196.481a.371.371,0,0,1-.371-.37V175.943a.371.371,0,1,1,.742,0v20.169a.371.371,0,0,1-.371.37" transform="translate(-23.596 -18.325)" fill="#211919"/>
      <path id="Trazado_1041618" data-name="Trazado 1041618" d="M397.234,23.79a.368.368,0,0,1-.206-.063L379.516,12.054a.371.371,0,1,1,.411-.617L397.44,23.11a.371.371,0,0,1-.206.68" transform="translate(-39.595 -1.187)" fill="#211919"/>
      <rect id="Rectángulo_415645" data-name="Rectángulo 415645" width="469.573" height="314.997" fill="none"/>
    </g>
  </g>
</svg>
