<svg xmlns="http://www.w3.org/2000/svg" xmlns:xlink="http://www.w3.org/1999/xlink" width="400" height="315" viewBox="0 0 400 315">
  <defs>
    <clipPath id="clip-path">
      <rect id="Rect치ngulo_415685" data-name="Rect치ngulo 415685" width="400" height="315" transform="translate(1020.409 248)" fill="#fff" stroke="#707070" stroke-width="1" opacity="0.77"/>
    </clipPath>
  </defs>
  <g id="Enmascarar_grupo_1098826" data-name="Enmascarar grupo 1098826" transform="translate(-1020.409 -248)" clip-path="url(#clip-path)">
    <g id="Grupo_1183675" data-name="Grupo 1183675">
      <path id="Trazado_1043709" data-name="Trazado 1043709" d="M68.764,219.434C45.175,202.4,26.68,177.3,21.866,148.666c-3.593-21.374,1.372-44.462,14.17-62.05,5.844-8.034,14.606-17.039,23.907-20.939C71.3,60.914,84.355,64.533,96.235,63.3c25.891-2.691,43.757-26.144,65.278-40.787C190.388,2.865,227.158-1.075,262.058.226,278.667.844,295.842,2.7,310.183,11.1c24.9,14.584,35.145,44.559,46.7,71.006,12.228,27.985,28,54.721,35.315,84.374,4.1,16.607,4.887,35.83-5.895,49.109-7.864,9.685-20.3,14.225-32.2,17.947-63.526,19.859-131.285,28.742-197.067,18.6-30-4.623-59.9-13.4-85.027-30.436q-1.637-1.11-3.244-2.27" transform="translate(1010.403 339.329)" fill="#e9f9fd" opacity="0.54"/>
      <g id="Grupo_1183674" data-name="Grupo 1183674" transform="translate(2861.262 -2263)">
        <g id="Grupo_1181905" data-name="Grupo 1181905" transform="translate(-2332.621 2462.86)">
          <g id="Grupo_1181899" data-name="Grupo 1181899">
            <path id="Trazado_1041752" data-name="Trazado 1041752" d="M648.7,114.839c0-2.2-1.881-3.986-3.888-4.9s-4.241-1.233-6.247-2.146a14.76,14.76,0,0,1-7.263-8.223,31.315,31.315,0,0,1-1.761-11.048c-.088-7.164.918-14.439,3.868-20.969s7.97-12.274,14.489-15.247a31.374,31.374,0,0,1,16.673-2.217,20.858,20.858,0,0,1,7.007,1.9c4.613,2.338,7.566,7.064,9.354,11.917,3.273,8.886,2.919,19.908-3.743,26.639-1.509,1.525-3.368,2.9-3.979,4.96-1,3.383,1.79,7.284.133,10.4-1.237,2.327-4.322,2.923-6.176,4.8-1.6,1.62-2.092,3.941-2.839,6.014a13.466,13.466,0,0,1-3.558,5.425c-3.069,2.74-6.891,2.009-10.021-.237a5.491,5.491,0,0,1-2.172-2.932C648.155,117.542,648.7,116.271,648.7,114.839Z" fill="#ffc94f"/>
          </g>
          <g id="Grupo_1181904" data-name="Grupo 1181904">
            <g id="Grupo_1181901" data-name="Grupo 1181901">
              <g id="Grupo_1181900" data-name="Grupo 1181900">
                <path id="Trazado_1041753" data-name="Trazado 1041753" d="M646.681,95.534a26.359,26.359,0,0,0,15.331-10.567c1.858-2.683,3.764-6.19,3.346-9.561-.323-2.6-2.558-5.148-5.366-4.726-3.074.462-4.551,3.962-5.639,6.461-1.453,3.336-2.578,7-2.063,10.677a10.97,10.97,0,0,0,4.328,7.412,8.4,8.4,0,0,0,8.471.5,20.1,20.1,0,0,0,7.246-6.386,31.961,31.961,0,0,0,4.944-9.417c.772-2.37,1.155-6.022-1.99-6.8-3.106-.768-5.211,2.026-6.277,4.516-2.311,5.4-4.331,12.564-1.8,18.252a7.718,7.718,0,0,0,5.954,4.678c3.118.432,6.174-1.08,8.573-2.942,5.316-4.127,9.062-10.555,10.891-16.957,1.888-6.607,2.207-14.371-2.445-19.924-4.03-4.811-10.452-7.669-16.526-8.755a33.479,33.479,0,0,0-17.8,1.59A28.453,28.453,0,0,0,642.039,64.82c-3.822,5.94-5.724,13.059-6.633,20-.742,5.667-.62,12.486,3.633,16.853,4.418,4.536,15.207,4.541,13.878,13.014-.39,2.485-1.613,5.249-.871,7.779.9,3.067,4.781,2.9,5.816,5.8,1.007,2.822-.445,6.187-2.325,8.292-2.2,2.458-4.992,4.316-7,6.952a11.224,11.224,0,0,0-2.125,9.181c.764,3.623,3.464,5.775,5.716,8.483,4.43,5.327,5.521,14.392-1.016,18.578a8.8,8.8,0,0,1-8.463.862c-.767-.361-1.441.781-.669,1.144,4.534,2.131,9.931.2,12.862-3.686,3.443-4.567,2.63-11.058-.227-15.694-1.676-2.72-4.429-4.616-5.965-7.412a9.756,9.756,0,0,1,.346-9.813c2.975-4.711,8.824-6.988,10.207-12.77a7.184,7.184,0,0,0-.933-6.094,8.535,8.535,0,0,0-3.08-2.124,3.523,3.523,0,0,1-2.027-3.384c.023-2.665,1.263-5.177,1.217-7.859a7.816,7.816,0,0,0-3.485-6.144c-2.575-1.918-5.767-2.607-8.519-4.2a11.346,11.346,0,0,1-5.179-6.747c-1.693-5.644-.578-11.969.779-17.563C639.51,71.956,642.125,65.7,646.746,61a28.052,28.052,0,0,1,14.389-7.576,32.5,32.5,0,0,1,16.66.987c5.777,1.915,12.028,5.749,13.988,11.842,2.021,6.282.293,13.735-2.507,19.517a33.92,33.92,0,0,1-5.394,8.022c-2.145,2.363-4.784,4.626-7.979,5.341a6.4,6.4,0,0,1-7.272-3.324,13.907,13.907,0,0,1-1.122-7.657,34.283,34.283,0,0,1,2.564-9.632c.6-1.453,1.385-3.161,2.9-3.863,2.07-.962,3.735.453,3.564,2.626-.251,3.194-2.144,6.592-3.835,9.241a23.124,23.124,0,0,1-6.806,7.265c-2.842,1.781-6.343,2.233-9.051-.055a10.294,10.294,0,0,1-3.337-8.383,24.126,24.126,0,0,1,3.326-10.32c.75-1.338,1.853-2.926,3.527-3.075s3.074,1.315,3.529,2.813c.977,3.218-1.243,6.964-3.017,9.527a24.85,24.85,0,0,1-14.539,9.958c-.829.2-.478,1.478.351,1.275Z" fill="#fff"/>
              </g>
            </g>
            <g id="Grupo_1181903" data-name="Grupo 1181903">
              <g id="Grupo_1181902" data-name="Grupo 1181902">
                <path id="Trazado_1041754" data-name="Trazado 1041754" d="M663.491,125.878c2.043-.07,3.414-1.575,4.164-3.361.877-2.089.675-4.32,1.066-6.507a5.513,5.513,0,0,1,1.507-3.185,9.584,9.584,0,0,1,2.418-1.457c1.629-.788,3.3-1.616,3.883-3.463.257-.815-1.022-1.164-1.277-.352-.521,1.652-2.465,2.254-3.863,2.96a6.64,6.64,0,0,0-3.634,3.883c-.663,2-.423,4.121-.864,6.151-.375,1.724-1.362,3.937-3.4,4.007-.85.028-.854,1.353,0,1.324Z" fill="#fff"/>
              </g>
            </g>
          </g>
        </g>
        <g id="Grupo_1182090" data-name="Grupo 1182090" transform="translate(-1900.921 2001.655)">
          <g id="Grupo_1181997" data-name="Grupo 1181997">
            <path id="Trazado_1041807" data-name="Trazado 1041807" d="M315.311,849.521c6.441,13.742,9.07,28.581,11.2,43.3q4.135,28.554,6.028,57.309a821.836,821.836,0,0,1-162.915,3.5c.019-38.074,1-77.17,9.721-114.482,27.818-6.256,58.257-10.819,86.943-9.377,9.675.487,19.489,1.451,28.4,4.764C302.809,837.559,311.978,842.41,315.311,849.521Z" fill="#442a3a"/>
          </g>
          <g id="Grupo_1182017" data-name="Grupo 1182017">
            <g id="Grupo_1181998" data-name="Grupo 1181998">
              <path id="Trazado_1041808" data-name="Trazado 1041808" d="M148.212,652.886c-2.1-8.531,1.24-17.359,4.527-25.508l16.169-40.083c1-2.489,1.94-5.55.278-7.657-1.329-1.684-3.9-1.946-5.886-1.131a12.563,12.563,0,0,0-4.813,4.159,50.473,50.473,0,0,0-7.165,12.454c-.372-.923-1.408-3.074-1.78-4a12.134,12.134,0,0,0-1.952-3.6c-2.273-2.571-6.155-2.744-9.587-2.727-.363-3.243,1.209-7.273,4.024-8.924s6.089-2.286,9.2-3.282,6.268-2.528,7.972-5.311c.981-1.6,1.324-3.845.091-5.263s-3.385-1.4-5.241-1.2c-6.7.735-13.419,2.613-18.937,6.492s-9.717,9.952-10.3,16.671a11.915,11.915,0,0,0,.119,3.342c-3.193,2.67-4.43,8.123-1.19,10.735-2.7,2.327-4.292,6.268-2.427,9.309-2.416,2.85-2.186,7.811.941,9.858,4.679,3.063,4.66,9.967,4.543,15.559a42.3,42.3,0,0,1-2.2,11.051q-2.034,6.844-4.217,13.643c3.542.689,6.3,2.092,9.874,2.594C136.57,660.962,142.5,655.748,148.212,652.886Z" fill="#ff9976"/>
            </g>
            <g id="Grupo_1182000" data-name="Grupo 1182000">
              <g id="Grupo_1181999" data-name="Grupo 1181999">
                <path id="Trazado_1041809" data-name="Trazado 1041809" d="M151.072,561.8a4.318,4.318,0,0,0,1.515,2.007,5.636,5.636,0,0,0,2.552.869c1.622.24,3.449.256,4.689-.989a.663.663,0,0,0-.937-.937c-.872.876-2.265.812-3.4.649a5.147,5.147,0,0,1-2-.577,2.813,2.813,0,0,1-1.141-1.373.682.682,0,0,0-.815-.463.667.667,0,0,0-.463.814Z" fill="#892e0a"/>
              </g>
            </g>
            <g id="Grupo_1182002" data-name="Grupo 1182002">
              <g id="Grupo_1182001" data-name="Grupo 1182001">
                <path id="Trazado_1041810" data-name="Trazado 1041810" d="M168.377,579.334a8.908,8.908,0,0,0-2.845,5.194,5.523,5.523,0,0,0,1.84,4.9.684.684,0,0,0,.937,0,.667.667,0,0,0,0-.937,4.286,4.286,0,0,1-1.455-3.931,7.675,7.675,0,0,1,2.46-4.285c.607-.6-.33-1.537-.937-.937Z" fill="#892e0a"/>
              </g>
            </g>
            <g id="Grupo_1182004" data-name="Grupo 1182004">
              <g id="Grupo_1182003" data-name="Grupo 1182003">
                <path id="Trazado_1041811" data-name="Trazado 1041811" d="M121.226,608.078a40.969,40.969,0,0,1,12.718-2.493c1.8-.043,3.85.1,5.295,1.318,1.578,1.329,2.232,3.769,2.8,5.672s1.563,4.633-.471,6.008a2.732,2.732,0,0,1-2.675.178,4.079,4.079,0,0,1-1.821-2.376c-.576-1.356-1.209-2.619-2.639-3.21a4.148,4.148,0,0,0-4.023.472c-.681.5-.021,1.648.669,1.144a2.826,2.826,0,0,1,4.227.9c.746,1.3,1.012,2.8,2.242,3.779a4.093,4.093,0,0,0,6.4-2.011c.48-1.55-.1-3.339-.519-4.837a22.128,22.128,0,0,0-1.927-4.984c-1.652-2.882-4.813-3.489-7.9-3.366a43.054,43.054,0,0,0-12.727,2.529c-.8.283-.456,1.563.35,1.276Z" fill="#892e0a"/>
              </g>
            </g>
            <g id="Grupo_1182006" data-name="Grupo 1182006">
              <g id="Grupo_1182005" data-name="Grupo 1182005">
                <path id="Trazado_1041812" data-name="Trazado 1041812" d="M140.752,620.411A5.576,5.576,0,0,1,142,623.488a7.01,7.01,0,0,1-.442,3.355.667.667,0,0,0,.463.815.678.678,0,0,0,.815-.463,8.033,8.033,0,0,0,.456-3.971,6.876,6.876,0,0,0-1.6-3.75c-.582-.625-1.517.313-.937.937Z" fill="#892e0a"/>
              </g>
            </g>
            <g id="Grupo_1182008" data-name="Grupo 1182008">
              <g id="Grupo_1182007" data-name="Grupo 1182007">
                <path id="Trazado_1041813" data-name="Trazado 1041813" d="M141.8,611.6a3.758,3.758,0,0,0-1.749,3.193,8.707,8.707,0,0,0,1.347,4.22c.4.756,1.538.087,1.144-.669a7.731,7.731,0,0,1-1.168-3.368,2.469,2.469,0,0,1,1.1-2.233.663.663,0,0,0-.669-1.143Z" fill="#892e0a"/>
              </g>
            </g>
            <g id="Grupo_1182010" data-name="Grupo 1182010">
              <g id="Grupo_1182009" data-name="Grupo 1182009">
                <path id="Trazado_1041814" data-name="Trazado 1041814" d="M123.646,598.443a49.124,49.124,0,0,1,9.528-1.989c2.618-.271,5.887-.721,8.328.538a5.684,5.684,0,0,1,2.528,3.275c.582,1.444,1.1,2.915,1.564,4.4.832,2.674,1.882,7.219-1.632,8.506-.794.291-.451,1.572.352,1.278,3.179-1.164,3.817-4.653,3.229-7.639a36.09,36.09,0,0,0-1.676-5.445,12.566,12.566,0,0,0-2.242-4.442c-2.127-2.233-5.645-2.138-8.473-1.962a50.473,50.473,0,0,0-11.859,2.2c-.811.251-.464,1.531.353,1.276Z" fill="#892e0a"/>
              </g>
            </g>
            <g id="Grupo_1182012" data-name="Grupo 1182012">
              <g id="Grupo_1182011" data-name="Grupo 1182011">
                <path id="Trazado_1041815" data-name="Trazado 1041815" d="M145.221,604.179a6.725,6.725,0,0,0,.36,7.781.667.667,0,0,0,.937,0,.68.68,0,0,0,0-.937,5.388,5.388,0,0,1-.153-6.175c.476-.71-.672-1.374-1.144-.669Z" fill="#892e0a"/>
              </g>
            </g>
            <g id="Grupo_1182014" data-name="Grupo 1182014">
              <g id="Grupo_1182013" data-name="Grupo 1182013">
                <path id="Trazado_1041816" data-name="Trazado 1041816" d="M125.067,587.762a43.355,43.355,0,0,1,11.409-2.089c3.139-.138,7.439-.4,9.813,2.087a21.8,21.8,0,0,1,2.867,4.367,19.381,19.381,0,0,1,2.175,5.276c.679,3.038.136,8.581-3.876,9.016-.839.091-.848,1.417,0,1.325,3.652-.4,5.383-4.206,5.478-7.511.127-4.4-2.245-8.434-4.6-11.97-2.247-3.376-5.835-3.922-9.645-3.953a44.356,44.356,0,0,0-13.975,2.175c-.808.26-.462,1.539.352,1.277Z" fill="#892e0a"/>
              </g>
            </g>
            <g id="Grupo_1182016" data-name="Grupo 1182016">
              <g id="Grupo_1182015" data-name="Grupo 1182015">
                <path id="Trazado_1041817" data-name="Trazado 1041817" d="M150.387,594.1a5.472,5.472,0,0,0-1.558,4.455,11.334,11.334,0,0,0,.613,2.768,7.152,7.152,0,0,0,1.155,2.506c.569.637,1.5-.3.937-.937a2.906,2.906,0,0,1-.454-.93c-.135-.354-.267-.709-.387-1.068a9.75,9.75,0,0,1-.539-2.339,4.229,4.229,0,0,1,1.17-3.518c.627-.579-.311-1.515-.937-.937Z" fill="#892e0a"/>
              </g>
            </g>
          </g>
          <g id="Grupo_1182018" data-name="Grupo 1182018">
            <path id="Trazado_1041818" data-name="Trazado 1041818" d="M193.859,763.529c-38.324,10.415-78.112,10.36-104.037-9.218-4.45-3.36-8.972-8.361-7.675-13.784,6.677-27.907,19.975-70.43,31.963-96.5,11.668-3.2,25.242-.514,37.322.185a252.99,252.99,0,0,1-3.662,42.021c-.951,5.664-2.094,11.368-1.727,17.1a245.865,245.865,0,0,1,48.7-27.615c2.913-1.226,15.261-7.19,18.421-7.126,5.931.12,1.733,9.58,3.958,15.079s2.074,11.658,1.4,17.552c-2.664,23.5-12.963,45.647-26.534,65.021C188.706,770.935,195.438,758.02,193.859,763.529Z" fill="#ffca5f"/>
          </g>
          <g id="Grupo_1182019" data-name="Grupo 1182019">
            <path id="Trazado_1041819" data-name="Trazado 1041819" d="M395.024,770.44c4.847,11.454,12.442,22.994-2.212,42.9-7.785,10.576-50.312,8.564-62.539,3.771s-22.033-15.617-25.123-28.381c-1.943-8.028-1.3-16.534.885-24.5,3.968-14.455,13.85-29.63,27.365-36.8,12.091-6.417,12.33-36.365,19.277-24.636C358.421,712.49,390.821,760.506,395.024,770.44Z" fill="#ffca5f"/>
          </g>
          <g id="Grupo_1182037" data-name="Grupo 1182037">
            <g id="Grupo_1182020" data-name="Grupo 1182020">
              <path id="Trazado_1041820" data-name="Trazado 1041820" d="M255.169,594.129c.429-6.365,3.8-12.629,9.282-15.889s13.019-3.074,17.929,1c2.872,2.383,4.742,5.858,7.807,7.986,2.078,1.443,4.572,2.168,6.739,3.475a14.8,14.8,0,0,1,6.513,15.86,11.187,11.187,0,0,0-.484,2.324c-.1,2.733,2.442,4.728,3.758,7.125,1.837,3.345,1.185,7.641-.806,10.9s-5.125,5.641-8.345,7.689a31.631,31.631,0,0,0-6.183,4.506c-2.148,2.253-3.565,5.341-6.334,6.764a13.51,13.51,0,0,1-5.146,1.1,5.7,5.7,0,0,1-2.643-.2,4.78,4.78,0,0,1-1.764-1.458c-2.69-3.247-3.854-7.492-4.461-11.665s-.733-8.423-1.69-12.529a31.593,31.593,0,0,0-6.117-12.583c-1.988-2.467-4.9-3.967-6.431-6.8A13.811,13.811,0,0,1,255.169,594.129Z" fill="#010100"/>
            </g>
            <g id="Grupo_1182036" data-name="Grupo 1182036">
              <g id="Grupo_1182033" data-name="Grupo 1182033">
                <g id="Grupo_1182021" data-name="Grupo 1182021">
                  <path id="Trazado_1041821" data-name="Trazado 1041821" d="M273.71,597.611c-5.854-1.084-11.79,2.052-15.917,6.343-6.852,7.124-12.311,18.955-11.8,28.826a11.669,11.669,0,0,0,3.208,7.974c1.983,2.066,5.313,2.762,8.062,2.967-.9,4.453-1.045,12.088-4.323,14.672s-12.3,5.133-14.925,5.4c-2.97,2.537-9.954,21.152,6.746,29.589,8.077,4.081,29.854,11.159,56.695-16.455-5.246-3.94-20.662-8.033-21.155-14.575-.627-8.316-3.108-18.981-.18-26.79a2.02,2.02,0,0,1,2.066-1.1,16.409,16.409,0,0,1,1.966,1c2.621,1.135,5.386-1.147,7.287-3.28,1.35-1.515,2.73-3.174,3.011-5.184s-1.066-4.375-3.1-4.4c-1.7-.019-3.285,1.531-4.9,1.015a2.907,2.907,0,0,1-1.771-2.506,11.938,11.938,0,0,1,.3-3.22,18.356,18.356,0,0,0-8.5-19.063A8.8,8.8,0,0,0,273.71,597.611Z" fill="#ff9976"/>
                </g>
                <g id="Grupo_1182022" data-name="Grupo 1182022">
                  <path id="Trazado_1041822" data-name="Trazado 1041822" d="M258.468,627.083a.523.523,0,0,1-.069,0,2,2,0,0,1-1.419-.94,2.885,2.885,0,0,1-.322-2.345,6.567,6.567,0,0,1,1.94-2.658l.183-.177a28.937,28.937,0,0,0,3.055-3.5,7.168,7.168,0,0,0,1.515-3.078.53.53,0,0,1,1.049.157,8.22,8.22,0,0,1-1.712,3.55,29.857,29.857,0,0,1-3.168,3.631l-.185.179a5.688,5.688,0,0,0-1.662,2.205,1.853,1.853,0,0,0,.2,1.464.962.962,0,0,0,.666.462.529.529,0,0,1-.07,1.054Z" fill="#892e0a"/>
                </g>
                <g id="Grupo_1182023" data-name="Grupo 1182023">
                  <path id="Trazado_1041823" data-name="Trazado 1041823" d="M258.929,633.861a4.023,4.023,0,0,1-.972-.118.53.53,0,1,1,.257-1.029,3.02,3.02,0,0,0,2.147-.267.529.529,0,1,1,.5.933A4.1,4.1,0,0,1,258.929,633.861Z" fill="#892e0a"/>
                </g>
                <g id="Grupo_1182024" data-name="Grupo 1182024">
                  <path id="Trazado_1041824" data-name="Trazado 1041824" d="M256.44,615.269c-.428,1.047-1.2,1.72-1.734,1.5s-.613-1.24-.185-2.287,1.2-1.72,1.733-1.5S256.868,614.222,256.44,615.269Z" fill="#010100"/>
                </g>
                <g id="Grupo_1182025" data-name="Grupo 1182025">
                  <path id="Trazado_1041825" data-name="Trazado 1041825" d="M269.871,621.022c-.477,1.168-1.343,1.919-1.935,1.677s-.684-1.384-.206-2.552,1.343-1.919,1.935-1.677S270.348,619.854,269.871,621.022Z" fill="#010100"/>
                </g>
                <g id="Grupo_1182026" data-name="Grupo 1182026">
                  <path id="Trazado_1041826" data-name="Trazado 1041826" d="M272.767,622.175a.531.531,0,0,1-.435-.226,20.76,20.76,0,0,0-4.065-4.331.53.53,0,1,1,.661-.828,21.815,21.815,0,0,1,4.273,4.55.53.53,0,0,1-.434.835Z" fill="#010100"/>
                </g>
                <g id="Grupo_1182027" data-name="Grupo 1182027">
                  <path id="Trazado_1041827" data-name="Trazado 1041827" d="M258.438,616.205a.528.528,0,0,1-.44-.234,12.565,12.565,0,0,0-3.273-3.31.53.53,0,0,1,.6-.874,13.608,13.608,0,0,1,3.553,3.592.53.53,0,0,1-.44.826Z" fill="#010100"/>
                </g>
                <g id="Grupo_1182028" data-name="Grupo 1182028">
                  <path id="Trazado_1041828" data-name="Trazado 1041828" d="M276.644,617.067c-.7.576-3.056-1.126-4.5-2.874s-1.43-2.881-.733-3.457,1.812-.379,3.257,1.37S277.341,616.491,276.644,617.067Z" fill="#010100"/>
                </g>
                <g id="Grupo_1182029" data-name="Grupo 1182029">
                  <path id="Trazado_1041829" data-name="Trazado 1041829" d="M256.168,608.223c-.221-.877,1.769-2.134,3.516-2.574s2.591.1,2.812.981-.265,1.756-2.012,2.2S256.389,609.1,256.168,608.223Z" fill="#010100"/>
                </g>
                <g id="Grupo_1182030" data-name="Grupo 1182030">
                  <path id="Trazado_1041830" data-name="Trazado 1041830" d="M270.611,627.2c-.229.98-1.725,1.468-3.343,1.09s-2.743-1.478-2.515-2.457,1.725-1.468,3.343-1.09S270.84,626.224,270.611,627.2Z" fill="#d64747"/>
                </g>
                <g id="Grupo_1182031" data-name="Grupo 1182031">
                  <path id="Trazado_1041831" data-name="Trazado 1041831" d="M254.856,621.152c-.2.842-1.483,1.261-2.873.937s-2.358-1.27-2.161-2.112,1.483-1.261,2.873-.937S255.053,620.31,254.856,621.152Z" fill="#d64747"/>
                </g>
                <g id="Grupo_1182032" data-name="Grupo 1182032">
                  <path id="Trazado_1041832" data-name="Trazado 1041832" d="M259.847,644.392a23.263,23.263,0,0,1-2.927-.163.529.529,0,0,1-.454-.6.52.52,0,0,1,.6-.453c2.11.282,9.036.485,13.046-2.238a.53.53,0,0,1,.6.876C267.637,643.9,263.029,644.392,259.847,644.392Z" fill="#892e0a"/>
                </g>
              </g>
              <g id="Grupo_1182035" data-name="Grupo 1182035">
                <g id="Grupo_1182034" data-name="Grupo 1182034">
                  <path id="Trazado_1041833" data-name="Trazado 1041833" d="M255.495,631.277a5.525,5.525,0,0,0,6.487-1.4.682.682,0,0,0,0-.937.668.668,0,0,0-.937,0,4.2,4.2,0,0,1-4.882,1.188.681.681,0,0,0-.906.238.669.669,0,0,0,.238.907Z" fill="#892e0a"/>
                </g>
              </g>
            </g>
          </g>
          <g id="Grupo_1182038" data-name="Grupo 1182038">
            <path id="Trazado_1041834" data-name="Trazado 1041834" d="M371.11,764.385a312.547,312.547,0,0,0-14.637-52.8c-2.142-5.72-4.555-11.538-8.844-15.887-4.087-4.143-9.534-6.6-14.848-8.977-11.266-5.028-22.713-8.422-33.979-13.449-8.961,15.836-28.7,24.755-46.5,21.016-6.166-1.295-12.487-4.378-15.209-10.061-3.254-6.794-.411-14.8,2.442-21.769-15.6,2.392-33.876,5.853-44.246,17.747-3.746,4.3-6.338,9.461-8.715,14.642a257.442,257.442,0,0,0-18.822,154.008c15.091,13.489,35.961,18.3,56.048,20.793,35.175,4.36,65.77,5.1,100.992,1.137,9.538-22.244,7.473-48.2,17.012-70.447C347.036,788.131,373.523,777.451,371.11,764.385Z" fill="#ffca5f"/>
          </g>
          <g id="Grupo_1182040" data-name="Grupo 1182040">
            <g id="Grupo_1182039" data-name="Grupo 1182039">
              <path id="Trazado_1041835" data-name="Trazado 1041835" d="M205.2,680.57a169.034,169.034,0,0,0-26.79,51.112c-.262.813,1.017,1.162,1.277.352a168.027,168.027,0,0,1,26.657-50.8c.519-.676-.631-1.336-1.144-.668Z" fill="#9e4400"/>
            </g>
          </g>
          <g id="Grupo_1182042" data-name="Grupo 1182042">
            <g id="Grupo_1182041" data-name="Grupo 1182041">
              <path id="Trazado_1041836" data-name="Trazado 1041836" d="M145.879,695.424a196.255,196.255,0,0,1-3.772,26.365c-.177.832,1.1,1.187,1.277.352a198.867,198.867,0,0,0,3.819-26.717c.064-.85-1.262-.846-1.324,0Z" fill="#9e4400"/>
            </g>
          </g>
          <g id="Grupo_1182044" data-name="Grupo 1182044">
            <g id="Grupo_1182043" data-name="Grupo 1182043">
              <path id="Trazado_1041837" data-name="Trazado 1041837" d="M174.044,745.157a159.006,159.006,0,0,0-10.114,37.3c-.12.834,1.156,1.194,1.277.352a159.005,159.005,0,0,1,10.114-37.3c.322-.789-.96-1.133-1.277-.352Z" fill="#9e4400"/>
            </g>
          </g>
          <g id="Grupo_1182046" data-name="Grupo 1182046">
            <g id="Grupo_1182045" data-name="Grupo 1182045">
              <path id="Trazado_1041838" data-name="Trazado 1041838" d="M330.7,697.3a104.644,104.644,0,0,0-10.716,70.966,100.85,100.85,0,0,0,6.137,19.63c.334.781,1.476.107,1.144-.669a103.232,103.232,0,0,1-3.436-70.453,99.069,99.069,0,0,1,8.016-18.806c.413-.746-.731-1.415-1.145-.668Z" fill="#9e4400"/>
            </g>
          </g>
          <g id="Grupo_1182068" data-name="Grupo 1182068">
            <g id="Grupo_1182047" data-name="Grupo 1182047">
              <path id="Trazado_1041839" data-name="Trazado 1041839" d="M352.807,764.44a16.219,16.219,0,0,1,13.4-.94c2.624,1,4.94,2.669,7.509,3.8,3.835,1.692,8.086,2.129,12.137,3.205s8.188,3.031,10.255,6.677a5.778,5.778,0,0,1,.849,3.7c-.331,2.052-2.163,3.52-4.02,4.453a18.344,18.344,0,0,1-11.25,1.677c-3.443-.591-7.341-2.073-10.143.014-2.454,1.827-2.582,5.358-3.448,8.292-2,6.787-10.318,11.42-16.7,8.357-1.361,2.377-6.29,4.011-9.026,3.9s-4.137-1.1-6.088-2.7c-.415,1.79-5.565,2.3-7.34,1.82a6.6,6.6,0,0,1-4.7-3.788c-3.506,2.1-5.779-.129-6.873-.991a34.6,34.6,0,0,1-7.648-8.416c-.991-1.538-1.874-3.49-1.059-5.128.827-1.661,3.113-2.124,4.861-1.5a11.578,11.578,0,0,1,4.33,3.4c.928-2.71,3.782-5.355,5.081-7.908a31.139,31.139,0,0,1,24.022-16.542A23.084,23.084,0,0,0,352.807,764.44Z" fill="#ff9976"/>
            </g>
            <g id="Grupo_1182049" data-name="Grupo 1182049">
              <g id="Grupo_1182048" data-name="Grupo 1182048">
                <path id="Trazado_1041840" data-name="Trazado 1041840" d="M362.792,790.965a70.916,70.916,0,0,0-7.9-6.624c-2.462-1.69-5.648-3.641-8.73-2.479-2.68,1.01-3.261,3.768-2.844,6.335a31.569,31.569,0,0,0,3.269,9.039,38.642,38.642,0,0,0,2.974,4.882c.883,1.233,1.824,2.47,3.364,2.859a.663.663,0,0,0,.352-1.278c-1.663-.42-2.669-2.327-3.54-3.667a38.928,38.928,0,0,1-2.43-4.319,37.6,37.6,0,0,1-2.028-5.161,11.169,11.169,0,0,1-.734-4.721,3.409,3.409,0,0,1,3.567-2.992c1.864-.014,3.6,1.024,5.118,1.99a61.422,61.422,0,0,1,8.624,7.073c.624.579,1.563-.356.936-.937Z" fill="#892e0a"/>
              </g>
            </g>
            <g id="Grupo_1182051" data-name="Grupo 1182051">
              <g id="Grupo_1182050" data-name="Grupo 1182050">
                <path id="Trazado_1041841" data-name="Trazado 1041841" d="M360.714,789.177l1.42-1.557a.694.694,0,0,0,.194-.468.662.662,0,0,0-1.13-.468l-1.42,1.557a.7.7,0,0,0-.194.468.672.672,0,0,0,.194.468.662.662,0,0,0,.936,0Z" fill="#892e0a"/>
              </g>
            </g>
            <g id="Grupo_1182053" data-name="Grupo 1182053">
              <g id="Grupo_1182052" data-name="Grupo 1182052">
                <path id="Trazado_1041842" data-name="Trazado 1041842" d="M344.281,785.523a8.8,8.8,0,0,0-7.446-3.056,6.555,6.555,0,0,0-5.575,4.871c-.708,3.149.36,6.968,1.275,9.981a38.639,38.639,0,0,0,4.362,9.468c.456.718,1.6.054,1.144-.669a35.449,35.449,0,0,1-5.609-16.066c-.21-2.859,1.012-5.406,3.946-6.156,2.528-.647,5.319.664,6.965,2.563.561.646,1.494-.294.938-.936Z" fill="#892e0a"/>
              </g>
            </g>
            <g id="Grupo_1182055" data-name="Grupo 1182055">
              <g id="Grupo_1182054" data-name="Grupo 1182054">
                <path id="Trazado_1041843" data-name="Trazado 1041843" d="M331.967,787.728c-1.4-1.765-3.72-3.373-6.073-3.254-2.232.113-3.759,1.892-4.477,3.868-1.976,5.432.84,11.621,3.141,16.475.365.77,1.508.1,1.144-.669-2.026-4.275-4.316-9.295-3.368-14.152.348-1.784,1.365-3.933,3.395-4.178,2.062-.249,4.094,1.331,5.3,2.847.531.667,1.463-.276.937-.937Z" fill="#892e0a"/>
              </g>
            </g>
            <g id="Grupo_1182057" data-name="Grupo 1182057">
              <g id="Grupo_1182056" data-name="Grupo 1182056">
                <path id="Trazado_1041844" data-name="Trazado 1041844" d="M316.091,789.751a21.032,21.032,0,0,1,4.775,4.707.678.678,0,0,0,.906.238.669.669,0,0,0,.238-.906,22.406,22.406,0,0,0-5.25-5.183.665.665,0,0,0-.906.238.678.678,0,0,0,.237.906Z" fill="#892e0a"/>
              </g>
            </g>
            <g id="Grupo_1182059" data-name="Grupo 1182059">
              <g id="Grupo_1182058" data-name="Grupo 1182058">
                <path id="Trazado_1041845" data-name="Trazado 1041845" d="M309,788.68a5.024,5.024,0,0,1,1.95,2.66c.246.929.547,2.11-.3,2.807a.667.667,0,0,0,0,.937.677.677,0,0,0,.937,0c1.218-1,1.007-2.638.667-4a6.461,6.461,0,0,0-2.584-3.55.666.666,0,0,0-.906.238.678.678,0,0,0,.238.907Z" fill="#892e0a"/>
              </g>
            </g>
            <g id="Grupo_1182061" data-name="Grupo 1182061">
              <g id="Grupo_1182060" data-name="Grupo 1182060">
                <path id="Trazado_1041846" data-name="Trazado 1041846" d="M326.482,785.992c.693,1.449,1.051,3.56-.034,4.912-1.109,1.382-2.983,1.671-4.648,1.706a.663.663,0,0,0,0,1.325c2.133-.045,4.4-.526,5.76-2.317s.979-4.385.066-6.294a.669.669,0,0,0-.906-.238.676.676,0,0,0-.238.906Z" fill="#892e0a"/>
              </g>
            </g>
            <g id="Grupo_1182063" data-name="Grupo 1182063">
              <g id="Grupo_1182062" data-name="Grupo 1182062">
                <path id="Trazado_1041847" data-name="Trazado 1041847" d="M338.268,783.733a20.535,20.535,0,0,1,.418,3.606,5.856,5.856,0,0,1-.635,3.115c-1.12,1.906-3.458,2.421-5.511,2.293-.852-.053-.848,1.272,0,1.325,2.492.155,5.172-.613,6.577-2.823,1.433-2.253.917-5.408.428-7.869-.165-.835-1.442-.481-1.277.353Z" fill="#892e0a"/>
              </g>
            </g>
            <g id="Grupo_1182065" data-name="Grupo 1182065">
              <g id="Grupo_1182064" data-name="Grupo 1182064">
                <path id="Trazado_1041848" data-name="Trazado 1041848" d="M347.42,783.03a6.405,6.405,0,0,1,2.4,5.889,4.648,4.648,0,0,1-4.112,3.794c-.849.04-.854,1.365,0,1.325a5.964,5.964,0,0,0,5.358-4.618,7.652,7.652,0,0,0-2.7-7.327c-.646-.551-1.588.382-.938.937Z" fill="#892e0a"/>
              </g>
            </g>
            <g id="Grupo_1182067" data-name="Grupo 1182067">
              <g id="Grupo_1182066" data-name="Grupo 1182066">
                <path id="Trazado_1041849" data-name="Trazado 1041849" d="M348.2,767.262c-4.537,2.629-5.769,8.136-5.2,13.008.1.837,1.423.847,1.325,0-.51-4.4.406-9.465,4.548-11.865a.663.663,0,0,0-.669-1.143Z" fill="#892e0a"/>
              </g>
            </g>
          </g>
          <g id="Grupo_1182079" data-name="Grupo 1182079" transform="translate(10.263 30.406)">
            <g id="Grupo_1182070" data-name="Grupo 1182070" transform="translate(110.053 527.656)">
              <g id="Grupo_1182069" data-name="Grupo 1182069">
                <path id="Trazado_1041850" data-name="Trazado 1041850" d="M111.8,532.021c14.391.422,30.591,6.408,37.952,19.58,4.647,8.317,4.152,18.025,3.511,27.212a307.68,307.68,0,0,0-.7,31.95,272.439,272.439,0,0,0,2.734,30.686,142.047,142.047,0,0,0,5.677,24.538,83.234,83.234,0,0,0,10.963,22.09c4.932,6.861,11.3,13.354,19.034,17,7.5,3.533,16.423,3.837,23.172-1.5a14.315,14.315,0,0,0,5.5-9.445,13.9,13.9,0,0,0-2.707-9.712,11.135,11.135,0,0,0-8.9-4.717,12.56,12.56,0,0,0-9.282,4.634c-5.152,5.983-6.339,14.377-5.8,22.01,1.14,16.1,10.5,31.188,23.953,39.956,14.822,9.658,33.89,11.447,50.767,6.926,8.791-2.354,16.78-6.685,24.694-11.07,8.013-4.44,16.155-8.943,25.2-10.876,9.569-2.045,19.591-1.377,28.865-4.859a45.908,45.908,0,0,0,19.585-14.138,44.646,44.646,0,0,0,6.141-10.066c.869-1.989-2.064-3.724-2.94-1.719a42.388,42.388,0,0,1-14.4,17.674,41.786,41.786,0,0,1-10.2,5.3,58.929,58.929,0,0,1-13.457,2.663,136.433,136.433,0,0,0-14.5,1.866,63.308,63.308,0,0,0-12.391,4.19c-8.033,3.563-15.466,8.3-23.316,12.226-15.241,7.617-32.759,10.222-49.232,5.079a50.863,50.863,0,0,1-32.845-31.322c-2.466-7.013-3.511-14.937-1.946-22.274,1.2-5.627,5.589-14.352,12.744-12.617a9.055,9.055,0,0,1,6.093,6.165,9.918,9.918,0,0,1-1.47,9.16c-4.691,6.4-13.654,6.8-20.439,4.049-7.483-3.038-13.789-9.24-18.516-15.654a78.809,78.809,0,0,1-10.755-20.961c-5.8-16.669-7.7-34.664-8.492-52.2a283.318,283.318,0,0,1,.28-30.662c.594-9.369,1.8-19.168-1.4-28.227-4.92-13.932-18.744-22.233-32.63-25.1a61.059,61.059,0,0,0-10.539-1.228c-2.194-.066-2.192,3.34,0,3.4Z" transform="translate(-110.161 -528.616)" fill="#fff"/>
              </g>
            </g>
            <g id="Grupo_1182072" data-name="Grupo 1182072" transform="translate(109.411 527.434)">
              <g id="Grupo_1182071" data-name="Grupo 1182071" transform="translate(0 0)">
                <path id="Trazado_1041851" data-name="Trazado 1041851" d="M110.062,532.219l6.692,6.405a2.27,2.27,0,1,0,3.21-3.21l-6.692-6.405a2.27,2.27,0,0,0-3.21,3.21Z" transform="translate(-109.411 -528.357)" fill="#fff"/>
              </g>
            </g>
            <g id="Grupo_1182074" data-name="Grupo 1182074" transform="translate(109.824 521.912)">
              <g id="Grupo_1182073" data-name="Grupo 1182073">
                <path id="Trazado_1041852" data-name="Trazado 1041852" d="M113.762,531.209q.469-.41.952-.8.227-.185.458-.368c.053-.042.327-.254.059-.048s.007,0,.062-.045q.993-.752,2.037-1.434a36.5,36.5,0,0,1,4.281-2.4,2.282,2.282,0,0,0,.815-3.106,2.331,2.331,0,0,0-3.106-.815A38.662,38.662,0,0,0,110.553,528a2.283,2.283,0,0,0,0,3.21,2.324,2.324,0,0,0,3.21,0Z" transform="translate(-109.893 -521.912)" fill="#fff"/>
              </g>
            </g>
            <g id="Grupo_1182076" data-name="Grupo 1182076" transform="translate(360.992 697.881)">
              <g id="Grupo_1182075" data-name="Grupo 1182075" transform="translate(0 0)">
                <path id="Trazado_1041853" data-name="Trazado 1041853" d="M406.461,734.863q.939-.5,1.9-.961.482-.228.969-.444a5.251,5.251,0,0,1,.559-.242c-.606.187-.051.023.091-.034a42.178,42.178,0,0,1,4.1-1.42,2.271,2.271,0,0,0-1.206-4.379,45.243,45.243,0,0,0-8.7,3.559,2.291,2.291,0,0,0-.815,3.106,2.319,2.319,0,0,0,3.106.816Z" transform="translate(-403.046 -727.297)" fill="#fff"/>
              </g>
            </g>
            <g id="Grupo_1182078" data-name="Grupo 1182078" transform="translate(369.204 698.191)">
              <g id="Grupo_1182077" data-name="Grupo 1182077" transform="translate(0)">
                <path id="Trazado_1041854" data-name="Trazado 1041854" d="M412.694,730.54l1.961,8.818a2.289,2.289,0,0,0,2.792,1.586,2.322,2.322,0,0,0,1.586-2.792l-1.961-8.818a2.289,2.289,0,0,0-2.792-1.586,2.32,2.32,0,0,0-1.586,2.792Z" transform="translate(-412.631 -727.659)" fill="#fff"/>
              </g>
            </g>
          </g>
          <g id="Grupo_1182081" data-name="Grupo 1182081">
            <g id="Grupo_1182080" data-name="Grupo 1182080">
              <path id="Trazado_1041855" data-name="Trazado 1041855" d="M236.833,954.825a62.588,62.588,0,0,0-11.265-44.651,60.092,60.092,0,0,0-8.979-9.913c-.637-.562-1.578.371-.937.937a61.248,61.248,0,0,1,20.2,40.249,58.625,58.625,0,0,1-.3,13.026c-.113.833,1.163,1.194,1.278.352Z" fill="#7c6976"/>
            </g>
          </g>
          <g id="Grupo_1182083" data-name="Grupo 1182083">
            <g id="Grupo_1182082" data-name="Grupo 1182082">
              <path id="Trazado_1041856" data-name="Trazado 1041856" d="M222.4,920.156a19.96,19.96,0,0,0-6.751-5.113.681.681,0,0,0-.906.238.668.668,0,0,0,.238.906,19.05,19.05,0,0,1,6.483,4.906.669.669,0,0,0,.937,0,.678.678,0,0,0,0-.937Z" fill="#7c6976"/>
            </g>
          </g>
          <g id="Grupo_1182085" data-name="Grupo 1182085">
            <g id="Grupo_1182084" data-name="Grupo 1182084">
              <path id="Trazado_1041857" data-name="Trazado 1041857" d="M290.171,875.218c1.168,7.91,3.995,16.252,9.338,22.349a31.339,31.339,0,0,0,17.406,9.905,30.351,30.351,0,0,0,11.368.068c.837-.154.483-1.431-.352-1.278a29.939,29.939,0,0,1-23.839-6.143c-7.577-6.086-11.259-15.882-12.642-25.253-.126-.841-1.4-.483-1.279.352Z" fill="#7c6976"/>
            </g>
          </g>
          <g id="Grupo_1182087" data-name="Grupo 1182087">
            <g id="Grupo_1182086" data-name="Grupo 1182086">
              <path id="Trazado_1041858" data-name="Trazado 1041858" d="M316.621,907.539a267.16,267.16,0,0,1,5.354,41.287c.043.848,1.368.854,1.325,0a269.588,269.588,0,0,0-5.4-41.639c-.174-.834-1.452-.481-1.277.352Z" fill="#7c6976"/>
            </g>
          </g>
          <g id="Grupo_1182089" data-name="Grupo 1182089">
            <g id="Grupo_1182088" data-name="Grupo 1182088">
              <path id="Trazado_1041859" data-name="Trazado 1041859" d="M172.936,896.742a39.616,39.616,0,0,0,17.12-33.363.663.663,0,0,0-1.325,0A38.256,38.256,0,0,1,172.267,895.6c-.7.477-.038,1.626.669,1.144Z" fill="#7c6976"/>
            </g>
          </g>
        </g>
        <g id="Grupo_1182135" data-name="Grupo 1182135" transform="translate(-1925.253 2002.655)">
          <g id="Grupo_1182113" data-name="Grupo 1182113">
            <g id="Grupo_1182110" data-name="Grupo 1182110">
              <g id="Grupo_1182109" data-name="Grupo 1182109">
                <path id="Trazado_1041867" data-name="Trazado 1041867" d="M458.262,683.5l-40.7,27.41-22.371-3.83-31.682-47.038,54.31-36.58Z" fill="#efd7ce"/>
              </g>
            </g>
            <g id="Grupo_1182112" data-name="Grupo 1182112">
              <g id="Grupo_1182111" data-name="Grupo 1182111">
                <path id="Trazado_1041868" data-name="Trazado 1041868" d="M395.2,707.081l22.371,3.83L409.5,697.447Z" fill="#665048"/>
              </g>
            </g>
          </g>
          <g id="Grupo_1182116" data-name="Grupo 1182116">
            <g id="Grupo_1182115" data-name="Grupo 1182115">
              <g id="Grupo_1182114" data-name="Grupo 1182114">
                <path id="Trazado_1041869" data-name="Trazado 1041869" d="M386.767,671.753c-.016-.684.04-2.415,1-2.511.541-.054,1.041.406,1.638.323a2.185,2.185,0,0,0,1.239-.652c.891-.894.8-2.337,1.65-3.194.721-.723,2-.634,2.936-.8a3.444,3.444,0,0,0,2.392-1.413c.655-.985.772-1.981,1.978-2.452,1.414-.552,3.594-.644,3.9-2.509.138-.834-1.139-1.193-1.277-.352-.146.885-1.158,1.042-1.895,1.249a5.97,5.97,0,0,0-2.464,1.11c-.812.734-.895,2.03-1.767,2.672s-2.18.465-3.177.722a3.2,3.2,0,0,0-2.263,1.946,13.524,13.524,0,0,1-.64,1.665c-.475.807-.858.684-1.625.469-2.242-.628-2.99,2.017-2.95,3.729a.663.663,0,0,0,1.326,0Z" fill="#665048"/>
              </g>
            </g>
          </g>
          <g id="Grupo_1182119" data-name="Grupo 1182119">
            <g id="Grupo_1182118" data-name="Grupo 1182118">
              <g id="Grupo_1182117" data-name="Grupo 1182117">
                <path id="Trazado_1041870" data-name="Trazado 1041870" d="M392.382,678.266c-.7-.841,1.2-1.4,1.618-1.469a8.03,8.03,0,0,0,1.884-.434,3.911,3.911,0,0,0,1.885-2.053c.573-1.177.838-2.141,2.324-2.13a3.871,3.871,0,0,0,3.026-1.151,6.892,6.892,0,0,0,1.091-1.5,12.2,12.2,0,0,1,.786-1.607c.617-.792,1.429-.362,2.286-.378a3.064,3.064,0,0,0,1.268-.313c1.649-.8,2.592-3.432,4.507-3.568.846-.06.852-1.385,0-1.325a4.153,4.153,0,0,0-2.717,1.433c-.761.783-1.5,2.016-2.6,2.367-.721.231-1.462-.13-2.2-.053a2.146,2.146,0,0,0-1.538.932c-.893,1.234-1.115,3.01-2.678,3.677-.773.33-1.6.017-2.392.23a2.543,2.543,0,0,0-1.193.741c-.817.874-.961,2.184-1.773,3.047-1.055,1.121-2.955.521-4.122,1.563a2.034,2.034,0,0,0-.407,2.925c.549.653,1.482-.288.938-.938Z" fill="#665048"/>
              </g>
            </g>
          </g>
          <g id="Grupo_1182122" data-name="Grupo 1182122">
            <g id="Grupo_1182121" data-name="Grupo 1182121">
              <g id="Grupo_1182120" data-name="Grupo 1182120">
                <path id="Trazado_1041871" data-name="Trazado 1041871" d="M419.745,658.636c-.075-.126-.029-.05-.016-.008.026.088.024-.065,0-.012a.62.62,0,0,1,.185-.232,1.417,1.417,0,0,1,.913-.18,3.292,3.292,0,0,0,2.168-.553,7.877,7.877,0,0,0,1.17-1.257c.091-.107.183-.214.281-.315.048-.049.1-.1.147-.143.015-.014.157-.134.071-.068a1.628,1.628,0,0,1,.306-.187c.042-.02.039-.019-.008,0,.031-.011.062-.021.094-.03.077-.017.152-.035.231-.046a.667.667,0,0,0,.463-.815.681.681,0,0,0-.815-.463,2.81,2.81,0,0,0-1.661,1.071c-.218.255-.421.524-.644.775a2.771,2.771,0,0,1-.628.55,2.371,2.371,0,0,1-1.072.153,3.306,3.306,0,0,0-1.435.22,1.609,1.609,0,0,0-.892,2.205.663.663,0,0,0,1.145-.669Z" fill="#665048"/>
              </g>
            </g>
          </g>
          <g id="Grupo_1182125" data-name="Grupo 1182125">
            <g id="Grupo_1182124" data-name="Grupo 1182124">
              <g id="Grupo_1182123" data-name="Grupo 1182123">
                <path id="Trazado_1041872" data-name="Trazado 1041872" d="M398.592,685.026a2.012,2.012,0,0,1,.268-1.731l-1.04.134a2.657,2.657,0,0,0,4.1-.647c.324-.517.533-1.095.824-1.63.067-.122.139-.239.216-.354.089-.133-.036.016.049-.061.044-.04.085-.087.128-.13s.024-.024-.036.024c.027-.019.054-.038.082-.055s.057-.032.086-.046c-.076.031-.091.038-.045.022s.208-.02.046-.019c.033,0,.257.016.1-.008a.684.684,0,0,0,.815-.463.668.668,0,0,0-.463-.815,1.756,1.756,0,0,0-1.686.592,6.957,6.957,0,0,0-.892,1.579,6.43,6.43,0,0,1-.421.774,1.22,1.22,0,0,1-.523.481,1.347,1.347,0,0,1-1.449-.182.672.672,0,0,0-1.04.134,3.314,3.314,0,0,0-.4,2.752.663.663,0,0,0,1.277-.351Z" fill="#665048"/>
              </g>
            </g>
          </g>
          <g id="Grupo_1182128" data-name="Grupo 1182128">
            <g id="Grupo_1182127" data-name="Grupo 1182127">
              <g id="Grupo_1182126" data-name="Grupo 1182126">
                <path id="Trazado_1041873" data-name="Trazado 1041873" d="M409.8,677.567c.472-1.034,1.083-2.382,2.167-2.9s2.247.363,3.347-.281a4.925,4.925,0,0,0,1.59-2.068,3.607,3.607,0,0,1,.934-1.27,3.378,3.378,0,0,1,2.029-.353,4.6,4.6,0,0,0,3.016-.647,5.728,5.728,0,0,0,1.455-2.445,1.9,1.9,0,0,1,1.36-1.281c.644-.172,1.288-.23,1.92-.46a8.283,8.283,0,0,0,3.112-2.027c.6-.61-.339-1.547-.937-.937a7,7,0,0,1-3.786,2.02,3.326,3.326,0,0,0-2.631,1.635c-.523.945-.658,2.307-1.812,2.708-1.135.394-2.434-.065-3.6.283a3.665,3.665,0,0,0-2.082,1.888c-.241.421-.439.877-.719,1.275-.479.678-.927.645-1.7.53-2.481-.368-3.876,1.637-4.8,3.665-.352.77.789,1.445,1.143.669Z" fill="#665048"/>
              </g>
            </g>
          </g>
          <g id="Grupo_1182131" data-name="Grupo 1182131">
            <g id="Grupo_1182130" data-name="Grupo 1182130">
              <g id="Grupo_1182129" data-name="Grupo 1182129">
                <path id="Trazado_1041874" data-name="Trazado 1041874" d="M402.774,693.052a1.154,1.154,0,0,1,1.152-1.308c.372.024.681.322,1.035.428a1.547,1.547,0,0,0,.954,0,2.036,2.036,0,0,0,1.076-1.2c.311-.679.5-1.119,1.277-1.322a10.986,10.986,0,0,0,1.921-.493,6.843,6.843,0,0,0,1.847-1.619,8.109,8.109,0,0,1,4.569-2.259c.84-.129.483-1.406-.352-1.278a9.325,9.325,0,0,0-4.82,2.282c-.682.613-1.2,1.5-2.111,1.788a10.681,10.681,0,0,0-2.245.618,3.133,3.133,0,0,0-1.231,1.613c-.139.3-.2.611-.535.581-.368-.034-.73-.373-1.123-.432a2.466,2.466,0,0,0-2.74,2.606c.1.836,1.427.846,1.326,0Z" fill="#665048"/>
              </g>
            </g>
          </g>
          <g id="Grupo_1182134" data-name="Grupo 1182134">
            <g id="Grupo_1182133" data-name="Grupo 1182133">
              <g id="Grupo_1182132" data-name="Grupo 1182132">
                <path id="Trazado_1041875" data-name="Trazado 1041875" d="M424.888,679.58c-.215-.28.029-.54.274-.743a2.847,2.847,0,0,1,1.214-.449,4.429,4.429,0,0,0,1.376-.508,2.578,2.578,0,0,0,.946-1.2.942.942,0,0,1,.853-.613c.487-.071.983-.024,1.468-.12.9-.177,1.922-.867,1.8-1.906a.682.682,0,0,0-.662-.662.666.666,0,0,0-.662.662c.088.774-1.493.65-1.948.7a2.659,2.659,0,0,0-1.448.524,2.007,2.007,0,0,0-.523.685,2.434,2.434,0,0,1-.352.655,2.386,2.386,0,0,1-1.2.5,4.446,4.446,0,0,0-1.4.487c-.84.536-1.6,1.711-.881,2.651a.684.684,0,0,0,.906.238.667.667,0,0,0,.237-.905Z" fill="#665048"/>
              </g>
            </g>
          </g>
        </g>
        <g id="Grupo_1182137" data-name="Grupo 1182137" transform="translate(-1900.921 2001.655)">
          <g id="Grupo_1182136" data-name="Grupo 1182136">
            <rect id="Rect치ngulo_415650" data-name="Rect치ngulo 415650" width="33.555" height="33.555" transform="translate(363.117 870.851)" fill="#ffc94f"/>
          </g>
        </g>
        <g id="Grupo_1182139" data-name="Grupo 1182139" transform="translate(-1900.921 2001.655)">
          <g id="Grupo_1182138" data-name="Grupo 1182138">
            <path id="Trazado_1041876" data-name="Trazado 1041876" d="M396.7,921.765a17.333,17.333,0,1,1,17.333-17.333A17.352,17.352,0,0,1,396.7,921.765Zm0-33.606a16.273,16.273,0,1,0,16.273,16.273A16.291,16.291,0,0,0,396.7,888.159Z" fill="#010100"/>
          </g>
        </g>
        <g id="Grupo_1182141" data-name="Grupo 1182141" transform="translate(-1900.921 2001.655)">
          <g id="Grupo_1182140" data-name="Grupo 1182140">
            <circle id="Elipse_13114" data-name="Elipse 13114" cx="9.665" cy="9.665" r="9.665" transform="translate(395.518 919.328) rotate(-45)" fill="#fc4f4f"/>
          </g>
        </g>
        <g id="Grupo_1182143" data-name="Grupo 1182143" transform="translate(-1900.921 2001.655)">
          <g id="Grupo_1182142" data-name="Grupo 1182142">
            <path id="Trazado_1041877" data-name="Trazado 1041877" d="M110.738,855.753a17.333,17.333,0,1,1,17.333-17.334A17.353,17.353,0,0,1,110.738,855.753Zm0-33.607a16.273,16.273,0,1,0,16.273,16.273A16.291,16.291,0,0,0,110.738,822.146Z" fill="#fff"/>
          </g>
        </g>
        <g id="Grupo_1182145" data-name="Grupo 1182145" transform="translate(-1900.921 2001.655)">
          <g id="Grupo_1182144" data-name="Grupo 1182144">
            <circle id="Elipse_13115" data-name="Elipse 13115" cx="9.665" cy="9.665" r="9.665" transform="translate(113.57 843.654)" fill="#fc4f4f"/>
          </g>
        </g>
        <g id="Grupo_1182148" data-name="Grupo 1182148" transform="translate(-1900.921 2001.655)">
          <g id="Grupo_1182147" data-name="Grupo 1182147">
            <g id="Grupo_1182146" data-name="Grupo 1182146">
              <path id="Trazado_1041878" data-name="Trazado 1041878" d="M191.607,609.1a21.271,21.271,0,0,0-10.254,16.77c-.517,6.913,2.961,13.4,8.407,17.491a20.607,20.607,0,0,0,10.755,4.008,2.672,2.672,0,0,0,2.65-2.65,2.7,2.7,0,0,0-2.65-2.65,15.209,15.209,0,0,1-6.234-28.393c2.944-1.72.279-6.3-2.674-4.576Z" fill="#fc4f4f"/>
            </g>
          </g>
        </g>
        <g id="Grupo_1182151" data-name="Grupo 1182151" transform="translate(-1919.597 2086.728)">
          <g id="Grupo_1182150" data-name="Grupo 1182150" transform="translate(387.785 433.403)">
            <g id="Grupo_1182149" data-name="Grupo 1182149">
              <path id="Trazado_1041879" data-name="Trazado 1041879" d="M390.2,437.384a19.234,19.234,0,0,1,12.164,2.366,20.067,20.067,0,0,1,5.046,4,28.908,28.908,0,0,1,3.94,6.126,35.547,35.547,0,0,0,4.329,6.854,13.675,13.675,0,0,0,6.454,4.129c4.573,1.371,9.482.74,14.161,1.183,4.789.454,9.738,1.754,13.132,5.484a1.9,1.9,0,0,0,2.681-.032,1.974,1.974,0,0,0-.089-2.713c-3.317-3.647-8.034-5.443-12.743-6.19a56.393,56.393,0,0,0-7.367-.631,48.662,48.662,0,0,1-6.886-.354,10.8,10.8,0,0,1-6.321-3.146,30.008,30.008,0,0,1-4.276-6.817c-2.4-4.514-5.353-8.334-9.787-10.962a23.377,23.377,0,0,0-15.49-3.012,1.893,1.893,0,0,0-1.3,2.346,1.983,1.983,0,0,0,2.348,1.363Z" transform="translate(-387.785 -433.403)" fill="#ffc94f"/>
            </g>
          </g>
        </g>
        <g id="Grupo_1182160" data-name="Grupo 1182160" transform="translate(-1900.921 2001.655)">
          <g id="Grupo_1182159" data-name="Grupo 1182159">
            <g id="Grupo_1182158" data-name="Grupo 1182158">
              <path id="Trazado_1041882" data-name="Trazado 1041882" d="M278.023,544.144a5.3,5.3,0,1,0-5.3-5.3,5.358,5.358,0,0,0,5.3,5.3Z" fill="#010100"/>
            </g>
          </g>
        </g>
        <g id="Grupo_1182179" data-name="Grupo 1182179" transform="translate(-1900.921 2070.154)">
          <g id="Grupo_1182166" data-name="Grupo 1182166" transform="translate(374.687 489.388)">
            <g id="Grupo_1182165" data-name="Grupo 1182165">
              <g id="Grupo_1182164" data-name="Grupo 1182164">
                <path id="Trazado_1041884" data-name="Trazado 1041884" d="M432.72,574.329l9.406-29c.782-2.412,1.62-4.814,2.341-7.245a6.357,6.357,0,0,0,.252-3.616,5.934,5.934,0,0,0-1.7-2.542,31.738,31.738,0,0,0-5.577-3.887,59.715,59.715,0,0,0-6.164-3.269,4.281,4.281,0,0,0-3.678-.358,5.017,5.017,0,0,0-1.938,1.941,39.124,39.124,0,0,0-2.732,6.12q-2.679,6.632-4.912,13.433-2.273,6.922-4.07,13.988-.881,3.466-1.648,6.96a12.751,12.751,0,0,0-.545,3.632,4.054,4.054,0,0,0,1.493,2.715,21.691,21.691,0,0,0,5.532,3.033q3.364,1.515,6.867,2.7c1,.339,2.3.973,3.379.757,1.046-.21,1.716-1.49,2.232-2.33a25.933,25.933,0,0,0,2.507-6.076c.318-1.041.626-2.085.96-3.122.138-.428.815-.245.676.186-.717,2.226-1.3,4.5-2.189,6.669a18.579,18.579,0,0,1-1.539,3,5.793,5.793,0,0,1-1.9,2.161,3.747,3.747,0,0,1-2.814-.08c-1.251-.388-2.49-.821-3.718-1.279q-3.542-1.322-6.947-2.981c-1.713-.836-3.653-1.758-4.66-3.467-1.2-2.039-.252-4.615.223-6.738q1.711-7.625,3.976-15.113t5.066-14.783q1.393-3.628,2.918-7.2c.719-1.688,1.547-3.607,3.193-4.593,2-1.2,4.171-.021,6.025.894a65.34,65.34,0,0,1,6.629,3.764,17.065,17.065,0,0,1,4.965,4.107c1.407,2.014.957,4.237.25,6.425q-5.069,15.705-10.182,31.4l-1.294,3.991c-.14.426-.817.243-.677-.188Z" transform="translate(-411.044 -523.432)" fill="#fff"/>
              </g>
            </g>
          </g>
          <g id="Grupo_1182169" data-name="Grupo 1182169" transform="translate(346.088 461.649)">
            <g id="Grupo_1182168" data-name="Grupo 1182168" transform="translate(0)">
              <g id="Grupo_1182167" data-name="Grupo 1182167">
                <path id="Trazado_1041885" data-name="Trazado 1041885" d="M401.84,494.166q-5.093,18.632-10.467,37.186-1.334,4.605-2.686,9.205c-.7,2.385-1.209,5.126-2.715,7.167-1.486,2.014-3.8,2.523-6.179,2.1a33.189,33.189,0,0,1-8.082-2.987c-2.146-1.016-4.783-2.125-5.9-4.382-1.157-2.346-.525-5.1-.09-7.548q1.648-9.268,3.754-18.447t4.662-18.239q1.269-4.5,2.648-8.963.7-2.265,1.427-4.521a16.334,16.334,0,0,1,1.309-3.34c1.387-2.35,3.9-2.54,6.39-2.46a28.108,28.108,0,0,1,8.219,1.508,21.368,21.368,0,0,1,6.993,3.662,6.439,6.439,0,0,1,1.776,6.772c-.294,1.114-.808,2.161-1.063,3.287-.1.44-.776.254-.676-.186.241-1.061.708-2.053,1.01-3.1a7.2,7.2,0,0,0,.042-4.1c-.828-2.419-3.779-3.759-5.936-4.736a27.306,27.306,0,0,0-7.9-2.215,26.091,26.091,0,0,0-4.049-.194,4.89,4.89,0,0,0-3.6,1.3,8.449,8.449,0,0,0-1.587,3.221q-.673,2.059-1.316,4.129-1.293,4.137-2.49,8.3-2.432,8.461-4.472,17.029-2.024,8.5-3.655,17.084-.417,2.2-.808,4.4a27,27,0,0,0-.53,3.932,6.075,6.075,0,0,0,.882,3.65A7.942,7.942,0,0,0,369.618,545a52.4,52.4,0,0,0,7.766,3.43c2.368.833,5.348,1.544,7.388-.391,1.728-1.638,2.24-4.274,2.885-6.466q1.275-4.333,2.535-8.67,5.02-17.281,9.795-34.633.59-2.144,1.176-4.288a.351.351,0,0,1,.676.186Z" transform="translate(-365.156 -478.923)" fill="#fff"/>
              </g>
            </g>
          </g>
          <g id="Grupo_1182172" data-name="Grupo 1182172" transform="translate(314.548 433.076)">
            <g id="Grupo_1182171" data-name="Grupo 1182171">
              <g id="Grupo_1182170" data-name="Grupo 1182170">
                <path id="Trazado_1041886" data-name="Trazado 1041886" d="M352.618,459.34c-3.132,14.344-7.151,28.477-11.407,42.522q-1.569,5.179-3.176,10.346c-.509,1.64-.967,3.307-1.545,4.925a4.626,4.626,0,0,1-2.383,2.952,6.755,6.755,0,0,1-4.02.065c-1.711-.366-3.405-.844-5.071-1.378q-2.471-.792-4.866-1.8a23.939,23.939,0,0,1-4.339-2.078,3.173,3.173,0,0,1-1.2-3.394c.24-1.79.525-3.575.8-5.36q.855-5.526,1.827-11.034,1.908-10.812,4.262-21.54t5.147-21.346q1.405-5.342,2.922-10.654c.757-2.651,1.391-5.944,3.929-7.507,2.492-1.536,5.833-.952,8.536-.42a33.957,33.957,0,0,1,9.367,3.335,8.367,8.367,0,0,1,3.306,2.632,6.823,6.823,0,0,1,.765,4.156,70.244,70.244,0,0,1-1.531,10.357c-.38,1.754-.824,3.493-1.322,5.217a.351.351,0,0,1-.676-.186,79.156,79.156,0,0,0,2.2-9.98c.262-1.715.481-3.445.609-5.176a5.946,5.946,0,0,0-.987-4.482,11.312,11.312,0,0,0-3.723-2.446,33.021,33.021,0,0,0-4.561-1.822,33.6,33.6,0,0,0-4.621-1.109,16.54,16.54,0,0,0-4.515-.275,5.409,5.409,0,0,0-3.9,2.126,12.318,12.318,0,0,0-1.652,3.855c-.967,3.3-1.879,6.611-2.77,9.928q-2.689,10.011-4.986,20.122-4.593,20.217-7.6,40.75a5.563,5.563,0,0,0-.075,2.67,3.136,3.136,0,0,0,1.754,1.512c1.519.76,3.081,1.44,4.664,2.055a45.466,45.466,0,0,0,9.257,2.735c1.582.247,3.238.083,4.174-1.377a18.168,18.168,0,0,0,1.592-4.424q1.522-4.9,3.021-9.8c4.025-13.194,7.868-26.456,11-39.894q.578-2.48,1.121-4.968c.094-.441.77-.254.674.186Z" transform="translate(-314.548 -433.076)" fill="#fff"/>
              </g>
            </g>
          </g>
          <g id="Grupo_1182174" data-name="Grupo 1182174" transform="translate(377.465 507.816)">
            <g id="Grupo_1182173" data-name="Grupo 1182173">
              <path id="Trazado_1041887" data-name="Trazado 1041887" d="M436.685,573.024a87.653,87.653,0,0,1-4.047,11.1,7.666,7.666,0,0,1-1.963,2.839c-2.449,1.956-6.035.653-8.854-.716l-4.582-2.224a3.2,3.2,0,0,1-1.5-1.144,3.169,3.169,0,0,1-.122-2.108,241.217,241.217,0,0,1,6.671-26.241,2.46,2.46,0,0,1,.535-1.1,2.42,2.42,0,0,1,2.08-.363,35.5,35.5,0,0,1,7.075,1.786,24.966,24.966,0,0,1,6.112,2.964c2.546,1.855,1.938,4.507,1.125,7.152C438.39,567.659,437.53,570.34,436.685,573.024Z" transform="translate(-415.501 -553)" fill="#2f9342"/>
            </g>
          </g>
          <g id="Grupo_1182176" data-name="Grupo 1182176" transform="translate(348.519 478.648)">
            <g id="Grupo_1182175" data-name="Grupo 1182175">
              <path id="Trazado_1041888" data-name="Trazado 1041888" d="M396.822,517.779A3.5,3.5,0,0,0,397,515.8a3.44,3.44,0,0,0-1.511-1.645,79.5,79.5,0,0,0-13.819-7.572,2.615,2.615,0,0,0-2.106-.242,2.65,2.65,0,0,0-1.121,1.826q-5.23,19.038-9.11,38.412c-.3,1.486-.548,3.175.352,4.394a5.531,5.531,0,0,0,2.489,1.6l7.74,3.164c1.7.7,5.124,1.542,6.241-.573a13.033,13.033,0,0,0,.674-2.71c.432-1.607.922-3.2,1.384-4.8l5.53-19.182Q395.281,523.125,396.822,517.779Z" transform="translate(-369.056 -506.2)" fill="#4ebdf4"/>
            </g>
          </g>
          <g id="Grupo_1182178" data-name="Grupo 1182178" transform="translate(317.354 450.817)">
            <g id="Grupo_1182177" data-name="Grupo 1182177" transform="translate(0)">
              <path id="Trazado_1041889" data-name="Trazado 1041889" d="M351.917,470.768A5.312,5.312,0,0,0,351.9,467a5.189,5.189,0,0,0-3.244-2.059,91.693,91.693,0,0,0-14.787-3.3,4,4,0,0,0-2.7.277,4.1,4.1,0,0,0-1.417,2.778q-5.961,28.361-10.611,56.978a2.835,2.835,0,0,0,.022,1.473A2.727,2.727,0,0,0,320.5,524.4a29.751,29.751,0,0,0,9.477,3.316,7.384,7.384,0,0,0,3.632-.074c3.289-1.139,3.407-4.88,4.2-7.686,1.027-3.608,2.355-7.161,3.461-10.751q1.873-6.08,3.635-12.195,1.77-6.145,3.426-12.32t3.2-12.382Q351.727,471.536,351.917,470.768Z" transform="translate(-319.05 -461.543)" fill="#fc4f4f"/>
            </g>
          </g>
        </g>
        <g id="Grupo_1182181" data-name="Grupo 1182181" transform="translate(-1900.921 2001.655)">
          <g id="Grupo_1182180" data-name="Grupo 1182180">
            <path id="Trazado_1041890" data-name="Trazado 1041890" d="M136.479,824.856a9.467,9.467,0,1,1,9.467-9.468A9.479,9.479,0,0,1,136.479,824.856Zm0-17.874a8.408,8.408,0,1,0,8.407,8.407A8.418,8.418,0,0,0,136.479,806.982Z" fill="#fff"/>
          </g>
        </g>
      </g>
    </g>
  </g>
</svg>
