<svg xmlns="http://www.w3.org/2000/svg" xmlns:xlink="http://www.w3.org/1999/xlink" width="330" height="274" viewBox="0 0 330 274">
  <defs>
    <clipPath id="clip-path">
      <rect id="Rectángulo_415694" data-name="Rectángulo 415694" width="330" height="274" transform="translate(180.044 254)" fill="#fff" stroke="#707070" stroke-width="1" opacity="0.77"/>
    </clipPath>
  </defs>
  <g id="Enmascarar_grupo_1098829" data-name="Enmascarar grupo 1098829" transform="translate(-180.044 -254)" clip-path="url(#clip-path)">
    <g id="Grupo_1183738" data-name="Grupo 1183738" transform="translate(180.044 261.838)">
      <path id="Trazado_1043987" data-name="Trazado 1043987" d="M63.117,200.9C42.3,185.3,25.98,162.324,21.732,136.109,18.561,116.54,22.943,95.4,34.236,79.3c5.157-7.356,12.889-15.6,21.1-19.171,10.024-4.36,21.542-1.047,32.025-2.177,22.847-2.464,38.612-23.936,57.6-37.342C170.441,2.623,202.888-.984,233.685.207c14.656.566,29.812,2.266,42.466,9.956,21.977,13.352,31.013,40.8,41.21,65.008,10.79,25.621,24.709,50.1,31.163,77.247,3.614,15.2,4.313,32.8-5.2,44.961-6.939,8.867-17.909,13.023-28.416,16.431-56.058,18.182-115.85,26.314-173.9,17.032-26.473-4.233-52.86-12.272-75.03-27.865q-1.444-1.016-2.862-2.078" transform="translate(-20.728 74.338)" fill="#fff8ef"/>
      <g id="Grupo_1183737" data-name="Grupo 1183737" transform="translate(8.49)">
        <rect id="Rectángulo_415692" data-name="Rectángulo 415692" width="130" height="166" rx="10" transform="translate(162.51 0.162)" fill="#fff"/>
        <g id="Grupo_1183736" data-name="Grupo 1183736" transform="translate(0 0.507)">
          <g id="Grupo_1182095" data-name="Grupo 1182095" transform="translate(6.259 55.582)">
            <g id="Grupo_1182092" data-name="Grupo 1182092" transform="translate(4.261 3.835)">
              <g id="Grupo_1182091" data-name="Grupo 1182091" transform="translate(0 0)">
                <path id="Trazado_1041860" data-name="Trazado 1041860" d="M206.839,524.613a28.329,28.329,0,1,1-28.329,28.329h28.329Z" transform="translate(-178.51 -524.613)" fill="#4ebdf4"/>
              </g>
            </g>
            <g id="Grupo_1182094" data-name="Grupo 1182094" transform="translate(0 0)">
              <g id="Grupo_1182093" data-name="Grupo 1182093">
                <path id="Trazado_1041861" data-name="Trazado 1041861" d="M203.151,549.69H173.082V549.2a33.95,33.95,0,0,1,3.69-14.161c3.377-6.555,10.6-14.527,25.861-15.283l.517-.025V549.69Zm-29.066-.986h28.08V520.767c-11.586.7-19.826,5.645-24.5,14.687A34.01,34.01,0,0,0,174.085,548.7Z" transform="translate(-173.082 -519.728)" fill="#010100"/>
              </g>
            </g>
          </g>
          <g id="Grupo_1181707" data-name="Grupo 1181707" transform="translate(230.804 50.175)">
            <g id="Grupo_1181681" data-name="Grupo 1181681" transform="translate(0 0)">
              <g id="Grupo_1181679" data-name="Grupo 1181679">
                <path id="Trazado_1041619" data-name="Trazado 1041619" d="M763.7,635.078a8.563,8.563,0,1,1,8.564-8.563A8.573,8.573,0,0,1,763.7,635.078Zm0-16.415a7.852,7.852,0,1,0,7.852,7.852A7.861,7.861,0,0,0,763.7,618.663Z" transform="translate(-755.141 -617.951)" fill="#442a3a"/>
              </g>
              <g id="Grupo_1181680" data-name="Grupo 1181680" transform="translate(2.449 1.359)">
                <path id="Trazado_1041620" data-name="Trazado 1041620" d="M764.891,630.213a.889.889,0,0,1-.58-.216l-5.4-4.675a.356.356,0,0,1,.465-.538l5.4,4.674a.175.175,0,0,0,.233,0l10.263-9.388a.356.356,0,1,1,.481.525l-10.264,9.388A.888.888,0,0,1,764.891,630.213Z" transform="translate(-758.786 -619.974)" fill="#442a3a"/>
              </g>
            </g>
            <g id="Grupo_1181686" data-name="Grupo 1181686" transform="translate(0 24.548)">
              <g id="Grupo_1181682" data-name="Grupo 1181682">
                <path id="Trazado_1041621" data-name="Trazado 1041621" d="M763.7,671.623a8.563,8.563,0,1,1,8.564-8.563A8.573,8.573,0,0,1,763.7,671.623Zm0-16.415a7.852,7.852,0,1,0,7.852,7.852A7.861,7.861,0,0,0,763.7,655.208Z" transform="translate(-755.141 -654.496)" fill="#442a3a"/>
              </g>
              <g id="Grupo_1181685" data-name="Grupo 1181685" transform="translate(4.169 4.962)">
                <g id="Grupo_1181683" data-name="Grupo 1181683" transform="translate(0 0)">
                  <path id="Trazado_1041622" data-name="Trazado 1041622" d="M769.781,670.338a.354.354,0,0,1-.246-.1l-8.078-7.744a.356.356,0,1,1,.492-.515l8.078,7.743a.356.356,0,0,1-.246.614Z" transform="translate(-761.348 -661.883)" fill="#442a3a"/>
                </g>
                <g id="Grupo_1181684" data-name="Grupo 1181684">
                  <path id="Trazado_1041623" data-name="Trazado 1041623" d="M761.7,670.338a.356.356,0,0,1-.246-.613l8.078-7.743a.356.356,0,1,1,.492.514l-8.078,7.744A.355.355,0,0,1,761.7,670.338Z" transform="translate(-761.347 -661.882)" fill="#442a3a"/>
                </g>
              </g>
            </g>
            <g id="Grupo_1181689" data-name="Grupo 1181689" transform="translate(0 48.465)">
              <g id="Grupo_1181687" data-name="Grupo 1181687">
                <path id="Trazado_1041624" data-name="Trazado 1041624" d="M763.7,707.229a8.563,8.563,0,1,1,8.564-8.563A8.573,8.573,0,0,1,763.7,707.229Zm0-16.415a7.852,7.852,0,1,0,7.852,7.852A7.86,7.86,0,0,0,763.7,690.814Z" transform="translate(-755.141 -690.102)" fill="#442a3a"/>
              </g>
              <g id="Grupo_1181688" data-name="Grupo 1181688" transform="translate(2.449 1.359)">
                <path id="Trazado_1041625" data-name="Trazado 1041625" d="M764.891,702.365a.889.889,0,0,1-.58-.216l-5.4-4.675a.356.356,0,0,1,.465-.538l5.4,4.674a.175.175,0,0,0,.233,0l10.263-9.389a.356.356,0,1,1,.481.525l-10.264,9.389A.885.885,0,0,1,764.891,702.365Z" transform="translate(-758.786 -692.125)" fill="#442a3a"/>
              </g>
            </g>
            <g id="Grupo_1181694" data-name="Grupo 1181694" transform="translate(0 73.014)">
              <g id="Grupo_1181690" data-name="Grupo 1181690">
                <path id="Trazado_1041626" data-name="Trazado 1041626" d="M763.7,743.775a8.564,8.564,0,1,1,8.564-8.564A8.573,8.573,0,0,1,763.7,743.775Zm0-16.415a7.852,7.852,0,1,0,7.852,7.852A7.861,7.861,0,0,0,763.7,727.36Z" transform="translate(-755.141 -726.648)" fill="#442a3a"/>
              </g>
              <g id="Grupo_1181693" data-name="Grupo 1181693" transform="translate(4.169 4.961)">
                <g id="Grupo_1181691" data-name="Grupo 1181691" transform="translate(0 0.001)">
                  <path id="Trazado_1041627" data-name="Trazado 1041627" d="M769.781,742.49a.354.354,0,0,1-.246-.1l-8.078-7.744a.356.356,0,1,1,.492-.514l8.078,7.744a.357.357,0,0,1,.011.5A.353.353,0,0,1,769.781,742.49Z" transform="translate(-761.348 -734.035)" fill="#442a3a"/>
                </g>
                <g id="Grupo_1181692" data-name="Grupo 1181692">
                  <path id="Trazado_1041628" data-name="Trazado 1041628" d="M761.7,742.49a.356.356,0,0,1-.246-.613l8.078-7.744a.356.356,0,1,1,.492.514l-8.078,7.744A.35.35,0,0,1,761.7,742.49Z" transform="translate(-761.347 -734.034)" fill="#442a3a"/>
                </g>
              </g>
            </g>
            <g id="Grupo_1181697" data-name="Grupo 1181697" transform="translate(23.338 6.428)">
              <g id="Grupo_1181695" data-name="Grupo 1181695">
                <path id="Trazado_1041629" data-name="Trazado 1041629" d="M804.219,628.232H790.241a.356.356,0,1,1,0-.712h13.978a.356.356,0,1,1,0,.712Z" transform="translate(-789.885 -627.52)" fill="#442a3a"/>
              </g>
              <g id="Grupo_1181696" data-name="Grupo 1181696" transform="translate(0 3.559)">
                <path id="Trazado_1041630" data-name="Trazado 1041630" d="M818.3,633.53H790.241a.356.356,0,1,1,0-.712H818.3a.356.356,0,1,1,0,.712Z" transform="translate(-789.885 -632.818)" fill="#442a3a"/>
              </g>
            </g>
            <g id="Grupo_1181700" data-name="Grupo 1181700" transform="translate(23.338 31.601)">
              <g id="Grupo_1181698" data-name="Grupo 1181698">
                <path id="Trazado_1041631" data-name="Trazado 1041631" d="M804.219,665.708H790.241a.356.356,0,1,1,0-.712h13.978a.356.356,0,1,1,0,.712Z" transform="translate(-789.885 -664.996)" fill="#442a3a"/>
              </g>
              <g id="Grupo_1181699" data-name="Grupo 1181699" transform="translate(0 3.56)">
                <path id="Trazado_1041632" data-name="Trazado 1041632" d="M818.3,671.008H790.241a.356.356,0,1,1,0-.712H818.3a.356.356,0,1,1,0,.712Z" transform="translate(-789.885 -670.296)" fill="#442a3a"/>
              </g>
            </g>
            <g id="Grupo_1181703" data-name="Grupo 1181703" transform="translate(23.338 54.893)">
              <g id="Grupo_1181701" data-name="Grupo 1181701">
                <path id="Trazado_1041633" data-name="Trazado 1041633" d="M804.219,700.384H790.241a.356.356,0,1,1,0-.712h13.978a.356.356,0,1,1,0,.712Z" transform="translate(-789.885 -699.672)" fill="#442a3a"/>
              </g>
              <g id="Grupo_1181702" data-name="Grupo 1181702" transform="translate(0 3.559)">
                <path id="Trazado_1041634" data-name="Trazado 1041634" d="M818.3,705.682H790.241a.356.356,0,1,1,0-.712H818.3a.356.356,0,1,1,0,.712Z" transform="translate(-789.885 -704.97)" fill="#442a3a"/>
              </g>
            </g>
            <g id="Grupo_1181706" data-name="Grupo 1181706" transform="translate(23.338 80.067)">
              <g id="Grupo_1181704" data-name="Grupo 1181704">
                <path id="Trazado_1041635" data-name="Trazado 1041635" d="M804.219,737.861H790.241a.356.356,0,1,1,0-.712h13.978a.356.356,0,1,1,0,.712Z" transform="translate(-789.885 -737.149)" fill="#442a3a"/>
              </g>
              <g id="Grupo_1181705" data-name="Grupo 1181705" transform="translate(0 3.559)">
                <path id="Trazado_1041636" data-name="Trazado 1041636" d="M818.3,743.159H790.241a.356.356,0,1,1,0-.712H818.3a.356.356,0,1,1,0,.712Z" transform="translate(-789.885 -742.447)" fill="#442a3a"/>
              </g>
            </g>
          </g>
          <g id="Grupo_1181711" data-name="Grupo 1181711" transform="translate(176.277 35.844)">
            <g id="Grupo_1181708" data-name="Grupo 1181708" transform="translate(0)">
              <rect id="Rectángulo_415646" data-name="Rectángulo 415646" width="46.957" height="46.957" fill="#ffca5f"/>
            </g>
            <g id="Grupo_1181709" data-name="Grupo 1181709" transform="translate(0 20.28)">
              <path id="Trazado_1041637" data-name="Trazado 1041637" d="M673.965,653.485S681.537,634.7,693.5,639.7s11.876-16.105,27.42-12.47v26.253H673.965Z" transform="translate(-673.965 -626.808)" fill="#308391"/>
            </g>
            <g id="Grupo_1181710" data-name="Grupo 1181710" transform="translate(6.209 8.306)">
              <path id="Trazado_1041638" data-name="Trazado 1041638" d="M690.964,612.859a3.878,3.878,0,1,1-3.878-3.878A3.878,3.878,0,0,1,690.964,612.859Z" transform="translate(-683.208 -608.981)" fill="#fff"/>
            </g>
          </g>
          <g id="Grupo_1181815" data-name="Grupo 1181815" transform="translate(95.688 30.135)">
            <g id="Grupo_1181814" data-name="Grupo 1181814" transform="translate(0 0)">
              <path id="Trazado_1041700" data-name="Trazado 1041700" d="M546.511,581.207l-7.07.412-3.6.21a21.335,21.335,0,0,1-3.216.057c-1.869-.174-4.485-1.619-3.672-3.9.519-1.454,2.332-1.966,3.658-2.355a17.917,17.917,0,0,0,4.339-1.657,22.371,22.371,0,0,0,3.793-3.043c1.22-1.159,2.4-2.367,3.7-3.436A15.325,15.325,0,0,1,546.586,566c.784-.445,1.932-1.134,2.852-.831.989.325,1.416,1.67,1.651,2.563a5.033,5.033,0,0,1-.114,3.332c-.37.818-1.3,1.854-2.287,1.833-.957-.02-.376-1.726-.141-2.228a19.372,19.372,0,0,1,3.351-5.016,7.094,7.094,0,0,1,5.528-2.453,4.735,4.735,0,0,1,2.5,8.437c-.4.325-1.309.994-1.819.587a1.608,1.608,0,0,1-.346-1.306,5.651,5.651,0,0,1,.916-2.624,6.106,6.106,0,0,1,1.927-1.892,3.633,3.633,0,0,1,2.842-.668c1.352.507.879,2.75.9,3.847a3.473,3.473,0,0,0,1.615,3.262c1.369.715,3.04.51,4.527.62a6.372,6.372,0,0,1,4.641,2.525,6.225,6.225,0,0,1,1.1,2.416c.092.412.724.238.633-.174a7.042,7.042,0,0,0-3.577-4.653c-1.885-.995-3.852-.613-5.865-.955a2.586,2.586,0,0,1-2.2-1.555,7.42,7.42,0,0,1-.213-2.676c.024-1.409-.122-3.231-1.9-3.4-1.983-.185-4,1.4-5.011,2.969-.711,1.1-1.9,4.14-.147,4.94.855.39,1.873-.328,2.5-.864a5.634,5.634,0,0,0,1.653-2.487,5.311,5.311,0,0,0-1.3-5.4,5.582,5.582,0,0,0-5.766-1.314,10.4,10.4,0,0,0-5.238,4.393,25.712,25.712,0,0,0-1.8,3.026,3.347,3.347,0,0,0-.395,2.525,1.332,1.332,0,0,0,.606.761,2.137,2.137,0,0,0,1.342-.211,3.9,3.9,0,0,0,1.989-1.976,5.457,5.457,0,0,0,.266-3.345,5.771,5.771,0,0,0-1.33-2.917c-1.538-1.532-3.979.075-5.379,1.06-3.307,2.328-5.681,5.908-9.358,7.721-1.728.852-3.7,1.042-5.426,1.89-1.531.75-2.632,2.274-1.982,4.023.809,2.177,3.231,2.8,5.322,2.793,2.816-.011,5.652-.3,8.464-.464l4.37-.255c.421-.025.423-.681,0-.656Z" transform="translate(-528.164 -562.543)" fill="#442a3a"/>
            </g>
          </g>
          <g id="Grupo_1181925" data-name="Grupo 1181925" transform="translate(162.735)">
            <g id="Grupo_1181918" data-name="Grupo 1181918" transform="translate(0 0)">
              <path id="Trazado_1041761" data-name="Trazado 1041761" d="M774.436,709.516H663.062a9.269,9.269,0,0,1-9.258-9.259V552.512a9.269,9.269,0,0,1,9.258-9.258H774.436a9.269,9.269,0,0,1,9.258,9.259V700.258A9.27,9.27,0,0,1,774.436,709.516ZM663.062,544.678a7.843,7.843,0,0,0-7.834,7.834V700.258a7.843,7.843,0,0,0,7.834,7.835H774.436a7.843,7.843,0,0,0,7.834-7.835V552.513a7.843,7.843,0,0,0-7.834-7.835Z" transform="translate(-653.804 -543.254)" fill="#010100"/>
            </g>
            <g id="Grupo_1181919" data-name="Grupo 1181919" transform="translate(0.712 13.474)">
              <rect id="Rectángulo_415649" data-name="Rectángulo 415649" width="128.466" height="1.424" fill="#010100"/>
            </g>
            <g id="Grupo_1181924" data-name="Grupo 1181924" transform="translate(8.464 5.427)">
              <g id="Grupo_1181920" data-name="Grupo 1181920" transform="translate(7.615)">
                <circle id="Elipse_13110" data-name="Elipse 13110" cx="2.325" cy="2.325" r="2.325" fill="#369949"/>
              </g>
              <g id="Grupo_1181923" data-name="Grupo 1181923">
                <g id="Grupo_1181921" data-name="Grupo 1181921">
                  <path id="Trazado_1041762" data-name="Trazado 1041762" d="M671.054,553.659a2.325,2.325,0,1,1-2.325-2.325A2.325,2.325,0,0,1,671.054,553.659Z" transform="translate(-666.404 -551.334)" fill="#4ebdf4"/>
                </g>
                <g id="Grupo_1181922" data-name="Grupo 1181922" transform="translate(15.229)">
                  <circle id="Elipse_13111" data-name="Elipse 13111" cx="2.325" cy="2.325" r="2.325" fill="#ffc94f"/>
                </g>
              </g>
            </g>
          </g>
          <g id="Grupo_1181981" data-name="Grupo 1181981" transform="translate(24.091 26.348)">
            <g id="Grupo_1181926" data-name="Grupo 1181926" transform="translate(0 130.596)">
              <path id="Trazado_1041763" data-name="Trazado 1041763" d="M456.562,792.607c-5.176,6.16-9,13.787-9.154,21.832-.159,8.292,3.543,16.18,7.989,23.182,4.2,6.61,9.3,12.9,16.111,16.766,2.8,1.592,6.1,2.763,9.22,1.97,2.8-.711,4.973-2.869,6.856-5.056a67.813,67.813,0,0,0,16.028-37.927c.848-9.518-.551-19.69-6.369-27.271a24.138,24.138,0,0,0-17.737-9.17c-5.718-.38-8.928,2.72-13.094,6.17A75.987,75.987,0,0,0,456.562,792.607Z" transform="translate(-447.403 -776.9)" fill="#b20f0f"/>
            </g>
            <g id="Grupo_1181980" data-name="Grupo 1181980" transform="translate(3.872)">
              <g id="Grupo_1181927" data-name="Grupo 1181927" transform="translate(0 175.456)">
                <path id="Trazado_1041764" data-name="Trazado 1041764" d="M479.3,854.745a144.275,144.275,0,0,0-26.138,65.048,176.6,176.6,0,0,0,89.646,18.048c3.531-16.789,5.879-36.2,5.762-53.358-.054-7.811-.6-16.009-4.741-22.636-6.674-10.69-20.378-14.126-32.734-16.6-5.246-1.053-10.629-2.1-15.91-1.242C490.054,844.835,482.365,850.537,479.3,854.745Z" transform="translate(-453.167 -843.684)" fill="#4ebdf4"/>
              </g>
              <g id="Grupo_1181928" data-name="Grupo 1181928" transform="translate(13.561 109.032)">
                <path id="Trazado_1041765" data-name="Trazado 1041765" d="M583.067,774.537c.972,6.1-1.525,12.229-4.82,17.579s-7.429,10.26-10.223,15.849c-8.829,17.663-3.025,39.106-10.645,57.248-.377.175-.5-.446-.881-.271a167.114,167.114,0,0,1-83.143-33.661c4.535-13.021,8.834-27.9,13.369-40.918,2.941-8.446,5.938-17,11.132-24.453a44.027,44.027,0,0,1,15.724-14.056c7.909-4.084,17.076-5.436,26.05-6.518,4.584-.553,9.375-1.033,13.722.428,5.3,1.782,9.03,6.122,12.474,10.263C569.688,760.671,582.142,768.735,583.067,774.537Z" transform="translate(-473.356 -744.797)" fill="#f45151"/>
              </g>
              <g id="Grupo_1181945" data-name="Grupo 1181945" transform="translate(69.641 37.245)">
                <g id="Grupo_1181929" data-name="Grupo 1181929">
                  <path id="Trazado_1041766" data-name="Trazado 1041766" d="M578.251,637.928c-3.728-.036-7.283,1.549-10.5,3.441a25.3,25.3,0,0,0-8.143,6.984c-4.821,6.9-3.165,17.491,3.535,22.591,1.543,1.175,3.291,2.077,4.738,3.369,2.047,1.829,3.588,4.488,6.233,5.224,3.434.956,6.8-1.9,8.536-5.018,2.681-4.818,3.214-10.5,3.692-15.99.359-4.132.75-8.263,1.1-12.4.257-3.013-1.093-5.064-3.686-6.648A12.173,12.173,0,0,0,578.251,637.928Z" transform="translate(-556.842 -637.927)" fill="#442a3a"/>
                </g>
                <g id="Grupo_1181930" data-name="Grupo 1181930" transform="translate(7.187 1.985)">
                  <path id="Trazado_1041767" data-name="Trazado 1041767" d="M596.212,648.642a18.906,18.906,0,0,0-4.5-5.623,9.03,9.03,0,0,0-6.743-2.062,9.708,9.708,0,0,0-4.267,1.911,14.484,14.484,0,0,0-5.854,12.849,11.539,11.539,0,0,1-.226,4.122,1.682,1.682,0,0,1-.608,1.011c-1.033.705-2.241-.648-3.465-.906-1.424-.3-2.764,1.077-2.966,2.518a7.572,7.572,0,0,0,1.026,4.178,10.5,10.5,0,0,0,2.528,3.721,3.9,3.9,0,0,0,4.214.688,5.6,5.6,0,0,1,1.292-.7,1.954,1.954,0,0,1,2.133,1.7c.179,1-9.562,23.362-11.232,26.065,3.035,2.008,14.649,7.343,17.146,5.188,3.4-2.933,4.858-20.213,6.684-24.062,3.377.017,5.052-.576,7.2-3.049a11.291,11.291,0,0,0,2.162-3.617C603.526,664.663,600.286,655.778,596.212,648.642Z" transform="translate(-567.542 -640.882)" fill="#ff9976"/>
                </g>
                <g id="Grupo_1181931" data-name="Grupo 1181931" transform="translate(23.674 36.33)">
                  <path id="Trazado_1041768" data-name="Trazado 1041768" d="M600.081,696.4a10.341,10.341,0,0,1-7.917-3.814.356.356,0,1,1,.556-.443,9.617,9.617,0,0,0,7.36,3.546h.019a.357.357,0,0,1,.356.355A.367.367,0,0,1,600.081,696.4Z" transform="translate(-592.086 -692.013)" fill="#892e0a"/>
                </g>
                <g id="Grupo_1181932" data-name="Grupo 1181932" transform="translate(22.771 16.773)">
                  <path id="Trazado_1041769" data-name="Trazado 1041769" d="M591.1,667.3a.356.356,0,0,1-.3-.549,10.248,10.248,0,0,1,4.531-3.831.356.356,0,1,1,.281.655,9.524,9.524,0,0,0-4.214,3.562A.354.354,0,0,1,591.1,667.3Z" transform="translate(-590.742 -662.897)" fill="#442a3a"/>
                </g>
                <g id="Grupo_1181933" data-name="Grupo 1181933" transform="translate(33.394 12.616)">
                  <path id="Trazado_1041770" data-name="Trazado 1041770" d="M606.913,660.523A.356.356,0,0,1,606.6,660a7.379,7.379,0,0,1,3.345-3.26.356.356,0,0,1,.309.641,6.667,6.667,0,0,0-3.019,2.944A.358.358,0,0,1,606.913,660.523Z" transform="translate(-606.557 -656.709)" fill="#442a3a"/>
                </g>
                <g id="Grupo_1181934" data-name="Grupo 1181934" transform="translate(25.508 18.141)">
                  <path id="Trazado_1041771" data-name="Trazado 1041771" d="M596.694,666.157c.273.82.1,1.615-.38,1.775s-1.094-.374-1.368-1.194-.1-1.615.38-1.776S596.421,665.337,596.694,666.157Z" transform="translate(-594.816 -664.934)" fill="#442a3a"/>
                </g>
                <g id="Grupo_1181935" data-name="Grupo 1181935" transform="translate(35.175 13.871)">
                  <path id="Trazado_1041772" data-name="Trazado 1041772" d="M611.086,659.8c.273.82.1,1.615-.38,1.775s-1.094-.374-1.368-1.194-.1-1.615.38-1.775S610.812,658.979,611.086,659.8Z" transform="translate(-609.208 -658.577)" fill="#442a3a"/>
                </g>
                <g id="Grupo_1181936" data-name="Grupo 1181936" transform="translate(19.891 13.385)">
                  <path id="Trazado_1041773" data-name="Trazado 1041773" d="M590.817,659.448a1.049,1.049,0,0,0,.148-1.285,1.009,1.009,0,0,0-.611-.28,3.068,3.068,0,0,0-2.632,1,5.226,5.226,0,0,0-1.227,2.62c-.079.412-.091.96.414,1.086.345.087.508-.208.672-.458a6.083,6.083,0,0,1,2.035-1.681A4.6,4.6,0,0,0,590.817,659.448Z" transform="translate(-586.455 -657.854)" fill="#442a3a"/>
                </g>
                <g id="Grupo_1181937" data-name="Grupo 1181937" transform="translate(30.984 8.701)">
                  <path id="Trazado_1041774" data-name="Trazado 1041774" d="M603.641,653.723a.567.567,0,0,1-.672-.578,1.51,1.51,0,0,1,.191-.643,2.93,2.93,0,0,1,1.849-1.573,2.339,2.339,0,0,1,1.857.435.694.694,0,0,1,.285.922c-.142.325-.364.3-.565.292a3.946,3.946,0,0,0-1.848.725A2.947,2.947,0,0,1,603.641,653.723Z" transform="translate(-602.969 -650.88)" fill="#442a3a"/>
                </g>
                <g id="Grupo_1181938" data-name="Grupo 1181938" transform="translate(25.507 21.851)">
                  <path id="Trazado_1041775" data-name="Trazado 1041775" d="M600.1,671.189c.47.882-.3,2.211-1.724,2.97s-2.956.659-3.426-.223.3-2.211,1.724-2.97S599.633,670.307,600.1,671.189Z" transform="translate(-594.816 -670.456)" fill="#d64747"/>
                </g>
                <g id="Grupo_1181940" data-name="Grupo 1181940" transform="translate(33.308 17.461)">
                  <g id="Grupo_1181939" data-name="Grupo 1181939">
                    <path id="Trazado_1041776" data-name="Trazado 1041776" d="M606.442,664.476a9.168,9.168,0,0,0,2.3,4.216c.547.57,1.221.969,1.79,1.506a.967.967,0,0,1-.209,1.681c-.524.227-.071.994.449.768a1.834,1.834,0,0,0,1.046-1.917c-.132-.915-.953-1.388-1.617-1.911a8.268,8.268,0,0,1-2.9-4.582c-.132-.556-.991-.32-.858.237Z" transform="translate(-606.428 -663.922)" fill="#892e0a"/>
                  </g>
                </g>
                <g id="Grupo_1181942" data-name="Grupo 1181942" transform="translate(32.081 26.202)">
                  <g id="Grupo_1181941" data-name="Grupo 1181941">
                    <path id="Trazado_1041777" data-name="Trazado 1041777" d="M604.734,677.693a4.7,4.7,0,0,0,4.466,1.192.445.445,0,0,0-.237-.858,3.789,3.789,0,0,1-3.6-.963.445.445,0,0,0-.629.629Z" transform="translate(-604.602 -676.934)" fill="#892e0a"/>
                  </g>
                </g>
                <g id="Grupo_1181944" data-name="Grupo 1181944" transform="translate(32.67 28.928)">
                  <g id="Grupo_1181943" data-name="Grupo 1181943">
                    <path id="Trazado_1041778" data-name="Trazado 1041778" d="M605.8,681.868l.8.271a.448.448,0,0,0,.343-.045.455.455,0,0,0,.2-.266.448.448,0,0,0-.045-.343.486.486,0,0,0-.266-.2l-.8-.271a.445.445,0,0,0-.547.311.448.448,0,0,0,.045.343.491.491,0,0,0,.266.2Z" transform="translate(-605.478 -680.993)" fill="#892e0a"/>
                  </g>
                </g>
              </g>
              <g id="Grupo_1181961" data-name="Grupo 1181961" transform="translate(186.15)">
                <g id="Grupo_1181946" data-name="Grupo 1181946" transform="translate(0 0.185)">
                  <path id="Trazado_1041779" data-name="Trazado 1041779" d="M743.45,658.9c14.711-35.056,16.9-34,30.3-43.511a5.286,5.286,0,0,0,2.1-2.248c.363-.977-.3-2.569-1.333-2.739a4.923,4.923,0,0,0,1.612-3.233,3.008,3.008,0,0,0-2.553-2.636c1.429-1.952.253-4.437-1.787-5.736,2.52-2.449,9.429-9.337,11.627-12.079.686-.856,1.4-1.921.792-3a1.97,1.97,0,0,0-1.384-.921,4.905,4.905,0,0,0-3.378,1.025c-4.92,3-14.036,10.858-18.145,14.9a9.552,9.552,0,0,1-3.3,2.462l-.039.014a2.093,2.093,0,0,1-2.389-3.1l3.994-6.562a2.167,2.167,0,0,0,.181-2c-.734-1.623-2.774-.937-4.066-.061a35.454,35.454,0,0,0-12.849,15.872,59.694,59.694,0,0,1-3.132,7.548c-1.364,2.362-7.849,19.424-9.4,25.556C730,638.168,734.653,650.179,743.45,658.9Z" transform="translate(-730.293 -582.754)" fill="#ff9976"/>
                </g>
                <g id="Grupo_1181948" data-name="Grupo 1181948" transform="translate(24.105 6.391)">
                  <g id="Grupo_1181947" data-name="Grupo 1181947">
                    <path id="Trazado_1041780" data-name="Trazado 1041780" d="M766.4,593.881a3.24,3.24,0,0,0,2.766.455,4.388,4.388,0,0,0,2.29-1.673.448.448,0,0,0-.16-.609.455.455,0,0,0-.609.16,2.789,2.789,0,0,1-3.838.9.448.448,0,0,0-.609.16.455.455,0,0,0,.16.608Z" transform="translate(-766.178 -591.993)" fill="#892e0a"/>
                  </g>
                </g>
                <g id="Grupo_1181950" data-name="Grupo 1181950" transform="translate(50.407)">
                  <g id="Grupo_1181949" data-name="Grupo 1181949">
                    <path id="Trazado_1041781" data-name="Trazado 1041781" d="M806.885,582.606a3.889,3.889,0,0,0-1.55,2.869,2.446,2.446,0,0,0,1.616,2.343c.548.172.782-.687.237-.859a1.572,1.572,0,0,1-.961-1.6,3.165,3.165,0,0,1,1.288-2.12.449.449,0,0,0,0-.629.456.456,0,0,0-.629,0Z" transform="translate(-805.335 -582.479)" fill="#892e0a"/>
                  </g>
                </g>
                <g id="Grupo_1181952" data-name="Grupo 1181952" transform="translate(37.939 15.626)">
                  <g id="Grupo_1181951" data-name="Grupo 1181951">
                    <path id="Trazado_1041782" data-name="Trazado 1041782" d="M790.146,605.871a46.829,46.829,0,0,1-3.236,3.406c-.416.4.214,1.024.629.629a46.783,46.783,0,0,0,3.236-3.406.457.457,0,0,0,0-.629.448.448,0,0,0-.629,0Z" transform="translate(-786.774 -605.742)" fill="#892e0a"/>
                  </g>
                </g>
                <g id="Grupo_1181954" data-name="Grupo 1181954" transform="translate(40.786 20.906)">
                  <g id="Grupo_1181953" data-name="Grupo 1181953">
                    <path id="Trazado_1041783" data-name="Trazado 1041783" d="M793.561,613.819q-.239.4-.513.783a8.7,8.7,0,0,1-.545.679,10.291,10.291,0,0,1-1.361,1.284.446.446,0,0,0,0,.63.458.458,0,0,0,.629,0,10.625,10.625,0,0,0,2.559-2.926.445.445,0,0,0-.768-.449Z" transform="translate(-791.011 -613.603)" fill="#892e0a"/>
                  </g>
                </g>
                <g id="Grupo_1181956" data-name="Grupo 1181956" transform="translate(42.298 26.377)">
                  <g id="Grupo_1181955" data-name="Grupo 1181955">
                    <path id="Trazado_1041784" data-name="Trazado 1041784" d="M795.407,621.961a6.186,6.186,0,0,1-.381.719c-.068.11-.14.217-.214.322l-.06.083-.039.052c.03-.039-.042.054-.04.051l-.065.079a6.158,6.158,0,0,1-.546.576c-.1.092-.2.181-.308.267l-.064.051c.062-.049-.011.008-.023.017-.06.044-.121.088-.182.13a.445.445,0,1,0,.449.768,6.516,6.516,0,0,0,2.242-2.667.456.456,0,0,0-.16-.609.451.451,0,0,0-.609.16Z" transform="translate(-793.263 -621.747)" fill="#892e0a"/>
                  </g>
                </g>
                <g id="Grupo_1181957" data-name="Grupo 1181957" transform="translate(31.063 19.229)">
                  <path id="Trazado_1041785" data-name="Trazado 1041785" d="M778.226,614.477a1.593,1.593,0,0,1-.187-.011,1.669,1.669,0,1,1,.187.011Zm0-2.66a.974.974,0,0,0-.1,1.942.978.978,0,0,0,1.074-.861h0a.974.974,0,0,0-.862-1.074A.8.8,0,0,0,778.221,611.817Z" transform="translate(-776.538 -611.105)" fill="#892e0a"/>
                </g>
                <g id="Grupo_1181958" data-name="Grupo 1181958" transform="translate(34.632 22.859)">
                  <path id="Trazado_1041786" data-name="Trazado 1041786" d="M783.539,619.882a1.735,1.735,0,0,1-.187-.01,1.684,1.684,0,1,1,.187.01Zm0-2.66a.974.974,0,0,0-.1,1.942.952.952,0,0,0,.715-.209.967.967,0,0,0,.359-.654h0a.972.972,0,0,0-.861-1.073A.947.947,0,0,0,783.534,617.221Z" transform="translate(-781.851 -616.51)" fill="#892e0a"/>
                </g>
                <g id="Grupo_1181959" data-name="Grupo 1181959" transform="translate(37.144 26.817)">
                  <path id="Trazado_1041787" data-name="Trazado 1041787" d="M787.278,625.774a1.566,1.566,0,0,1-.185-.01,1.686,1.686,0,1,1,1.859-1.491h0A1.689,1.689,0,0,1,787.278,625.774Zm0-2.659a.974.974,0,1,0,.969,1.079h0a.972.972,0,0,0-.862-1.073A.983.983,0,0,0,787.276,623.115Zm1.323,1.119h0Z" transform="translate(-785.591 -622.403)" fill="#892e0a"/>
                </g>
                <g id="Grupo_1181960" data-name="Grupo 1181960" transform="translate(39.434 30.677)">
                  <path id="Trazado_1041788" data-name="Trazado 1041788" d="M790.328,630.8a1.2,1.2,0,0,1-.147-.009,1.327,1.327,0,1,1,1.464-1.174h0a1.33,1.33,0,0,1-1.317,1.183Zm0-1.942a.606.606,0,0,0-.382.135.615.615,0,0,0,.317,1.091.6.6,0,0,0,.451-.132.612.612,0,0,0,.226-.413h0a.614.614,0,0,0-.543-.677A.58.58,0,0,0,790.324,628.861Z" transform="translate(-788.999 -628.148)" fill="#892e0a"/>
                </g>
              </g>
              <g id="Grupo_1181962" data-name="Grupo 1181962" transform="translate(60.55 50.217)">
                <path id="Trazado_1041789" data-name="Trazado 1041789" d="M560.841,743.2c29.32,12.737,62.65,14.36,93.31,5.433a9.731,9.731,0,0,0,5.677-4.418,404.967,404.967,0,0,0,30.832-65.876c-5.812-9.955-16.126-15.49-26.195-21.1-11.118,18.862-21.246,37.945-31.026,57.535Q605.1,708.4,576.277,704.5a61.043,61.043,0,0,0-7.621-.565c-3.886-.035-8.261-.589-11.866,1.215-3.144,1.573-5.184,4.673-7.074,7.636-3.809,5.968-7.784,12.883-5.941,19.719C545.45,738.725,554.932,740.637,560.841,743.2Z" transform="translate(-543.309 -657.239)" fill="#f45151"/>
              </g>
              <g id="Grupo_1181963" data-name="Grupo 1181963" transform="translate(13.563 36.295)">
                <path id="Trazado_1041790" data-name="Trazado 1041790" d="M550.706,640.809c-6.528,5.994-8.173,17.362-3.567,24.933,1.639,2.694,3.958,5.033,4.922,8.035,1.412,4.394-.39,9.145-2.542,13.228s-4.748,8.167-5.029,12.775c-.222,3.628,1.028,7.161,1.664,10.74,2.244,12.633-3.649,26-13.618,34.074s-23.462,11.13-36.213,9.707c-4.5-.5-9.1-1.6-12.639-4.415a22.563,22.563,0,0,1-5.841-7.711,43.167,43.167,0,0,1-1.785-34.181c2.959-7.832,9.268-15.31,17.612-15.987a10.337,10.337,0,0,0,9.546-8.194c.824-4.592-.339-9.318.036-13.968.561-6.956,4.537-13.236,9.427-18.214a52.312,52.312,0,0,1,29.645-15c2.716-.39,9.631.156,12.039,1.474C555.435,638.7,550.424,640.029,550.706,640.809Z" transform="translate(-473.358 -636.513)" fill="#442a3a"/>
              </g>
              <g id="Grupo_1181965" data-name="Grupo 1181965" transform="translate(147.239 94.267)">
                <g id="Grupo_1181964" data-name="Grupo 1181964">
                  <path id="Trazado_1041791" data-name="Trazado 1041791" d="M673.258,744.433a171.952,171.952,0,0,1,10.324-20.952.445.445,0,0,0-.768-.449A173.547,173.547,0,0,0,672.4,744.2c-.217.53.643.761.859.237Z" transform="translate(-672.364 -722.816)" fill="#6b0e0e"/>
                </g>
              </g>
              <g id="Grupo_1181967" data-name="Grupo 1181967" transform="translate(141.573 109.682)">
                <g id="Grupo_1181966" data-name="Grupo 1181966">
                  <path id="Trazado_1041792" data-name="Trazado 1041792" d="M670.445,745.847a33.47,33.47,0,0,0-6.408,5.994c-.36.439.266,1.073.63.63a32.623,32.623,0,0,1,6.228-5.855c.461-.331.017-1.1-.449-.768Z" transform="translate(-663.929 -745.764)" fill="#6b0e0e"/>
                </g>
              </g>
              <g id="Grupo_1181969" data-name="Grupo 1181969" transform="translate(90.206 130.378)">
                <g id="Grupo_1181968" data-name="Grupo 1181968">
                  <path id="Trazado_1041793" data-name="Trazado 1041793" d="M622.52,792.567c-10.349-.605-21.823-1.418-29.667-9.072a19.374,19.374,0,0,1-4.5-6.622c-.21-.525-1.071-.3-.858.237,4,9.976,14.808,14.166,24.714,15.484,3.422.456,6.87.662,10.314.864.572.033.57-.857,0-.89Z" transform="translate(-587.458 -776.576)" fill="#6b0e0e"/>
                </g>
              </g>
              <g id="Grupo_1181971" data-name="Grupo 1181971" transform="translate(88.637 110.746)">
                <g id="Grupo_1181970" data-name="Grupo 1181970">
                  <path id="Trazado_1041794" data-name="Trazado 1041794" d="M586.81,756.744a28.889,28.889,0,0,1-.713-8.968c.044-.571-.846-.568-.89,0a29.713,29.713,0,0,0,.744,9.2c.134.557.992.321.858-.236Z" transform="translate(-585.123 -747.349)" fill="#6b0e0e"/>
                </g>
              </g>
              <g id="Grupo_1181973" data-name="Grupo 1181973" transform="translate(90.996 145.097)">
                <g id="Grupo_1181972" data-name="Grupo 1181972">
                  <path id="Trazado_1041795" data-name="Trazado 1041795" d="M607.921,798.807c-2.256,10.2-9.473,18.421-11.84,28.594-1.28,5.5-1.428,11.173-1.589,16.792a146.989,146.989,0,0,1-1.392,17.5,126.883,126.883,0,0,1-4.442,19.272c-.172.547.687.782.858.236a129.033,129.033,0,0,0,5.78-34.172c.2-5.769.174-11.588,1.209-17.287a53.1,53.1,0,0,1,5.6-14.922c2.629-5.075,5.426-10.146,6.671-15.775.123-.559-.735-.8-.859-.237Z" transform="translate(-588.635 -798.488)" fill="#6b0e0e"/>
                </g>
              </g>
              <g id="Grupo_1181975" data-name="Grupo 1181975" transform="translate(27.81 226.077)">
                <g id="Grupo_1181974" data-name="Grupo 1181974">
                  <path id="Trazado_1041796" data-name="Trazado 1041796" d="M501.679,956.51c.385-6.151-1.929-11.943-3.76-17.7a47.737,47.737,0,0,1-2.246-19.342c.056-.57-.834-.566-.89,0a47.64,47.64,0,0,0,2.085,18.967c1.834,5.888,4.314,11.781,3.92,18.072-.036.572.854.57.89,0Z" transform="translate(-494.568 -919.045)" fill="#04425b"/>
                </g>
              </g>
              <g id="Grupo_1181977" data-name="Grupo 1181977" transform="translate(84.453 227.677)">
                <g id="Grupo_1181976" data-name="Grupo 1181976">
                  <path id="Trazado_1041797" data-name="Trazado 1041797" d="M579.084,921.746c-.662,3.01.494,5.942,2.2,8.391,1.948,2.8,4.312,5.335,6.5,7.945.368.44.995-.193.629-.629-2.019-2.414-4.168-4.768-6.029-7.307-1.72-2.347-3.092-5.187-2.438-8.163.122-.558-.736-.8-.859-.237Z" transform="translate(-578.894 -921.427)" fill="#04425b"/>
                </g>
              </g>
              <g id="Grupo_1181979" data-name="Grupo 1181979" transform="translate(84.534 237.618)">
                <g id="Grupo_1181978" data-name="Grupo 1181978">
                  <path id="Trazado_1041798" data-name="Trazado 1041798" d="M582.581,936.655a206.777,206.777,0,0,1-3.557,29.554c-.109.559.749.8.859.236a208.445,208.445,0,0,0,3.589-29.791c.028-.573-.862-.572-.89,0Z" transform="translate(-579.014 -936.226)" fill="#04425b"/>
                </g>
              </g>
            </g>
          </g>
          <g id="Grupo_1181986" data-name="Grupo 1181986" transform="translate(146.595 187.104)">
            <g id="Grupo_1181982" data-name="Grupo 1181982" transform="translate(30.614 34.677)">
              <path id="Trazado_1041799" data-name="Trazado 1041799" d="M721.023,935.124h0a3.522,3.522,0,0,1-4.914-.807l-40.757-56.786,5.722-4.107,40.757,56.786A3.522,3.522,0,0,1,721.023,935.124Z" transform="translate(-675.352 -873.424)" fill="#442a3a"/>
            </g>
            <g id="Grupo_1181985" data-name="Grupo 1181985" transform="translate(0 0)">
              <g id="Grupo_1181983" data-name="Grupo 1181983">
                <circle id="Elipse_13112" data-name="Elipse 13112" cx="23.407" cy="23.407" r="23.407" transform="translate(0.967 2.605) rotate(-1.948)" fill="#8bd8d6"/>
                <path id="Trazado_1041800" data-name="Trazado 1041800" d="M655,872.17a25.176,25.176,0,1,1,14.652-4.716A25.176,25.176,0,0,1,655,872.17Zm-.064-46.8a21.621,21.621,0,1,0,17.6,9.009A21.507,21.507,0,0,0,654.94,825.372Z" transform="translate(-629.776 -821.799)" fill="#442a3a"/>
              </g>
              <g id="Grupo_1181984" data-name="Grupo 1181984" transform="translate(10.666 13.187)">
                <path id="Trazado_1041801" data-name="Trazado 1041801" d="M660.2,867.964a14.528,14.528,0,0,1-8.493-26.333,1.068,1.068,0,1,1,1.246,1.735,12.4,12.4,0,1,0,14.457,20.141,1.068,1.068,0,0,1,1.246,1.735A14.457,14.457,0,0,1,660.2,867.964Z" transform="translate(-645.655 -841.431)" fill="#fff"/>
              </g>
            </g>
          </g>
          <g id="Grupo_1181996" data-name="Grupo 1181996" transform="translate(208.95 185.664)">
            <g id="Grupo_1181994" data-name="Grupo 1181994" transform="translate(0.356)">
              <g id="Grupo_1181987" data-name="Grupo 1181987">
                <path id="Trazado_1041802" data-name="Trazado 1041802" d="M741.363,856.112h30.7a18.227,18.227,0,0,0,18.228-18.228h0a18.227,18.227,0,0,0-18.228-18.228h-30.7a18.228,18.228,0,0,0-18.228,18.228h0A18.228,18.228,0,0,0,741.363,856.112Z" transform="translate(-723.135 -819.656)" fill="#ffbdcd"/>
              </g>
              <g id="Grupo_1181988" data-name="Grupo 1181988" transform="translate(0 17.53)">
                <path id="Trazado_1041803" data-name="Trazado 1041803" d="M723.135,845.753v32.918l18.228-14.69-9.114-18.228Z" transform="translate(-723.135 -845.753)" fill="#ffbdcd"/>
              </g>
              <g id="Grupo_1181993" data-name="Grupo 1181993" transform="translate(16.888 13.904)">
                <g id="Grupo_1181989" data-name="Grupo 1181989" transform="translate(12.367)">
                  <circle id="Elipse_13113" data-name="Elipse 13113" cx="4.324" cy="4.324" r="4.324" fill="#fff"/>
                </g>
                <g id="Grupo_1181992" data-name="Grupo 1181992">
                  <g id="Grupo_1181990" data-name="Grupo 1181990" transform="translate(24.734)">
                    <path id="Trazado_1041804" data-name="Trazado 1041804" d="M785.1,844.679a4.324,4.324,0,1,0,4.324-4.324A4.324,4.324,0,0,0,785.1,844.679Z" transform="translate(-785.099 -840.355)" fill="#fff"/>
                  </g>
                  <g id="Grupo_1181991" data-name="Grupo 1181991">
                    <path id="Trazado_1041805" data-name="Trazado 1041805" d="M748.277,844.679a4.324,4.324,0,1,0,4.324-4.324A4.324,4.324,0,0,0,748.277,844.679Z" transform="translate(-748.277 -840.355)" fill="#fff"/>
                  </g>
                </g>
              </g>
            </g>
            <g id="Grupo_1181995" data-name="Grupo 1181995" transform="translate(0 36.099)">
              <path id="Trazado_1041806" data-name="Trazado 1041806" d="M722.961,888.1a.356.356,0,0,1-.217-.638L741.068,873.4h24.9a.356.356,0,0,1,0,.712H741.31l-18.132,13.917A.355.355,0,0,1,722.961,888.1Z" transform="translate(-722.605 -873.398)" fill="#442a3a"/>
            </g>
          </g>
          <g id="Grupo_1182108" data-name="Grupo 1182108" transform="translate(245.169 222.231)">
            <g id="Grupo_1182097" data-name="Grupo 1182097" transform="translate(0 21.172)">
              <g id="Grupo_1182096" data-name="Grupo 1182096">
                <path id="Trazado_1041862" data-name="Trazado 1041862" d="M777.594,943.63a1.068,1.068,0,0,1-.736-1.843L793,926.446a1.068,1.068,0,0,1,1.472,1.548l-16.146,15.341A1.064,1.064,0,0,1,777.594,943.63Z" transform="translate(-776.526 -926.152)" fill="#010100"/>
              </g>
            </g>
            <g id="Grupo_1182107" data-name="Grupo 1182107" transform="translate(5.16 0)">
              <g id="Grupo_1182102" data-name="Grupo 1182102" transform="translate(0 0.356)">
                <g id="Grupo_1182099" data-name="Grupo 1182099" transform="translate(10.974)">
                  <g id="Grupo_1182098" data-name="Grupo 1182098">
                    <path id="Trazado_1041863" data-name="Trazado 1041863" d="M809.755,918.544l-9.211-9.693,11.305-13.689L824,907.953Z" transform="translate(-800.544 -895.162)" fill="#ffc94f"/>
                  </g>
                </g>
                <g id="Grupo_1182101" data-name="Grupo 1182101" transform="translate(0 13.689)">
                  <g id="Grupo_1182100" data-name="Grupo 1182100">
                    <path id="Trazado_1041864" data-name="Trazado 1041864" d="M804.391,925.235l-9.211-9.694-10.974,2.57,17.057,17.952Z" transform="translate(-784.207 -915.541)" fill="#ffc94f"/>
                  </g>
                </g>
              </g>
              <g id="Grupo_1182104" data-name="Grupo 1182104" transform="translate(10.499)">
                <g id="Grupo_1182103" data-name="Grupo 1182103">
                  <path id="Trazado_1041865" data-name="Trazado 1041865" d="M804.278,913.207a.354.354,0,0,1-.258-.111l-4.183-4.4,11.506-13.932a.356.356,0,0,1,.549.453l-11.1,13.445,3.748,3.945a.356.356,0,0,1-.013.5A.352.352,0,0,1,804.278,913.207Z" transform="translate(-799.837 -894.632)" fill="#010100"/>
                </g>
              </g>
              <g id="Grupo_1182106" data-name="Grupo 1182106" transform="translate(15.814 19.159)">
                <g id="Grupo_1182105" data-name="Grupo 1182105">
                  <path id="Trazado_1041866" data-name="Trazado 1041866" d="M809.738,925.582a.353.353,0,0,1-.258-.111l-1.632-1.716a.356.356,0,0,1,.516-.49L810,924.981a.356.356,0,0,1-.258.6Z" transform="translate(-807.75 -923.154)" fill="#010100"/>
                </g>
              </g>
            </g>
          </g>
          <g id="Grupo_1182154" data-name="Grupo 1182154" transform="translate(0 222.67)">
            <g id="Grupo_1182153" data-name="Grupo 1182153" transform="translate(0 0)">
              <g id="Grupo_1182152" data-name="Grupo 1182152">
                <path id="Trazado_1041880" data-name="Trazado 1041880" d="M653.936,956.655c-2.292.6-4.4-1.072-5.74-2.77-1.659-2.105-2.446-4.763-3.672-7.116a14.275,14.275,0,0,0-2.459-3.5,11.469,11.469,0,0,0-3.909-2.5c-2.762-1.108-5.851-1.4-8.5-2.765-2.048-1.056-4.042-2.777-3.958-5.216.054-1.582-2.4-1.528-2.458.052-.093,2.742,1.661,4.957,3.8,6.459,2.474,1.735,5.456,2.252,8.3,3.089a11.932,11.932,0,0,1,4.426,2.1,10.982,10.982,0,0,1,2.5,3.265c1.418,2.636,2.291,5.526,4.2,7.878,1.96,2.411,4.956,4.212,8.137,3.38a1.23,1.23,0,0,0-.674-2.365Z" transform="translate(-623.241 -931.633)" fill="#ffc94f"/>
              </g>
            </g>
          </g>
        </g>
      </g>
    </g>
  </g>
</svg>
