<svg xmlns="http://www.w3.org/2000/svg" xmlns:xlink="http://www.w3.org/1999/xlink" width="295" height="216" viewBox="0 0 295 216">
  <defs>
    <clipPath id="clip-path">
      <rect id="Rectángulo_415691" data-name="Rectángulo 415691" width="295" height="216" transform="translate(180 312)" fill="#fff" stroke="#707070" stroke-width="1" opacity="0.63"/>
    </clipPath>
  </defs>
  <g id="Enmascarar_grupo_1098828" data-name="Enmascarar grupo 1098828" transform="translate(-180 -312)" clip-path="url(#clip-path)">
    <g id="Grupo_1183691" data-name="Grupo 1183691" transform="translate(-46)">
      <g id="Grupo_1183690" data-name="Grupo 1183690" transform="translate(252.661 323.919)">
        <path id="Trazado_1043866" data-name="Trazado 1043866" d="M378.688,332.1s-30.294-.01-36.776,14.788-15.449,62.143-15.449,62.143l43.629-11.454L438.171,420l40.444,1.4,6.708-15.2-4.48-34.133a31.538,31.538,0,0,0-8.8-11.328c-5.832-4.4-17.849-11.441-17.849-11.441Z" transform="translate(-326.463 -253.573)" fill="#ff9d1c"/>
        <path id="Trazado_1043867" data-name="Trazado 1043867" d="M365.543,325.725c6.465-9.594,8.642-21.331,8.642-21.331l17.887,16.578a44.641,44.641,0,0,0-2.848,13.39c-8.614-.434-17.528-2.961-24.022-8.184C365.316,326.027,365.439,325.879,365.543,325.725Z" transform="translate(-280.192 -259.468)" fill="#ff7e5e"/>
        <path id="Trazado_1043868" data-name="Trazado 1043868" d="M383.838,322.356c6.494,5.223,15.408,7.75,24.022,8.184-.075,3.784.713,7.467,3.4,9.664,7.334,6,16.606,12.033,16.606,12.033s-18.8,20.707-46.611,13.468-30.2-31.53-30.2-31.53S376.85,331.578,383.838,322.356Z" transform="translate(-298.828 -255.646)" fill="#ffbd8a"/>
        <path id="Trazado_1043869" data-name="Trazado 1043869" d="M384.171,290.642a148.036,148.036,0,0,1-12.887,21.615c-8.624,12.226-11.165,26.858-1.009,33.92s31.6,14.1,36.331,27.874,2.234,23.672,7.006,18.982,2.745-10.983,3.225-18.789,9.326-24.315,5.134-35.217S402.3,321.36,401.318,311.958s3.1-15.579.993-25.987S385.5,283.4,384.171,290.642Z" transform="translate(-309.363 -264.458)" fill="#a83c3c"/>
        <path id="Trazado_1043870" data-name="Trazado 1043870" d="M358.848,277.779s12.24-9.8,31.506-4.857,19.451,28.531,12.872,42.06-20.04,14.936-30.349,13.818-15.5-9.855-16.805-14.764-3.381-11.752-3.381-11.752-3.716,4.184-10.056.057-6.409-15.5,4.675-15.646c0,0,6.888.462,7.759,5.961Z" transform="translate(-262.651 -266.46)" fill="#ffbd8a"/>
        <path id="Trazado_1043871" data-name="Trazado 1043871" d="M405.732,275.926a104.435,104.435,0,0,1-22.8,9.508c-11.709,3.044-15.062,2.076-15.062,2.076a11.476,11.476,0,0,1,1.705,6.916c-.456,3.655-3.9,8.549-3.808,16.051s1.632,10.056,1.632,10.056-4.857-5.751-5.644-9.5,1.9-7.437,2.656-11.567a25.8,25.8,0,0,0,.525-6.506s-8.42-9.576-16.09-.54l-.5,2.177s-1.436.105-.706-3.071,9.419-5.639,11.708-10.469,3.842-8.049,11.454-12.062,29.352-.274,35.274,6.821Z" transform="translate(-272.637 -267.349)" fill="#a83c3c"/>
        <path id="Trazado_1043872" data-name="Trazado 1043872" d="M387.939,274.421s-5.124,9.479-20.167,11.9-20.064-.674-20.064-.674,8.687,4.576,7.439,14.342-9.378,17.071-5.345,23.275,5.43,6.654,5.43,6.654-7.438-8.651-3.219-14.261,7.605-14.864,5.83-20.246-5.145-7.2-5.145-7.2,15.266,3.471,23.759-1.112S387.657,275.783,387.939,274.421Z" transform="translate(-254.843 -265.845)" fill="#a83c3c"/>
        <path id="Trazado_1043873" data-name="Trazado 1043873" d="M336.837,273.809s-.609,3.764,4.21,6.308,8.076,10.661,10.381,14.274,1.547,4.707,2.305,3.613,1.808-5.326.479-12.4S344.114,270.13,336.837,273.809Z" transform="translate(-208.538 -266.165)" fill="#a83c3c"/>
        <path id="Trazado_1043874" data-name="Trazado 1043874" d="M359.5,287.719l1.465,14.938-5.832.325Z" transform="translate(-236.879 -263.015)" fill="#ff7e5e"/>
        <path id="Trazado_1043875" data-name="Trazado 1043875" d="M346.791,295.6c-.235,1.184,1.236,2.473,3.285,2.88s3.9-.222,4.138-1.406-1.236-2.473-3.285-2.88S347.027,294.413,346.791,295.6Z" transform="translate(-220.002 -261.665)" fill="#ff7e5e"/>
        <path id="Trazado_1043876" data-name="Trazado 1043876" d="M363.583,291.913c-.235,1.184,1.236,2.473,3.285,2.88s3.9-.222,4.138-1.406-1.236-2.473-3.285-2.88S363.817,290.73,363.583,291.913Z" transform="translate(-257.159 -262.448)" fill="#ff7e5e"/>
        <path id="Trazado_1043877" data-name="Trazado 1043877" d="M349.346,290.857a1.432,1.432,0,1,0,1.351-1.509A1.432,1.432,0,0,0,349.346,290.857Z" transform="translate(-221.097 -262.669)" fill="#4a1a1a"/>
        <path id="Trazado_1043878" data-name="Trazado 1043878" d="M363.875,288.175a1.431,1.431,0,1,0,1.349-1.509A1.431,1.431,0,0,0,363.875,288.175Z" transform="translate(-253.245 -263.24)" fill="#4a1a1a"/>
        <path id="Trazado_1043879" data-name="Trazado 1043879" d="M347.475,282.821s.316-1.534,2.561-.446a6.782,6.782,0,0,1,3.1,3.408Z" transform="translate(-219.761 -264.235)" fill="#4a1a1a"/>
        <path id="Trazado_1043880" data-name="Trazado 1043880" d="M359.537,281.41s3.5-2.737,6.365-2.174,1.668,2.577,1.668,2.577Z" transform="translate(-249.07 -264.837)" fill="#4a1a1a"/>
        <path id="Trazado_1043881" data-name="Trazado 1043881" d="M358.5,300.7,370.8,307.11a7.215,7.215,0,0,1-7.85,4.8C356.685,311.352,355.583,303.694,358.5,300.7Z" transform="translate(-248.93 -260.253)" fill="#fff"/>
        <path id="Trazado_1043882" data-name="Trazado 1043882" d="M417.334,340.022s10.088,3.1,11.837,9.866-.991,45.207-.991,45.207l4.456-40.518" transform="translate(-383.979 -251.888)" fill="none" stroke="#8b550e" stroke-miterlimit="10" stroke-width="1"/>
        <path id="Trazado_1043883" data-name="Trazado 1043883" d="M359.147,397.329s4.67,14.74,23.823,18.1,64.87.11,64.87.11,8.053,26.671,11.105,27.387,1.944-.108,1.944-.108L466,410.456s10.558,9.869,11.488,9.817-9.507-15.6-11.912-17.416-63.623-16.766-63.623-16.766Z" transform="translate(-358.324 -242.086)" fill="#ffbd8a"/>
        <line id="Línea_1030" data-name="Línea 1030" x1="4.436" y1="28.744" transform="translate(96.185 172.1)" fill="none" stroke="#ff7e5e" stroke-miterlimit="10" stroke-width="1"/>
        <path id="Trazado_1043884" data-name="Trazado 1043884" d="M282.776,424.576l33.461-67.559s-7.172-5.628-5.6-10.911,8.755-22.812,10.643-23.854l1.888-1.042-.916,17.207s15.786-20.7,18.2-21.341a3.857,3.857,0,0,1,3.889,1.225s2.4-2.153,3.832-2.376a2.854,2.854,0,0,1,2.264.523l-24.23,108.935Z" transform="translate(-138.603 -257.023)" fill="#ffbd8a"/>
        <path id="Trazado_1043885" data-name="Trazado 1043885" d="M293.11,335.008s12.05-4.246,16.045,5.843" transform="translate(-109.845 -253.143)" fill="none" stroke="#ff7e5e" stroke-miterlimit="10" stroke-width="1"/>
        <line id="Línea_1031" data-name="Línea 1031" y1="24.672" x2="14.621" transform="translate(196.783 59.154)" fill="none" stroke="#ff7e5e" stroke-miterlimit="10" stroke-width="1"/>
        <line id="Línea_1032" data-name="Línea 1032" y1="20.189" x2="13.123" transform="translate(192.62 61.278)" fill="none" stroke="#ff7e5e" stroke-miterlimit="10" stroke-width="1"/>
      </g>
      <g id="Grupo_1183683" data-name="Grupo 1183683" transform="translate(408.161 316.591)">
        <path id="Trazado_1043810" data-name="Trazado 1043810" d="M27.342,0A27.342,27.342,0,1,1,0,27.342,27.342,27.342,0,0,1,27.342,0Z" transform="translate(18.495 3.673)" fill="#8b550e"/>
        <path id="Trazado_1043719" data-name="Trazado 1043719" d="M251.819,142.495l-17.668-20.86-27.247-2.19c-.057.723-.1,1.452-.1,2.19a27.336,27.336,0,0,0,45.011,20.86Z" transform="translate(-188.313 -90.62)" fill="#4b2e08"/>
        <path id="Trazado_1043720" data-name="Trazado 1043720" d="M245.02,151.4a27.226,27.226,0,0,0,17.668-6.483l-17.668-20.86-17.5,21A27.225,27.225,0,0,0,245.02,151.4Z" transform="translate(-199.182 -93.039)" fill="#ffe1b9"/>
        <path id="Trazado_1043721" data-name="Trazado 1043721" d="M199.008,87.289h0l31.048,2.5L227.1,58.772A31.153,31.153,0,0,0,199.008,87.289Z" transform="translate(-184.219 -58.772)" fill="#ff9d1c"/>
        <line id="Línea_998" data-name="Línea 998" x2="14.789" transform="translate(0 0)" fill="none" stroke="#ff9d1c" stroke-linecap="round" stroke-linejoin="round" stroke-miterlimit="10" stroke-width="1"/>
        <line id="Línea_999" data-name="Línea 999" x2="14.789" transform="translate(0 4.529)" fill="none" stroke="#ff9d1c" stroke-linecap="round" stroke-linejoin="round" stroke-miterlimit="10" stroke-width="1"/>
        <line id="Línea_1000" data-name="Línea 1000" x2="10.039" transform="translate(0 9.058)" fill="none" stroke="#ff9d1c" stroke-linecap="round" stroke-linejoin="round" stroke-miterlimit="10" stroke-width="1"/>
        <line id="Línea_1001" data-name="Línea 1001" x2="14.789" transform="translate(84.811 18.882)" fill="none" stroke="#ff9d1c" stroke-linecap="round" stroke-linejoin="round" stroke-miterlimit="10" stroke-width="1"/>
        <line id="Línea_1002" data-name="Línea 1002" x2="14.789" transform="translate(84.811 23.411)" fill="none" stroke="#ff9d1c" stroke-linecap="round" stroke-linejoin="round" stroke-miterlimit="10" stroke-width="1"/>
        <line id="Línea_1003" data-name="Línea 1003" x2="10.039" transform="translate(84.811 27.941)" fill="none" stroke="#ff9d1c" stroke-linecap="round" stroke-linejoin="round" stroke-miterlimit="10" stroke-width="1"/>
        <path id="Trazado_1043722" data-name="Trazado 1043722" d="M208.693,68.305h5.7l5.222,7.008" transform="translate(-189.302 -63.776)" fill="none" stroke="#8b550e" stroke-linecap="round" stroke-linejoin="round" stroke-miterlimit="10" stroke-width="1"/>
        <path id="Trazado_1043723" data-name="Trazado 1043723" d="M325.844,107.142h-5.7l-5.221,7.008" transform="translate(-245.063 -84.162)" fill="none" stroke="#8b550e" stroke-linecap="round" stroke-linejoin="round" stroke-miterlimit="10" stroke-width="1"/>
      </g>
    </g>
  </g>
</svg>
