<svg xmlns="http://www.w3.org/2000/svg" width="34.641" height="33.504" viewBox="0 0 34.641 33.504">
  <g id="_x30_1_flask" transform="translate(-0.1 -8.4)">
    <g id="Grupo_1183664" data-name="Grupo 1183664" transform="translate(0.1 8.4)">
      <path id="Trazado_1043705" data-name="Trazado 1043705" d="M26.891,26.191a7.819,7.819,0,0,0-5.7,2.463l-3.614-2.226V24.093a7.85,7.85,0,1,0-1.015,0v2.335l-3.174,1.956a7.874,7.874,0,1,0,.7.765l2.984-1.841,3.465,2.138a7.848,7.848,0,1,0,6.361-3.255ZM10.224,16.263A6.835,6.835,0,1,1,17.058,23.1a6.848,6.848,0,0,1-6.835-6.842ZM7.943,40.889a6.842,6.842,0,1,1,6.835-6.842A6.843,6.843,0,0,1,7.943,40.889Zm18.948,0a6.842,6.842,0,1,1,6.835-6.842A6.843,6.843,0,0,1,26.891,40.889Z" transform="translate(-0.1 -8.4)"/>
      <path id="Trazado_1043706" data-name="Trazado 1043706" d="M208.986,60.737V58.294a1.98,1.98,0,0,0-1.123-1.766,2.655,2.655,0,0,0,.413-1.435,2.693,2.693,0,0,0-5.387,0,2.666,2.666,0,0,0,.44,1.475,2.034,2.034,0,0,0-1.029,1.719V60.73a.927.927,0,0,0,.968.968h4.757A.916.916,0,0,0,208.986,60.737Zm-3.4-7.322a1.682,1.682,0,1,1-1.678,1.678A1.678,1.678,0,0,1,205.582,53.415Zm2.389,7.275h-4.656v-2.4c0-.392.365-.846.609-.846h.332a2.676,2.676,0,0,0,2.653,0h.453c.277,0,.609.46.609.846Z" transform="translate(-188.617 -49.422)"/>
      <path id="Trazado_1043707" data-name="Trazado 1043707" d="M73.069,319.421a2.695,2.695,0,1,0-4.981-1.428,2.666,2.666,0,0,0,.44,1.475,2.034,2.034,0,0,0-1.029,1.719v2.443a.927.927,0,0,0,.968.968h4.757a.927.927,0,0,0,.968-.968v-2.443A1.977,1.977,0,0,0,73.069,319.421Zm-2.287-3.113a1.684,1.684,0,1,1-1.678,1.685A1.678,1.678,0,0,1,70.782,316.308Zm2.4,7.281H68.515v-2.4c0-.392.365-.853.609-.853h.325a2.7,2.7,0,0,0,2.666,0h.453c.277,0,.609.46.609.853Z" transform="translate(-62.939 -294.532)"/>
      <path id="Trazado_1043708" data-name="Trazado 1043708" d="M352.969,319.421a2.695,2.695,0,1,0-4.981-1.428,2.666,2.666,0,0,0,.44,1.475,2.034,2.034,0,0,0-1.029,1.719v2.443a.927.927,0,0,0,.968.968h4.757a.927.927,0,0,0,.968-.968v-2.443A1.965,1.965,0,0,0,352.969,319.421Zm-2.281-3.113a1.678,1.678,0,1,1,.007,3.356,1.651,1.651,0,0,1-.9-.264.035.035,0,0,0-.027-.014,1.7,1.7,0,0,1-.758-1.408A1.677,1.677,0,0,1,350.689,316.308Zm2.389,7.281h-4.656v-2.4c0-.392.372-.853.609-.853h.325a2.7,2.7,0,0,0,2.666,0h.453c.277,0,.609.46.609.853v2.4Z" transform="translate(-323.898 -294.532)"/>
    </g>
  </g>
</svg>
