<svg xmlns="http://www.w3.org/2000/svg" xmlns:xlink="http://www.w3.org/1999/xlink" width="108" height="108" viewBox="0 0 108 108">
  <defs>
    <filter id="Trazado_904820" x="0" y="0" width="108" height="108" filterUnits="userSpaceOnUse">
      <feOffset dy="3" input="SourceAlpha"/>
      <feGaussianBlur stdDeviation="3" result="blur"/>
      <feFlood flood-opacity="0.161"/>
      <feComposite operator="in" in2="blur"/>
      <feComposite in="SourceGraphic"/>
    </filter>
  </defs>
  <g id="Grupo_1183719" data-name="Grupo 1183719" transform="translate(-620 -2109)">
    <g id="Grupo_1173821" data-name="Grupo 1173821" transform="translate(0 1583)">
      <g id="Grupo_1173585" data-name="Grupo 1173585" transform="translate(629 532)">
        <g id="Grupo_1173428" data-name="Grupo 1173428" transform="translate(0 0)">
          <g id="Grupo_1171958" data-name="Grupo 1171958">
            <g id="Grupo_1167341" data-name="Grupo 1167341">
              <g id="Grupo_1166792" data-name="Grupo 1166792">
                <g transform="matrix(1, 0, 0, 1, -9, -6)" filter="url(#Trazado_904820)">
                  <g id="Trazado_904820-2" data-name="Trazado 904820" transform="translate(9 6)" fill="#f2f7e5">
                    <path d="M 44.99999618530273 88.49999237060547 C 39.12687301635742 88.49999237060547 33.43022155761719 87.35006713867188 28.06829643249512 85.08216857910156 C 22.88852119445801 82.89130401611328 18.23629570007324 79.75457763671875 14.24084663391113 75.75914001464844 C 10.24540901184082 71.76369476318359 7.108683586120605 67.11146545410156 4.917821407318115 61.93169403076172 C 2.649921178817749 56.56976699829102 1.499996185302734 50.87311553955078 1.499996185302734 44.99999237060547 C 1.499996185302734 39.12686920166016 2.649921178817749 33.43021774291992 4.917821407318115 28.06829261779785 C 7.108683586120605 22.88851737976074 10.24540901184082 18.23630523681641 14.24084663391113 14.24085521697998 C 18.23629570007324 10.24540519714355 22.88852119445801 7.108692169189453 28.06829643249512 4.917829990386963 C 33.43022155761719 2.649929761886597 39.12687301635742 1.500004887580872 44.99999618530273 1.500004887580872 C 50.87311935424805 1.500004887580872 56.56977081298828 2.649929761886597 61.93169784545898 4.917829990386963 C 67.11147308349609 7.108692169189453 71.76369476318359 10.24540519714355 75.75914764404297 14.24085521697998 C 79.75458526611328 18.23630523681641 82.89131164550781 22.88851737976074 85.08216857910156 28.06829261779785 C 87.35007476806641 33.43021774291992 88.5 39.12686920166016 88.5 44.99999237060547 C 88.5 50.87311553955078 87.35007476806641 56.56976699829102 85.08216857910156 61.93169403076172 C 82.89131164550781 67.11146545410156 79.75458526611328 71.76369476318359 75.75914764404297 75.75914001464844 C 71.76369476318359 79.75457763671875 67.11147308349609 82.89130401611328 61.93169784545898 85.08216857910156 C 56.56977081298828 87.35006713867188 50.87311935424805 88.49999237060547 44.99999618530273 88.49999237060547 Z" stroke="none"/>
                    <path d="M 44.99999618530273 2.999992370605469 C 39.32870864868164 2.999992370605469 33.82865142822266 4.11004638671875 28.65262603759766 6.299331665039062 C 23.65165710449219 8.414566040039062 19.15968322753906 11.44333648681641 15.301513671875 15.30150604248047 C 11.44333648681641 19.15967559814453 8.414566040039062 23.65164947509766 6.299339294433594 28.65262222290039 C 4.110054016113281 33.82864761352539 2.999992370605469 39.32870483398438 2.999992370605469 44.99999237060547 C 2.999992370605469 50.67127990722656 4.110054016113281 56.17132186889648 6.299339294433594 61.34736633300781 C 8.414566040039062 66.34833526611328 11.44333648681641 70.84029388427734 15.301513671875 74.69846343994141 C 19.15968322753906 78.55663299560547 23.65165710449219 81.58540344238281 28.65262603759766 83.70063781738281 C 33.82865142822266 85.88992309570312 39.32870864868164 86.99997711181641 44.99999618530273 86.99997711181641 C 50.67128372192383 86.99997711181641 56.17134094238281 85.88992309570312 61.34736633300781 83.70063781738281 C 66.34834289550781 81.58540344238281 70.84030914306641 78.55663299560547 74.69847869873047 74.69846343994141 C 78.55665588378906 70.84029388427734 81.58542633056641 66.34833526611328 83.70065307617188 61.34736633300781 C 85.88993835449219 56.17132186889648 87 50.67127990722656 87 44.99999237060547 C 87 39.32870483398438 85.88993835449219 33.82864761352539 83.70065307617188 28.65262222290039 C 81.58542633056641 23.65164947509766 78.55665588378906 19.15967559814453 74.69847869873047 15.30150604248047 C 70.84030914306641 11.44333648681641 66.34834289550781 8.414566040039062 61.34736633300781 6.299331665039062 C 56.17134094238281 4.11004638671875 50.67128372192383 2.999992370605469 44.99999618530273 2.999992370605469 M 44.99999618530273 -7.62939453125e-06 C 69.85281372070312 -7.62939453125e-06 90 20.14717864990234 90 44.99999237060547 C 90 69.85279083251953 69.85281372070312 89.99997711181641 44.99999618530273 89.99997711181641 C 20.14717864990234 89.99997711181641 -7.62939453125e-06 69.85279083251953 -7.62939453125e-06 44.99999237060547 C -7.62939453125e-06 20.14717864990234 20.14717864990234 -7.62939453125e-06 44.99999618530273 -7.62939453125e-06 Z" stroke="none" fill="#86b60c"/>
                  </g>
                </g>
              </g>
            </g>
          </g>
        </g>
      </g>
    </g>
    <g id="mision-cumplida" transform="translate(633.997 2120.891)">
      <g id="Grupo_1183718" data-name="Grupo 1183718" transform="translate(9.21 9.111)">
        <g id="Grupo_1183716" data-name="Grupo 1183716" transform="translate(0)">
          <path id="Trazado_1043943" data-name="Trazado 1043943" d="M48.2,20.243A21.852,21.852,0,0,1,54.6,22.9l4.158-1.847,4.9,4.9-1.846,4.157a21.85,21.85,0,0,1,2.653,6.4l4.242,1.633v6.93L64.466,46.7a21.852,21.852,0,0,1-2.653,6.4l1.847,4.158-4.9,4.9L54.6,60.313a21.846,21.846,0,0,1-6.4,2.653L46.57,67.208H39.64l-1.633-4.243a21.853,21.853,0,0,1-6.4-2.653L27.45,62.159l-4.9-4.9L24.4,53.1a21.852,21.852,0,0,1-2.653-6.4L17.5,45.069v-6.93l4.243-1.633a21.85,21.85,0,0,1,2.653-6.4L22.55,25.949l4.9-4.9L31.609,22.9a21.855,21.855,0,0,1,6.4-2.653L39.64,16h6.93Z" transform="translate(-17.501 -16)" fill="#ffe177" fill-rule="evenodd"/>
          <path id="Trazado_1043944" data-name="Trazado 1043944" d="M95.583,60.312l-4.158,1.847-.64-.64,3.9-1.731q.444.273.9.525Zm16.595-40.07a21.852,21.852,0,0,1,6.4,2.653l-1.182.525a28.823,28.823,0,0,0-7.3-3.178L108.463,16h2.082Zm6.4,40.07a21.846,21.846,0,0,1-6.4,2.653l-1.633,4.242h-2.082l1.633-4.242a28.813,28.813,0,0,0,7.3-3.178ZM90.785,21.689l.64-.64L95.583,22.9q-.456.252-.9.525Zm30.508,0,1.441-.64,4.9,4.9-1.846,4.157a21.851,21.851,0,0,1,2.653,6.4l4.242,1.633v6.93L128.441,46.7a21.852,21.852,0,0,1-2.653,6.4l1.847,4.158-4.9,4.9-1.441-.64,4.26-4.26L123.706,53.1a21.852,21.852,0,0,0,2.653-6.4l4.243-1.633v-6.93l-4.242-1.633a21.85,21.85,0,0,0-2.653-6.4l1.846-4.157Z" transform="translate(-81.476 -16)" fill="#ffd064" fill-rule="evenodd"/>
          <circle id="Elipse_13192" data-name="Elipse 13192" cx="13.577" cy="13.577" r="13.577" transform="translate(9.272 15.503) rotate(-13.3)" fill="#eceff1"/>
          <path id="Trazado_1043945" data-name="Trazado 1043945" d="M125.76,110.68a13.577,13.577,0,0,0,0,27.153q.545,0,1.08-.043a13.577,13.577,0,0,1,0-27.068Q126.305,110.681,125.76,110.68Z" transform="translate(-100.155 -98.653)" fill="#d1d1d6" fill-rule="evenodd"/>
        </g>
        <g id="Grupo_1183717" data-name="Grupo 1183717" transform="translate(25.243 25.661)">
          <circle id="Elipse_13193" data-name="Elipse 13193" cx="15.931" cy="15.931" r="15.931" transform="translate(0 3.454)" fill="#fe646f"/>
          <path id="Trazado_1043946" data-name="Trazado 1043946" d="M337.25,245.192a15.93,15.93,0,1,1,0,31.861c-.213,0-.424-.005-.635-.014a15.929,15.929,0,0,0,0-31.833c.211-.008.422-.014.635-.014Z" transform="translate(-321.32 -241.738)" fill="#fd4755" fill-rule="evenodd"/>
          <circle id="Elipse_13194" data-name="Elipse 13194" cx="10.237" cy="10.237" r="10.237" transform="translate(5.693 9.148)" fill="#eceff1"/>
          <path id="Trazado_1043947" data-name="Trazado 1043947" d="M271.266,290.011c.213,0,.425.007.635.02a10.237,10.237,0,0,0,0,20.434c-.21.013-.422.02-.635.02a10.237,10.237,0,1,1,0-20.474Z" transform="translate(-255.336 -280.863)" fill="#d1d1d6" fill-rule="evenodd"/>
          <circle id="Elipse_13195" data-name="Elipse 13195" cx="4.544" cy="4.544" r="4.544" transform="translate(10.012 16.918) rotate(-22.514)" fill="#fe646f"/>
          <path id="Trazado_1043948" data-name="Trazado 1043948" d="M310.392,334.829a4.575,4.575,0,0,1,.635.044,4.544,4.544,0,0,0,0,9,4.544,4.544,0,1,1-.635-9.043Z" transform="translate(-294.461 -319.988)" fill="#fd4755" fill-rule="evenodd"/>
          <path id="Trazado_1043949" data-name="Trazado 1043949" d="M412.705,224.081l-5.693,5.693a.371.371,0,0,1-.35.1l-4.466-.963a.374.374,0,0,1-.292-.292l-.963-4.466a.372.372,0,0,1,.1-.35l5.693-5.693a.381.381,0,0,1,.642.189l.859,3.985a.374.374,0,0,0,.292.292l3.985.859a.381.381,0,0,1,.189.642Z" transform="translate(-377.466 -218.001)" fill="#e3a76f" fill-rule="evenodd"/>
          <path id="Trazado_1043950" data-name="Trazado 1043950" d="M418.927,261.245l-5.693,5.693a.371.371,0,0,1-.35.1l-4.466-.963a.374.374,0,0,1-.292-.292l-.066-.308,4.443.957a.371.371,0,0,0,.35-.1l5.693-5.693a.4.4,0,0,0,.054-.067l.139.03a.381.381,0,0,1,.189.642Z" transform="translate(-383.688 -255.165)" fill="#c48958" fill-rule="evenodd"/>
        </g>
      </g>
      <path id="Trazado_1043951" data-name="Trazado 1043951" d="M67.957,40.944,65.411,40.4,60.787,45.02l2.544.548ZM38.323,8.109a1.017,1.017,0,0,1,.713.624l1.444,3.75a22.819,22.819,0,0,1,5.709,2.368l3.675-1.633a1.016,1.016,0,0,1,1.131.21l4.9,4.9a1.016,1.016,0,0,1,.21,1.131l-1.632,3.674a22.815,22.815,0,0,1,2.368,5.712l3.75,1.443a1.017,1.017,0,0,1,.651.948v1.55a1.016,1.016,0,1,1-2.033,0v-.852l-3.59-1.383A1.012,1.012,0,0,1,55,29.839a20.788,20.788,0,0,0-2.531-6.1,1.017,1.017,0,0,1-.063-.946l1.564-3.519-3.914-3.913-3.52,1.563a1.017,1.017,0,0,1-.946-.063,20.783,20.783,0,0,0-6.1-2.529,1.012,1.012,0,0,1-.713-.624l-1.384-3.592H31.855l-1.383,3.592a1.018,1.018,0,0,1-.713.624,20.788,20.788,0,0,0-6.1,2.529,1.017,1.017,0,0,1-.946.063l-3.52-1.563-3.914,3.913,1.564,3.52a1.019,1.019,0,0,1-.063.946,20.766,20.766,0,0,0-2.529,6.1,1.02,1.02,0,0,1-.624.713l-3.592,1.383v5.535l3.59,1.382a1.017,1.017,0,0,1,.624.713,20.777,20.777,0,0,0,2.53,6.1,1.019,1.019,0,0,1,.063.946l-1.564,3.519,3.914,3.913,3.52-1.563a1.017,1.017,0,0,1,.946.063,20.788,20.788,0,0,0,6.1,2.529,1.016,1.016,0,0,1,.713.624L31.9,59.4a1.016,1.016,0,0,1-.466,1.92h-.276a1.015,1.015,0,0,1-.948-.651l-1.444-3.751a22.8,22.8,0,0,1-5.709-2.366L19.38,56.185a1.014,1.014,0,0,1-1.13-.21l-4.9-4.9a1.016,1.016,0,0,1-.209-1.131l1.633-3.674A22.779,22.779,0,0,1,12.4,40.558l-3.75-1.443A1.014,1.014,0,0,1,8,38.166v-6.93a1.015,1.015,0,0,1,.65-.948l3.75-1.444a22.781,22.781,0,0,1,2.368-5.71l-1.633-3.675a1.016,1.016,0,0,1,.209-1.131l4.9-4.9a1.014,1.014,0,0,1,1.13-.21l3.677,1.633a22.8,22.8,0,0,1,5.709-2.368l1.444-3.75a1.014,1.014,0,0,1,.713-.624h7.4ZM65.1,54.143A14.908,14.908,0,1,1,56.677,40.71a1.048,1.048,0,0,0,.022.215l.941,4.369-.226.227a11.257,11.257,0,1,0,1.434,1.44l.23-.23,4.367.941a1,1,0,0,0,.2.022A14.943,14.943,0,0,1,65.1,54.143Zm-9.136-7.179A9.235,9.235,0,1,0,57.4,48.406L54.788,51.02a5.57,5.57,0,1,1-1.431-1.444ZM53.31,52.5,50.929,54.88a1.017,1.017,0,0,1-1.438-1.437l2.393-2.393A3.528,3.528,0,1,0,53.31,52.5ZM58.8,41.038l4.624-4.625.549,2.545L59.35,43.583Zm11.911.025L65.3,46.472a16.945,16.945,0,1,1-7.393-7.417l5.4-5.4a1.017,1.017,0,0,1,1.712.5l.664,3.086L66,36.932a1.016,1.016,0,1,1,1.438,1.437l-.316.316,3.086.665a1.016,1.016,0,0,1,.5,1.712ZM33.944,39.88,41.287,30.8a1.016,1.016,0,1,0-1.581-1.278l-6.633,8.2-3.607-3.607a1.016,1.016,0,1,0-1.437,1.437l4.406,4.406a1.019,1.019,0,0,0,.719.3h.054a1.018,1.018,0,0,0,.737-.375Zm-2.252,7.038a12.562,12.562,0,1,1,15.489-12.4,1.015,1.015,0,0,0,1.015,1h.015a1.015,1.015,0,0,0,1-1.03,14.592,14.592,0,1,0-26,9.32,14.665,14.665,0,0,0,8,5.088,1.006,1.006,0,0,0,.237.028,1.016,1.016,0,0,0,.235-2Z" fill="#242222" fill-rule="evenodd"/>
    </g>
  </g>
</svg>
