<svg xmlns="http://www.w3.org/2000/svg" xmlns:xlink="http://www.w3.org/1999/xlink" width="110" height="110" viewBox="0 0 110 110">
  <defs>
    <filter id="Trazado_982547" x="0" y="0" width="110" height="110" filterUnits="userSpaceOnUse">
      <feOffset dy="3" input="SourceAlpha"/>
      <feGaussianBlur stdDeviation="3" result="blur"/>
      <feFlood flood-opacity="0.161"/>
      <feComposite operator="in" in2="blur"/>
      <feComposite in="SourceGraphic"/>
    </filter>
  </defs>
  <g id="Grupo_1183743" data-name="Grupo 1183743" transform="translate(-372.044 -2814)">
    <g id="Grupo_1181545" data-name="Grupo 1181545" transform="translate(-5.417 -130)">
      <g id="Grupo_1177562" data-name="Grupo 1177562" transform="translate(0 -12113)">
        <g id="Grupo_1173147" data-name="Grupo 1173147" transform="translate(386.461 15063)">
          <g id="Grupo_1163801" data-name="Grupo 1163801" transform="translate(0 0)">
            <g id="Grupo_1163014" data-name="Grupo 1163014">
              <g id="Grupo_1157015" data-name="Grupo 1157015" transform="translate(0 0)">
                <g id="Grupo_1155792" data-name="Grupo 1155792" transform="translate(0 0)">
                  <g id="Grupo_1154703" data-name="Grupo 1154703">
                    <g id="Grupo_1150789" data-name="Grupo 1150789">
                      <g id="Grupo_1154212" data-name="Grupo 1154212">
                        <g id="Grupo_1152583" data-name="Grupo 1152583">
                          <g id="Grupo_1146973" data-name="Grupo 1146973" transform="translate(0 0)">
                            <g id="Grupo_1146954" data-name="Grupo 1146954">
                              <g transform="matrix(1, 0, 0, 1, -9, -6)" filter="url(#Trazado_982547)">
                                <g id="Trazado_982547-2" data-name="Trazado 982547" transform="translate(9 6)" fill="#f2f7e5">
                                  <path d="M 46.00000381469727 90.49988555908203 C 39.99188232421875 90.49988555908203 34.16427230834961 89.32352447509766 28.67905807495117 87.00347137451172 C 23.38020324707031 84.76226043701172 18.62103080749512 81.55342864990234 14.53375053405762 77.46615600585938 C 10.44645690917969 73.37887573242188 7.237643718719482 68.61971282958984 4.996417045593262 63.32085800170898 C 2.676363706588745 57.83565902709961 1.500003814697266 52.00806045532227 1.500003814697266 45.99993896484375 C 1.500003814697266 39.99181747436523 2.676363706588745 34.16421890258789 4.996417045593262 28.67901802062988 C 7.237643718719482 23.38017845153809 10.44645690917969 18.62101936340332 14.53375053405762 14.53373908996582 C 18.62103080749512 10.44645881652832 23.38020324707031 7.237632274627686 28.67905807495117 4.996418952941895 C 34.16427230834961 2.676365613937378 39.99188232421875 1.500005602836609 46.00000381469727 1.500005602836609 C 52.00812530517578 1.500005602836609 57.83573532104492 2.676365613937378 63.32094955444336 4.996418952941895 C 68.61980438232422 7.237632274627686 73.37896728515625 10.44645881652832 77.46625518798828 14.53373908996582 C 81.55353546142578 18.62101936340332 84.76236724853516 23.38017845153809 87.00359344482422 28.67901802062988 C 89.32364654541016 34.16421890258789 90.5 39.99181747436523 90.5 45.99993896484375 C 90.5 52.00806045532227 89.32364654541016 57.83565902709961 87.00359344482422 63.32085800170898 C 84.76236724853516 68.61971282958984 81.55353546142578 73.37887573242188 77.46625518798828 77.46615600585938 C 73.37896728515625 81.55342864990234 68.61980438232422 84.76226043701172 63.32094955444336 87.00347137451172 C 57.83573532104492 89.32352447509766 52.00812530517578 90.49988555908203 46.00000381469727 90.49988555908203 Z" stroke="none"/>
                                  <path d="M 46.00000381469727 2.999992370605469 C 40.19371795654297 2.999992370605469 34.56270217895508 4.136497497558594 29.26338958740234 6.377906799316406 C 24.14333343505859 8.543510437011719 19.54441833496094 11.64437866210938 15.59440612792969 15.59439849853516 C 11.64440155029297 19.54439544677734 8.54351806640625 24.14329528808594 6.377914428710938 29.26335144042969 C 4.136505126953125 34.56266784667969 3.000007629394531 40.19366836547852 3.000007629394531 45.99993896484375 C 3.000007629394531 51.80620956420898 4.136505126953125 57.43722534179688 6.377914428710938 62.73654174804688 C 8.54351806640625 67.85658264160156 11.64440155029297 72.45548248291016 15.59440612792969 76.40549468994141 C 19.54441833496094 80.35549926757812 24.14333343505859 83.45636749267578 29.26337432861328 85.62196350097656 C 34.56270217895508 87.86338043212891 40.19371795654297 88.9998779296875 46.00000381469727 88.9998779296875 C 51.80628967285156 88.9998779296875 57.43730545043945 87.86338043212891 62.73663330078125 85.62196350097656 C 67.85667419433594 83.45636749267578 72.45558929443359 80.35549926757812 76.40560150146484 76.40549468994141 C 80.35560607910156 72.45548248291016 83.45648956298828 67.85658264160156 85.62208557128906 62.73654174804688 C 87.86350250244141 57.43722534179688 89 51.80620956420898 89 45.99993896484375 C 89 40.19366836547852 87.86350250244141 34.56266784667969 85.62208557128906 29.26335144042969 C 83.45648956298828 24.14329528808594 80.35560607910156 19.54439544677734 76.40560150146484 15.59439849853516 C 72.45558929443359 11.64437866210938 67.85667419433594 8.543510437011719 62.73661804199219 6.377906799316406 C 57.43730545043945 4.136497497558594 51.80628967285156 2.999992370605469 46.00000381469727 2.999992370605469 M 46.00000381469727 -7.62939453125e-06 C 71.40510559082031 -7.62939453125e-06 92 20.59487915039062 92 45.99993896484375 C 92 71.40501403808594 71.40510559082031 91.99988555908203 46.00000381469727 91.99988555908203 C 20.59490203857422 91.99988555908203 7.62939453125e-06 71.40501403808594 7.62939453125e-06 45.99993896484375 C 7.62939453125e-06 20.59487915039062 20.59490203857422 -7.62939453125e-06 46.00000381469727 -7.62939453125e-06 Z" stroke="none" fill="#86b60c"/>
                                </g>
                              </g>
                            </g>
                          </g>
                        </g>
                      </g>
                    </g>
                  </g>
                </g>
              </g>
            </g>
          </g>
        </g>
      </g>
    </g>
    <g id="jerarquia_1_" data-name="jerarquia (1)" transform="translate(385.524 2834.136)">
      <path id="Trazado_1044000" data-name="Trazado 1044000" d="M33.556,463.831a2.252,2.252,0,0,1,2.253,2.253v2.253H22.29v-2.253a2.253,2.253,0,0,1,2.253-2.253Z" transform="translate(-6.74 -412.29)" fill="#54a0ff"/>
      <path id="Trazado_1044001" data-name="Trazado 1044001" d="M96.636,463.831h-3.38a2.252,2.252,0,0,1,2.253,2.253v2.253h3.38v-2.253A2.252,2.252,0,0,0,96.636,463.831Z" transform="translate(-69.821 -412.29)" fill="#2e86de"/>
      <path id="Trazado_1044002" data-name="Trazado 1044002" d="M67.35,449.466v1.6a2.253,2.253,0,0,1-4.506,0v-1.6h0a5.644,5.644,0,0,0,4.506,0Z" transform="translate(-42.788 -399.52)" fill="#ffb098"/>
      <path id="Trazado_1044003" data-name="Trazado 1044003" d="M43.695,366.953a5.633,5.633,0,1,1-11.266,0v-2.262l1.69-2.244a9.59,9.59,0,0,0,3.943,1.128,10.106,10.106,0,0,0,4.014-1.128l1.619,2.247Z" transform="translate(-15.753 -322.172)" fill="#ffcdbf"/>
      <path id="Trazado_1044004" data-name="Trazado 1044004" d="M73.625,362.447a11.677,11.677,0,0,1-1.761.726v3.78a5.621,5.621,0,0,1-3.942,5.374,5.631,5.631,0,0,0,7.322-5.374v-2.259Z" transform="translate(-47.302 -322.172)" fill="#ffbeab"/>
      <path id="Trazado_1044005" data-name="Trazado 1044005" d="M43.695,327.528v1.121L42.076,326.4a10.1,10.1,0,0,1-4.014,1.128,9.589,9.589,0,0,1-3.943-1.128l-1.69,2.244v-1.118a5.633,5.633,0,0,1,11.266,0Z" transform="translate(-15.753 -286.126)" fill="#ff9f43"/>
      <path id="Trazado_1044006" data-name="Trazado 1044006" d="M69.6,321.894a5.627,5.627,0,0,0-1.69.258,5.635,5.635,0,0,1,3.927,4.979,11.689,11.689,0,0,0,1.777-.731l1.619,2.248v-1.121A5.632,5.632,0,0,0,69.6,321.894Z" transform="translate(-47.295 -286.125)" fill="#ea8634"/>
      <path id="Trazado_1044007" data-name="Trazado 1044007" d="M378.4,463.843a2.252,2.252,0,0,1,2.253,2.253v2.253H367.017V466.1a2.253,2.253,0,0,1,2.253-2.253Z" transform="translate(-313.161 -412.301)" fill="#1dd1a1"/>
      <path id="Trazado_1044008" data-name="Trazado 1044008" d="M442.377,463.843H439a2.252,2.252,0,0,1,2.253,2.253v2.253h3.38V466.1A2.252,2.252,0,0,0,442.377,463.843Z" transform="translate(-377.143 -412.301)" fill="#10ac84"/>
      <path id="Trazado_1044009" data-name="Trazado 1044009" d="M189.031,159.681h9.013a2.251,2.251,0,0,1,2.253,2.253v4.506H184.525v-4.507a2.253,2.253,0,0,1,2.253-2.253h2.253Z" transform="translate(-150.948 -141.936)" fill="#e4e8eb"/>
      <path id="Trazado_1044010" data-name="Trazado 1044010" d="M279.148,159.69h-3.38a2.251,2.251,0,0,1,2.253,2.253v4.506h3.38v-4.506A2.251,2.251,0,0,0,279.148,159.69Z" transform="translate(-232.052 -141.945)" fill="#cad0d7"/>
      <path id="Trazado_1044011" data-name="Trazado 1044011" d="M207.318,13.783v1.344c-1.524-5.595-4.977.845-11.266-.957a9.309,9.309,0,0,1-1.094-.388,6.18,6.18,0,1,1,12.36,0Z" transform="translate(-160.221 -6.758)" fill="#576574"/>
      <path id="Trazado_1044012" data-name="Trazado 1044012" d="M216.068,56.612v2.616a5.618,5.618,0,0,1-2.253,4.505h0a5.634,5.634,0,0,1-9.013-4.506V55.657h0C211.091,57.457,214.544,51.018,216.068,56.612Z" transform="translate(-168.972 -48.243)" fill="#ffcdbf"/>
      <path id="Trazado_1044013" data-name="Trazado 1044013" d="M244.231,54.548V59.23a5.618,5.618,0,0,1-2.253,4.505h0a5.617,5.617,0,0,1-1.689.867,5.634,5.634,0,0,0,5.069-.867h0a5.617,5.617,0,0,0,2.253-4.505V56.614C246.915,54.06,245.817,54.015,244.231,54.548Z" transform="translate(-200.514 -48.245)" fill="#ffbeab"/>
      <path id="Trazado_1044014" data-name="Trazado 1044014" d="M231.838,139.4v2.253l-1.127,2.253-2.253-1.128-2.253,1.128-1.127-2.253h0V139.4a5.63,5.63,0,0,0,6.759,0Z" transform="translate(-186.995 -123.913)" fill="#f4f6f8"/>
      <path id="Trazado_1044015" data-name="Trazado 1044015" d="M412.076,449.478v1.6a2.253,2.253,0,0,1-4.506,0v-1.6h0a5.644,5.644,0,0,0,4.506,0Z" transform="translate(-349.208 -399.531)" fill="#884130"/>
      <path id="Trazado_1044016" data-name="Trazado 1044016" d="M388.421,366.965a5.633,5.633,0,1,1-11.266,0v-3.322l2.253-1.184,9.013,2Z" transform="translate(-322.173 -322.182)" fill="#b45f4a"/>
      <path id="Trazado_1044017" data-name="Trazado 1044017" d="M416.59,373.724v3.255a5.621,5.621,0,0,1-3.942,5.374,5.631,5.631,0,0,0,7.322-5.374v-2.5Z" transform="translate(-353.722 -332.196)" fill="#a1513d"/>
      <path id="Trazado_1044018" data-name="Trazado 1044018" d="M387.927,316.915l-9.013-2-2.253,1.184c-.381-4.658,1.127-5.69,1.127-5.69h1.127s10.139-6.074,10.139,6.761Z" transform="translate(-321.679 -274.635)" fill="#cad0d7"/>
      <path id="Trazado_1044019" data-name="Trazado 1044019" d="M424.9,309.2c1.909.6,3.538,2.514,3.695,7.216l2.266.5,1.127.25C431.984,309,427.883,308.489,424.9,309.2Z" transform="translate(-364.61 -274.636)" fill="#a9b0bb"/>
      <rect id="Rectángulo_415696" data-name="Rectángulo 415696" width="11.266" height="7.886" transform="translate(35.83 44.783)" fill="#d83941"/>
      <path id="Trazado_1044020" data-name="Trazado 1044020" d="M205.93,463.843a2.253,2.253,0,0,1,2.253,2.253v2.253H194.664V466.1a2.256,2.256,0,0,1,2.253-2.253Z" transform="translate(-159.96 -412.301)" fill="#ff9ff3"/>
      <path id="Trazado_1044021" data-name="Trazado 1044021" d="M269.01,463.843h-3.38a2.252,2.252,0,0,1,2.253,2.253v2.253h3.38V466.1A2.252,2.252,0,0,0,269.01,463.843Z" transform="translate(-223.04 -412.301)" fill="#f368e0"/>
      <path id="Trazado_1044022" data-name="Trazado 1044022" d="M239.723,449.478v1.6a2.253,2.253,0,0,1-4.506,0v-1.6h0a5.644,5.644,0,0,0,4.506,0Z" transform="translate(-196.007 -399.531)" fill="#ffb098"/>
      <path id="Trazado_1044023" data-name="Trazado 1044023" d="M216.068,365.388a5.633,5.633,0,1,1-11.266,0v-2.254l5.633-2.449,5.633,2.449Z" transform="translate(-168.972 -320.605)" fill="#ffcdbf"/>
      <path id="Trazado_1044024" data-name="Trazado 1044024" d="M244.237,369.5v3.724A5.621,5.621,0,0,1,240.3,378.6a5.631,5.631,0,0,0,7.322-5.374V370.97Z" transform="translate(-200.521 -328.441)" fill="#ffbeab"/>
      <path id="Trazado_1044025" data-name="Trazado 1044025" d="M261.127,346.2v1.068l-5.633-2.449,4.56-1.984a5.6,5.6,0,0,1,1.073,3.306Z" transform="translate(-214.031 -304.735)" fill="#ee5253"/>
      <path id="Trazado_1044026" data-name="Trazado 1044026" d="M215,324.221l-4.56,1.984-5.633,2.449v-1.127A5.633,5.633,0,0,1,215,324.221Z" transform="translate(-168.972 -286.126)" fill="#ff6b6b"/>
      <path id="Trazado_1044027" data-name="Trazado 1044027" d="M274.762,342.83l-2.722,1.184a5.609,5.609,0,0,1,.4,1.774l3.392,1.475v-1.126A5.6,5.6,0,0,0,274.762,342.83Z" transform="translate(-228.738 -304.735)" fill="#d83941"/>
      <path id="Trazado_1044028" data-name="Trazado 1044028" d="M241.637,321.906q-.092.005-.183.014l-.086.008c-.069.007-.138.016-.207.026l-.049.007c-.08.012-.159.027-.238.042l-.1.021-.149.034-.1.026-.154.044-.084.025a5.646,5.646,0,0,1,3.528,3.252l2.722-1.184a5.624,5.624,0,0,0-4.56-2.326c-.087,0-.174,0-.261.007Z" transform="translate(-200.514 -286.126)" fill="#ee5253"/>
      <path id="Trazado_1044029" data-name="Trazado 1044029" d="M236.743,7.6a6.185,6.185,0,0,0-1.729.247,6.184,6.184,0,0,1,4.526,5.211c1.587-.534,2.686-.489,3.382,2.066V13.784A6.18,6.18,0,0,0,236.743,7.6Z" transform="translate(-195.826 -6.759)" fill="#222f3e"/>
      <path id="Trazado_1044030" data-name="Trazado 1044030" d="M371.638,318.575h-1.525v-.227a6.483,6.483,0,0,0,3.38-5.687h0v-1.45l.1.022a.845.845,0,0,0,1.028-.825c0-3.2-.623-5.589-1.852-7.1a5.3,5.3,0,0,0-4.271-1.939,11.534,11.534,0,0,0-5.083,1.437h-.905a.845.845,0,0,0-.477.148c-.318.218-1.882,1.551-1.494,6.418v3.292s0,.006,0,.009a6.483,6.483,0,0,0,3.379,5.678v.227h-1.408a3.1,3.1,0,0,0-3.1,3.1v2.253a.845.845,0,0,0,.845.845h13.632a.845.845,0,0,0,.845-.845v-2.253A3.1,3.1,0,0,0,371.638,318.575Zm-6.032.845v-.438a6.436,6.436,0,0,0,2.816,0v.437h0a1.408,1.408,0,1,1-2.816,0Zm-2.727-14.928h.757a.848.848,0,0,0,.433-.12,10.139,10.139,0,0,1,4.427-1.317,3.571,3.571,0,0,1,2.959,1.314,8.6,8.6,0,0,1,1.449,4.98h0a.815.815,0,0,0-.136-.03l-8.949-1.989a.845.845,0,0,0-.576.077l-1.077.566A6.152,6.152,0,0,1,362.879,304.492Zm-.652,8.168s0,0,0,0v-2.807l1.527-.8,8.049,1.789v1.826a4.788,4.788,0,0,1-9.576,0Zm.282,7.6h1.526a3.1,3.1,0,0,0,5.96,0h1.639a1.41,1.41,0,0,1,1.408,1.408v1.408H361.1v-1.408A1.41,1.41,0,0,1,362.508,320.264Z" transform="translate(-306.4 -267.877)"/>
      <path id="Trazado_1044031" data-name="Trazado 1044031" d="M26.822,330.068H25.409v-.227a6.483,6.483,0,0,0,3.38-5.687v-2.176a.829.829,0,0,0,0-.153v-1.051a6.478,6.478,0,0,0-12.955-.009s0,.006,0,.009v1.008a.849.849,0,0,0,0,.238v2.134s0,.006,0,.009a6.483,6.483,0,0,0,3.379,5.678v.227H17.805a3.1,3.1,0,0,0-3.1,3.1v2.253a.845.845,0,0,0,.845.845H29.071a.845.845,0,0,0,.845-.845v-2.253A3.1,3.1,0,0,0,26.822,330.068Zm-5.919.845v-.438a6.434,6.434,0,0,0,2.816,0v.438h0a1.408,1.408,0,0,1-2.816,0h0Zm1.408-14.928a4.8,4.8,0,0,1,4.406,2.914.846.846,0,0,0-.791,0,9.3,9.3,0,0,1-3.615,1.027,8.785,8.785,0,0,1-3.533-1.021.844.844,0,0,0-.9.049A4.8,4.8,0,0,1,22.312,315.985Zm-4.788,8.168s0,0,0,0v-1.977l1.1-1.46a9.605,9.605,0,0,0,3.688.907,10.013,10.013,0,0,0,3.74-.907l1.049,1.455v1.986a4.788,4.788,0,0,1-9.576,0Zm.282,7.6h1.526a3.1,3.1,0,0,0,5.96,0h1.526a1.41,1.41,0,0,1,1.408,1.408v1.408H16.4v-1.408A1.41,1.41,0,0,1,17.805,331.757Z" transform="translate(0 -279.37)"/>
      <path id="Trazado_1044032" data-name="Trazado 1044032" d="M75.537,31.262a.845.845,0,1,0,1.69,0V28.727H94.7v2.535a.845.845,0,1,0,1.69,0V28.727h17.455v2.535a.845.845,0,1,0,1.69,0v-3.38a.845.845,0,0,0-.845-.845h-18.3V25.349h7.035a.845.845,0,0,0,.845-.845V20a3.1,3.1,0,0,0-3.094-3.1H99.759v-1.01a6.464,6.464,0,0,0,2.253-4.9V7.025s0,0,0,0a7.025,7.025,0,0,0-14.05-.005.867.867,0,0,0,0,.095c0,.009,0,.017,0,.026s0,.036.008.054.008.033.012.049,0,.019.007.029.012.036.019.053.005.016.009.024.015.033.022.049l.013.026c.007.014.015.027.023.04l.019.032.022.03c.009.013.018.025.028.037l.019.022c.012.014.023.027.036.04l.018.017c.014.013.028.026.042.038l.023.017.042.031.045.028.024.015a.841.841,0,0,0,.083.039c.193.082.384.155.572.222v2.957s0,.006,0,.009a6.464,6.464,0,0,0,2.253,4.9V16.9H89.9A3.1,3.1,0,0,0,86.8,20V24.5a.845.845,0,0,0,.845.845H94.7v1.688H76.382a.845.845,0,0,0-.845.845v3.379ZM94.987,1.69a5.344,5.344,0,0,1,5.069,3.674c-1.075-.442-2.241.005-3.58.521-1.8.692-4,1.542-6.794.571A5.343,5.343,0,0,1,94.987,1.69Zm-4.241,9.295s0,0,0,0V8.47a11.588,11.588,0,0,0,6.337-1.007c1.035-.4,1.928-.743,2.382-.514.32.162.616.693.857,1.538v2.5a4.788,4.788,0,0,1-9.576,0Zm4.788,6.478a6.442,6.442,0,0,0,2.535-.517v.6l-.66,1.319-1.5-.749-.016-.007-.042-.018-.038-.015-.038-.012-.043-.012-.035-.007-.046-.008-.035,0-.045,0h-.08l-.043,0-.037,0-.044.008-.036.008-.042.012-.039.013-.037.014-.043.019-.016.007-1.5.749L93,17.545v-.6A6.448,6.448,0,0,0,95.534,17.462ZM89.9,18.589h1.731l.893,1.786h0a.846.846,0,0,0,.052.088l.01.017a.836.836,0,0,0,.15.163l.01.01a.842.842,0,0,0,.191.116l.007,0c.024.01.049.018.073.026l.035.012.024.005a.785.785,0,0,0,.353.012l.042-.007a.859.859,0,0,0,.087-.026l.007,0c.016-.006.033-.014.049-.021s.029-.011.043-.019h0l1.875-.938,1.875.938a.842.842,0,0,0,1.09-.3.821.821,0,0,0,.044-.073h0l.893-1.786h1.731A1.41,1.41,0,0,1,102.575,20v3.662h-7l-.035,0-.035,0H88.493V20A1.409,1.409,0,0,1,89.9,18.589Z" transform="translate(-54.071)"/>
      <path id="Trazado_1044033" data-name="Trazado 1044033" d="M201.141,330.772v-6.625h0V321.9s0,0,0-.006v-1.074c0-.009,0-.019,0-.028s0-.02,0-.03a6.44,6.44,0,0,0-1.184-3.726.829.829,0,0,0-.1-.137,6.475,6.475,0,0,0-11.674,3.863c0,.009,0,.017,0,.026s0,.021,0,.032V321.9s0,.005,0,.008v2.242s0,0,0,0v6.62a3.093,3.093,0,0,0-1.127,2.388v2.253a.845.845,0,0,0,.845.845h13.519a.845.845,0,0,0,.845-.845V333.16A3.094,3.094,0,0,0,201.141,330.772Zm-12.392,2.388a1.41,1.41,0,0,1,1.408-1.408h1.526a3.1,3.1,0,0,0,5.96,0h1.526a1.41,1.41,0,0,1,1.408,1.408v1.408H188.749V333.16Zm1.126-10.713,4.788-2.082,4.788,2.082v1.7a4.788,4.788,0,1,1-9.576,0s0,0,0,0v-1.7Zm9.018-3.922a4.754,4.754,0,0,1,.554,2.077l-2.665-1.159Zm-5.638,12.381v-.438a6.435,6.435,0,0,0,2.816,0v.438h0a1.408,1.408,0,1,1-2.816,0Zm6.2-.832c-.091-.008-.184-.013-.277-.013h-1.413v-.227a6.521,6.521,0,0,0,1.69-1.329Zm-4.788-14.1a4.766,4.766,0,0,1,3.14,1.178L189.88,320.6A4.793,4.793,0,0,1,194.663,315.979Zm-4.788,12.528a6.518,6.518,0,0,0,1.69,1.329v.227h-1.408c-.1,0-.189,0-.282.013Z" transform="translate(-153.2 -279.365)"/>
    </g>
  </g>
</svg>
