<svg xmlns="http://www.w3.org/2000/svg" xmlns:xlink="http://www.w3.org/1999/xlink" width="106" height="106" viewBox="0 0 106 106">
  <defs>
    <filter id="Trazado_982547" x="0" y="0" width="106" height="106" filterUnits="userSpaceOnUse">
      <feOffset dy="3" input="SourceAlpha"/>
      <feGaussianBlur stdDeviation="3" result="blur"/>
      <feFlood flood-opacity="0.161"/>
      <feComposite operator="in" in2="blur"/>
      <feComposite in="SourceGraphic"/>
    </filter>
  </defs>
  <g id="Grupo_1183770" data-name="Grupo 1183770" transform="translate(-171 -3176)">
    <g id="Grupo_1181500" data-name="Grupo 1181500" transform="translate(-0.261 648)">
      <g id="Grupo_1173624" data-name="Grupo 1173624" transform="translate(0.261 -1716)">
        <g id="Grupo_1173435" data-name="Grupo 1173435" transform="translate(0 533)">
          <g id="Grupo_1172017" data-name="Grupo 1172017" transform="translate(0 2654)">
            <g id="Grupo_1167337" data-name="Grupo 1167337" transform="translate(180 1063)">
              <g id="Grupo_1166720" data-name="Grupo 1166720" transform="translate(0)">
                <g id="Grupo_1164305" data-name="Grupo 1164305">
                  <g id="Grupo_1163948" data-name="Grupo 1163948">
                    <g id="Grupo_1158168" data-name="Grupo 1158168">
                      <g id="Grupo_1152576" data-name="Grupo 1152576">
                        <g id="Grupo_1148633" data-name="Grupo 1148633">
                          <g id="Grupo_1148525" data-name="Grupo 1148525">
                            <g transform="matrix(1, 0, 0, 1, -9, -6)" filter="url(#Trazado_982547)">
                              <g id="Trazado_982547-2" data-name="Trazado 982547" transform="translate(9 6)" fill="#fbfbf9">
                                <path d="M 44 86.5 C 38.26187515258789 86.5 32.69618606567383 85.37651062011719 27.45755004882812 83.16075897216797 C 22.3968505859375 81.020263671875 17.85157585144043 77.95565032958984 13.94796276092529 74.05204010009766 C 10.04434967041016 70.1484375 6.979737281799316 65.6031494140625 4.839250087738037 60.54246139526367 C 2.62348747253418 55.30381393432617 1.5 49.73812484741211 1.5 44 C 1.5 38.26187515258789 2.62348747253418 32.69618606567383 4.839250087738037 27.45755004882812 C 6.979737281799316 22.3968505859375 10.04434967041016 17.85157585144043 13.94796276092529 13.94796276092529 C 17.85157585144043 10.04434967041016 22.3968505859375 6.979737281799316 27.45755004882812 4.839250087738037 C 32.69618606567383 2.62348747253418 38.26187515258789 1.5 44 1.5 C 49.73812484741211 1.5 55.30381393432617 2.62348747253418 60.54246139526367 4.839250087738037 C 65.6031494140625 6.979737281799316 70.1484375 10.04434967041016 74.05204010009766 13.94796276092529 C 77.95565032958984 17.85157585144043 81.020263671875 22.3968505859375 83.16075897216797 27.45755004882812 C 85.37651062011719 32.69618606567383 86.5 38.26187515258789 86.5 44 C 86.5 49.73812484741211 85.37651062011719 55.30381393432617 83.16075897216797 60.54246139526367 C 81.020263671875 65.6031494140625 77.95565032958984 70.1484375 74.05204010009766 74.05204010009766 C 70.1484375 77.95565032958984 65.6031494140625 81.020263671875 60.54246139526367 83.16075897216797 C 55.30381393432617 85.37651062011719 49.73812484741211 86.5 44 86.5 Z" stroke="none"/>
                                <path d="M 44 3 C 38.46371459960938 3 33.09462738037109 4.083610534667969 28.0418701171875 6.220756530761719 C 23.15997314453125 8.285614013671875 18.77495574951172 11.24228668212891 15.00862884521484 15.00862884521484 C 11.24228668212891 18.77495574951172 8.285614013671875 23.15997314453125 6.220756530761719 28.0418701171875 C 4.083610534667969 33.09462738037109 3 38.46371459960938 3 44 C 3 49.53628540039062 4.083610534667969 54.9053840637207 6.220756530761719 59.9581298828125 C 8.285614013671875 64.84002685546875 11.24228668212891 69.22504425048828 15.00862884521484 72.99138641357422 C 18.77495574951172 76.75771331787109 23.15997314453125 79.71438598632812 28.0418701171875 81.77925872802734 C 33.09462738037109 83.9163818359375 38.46371459960938 85 44 85 C 49.53628540039062 85 54.9053840637207 83.9163818359375 59.95814514160156 81.77925872802734 C 64.84002685546875 79.71438598632812 69.22504425048828 76.75771331787109 72.99138641357422 72.99138641357422 C 76.75771331787109 69.22504425048828 79.71438598632812 64.84002685546875 81.77925872802734 59.95814514160156 C 83.9163818359375 54.9053840637207 85 49.53628540039062 85 44 C 85 38.46371459960938 83.9163818359375 33.09462738037109 81.77925872802734 28.0418701171875 C 79.71438598632812 23.15997314453125 76.75771331787109 18.77495574951172 72.99138641357422 15.00862884521484 C 69.22504425048828 11.24228668212891 64.84002685546875 8.285614013671875 59.9581298828125 6.220756530761719 C 54.9053840637207 4.083610534667969 49.53628540039062 3 44 3 M 44 0 C 68.30054473876953 0 88 19.69947052001953 88 44 C 88 68.30054473876953 68.30054473876953 88 44 88 C 19.69947052001953 88 0 68.30054473876953 0 44 C 0 19.69947052001953 19.69947052001953 0 44 0 Z" stroke="none" fill="#7b776f"/>
                              </g>
                            </g>
                          </g>
                        </g>
                      </g>
                    </g>
                  </g>
                </g>
              </g>
            </g>
          </g>
        </g>
      </g>
    </g>
    <g id="reloj" transform="translate(196 3180.96)">
      <g id="Grupo_1183722" data-name="Grupo 1183722" transform="translate(0.808 20.848)">
        <path id="Trazado_1043952" data-name="Trazado 1043952" d="M29.1,27.54H9.228A1.728,1.728,0,0,0,7.5,29.268V31H30.831V29.268A1.728,1.728,0,0,0,29.1,27.54Z" transform="translate(-7.5 -27.54)" fill="#dfbdf0"/>
        <path id="Trazado_1043953" data-name="Trazado 1043953" d="M9.228,27.54h.864V31H7.5V29.268A1.728,1.728,0,0,1,9.228,27.54Z" transform="translate(-7.5 -27.54)" fill="#cbb0f2"/>
        <path id="Trazado_1043954" data-name="Trazado 1043954" d="M29.1,73.752H9.228A1.728,1.728,0,0,1,7.5,72.023V59.605H30.831V72.023A1.728,1.728,0,0,1,29.1,73.752Z" transform="translate(-7.5 -56.148)" fill="#fff"/>
        <path id="Trazado_1043955" data-name="Trazado 1043955" d="M11.821,72.567a1.728,1.728,0,0,1-1.728-1.728V59.605H7.5V73.431a1.728,1.728,0,0,0,1.728,1.728H29.1a1.728,1.728,0,0,0,1.728-1.728v-.864Z" transform="translate(-7.5 -56.148)" fill="#eceaec"/>
        <path id="Trazado_1043956" data-name="Trazado 1043956" d="M277.6,99.685H257.728A1.728,1.728,0,0,0,256,101.413v1.728h23.331v-1.728A1.728,1.728,0,0,0,277.6,99.685Z" transform="translate(-229.212 -91.908)" fill="#fbbd80"/>
        <g id="Grupo_1183720" data-name="Grupo 1183720" transform="translate(3.457 28.516)">
          <path id="Trazado_1043957" data-name="Trazado 1043957" d="M61.168,337.1H41.293a1.728,1.728,0,0,1-1.728-1.728V324.137H62.9v11.234A1.728,1.728,0,0,1,61.168,337.1Z" transform="translate(-39.565 -320.681)" fill="#fff"/>
          <path id="Trazado_1043958" data-name="Trazado 1043958" d="M43.886,335.371a1.728,1.728,0,0,1-1.728-1.728v-9.505H39.565v12.1a1.728,1.728,0,0,0,1.728,1.728H61.168a1.728,1.728,0,0,0,1.728-1.728v-.864H43.886Z" transform="translate(-39.565 -320.681)" fill="#eceaec"/>
          <path id="Trazado_1043959" data-name="Trazado 1043959" d="M61.168,292.073H41.293a1.728,1.728,0,0,0-1.728,1.728v1.728H62.9V293.8A1.728,1.728,0,0,0,61.168,292.073Z" transform="translate(-39.565 -292.073)" fill="#8ceea1"/>
          <path id="Trazado_1043960" data-name="Trazado 1043960" d="M41.293,292.073h.864v3.457H39.565V293.8A1.728,1.728,0,0,1,41.293,292.073Z" transform="translate(-39.565 -292.073)" fill="#4ce1a1"/>
        </g>
        <g id="Grupo_1183721" data-name="Grupo 1183721" transform="translate(26.788 11.234)">
          <path id="Trazado_1043961" data-name="Trazado 1043961" d="M277.6,145.576H257.728A1.728,1.728,0,0,1,256,143.848v-12.1h23.331v12.1A1.728,1.728,0,0,1,277.6,145.576Z" transform="translate(-256 -131.75)" fill="#fff"/>
          <path id="Trazado_1043962" data-name="Trazado 1043962" d="M256,235.96v.864a1.728,1.728,0,0,0,1.728,1.728H277.6a1.728,1.728,0,0,0,1.728-1.728v-.864Z" transform="translate(-256 -224.726)" fill="#eceaec"/>
        </g>
        <circle id="Elipse_13196" data-name="Elipse 13196" cx="15.554" cy="15.554" r="15.554" transform="translate(11.234 11.234)" fill="#c9c5c9"/>
        <path id="Trazado_1043963" data-name="Trazado 1043963" d="M132.449,176.584a15.53,15.53,0,0,1-13.269-23.639A15.542,15.542,0,1,0,140.534,174.3,15.456,15.456,0,0,1,132.449,176.584Z" transform="translate(-100.476 -139.427)" fill="#b8b2b8"/>
        <circle id="Elipse_13197" data-name="Elipse 13197" cx="12.098" cy="12.098" r="12.098" transform="translate(14.69 14.69)" fill="#eceaec"/>
        <circle id="Elipse_13198" data-name="Elipse 13198" cx="9.505" cy="9.505" r="9.505" transform="translate(17.283 17.283)" fill="#fff"/>
        <circle id="Elipse_13199" data-name="Elipse 13199" cx="1.728" cy="1.728" r="1.728" transform="translate(25.06 25.06)" fill="#887f88"/>
        <path id="Trazado_1043964" data-name="Trazado 1043964" d="M309.668,355.723H289.793A1.728,1.728,0,0,1,288.065,354V340.169H311.4v13.826A1.728,1.728,0,0,1,309.668,355.723Z" transform="translate(-257.821 -306.468)" fill="#fff"/>
        <path id="Trazado_1043965" data-name="Trazado 1043965" d="M292.386,353.131a1.728,1.728,0,0,1-1.728-1.728V340.169h-2.592v13.826a1.728,1.728,0,0,0,1.728,1.728h19.875a1.728,1.728,0,0,0,1.728-1.728v-.864Z" transform="translate(-257.821 -306.468)" fill="#eceaec"/>
        <path id="Trazado_1043966" data-name="Trazado 1043966" d="M309.668,308.105H289.793a1.728,1.728,0,0,0-1.728,1.728v1.728H311.4v-1.728A1.728,1.728,0,0,0,309.668,308.105Z" transform="translate(-257.821 -277.861)" fill="#ff5f7a"/>
        <path id="Trazado_1043967" data-name="Trazado 1043967" d="M289.793,308.105h.864v3.457h-2.592v-1.728A1.728,1.728,0,0,1,289.793,308.105Z" transform="translate(-257.821 -277.861)" fill="#fb4455"/>
      </g>
      <g id="Grupo_1183723" data-name="Grupo 1183723" transform="translate(0 20.04)">
        <path id="Trazado_1043968" data-name="Trazado 1043968" d="M206.4,223.9a2.52,2.52,0,0,0-1.128.266l-3.485-3.485a.808.808,0,0,0-1.143,1.143l3.485,3.485a2.536,2.536,0,1,0,4.675,1.936h6.237a.808.808,0,1,0,0-1.617H208.8A2.541,2.541,0,0,0,206.4,223.9Zm0,3.456a.92.92,0,1,1,.92-.92A.921.921,0,0,1,206.4,227.357Z" transform="translate(-178.801 -198.841)"/>
        <path id="Trazado_1043969" data-name="Trazado 1043969" d="M137.988,168.517a11.274,11.274,0,0,1,18.007-8.265.808.808,0,1,0,.969-1.294A12.891,12.891,0,0,0,138.918,177a.809.809,0,1,0,1.294-.97A11.3,11.3,0,0,1,137.988,168.517Z" transform="translate(-121.648 -141.688)"/>
        <path id="Trazado_1043970" data-name="Trazado 1043970" d="M250.117,190.052v-.864a.808.808,0,0,0-1.617,0v.864a.808.808,0,0,0,1.617,0Z" transform="translate(-221.712 -170.232)"/>
        <path id="Trazado_1043971" data-name="Trazado 1043971" d="M249.308,340.686a.808.808,0,0,0-.808.808v.864a.808.808,0,0,0,1.617,0v-.864A.808.808,0,0,0,249.308,340.686Z" transform="translate(-221.712 -306.121)"/>
        <path id="Trazado_1043972" data-name="Trazado 1043972" d="M170.82,269.348a.809.809,0,0,0-.808-.808h-.864a.808.808,0,0,0,0,1.617h.864A.808.808,0,0,0,170.82,269.348Z" transform="translate(-150.192 -241.752)"/>
        <path id="Trazado_1043973" data-name="Trazado 1043973" d="M145.631,143.261H136.72a16.355,16.355,0,1,0-13.5,13.5v4.591a2.54,2.54,0,0,0,2.537,2.537h19.875a2.54,2.54,0,0,0,2.537-2.537V145.8a2.54,2.54,0,0,0-2.537-2.537Zm.92,2.537v.92H124.837v-.92a.921.921,0,0,1,.92-.92h19.875A.921.921,0,0,1,146.551,145.8Zm-25.979,9.561a14.739,14.739,0,1,1,14.507-12.1H133.2a12.971,12.971,0,0,0-2.3-10.368.809.809,0,1,0-1.294.97,11.345,11.345,0,0,1,1.939,9.4h-5.787a2.54,2.54,0,0,0-2.537,2.537v5.787a11.346,11.346,0,0,1-9.4-1.939.809.809,0,0,0-.969,1.294,12.953,12.953,0,0,0,10.368,2.3v1.881A14.9,14.9,0,0,1,120.572,155.359Zm25.06,6.913H125.757a.921.921,0,0,1-.92-.92V148.334h21.714v13.017A.921.921,0,0,1,145.631,162.271Z" transform="translate(-92.975 -113.016)"/>
        <path id="Trazado_1043974" data-name="Trazado 1043974" d="M273.357,93.8h19.011a.921.921,0,0,1,.92.92v.92H282a.808.808,0,1,0,0,1.617h11.289v11.289a.921.921,0,0,1-.92.92h-2.592a.808.808,0,1,0,0,1.617h2.592a2.54,2.54,0,0,0,2.537-2.537V94.723a2.54,2.54,0,0,0-2.537-2.537H273.357a.808.808,0,1,0,0,1.617Z" transform="translate(-243.168 -84.409)"/>
        <path id="Trazado_1043975" data-name="Trazado 1043975" d="M342.431,372.75H329.469a.808.808,0,0,0,0,1.617h12.962a.808.808,0,0,0,0-1.617Z" transform="translate(-293.232 -334.729)"/>
        <path id="Trazado_1043976" data-name="Trazado 1043976" d="M342.431,436.879H329.469a.808.808,0,0,0,0,1.617h12.962a.808.808,0,0,0,0-1.617Z" transform="translate(-293.232 -391.945)"/>
        <path id="Trazado_1043977" data-name="Trazado 1043977" d="M361.295,406.431a.808.808,0,0,0,0-1.617h-7.777a.808.808,0,1,0,0,1.617Z" transform="translate(-314.688 -363.336)"/>
        <path id="Trazado_1043978" data-name="Trazado 1043978" d="M62.676,92.994a.809.809,0,0,0-.808-.808H48.905a.808.808,0,1,0,0,1.617H61.867A.809.809,0,0,0,62.676,92.994Z" transform="translate(-42.912 -84.409)"/>
        <path id="Trazado_1043979" data-name="Trazado 1043979" d="M48.905,156.314a.808.808,0,0,0,0,1.617h6.913a.808.808,0,0,0,0-1.617Z" transform="translate(-42.912 -141.624)"/>
        <path id="Trazado_1043980" data-name="Trazado 1043980" d="M81.539,125.058a.809.809,0,0,0-.808-.808H72.953a.808.808,0,0,0,0,1.617h7.777A.809.809,0,0,0,81.539,125.058Z" transform="translate(-64.368 -113.016)"/>
        <path id="Trazado_1043981" data-name="Trazado 1043981" d="M11.122,39.859a.808.808,0,0,0-.808-.808H2.537a.921.921,0,0,1-.92-.92V25.113H23.331v3.512a.808.808,0,1,0,1.617,0V22.577a2.54,2.54,0,0,0-2.537-2.537H2.537A2.54,2.54,0,0,0,0,22.577V38.131a2.54,2.54,0,0,0,2.537,2.537h7.777a.809.809,0,0,0,.808-.808Zm-8.586-18.2H22.412a.921.921,0,0,1,.92.92v.92H1.617v-.92a.921.921,0,0,1,.92-.92Z" transform="translate(0 -20.04)"/>
        <path id="Trazado_1043982" data-name="Trazado 1043982" d="M397.864,165.139a.809.809,0,0,0-.808-.809H393.6a.808.808,0,0,0,0,1.617h3.456A.808.808,0,0,0,397.864,165.139Z" transform="translate(-350.449 -148.777)"/>
        <path id="Trazado_1043983" data-name="Trazado 1043983" d="M414.182,198.013h1.238a.808.808,0,0,0,0-1.617h-1.238a.808.808,0,1,0,0,1.617Z" transform="translate(-368.813 -177.385)"/>
        <path id="Trazado_1043984" data-name="Trazado 1043984" d="M53.612,301.855H34.6a.921.921,0,0,1-.92-.92V289.646h4.376a.808.808,0,1,0,0-1.617H33.682v-.92a.921.921,0,0,1,.92-.92h2.592a.808.808,0,1,0,0-1.617H34.6a2.54,2.54,0,0,0-2.537,2.537v13.826a2.54,2.54,0,0,0,2.537,2.537H53.612a.808.808,0,1,0,0-1.617Z" transform="translate(-28.608 -256.056)"/>
        <path id="Trazado_1043985" data-name="Trazado 1043985" d="M72.145,397.607a.809.809,0,0,0,.808.808h5.185a.808.808,0,1,0,0-1.617H72.953A.808.808,0,0,0,72.145,397.607Z" transform="translate(-64.368 -356.184)"/>
        <path id="Trazado_1043986" data-name="Trazado 1043986" d="M75.546,364.734H72.953a.809.809,0,0,0,0,1.617h2.592a.809.809,0,0,0,0-1.617Z" transform="translate(-64.368 -327.577)"/>
      </g>
    </g>
  </g>
</svg>
