<svg xmlns="http://www.w3.org/2000/svg" xmlns:xlink="http://www.w3.org/1999/xlink" width="110" height="110" viewBox="0 0 110 110">
  <defs>
    <filter id="Trazado_982547" x="0" y="0" width="110" height="110" filterUnits="userSpaceOnUse">
      <feOffset dy="3" input="SourceAlpha"/>
      <feGaussianBlur stdDeviation="3" result="blur"/>
      <feFlood flood-opacity="0.161"/>
      <feComposite operator="in" in2="blur"/>
      <feComposite in="SourceGraphic"/>
    </filter>
  </defs>
  <g id="Grupo_1183751" data-name="Grupo 1183751" transform="translate(-9337 -2764)">
    <g id="Grupo_1181563" data-name="Grupo 1181563" transform="translate(8644.26 -180.677)">
      <g id="Grupo_1177563" data-name="Grupo 1177563" transform="translate(0.279 -12113.323)">
        <g id="Grupo_1173148" data-name="Grupo 1173148" transform="translate(701.461 15064)">
          <g id="Grupo_1163803" data-name="Grupo 1163803" transform="translate(0 0)">
            <g id="Grupo_1163015" data-name="Grupo 1163015">
              <g id="Grupo_1157017" data-name="Grupo 1157017" transform="translate(0 0)">
                <g id="Grupo_1155793" data-name="Grupo 1155793" transform="translate(0 0)">
                  <g id="Grupo_1154704" data-name="Grupo 1154704">
                    <g id="Grupo_1150790" data-name="Grupo 1150790">
                      <g id="Grupo_1154214" data-name="Grupo 1154214">
                        <g id="Grupo_1152583" data-name="Grupo 1152583">
                          <g id="Grupo_1146973" data-name="Grupo 1146973" transform="translate(0 0)">
                            <g id="Grupo_1146954" data-name="Grupo 1146954">
                              <g transform="matrix(1, 0, 0, 1, -9, -6)" filter="url(#Trazado_982547)">
                                <g id="Trazado_982547-2" data-name="Trazado 982547" transform="translate(9 6)" fill="#f2f7e5">
                                  <path d="M 46.00000381469727 90.49988555908203 C 39.99188232421875 90.49988555908203 34.16427230834961 89.32352447509766 28.67905807495117 87.00347137451172 C 23.38020324707031 84.76226043701172 18.62103080749512 81.55342864990234 14.53375053405762 77.46615600585938 C 10.44645690917969 73.37887573242188 7.237643718719482 68.61971282958984 4.996417045593262 63.32085800170898 C 2.676363706588745 57.83565902709961 1.500003814697266 52.00806045532227 1.500003814697266 45.99993896484375 C 1.500003814697266 39.99181747436523 2.676363706588745 34.16421890258789 4.996417045593262 28.67901802062988 C 7.237643718719482 23.38017845153809 10.44645690917969 18.62101936340332 14.53375053405762 14.53373908996582 C 18.62103080749512 10.44645881652832 23.38020324707031 7.237632274627686 28.67905807495117 4.996418952941895 C 34.16427230834961 2.676365613937378 39.99188232421875 1.500005602836609 46.00000381469727 1.500005602836609 C 52.00812530517578 1.500005602836609 57.83573532104492 2.676365613937378 63.32094955444336 4.996418952941895 C 68.61980438232422 7.237632274627686 73.37896728515625 10.44645881652832 77.46625518798828 14.53373908996582 C 81.55353546142578 18.62101936340332 84.76236724853516 23.38017845153809 87.00359344482422 28.67901802062988 C 89.32364654541016 34.16421890258789 90.5 39.99181747436523 90.5 45.99993896484375 C 90.5 52.00806045532227 89.32364654541016 57.83565902709961 87.00359344482422 63.32085800170898 C 84.76236724853516 68.61971282958984 81.55353546142578 73.37887573242188 77.46625518798828 77.46615600585938 C 73.37896728515625 81.55342864990234 68.61980438232422 84.76226043701172 63.32094955444336 87.00347137451172 C 57.83573532104492 89.32352447509766 52.00812530517578 90.49988555908203 46.00000381469727 90.49988555908203 Z" stroke="none"/>
                                  <path d="M 46.00000381469727 2.999992370605469 C 40.19371795654297 2.999992370605469 34.56270217895508 4.136497497558594 29.26338958740234 6.377906799316406 C 24.14333343505859 8.543510437011719 19.54441833496094 11.64437866210938 15.59440612792969 15.59439849853516 C 11.64440155029297 19.54439544677734 8.54351806640625 24.14329528808594 6.377914428710938 29.26335144042969 C 4.136505126953125 34.56266784667969 3.000007629394531 40.19366836547852 3.000007629394531 45.99993896484375 C 3.000007629394531 51.80620956420898 4.136505126953125 57.43722534179688 6.377914428710938 62.73654174804688 C 8.54351806640625 67.85658264160156 11.64440155029297 72.45548248291016 15.59440612792969 76.40549468994141 C 19.54441833496094 80.35549926757812 24.14333343505859 83.45636749267578 29.26337432861328 85.62196350097656 C 34.56270217895508 87.86338043212891 40.19371795654297 88.9998779296875 46.00000381469727 88.9998779296875 C 51.80628967285156 88.9998779296875 57.43730545043945 87.86338043212891 62.73663330078125 85.62196350097656 C 67.85667419433594 83.45636749267578 72.45558929443359 80.35549926757812 76.40560150146484 76.40549468994141 C 80.35560607910156 72.45548248291016 83.45648956298828 67.85658264160156 85.62208557128906 62.73654174804688 C 87.86350250244141 57.43722534179688 89 51.80620956420898 89 45.99993896484375 C 89 40.19366836547852 87.86350250244141 34.56266784667969 85.62208557128906 29.26335144042969 C 83.45648956298828 24.14329528808594 80.35560607910156 19.54439544677734 76.40560150146484 15.59439849853516 C 72.45558929443359 11.64437866210938 67.85667419433594 8.543510437011719 62.73661804199219 6.377906799316406 C 57.43730545043945 4.136497497558594 51.80628967285156 2.999992370605469 46.00000381469727 2.999992370605469 M 46.00000381469727 -7.62939453125e-06 C 71.40510559082031 -7.62939453125e-06 92 20.59487915039062 92 45.99993896484375 C 92 71.40501403808594 71.40510559082031 91.99988555908203 46.00000381469727 91.99988555908203 C 20.59490203857422 91.99988555908203 7.62939453125e-06 71.40501403808594 7.62939453125e-06 45.99993896484375 C 7.62939453125e-06 20.59487915039062 20.59490203857422 -7.62939453125e-06 46.00000381469727 -7.62939453125e-06 Z" stroke="none" fill="#86b60c"/>
                                </g>
                              </g>
                            </g>
                          </g>
                        </g>
                      </g>
                    </g>
                  </g>
                </g>
              </g>
            </g>
          </g>
        </g>
      </g>
    </g>
    <g id="ambiguedad" transform="translate(9361 2786)">
      <g id="Grupo_1183749" data-name="Grupo 1183749" transform="translate(0.891 0.891)">
        <path id="Trazado_1044102" data-name="Trazado 1044102" d="M205.609,349.736v11.321a.492.492,0,0,1-.492.492h-1.341a.492.492,0,0,0-.363.824l4.68,5.1a1.967,1.967,0,0,0,2.9,0l4.68-5.1a.492.492,0,0,0-.363-.824H213.97a.492.492,0,0,1-.492-.492V349.736Z" transform="translate(-180.034 -309.095)" fill="#f75574"/>
        <path id="Trazado_1044103" data-name="Trazado 1044103" d="M222.866,352.6a14.7,14.7,0,0,0,7.869,0v-2.867h-7.869V352.6Z" transform="translate(-197.291 -309.095)" fill="#f3395e"/>
        <path id="Trazado_1044104" data-name="Trazado 1044104" d="M213.478,25.878V14.557a.492.492,0,0,1,.492-.492h1.341a.492.492,0,0,0,.363-.824l-4.68-5.1a1.967,1.967,0,0,0-2.9,0l-4.68,5.1a.492.492,0,0,0,.363.824h1.341a.492.492,0,0,1,.492.492V25.878Z" transform="translate(-180.034 -7.499)" fill="#f75574"/>
        <path id="Trazado_1044105" data-name="Trazado 1044105" d="M230.736,134.136a14.7,14.7,0,0,0-7.869,0V137h7.869v-2.867Z" transform="translate(-197.292 -118.625)" fill="#f3395e"/>
        <path id="Trazado_1044106" data-name="Trazado 1044106" d="M25.878,205.609H14.557a.492.492,0,0,1-.492-.492v-1.341a.492.492,0,0,0-.824-.363l-5.1,4.68a1.967,1.967,0,0,0,0,2.9l5.1,4.68a.492.492,0,0,0,.824-.363V213.97a.492.492,0,0,1,.492-.492H25.878Z" transform="translate(-7.499 -180.034)" fill="#976dc9"/>
        <path id="Trazado_1044107" data-name="Trazado 1044107" d="M134.136,230.735H137v-7.869h-2.867a14.7,14.7,0,0,0,0,7.869Z" transform="translate(-118.625 -197.291)" fill="#8b5cc4"/>
        <path id="Trazado_1044108" data-name="Trazado 1044108" d="M91.785,86.221,83.78,78.216a.492.492,0,0,1,0-.7l.948-.948a.492.492,0,0,0-.326-.839l-6.918-.3a1.967,1.967,0,0,0-2.051,2.051l.3,6.918a.492.492,0,0,0,.839.326l.948-.948a.492.492,0,0,1,.7,0l8.005,8.005Z" transform="translate(-67.364 -67.364)" fill="#63d6fb"/>
        <path id="Trazado_1044109" data-name="Trazado 1044109" d="M149.215,154.779l2.028,2.028,5.564-5.564-2.028-2.028a14.7,14.7,0,0,0-5.564,5.564Z" transform="translate(-132.386 -132.386)" fill="#5fbdf0"/>
        <path id="Trazado_1044110" data-name="Trazado 1044110" d="M304.417,91.785l8.005-8.005a.492.492,0,0,1,.7,0l.948.948a.492.492,0,0,0,.839-.326l.3-6.918a1.967,1.967,0,0,0-2.051-2.051l-6.918.3a.492.492,0,0,0-.326.839l.948.948a.492.492,0,0,1,0,.7l-8.005,8.005Z" transform="translate(-264.253 -67.364)" fill="#43d5bc"/>
        <path id="Trazado_1044111" data-name="Trazado 1044111" d="M306.445,154.779a14.7,14.7,0,0,0-5.565-5.564l-2.027,2.028,5.564,5.564Z" transform="translate(-264.254 -132.386)" fill="#3dbcc2"/>
        <path id="Trazado_1044112" data-name="Trazado 1044112" d="M298.853,304.418l8.005,8.005a.492.492,0,0,1,0,.7l-.948.948a.492.492,0,0,0,.326.839l6.918.3a1.967,1.967,0,0,0,2.051-2.051l-.3-6.918a.492.492,0,0,0-.839-.326l-.948.948a.492.492,0,0,1-.7,0l-8-8.005Z" transform="translate(-264.254 -264.254)" fill="#63d6fb"/>
        <path id="Trazado_1044113" data-name="Trazado 1044113" d="M306.445,300.881l-2.028-2.027-5.564,5.564,2.027,2.028a14.7,14.7,0,0,0,5.565-5.565Z" transform="translate(-264.254 -264.254)" fill="#5fbdf0"/>
        <path id="Trazado_1044114" data-name="Trazado 1044114" d="M86.221,298.853l-8.005,8.005a.492.492,0,0,1-.7,0l-.948-.948a.492.492,0,0,0-.839.326l-.3,6.918a1.967,1.967,0,0,0,2.051,2.051l6.918-.3a.492.492,0,0,0,.326-.839l-.948-.948a.492.492,0,0,1,0-.7l8.005-8.005Z" transform="translate(-67.365 -264.254)" fill="#43d5bc"/>
        <path id="Trazado_1044115" data-name="Trazado 1044115" d="M149.215,300.881a14.7,14.7,0,0,0,5.564,5.564l2.028-2.028-5.564-5.564Z" transform="translate(-132.386 -264.254)" fill="#3dbcc2"/>
        <path id="Trazado_1044116" data-name="Trazado 1044116" d="M349.736,213.478h11.321a.492.492,0,0,1,.492.492v1.341a.492.492,0,0,0,.824.363l5.1-4.68a1.967,1.967,0,0,0,0-2.9l-5.1-4.68a.492.492,0,0,0-.824.363v1.341a.492.492,0,0,1-.492.492H349.736Z" transform="translate(-309.095 -180.034)" fill="#976dc9"/>
        <path id="Trazado_1044117" data-name="Trazado 1044117" d="M349.736,230.736H352.6a14.7,14.7,0,0,0,0-7.869h-2.867Z" transform="translate(-309.095 -197.292)" fill="#8b5cc4"/>
        <g id="Grupo_1183748" data-name="Grupo 1183748" transform="translate(17.706 17.706)">
          <path id="Trazado_1044118" data-name="Trazado 1044118" d="M167.038,180.716l1.075-.022,3.032-.826,3.835-1.992,2.82-5.375v-9.338l-6.276-4.952-3.373-.944h-1.113a11.8,11.8,0,0,0,0,23.45Z" transform="translate(-156.6 -157.187)" fill="#eaebeb"/>
          <path id="Trazado_1044119" data-name="Trazado 1044119" d="M198.014,206.214l4.108-2.539,2.456-7.261-6.306-5.665h-2.035a7.868,7.868,0,0,0,0,15.5Z" transform="translate(-185.798 -186.693)" fill="#ffe751"/>
          <path id="Trazado_1044120" data-name="Trazado 1044120" d="M245.866,156.6a11.926,11.926,0,0,0-1.366.079,11.8,11.8,0,0,1,0,23.45,11.8,11.8,0,1,0,1.366-23.529Z" transform="translate(-234.062 -156.6)" fill="#d8dcdc"/>
          <path id="Trazado_1044121" data-name="Trazado 1044121" d="M245.866,189.733a7.913,7.913,0,0,0-1.366.121,7.868,7.868,0,0,1,0,15.5,7.869,7.869,0,1,0,1.366-15.618Z" transform="translate(-234.062 -185.798)" fill="#ffc738"/>
        </g>
        <path id="Trazado_1044122" data-name="Trazado 1044122" d="M404.005,75.433l-2.059.089a1.967,1.967,0,0,1,1.378,1.961l-.283,6.528.232-.232a.492.492,0,0,1,.7,0l.948.948a.492.492,0,0,0,.839-.326l.3-6.918A1.967,1.967,0,0,0,404.005,75.433Z" transform="translate(-355.105 -67.364)" fill="#3dbcc2"/>
        <path id="Trazado_1044123" data-name="Trazado 1044123" d="M405.757,357.53a.492.492,0,0,0-.839-.326l-.948.948a.492.492,0,0,1-.7,0l-.232-.232.283,6.528a1.967,1.967,0,0,1-1.378,1.961l2.059.089a1.967,1.967,0,0,0,2.051-2.051Z" transform="translate(-355.106 -315.548)" fill="#5fbdf0"/>
        <path id="Trazado_1044124" data-name="Trazado 1044124" d="M461.691,209.46l-5.045-4.626,2.314,3.609a5.09,5.09,0,0,1,0,4.934l-2.314,3.609,5.045-4.626A1.967,1.967,0,0,0,461.691,209.46Z" transform="translate(-403.309 -181.4)" fill="#8b5cc4"/>
      </g>
      <g id="Grupo_1183750" data-name="Grupo 1183750" transform="translate(0 0)">
        <path id="Trazado_1044125" data-name="Trazado 1044125" d="M190.993,199.753a8.76,8.76,0,1,0-8.76-8.76A8.77,8.77,0,0,0,190.993,199.753Zm0-15.739a6.979,6.979,0,1,1-6.979,6.979A6.987,6.987,0,0,1,190.993,184.014Z" transform="translate(-160.593 -160.593)"/>
        <path id="Trazado_1044126" data-name="Trazado 1044126" d="M224.541,226.416a.891.891,0,0,0,.891-.891v-.984a.891.891,0,0,0-1.781,0v.984A.891.891,0,0,0,224.541,226.416Z" transform="translate(-197.091 -197.092)"/>
        <path id="Trazado_1044127" data-name="Trazado 1044127" d="M274.241,226.416a.891.891,0,0,0,.891-.891v-.984a.891.891,0,1,0-1.781,0v.984A.891.891,0,0,0,274.241,226.416Z" transform="translate(-240.889 -197.092)"/>
        <path id="Trazado_1044128" data-name="Trazado 1044128" d="M225.043,259.359a4.055,4.055,0,0,1,4.9,0,.891.891,0,0,0,1.006-1.47,5.788,5.788,0,0,0-6.908,0,.891.891,0,0,0,1.006,1.47Z" transform="translate(-197.09 -226.257)"/>
        <path id="Trazado_1044129" data-name="Trazado 1044129" d="M59.874,28.294l-5.1-4.68a1.383,1.383,0,0,0-2.317,1.019v.942H42.141l-.027-.065,7.292-7.292.666.666a1.382,1.382,0,0,0,2.359-.918l.3-6.918A2.858,2.858,0,0,0,49.752,8.07l-6.918.3a1.382,1.382,0,0,0-.918,2.359l.666.666-7.292,7.292-.065-.027V8.347h.942A1.382,1.382,0,0,0,37.186,6.03l-4.68-5.1a2.858,2.858,0,0,0-4.213,0l-4.68,5.1a1.382,1.382,0,0,0,1.019,2.317h.942V9.922a.891.891,0,1,0,1.781,0V7.948a1.384,1.384,0,0,0-1.383-1.383H25.54L29.607,2.13a1.077,1.077,0,0,1,1.587,0l4.067,4.436h-.434a1.384,1.384,0,0,0-1.383,1.383V18.076a12.713,12.713,0,0,0-6.088,0v-4a.891.891,0,0,0-1.781,0v4.581l-.065.027-7.292-7.292.666-.666a1.382,1.382,0,0,0-.918-2.359l-6.918-.3A2.858,2.858,0,0,0,8.07,11.049l.3,6.918a1.383,1.383,0,0,0,2.359.918l.666-.666,7.292,7.292-.027.065H14.236a.891.891,0,1,0,0,1.781h3.84a12.714,12.714,0,0,0,0,6.088H7.948a1.384,1.384,0,0,0-1.383,1.382v.434L2.13,31.194a1.077,1.077,0,0,1,0-1.587L6.566,25.54v.434a1.384,1.384,0,0,0,1.383,1.383H10.08a.891.891,0,1,0,0-1.781H8.347v-.942A1.383,1.383,0,0,0,6.03,23.614l-5.1,4.68a2.858,2.858,0,0,0,0,4.213l5.1,4.68a1.383,1.383,0,0,0,2.317-1.019v-.942H18.66l.027.065-7.292,7.292-.666-.666a1.382,1.382,0,0,0-2.359.918l-.3,6.918a2.858,2.858,0,0,0,2.856,2.982l.123,0,6.918-.3a1.382,1.382,0,0,0,.918-2.359l-.666-.666,7.292-7.292.065.027V52.454h-.942a1.382,1.382,0,0,0-1.019,2.317l4.68,5.1a2.858,2.858,0,0,0,4.212,0l4.68-5.1a1.382,1.382,0,0,0-1.019-2.317h-.942V42.141l.065-.027,7.292,7.292-.666.666a1.382,1.382,0,0,0,.918,2.359l6.918.3.123,0a2.858,2.858,0,0,0,2.856-2.982l-.3-6.918a1.383,1.383,0,0,0-2.359-.918l-.666.666L42.115,35.29l.027-.065H52.454v.942a1.383,1.383,0,0,0,2.317,1.019l5.1-4.68a2.858,2.858,0,0,0,0-4.213ZM44.124,12.372a1.382,1.382,0,0,0,0-1.955l-.307-.307,6.012-.26a1.076,1.076,0,0,1,1.122,1.122l-.261,6.012-.307-.307a1.384,1.384,0,0,0-1.955,0l-7.164,7.164a12.793,12.793,0,0,0-4.3-4.3ZM41.314,30.4A10.913,10.913,0,1,1,30.4,19.487,10.926,10.926,0,0,1,41.314,30.4ZM12.372,16.677a1.384,1.384,0,0,0-1.955,0l-.307.307-.261-6.012a1.076,1.076,0,0,1,1.122-1.122l6.012.26-.307.307a1.382,1.382,0,0,0,0,1.955l7.164,7.164a12.793,12.793,0,0,0-4.3,4.3Zm4.3,31.752a1.382,1.382,0,0,0,0,1.955l.307.307-6.012.26a1.077,1.077,0,0,1-1.122-1.122l.261-6.012.307.307a1.384,1.384,0,0,0,1.955,0l7.164-7.164a12.793,12.793,0,0,0,4.3,4.3Zm18.15,5.806h.434l-4.067,4.436a1.077,1.077,0,0,1-1.587,0L25.54,54.235h.434a1.384,1.384,0,0,0,1.383-1.383V42.725a12.713,12.713,0,0,0,6.088,0V52.852a1.384,1.384,0,0,0,1.383,1.383Zm13.6-10.111a1.384,1.384,0,0,0,1.955,0l.307-.307.261,6.012a1.077,1.077,0,0,1-1.122,1.122l-6.012-.26.307-.307a1.382,1.382,0,0,0,0-1.955L36.96,41.265a12.793,12.793,0,0,0,4.3-4.3ZM58.67,31.194l-4.435,4.067v-.434a1.384,1.384,0,0,0-1.383-1.383H42.725a12.714,12.714,0,0,0,0-6.088H52.853a1.384,1.384,0,0,0,1.383-1.382V25.54l4.435,4.067a1.077,1.077,0,0,1,0,1.587Z" transform="translate(0 0)"/>
      </g>
    </g>
  </g>
</svg>
