<svg xmlns="http://www.w3.org/2000/svg" xmlns:xlink="http://www.w3.org/1999/xlink" width="110" height="110" viewBox="0 0 110 110">
  <defs>
    <filter id="Trazado_982547" x="0" y="0" width="110" height="110" filterUnits="userSpaceOnUse">
      <feOffset dy="3" input="SourceAlpha"/>
      <feGaussianBlur stdDeviation="3" result="blur"/>
      <feFlood flood-opacity="0.161"/>
      <feComposite operator="in" in2="blur"/>
      <feComposite in="SourceGraphic"/>
    </filter>
  </defs>
  <g id="Grupo_1183761" data-name="Grupo 1183761" transform="translate(-9021 -3143)">
    <g id="Grupo_1181564" data-name="Grupo 1181564" transform="translate(8643.539 199)">
      <g id="Grupo_1177562" data-name="Grupo 1177562" transform="translate(0 -12113)">
        <g id="Grupo_1173147" data-name="Grupo 1173147" transform="translate(386.461 15063)">
          <g id="Grupo_1163801" data-name="Grupo 1163801" transform="translate(0 0)">
            <g id="Grupo_1163014" data-name="Grupo 1163014">
              <g id="Grupo_1157015" data-name="Grupo 1157015" transform="translate(0 0)">
                <g id="Grupo_1155792" data-name="Grupo 1155792" transform="translate(0 0)">
                  <g id="Grupo_1154703" data-name="Grupo 1154703">
                    <g id="Grupo_1150789" data-name="Grupo 1150789">
                      <g id="Grupo_1154212" data-name="Grupo 1154212">
                        <g id="Grupo_1152583" data-name="Grupo 1152583">
                          <g id="Grupo_1146973" data-name="Grupo 1146973" transform="translate(0 0)">
                            <g id="Grupo_1146954" data-name="Grupo 1146954">
                              <g transform="matrix(1, 0, 0, 1, -9, -6)" filter="url(#Trazado_982547)">
                                <g id="Trazado_982547-2" data-name="Trazado 982547" transform="translate(9 6)" fill="#f2f7e5">
                                  <path d="M 46.00000381469727 90.49988555908203 C 39.99188232421875 90.49988555908203 34.16427230834961 89.32352447509766 28.67905807495117 87.00347137451172 C 23.38020324707031 84.76226043701172 18.62103080749512 81.55342864990234 14.53375053405762 77.46615600585938 C 10.44645690917969 73.37887573242188 7.237643718719482 68.61971282958984 4.996417045593262 63.32085800170898 C 2.676363706588745 57.83565902709961 1.500003814697266 52.00806045532227 1.500003814697266 45.99993896484375 C 1.500003814697266 39.99181747436523 2.676363706588745 34.16421890258789 4.996417045593262 28.67901802062988 C 7.237643718719482 23.38017845153809 10.44645690917969 18.62101936340332 14.53375053405762 14.53373908996582 C 18.62103080749512 10.44645881652832 23.38020324707031 7.237632274627686 28.67905807495117 4.996418952941895 C 34.16427230834961 2.676365613937378 39.99188232421875 1.500005602836609 46.00000381469727 1.500005602836609 C 52.00812530517578 1.500005602836609 57.83573532104492 2.676365613937378 63.32094955444336 4.996418952941895 C 68.61980438232422 7.237632274627686 73.37896728515625 10.44645881652832 77.46625518798828 14.53373908996582 C 81.55353546142578 18.62101936340332 84.76236724853516 23.38017845153809 87.00359344482422 28.67901802062988 C 89.32364654541016 34.16421890258789 90.5 39.99181747436523 90.5 45.99993896484375 C 90.5 52.00806045532227 89.32364654541016 57.83565902709961 87.00359344482422 63.32085800170898 C 84.76236724853516 68.61971282958984 81.55353546142578 73.37887573242188 77.46625518798828 77.46615600585938 C 73.37896728515625 81.55342864990234 68.61980438232422 84.76226043701172 63.32094955444336 87.00347137451172 C 57.83573532104492 89.32352447509766 52.00812530517578 90.49988555908203 46.00000381469727 90.49988555908203 Z" stroke="none"/>
                                  <path d="M 46.00000381469727 2.999992370605469 C 40.19371795654297 2.999992370605469 34.56270217895508 4.136497497558594 29.26338958740234 6.377906799316406 C 24.14333343505859 8.543510437011719 19.54441833496094 11.64437866210938 15.59440612792969 15.59439849853516 C 11.64440155029297 19.54439544677734 8.54351806640625 24.14329528808594 6.377914428710938 29.26335144042969 C 4.136505126953125 34.56266784667969 3.000007629394531 40.19366836547852 3.000007629394531 45.99993896484375 C 3.000007629394531 51.80620956420898 4.136505126953125 57.43722534179688 6.377914428710938 62.73654174804688 C 8.54351806640625 67.85658264160156 11.64440155029297 72.45548248291016 15.59440612792969 76.40549468994141 C 19.54441833496094 80.35549926757812 24.14333343505859 83.45636749267578 29.26337432861328 85.62196350097656 C 34.56270217895508 87.86338043212891 40.19371795654297 88.9998779296875 46.00000381469727 88.9998779296875 C 51.80628967285156 88.9998779296875 57.43730545043945 87.86338043212891 62.73663330078125 85.62196350097656 C 67.85667419433594 83.45636749267578 72.45558929443359 80.35549926757812 76.40560150146484 76.40549468994141 C 80.35560607910156 72.45548248291016 83.45648956298828 67.85658264160156 85.62208557128906 62.73654174804688 C 87.86350250244141 57.43722534179688 89 51.80620956420898 89 45.99993896484375 C 89 40.19366836547852 87.86350250244141 34.56266784667969 85.62208557128906 29.26335144042969 C 83.45648956298828 24.14329528808594 80.35560607910156 19.54439544677734 76.40560150146484 15.59439849853516 C 72.45558929443359 11.64437866210938 67.85667419433594 8.543510437011719 62.73661804199219 6.377906799316406 C 57.43730545043945 4.136497497558594 51.80628967285156 2.999992370605469 46.00000381469727 2.999992370605469 M 46.00000381469727 -7.62939453125e-06 C 71.40510559082031 -7.62939453125e-06 92 20.59487915039062 92 45.99993896484375 C 92 71.40501403808594 71.40510559082031 91.99988555908203 46.00000381469727 91.99988555908203 C 20.59490203857422 91.99988555908203 7.62939453125e-06 71.40501403808594 7.62939453125e-06 45.99993896484375 C 7.62939453125e-06 20.59487915039062 20.59490203857422 -7.62939453125e-06 46.00000381469727 -7.62939453125e-06 Z" stroke="none" fill="#86b60c"/>
                                </g>
                              </g>
                            </g>
                          </g>
                        </g>
                      </g>
                    </g>
                  </g>
                </g>
              </g>
            </g>
          </g>
        </g>
      </g>
    </g>
    <g id="calendario" transform="translate(9046.978 3165.978)">
      <g id="Grupo_1183759" data-name="Grupo 1183759" transform="translate(1.904 1.904)">
        <g id="Grupo_1183752" data-name="Grupo 1183752" transform="translate(9.645 0)">
          <path id="Trazado_1044130" data-name="Trazado 1044130" d="M12.67,12.847,15.68,2H53.646a1.813,1.813,0,0,1,1.808,1.808V37.064a12.6,12.6,0,0,0-3.616-3.86V12.847H12.67Z" transform="translate(-12.67 -2)" fill="#e6e9ed"/>
        </g>
        <g id="Grupo_1183753" data-name="Grupo 1183753" transform="translate(0 11.751)">
          <path id="Trazado_1044131" data-name="Trazado 1044131" d="M5.616,15V41.215H31.451a12.581,12.581,0,0,0-.524,3.616H3.808A1.813,1.813,0,0,1,2,43.022V18.616A3.615,3.615,0,0,1,5.616,15Z" transform="translate(-2 -15)" fill="#e6e9ed"/>
        </g>
        <g id="Grupo_1183754" data-name="Grupo 1183754" transform="translate(3.616 10.847)">
          <path id="Trazado_1044132" data-name="Trazado 1044132" d="M6,14H51.2V41.119H6Z" transform="translate(-6 -14)" fill="#ffeaa7"/>
        </g>
        <g id="Grupo_1183755" data-name="Grupo 1183755" transform="translate(14.463 3.616)">
          <path id="Trazado_1044133" data-name="Trazado 1044133" d="M18,6H52.35V9.616H18Z" transform="translate(-18 -6)" fill="#ff826e"/>
        </g>
        <g id="Grupo_1183756" data-name="Grupo 1183756" transform="translate(0 0)">
          <path id="Trazado_1044134" data-name="Trazado 1044134" d="M2,15.559,14.655,2l-3.01,10.847-1.51,5.424h-.9v-.9a3.616,3.616,0,1,0-7.232,0Z" transform="translate(-2 -2)" fill="#b4dd7f"/>
        </g>
        <g id="Grupo_1183757" data-name="Grupo 1183757" transform="translate(28.926 28.926)">
          <path id="Trazado_1044135" data-name="Trazado 1044135" d="M57.5,40.138a12.652,12.652,0,1,1-22.978,2.9h.009a12.255,12.255,0,0,1,1.275-2.9,12.672,12.672,0,0,1,9.04-6.011A13.2,13.2,0,0,1,46.655,34,12.7,12.7,0,0,1,57.5,40.138Z" transform="translate(-34 -34)" fill="#69d6f4"/>
        </g>
        <g id="Grupo_1183758" data-name="Grupo 1183758" transform="translate(39.774 39.774)">
          <path id="Trazado_1044136" data-name="Trazado 1044136" d="M49.082,49.082a1.767,1.767,0,0,1-1.275.533,1.808,1.808,0,1,1,1.808-1.808A1.767,1.767,0,0,1,49.082,49.082Z" transform="translate(-46 -46)" fill="#ff826e"/>
        </g>
      </g>
      <g id="Grupo_1183760" data-name="Grupo 1183760" transform="translate(1 1)">
        <path id="Trazado_1044137" data-name="Trazado 1044137" d="M50.424,47.328a2.708,2.708,0,0,0-1.808-2.546V41H46.808v3.782a2.705,2.705,0,0,0,.9,5.257,2.667,2.667,0,0,0,1.162-.272l2.719,2.719,1.278-1.278-2.719-2.719A2.668,2.668,0,0,0,50.424,47.328Zm-3.616,0a.9.9,0,1,1,.9.9A.9.9,0,0,1,46.808,47.328Z" transform="translate(-5.226 -4.842)"/>
        <circle id="Elipse_13203" data-name="Elipse 13203" cx="0.5" cy="0.5" r="0.5" transform="translate(42 33)"/>
        <path id="Trazado_1044138" data-name="Trazado 1044138" d="M40.265,40.265a.9.9,0,1,0,1.278,0A.9.9,0,0,0,40.265,40.265Z" transform="translate(-4.746 -4.746)"/>
        <circle id="Elipse_13204" data-name="Elipse 13204" cx="0.5" cy="0.5" r="0.5" transform="translate(33 42)"/>
        <path id="Trazado_1044139" data-name="Trazado 1044139" d="M40.265,54.265a.9.9,0,1,0,1.278,0A.9.9,0,0,0,40.265,54.265Z" transform="translate(-4.746 -6.091)"/>
        <circle id="Elipse_13205" data-name="Elipse 13205" cx="0.5" cy="0.5" r="0.5" transform="translate(42 51)"/>
        <path id="Trazado_1044140" data-name="Trazado 1044140" d="M54.265,54.265a.9.9,0,1,0,1.278,0A.9.9,0,0,0,54.265,54.265Z" transform="translate(-6.091 -6.091)"/>
        <circle id="Elipse_13206" data-name="Elipse 13206" cx="0.5" cy="0.5" r="0.5" transform="translate(51 42)"/>
        <path id="Trazado_1044141" data-name="Trazado 1044141" d="M54.265,40.265a.9.9,0,1,0,1.278,0A.9.9,0,0,0,54.265,40.265Z" transform="translate(-6.091 -4.746)"/>
        <path id="Trazado_1044142" data-name="Trazado 1044142" d="M53.158,10.424V5H17v5.424ZM18.808,6.808H51.35V8.616H18.808Z" transform="translate(-2.537 -1.384)"/>
        <path id="Trazado_1044143" data-name="Trazado 1044143" d="M55.237,36.749V3.712A2.715,2.715,0,0,0,52.525,1H14.166L1,15.105V41.678A2.715,2.715,0,0,0,3.712,44.39H29.973a13.55,13.55,0,1,0,25.265-7.64ZM53.429,3.712V34.3a13.662,13.662,0,0,0-1.808-1.634V11.847H12.735l2.511-9.04H52.525A.9.9,0,0,1,53.429,3.712ZM49.813,20.887H42.582V13.655h7.232Zm-9.04,0H33.542V13.655h7.232Zm0,9.04H33.542V22.695h7.232ZM6.424,22.695h7.232v7.232H6.424Zm9.04,0h7.232v7.232H15.463Zm9.04,0h7.232v7.232H24.5Zm7.232-1.808H24.5V13.655h7.232Zm-9.04,0H15.463V13.655h7.232Zm-9.04,0H6.424V14.726a2.708,2.708,0,0,1,1.808,2.546v1.808h2.495l1.507-5.424h1.422Zm-3.88-5.139A4.525,4.525,0,0,0,5.66,12.762L12.7,5.221ZM6.424,31.734h7.232v7.232H6.424Zm9.04,0h7.232v7.232H15.463Zm9.04,0h7.232v5.015a13.454,13.454,0,0,0-1.017,2.216H24.5Zm9.04,0h3.207A13.631,13.631,0,0,0,33.542,34.3Zm9.04-9.04h7.232V31.5a13.468,13.468,0,0,0-6.328-1.576c-.306,0-.6.026-.9.046ZM2.808,41.678V17.271a2.708,2.708,0,0,1,1.808-2.546V40.774H30.2a13.516,13.516,0,0,0-.228,1.808H3.712a.9.9,0,0,1-.9-.9ZM43.486,55.237A11.751,11.751,0,1,1,55.237,43.486,11.765,11.765,0,0,1,43.486,55.237Z" transform="translate(-1 -1)"/>
        <path id="Trazado_1044144" data-name="Trazado 1044144" d="M53.995,27.571l-1.278-1.278L49.74,29.27,48.571,28.1l-1.278,1.278,2.447,2.447Z" transform="translate(-5.446 -3.429)"/>
        <path id="Trazado_1044145" data-name="Trazado 1044145" d="M19.74,21.826l4.255-4.255-1.278-1.278L19.74,19.27,18.571,18.1l-1.278,1.278Z" transform="translate(-2.565 -2.469)"/>
        <path id="Trazado_1044146" data-name="Trazado 1044146" d="M33.995,37.571l-1.278-1.278L29.74,39.27,28.571,38.1l-1.278,1.278,2.447,2.447Z" transform="translate(-3.525 -4.39)"/>
      </g>
    </g>
  </g>
</svg>
