<svg xmlns="http://www.w3.org/2000/svg" xmlns:xlink="http://www.w3.org/1999/xlink" width="295" height="210" viewBox="0 0 295 210">
  <defs>
    <clipPath id="clip-path">
      <rect id="Rectángulo_415690" data-name="Rectángulo 415690" width="295" height="210" transform="translate(1125 492)" fill="#fff" stroke="#707070" stroke-width="1" opacity="0.75"/>
    </clipPath>
  </defs>
  <g id="Enmascarar_grupo_1098827" data-name="Enmascarar grupo 1098827" transform="translate(-1125 -492)" clip-path="url(#clip-path)">
    <g id="Grupo_1183692" data-name="Grupo 1183692" transform="translate(16 2)">
      <g id="Grupo_1183688" data-name="Grupo 1183688" transform="translate(890.156 446.89)">
        <path id="Trazado_1043829" data-name="Trazado 1043829" d="M264.978,204.73s6.276-24.533,25.963-29.812,50-7.755,50-7.755l59.464,3,56.867.048s27.1,3.995,30.813,31.1Z" transform="translate(0 18.121)" fill="#ffb75e"/>
        <path id="Trazado_1043830" data-name="Trazado 1043830" d="M371.142,140.257l1.375,23.361s.25,8.371,7.245,10.244,8.994,1.624,8.994,1.624a30.561,30.561,0,0,1-30.5,14.616c-21.473-2.5-28.968-17.614-28.968-17.614l7.87-.625s5.622-.25,7-5.5,1.124-28.608,1.124-28.608Z" transform="translate(11.648 12.795)" fill="#ffbd8a"/>
        <path id="Trazado_1043831" data-name="Trazado 1043831" d="M330.644,107.244s-13.121,1.675-10.887,12.284,15.215,9.352,15.215,9.352l1.4.046.837,12.237s1.814,12,21.217,13.54,25.126-14.8,25.4-19.263,0-5.444,0-5.444,7.258,4.328,12-2.792,3.21-20.239-10.469-15.633l-.42-33.1-58.3,7.22,8.557,23.534Z" transform="translate(9.874 2.058)" fill="#ffbd8a"/>
        <path id="Trazado_1043832" data-name="Trazado 1043832" d="M329.887,110.155s3.441,1.7,4.537,4.485,1.294,3.885,2.391,1.494-2.291-12.65,3.685-17.531,13.945-4.781,20.419-2.789,13.845,2.59,16.634-.6-2.59-6.475-2.59-6.475,3.487,2.092,4.283.8-.7-1.993-.7-1.993,3.984.8,4.383,2.391-.2,2.988.5,4.582,1.388,1.887,1.388,1.887-3.38,19.864-1.388,21.04,3.21-4.127,7.482-3.965a6.653,6.653,0,0,1,5.793,3.392s.67-3.828-1.62-5.621a9.3,9.3,0,0,0-4.383-1.993s9.96-5.578,9.861-14.144S400.463,74.3,390.2,71.41s-15.24,1.1-15.24,1.1,6.176-4.88,2.191-5.379-11.555,8.567-20.021,8.167S330.239,73.4,323.465,87.247,327.343,109.555,329.887,110.155Z" transform="translate(10.191)" fill="#541e1e"/>
        <path id="Trazado_1043833" data-name="Trazado 1043833" d="M349.238,96.008a4.612,4.612,0,0,0-3.365-1.336c-2.029.106-4.754,2.884-4.754,2.884Z" transform="translate(13.79 4.991)" fill="#541e1e"/>
        <path id="Trazado_1043834" data-name="Trazado 1043834" d="M368.265,98.417s-2.884-4.231-5.769-3.744-1.762,2.676-1.762,2.676Z" transform="translate(17.303 4.985)" fill="#541e1e"/>
        <path id="Trazado_1043835" data-name="Trazado 1043835" d="M346.774,107.9a1.923,1.923,0,1,1-1.923-1.923A1.923,1.923,0,0,1,346.774,107.9Z" transform="translate(14.117 7.04)" fill="#541e1e"/>
        <circle id="Elipse_13186" data-name="Elipse 13186" cx="1.923" cy="1.923" r="1.923" transform="translate(378.944 113.017)" fill="#541e1e"/>
        <path id="Trazado_1043836" data-name="Trazado 1043836" d="M354.576,101.832s4.617,26.042,4.261,26.042-5.445-1.183-5.445-1.183Z" transform="translate(16.013 6.289)" fill="#ff7e5e"/>
        <path id="Trazado_1043837" data-name="Trazado 1043837" d="M348.6,114.114c0,1.474-1.935,2.668-4.32,2.668s-4.32-1.194-4.32-2.668,1.935-2.668,4.32-2.668S348.6,112.64,348.6,114.114Z" transform="translate(13.58 8.03)" fill="#ff7e5e"/>
        <ellipse id="Elipse_13187" data-name="Elipse 13187" cx="4.32" cy="2.668" rx="4.32" ry="2.668" transform="translate(378.469 119.476)" fill="#ff7e5e"/>
        <path id="Trazado_1043838" data-name="Trazado 1043838" d="M336.369,111.17s-.781-9.719-9.887-8.332-9.713,15.7-3.643,19.947,14.137,1.995,14.137,1.995Z" transform="translate(9.758 6.447)" fill="#ff7e5e"/>
        <path id="Trazado_1043839" data-name="Trazado 1043839" d="M373.963,122.1" transform="translate(19.738 9.959)" fill="#ff7e5e"/>
        <path id="Trazado_1043840" data-name="Trazado 1043840" d="M373.963,125.108V109.915s3.86-5.244,8.883-4.344,9,7.572,6.148,14.77S375.725,128.6,373.963,125.108Z" transform="translate(19.738 6.947)" fill="#ff7e5e"/>
        <path id="Trazado_1043841" data-name="Trazado 1043841" d="M345.841,124.864s1.74,4.715,8.274,6.043,10.585-4.117,10.585-4.117-.442,6.237-9.938,6.371C354.762,133.16,345.509,132.567,345.841,124.864Z" transform="translate(14.643 10.46)" fill="#541e1e"/>
        <path id="Trazado_1043842" data-name="Trazado 1043842" d="M342.846,140.732a33.624,33.624,0,0,0,14.348,2.8c7.971-.288,11.554-2.8,11.554-2.8l.559,9.49s-3.893,3.067-12.736,3.067-13.724-4.318-13.724-4.318v-8.239Z" transform="translate(14.102 13.334)" fill="#ff7e5e"/>
        <path id="Trazado_1043843" data-name="Trazado 1043843" d="M329.984,167.162s12.991,16.937,31.473,17.816,27.991-14.818,27.991-14.818l5.083,0S387.8,186.966,362.258,189s-36.781-21.419-36.781-21.419Z" transform="translate(10.957 18.121)" fill="#ff7745"/>
        <g id="Grupo_1183686" data-name="Grupo 1183686" transform="translate(293.457 212.879)">
          <path id="Trazado_1043844" data-name="Trazado 1043844" d="M289.09,200.062s12.57-9.728,21.242-9.533,22.217,11.01,22.606,11.3-1.559,1.657-5.36.488-10.134-3.216-10.134-3.216,6.041,29.038,5.554,29.427S319,226.486,319,226.486a23.559,23.559,0,0,1-11.985-3.995C301.563,218.591,289.285,203.652,289.09,200.062Z" transform="translate(-289.09 -190.527)" fill="#ffbd8a"/>
          <line id="Línea_1028" data-name="Línea 1028" x1="8.564" y1="17.426" transform="translate(21.351 18.532)" fill="none" stroke="#ff7e5e" stroke-miterlimit="10" stroke-width="1"/>
          <path id="Trazado_1043845" data-name="Trazado 1043845" d="M312.4,222.612s-10.287-13.753-10.514-14.092" transform="translate(-286.772 -187.268)" fill="none" stroke="#ff7e5e" stroke-miterlimit="10" stroke-width="1"/>
        </g>
        <g id="Grupo_1183687" data-name="Grupo 1183687" transform="translate(430.757 210.176)">
          <path id="Trazado_1043846" data-name="Trazado 1043846" d="M449.235,197.774s-12.57-9.728-21.242-9.533-22.217,11.011-22.606,11.3,1.559,1.656,5.359.487,10.134-3.215,10.134-3.215-6.041,29.037-5.554,29.427,3.995-2.046,3.995-2.046a23.565,23.565,0,0,0,11.985-4C436.763,216.3,449.04,201.362,449.235,197.774Z" transform="translate(-405.337 -188.239)" fill="#ffbd8a"/>
          <line id="Línea_1029" data-name="Línea 1029" y1="17.426" x2="8.564" transform="translate(13.983 18.532)" fill="none" stroke="#ff7e5e" stroke-miterlimit="10" stroke-width="1"/>
          <path id="Trazado_1043847" data-name="Trazado 1043847" d="M420.8,220.324s10.287-13.752,10.514-14.092" transform="translate(-402.537 -184.98)" fill="none" stroke="#ff7e5e" stroke-miterlimit="10" stroke-width="1"/>
        </g>
      </g>
      <path id="Trazado_1043886" data-name="Trazado 1043886" d="M591.047,60.74a17.943,17.943,0,0,0-.7-4.909l4.441-2.564-4.416-7.648-4.444,2.566a18.02,18.02,0,0,0-8.5-4.906V38.146H568.6v5.133a18.014,18.014,0,0,0-8.5,4.906l-4.444-2.566-4.415,7.648,4.44,2.564a17.632,17.632,0,0,0,0,9.818l-4.44,2.564,4.415,7.648L560.1,73.3a18.017,18.017,0,0,0,8.5,4.906v5.133h8.832V78.2a18.014,18.014,0,0,0,8.5-4.906l4.444,2.566,4.416-7.648L590.35,65.65A17.952,17.952,0,0,0,591.047,60.74Zm-18.032,9.2a9.2,9.2,0,1,1,9.2-9.2A9.209,9.209,0,0,1,573.015,69.94Z" transform="translate(589.892 526.118)" fill="#ff9d1c"/>
      <path id="Trazado_1043887" data-name="Trazado 1043887" d="M644.739,90.844a12.874,12.874,0,0,0,.832-3.462l3.644-.538-.927-6.275-3.646.539a12.937,12.937,0,0,0-4.38-5.523l1.357-3.428-5.9-2.335-1.357,3.428a12.933,12.933,0,0,0-6.973,1.029L625.1,71.391l-4.971,3.94,2.288,2.886a12.668,12.668,0,0,0-2.6,6.557l-3.643.538.927,6.275,3.646-.538a12.945,12.945,0,0,0,4.379,5.523L623.775,100l5.9,2.335,1.357-3.428A12.937,12.937,0,0,0,638,97.878l2.289,2.888,4.971-3.94-2.288-2.886A12.961,12.961,0,0,0,644.739,90.844Zm-14.474,1.377a6.607,6.607,0,1,1,8.576-3.711A6.614,6.614,0,0,1,630.265,92.221Z" transform="translate(572.56 517.664)" fill="#8b550e"/>
    </g>
  </g>
</svg>
