<svg xmlns="http://www.w3.org/2000/svg" xmlns:xlink="http://www.w3.org/1999/xlink" width="179" height="215.328" viewBox="0 0 179 215.328">
  <defs>
    <filter id="Rect치ngulo_415531" x="0" y="0" width="179" height="215.328" filterUnits="userSpaceOnUse">
      <feOffset dy="3" input="SourceAlpha"/>
      <feGaussianBlur stdDeviation="10" result="blur"/>
      <feFlood flood-color="#0f1f33" flood-opacity="0.235"/>
      <feComposite operator="in" in2="blur"/>
      <feComposite in="SourceGraphic"/>
    </filter>
    <filter id="Trazado_1043990" x="67.603" y="33.414" width="43.788" height="43.788" filterUnits="userSpaceOnUse">
      <feOffset dy="3" input="SourceAlpha"/>
      <feGaussianBlur stdDeviation="3" result="blur-2"/>
      <feFlood flood-opacity="0.161"/>
      <feComposite operator="in" in2="blur-2"/>
      <feComposite in="SourceGraphic"/>
    </filter>
  </defs>
  <g id="Grupo_1183740" data-name="Grupo 1183740" transform="translate(-780 -726)">
    <g transform="matrix(1, 0, 0, 1, 780, 726)" filter="url(#Rect치ngulo_415531)">
      <g id="Rect치ngulo_415531-2" data-name="Rect치ngulo 415531" transform="translate(30 27)" fill="#e9f9fd" stroke="#1d7083" stroke-width="2">
        <rect width="119" height="155.328" rx="10" stroke="none"/>
        <rect x="1" y="1" width="117" height="153.328" rx="9" fill="none"/>
      </g>
    </g>
    <g id="hombre" transform="translate(693.632 765.415)">
      <path id="Trazado_1043988" data-name="Trazado 1043988" d="M193.854,123.191H163.125a10.449,10.449,0,0,0-10.436,10.436v37.912a3.676,3.676,0,0,0,7.352,0V140.491a2.042,2.042,0,0,1,4.084,0v74.3a6.161,6.161,0,0,0,12.315,0V172.355a2.042,2.042,0,1,1,4.084,0v42.431a6.161,6.161,0,0,0,12.315,0v-74.3a2.042,2.042,0,0,1,4.084,0v31.048a3.676,3.676,0,1,0,7.352,0v-37.91a10.448,10.448,0,0,0-10.421-10.438Z" transform="translate(-2.624 -91.366)" fill="#103d47"/>
      <path id="Trazado_1043989" data-name="Trazado 1043989" d="M184.067,219.231a7.086,7.086,0,0,1-7.078-7.078V169.722a1.124,1.124,0,0,0-2.248,0v42.431a7.078,7.078,0,0,1-14.153,0v-74.3a1.123,1.123,0,1,0-2.246,0v31.048a4.6,4.6,0,0,1-9.19,0V131a11.369,11.369,0,0,1,11.356-11.356H191.23A11.369,11.369,0,0,1,202.585,131v37.91a4.6,4.6,0,1,1-9.19,0V137.857a1.123,1.123,0,1,0-2.246,0v74.3a7.087,7.087,0,0,1-7.082,7.078Zm-8.2-52.471a2.965,2.965,0,0,1,2.961,2.961v42.431a5.24,5.24,0,0,0,10.477,0v-74.3a2.961,2.961,0,1,1,5.922,0v31.048a2.757,2.757,0,1,0,5.514,0V131a9.529,9.529,0,0,0-9.517-9.517H160.5A9.529,9.529,0,0,0,150.984,131v37.91a2.757,2.757,0,1,0,5.514,0V137.857a2.961,2.961,0,1,1,5.922,0v74.3a5.24,5.24,0,0,0,10.477,0V169.722a2.964,2.964,0,0,1,2.968-2.961Z" transform="translate(0 -88.732)" fill="#103d47"/>
      <circle id="Elipse_13200" data-name="Elipse 13200" cx="11.975" cy="11.975" r="11.975" transform="translate(163.891 0.916)" fill="#103d47"/>
      <g transform="matrix(1, 0, 0, 1, 86.37, -39.42)" filter="url(#Trazado_1043990)">
        <path id="Trazado_1043990-2" data-name="Trazado 1043990" d="M215.541,25.787a12.894,12.894,0,1,1,12.894-12.9A12.894,12.894,0,0,1,215.541,25.787Zm0-23.951A11.056,11.056,0,1,0,226.6,12.891,11.056,11.056,0,0,0,215.541,1.836Z" transform="translate(-126.04 39.42)" fill="#103d47"/>
      </g>
    </g>
  </g>
</svg>
