<svg xmlns="http://www.w3.org/2000/svg" xmlns:xlink="http://www.w3.org/1999/xlink" width="294" height="251" viewBox="0 0 294 251">
  <defs>
    <clipPath id="clip-path">
      <rect id="Rectángulo_414858" data-name="Rectángulo 414858" width="294" height="208" rx="10" transform="translate(181 957)" fill="#273603"/>
    </clipPath>
    <clipPath id="clip-path-2">
      <rect id="Rectángulo_414859" data-name="Rectángulo 414859" width="260" height="251" transform="translate(0.847 0.172)" fill="#fff" stroke="#707070" stroke-width="1" opacity="0.56"/>
    </clipPath>
  </defs>
  <g id="Grupo_1181493" data-name="Grupo 1181493" transform="translate(-181 -914)">
    <g id="Enmascarar_grupo_1098819" data-name="Enmascarar grupo 1098819" clip-path="url(#clip-path)">
      <g id="Grupo_1181492" data-name="Grupo 1181492">
        <rect id="Rectángulo_414858-2" data-name="Rectángulo 414858" width="294" height="206" rx="10" transform="translate(181 959)" fill="#86b60c"/>
        <g id="Elipse_13083" data-name="Elipse 13083" transform="translate(417 1101)" fill="none" stroke="#e6f0cd" stroke-width="10" opacity="0.78">
          <ellipse cx="44.5" cy="41" rx="44.5" ry="41" stroke="none"/>
          <ellipse cx="44.5" cy="41" rx="39.5" ry="36" fill="none"/>
        </g>
        <g id="Elipse_13084" data-name="Elipse 13084" transform="translate(217 984)" fill="none" stroke="#e6f0cd" stroke-width="8" opacity="0.78">
          <ellipse cx="28" cy="25.5" rx="28" ry="25.5" stroke="none"/>
          <ellipse cx="28" cy="25.5" rx="24" ry="21.5" fill="none"/>
        </g>
        <g id="Elipse_13085" data-name="Elipse 13085" transform="translate(421 944)" fill="none" stroke="#e6f0cd" stroke-width="8" opacity="0.78">
          <ellipse cx="22" cy="20.5" rx="22" ry="20.5" stroke="none"/>
          <ellipse cx="22" cy="20.5" rx="18" ry="16.5" fill="none"/>
        </g>
        <g id="Elipse_13086" data-name="Elipse 13086" transform="translate(208 1065)" fill="none" stroke="#e6f0cd" stroke-width="8" opacity="0.78">
          <ellipse cx="15" cy="14" rx="15" ry="14" stroke="none"/>
          <ellipse cx="15" cy="14" rx="11" ry="10" fill="none"/>
        </g>
        <g id="Elipse_13087" data-name="Elipse 13087" transform="translate(265 1096)" fill="none" stroke="#e6f0cd" stroke-width="8" opacity="0.78">
          <ellipse cx="28" cy="25.5" rx="28" ry="25.5" stroke="none"/>
          <ellipse cx="28" cy="25.5" rx="24" ry="21.5" fill="none"/>
        </g>
        <g id="Elipse_13088" data-name="Elipse 13088" transform="translate(152 1125)" fill="none" stroke="#e6f0cd" stroke-width="8" opacity="0.78">
          <ellipse cx="28" cy="25.5" rx="28" ry="25.5" stroke="none"/>
          <ellipse cx="28" cy="25.5" rx="24" ry="21.5" fill="none"/>
        </g>
      </g>
    </g>
    <g id="Enmascarar_grupo_1098797" data-name="Enmascarar grupo 1098797" transform="translate(197.153 913.828)" clip-path="url(#clip-path-2)">
      <g id="_16308819_60c822c622ab9023d35eb71c" data-name="16308819_60c822c622ab9023d35eb71c" transform="translate(11.901 3.758)">
        <path id="Trazado_1032831" data-name="Trazado 1032831" d="M616.121,800.079c6.959,5.426,10.833,14.232,11.334,23.043a36.725,36.725,0,0,1-1.462,12.819c-.133.431-.655,2.081-1.317,4.084a.738.738,0,0,0-.22.1,30.224,30.224,0,0,1-6.058-1.656l-.684-.241c.374-.936.7-1.847.989-2.719A47.508,47.508,0,0,0,616.121,800.079Z" transform="translate(-423.947 -675.132)" fill="none"/>
        <path id="Trazado_1032832" data-name="Trazado 1032832" d="M1057.183,381.754a26.958,26.958,0,0,0,1.172,10.124,25.1,25.1,0,0,0,1.888,4.406,1.52,1.52,0,0,0-.856,2l-2.235,2.9a65.3,65.3,0,0,1-3.639-19.579A3.008,3.008,0,0,0,1057.183,381.754Z" transform="translate(-942.221 -338.505)" fill="#dd5313"/>
        <path id="Trazado_1032833" data-name="Trazado 1032833" d="M608.589,326.351c-.062-.039-.117-.085-.183-.12a.742.742,0,0,0-.552-.07c.662-2,1.184-3.652,1.317-4.084a36.732,36.732,0,0,0,1.462-12.819c-.5-8.811-4.375-17.617-11.334-23.043a47.507,47.507,0,0,1,2.582,35.426c-.284.872-.615,1.782-.989,2.718-4.536-1.6-7.972-2.795-12.227.5q-.635.492-1.221,1.033c-2.97,2.73-5.089,6.324-7.1,9.775a40.106,40.106,0,0,0-2.029,4.631l-28.779,3.261a.881.881,0,0,0-.127-.2c1.26-1.779,2.461-3.6,3.556-5.486.3-.509.671-1.088,1.06-1.7a4.571,4.571,0,0,0,3.562-.826,7.3,7.3,0,0,0,1.518-2.482l2.926-6.645c6.1-13.85,13.389-29.12,7.953-44.345a59.407,59.407,0,0,0-9.181-15.921,19.083,19.083,0,0,1-1.764-2.569l-.169.124c-.6-1.78-2.676-4.24-5.146-6.7-5.3-6.024-13.1-10.4-17.066-12.387l3.623-12.025a1.7,1.7,0,0,0,.838-1.367c7.09,1.21,14.029-1.682,19.422-6.7.263,1.33,1.283,2.328,3.45,2.589a6.932,6.932,0,0,0,4.849-1.522,11.857,11.857,0,0,0,3.876-5.344,22.568,22.568,0,0,1-1.727,10.095c2.3.031,4.348-1.267,6.178-2.706-.61,1.87-1.3,3.713-2.092,5.518-.4.922.955,1.723,1.361.8a65.1,65.1,0,0,0,2.921-8.136,24.976,24.976,0,0,0,4.433-4.825c3.576-5.342,3.5-11.828,3.466-17.967a29.214,29.214,0,0,0-6.118-17.283c-9.329-12.257-24.828-15.77-39.54-15.65-3.573.03-2.918,2.1-2.5,4.932a31.556,31.556,0,0,0,.783,3.7c-.439.168-.873.349-1.3.553-.4-1.793-2.676-3.675-3.886-4.525a2.483,2.483,0,0,0-1.807-.6,2.631,2.631,0,0,0-1.342.929,32.355,32.355,0,0,0-6.818,11.516,21.023,21.023,0,0,0-.99,4.452,3.76,3.76,0,0,0-3.106-.6,4.323,4.323,0,0,0-1.166.54c0-.024.008-.049.013-.073.51-2.6.532-5.33,1.184-7.849,1.28-4.945,6.007-9.033,11.2-9.047a1.8,1.8,0,0,0,1.062-.206,1.878,1.878,0,0,0,.547-1.265c.569-3.066,2.924-5.563,5.654-7.071a31.885,31.885,0,0,1,8.881-2.83c9.288-1.985,18.271-1.739,26.814,2.739a43.646,43.646,0,0,1,18.076,18.115c5.152,9.719,6.471,20.591,5.724,31.433-.445,6.456-2.357,12.708-2.719,19.176-.336,6.016.266,9.542,3.636,14.817,4.91,7.688,10.743,14.74,16.016,22.184s10.042,15.412,12.461,24.207,2.3,18.561-1.872,26.673c-.148.288-.314.566-.473.848-4.869,1.208-9.687,2.7-14.591,3.571A10.735,10.735,0,0,1,608.589,326.351ZM576.6,282.519c-2.3-17.019-14.767-31.349-14.663-48.837a.789.789,0,0,0-1.576,0,45.465,45.465,0,0,0,2.231,13.739c4.845,15.594,16.778,31.6,11.544,48.646-.3.973,1.223,1.386,1.52.419A32.52,32.52,0,0,0,576.6,282.519Zm6.531-10.665a56.935,56.935,0,0,1,10.149,46.752c-.227.989,1.293,1.408,1.52.419A57.21,57.21,0,0,0,596.24,307.9,58.454,58.454,0,0,0,584.5,271.058C583.89,270.26,582.521,271.047,583.136,271.854Zm9.961-73.811a36.349,36.349,0,0,0-4.205-15.123,47.889,47.889,0,0,0-11.252-13c-.77-.653-1.889.457-1.115,1.115,4.99,4.237,9.6,9.141,12.254,15.205,4.351,9.931,2.841,21.177,1.558,31.589-1.3,10.518-2.715,21.566,1.18,31.726.36.939,1.884.529,1.52-.419-2.235-5.829-2.7-12.048-2.41-18.238C591.14,219.933,593.871,209.056,593.1,198.043Zm5.918,86.04a111.684,111.684,0,0,1-15.273-38.461c-.194-1-1.712-.572-1.52.419a112.9,112.9,0,0,0,15.431,38.837C598.2,285.734,599.56,284.942,599.015,284.083Zm23.823,31.479c-.406.921.953,1.722,1.361.8,3.012-6.835.729-14.571-1.755-21.206a75.5,75.5,0,0,0-10.737-19.387c-.609-.8-1.977-.01-1.361.8a74.327,74.327,0,0,1,10.277,18.218C623.078,301.109,625.749,308.955,622.837,315.562Z" transform="translate(-407.125 -161.268)" fill="#dd5313"/>
        <path id="Trazado_1032834" data-name="Trazado 1032834" d="M818.715,414.264a5.025,5.025,0,0,0-4.647-1.076c.507-1.065,1.031-2.141,1.63-3.221q.37-.668.734-1.346a20.222,20.222,0,0,1,1.505,3.158A24.22,24.22,0,0,1,818.715,414.264Z" transform="translate(-653.859 -360.24)" fill="#dd5313"/>
        <path id="Trazado_1032835" data-name="Trazado 1032835" d="M708.168,1113.37q-.04-8.593-.08-17.185a36.927,36.927,0,0,0,11.678-4.441c3.2-1.911,6.889-2.87,10.062-4.844a16.2,16.2,0,0,0,1.582-1.115,24.144,24.144,0,0,0,4.031-4.342c.372-.206.749-.4,1.117-.615a.722.722,0,0,0,.295-.976l28.779-3.261a11.836,11.836,0,0,0-.663,2.239c-.131,1.22,1.441-.826,1.848.331a36.581,36.581,0,0,0,3.033,6.512c1.8,3.04,2.4,5.694,3.366,9.023.692,2.394.878,5.042,1.658,7.379.73,2.186,2.839,2.532,4.823,2.466.115,0,.228,0,.342-.008-.961.234-1.969.423-2.869.689q-6.644,1.966-13.352,3.708-18.273,4.744-36.929,7.8-8.663,1.419-17.385,2.454a36.323,36.323,0,0,0-1.48-5.38A.713.713,0,0,0,708.168,1113.37Z" transform="translate(-594.443 -897.559)" fill="#f39776"/>
        <path id="Trazado_1032836" data-name="Trazado 1032836" d="M475.819,1022.316a10.9,10.9,0,0,1-3.138-.678,5.027,5.027,0,0,1-2.163-1.33c-1.217-1.489.922-3.4,2.081-4.146a.737.737,0,0,0,.352-.64c.351.066.707.114,1.056.148a54.591,54.591,0,0,0,13.217-.435c1-.15.574-1.669-.419-1.521a54.188,54.188,0,0,1-10.259.544,11.688,11.688,0,0,1-4.4-.586c-1.509-.723-1.389-2.76-.476-3.918a.829.829,0,0,0,.117-.23c2.027.455,4.618-.489,6.4-.947q5.668-1.452,11.237-3.255c.963-.311.549-1.833-.419-1.52q-6.04,1.949-12.2,3.5c-1.506.377-4.155,1.467-5.537.281a4.073,4.073,0,0,1-.993-2.456,1.682,1.682,0,0,1,.262-1.606,6.594,6.594,0,0,1,1.055-.81c5.472-3.959,12.185-5.708,18.577-7.563a.789.789,0,0,0-.419-1.52c-3.258.945-6.527,1.86-9.709,3.042a40.6,40.6,0,0,0-8.464,4.138,8.977,8.977,0,0,0-2.524,2.052,9.977,9.977,0,0,0-.693-5.492,16.618,16.618,0,0,0-3.984-5.087,20.4,20.4,0,0,0,10.341-1.472,6.057,6.057,0,0,0,3.535-3.491,3.036,3.036,0,0,0-1.289-3.589,10.692,10.692,0,0,0,2.485-.134c4.9-.873,9.722-2.363,14.591-3.571,1.649-.409,3.3-.786,4.97-1.1a13.01,13.01,0,0,1,6.168-.1c1.986.611,3.749,2.457,3.559,4.526-.222,2.405-2.731,3.827-4.941,4.8q-3.284,1.445-6.609,2.794c-1.176.477-5.687,1.457-6.238,2.554-.6,1.192.877,3.113,1.062,4.393.376,2.61-1.269,4.419-1.586,6.867-.251,1.937.844,4.007.057,5.795-.483,1.1-1.591,1.831-2.05,2.939s-.187,2.417-.535,3.576c-.5,1.656-2.129,2.671-3.674,3.448a47.986,47.986,0,0,1-7.827,3.1.777.777,0,0,0-.582-1.3Z" transform="translate(-275.504 -818.646)" fill="#f39776"/>
        <path id="Trazado_1032837" data-name="Trazado 1032837" d="M637.517,1029.964c-.78-2.337-.966-4.985-1.658-7.378-.963-3.329-1.567-5.983-3.366-9.023a36.6,36.6,0,0,1-3.034-6.513c-.406-1.157-1.979.889-1.848-.331a11.844,11.844,0,0,1,.664-2.24,40.086,40.086,0,0,1,2.029-4.631c2.011-3.451,4.129-7.045,7.1-9.775q.587-.54,1.221-1.033c4.255-3.3,7.691-2.105,12.227-.5l.684.241a30.218,30.218,0,0,0,6.059,1.656.76.76,0,0,0-.024,1.335c1.078.585,1.016,1.692.4,2.633a6.514,6.514,0,0,1-3.586,2.258,19.694,19.694,0,0,1-9.675.662.8.8,0,0,0-.979.906.685.685,0,0,0,.063.99,19.482,19.482,0,0,1,4.57,5.28,9.151,9.151,0,0,1,.229,7.045,12.952,12.952,0,0,1-8.8,8.321.789.789,0,0,0,.419,1.52,14.585,14.585,0,0,0,9.9-9.422c.029-.087.05-.177.077-.265a7.077,7.077,0,0,0,1.028,3.18,3.4,3.4,0,0,0,.75.808,4.528,4.528,0,0,0-.537,4.681,3.352,3.352,0,0,0,1.592,1.483c-1.814,1.3-3.848,3.769-2.357,5.958a5.965,5.965,0,0,0,2.8,2,12.2,12.2,0,0,0,3.662.858,48.686,48.686,0,0,1-6.626,1.37,74.582,74.582,0,0,1-7.814.384c-.114,0-.228,0-.342.008C640.356,1032.495,638.247,1032.149,637.517,1029.964Z" transform="translate(-457.085 -825.447)" fill="#f39776"/>
        <path id="Trazado_1032838" data-name="Trazado 1032838" d="M634.14,1004.274c.066.036.121.081.183.12a3.036,3.036,0,0,1,1.289,3.589,6.055,6.055,0,0,1-3.535,3.491,20.4,20.4,0,0,1-10.341,1.472c-.35-.33-.7-.656-1.056-.977a.79.79,0,0,0-1.178.125.8.8,0,0,1,.979-.906,19.693,19.693,0,0,0,9.675-.662,6.514,6.514,0,0,0,3.586-2.258c.617-.941.679-2.048-.4-2.633a.76.76,0,0,1,.024-1.335.754.754,0,0,1,.772-.026Z" transform="translate(-432.859 -839.312)" fill="#d46566"/>
        <path id="Trazado_1032839" data-name="Trazado 1032839" d="M672.442,1043.137c.352.321.705.646,1.055.977a16.616,16.616,0,0,1,3.984,5.087,9.976,9.976,0,0,1,.693,5.492,2.477,2.477,0,0,0-.4.944,4.359,4.359,0,0,0-.047,1.093c-.027.088-.048.177-.077.265a14.586,14.586,0,0,1-9.9,9.422.789.789,0,0,1-.419-1.521,12.951,12.951,0,0,0,8.8-8.321,9.151,9.151,0,0,0-.229-7.045,19.487,19.487,0,0,0-4.57-5.279.685.685,0,0,1-.063-.99A.788.788,0,0,1,672.442,1043.137Z" transform="translate(-484.62 -870.479)" fill="#d46566"/>
        <path id="Trazado_1032840" data-name="Trazado 1032840" d="M556.605,1065.924a2.473,2.473,0,0,1,.4-.944,8.978,8.978,0,0,1,2.524-2.053A40.607,40.607,0,0,1,568,1058.79c3.182-1.182,6.452-2.1,9.709-3.042a.789.789,0,0,1,.419,1.52c-6.392,1.855-13.1,3.6-18.577,7.563a6.574,6.574,0,0,0-1.055.81,1.681,1.681,0,0,0-.263,1.605,4.074,4.074,0,0,0,.993,2.456c1.381,1.186,4.031.1,5.537-.281q6.157-1.542,12.2-3.5c.968-.312,1.382,1.209.419,1.521q-5.568,1.8-11.237,3.255c-1.786.458-4.376,1.4-6.4.947.287-.754-.663-1.607-1.232-.885-.062.078-.114.164-.171.245a3.387,3.387,0,0,1-.75-.807,7.075,7.075,0,0,1-1.028-3.18A4.355,4.355,0,0,1,556.605,1065.924Z" transform="translate(-363.455 -880.765)" fill="#d46566"/>
        <path id="Trazado_1032841" data-name="Trazado 1032841" d="M573.914,1132.4a.827.827,0,0,1-.117.23c-.914,1.159-1.034,3.2.476,3.918a11.678,11.678,0,0,0,4.4.586,54.167,54.167,0,0,0,10.259-.544c.992-.148,1.42,1.371.419,1.52a54.573,54.573,0,0,1-13.218.435c-.35-.033-.705-.082-1.056-.147a.758.758,0,0,0-1.148-.722c-.12.077-.241.16-.364.248a3.35,3.35,0,0,1-1.592-1.484,4.528,4.528,0,0,1,.537-4.68c.058-.082.11-.168.171-.246C573.251,1130.793,574.2,1131.645,573.914,1132.4Z" transform="translate(-377.63 -941.52)" fill="#d46566"/>
        <path id="Trazado_1032842" data-name="Trazado 1032842" d="M629.261,1169.817c-1.49-2.19.543-4.657,2.357-5.958.123-.088.244-.171.364-.248a.758.758,0,0,1,1.148.722.737.737,0,0,1-.352.64c-1.16.747-3.3,2.657-2.081,4.146a5.026,5.026,0,0,0,2.163,1.33,10.891,10.891,0,0,0,3.138.678.776.776,0,0,1,.581,1.3.714.714,0,0,1-.581.273c-.093-.006-.186-.021-.279-.028a12.188,12.188,0,0,1-3.662-.858A5.971,5.971,0,0,1,629.261,1169.817Z" transform="translate(-435.682 -967.455)" fill="#d46566"/>
        <path id="Trazado_1032843" data-name="Trazado 1032843" d="M905.868,1044.943c0-.035,0-.071,0-.106h0c.082-6.609.227-11.881.454-12.328.667-1.309,11.241-.7,18.892-5.205a51.806,51.806,0,0,0,6.1,3.054c1.724.711,5.266,2.216,8.165,2.465-.389.609-.765,1.188-1.061,1.7-1.095,1.886-2.3,3.707-3.555,5.486a.725.725,0,0,0-.964-.187,72.893,72.893,0,0,1-21.019,8.089c-.993.215-.57,1.734.419,1.52a74.285,74.285,0,0,0,20.279-7.633,24.166,24.166,0,0,1-4.031,4.342,16.341,16.341,0,0,1-1.582,1.115c-3.173,1.974-6.859,2.933-10.062,4.844a36.919,36.919,0,0,1-11.679,4.441q-.025-5.5-.051-10.991A.714.714,0,0,0,905.868,1044.943Z" transform="translate(-792.581 -857.912)" fill="#f39776"/>
        <path id="Trazado_1032844" data-name="Trazado 1032844" d="M929.393,1100.454c-.989.214-1.412-1.306-.419-1.52a72.905,72.905,0,0,0,21.019-8.089.725.725,0,0,1,.964.186.9.9,0,0,1,.127.2.722.722,0,0,1-.295.976c-.369.212-.745.409-1.117.615A74.211,74.211,0,0,1,929.393,1100.454Z" transform="translate(-808.674 -908.938)" fill="#d46566"/>
        <path id="Trazado_1032845" data-name="Trazado 1032845" d="M1656.912,958.042c0,.053,0,.106,0,.16C1656.91,958.149,1656.912,958.1,1656.912,958.042Z" transform="translate(-1656.91 -802.198)" fill="#f39776"/>
        <path id="Trazado_1032846" data-name="Trazado 1032846" d="M1480.961,718.958c-1.308,2.772-2.555,5.547-3.752,8.306-4.145-1.782-9.06-1.774-13.512-1.7-4.479.07-9.591-2.707-14.028-1.323a4.849,4.849,0,0,0-3.141,2.961c3.847-13.864,22.172-41.361,26.978-48.849.4-.627.82-1.3,1.249-2,2.172,10.665,5.937,21.225,12.2,30.051Q1483.988,712.549,1480.961,718.958Z" transform="translate(-1445.81 -575.602)" fill="#f39776"/>
        <path id="Trazado_1032847" data-name="Trazado 1032847" d="M1497.1,922.549a4.849,4.849,0,0,1,3.141-2.961c4.437-1.384,9.549,1.393,14.028,1.323,4.452-.07,9.366-.078,13.512,1.7-1.693,3.9-3.274,7.761-4.741,11.519-.412-.174-.823-.35-1.238-.517q-1.91-.769-3.859-1.433a76.441,76.441,0,0,0-8.072-2.254c-.99-.22-1.41,1.3-.419,1.52a76.36,76.36,0,0,1,8.649,2.453q2.087.73,4.129,1.581c.08.033.161.072.243.109q-.643,1.667-1.256,3.3a71.174,71.174,0,0,0,6.244,4.507,71.132,71.132,0,0,1-6.245-4.507c-5.885,15.714-9.629,28.911-11.041,34.154a12.736,12.736,0,0,0-.9,1.483,153.553,153.553,0,0,1,11.681-35.059c.433-.913-.927-1.712-1.361-.8a155.231,155.231,0,0,0-11.911,35.763.832.832,0,0,0,1.2.889c-.433.96-.843,1.966-1.237,3.006a165.931,165.931,0,0,1-11.087-47.706c-.091-1.134-.182-2.405-.173-3.675,0-.053,0-.107,0-.16A11.816,11.816,0,0,1,1497.1,922.549Z" transform="translate(-1496.382 -770.954)" fill="#f39776"/>
        <path id="Trazado_1032848" data-name="Trazado 1032848" d="M1533.968,979.518q-2.04-.853-4.129-1.581a76.263,76.263,0,0,0-8.649-2.453c-.99-.22-.571-1.74.419-1.52a76.467,76.467,0,0,1,8.073,2.254q1.948.663,3.858,1.433c.415.167.826.343,1.238.517-.19.487-.382.976-.568,1.459C1534.13,979.59,1534.048,979.551,1533.968,979.518Z" transform="translate(-1508.121 -814.988)" fill="#d46566"/>
        <path id="Trazado_1032849" data-name="Trazado 1032849" d="M1277.48,579.472c-6.268-8.826-10.032-19.386-12.2-30.051-.182-.894-.356-1.788-.517-2.683,1.821-3.118,3.712-6.2,5.806-9.139,5.32-7.479,12.135-14.06,21.1-16.8a59.4,59.4,0,0,1,18.255-2.129,19.046,19.046,0,0,0,3.115-.117c0,.02,0,.04,0,.06a10.082,10.082,0,0,0-3.059.506C1307.607,520.151,1293.374,546.581,1277.48,579.472Zm-.35-1.042a.714.714,0,0,0,.951-.524,56.543,56.543,0,0,1,4.354-9.731c1.62-3.152,3.282-6.31,5.17-9.312.542-.862-.823-1.652-1.361-.8-1.933,3.074-3.632,6.309-5.286,9.539l-.062.12a142,142,0,0,1,7.15-18.212c.434-.912-.926-1.711-1.361-.8a144.532,144.532,0,0,0-10.124,28.768A.731.731,0,0,0,1277.13,578.431Z" transform="translate(-1236.33 -448.675)" fill="#fff8dc"/>
        <path id="Trazado_1032850" data-name="Trazado 1032850" d="M1025.464,1317.461a69.5,69.5,0,0,0,6.613-2.487,154.316,154.316,0,0,0,14.7-7.165c3.831-2.123,7.876-4.364,11.062-7.416.734-.7-.382-1.817-1.115-1.115a37.246,37.246,0,0,1-6.307,4.584c-2.816,1.739-5.723,3.329-8.666,4.839-3.813,1.956-7.725,3.885-11.742,5.478.664-.481,1.329-.959,1.99-1.445a10.854,10.854,0,0,0,4.036-5.407,174.317,174.317,0,0,0,7.377-27.791q.65-3.489,1.163-7c.075-.515.237-1.169.335-1.825,15.773-1.587,26.062-5.383,29.18-6.663,0,.038,0,.077,0,.115a.793.793,0,0,0,1.434.436,36.354,36.354,0,0,1,1.48,5.38c6,28.4,8.608,123.8,8.608,123.8-17.437,12.076-58.077,3.381-58.077,3.381l-2.9-79.147a.7.7,0,0,0,.212-.1C1025.052,1317.756,1025.259,1317.608,1025.464,1317.461Z" transform="translate(-961.942 -1048.351)" fill="#1d7083"/>
        <path id="Trazado_1032851" data-name="Trazado 1032851" d="M1253.608,1323.937a105.849,105.849,0,0,1-3.774,11.788c-.94,2.282-2.75,3.49-4.681,4.885l-3.908,2.825a286.256,286.256,0,0,0,5.75-43.989c4.223-.023,8.185-.222,11.865-.547-.018.079-.034.153-.042.211A188.242,188.242,0,0,1,1253.608,1323.937Z" transform="translate(-1177.557 -1076.386)" fill="#1d7083"/>
        <path id="Trazado_1032852" data-name="Trazado 1032852" d="M1318.714,1196.325c.022-.11.049-.218.071-.327a12.821,12.821,0,0,1,.9-1.483c-.422,1.566-.638,2.431-.638,2.431s21.293,18.237,54.707,18.527a283.644,283.644,0,0,1-5.8,44.091c-3.655-1.617-7.352-3.129-10.865-5.049a51.962,51.962,0,0,1-12.845-9.837c-.7-.738-1.812.379-1.115,1.115a53.181,53.181,0,0,0,12.855,9.913c3.7,2.048,7.607,3.632,11.464,5.346a.794.794,0,0,0,.191.043.841.841,0,0,0,.9.989l-.994,80.1a134.528,134.528,0,0,1-51.637-1.436s-14.159-100.244,1.241-140.949c.393-1.04.8-2.046,1.237-3.006A.654.654,0,0,0,1318.714,1196.325Z" transform="translate(-1305.895 -992.418)" fill="#1d7083"/>
        <path id="Trazado_1032853" data-name="Trazado 1032853" d="M1240.112,1298.809a286.239,286.239,0,0,1-5.75,43.989l3.908-2.825c1.931-1.4,3.741-2.6,4.681-4.885a105.877,105.877,0,0,0,3.774-11.789,188.334,188.334,0,0,0,5.21-24.827c.008-.058.024-.132.042-.211.56-.05,1.118-.1,1.665-.156-.1.657-.26,1.311-.335,1.825q-.51,3.512-1.163,7a174.278,174.278,0,0,1-7.377,27.791,10.855,10.855,0,0,1-4.036,5.407c-.66.486-1.326.964-1.99,1.445-1.665.661-3.346,1.269-5.05,1.789a.8.8,0,0,0-.271.147.624.624,0,0,0-.4-.49l-.29-.127a283.6,283.6,0,0,0,5.8-44.091c.267,0,.528.014.8.014S1239.852,1298.811,1240.112,1298.809Z" transform="translate(-1170.675 -1075.748)" fill="#808027"/>
        <path id="Trazado_1032854" data-name="Trazado 1032854" d="M1332.159,1534.011a.817.817,0,0,0,.738-.221.73.73,0,0,0,.953.681l.086-.028-.618.445a.7.7,0,0,1-.211.1l-.044.01A.839.839,0,0,1,1332.159,1534.011Z" transform="translate(-1270.413 -1265.334)" fill="#808027"/>
        <path id="Trazado_1032855" data-name="Trazado 1032855" d="M1165.663,1460.082a.8.8,0,0,1,.271-.147c1.7-.52,3.385-1.129,5.05-1.789,4.017-1.593,7.929-3.522,11.742-5.479,2.943-1.51,5.85-3.1,8.666-4.84a37.239,37.239,0,0,0,6.307-4.584c.733-.7,1.849.411,1.115,1.115-3.186,3.052-7.23,5.293-11.062,7.416a154.241,154.241,0,0,1-14.7,7.166,69.789,69.789,0,0,1-6.613,2.487l-.086.028a.73.73,0,0,1-.953-.681A.82.82,0,0,0,1165.663,1460.082Z" transform="translate(-1102.917 -1192.318)" fill="#808027"/>
        <path id="Trazado_1032856" data-name="Trazado 1032856" d="M1361.816,1465.495a.853.853,0,0,1-1,.914.8.8,0,0,1-.191-.043c-3.857-1.714-7.765-3.3-11.464-5.346a53.166,53.166,0,0,1-12.855-9.914c-.7-.736.415-1.853,1.115-1.115a51.952,51.952,0,0,0,12.845,9.837c3.513,1.921,7.21,3.432,10.865,5.049l.29.127A.622.622,0,0,1,1361.816,1465.495Z" transform="translate(-1299.071 -1197.73)" fill="#808027"/>
        <path id="Trazado_1032857" data-name="Trazado 1032857" d="M820.615,753.709a51.768,51.768,0,0,1-6.1-3.054c.1-.058.2-.122.293-.182,6.791-1.784,9.331-9.343,11.113-15.715,4.635-3.821,7.053-9.478,9.316-14.884.392-.936-1.134-1.341-1.52-.419-1.819,4.345-3.77,8.83-6.973,12.32a176.272,176.272,0,0,0,5.152-26.255.638.638,0,0,0-.124-.479c1.643-11.3,2.161-20.355,1.971-21.172-.026-.113-.08-.239-.12-.358l.169-.124a19.067,19.067,0,0,0,1.764,2.569,59.41,59.41,0,0,1,9.181,15.921c5.436,15.225-1.856,30.5-7.953,44.345q-1.462,3.323-2.926,6.645a7.3,7.3,0,0,1-1.518,2.482,4.571,4.571,0,0,1-3.562.826C825.881,755.925,822.339,754.419,820.615,753.709Z" transform="translate(-681.88 -581.263)" fill="#fff8dc"/>
        <path id="Trazado_1032858" data-name="Trazado 1032858" d="M965.076,563.014c10.8,6.567,24.359,4.163,31.772-6.217a32.692,32.692,0,0,0,5.07-11.969c.044-.208.095-.41.145-.605,2.47,2.459,4.549,4.918,5.146,6.7.04.12.093.245.12.358.19.817-.328,9.873-1.971,21.172a.848.848,0,0,0-1.453.479,173.434,173.434,0,0,1-4.808,24.8,70.362,70.362,0,0,1-3.8,11.648c-1.591,3.375-4.18,6.415-7.994,7.165-1,.2-.572,1.715.419,1.52.234-.046.445-.122.67-.181-.1.06-.194.124-.294.182-7.651,4.5-18.226,3.9-18.893,5.205-.227.447-.372,5.72-.454,12.328h0l-.164.015a.868.868,0,0,0-.769.072c-26.71,2.565-58.223.32-81.277-14.561a71.216,71.216,0,0,1-6.244-4.507q.611-1.634,1.256-3.3c.186-.483.378-.972.568-1.459,1.467-3.757,3.048-7.617,4.741-11.519,1.2-2.758,2.445-5.534,3.752-8.306q3.019-6.4,6-12.558c15.893-32.891,30.127-59.321,32.493-60.347a10.074,10.074,0,0,1,3.06-.506,101.538,101.538,0,0,1,12.113.405c.4,9.037,3.112,17.81,6.8,26.014C954.308,552.219,958.154,558.8,965.076,563.014Z" transform="translate(-855.464 -448.674)" fill="#fff8dc"/>
        <path id="Trazado_1032859" data-name="Trazado 1032859" d="M903.491,819.74a19.306,19.306,0,0,1-1.971,1.9c-.785.644.336,1.753,1.115,1.115.012-.01.021-.021.033-.03-1.783,6.371-4.322,13.931-11.113,15.715-.224.059-.436.135-.67.181-.991.195-1.416-1.324-.419-1.52,3.814-.751,6.4-3.79,7.994-7.165a70.369,70.369,0,0,0,3.8-11.648,173.452,173.452,0,0,0,4.808-24.8.848.848,0,0,1,1.453-.479.638.638,0,0,1,.124.479A176.3,176.3,0,0,1,903.491,819.74Z" transform="translate(-758.624 -669.229)" fill="#d1b2a5"/>
        <path id="Trazado_1032860" data-name="Trazado 1032860" d="M872.783,879.867a19.314,19.314,0,0,0,1.971-1.9c3.2-3.49,5.154-7.975,6.973-12.32.386-.922,1.912-.517,1.52.419-2.263,5.405-4.68,11.063-9.316,14.884-.012.01-.021.021-.033.031C873.119,881.62,872,880.511,872.783,879.867Z" transform="translate(-729.887 -727.457)" fill="#d1b2a5"/>
        <path id="Trazado_1032861" data-name="Trazado 1032861" d="M1444.412,821.984a.714.714,0,0,1-.951.524A.755.755,0,0,0,1444.412,821.984Z" transform="translate(-1402.661 -692.752)" fill="#d1b2a5"/>
        <path id="Trazado_1032862" data-name="Trazado 1032862" d="M1402.213,671.1c.435-.916,1.795-.117,1.361.8a142.015,142.015,0,0,0-7.151,18.212,56.945,56.945,0,0,0-4.334,9.761A144.682,144.682,0,0,1,1402.213,671.1Z" transform="translate(-1351.86 -571.051)" fill="#d1b2a5"/>
        <path id="Trazado_1032863" data-name="Trazado 1032863" d="M1398.5,728.7l.062-.12c1.653-3.23,3.353-6.465,5.286-9.538.538-.857,1.9-.066,1.361.8-1.888,3-3.55,6.16-5.17,9.312a56.543,56.543,0,0,0-4.354,9.731.754.754,0,0,1-.951.524.731.731,0,0,1-.569-.943A56.906,56.906,0,0,1,1398.5,728.7Z" transform="translate(-1353.935 -609.646)" fill="#d1b2a5"/>
        <path id="Trazado_1032864" data-name="Trazado 1032864" d="M934.45,562.525c16.362,8.556,13.535-28.326,13.535-28.326l.136-.45c3.97,1.986,11.769,6.363,17.066,12.387-.05.2-.1.4-.145.605a32.694,32.694,0,0,1-5.07,11.969c-7.412,10.38-20.977,12.784-31.772,6.217-6.922-4.211-10.768-10.795-14-17.976-3.688-8.2-6.4-16.978-6.8-26.015,7.908.621,16.3,1.672,18.667,1.977l-.867,1.124S916.353,553.063,934.45,562.525Z" transform="translate(-818.586 -450.587)" fill="#f39776"/>
        <path id="Trazado_1032865" data-name="Trazado 1032865" d="M1077.719,1116.957l.164-.016h0c0,.035,0,.071,0,.106A.8.8,0,0,0,1077.719,1116.957Z" transform="translate(-964.596 -930.018)" fill="#f39776"/>
        <path id="Trazado_1032866" data-name="Trazado 1032866" d="M1181.69,1038.969a.7.7,0,0,0-.337.624q.065,14.031.131,28.061c-3.118,1.28-13.407,5.076-29.18,6.663-.547.055-1.1.106-1.665.155-3.68.326-7.643.525-11.865.547-.261,0-.516.007-.78.007s-.529-.011-.8-.013c-33.415-.289-54.707-18.526-54.707-18.526s.216-.865.638-2.431c1.412-5.244,5.156-18.44,11.041-34.155a71.145,71.145,0,0,0,6.245,4.507C1123.468,1039.288,1154.98,1041.534,1181.69,1038.969Zm-44.214,26.626c.226.99,1.745.568,1.52-.419a3.246,3.246,0,0,1,.219-1.694c.181-.567.385-1.128.616-1.676a20.592,20.592,0,0,1,1.646-3.109,6.419,6.419,0,0,1,.846-1.2c0,.2.009.41-.009.552a8.251,8.251,0,0,1-1.133,3.21.789.789,0,0,0,1.361.8,9.847,9.847,0,0,0,1.393-4.531c.044-.832-.283-1.772-1.255-1.823a2.233,2.233,0,0,0-1.785,1.065,20.361,20.361,0,0,0-2.365,4.1C1137.9,1062.307,1137.113,1064,1137.476,1065.6Z" transform="translate(-1069.336 -851.958)" fill="#f39776"/>
        <path id="Trazado_1032867" data-name="Trazado 1032867" d="M1075.477,1117.479a.7.7,0,0,1,.337-.624.867.867,0,0,1,.769-.072.8.8,0,0,1,.163.092.711.711,0,0,1,.307.6q.025,5.5.051,10.992.04,8.592.08,17.185a.72.72,0,0,1-.143.436.794.794,0,0,1-1.434-.436c0-.039,0-.077,0-.116Q1075.541,1131.509,1075.477,1117.479Z" transform="translate(-963.459 -929.844)" fill="#d46566"/>
        <path id="Trazado_1032868" data-name="Trazado 1032868" d="M1279.01,1203.994a2.235,2.235,0,0,1,1.785-1.064c.971.051,1.3.992,1.254,1.823a9.844,9.844,0,0,1-1.393,4.531.789.789,0,0,1-1.361-.8,8.255,8.255,0,0,0,1.133-3.21c.017-.142,0-.356.008-.552a6.371,6.371,0,0,0-.846,1.2,20.626,20.626,0,0,0-1.646,3.109c-.23.548-.435,1.109-.615,1.676a3.244,3.244,0,0,0-.219,1.694c.225.987-1.294,1.409-1.52.419-.363-1.6.428-3.289,1.055-4.726A20.4,20.4,0,0,1,1279.01,1203.994Z" transform="translate(-1207.451 -999.185)" fill="#d46566"/>
        <path id="Trazado_1032869" data-name="Trazado 1032869" d="M988.932,467.084a24.251,24.251,0,0,0,14.79,11.282,1.481,1.481,0,0,0,1.112-.12l-3.623,12.025-.136.45s2.827,36.882-13.535,28.326c-18.1-9.462-9.247-38.488-9.247-38.488l.867-1.124,7.447-9.651,2.235-2.9A1.37,1.37,0,0,0,988.932,467.084Z" transform="translate(-871.676 -407.11)" fill="#f39776"/>
        <path id="Trazado_1032870" data-name="Trazado 1032870" d="M843.737,300.489a21.053,21.053,0,0,1-12.906-9.832,1.458,1.458,0,0,0-1.955-.6,25.116,25.116,0,0,1-1.888-4.406,26.957,26.957,0,0,1-1.172-10.124c2.615-1.729,4.255-7.1,3.905-10.094a4.637,4.637,0,0,0,.841-.21,2.871,2.871,0,0,0,.9-.583,47.608,47.608,0,0,0,10.674-13.046,2.055,2.055,0,0,0,.177-1.5c.426-.2.861-.385,1.3-.553a32.535,32.535,0,0,0,1.516,4.366c.416.965.9,1.9,1.4,2.822-.439-.082-.882-.152-1.33-.2a14.368,14.368,0,0,0-2.765-.013,5.972,5.972,0,0,0-3.052.893,1.621,1.621,0,0,0-.565,2.157,1.582,1.582,0,0,0,2.157.566,1.875,1.875,0,0,1,.973-.4c.061-.015.089-.023.105-.028s.053,0,.132-.01c.223-.023.445-.043.668-.057a16.617,16.617,0,0,1,2.347.045q.293.036.081,0c.111.016.221.032.331.051q.247.041.493.092.572.119,1.132.291a8.132,8.132,0,0,1,2.055.923c.043.025.088.04.132.06.3.388.6.784.919,1.157a31.012,31.012,0,0,0,5.06,4.717,53.127,53.127,0,0,0,6.272,3.867c4.985,2.713,9.069,5.24,11.757,9.808q-.363.677-.734,1.346c-.6,1.081-1.122,2.157-1.63,3.221a4.279,4.279,0,0,0-.541.167c-2.809,1.195-6.912,6.621-6.252,9.955-5.393,5.017-12.332,7.909-19.422,6.7A1.425,1.425,0,0,0,843.737,300.489Zm16.927-17.618c.283.086.559.191.834.3a10.871,10.871,0,0,1,2.081,1.212,11.1,11.1,0,0,1,.839.74,1.577,1.577,0,0,0,2.23-2.23,12.264,12.264,0,0,0-2.075-1.634c.022,0,.042.007.064.007a2.164,2.164,0,0,0,1.041-.284,2.363,2.363,0,0,0,.761-.754,4.78,4.78,0,0,0,.335-.649l.356-.74c.157-.325.315-.65.439-.989a1.869,1.869,0,0,0,.084-.3,2.707,2.707,0,0,0,.072-.666,2.278,2.278,0,0,0-.638-1.514,2.091,2.091,0,0,0-1.442-.588,2.166,2.166,0,0,0-1.011.241c-.014,0-.031,0-.045.007a1.6,1.6,0,0,0-.943.725l-.87,1.739a3.775,3.775,0,0,0-.532,1.493,1.793,1.793,0,0,0,.485,1.3,12.481,12.481,0,0,0-1.227-.454,1.577,1.577,0,1,0-.838,3.041Zm-10.979-.148a6.5,6.5,0,0,0,3.686.85,2.686,2.686,0,0,0,2.27-1.738c.364-1.258-.351-2.51-1.047-3.505-.816-1.165-1.643-2.321-2.465-3.482a.806.806,0,0,0-1.079-.283.8.8,0,0,0-.282,1.078l2.049,2.894a5.226,5.226,0,0,1,1.339,2.573.651.651,0,0,1-.287.628,1.823,1.823,0,0,1-.826.3,5.182,5.182,0,0,1-2.562-.677.806.806,0,0,0-1.079.282A.8.8,0,0,0,849.685,282.723Zm-9.691-13.649a7.809,7.809,0,0,0-5.377-2.1,1.577,1.577,0,0,0,0,3.153,4.6,4.6,0,0,1,2.907.968c.081.068.163.133.241.2a1.61,1.61,0,0,0,2.229,0A1.589,1.589,0,0,0,839.993,269.074Zm5.263-4.679a2.088,2.088,0,0,0-1.442-.588,2.162,2.162,0,0,0-1.009.24c-.015,0-.032,0-.047.008a1.6,1.6,0,0,0-.942.725q-.435.87-.87,1.739a3.78,3.78,0,0,0-.532,1.493,1.8,1.8,0,0,0,.507,1.328,1.7,1.7,0,0,0,.5.352,1.032,1.032,0,0,0,.075.075,2.1,2.1,0,0,0,.587.368,1.735,1.735,0,0,0,.719.155,2.167,2.167,0,0,0,1.041-.284,2.361,2.361,0,0,0,.761-.754,4.741,4.741,0,0,0,.334-.649l.356-.74c.157-.324.315-.649.439-.989a1.846,1.846,0,0,0,.084-.3,2.681,2.681,0,0,0,.072-.666A2.274,2.274,0,0,0,845.257,264.4Zm-7.336,11.026s-2.829,3.152.758,7.281a6.189,6.189,0,0,0,8.433,1.424Z" transform="translate(-710.854 -232.274)" fill="#f39776"/>
        <path id="Trazado_1032871" data-name="Trazado 1032871" d="M999.177,232.684A47.607,47.607,0,0,1,988.5,245.73a2.865,2.865,0,0,1-.9.583,4.641,4.641,0,0,1-.841.21,5.034,5.034,0,0,0-.1-.6,5.168,5.168,0,0,0-2.156-2.962,21.006,21.006,0,0,1,.99-4.452,32.346,32.346,0,0,1,6.818-11.516,2.632,2.632,0,0,1,1.342-.929,2.483,2.483,0,0,1,1.807.6c1.21.85,3.482,2.732,3.886,4.525A2.056,2.056,0,0,1,999.177,232.684Zm-1.545-2.3c-.091-.06-.181-.122-.269-.186l-.119-.089.018.014c-.154-.125-.3-.254-.448-.391s-.281-.279-.414-.426l-.194-.226-.074-.093,0,0v0a8.59,8.59,0,0,1-.616-.981q-.069-.132-.131-.266l-.062-.135,0,0-.106-.277c-.033-.093-.064-.187-.094-.282a.805.805,0,0,0-.97-.551.8.8,0,0,0-.551.97,8.04,8.04,0,0,0,3.239,4.289.788.788,0,0,0,.8-1.361Z" transform="translate(-867.9 -213.369)" fill="#dd5313"/>
        <path id="Trazado_1032872" data-name="Trazado 1032872" d="M994.909,233.5a8.039,8.039,0,0,1-3.239-4.289.8.8,0,0,1,.551-.97.805.805,0,0,1,.97.551c.029.094.061.189.094.282l.106.277,0,0,.061.135q.063.134.131.266a8.65,8.65,0,0,0,.616.981v0l0,0,.074.093.194.226c.132.148.27.29.413.426s.294.265.448.391l-.019-.014.119.089c.088.064.178.125.269.186a.788.788,0,0,1-.8,1.361Z" transform="translate(-865.974 -215.122)" fill="#ca2e17"/>
        <path id="Trazado_1032873" data-name="Trazado 1032873" d="M917.349,383.844a5.18,5.18,0,0,0,2.562.677,1.822,1.822,0,0,0,.826-.3.652.652,0,0,0,.287-.628,5.226,5.226,0,0,0-1.339-2.573l-2.049-2.894a.8.8,0,0,1,.282-1.078.805.805,0,0,1,1.079.283c.822,1.161,1.649,2.317,2.465,3.482.7.995,1.411,2.247,1.047,3.505a2.686,2.686,0,0,1-2.27,1.738,6.5,6.5,0,0,1-3.686-.85.8.8,0,0,1-.283-1.079A.807.807,0,0,1,917.349,383.844Z" transform="translate(-777.722 -334.756)" fill="#d46566"/>
        <path id="Trazado_1032874" data-name="Trazado 1032874" d="M962.1,389.147c-3.587-4.129-.758-7.281-.758-7.281l9.191,8.705A6.189,6.189,0,0,1,962.1,389.147Z" transform="translate(-834.278 -338.718)" fill="#fff8dc"/>
        <path id="Trazado_1032875" data-name="Trazado 1032875" d="M959.164,289.489a8.135,8.135,0,0,0-2.055-.923q-.559-.173-1.132-.291c-.164-.034-.328-.065-.493-.092-.111-.019-.221-.035-.331-.051.141.021.115.02-.081,0a16.67,16.67,0,0,0-2.347-.045c-.223.014-.445.034-.668.057-.079.008-.115.01-.132.01s-.044.013-.105.028a1.875,1.875,0,0,0-.974.4,1.583,1.583,0,0,1-2.157-.566,1.621,1.621,0,0,1,.566-2.157,5.972,5.972,0,0,1,3.052-.893,14.379,14.379,0,0,1,2.765.013c.448.046.891.116,1.33.2a32.687,32.687,0,0,0,2.893,4.378A1.426,1.426,0,0,1,959.164,289.489Z" transform="translate(-820.731 -260.718)" fill="#ca2e17"/>
        <path id="Trazado_1032876" data-name="Trazado 1032876" d="M971.814,325.554c-.125.339-.282.664-.439.989l-.356.74a4.788,4.788,0,0,1-.334.649,2.362,2.362,0,0,1-.761.754,2.171,2.171,0,0,1-1.041.284,1.739,1.739,0,0,1-.719-.155,2.1,2.1,0,0,1-.586-.368.972.972,0,0,1-.075-.074,1.7,1.7,0,0,1-.5-.352,1.794,1.794,0,0,1-.507-1.328,3.776,3.776,0,0,1,.532-1.493l.87-1.739a1.6,1.6,0,0,1,.942-.725c.015,0,.032,0,.047-.008a2.163,2.163,0,0,1,1.009-.24,2.089,2.089,0,0,1,1.442.588,2.274,2.274,0,0,1,.637,1.514,2.69,2.69,0,0,1-.072.666A1.89,1.89,0,0,1,971.814,325.554Zm-3.08-1.087a.788.788,0,0,0,0-1.576A.788.788,0,0,0,968.734,324.467Z" transform="translate(-836.929 -290.954)" fill="#007d71"/>
        <path id="Trazado_1032877" data-name="Trazado 1032877" d="M979.915,326.127a.789.789,0,0,1,0-1.576A.789.789,0,0,1,979.915,326.127Z" transform="translate(-848.111 -292.614)" fill="#fff8dc"/>
        <path id="Trazado_1032878" data-name="Trazado 1032878" d="M854.882,382.794a3.77,3.77,0,0,1,.532-1.493l.87-1.739a1.6,1.6,0,0,1,.943-.725c.014,0,.031,0,.045-.007a2.162,2.162,0,0,1,1.011-.241,2.092,2.092,0,0,1,1.442.588,2.277,2.277,0,0,1,.638,1.514,2.72,2.72,0,0,1-.072.666,1.924,1.924,0,0,1-.084.3c-.124.339-.282.664-.439.989q-.179.369-.356.74a4.774,4.774,0,0,1-.335.649,2.362,2.362,0,0,1-.761.754,2.165,2.165,0,0,1-1.041.284c-.022,0-.042-.006-.064-.007a12.452,12.452,0,0,0-1.843-.972A1.794,1.794,0,0,1,854.882,382.794Zm2.244-2.224a.789.789,0,0,0,0-1.577A.789.789,0,0,0,857.125,380.57Z" transform="translate(-703.491 -336.083)" fill="#007d71"/>
        <path id="Trazado_1032879" data-name="Trazado 1032879" d="M868.307,382.232a.789.789,0,0,1,0-1.577A.789.789,0,0,1,868.307,382.232Z" transform="translate(-714.673 -337.744)" fill="#fff8dc"/>
        <path id="Trazado_1032880" data-name="Trazado 1032880" d="M1001.293,343.017a1.61,1.61,0,0,1-2.229,0c-.078-.072-.16-.137-.241-.2a6.354,6.354,0,0,0-1.054-.615,6.424,6.424,0,0,0-1.146-.313,6.318,6.318,0,0,0-.707-.041,1.577,1.577,0,0,1,0-3.153,7.81,7.81,0,0,1,5.377,2.1A1.589,1.589,0,0,1,1001.293,343.017Z" transform="translate(-872.153 -303.988)" fill="#d46566"/>
        <path id="Trazado_1032881" data-name="Trazado 1032881" d="M860.083,404.149a12.969,12.969,0,0,1,3.07,1.426,12.246,12.246,0,0,1,2.075,1.634,1.577,1.577,0,1,1-2.23,2.23,11.075,11.075,0,0,0-.839-.74,10.865,10.865,0,0,0-2.081-1.212c-.275-.108-.551-.212-.834-.3a1.577,1.577,0,0,1,.838-3.04Z" transform="translate(-709.434 -356.592)" fill="#d46566"/>
        <path id="Trazado_1032882" data-name="Trazado 1032882" d="M816.629,431.433a4.28,4.28,0,0,1,.541-.167,5.025,5.025,0,0,1,4.647,1.076,24.384,24.384,0,0,1,.736,4.77,11.858,11.858,0,0,1-3.876,5.344,6.932,6.932,0,0,1-4.849,1.522c-2.167-.261-3.186-1.259-3.45-2.589C809.718,438.054,813.821,432.627,816.629,431.433Zm-3.459,9.672a.785.785,0,0,0,.557.231,2.914,2.914,0,0,0,1.511-.623,2.66,2.66,0,0,0,.567-3.5l.245-.2a6.938,6.938,0,0,1,.6-.4,4.273,4.273,0,0,1,1.315-.546,2.538,2.538,0,0,1,2.248.508.788.788,0,0,0,1.115-1.115,4.166,4.166,0,0,0-3.968-.867,6.326,6.326,0,0,0-1.951.949,5,5,0,0,0-.827.669,1.687,1.687,0,0,0-.3.467s-.009,0-.012.008a.8.8,0,0,0,0,1.115l.1.1.023.027.031.044.063.1.057.107h0l.068.222.02.1.007.224-.006.09-.058.224c0,.007-.005.011-.008.018-.057.092-.025.06,0,0l.018-.029-.041.085-.129.21-.065.072-.157.146-.089.058-.188.1-.122.039c-.064.018-.324.057-.07.025a.922.922,0,0,0-.557.231.789.789,0,0,0,0,1.115Z" transform="translate(-656.961 -378.317)" fill="#f39776"/>
        <path id="Trazado_1032883" data-name="Trazado 1032883" d="M851.141,471.794c-.025.06-.058.092,0,0Z" transform="translate(-693.53 -411.057)" fill="#d46566"/>
        <path id="Trazado_1032884" data-name="Trazado 1032884" d="M843.448,462.709c-.254.031.006-.008.07-.025l.122-.039.188-.1.089-.058.157-.146.065-.072.129-.21.042-.085-.018.029a.184.184,0,0,0,.008-.018l.058-.224.006-.09-.007-.224-.02-.1-.068-.222h0l-.057-.107-.063-.1-.031-.044-.023-.027-.1-.1a.8.8,0,0,1,0-1.115s.009,0,.012-.008a1.5,1.5,0,0,0-.1.865.794.794,0,0,0,.969.55.812.812,0,0,0,.55-.97c.034.21-.049.238.1.1l.008-.006a2.66,2.66,0,0,1-.567,3.5,2.912,2.912,0,0,1-1.511.623.786.786,0,0,1-.557-.231.789.789,0,0,1,0-1.115A.927.927,0,0,1,843.448,462.709Z" transform="translate(-686.681 -401.267)" fill="#d46566"/>
        <path id="Trazado_1032885" data-name="Trazado 1032885" d="M816.946,450.8a.812.812,0,0,1-.55.97.794.794,0,0,1-.969-.55,1.5,1.5,0,0,1,.1-.865,1.678,1.678,0,0,1,.3-.467,4.969,4.969,0,0,1,.827-.669,6.322,6.322,0,0,1,1.951-.949,4.166,4.166,0,0,1,3.968.867.788.788,0,1,1-1.115,1.115,2.538,2.538,0,0,0-2.248-.508,4.278,4.278,0,0,0-1.315.546,6.92,6.92,0,0,0-.6.4l-.245.2-.008.006C816.9,451.042,816.98,451.014,816.946,450.8Z" transform="translate(-658.205 -392.001)" fill="#d46566"/>
        <path id="Trazado_1032886" data-name="Trazado 1032886" d="M1071.319,360.848l-.008.007h0a.305.305,0,0,1-.03.019Z" transform="translate(-956.773 -321.811)" fill="#f39776"/>
        <path id="Trazado_1032887" data-name="Trazado 1032887" d="M1071.117,360.72l-.016.011C1071.148,360.692,1071.143,360.7,1071.117,360.72Z" transform="translate(-956.555 -321.695)" fill="#f39776"/>
        <path id="Trazado_1032888" data-name="Trazado 1032888" d="M1073.209,363.4a.068.068,0,0,0,0,.008v0s0,0,0,0Z" transform="translate(-959.037 -323.862)" fill="#f39776"/>
        <path id="Trazado_1032889" data-name="Trazado 1032889" d="M1056.865,309.57a4.72,4.72,0,0,1,2.257,3.563c.35,3-1.291,8.365-3.905,10.094a3.008,3.008,0,0,1-3.671-.153,6.418,6.418,0,0,1-.922-.811,6.932,6.932,0,0,1-1.671-4.8c0-2.53,1.228-6.394,3.639-7.959a4.327,4.327,0,0,1,1.166-.54A3.76,3.76,0,0,1,1056.865,309.57Zm-3.949,3.14a.8.8,0,0,0,.789.788c.026,0,.026,0,.039,0l.168.038.133.042.028.007s0,0,.008.008l.244.14.04.022.109.092.227.23.053.06.067.1c.061.091.117.184.169.281l.065.13.027.059c.009.026.038.11.042.121l.053.173c.037.13.066.262.091.395l.019.1.019.179c.012.135.018.271.022.406.01.385-.012.77-.04,1.154a2.712,2.712,0,0,0-2.047,1.183,4.315,4.315,0,0,0-.427,3.189.788.788,0,0,0,1.44.188.856.856,0,0,0,.08-.607l-.025-.166c0-.005,0-.012,0-.016q-.016-.141-.025-.282a4.446,4.446,0,0,1,0-.621l.007-.068.014-.082a2.867,2.867,0,0,1,.073-.3l.043-.128a.1.1,0,0,0,.031-.061l.1-.176c.011-.017.058-.078.063-.087l.18-.179.025-.019.061-.041.182-.1,0,0,.109-.033.088-.02.126,0h.008l.05.009.132.042a.8.8,0,0,0,.97-.551c.006-.018,0-.035,0-.052a.921.921,0,0,0,.28-.586,7.323,7.323,0,0,0-.416-3.819,3.306,3.306,0,0,0-2.712-1.928A.8.8,0,0,0,1052.916,312.71Z" transform="translate(-940.255 -279.979)" fill="#f39776"/>
        <path id="Trazado_1032890" data-name="Trazado 1032890" d="M1073.087,363.129l-.027.05C1073.079,363.127,1073.087,363.119,1073.087,363.129Z" transform="translate(-958.888 -323.643)" fill="#f39776"/>
        <path id="Trazado_1032891" data-name="Trazado 1032891" d="M1071.206,360.8l.016-.011-.025.019h0Z" transform="translate(-956.659 -321.766)" fill="#d46566"/>
        <path id="Trazado_1032892" data-name="Trazado 1032892" d="M1073.067,363.193l.027-.05a.1.1,0,0,1-.031.061v0S1073.067,363.2,1073.067,363.193Z" transform="translate(-958.895 -323.658)" fill="#d46566"/>
        <path id="Trazado_1032893" data-name="Trazado 1032893" d="M1065.677,352.952a.679.679,0,0,0,.507-.2c0,.018,0,.034,0,.052a.8.8,0,0,1-.97.551l-.132-.042-.05-.009h-.008l-.126,0-.088.02-.109.033,0,0-.181.1-.061.041c.025-.02.03-.029-.016.011l-.039.027a.337.337,0,0,0,.03-.019l-.18.179c-.005.009-.053.069-.063.087l-.1.176c0-.01-.007,0-.027.05l-.009.016,0,0-.043.128a2.824,2.824,0,0,0-.073.3l-.014.082-.007.068a4.484,4.484,0,0,0,0,.621q.008.141.024.282s0,.011,0,.016l.025.166a.857.857,0,0,1-.08.607.788.788,0,0,1-1.441-.188,4.316,4.316,0,0,1,.427-3.189,2.711,2.711,0,0,1,2.047-1.183c-.01.145-.019.291-.031.436A.8.8,0,0,0,1065.677,352.952Z" transform="translate(-949.888 -314.475)" fill="#d46566"/>
        <path id="Trazado_1032894" data-name="Trazado 1032894" d="M1064.066,326.5a7.321,7.321,0,0,1,.416,3.819.922.922,0,0,1-.28.586.68.68,0,0,1-.508.2.8.8,0,0,1-.788-.788c.012-.145.02-.291.031-.436.028-.384.049-.769.04-1.154,0-.135-.01-.27-.022-.406l-.018-.179-.018-.1c-.025-.133-.054-.264-.091-.395l-.053-.172c0-.012-.034-.095-.042-.121l-.027-.059-.066-.13c-.052-.1-.108-.19-.169-.281l-.067-.1-.053-.06-.227-.23-.109-.092-.041-.022-.243-.14c-.009-.006-.006-.005-.009-.008l-.028-.007-.133-.042-.168-.038a.374.374,0,0,1-.039,0,.788.788,0,1,1,0-1.577A3.305,3.305,0,0,1,1064.066,326.5Z" transform="translate(-947.906 -292.63)" fill="#d46566"/>
        <path id="Trazado_1032895" data-name="Trazado 1032895" d="M986.833,469.5a24.251,24.251,0,0,1-14.79-11.282,1.655,1.655,0,0,1-.089-.2,1.52,1.52,0,0,1,.856-2,1.457,1.457,0,0,1,1.955.6,21.054,21.054,0,0,0,12.906,9.833,1.425,1.425,0,0,1,1.111,1.554,1.7,1.7,0,0,1-.838,1.367A1.482,1.482,0,0,1,986.833,469.5Z" transform="translate(-854.787 -398.247)" fill="#1a1d35"/>
        <path id="Trazado_1032896" data-name="Trazado 1032896" d="M1532.079,1053.777a.833.833,0,0,1-1.2-.89,155.194,155.194,0,0,1,11.911-35.762c.434-.917,1.794-.117,1.361.8a153.558,153.558,0,0,0-11.681,35.059c-.022.109-.049.218-.071.327A.658.658,0,0,1,1532.079,1053.777Z" transform="translate(-1519.584 -849.399)" fill="#d46566"/>
        <path id="Trazado_1032897" data-name="Trazado 1032897" d="M768.364,248.311a20.209,20.209,0,0,0-1.505-3.158c-2.687-4.568-6.772-7.094-11.756-9.808a53.168,53.168,0,0,1-6.272-3.867,31.01,31.01,0,0,1-5.06-4.718c-.321-.374-.616-.769-.919-1.157a32.673,32.673,0,0,1-2.894-4.378c-.507-.921-.986-1.857-1.4-2.822a32.547,32.547,0,0,1-1.515-4.366,31.6,31.6,0,0,1-.783-3.7c-.415-2.833-1.07-4.9,2.5-4.932,14.712-.12,30.211,3.393,39.54,15.65a29.217,29.217,0,0,1,6.118,17.283c.035,6.139.11,12.625-3.466,17.967a24.977,24.977,0,0,1-4.432,4.825c.4-1.405.776-2.82,1.078-4.254a64.744,64.744,0,0,0,.651-22.976c-1.061-7.025-3.02-15.174-8.228-20.343a.789.789,0,0,0-1.115,1.114c2.894,2.872,4.508,6.647,5.71,10.482a62.455,62.455,0,0,1-.287,37.8c-1.83,1.439-3.881,2.737-6.178,2.706a22.567,22.567,0,0,0,1.727-10.095,24.718,24.718,0,0,0-1.514-7.255Z" transform="translate(-604.286 -196.772)" fill="#dd5313"/>
        <path id="Trazado_1032898" data-name="Trazado 1032898" d="M722.178,283.877c.363.948-1.16,1.358-1.52.419-3.9-10.161-2.476-21.209-1.18-31.727,1.283-10.412,2.793-21.658-1.558-31.589-2.657-6.065-7.264-10.968-12.254-15.205-.774-.658.345-1.768,1.115-1.115a47.884,47.884,0,0,1,11.252,13,36.353,36.353,0,0,1,4.205,15.123c.774,11.013-1.957,21.891-2.47,32.851C719.479,271.829,719.943,278.048,722.178,283.877Z" transform="translate(-536.266 -196.013)" fill="#ef7a1a"/>
        <path id="Trazado_1032899" data-name="Trazado 1032899" d="M690.655,629.459a112.9,112.9,0,0,1-15.432-38.837c-.193-.991,1.327-1.416,1.52-.419a111.691,111.691,0,0,0,15.273,38.461C692.561,629.523,691.2,630.315,690.655,629.459Z" transform="translate(-500.126 -505.848)" fill="#ef7a1a"/>
        <path id="Trazado_1032900" data-name="Trazado 1032900" d="M691.432,721.216a58.455,58.455,0,0,1,11.743,36.839,57.234,57.234,0,0,1-1.434,11.128c-.227.988-1.747.57-1.52-.419a56.934,56.934,0,0,0-10.149-46.751C689.456,721.205,690.824,720.419,691.432,721.216Z" transform="translate(-514.059 -611.427)" fill="#ef7a1a"/>
        <path id="Trazado_1032901" data-name="Trazado 1032901" d="M539.906,746.084c-.616-.806.753-1.592,1.361-.8A75.5,75.5,0,0,1,552,764.675c2.484,6.635,4.767,14.37,1.755,21.206-.408.926-1.767.125-1.361-.8,2.912-6.608.241-14.453-2.216-20.783A74.341,74.341,0,0,0,539.906,746.084Z" transform="translate(-336.685 -630.791)" fill="#ef7a1a"/>
        <path id="Trazado_1032902" data-name="Trazado 1032902" d="M802.424,590.747c5.234-17.048-6.7-33.051-11.544-48.645a45.474,45.474,0,0,1-2.231-13.739.789.789,0,0,1,1.576,0c-.1,17.488,12.361,31.818,14.663,48.837a32.525,32.525,0,0,1-.945,13.966C803.648,592.133,802.125,591.721,802.424,590.747Z" transform="translate(-635.409 -455.949)" fill="#ef7a1a"/>
        <path id="Trazado_1032903" data-name="Trazado 1032903" d="M769.731,257.741c-1.2-3.835-2.816-7.61-5.71-10.482a.789.789,0,0,1,1.115-1.115c5.208,5.169,7.167,13.318,8.228,20.343a64.747,64.747,0,0,1-.651,22.976c-.3,1.434-.674,2.849-1.077,4.254a65.1,65.1,0,0,1-2.921,8.136c-.406.927-1.764.126-1.362-.8.79-1.8,1.482-3.648,2.092-5.518A62.456,62.456,0,0,0,769.731,257.741Z" transform="translate(-599.401 -229.357)" fill="#ef7a1a"/>
      </g>
    </g>
  </g>
</svg>
