<svg xmlns="http://www.w3.org/2000/svg" xmlns:xlink="http://www.w3.org/1999/xlink" width="106" height="106" viewBox="0 0 106 106">
  <defs>
    <filter id="Trazado_982547" x="0" y="0" width="106" height="106" filterUnits="userSpaceOnUse">
      <feOffset dy="3" input="SourceAlpha"/>
      <feGaussianBlur stdDeviation="3" result="blur"/>
      <feFlood flood-opacity="0.161"/>
      <feComposite operator="in" in2="blur"/>
      <feComposite in="SourceGraphic"/>
    </filter>
  </defs>
  <g id="Grupo_1183735" data-name="Grupo 1183735" transform="translate(-170.522 -2272)">
    <g id="Grupo_1181535" data-name="Grupo 1181535" transform="translate(-0.738 -256)">
      <g id="Grupo_1173624" data-name="Grupo 1173624" transform="translate(0.261 -1716)">
        <g id="Grupo_1173435" data-name="Grupo 1173435" transform="translate(0 533)">
          <g id="Grupo_1172017" data-name="Grupo 1172017" transform="translate(0 2654)">
            <g id="Grupo_1167337" data-name="Grupo 1167337" transform="translate(180 1063)">
              <g id="Grupo_1166720" data-name="Grupo 1166720" transform="translate(0)">
                <g id="Grupo_1164305" data-name="Grupo 1164305">
                  <g id="Grupo_1163948" data-name="Grupo 1163948">
                    <g id="Grupo_1158168" data-name="Grupo 1158168">
                      <g id="Grupo_1152576" data-name="Grupo 1152576">
                        <g id="Grupo_1148633" data-name="Grupo 1148633">
                          <g id="Grupo_1148525" data-name="Grupo 1148525">
                            <g transform="matrix(1, 0, 0, 1, -9, -6)" filter="url(#Trazado_982547)">
                              <g id="Trazado_982547-2" data-name="Trazado 982547" transform="translate(9 6)" fill="#e9f9fd">
                                <path d="M 44 86.5 C 38.26187515258789 86.5 32.69618606567383 85.37651062011719 27.45755004882812 83.16075897216797 C 22.3968505859375 81.020263671875 17.85157585144043 77.95565032958984 13.94796276092529 74.05204010009766 C 10.04434967041016 70.1484375 6.979737281799316 65.6031494140625 4.839250087738037 60.54246139526367 C 2.62348747253418 55.30381393432617 1.5 49.73812484741211 1.5 44 C 1.5 38.26187515258789 2.62348747253418 32.69618606567383 4.839250087738037 27.45755004882812 C 6.979737281799316 22.3968505859375 10.04434967041016 17.85157585144043 13.94796276092529 13.94796276092529 C 17.85157585144043 10.04434967041016 22.3968505859375 6.979737281799316 27.45755004882812 4.839250087738037 C 32.69618606567383 2.62348747253418 38.26187515258789 1.5 44 1.5 C 49.73812484741211 1.5 55.30381393432617 2.62348747253418 60.54246139526367 4.839250087738037 C 65.6031494140625 6.979737281799316 70.1484375 10.04434967041016 74.05204010009766 13.94796276092529 C 77.95565032958984 17.85157585144043 81.020263671875 22.3968505859375 83.16075897216797 27.45755004882812 C 85.37651062011719 32.69618606567383 86.5 38.26187515258789 86.5 44 C 86.5 49.73812484741211 85.37651062011719 55.30381393432617 83.16075897216797 60.54246139526367 C 81.020263671875 65.6031494140625 77.95565032958984 70.1484375 74.05204010009766 74.05204010009766 C 70.1484375 77.95565032958984 65.6031494140625 81.020263671875 60.54246139526367 83.16075897216797 C 55.30381393432617 85.37651062011719 49.73812484741211 86.5 44 86.5 Z" stroke="none"/>
                                <path d="M 44 3 C 38.46371459960938 3 33.09462738037109 4.083610534667969 28.0418701171875 6.220756530761719 C 23.15997314453125 8.285614013671875 18.77495574951172 11.24228668212891 15.00862884521484 15.00862884521484 C 11.24228668212891 18.77495574951172 8.285614013671875 23.15997314453125 6.220756530761719 28.0418701171875 C 4.083610534667969 33.09462738037109 3 38.46371459960938 3 44 C 3 49.53628540039062 4.083610534667969 54.9053840637207 6.220756530761719 59.9581298828125 C 8.285614013671875 64.84002685546875 11.24228668212891 69.22504425048828 15.00862884521484 72.99138641357422 C 18.77495574951172 76.75771331787109 23.15997314453125 79.71438598632812 28.0418701171875 81.77925872802734 C 33.09462738037109 83.9163818359375 38.46371459960938 85 44 85 C 49.53628540039062 85 54.9053840637207 83.9163818359375 59.95814514160156 81.77925872802734 C 64.84002685546875 79.71438598632812 69.22504425048828 76.75771331787109 72.99138641357422 72.99138641357422 C 76.75771331787109 69.22504425048828 79.71438598632812 64.84002685546875 81.77925872802734 59.95814514160156 C 83.9163818359375 54.9053840637207 85 49.53628540039062 85 44 C 85 38.46371459960938 83.9163818359375 33.09462738037109 81.77925872802734 28.0418701171875 C 79.71438598632812 23.15997314453125 76.75771331787109 18.77495574951172 72.99138641357422 15.00862884521484 C 69.22504425048828 11.24228668212891 64.84002685546875 8.285614013671875 59.9581298828125 6.220756530761719 C 54.9053840637207 4.083610534667969 49.53628540039062 3 44 3 M 44 0 C 68.30054473876953 0 88 19.69947052001953 88 44 C 88 68.30054473876953 68.30054473876953 88 44 88 C 19.69947052001953 88 0 68.30054473876953 0 44 C 0 19.69947052001953 19.69947052001953 0 44 0 Z" stroke="none" fill="#36ceef"/>
                              </g>
                            </g>
                          </g>
                        </g>
                      </g>
                    </g>
                  </g>
                </g>
              </g>
            </g>
          </g>
        </g>
      </g>
    </g>
    <g id="layer2" transform="translate(194.297 2288.471)">
      <path id="circle7372" d="M33.194,20.169A14.348,14.348,0,1,1,18.846,5.821,14.348,14.348,0,0,1,33.194,20.169Z" transform="translate(10.38 13.84)" fill="#549ad4"/>
      <path id="path7392" d="M21.147,13.126a6.705,6.705,0,0,1,4.68,6.415v1.121a3.347,3.347,0,0,1-3.348,3.362h-6.7a3.347,3.347,0,0,1-3.348-3.362V19.541a6.705,6.705,0,0,1,4.681-6.416" transform="translate(31.139 32.942)" fill="#ff5151"/>
      <path id="path7394" d="M9.143,13.1a6.7,6.7,0,0,1,5.042,6.518v1.121A3.347,3.347,0,0,1,10.838,24.1h-6.7A3.347,3.347,0,0,1,.794,20.736V19.615A6.7,6.7,0,0,1,5.836,13.1" transform="translate(0.692 32.868)" fill="#ffca28"/>
      <path id="path7396" d="M.794,18.99V20.11a3.347,3.347,0,0,0,3.348,3.361h6.7a3.335,3.335,0,0,0,3.116-2.145,3.331,3.331,0,0,1-1.2.232h-6.7A3.347,3.347,0,0,1,2.707,18.2V17.076a6.7,6.7,0,0,1,1.151-3.74A6.711,6.711,0,0,0,.794,18.99Z" transform="translate(0.692 33.494)" fill="#ecb200"/>
      <path id="path7398" d="M12.435,18.965v1.121a3.347,3.347,0,0,0,3.348,3.361h6.7A3.335,3.335,0,0,0,25.6,21.3a3.331,3.331,0,0,1-1.2.232H17.7a3.347,3.347,0,0,1-3.348-3.361V17.052a6.7,6.7,0,0,1,1.125-3.707,6.7,6.7,0,0,0-3.038,5.62Z" transform="translate(31.139 33.519)" fill="#ff2929"/>
      <path id="path7408" d="M13.55,2.36a5.283,5.283,0,0,1,3.944,5.146v.885a2.631,2.631,0,0,1-2.619,2.654H9.637A2.631,2.631,0,0,1,7.018,8.391V7.506A5.283,5.283,0,0,1,10.962,2.36" transform="translate(16.97 4.789)" fill="#b4d305"/>
      <path id="path7410" d="M9.415,2.549a5.31,5.31,0,0,0-2.4,4.463V7.9a2.631,2.631,0,0,0,2.619,2.653h5.238a2.61,2.61,0,0,0,2.438-1.693,2.585,2.585,0,0,1-.941.183H11.134A2.631,2.631,0,0,1,8.514,6.387V5.5a5.32,5.32,0,0,1,.9-2.953Z" transform="translate(16.97 5.283)" fill="#a5c004"/>
      <path id="circle7418" d="M9.24,14.939a3.826,3.826,0,1,1-3.826-3.826A3.826,3.826,0,0,1,9.24,14.939Z" transform="translate(2.768 27.679)" fill="#ffc6a0"/>
      <path id="path7420" d="M1.587,14.69A3.824,3.824,0,0,0,8.9,16.259a3.819,3.819,0,0,1-5.059-5.052A3.826,3.826,0,0,0,1.587,14.69Z" transform="translate(2.768 27.927)" fill="#ffaf7a"/>
      <path id="circle7388" d="M20.882,15.014a3.826,3.826,0,1,1-3.826-3.826,3.826,3.826,0,0,1,3.826,3.826Z" transform="translate(33.214 27.876)" fill="#ffc6a0"/>
      <path id="path7390" d="M13.229,14.766a3.824,3.824,0,0,0,7.312,1.569,3.819,3.819,0,0,1-5.059-5.052,3.826,3.826,0,0,0-2.253,3.482Z" transform="translate(33.215 28.125)" fill="#ffaf7a"/>
      <path id="ellipse7404" d="M13.625,3.814A2.993,2.993,0,1,1,10.632.794a3.007,3.007,0,0,1,2.993,3.021Z" transform="translate(18.594 0.692)" fill="#ffc6a0"/>
      <path id="path7406" d="M7.639,3.618a2.987,2.987,0,0,0,5.721,1.239,2.97,2.97,0,0,1-1.231.271A3.007,3.007,0,0,1,9.135,2.108,3.044,3.044,0,0,1,9.4.869,3.022,3.022,0,0,0,7.639,3.618Z" transform="translate(18.594 0.888)" fill="#ffaf7a"/>
      <path id="circle7472" d="M9.688,6.739A14.34,14.34,0,1,0,29.914,26.888,14.338,14.338,0,0,1,9.688,6.739Z" transform="translate(10.38 16.241)" fill="#3588cb"/>
      <path id="path3898-5" d="M29.226.529A3.982,3.982,0,0,0,26.074,6.9a6.236,6.236,0,0,0-3.04,5.393v.889a3.583,3.583,0,0,0,3.572,3.609h5.239a3.59,3.59,0,0,0,3.574-3.609v-.889A6.237,6.237,0,0,0,32.378,6.9,3.982,3.982,0,0,0,29.226.529Zm0,1.915A2.064,2.064,0,1,1,27.186,4.5,2.046,2.046,0,0,1,29.226,2.444ZM27.77,8.2a3.954,3.954,0,0,0,2.915,0,4.332,4.332,0,0,1,2.821,4.091v.889a1.671,1.671,0,0,1-1.661,1.694H26.606a1.669,1.669,0,0,1-1.659-1.694v-.889A4.328,4.328,0,0,1,27.77,8.2ZM5.31,34.006a.957.957,0,0,0,1.913,0,21.993,21.993,0,0,1,11-19.05.961.961,0,0,0-.527-1.791.938.938,0,0,0-.426.132A23.874,23.874,0,0,0,5.31,34.006Zm45.918,0a.957.957,0,0,0,1.915,0A23.92,23.92,0,0,0,41.181,13.3a.957.957,0,1,0-.953,1.659,21.991,21.991,0,0,1,11,19.05Zm-6.7,0a15.3,15.3,0,1,0-15.3,15.306A15.29,15.29,0,0,0,44.527,34.006ZM32.045,20.919a13.365,13.365,0,0,1,6.384,3.361,16.026,16.026,0,0,1-2.6,1.545,17.745,17.745,0,0,0-3.781-4.906Zm-5.638,0a17.733,17.733,0,0,0-3.781,4.9,15.92,15.92,0,0,1-2.6-1.534,13.444,13.444,0,0,1,6.382-3.368Zm3.772.912a16,16,0,0,1,3.861,4.709,15.534,15.534,0,0,1-3.861.747Zm-1.913.011v5.447a15.513,15.513,0,0,1-3.852-.746,15.981,15.981,0,0,1,3.852-4.7ZM18.726,25.7a17.962,17.962,0,0,0,3.107,1.872,17.588,17.588,0,0,0-1.19,5.483H15.871A13.3,13.3,0,0,1,18.726,25.7Zm23.855,7.355H37.807a17.59,17.59,0,0,0-1.186-5.485A18.011,18.011,0,0,0,39.727,25.7a13.306,13.306,0,0,1,2.854,7.351ZM23.6,28.289a17.407,17.407,0,0,0,4.661.908v3.858H22.56A15.623,15.623,0,0,1,23.6,28.289Zm11.239,0a15.629,15.629,0,0,1,1.05,4.766H30.178V29.2a17.4,17.4,0,0,0,4.665-.912ZM15.868,34.967h4.775a17.643,17.643,0,0,0,1.194,5.487,18,18,0,0,0-3.113,1.866,13.311,13.311,0,0,1-2.857-7.353Zm12.4,0v3.855a17.406,17.406,0,0,0-4.659.911,15.651,15.651,0,0,1-1.046-4.766Zm1.913,0h5.713a15.638,15.638,0,0,1-1.046,4.764,17.423,17.423,0,0,0-4.667-.912Zm7.628,0H42.58a13.318,13.318,0,0,1-2.855,7.35,18.02,18.02,0,0,0-3.111-1.863,17.644,17.644,0,0,0,1.192-5.487ZM3.4,42.614a4.75,4.75,0,0,0,1.147,3.1A7.67,7.67,0,0,0,.529,52.486V53.6a4.3,4.3,0,0,0,4.308,4.321h6.694a4.292,4.292,0,0,0,4.3-4.321V52.486a7.649,7.649,0,0,0-4.011-6.765A4.783,4.783,0,1,0,3.4,42.614Zm42.092.276a4.7,4.7,0,0,0,.994,2.916,7.683,7.683,0,0,0-3.869,6.679V53.6a4.309,4.309,0,0,0,4.308,4.321h6.694A4.3,4.3,0,0,0,57.922,53.6V52.486A7.649,7.649,0,0,0,54.059,45.8a4.729,4.729,0,0,0,1-2.914,4.784,4.784,0,0,0-9.567,0ZM8.183,39.748A2.871,2.871,0,1,1,5.31,42.614a2.867,2.867,0,0,1,2.873-2.866Zm42.084.275A2.871,2.871,0,1,1,47.4,42.89,2.875,2.875,0,0,1,50.268,40.023Zm-22,.714v5.45a15.967,15.967,0,0,1-3.852-4.7,15.523,15.523,0,0,1,3.852-.747Zm1.913,0a15.5,15.5,0,0,1,3.856.745,15.9,15.9,0,0,1-3.849,4.7ZM22.625,42.2A17.739,17.739,0,0,0,26.4,47.1a13.3,13.3,0,0,1-6.378-3.363,15.979,15.979,0,0,1,2.6-1.538Zm13.2,0a16.035,16.035,0,0,1,2.6,1.541A13.421,13.421,0,0,1,32.041,47.1a17.745,17.745,0,0,0,3.785-4.9ZM6.321,47.027a4.779,4.779,0,0,0,3.717,0,5.745,5.745,0,0,1,3.879,5.461V53.6a2.384,2.384,0,0,1-2.386,2.408H4.837A2.386,2.386,0,0,1,2.444,53.6V52.486a5.733,5.733,0,0,1,3.877-5.459Zm46.131.121a5.741,5.741,0,0,1,3.557,5.337V53.6a2.388,2.388,0,0,1-2.393,2.408H46.921a2.4,2.4,0,0,1-2.4-2.408V52.486a5.787,5.787,0,0,1,3.562-5.339,4.759,4.759,0,0,0,4.364,0ZM37.629,54.343a22.009,22.009,0,0,1-16.812,0,.88.88,0,0,0-.448-.071.956.956,0,0,0-.278,1.836,23.9,23.9,0,0,0,18.266,0,.955.955,0,0,0-.3-1.836A.921.921,0,0,0,37.629,54.343Z" transform="translate(0 0)"/>
    </g>
  </g>
</svg>
