<svg xmlns="http://www.w3.org/2000/svg" xmlns:xlink="http://www.w3.org/1999/xlink" width="93.934" height="93.934" viewBox="0 0 93.934 93.934">
  <defs>
    <filter id="Trazado_982547" x="0" y="0" width="93.934" height="93.934" filterUnits="userSpaceOnUse">
      <feOffset dy="3" input="SourceAlpha"/>
      <feGaussianBlur stdDeviation="3" result="blur"/>
      <feFlood flood-opacity="0.161"/>
      <feComposite operator="in" in2="blur"/>
      <feComposite in="SourceGraphic"/>
    </filter>
  </defs>
  <g id="Grupo_1183705" data-name="Grupo 1183705" transform="translate(-609.461 -1221)">
    <g id="Grupo_1180688" data-name="Grupo 1180688" transform="translate(0.461 -1433)">
      <g id="Grupo_1179673" data-name="Grupo 1179673" transform="translate(0 47)">
        <g id="Grupo_1173794" data-name="Grupo 1173794" transform="translate(419.967 621)">
          <g id="Grupo_1167337" data-name="Grupo 1167337" transform="translate(198.033 1992)">
            <g id="Grupo_1166720" data-name="Grupo 1166720">
              <g id="Grupo_1164305" data-name="Grupo 1164305">
                <g id="Grupo_1163948" data-name="Grupo 1163948">
                  <g id="Grupo_1158168" data-name="Grupo 1158168">
                    <g id="Grupo_1152576" data-name="Grupo 1152576">
                      <g id="Grupo_1148633" data-name="Grupo 1148633">
                        <g id="Grupo_1148525" data-name="Grupo 1148525">
                          <g transform="matrix(1, 0, 0, 1, -9, -6)" filter="url(#Trazado_982547)">
                            <g id="Trazado_982547-2" data-name="Trazado 982547" transform="translate(9 6)" fill="#e9f9fd">
                              <path d="M 37.966796875 74.43359375 C 33.04315185546875 74.43359375 28.26757431030273 73.46962738037109 23.77274131774902 71.56847381591797 C 19.43047523498535 69.73184967041016 15.53040790557861 67.10224914550781 12.18087482452393 63.75271987915039 C 8.831341743469238 60.4031867980957 6.201741218566895 56.50312042236328 4.365118980407715 52.16086196899414 C 2.463963508605957 47.66601943969727 1.499996900558472 42.89044189453125 1.499996900558472 37.966796875 C 1.499996900558472 33.04315185546875 2.463963508605957 28.26757431030273 4.365118980407715 23.77274131774902 C 6.201741218566895 19.43047523498535 8.831341743469238 15.53040790557861 12.18087482452393 12.18087482452393 C 15.53040790557861 8.831341743469238 19.43047523498535 6.201741218566895 23.77274131774902 4.365118980407715 C 28.26757431030273 2.463963508605957 33.04315185546875 1.499996900558472 37.966796875 1.499996900558472 C 42.89044189453125 1.499996900558472 47.66601943969727 2.463963508605957 52.16086196899414 4.365118980407715 C 56.50312042236328 6.201741218566895 60.4031867980957 8.831341743469238 63.75271987915039 12.18087482452393 C 67.10224914550781 15.53040790557861 69.73184967041016 19.43047523498535 71.56847381591797 23.77274131774902 C 73.46962738037109 28.26757431030273 74.43359375 33.04315185546875 74.43359375 37.966796875 C 74.43359375 42.89044189453125 73.46962738037109 47.66601943969727 71.56847381591797 52.16086196899414 C 69.73184967041016 56.50313186645508 67.10224914550781 60.4031867980957 63.75271987915039 63.75271987915039 C 60.4031867980957 67.10224914550781 56.50313186645508 69.73184967041016 52.16086196899414 71.56847381591797 C 47.66601943969727 73.46962738037109 42.89044189453125 74.43359375 37.966796875 74.43359375 Z" stroke="none"/>
                              <path d="M 37.966796875 3 C 33.2449836730957 3 28.66600799560547 3.924095153808594 24.35705947875977 5.746635437011719 C 20.19359588623047 7.507637023925781 16.45379638671875 10.02928161621094 13.24153518676758 13.24153518676758 C 10.02927398681641 16.45379638671875 7.507621765136719 20.19359588623047 5.746635437011719 24.35705947875977 C 3.924095153808594 28.66600799560547 3 33.2449836730957 3 37.966796875 C 3 42.6886100769043 3.924095153808594 47.26758575439453 5.746635437011719 51.57653427124023 C 7.507621765136719 55.73999786376953 10.02927398681641 59.47979736328125 13.24153518676758 62.69205856323242 C 16.45379638671875 65.90431976318359 20.19359588623047 68.42597198486328 24.35705947875977 70.18695831298828 C 28.66600799560547 72.00949859619141 33.2449836730957 72.93359375 37.966796875 72.93359375 C 42.6886100769043 72.93359375 47.26758575439453 72.00949859619141 51.57653427124023 70.18695831298828 C 55.73999786376953 68.42597198486328 59.47979736328125 65.90431976318359 62.69205856323242 62.69205856323242 C 65.90431976318359 59.47979736328125 68.42597198486328 55.73999786376953 70.18695831298828 51.57653427124023 C 72.00949859619141 47.26758575439453 72.93359375 42.6886100769043 72.93359375 37.966796875 C 72.93359375 33.2449836730957 72.00949859619141 28.66600799560547 70.18695831298828 24.35705947875977 C 68.42597198486328 20.19359588623047 65.90431976318359 16.45379638671875 62.69205856323242 13.24153518676758 C 59.47979736328125 10.02928161621094 55.73999786376953 7.507637023925781 51.57653427124023 5.746635437011719 C 47.26758575439453 3.924095153808594 42.6886100769043 3 37.966796875 3 M 37.966796875 0 C 58.93528366088867 0 75.93359375 16.99832153320312 75.93359375 37.966796875 C 75.93359375 58.93528366088867 58.93528366088867 75.93359375 37.966796875 75.93359375 C 16.99831008911133 75.93359375 0 58.93528366088867 0 37.966796875 C 0 16.99832153320312 16.99831008911133 0 37.966796875 0 Z" stroke="none" fill="#1d7083"/>
                            </g>
                          </g>
                        </g>
                      </g>
                    </g>
                  </g>
                </g>
              </g>
            </g>
          </g>
        </g>
      </g>
    </g>
    <g id="sancion" transform="translate(629.332 1237.437)">
      <g id="Grupo_1183703" data-name="Grupo 1183703" transform="translate(0.794 1.279)">
        <path id="Trazado_1043904" data-name="Trazado 1043904" d="M58.151,207.723H9.453A1.953,1.953,0,0,1,7.5,205.77v-10.8a1.953,1.953,0,0,1,1.953-1.953h48.7a1.953,1.953,0,0,1,1.953,1.953v10.8A1.953,1.953,0,0,1,58.151,207.723Z" transform="translate(-7.5 -173.433)" fill="#fe99a0"/>
        <path id="Trazado_1043905" data-name="Trazado 1043905" d="M453.488,194.969v10.8a1.954,1.954,0,0,1-1.953,1.954H447.45a1.954,1.954,0,0,0,1.954-1.954v-10.8a1.954,1.954,0,0,0-1.954-1.954h4.086A1.954,1.954,0,0,1,453.488,194.969Z" transform="translate(-400.884 -173.431)" fill="#fd8087"/>
        <g id="Grupo_1183699" data-name="Grupo 1183699" transform="translate(4.499 3.404)">
          <path id="Trazado_1043906" data-name="Trazado 1043906" d="M92.177,74.207a1.431,1.431,0,0,0-1.261.749,21.684,21.684,0,0,1-38.211,0,1.436,1.436,0,1,0-2.521,1.377,24.622,24.622,0,0,0,21.761,12.91,24.624,24.624,0,0,0,21.5-12.927,1.435,1.435,0,0,0-1.27-2.109ZM71.81,43a21.683,21.683,0,0,1,17.938,9.51,1.436,1.436,0,1,0,2.381-1.606,24.856,24.856,0,0,0-2.961-3.571,24.549,24.549,0,0,0-34.717,0,24.863,24.863,0,0,0-2.961,3.571,1.436,1.436,0,1,0,2.381,1.606A21.683,21.683,0,0,1,71.81,43Z" transform="translate(-50.007 -40.145)" fill="#fd8087"/>
        </g>
        <g id="Grupo_1183700" data-name="Grupo 1183700" transform="translate(13.667 10.853)">
          <path id="Trazado_1043907" data-name="Trazado 1043907" d="M160.463,137.137a1.44,1.44,0,0,0-1.028.438,14.22,14.22,0,0,1-20.358,0,1.428,1.428,0,1,0-2.043,2,17.072,17.072,0,0,0,24.443,0A1.429,1.429,0,0,0,160.463,137.137Zm-11.207-23.755a14.161,14.161,0,0,1,7.982,2.453,1.428,1.428,0,0,0,1.6-2.365,17.067,17.067,0,0,0-19.169,0,1.428,1.428,0,0,0,1.6,2.365A14.161,14.161,0,0,1,149.256,113.383Z" transform="translate(-136.62 -110.525)" fill="#fd8087"/>
        </g>
        <g id="Grupo_1183701" data-name="Grupo 1183701" transform="translate(29.95 0)">
          <path id="Trazado_1043908" data-name="Trazado 1043908" d="M308.649,24.394h-16.7a1.481,1.481,0,0,1-1.258-2.262l8.35-13.448a1.481,1.481,0,0,1,2.516,0l8.35,13.448A1.481,1.481,0,0,1,308.649,24.394Z" transform="translate(-290.466 -7.985)" fill="#fee97d"/>
        </g>
        <g id="Grupo_1183702" data-name="Grupo 1183702" transform="translate(37.741 0)">
          <path id="Trazado_1043909" data-name="Trazado 1043909" d="M374.463,24.4h-4.086a1.481,1.481,0,0,0,1.258-2.262L364.07,9.95l.784-1.263a1.481,1.481,0,0,1,2.516,0l8.35,13.448A1.481,1.481,0,0,1,374.463,24.4Z" transform="translate(-364.07 -7.988)" fill="#fee45a"/>
        </g>
      </g>
      <g id="Grupo_1183704" data-name="Grupo 1183704" transform="translate(0 0.485)">
        <path id="Trazado_1043910" data-name="Trazado 1043910" d="M51.445,185.519H2.747A2.75,2.75,0,0,0,0,188.266v10.8a2.75,2.75,0,0,0,2.747,2.747H7.7a.794.794,0,0,0,0-1.588H2.747a1.161,1.161,0,0,1-1.159-1.159v-10.8a1.161,1.161,0,0,1,1.159-1.159h48.7a1.161,1.161,0,0,1,1.159,1.159v10.8a1.161,1.161,0,0,1-1.159,1.159H11.418a.794.794,0,0,0,0,1.588H51.445a2.75,2.75,0,0,0,2.747-2.747v-10.8A2.75,2.75,0,0,0,51.445,185.519Z" transform="translate(0 -165.934)"/>
        <path id="Trazado_1043911" data-name="Trazado 1043911" d="M89.835,236.585l1.329-3.489,1.316,3.487a.794.794,0,1,0,1.485-.561l-1.946-5.157-.009-.022a.909.909,0,0,0-.844-.565h0a.909.909,0,0,0-.843.567l-.007.018-1.964,5.156a.794.794,0,1,0,1.484.565Z" transform="translate(-78.953 -205.957)"/>
        <path id="Trazado_1043912" data-name="Trazado 1043912" d="M153.161,230.323a.794.794,0,0,0-.558.758v5.22a.794.794,0,0,0,1.588,0v-2.674l2.083,3.016a.86.86,0,0,0,.973.354.887.887,0,0,0,.609-.881l-.049-5.054a.794.794,0,1,0-1.588.015l.026,2.73-2.2-3.179A.794.794,0,0,0,153.161,230.323Z" transform="translate(-136.451 -205.955)"/>
        <path id="Trazado_1043913" data-name="Trazado 1043913" d="M429.737,230.324a.794.794,0,0,0-.558.758v5.22a.794.794,0,0,0,1.588,0v-2.674l2.083,3.016a.86.86,0,0,0,.973.354.887.887,0,0,0,.609-.881l-.049-5.054a.794.794,0,0,0-.794-.786h-.008a.794.794,0,0,0-.786.8l.026,2.73-2.2-3.179A.794.794,0,0,0,429.737,230.324Z" transform="translate(-383.753 -205.956)"/>
        <path id="Trazado_1043914" data-name="Trazado 1043914" d="M329.7,236.3v-5.23a.794.794,0,0,0-1.588,0v5.23a.794.794,0,0,0,1.588,0Z" transform="translate(-293.38 -205.956)"/>
        <path id="Trazado_1043915" data-name="Trazado 1043915" d="M215.678,231.866a1.811,1.811,0,0,1,1.018.311.794.794,0,1,0,.889-1.316,3.409,3.409,0,1,0-1.906,6.235,2.852,2.852,0,0,0,2.256-1.022.794.794,0,0,0-1.216-1.02,1.268,1.268,0,0,1-1.039.455,1.821,1.821,0,1,1,0-3.642Z" transform="translate(-189.802 -205.956)"/>
        <path id="Trazado_1043916" data-name="Trazado 1043916" d="M35.81,235.511A1.679,1.679,0,0,1,34.576,235a.794.794,0,1,0-1.176,1.066A3.245,3.245,0,0,0,35.81,237.1a2.3,2.3,0,0,0,2.339-1.788,2.1,2.1,0,0,0-1.61-2.325c-.618-.228-1.195-.476-1.4-.564a.225.225,0,0,1-.065-.2c.009-.066.059-.227.318-.3a1.6,1.6,0,0,1,1.31.307A.794.794,0,0,0,37.722,231a3.194,3.194,0,0,0-2.785-.608,1.893,1.893,0,0,0-.518,3.442c.03.014.755.336,1.57.637.316.116.638.324.6.556A.75.75,0,0,1,35.81,235.511Z" transform="translate(-29.681 -205.958)"/>
        <path id="Trazado_1043917" data-name="Trazado 1043917" d="M277.99,237.1a.794.794,0,0,0,.794-.794v-4.436h.656a.794.794,0,0,0,0-1.588h-2.888a.794.794,0,0,0,0,1.588h.645V236.3A.794.794,0,0,0,277.99,237.1Z" transform="translate(-246.571 -205.956)"/>
        <path id="Trazado_1043918" data-name="Trazado 1043918" d="M361.095,233.687a3.409,3.409,0,1,0-3.409,3.409A3.413,3.413,0,0,0,361.095,233.687Zm-5.23,0a1.821,1.821,0,1,1,1.821,1.821A1.823,1.823,0,0,1,355.865,233.687Z" transform="translate(-316.779 -205.956)"/>
        <path id="Trazado_1043919" data-name="Trazado 1043919" d="M56.4,18.482a2.222,2.222,0,0,0,1.049-.265,2.277,2.277,0,0,0,.8-.72A20.89,20.89,0,0,1,82.192,9.425l-1.636,2.634A17.879,17.879,0,0,0,65.5,14.421,2.222,2.222,0,0,0,67.99,18.1a13.427,13.427,0,0,1,10.393-2.008,2.282,2.282,0,0,0,2.275,2.391h16.7a2.274,2.274,0,0,0,1.932-3.474L98.4,13.58a.794.794,0,1,0-1.349.837l.886,1.427a.687.687,0,0,1-.583,1.049h-16.7a.687.687,0,0,1-.583-1.049L88.424,2.4a.687.687,0,0,1,1.167,0l5.5,8.864a.794.794,0,0,0,1.349-.837L90.94,1.56a2.275,2.275,0,0,0-3.865,0l-2.48,3.994a25.4,25.4,0,0,0-26.988,5.757A25.689,25.689,0,0,0,54.55,15,2.23,2.23,0,0,0,56.4,18.482Zm10.7-1.694a.634.634,0,0,1-.707-1.053,16.3,16.3,0,0,1,13.3-2.271l-.7,1.135A15.018,15.018,0,0,0,67.1,16.787Zm-11.233-.9a24.1,24.1,0,0,1,2.867-3.457A23.809,23.809,0,0,1,83.74,6.93L83.05,8.043A22.47,22.47,0,0,0,56.933,16.6a.673.673,0,0,1-.24.216.642.642,0,0,1-.83-.928Z" transform="translate(-48.43 -0.485)"/>
        <path id="Trazado_1043920" data-name="Trazado 1043920" d="M85.462,354.455h0a2.222,2.222,0,0,0-1.96,1.167,20.89,20.89,0,0,1-36.814,0,2.23,2.23,0,0,0-3.919,2.13A25.395,25.395,0,0,0,65.1,371.079h.137a25.417,25.417,0,0,0,22.2-13.345,2.229,2.229,0,0,0-1.969-3.279Zm.571,2.526a23.848,23.848,0,0,1-4.141,5.552,23.762,23.762,0,0,1-33.484.11A23.854,23.854,0,0,1,44.167,357a.641.641,0,0,1,.013-.644.629.629,0,0,1,.549-.311.636.636,0,0,1,.562.332,22.478,22.478,0,0,0,39.609,0,.636.636,0,0,1,.562-.332h0a.638.638,0,0,1,.555.316A.622.622,0,0,1,86.033,356.981Z" transform="translate(-37.999 -316.989)"/>
        <path id="Trazado_1043921" data-name="Trazado 1043921" d="M377.784,53.544v-4.86a.794.794,0,0,0-1.588,0v4.86a.794.794,0,0,0,1.588,0Z" transform="translate(-336.378 -42.872)"/>
        <path id="Trazado_1043922" data-name="Trazado 1043922" d="M155.317,358.237a2.223,2.223,0,0,0-1.582-3.782,2.248,2.248,0,0,0-1.6.677,13.427,13.427,0,0,1-19.223,0,2.248,2.248,0,0,0-1.6-.676,2.223,2.223,0,0,0-1.582,3.782,17.866,17.866,0,0,0,25.579,0Zm-24.578-1.81a.609.609,0,0,1,.582-.385.643.643,0,0,1,.461.2,15.014,15.014,0,0,0,21.493,0,.643.643,0,0,1,.461-.2.609.609,0,0,1,.582.385.632.632,0,0,1-.135.7,16.278,16.278,0,0,1-23.308,0,.632.632,0,0,1-.135-.7Z" transform="translate(-115.432 -316.989)"/>
        <circle id="Elipse_13191" data-name="Elipse 13191" cx="0.794" cy="0.794" r="0.794" transform="translate(39.819 13.072)"/>
      </g>
    </g>
  </g>
</svg>
