<svg xmlns="http://www.w3.org/2000/svg" xmlns:xlink="http://www.w3.org/1999/xlink" width="93.934" height="93.934" viewBox="0 0 93.934 93.934">
  <defs>
    <filter id="Trazado_982547" x="0" y="0" width="93.934" height="93.934" filterUnits="userSpaceOnUse">
      <feOffset dy="3" input="SourceAlpha"/>
      <feGaussianBlur stdDeviation="3" result="blur"/>
      <feFlood flood-opacity="0.161"/>
      <feComposite operator="in" in2="blur"/>
      <feComposite in="SourceGraphic"/>
    </filter>
  </defs>
  <g id="Grupo_1183707" data-name="Grupo 1183707" transform="translate(-1027 -1221)">
    <g id="Grupo_1180693" data-name="Grupo 1180693" transform="translate(-5 -1433)">
      <g id="Grupo_1179675" data-name="Grupo 1179675" transform="translate(3 58)">
        <g id="Grupo_1173795" data-name="Grupo 1173795" transform="translate(839.967 610)">
          <g id="Grupo_1167337" data-name="Grupo 1167337" transform="translate(198.033 1992)">
            <g id="Grupo_1166720" data-name="Grupo 1166720">
              <g id="Grupo_1164305" data-name="Grupo 1164305">
                <g id="Grupo_1163948" data-name="Grupo 1163948">
                  <g id="Grupo_1158168" data-name="Grupo 1158168">
                    <g id="Grupo_1152576" data-name="Grupo 1152576">
                      <g id="Grupo_1148633" data-name="Grupo 1148633">
                        <g id="Grupo_1148525" data-name="Grupo 1148525">
                          <g transform="matrix(1, 0, 0, 1, -9, -6)" filter="url(#Trazado_982547)">
                            <g id="Trazado_982547-2" data-name="Trazado 982547" transform="translate(9 6)" fill="#e9f9fd">
                              <path d="M 37.966796875 74.43359375 C 33.04315185546875 74.43359375 28.26757431030273 73.46962738037109 23.77274131774902 71.56847381591797 C 19.43047523498535 69.73184967041016 15.53040790557861 67.10224914550781 12.18087482452393 63.75271987915039 C 8.831341743469238 60.4031867980957 6.201741218566895 56.50312042236328 4.365118980407715 52.16086196899414 C 2.463963508605957 47.66601943969727 1.499996900558472 42.89044189453125 1.499996900558472 37.966796875 C 1.499996900558472 33.04315185546875 2.463963508605957 28.26757431030273 4.365118980407715 23.77274131774902 C 6.201741218566895 19.43047523498535 8.831341743469238 15.53040790557861 12.18087482452393 12.18087482452393 C 15.53040790557861 8.831341743469238 19.43047523498535 6.201741218566895 23.77274131774902 4.365118980407715 C 28.26757431030273 2.463963508605957 33.04315185546875 1.499996900558472 37.966796875 1.499996900558472 C 42.89044189453125 1.499996900558472 47.66601943969727 2.463963508605957 52.16086196899414 4.365118980407715 C 56.50312042236328 6.201741218566895 60.4031867980957 8.831341743469238 63.75271987915039 12.18087482452393 C 67.10224914550781 15.53040790557861 69.73184967041016 19.43047523498535 71.56847381591797 23.77274131774902 C 73.46962738037109 28.26757431030273 74.43359375 33.04315185546875 74.43359375 37.966796875 C 74.43359375 42.89044189453125 73.46962738037109 47.66601943969727 71.56847381591797 52.16086196899414 C 69.73184967041016 56.50313186645508 67.10224914550781 60.4031867980957 63.75271987915039 63.75271987915039 C 60.4031867980957 67.10224914550781 56.50313186645508 69.73184967041016 52.16086196899414 71.56847381591797 C 47.66601943969727 73.46962738037109 42.89044189453125 74.43359375 37.966796875 74.43359375 Z" stroke="none"/>
                              <path d="M 37.966796875 3 C 33.2449836730957 3 28.66600799560547 3.924095153808594 24.35705947875977 5.746635437011719 C 20.19359588623047 7.507637023925781 16.45379638671875 10.02928161621094 13.24153518676758 13.24153518676758 C 10.02927398681641 16.45379638671875 7.507621765136719 20.19359588623047 5.746635437011719 24.35705947875977 C 3.924095153808594 28.66600799560547 3 33.2449836730957 3 37.966796875 C 3 42.6886100769043 3.924095153808594 47.26758575439453 5.746635437011719 51.57653427124023 C 7.507621765136719 55.73999786376953 10.02927398681641 59.47979736328125 13.24153518676758 62.69205856323242 C 16.45379638671875 65.90431976318359 20.19359588623047 68.42597198486328 24.35705947875977 70.18695831298828 C 28.66600799560547 72.00949859619141 33.2449836730957 72.93359375 37.966796875 72.93359375 C 42.6886100769043 72.93359375 47.26758575439453 72.00949859619141 51.57653427124023 70.18695831298828 C 55.73999786376953 68.42597198486328 59.47979736328125 65.90431976318359 62.69205856323242 62.69205856323242 C 65.90431976318359 59.47979736328125 68.42597198486328 55.73999786376953 70.18695831298828 51.57653427124023 C 72.00949859619141 47.26758575439453 72.93359375 42.6886100769043 72.93359375 37.966796875 C 72.93359375 33.2449836730957 72.00949859619141 28.66600799560547 70.18695831298828 24.35705947875977 C 68.42597198486328 20.19359588623047 65.90431976318359 16.45379638671875 62.69205856323242 13.24153518676758 C 59.47979736328125 10.02928161621094 55.73999786376953 7.507637023925781 51.57653427124023 5.746635437011719 C 47.26758575439453 3.924095153808594 42.6886100769043 3 37.966796875 3 M 37.966796875 0 C 58.93528366088867 0 75.93359375 16.99832153320312 75.93359375 37.966796875 C 75.93359375 58.93528366088867 58.93528366088867 75.93359375 37.966796875 75.93359375 C 16.99831008911133 75.93359375 0 58.93528366088867 0 37.966796875 C 0 16.99832153320312 16.99831008911133 0 37.966796875 0 Z" stroke="none" fill="#1d7083"/>
                            </g>
                          </g>
                        </g>
                      </g>
                    </g>
                  </g>
                </g>
              </g>
            </g>
          </g>
        </g>
      </g>
    </g>
    <g id="Page-1" transform="translate(1051 1241.001)">
      <g id="_059---Money-Bag" data-name="059---Money-Bag" transform="translate(0 -0.001)">
        <path id="Shape" d="M40.453,45.7H25.168V36.14c0-1.322-2.318-2.389-5.177-2.389A10.448,10.448,0,0,0,18,33.934V25.261c2.519-5.874,6.816-10.143,10.633-12.035a4.321,4.321,0,0,0,2.254.613h4.46a4.3,4.3,0,0,0,2.27-.629c1.736.86,9.566,5.344,12.393,17.355C53.2,44.105,43.638,45.7,40.453,45.7Z" transform="translate(-3.664 -3.484)" fill="#ffdc00"/>
        <path id="Shape-2" data-name="Shape" d="M54.662,30.565C51.834,18.554,44.005,14.07,42.269,13.21a4.156,4.156,0,0,1-1.414.538c2.731,1.631,8.96,6.384,11.417,16.818C55.458,44.105,45.9,45.7,42.715,45.7H45.1c3.186,0,12.744-1.593,9.558-15.133Z" transform="translate(-8.315 -3.484)" fill="#fec108"/>
        <path id="Shape-3" data-name="Shape" d="M42.921,2.932c.008,1.752-.342,5.575-3.146,7.766a2.49,2.49,0,0,1-.335.231,4.3,4.3,0,0,1-2.27.629h-4.46a4.321,4.321,0,0,1-2.254-.613c-.119-.08-.239-.159-.35-.247-2.8-2.19-3.146-6.013-3.146-7.766a.8.8,0,0,1,1.1-.733c1.019.43,1.362,1.394,2.907,1.394C32.949,3.593,32.949,2,34.933,2s1.991,1.593,3.982,1.593c1.545,0,1.888-.972,2.907-1.394a.8.8,0,0,1,1.1.733Z" transform="translate(-5.487 -1.203)" fill="#ffdc00"/>
        <path id="Shape-4" data-name="Shape" d="M43.821,2.235a6.428,6.428,0,0,0-1.29.878c-.011,1.809-.413,5.487-3.144,7.621a2.49,2.49,0,0,1-.335.231,4.3,4.3,0,0,1-2.27.629h2.389a4.3,4.3,0,0,0,2.27-.629,2.49,2.49,0,0,0,.335-.231c2.8-2.19,3.152-6.013,3.144-7.766a.8.8,0,0,0-1.1-.733Z" transform="translate(-7.486 -1.239)" fill="#fec108"/>
        <ellipse id="Oval" cx="5.177" cy="2.389" rx="5.177" ry="2.389" transform="translate(8.761 3.983)" fill="#ffdc00"/>
        <path id="Shape-5" data-name="Shape" d="M21.354,9v7.949A26.124,26.124,0,0,0,16.575,24.4V20.151c0-1.322-2.318-2.389-5.177-2.389-.135,0-.263,0-.4.008V9c0,1.322,2.318,2.389,5.177,2.389S21.354,10.322,21.354,9Z" transform="translate(-2.239 -2.628)" fill="#ff9801"/>
        <path id="Shape-6" data-name="Shape" d="M15.354,22.389c0,1.322-2.318,2.389-5.177,2.389S5,23.712,5,22.389c0-1.258,2.1-2.286,4.779-2.381.135-.008.263-.008.4-.008C13.036,20,15.354,21.067,15.354,22.389Z" transform="translate(-1.018 -4.866)" fill="#ffdc00"/>
        <path id="Shape-7" data-name="Shape" d="M15.354,23V35.927c-1.872.358-3.186,1.211-3.186,2.206V46.1c0-1.322-2.318-2.389-5.177-2.389A10.448,10.448,0,0,0,5,43.891V23c0,1.322,2.318,2.389,5.177,2.389S15.354,24.322,15.354,23Z" transform="translate(-1.018 -5.477)" fill="#ff9801"/>
        <path id="Shape-8" data-name="Shape" d="M11.354,51.389c0,1.322-2.318,2.389-5.177,2.389S1,52.712,1,51.389c0-1,1.314-1.848,3.186-2.206A10.448,10.448,0,0,1,6.177,49C9.036,49,11.354,50.067,11.354,51.389Z" transform="translate(-0.204 -10.769)" fill="#ffeb3a"/>
        <path id="Shape-9" data-name="Shape" d="M11.354,52v3.982c0,1.322-2.318,2.389-5.177,2.389S1,57.3,1,55.982V52c0,1.322,2.318,2.389,5.177,2.389S11.354,53.322,11.354,52Z" transform="translate(-0.204 -11.379)" fill="#ffdc00"/>
        <path id="Shape-10" data-name="Shape" d="M24.354,41.389c0,1.322-2.318,2.389-5.177,2.389S14,42.712,14,41.389c0-1,1.314-1.848,3.186-2.206A10.448,10.448,0,0,1,19.177,39C22.036,39,24.354,40.067,24.354,41.389Z" transform="translate(-2.849 -8.733)" fill="#ffeb3a"/>
        <path id="Shape-11" data-name="Shape" d="M24.354,42V52.354c0,1.322-2.318,2.389-5.177,2.389S14,53.676,14,52.354V42c0,1.322,2.318,2.389,5.177,2.389S24.354,43.322,24.354,42Z" transform="translate(-2.849 -9.344)" fill="#ffdc00"/>
        <g id="Grupo_1183706" data-name="Grupo 1183706">
          <path id="Shape-12" data-name="Shape" d="M37.646,12.2c3.951.3,5.223,1.942,5.261,1.991a.8.8,0,0,0,1.319-.893c-.057-.086-1.164-1.666-4.381-2.389a3.653,3.653,0,0,0,1.333-2.742,4.09,4.09,0,0,0-3.046-3.71,14.528,14.528,0,0,0,.107-1.734A1.593,1.593,0,0,0,36.024,1.26a4.55,4.55,0,0,0-1.109.711,2.093,2.093,0,0,1-2.976,0,3.664,3.664,0,0,0-4.972,0,2.094,2.094,0,0,1-2.977,0,4.557,4.557,0,0,0-1.106-.71,1.593,1.593,0,0,0-2.212,1.464c0,1.982.392,5.516,2.873,7.89a21.973,21.973,0,0,0-3.634,2.765V7.372c0-1.816-2.569-3.186-5.974-3.186S7.965,5.556,7.965,7.372V15.4c-2.793.279-4.779,1.533-4.779,3.126V38.78C1.262,39.3,0,40.346,0,41.62V45.6c0,1.816,2.569,3.186,5.974,3.186,3.045,0,5.416-1.1,5.884-2.628A8.947,8.947,0,0,0,16.328,47.2c3.4,0,5.974-1.37,5.974-3.186V33.655c0-1.816-2.569-3.186-5.974-3.186a11.818,11.818,0,0,0-1.195.06V18.522c0-1.744-2.371-3.073-5.575-3.176V9.577a9.07,9.07,0,0,0,4.381.98,9.07,9.07,0,0,0,4.381-.98v5.432c-.524.587-1.052,1.227-1.572,1.935a.8.8,0,0,0,1.284.941,24.143,24.143,0,0,1,1.642-1.991l.018-.021a20.938,20.938,0,0,1,5.286-4.236,5.054,5.054,0,0,0,1.229.409l-2.053,1.916a.8.8,0,0,0,1.088,1.164l3.186-2.972h.254v2.389a.8.8,0,1,0,1.593,0V12.15h.254l3.186,2.972A.8.8,0,0,0,34.8,13.958l-2.067-1.924a5.018,5.018,0,0,0,1.221-.41c2.105,1.139,9.025,5.639,11.617,16.639,1.127,4.788.721,8.451-1.207,10.885-2.466,3.11-6.745,3.27-7.577,3.27h-11.3a.8.8,0,1,0,0,1.593h11.3c1.354,0,5.978-.28,8.825-3.873,2.244-2.835,2.753-6.952,1.509-12.239a27.767,27.767,0,0,0-9.476-15.7ZM5.974,40.027c2.634,0,4.381.956,4.381,1.593s-1.747,1.593-4.381,1.593-4.381-.956-4.381-1.593S3.34,40.027,5.974,40.027Zm0,7.168c-2.634,0-4.381-.956-4.381-1.593V43.825a9.07,9.07,0,0,0,4.381.98,9.07,9.07,0,0,0,4.381-.98V45.6C10.354,46.239,8.607,47.2,5.974,47.2ZM16.328,45.6c-2.634,0-4.381-.956-4.381-1.593V35.861a9.07,9.07,0,0,0,4.381.98,9.07,9.07,0,0,0,4.381-.98v8.149C20.708,44.646,18.962,45.6,16.328,45.6Zm4.381-11.947c0,.637-1.747,1.593-4.381,1.593s-4.381-.956-4.381-1.593,1.747-1.593,4.381-1.593S20.708,33.018,20.708,33.655Zm-10.354,0v5.759a9.07,9.07,0,0,0-4.381-.98,11.819,11.819,0,0,0-1.195.06V20.728a9.07,9.07,0,0,0,4.381.98,9.07,9.07,0,0,0,4.381-.98V30.816C11.616,31.333,10.354,32.381,10.354,33.655ZM13.54,18.522c0,.637-1.747,1.593-4.381,1.593s-4.381-.956-4.381-1.593,1.747-1.593,4.381-1.593S13.54,17.885,13.54,18.522Zm.4-9.558c-2.634,0-4.381-.956-4.381-1.593S11.3,5.779,13.938,5.779s4.381.956,4.381,1.593S16.572,8.965,13.938,8.965Zm25.646-.8c0,1.305-1.414,2.377-3.186,2.389a4.113,4.113,0,0,1-.881-.1,9.444,9.444,0,0,0,2.326-4.4,2.44,2.44,0,0,1,1.74,2.116ZM22.993,3.214a3.661,3.661,0,0,0,4.968,0,2.1,2.1,0,0,1,2.979,0,3.665,3.665,0,0,0,4.972,0,3.336,3.336,0,0,1,.73-.491c0,1.479-.275,5.136-2.841,7.14a3.416,3.416,0,0,1-2,.684,17.227,17.227,0,0,0,1.626-3.76.8.8,0,0,0-1.536-.427,14.612,14.612,0,0,1-2.009,4.2h-.819a14.749,14.749,0,0,1-2.009-4.2.8.8,0,1,0-1.535.428,17.239,17.239,0,0,0,1.627,3.763,3.425,3.425,0,0,1-2.041-.687c-2.566-2-2.841-5.661-2.841-7.135a3.115,3.115,0,0,1,.727.484Z" transform="translate(0 -0.999)"/>
          <path id="Shape-13" data-name="Shape" d="M52.314,46.3a7.646,7.646,0,0,0,1.462-4.465A.8.8,0,0,0,53.019,41a.805.805,0,0,0-.834.757,6.1,6.1,0,0,1-1.121,3.552c-1.554,1.963-4.5,2.062-5.078,2.062a.8.8,0,0,0,0,1.593C46.691,48.965,50.3,48.836,52.314,46.3Z" transform="translate(-9.197 -9.14)"/>
          <path id="Shape-14" data-name="Shape" d="M33.593,32.558a.8.8,0,1,0-1.593,0,3.186,3.186,0,0,0,3.186,3.186v.8a.8.8,0,0,0,1.593,0v-.8a3.186,3.186,0,0,0,0-6.372V26.186a1.593,1.593,0,0,1,1.593,1.593.8.8,0,1,0,1.593,0,3.186,3.186,0,0,0-3.186-3.186v-.8a.8.8,0,0,0-1.593,0v.8a3.186,3.186,0,0,0,0,6.372v3.186A1.593,1.593,0,0,1,33.593,32.558Zm0-4.779a1.593,1.593,0,0,1,1.593-1.593v3.186A1.593,1.593,0,0,1,33.593,27.779Zm3.186,3.186a1.593,1.593,0,0,1,0,3.186Z" transform="translate(-6.513 -5.477)"/>
        </g>
      </g>
    </g>
  </g>
</svg>
