<svg xmlns="http://www.w3.org/2000/svg" xmlns:xlink="http://www.w3.org/1999/xlink" width="93.656" height="93.656" viewBox="0 0 93.656 93.656">
  <defs>
    <filter id="Trazado_982547" x="0" y="0" width="93.656" height="93.656" filterUnits="userSpaceOnUse">
      <feOffset dy="3" input="SourceAlpha"/>
      <feGaussianBlur stdDeviation="3" result="blur"/>
      <feFlood flood-opacity="0.161"/>
      <feComposite operator="in" in2="blur"/>
      <feComposite in="SourceGraphic"/>
    </filter>
  </defs>
  <g id="Grupo_1181676" data-name="Grupo 1181676" transform="translate(-827 -1233)">
    <g id="Grupo_1180315" data-name="Grupo 1180315" transform="translate(-3.461 -6557)">
      <g id="Grupo_1180312" data-name="Grupo 1180312">
        <g id="Grupo_1174895" data-name="Grupo 1174895" transform="translate(641.291 2507.168)">
          <g id="Grupo_1172067" data-name="Grupo 1172067" transform="translate(198.17 5288.832)">
            <g id="Grupo_1164308" data-name="Grupo 1164308" transform="translate(0 0)">
              <g id="Grupo_1163948" data-name="Grupo 1163948" transform="translate(0)">
                <g id="Grupo_1158168" data-name="Grupo 1158168" transform="translate(0)">
                  <g id="Grupo_1152576" data-name="Grupo 1152576">
                    <g id="Grupo_1148633" data-name="Grupo 1148633">
                      <g id="Grupo_1148525" data-name="Grupo 1148525">
                        <g transform="matrix(1, 0, 0, 1, -9, -6)" filter="url(#Trazado_982547)">
                          <g id="Trazado_982547-2" data-name="Trazado 982547" transform="translate(9 6)" fill="#e9f9fd">
                            <path d="M 37.8281364440918 74.15627288818359 C 32.92320251464844 74.15627288818359 28.16579246520996 73.19596862792969 23.68804740905762 71.30204772949219 C 19.36230278015137 69.47240447998047 15.47705841064453 66.85280609130859 12.1402702331543 63.51601409912109 C 8.803469657897949 60.17921447753906 6.1838698387146 56.29397964477539 4.354236602783203 51.96822357177734 C 2.460303068161011 47.49048233032227 1.500003099441528 42.73307037353516 1.500003099441528 37.8281364440918 C 1.500003099441528 32.92321395874023 2.460303068161011 28.16579246520996 4.354236602783203 23.68804740905762 C 6.1838698387146 19.36230278015137 8.803469657897949 15.47706985473633 12.1402702331543 12.1402702331543 C 15.47706985473633 8.803469657897949 19.36230278015137 6.1838698387146 23.68804740905762 4.354236602783203 C 28.16579246520996 2.460303068161011 32.92321395874023 1.500003099441528 37.8281364440918 1.500003099441528 C 42.73307037353516 1.500003099441528 47.49048233032227 2.460303068161011 51.96822357177734 4.354236602783203 C 56.29397964477539 6.1838698387146 60.17921447753906 8.803469657897949 63.51601409912109 12.1402702331543 C 66.85280609130859 15.47705841064453 69.47240447998047 19.36230278015137 71.30204772949219 23.68804740905762 C 73.19596862792969 28.16579246520996 74.15627288818359 32.92320251464844 74.15627288818359 37.8281364440918 C 74.15627288818359 42.73307037353516 73.19596862792969 47.49048233032227 71.30204772949219 51.96822357177734 C 69.47240447998047 56.29397964477539 66.85280609130859 60.17921447753906 63.51601409912109 63.51601409912109 C 60.17921447753906 66.85280609130859 56.29397964477539 69.47240447998047 51.96822357177734 71.30204772949219 C 47.49048233032227 73.19596862792969 42.73307037353516 74.15627288818359 37.8281364440918 74.15627288818359 Z" stroke="none"/>
                            <path d="M 37.8281364440918 3 C 33.12504959106445 3 28.56423568725586 3.920433044433594 24.27237319946289 5.735733032226562 C 20.12542343139648 7.48974609375 16.40044784545898 10.00139617919922 13.20092391967773 13.20092391967773 C 10.00139617919922 16.40044784545898 7.48974609375 20.12542343139648 5.735733032226562 24.27237319946289 C 3.920433044433594 28.56423568725586 3 33.12504959106445 3 37.8281364440918 C 3 42.53122329711914 3.920433044433594 47.09203720092773 5.735733032226562 51.3838996887207 C 7.48974609375 55.53084945678711 10.00139617919922 59.25582122802734 13.20092391967773 62.45534896850586 C 16.40044784545898 65.65487670898438 20.12542343139648 68.16652679443359 24.27237319946289 69.92053985595703 C 28.56423568725586 71.73583984375 33.12504959106445 72.65627288818359 37.8281364440918 72.65627288818359 C 42.53122329711914 72.65627288818359 47.09203720092773 71.73583984375 51.3838996887207 69.92053985595703 C 55.53084945678711 68.16652679443359 59.25582122802734 65.65487670898438 62.45534896850586 62.45534896850586 C 65.65487670898438 59.25582122802734 68.16652679443359 55.53084945678711 69.92053985595703 51.3838996887207 C 71.73583984375 47.09203720092773 72.65627288818359 42.53122329711914 72.65627288818359 37.8281364440918 C 72.65627288818359 33.12504959106445 71.73583984375 28.56423568725586 69.92053985595703 24.27237319946289 C 68.16652679443359 20.12542343139648 65.65487670898438 16.40044784545898 62.45534896850586 13.20092391967773 C 59.25582122802734 10.00139617919922 55.53084945678711 7.48974609375 51.3838996887207 5.735733032226562 C 47.09203720092773 3.920433044433594 42.53122329711914 3 37.8281364440918 3 M 37.8281364440918 0 C 58.72003555297852 0 75.65627288818359 16.93623733520508 75.65627288818359 37.8281364440918 C 75.65627288818359 58.72003555297852 58.72003555297852 75.65627288818359 37.8281364440918 75.65627288818359 C 16.93623733520508 75.65627288818359 0 58.72003555297852 0 37.8281364440918 C 0 16.93623733520508 16.93623733520508 0 37.8281364440918 0 Z" stroke="none" fill="#1d7083"/>
                          </g>
                        </g>
                      </g>
                    </g>
                  </g>
                </g>
              </g>
            </g>
          </g>
        </g>
      </g>
    </g>
    <g id="administracion-de-empresas" transform="translate(818.144 1243.003)">
      <g id="Grupo_1181675" data-name="Grupo 1181675" transform="translate(32.691 13.332)">
        <g id="Grupo_1181672" data-name="Grupo 1181672" transform="translate(7.673 0)">
          <path id="Trazado_1041426" data-name="Trazado 1041426" d="M133.177,61.886a14.04,14.04,0,0,1,4.111,1.7l2.671-1.186,3.148,3.148-1.186,2.67a14.037,14.037,0,0,1,1.7,4.112l2.725,1.049v4.452l-2.726,1.049a14.041,14.041,0,0,1-1.7,4.111l1.186,2.671-3.148,3.148-2.67-1.186a14.037,14.037,0,0,1-4.112,1.7l-1.049,2.725h-4.452l-1.049-2.726a14.04,14.04,0,0,1-4.111-1.7l-2.671,1.186L116.7,85.666,117.883,83a14.037,14.037,0,0,1-1.7-4.112l-2.725-1.049V73.383l2.726-1.049a14.035,14.035,0,0,1,1.7-4.111L116.7,65.552l3.148-3.148,2.671,1.186a14.039,14.039,0,0,1,4.111-1.7l1.049-2.726h4.452Z" transform="translate(-113.453 -59.16)" fill="#ffe177" fill-rule="evenodd"/>
          <path id="Trazado_1041427" data-name="Trazado 1041427" d="M173.895,87.629l-2.671,1.186-.411-.411,2.5-1.112Q173.6,87.467,173.895,87.629Zm10.661-25.742a14.04,14.04,0,0,1,4.111,1.7l-.759.337a18.517,18.517,0,0,0-4.689-2.041l-1.049-2.726h1.337Zm4.111,25.742a14.036,14.036,0,0,1-4.112,1.7l-1.049,2.725h-1.337l1.049-2.725a18.511,18.511,0,0,0,4.69-2.042ZM170.812,62.816l.411-.411,2.671,1.186q-.293.162-.578.337Zm19.6,0,.926-.411,3.148,3.148-1.186,2.67a14.037,14.037,0,0,1,1.7,4.112l2.725,1.049v4.452L195,78.885A14.041,14.041,0,0,1,193.3,83l1.186,2.671-3.148,3.148-.926-.411,2.737-2.737L191.962,83a14.038,14.038,0,0,0,1.7-4.111l2.726-1.049V73.383l-2.725-1.049a14.036,14.036,0,0,0-1.7-4.112l1.186-2.67Z" transform="translate(-164.832 -59.161)" fill="#ffd064" fill-rule="evenodd"/>
          <ellipse id="Elipse_13105" data-name="Elipse 13105" cx="10.876" cy="10.876" rx="10.876" ry="10.876" transform="translate(1.064 16.449) rotate(-45)" fill="#eceff1"/>
          <path id="Trazado_1041428" data-name="Trazado 1041428" d="M177.775,112.606a10.876,10.876,0,0,0,0,21.753c.22,0,.439-.007.656-.02a10.876,10.876,0,0,1,0-21.712C178.214,112.613,178,112.606,177.775,112.606Z" transform="translate(-161.326 -107.033)" fill="#d1d1d6" fill-rule="evenodd"/>
        </g>
        <g id="Grupo_1181673" data-name="Grupo 1181673" transform="translate(0 28.094)">
          <path id="Trazado_1041429" data-name="Trazado 1041429" d="M66.853,334.416l8.033-4.654c1.508-.874,3.041-1.493,4.7-.955a56.5,56.5,0,0,0,7.941,2.441,2.231,2.231,0,0,1,1.543,2.673,2.16,2.16,0,0,1-2.673,1.544l1.076.172a5.008,5.008,0,0,0,3.443-.6l7.724-4.5c6-3.5,6.886,1.883,4.89,3.112l-14.017,8.631a5.14,5.14,0,0,1-4.162.587l-10.167-2.724-3.765,2.174a1.521,1.521,0,0,1-2.073-.556L66.3,336.489A1.521,1.521,0,0,1,66.853,334.416Z" transform="translate(-63.361 -328.606)" fill="#f6dccd" fill-rule="evenodd"/>
          <path id="Trazado_1041430" data-name="Trazado 1041430" d="M215.063,367.718a2.2,2.2,0,0,1-2.49,1.063c-1.665-.44-3.329-.892-4.993-1.338a.835.835,0,1,1,.432-1.614Z" transform="translate(-189.537 -361.922)" fill="#f1cbbc" fill-rule="evenodd"/>
          <path id="Trazado_1041431" data-name="Trazado 1041431" d="M66.853,334.416l8.034-4.654c1.508-.874,3.041-1.493,4.7-.955.988.321,2.312.838,3.8,1.335l-15.562,8.985L66.3,336.488A1.521,1.521,0,0,1,66.853,334.416Z" transform="translate(-63.361 -328.606)" fill="#f1cbbc" fill-rule="evenodd"/>
          <path id="Trazado_1041432" data-name="Trazado 1041432" d="M44.15,355.068l6.371,11.257a1.141,1.141,0,0,1-.43,1.55L47.925,369.1a1.141,1.141,0,0,1-1.55-.43L40,357.415a1.14,1.14,0,0,1,.43-1.55l2.167-1.226A1.141,1.141,0,0,1,44.15,355.068Z" transform="translate(-39.857 -351.793)" fill="#d1d1d6" fill-rule="evenodd"/>
          <path id="Trazado_1041433" data-name="Trazado 1041433" d="M73.005,362.8l1.128,1.993,1.115,1.97a1.141,1.141,0,0,1-.426,1.548l.774-.438a1.14,1.14,0,0,0,.43-1.55l-1.119-1.977-2.247-3.97-2.249-3.974-.756-1.337a1.142,1.142,0,0,0-1.324-.527l1.31,2.314,2.247,3.97,1.119,1.977Z" transform="translate(-65.361 -351.793)" fill="#b1b1b5" fill-rule="evenodd"/>
        </g>
        <g id="Grupo_1181674" data-name="Grupo 1181674" transform="translate(17.187 11.974)">
          <path id="Trazado_1041434" data-name="Trazado 1041434" d="M205.325,232h1.691a.627.627,0,0,1,.626.626v2.131a.627.627,0,0,1-.626.626h-1.691a.627.627,0,0,1-.626-.626v-2.131A.627.627,0,0,1,205.325,232Z" transform="translate(-204.699 -225.951)" fill="#fe646f" fill-rule="evenodd"/>
          <path id="Trazado_1041435" data-name="Trazado 1041435" d="M218.261,232h.9a.627.627,0,0,1,.626.626v2.131a.627.627,0,0,1-.626.626h-.9a.627.627,0,0,0,.626-.626v-2.131A.627.627,0,0,0,218.261,232Z" transform="translate(-216.847 -225.951)" fill="#fd4755" fill-rule="evenodd"/>
          <path id="Trazado_1041436" data-name="Trazado 1041436" d="M257.731,203.63h1.691a.627.627,0,0,1,.626.626v5.088a.627.627,0,0,1-.626.626h-1.691a.627.627,0,0,1-.626-.626v-5.088A.627.627,0,0,1,257.731,203.63Z" transform="translate(-251.641 -200.541)" fill="#6cf5c2" fill-rule="evenodd"/>
          <path id="Trazado_1041437" data-name="Trazado 1041437" d="M270.666,203.63h.9a.627.627,0,0,1,.626.626v5.088a.627.627,0,0,1-.626.626h-.9a.627.627,0,0,0,.626-.626v-5.088A.627.627,0,0,0,270.666,203.63Z" transform="translate(-263.788 -200.541)" fill="#00e499" fill-rule="evenodd"/>
          <path id="Trazado_1041438" data-name="Trazado 1041438" d="M310.136,174.005h1.691a.627.627,0,0,1,.626.626v8.177a.627.627,0,0,1-.626.626h-1.691a.627.627,0,0,1-.626-.626v-8.177A.627.627,0,0,1,310.136,174.005Z" transform="translate(-298.582 -174.005)" fill="#8ac9fe" fill-rule="evenodd"/>
          <path id="Trazado_1041439" data-name="Trazado 1041439" d="M323.072,174.005h.9a.627.627,0,0,1,.626.626v8.177a.627.627,0,0,1-.626.626h-.9a.627.627,0,0,0,.626-.626v-8.177A.627.627,0,0,0,323.072,174.005Z" transform="translate(-310.73 -174.005)" fill="#60b7ff" fill-rule="evenodd"/>
        </g>
      </g>
      <path id="Trazado_1041440" data-name="Trazado 1041440" d="M61.64,33.9h1.274V26.14H61.64Zm-1.668.834V25.306a.834.834,0,0,1,.834-.834h2.942a.834.834,0,0,1,.834.834v9.429a.834.834,0,0,1-.834.834H60.806A.834.834,0,0,1,59.972,34.735Zm-2.523-5.505H56.176V33.9h1.273Zm1.669-.834v6.34a.834.834,0,0,1-.834.834H55.343a.834.834,0,0,1-.834-.834V28.4a.835.835,0,0,1,.834-.834h2.941A.835.835,0,0,1,59.118,28.4ZM50.712,33.9h1.274V32.187H50.712Zm-.834,1.669a.834.834,0,0,1-.834-.834V31.353a.834.834,0,0,1,.834-.834h2.943a.834.834,0,0,1,.834.834v3.382a.834.834,0,0,1-.834.834Zm1.5-6.331a.834.834,0,0,1-.512-1.492l4.919-3.828a.834.834,0,0,1,.277-1.62h0l2.087,0a.834.834,0,0,1,.807,1.038l-.509,2.023a.834.834,0,0,1-.808.631.811.811,0,0,1-.2-.026.833.833,0,0,1-.627-.733l-4.919,3.828A.832.832,0,0,1,51.374,29.238ZM35.523,46.384a.774.774,0,1,0,.878.654A.774.774,0,0,0,35.523,46.384Zm11.248-16.6A10.042,10.042,0,1,1,56.812,39.823,10.054,10.054,0,0,1,46.771,29.781Zm-1.669,0a11.711,11.711,0,1,1,11.71,11.711A11.723,11.723,0,0,1,45.1,29.781ZM72.764,43.674c-.6-1-2.232-.845-4.376.4l-7.725,4.5a5.813,5.813,0,0,1-4,.7l-.96-.156-.017,0-.017,0c-1.205-.246-2.321-.565-3.5-.9-.536-.153-1.091-.312-1.656-.463a.834.834,0,1,1,.432-1.611c.578.155,1.14.315,1.683.47,1.138.325,2.212.632,3.342.864a1.3,1.3,0,0,0,1.621-.951,1.388,1.388,0,0,0-.948-1.648,40.2,40.2,0,0,1-6.357-1.884c-.626-.226-1.166-.422-1.634-.573-1.406-.456-2.764.155-4.023.884L39,46.564l3.676,6.5,1.416-.817a.831.831,0,0,1,.633-.083l10.168,2.725a4.323,4.323,0,0,0,3.509-.492L72.421,45.76A1.645,1.645,0,0,0,72.764,43.674ZM42.63,56.366a.306.306,0,0,1-.114.413l-2.168,1.227a.3.3,0,0,1-.23.027.305.305,0,0,1-.184-.141L33.564,46.632a.307.307,0,0,1,.114-.413l2.168-1.226a.293.293,0,0,1,.146-.039.334.334,0,0,1,.084.011.3.3,0,0,1,.183.142ZM45.848,40.9,44.6,39.653l.953-2.147a.836.836,0,0,0-.053-.776,13.189,13.189,0,0,1-1.6-3.867.832.832,0,0,0-.511-.585L41.2,31.434V28.128l2.192-.844A.832.832,0,0,0,43.9,26.7a13.2,13.2,0,0,1,1.6-3.867.832.832,0,0,0,.053-.776L44.6,19.909l2.338-2.338,2.148.954a.834.834,0,0,0,.775-.052,13.189,13.189,0,0,1,3.866-1.6.834.834,0,0,0,.586-.512l.844-2.191h3.306l.844,2.191a.835.835,0,0,0,.586.512,13.19,13.19,0,0,1,3.866,1.6.833.833,0,0,0,.775.052l2.148-.954,2.338,2.338-.954,2.147a.836.836,0,0,0,.052.776,13.191,13.191,0,0,1,1.6,3.868.833.833,0,0,0,.511.585l2.192.843v3.307l-2.192.844a.833.833,0,0,0-.512.585,13.189,13.189,0,0,1-1.6,3.867.833.833,0,0,0-.052.776l.954,2.148-2.338,2.338-2.147-.953a.832.832,0,0,0-.775.052,13.188,13.188,0,0,1-3.869,1.6.835.835,0,0,0-.584.512l-.515,1.338a3.2,3.2,0,0,0-1.684-1.269A.777.777,0,0,0,57,43.246a38.557,38.557,0,0,1-6.147-1.823c-.613-.222-1.193-.431-1.686-.591a5.217,5.217,0,0,0-3.321.066ZM59,47.507a3.189,3.189,0,0,0,.169-.454.833.833,0,0,0,.644-.523l.895-2.323a14.858,14.858,0,0,0,3.544-1.469l1.769.786-6.2,3.613a4.2,4.2,0,0,1-.82.371Zm15.221-4.636a3.307,3.307,0,0,1-.93,4.309L59.277,55.812a5.965,5.965,0,0,1-3.154.906,6.416,6.416,0,0,1-1.662-.224L44.627,53.86l-1.129.652.584,1.033a1.973,1.973,0,0,1-.745,2.687L41.17,59.457a1.954,1.954,0,0,1-.965.256,2,2,0,0,1-.532-.073,1.964,1.964,0,0,1-1.19-.928L32.111,47.454a1.974,1.974,0,0,1,.744-2.686l2.168-1.227a1.976,1.976,0,0,1,2.687.744l.468.827,5.617-3.252c.138-.079.278-.158.419-.236l-1.2-1.2a.833.833,0,0,1-.173-.928l1.011-2.276a14.788,14.788,0,0,1-1.469-3.544l-2.323-.894a.833.833,0,0,1-.535-.778V27.555a.833.833,0,0,1,.535-.778l2.323-.894a14.827,14.827,0,0,1,1.469-3.543l-1.011-2.277a.833.833,0,0,1,.173-.928l3.148-3.149a.836.836,0,0,1,.929-.172l2.276,1.011a14.854,14.854,0,0,1,3.543-1.469l.895-2.323a.834.834,0,0,1,.778-.534h4.451a.835.835,0,0,1,.779.534l.895,2.323a14.857,14.857,0,0,1,3.543,1.469l2.276-1.011a.836.836,0,0,1,.929.172l3.148,3.148a.835.835,0,0,1,.173.928l-1.011,2.276a14.788,14.788,0,0,1,1.469,3.544l2.323.894a.834.834,0,0,1,.535.778v4.452a.834.834,0,0,1-.535.778l-2.323.894a14.833,14.833,0,0,1-1.469,3.543L70.781,39.5a.834.834,0,0,1-.173.928l-1.395,1.4a4.52,4.52,0,0,1,3.8-.108,19.884,19.884,0,0,0,3.92-11.934,20.092,20.092,0,0,0-2.722-10.112.834.834,0,0,1,1.442-.84A21.774,21.774,0,0,1,78.6,29.781a21.538,21.538,0,0,1-4.371,13.09Zm-36.1-1.9a21.784,21.784,0,0,1,31.238-29l-.344-1.207a.834.834,0,0,1,1.6-.458l1.06,3.717a.835.835,0,0,1-.772,1.062l-3.862.139h-.031a.834.834,0,0,1-.029-1.668L68.63,13.5A20.118,20.118,0,0,0,39.552,40.114a.834.834,0,1,1-1.43.858Z" transform="translate(0 0)" fill="#242222" fill-rule="evenodd"/>
    </g>
  </g>
</svg>
