<svg xmlns="http://www.w3.org/2000/svg" xmlns:xlink="http://www.w3.org/1999/xlink" width="93.934" height="93.934" viewBox="0 0 93.934 93.934">
  <defs>
    <filter id="Trazado_982547" x="0" y="0" width="93.934" height="93.934" filterUnits="userSpaceOnUse">
      <feOffset dy="3" input="SourceAlpha"/>
      <feGaussianBlur stdDeviation="3" result="blur"/>
      <feFlood flood-opacity="0.161"/>
      <feComposite operator="in" in2="blur"/>
      <feComposite in="SourceGraphic"/>
    </filter>
  </defs>
  <g id="Grupo_1183712" data-name="Grupo 1183712" transform="translate(-186 -1388)">
    <g id="Grupo_1180704" data-name="Grupo 1180704" transform="translate(0 -1433)">
      <g id="Grupo_1179676" data-name="Grupo 1179676" transform="translate(-3 42)">
        <g id="Grupo_1174889" data-name="Grupo 1174889" transform="translate(-0.033 793)">
          <g id="Grupo_1167337" data-name="Grupo 1167337" transform="translate(198.033 1992)">
            <g id="Grupo_1166720" data-name="Grupo 1166720">
              <g id="Grupo_1164305" data-name="Grupo 1164305">
                <g id="Grupo_1163948" data-name="Grupo 1163948">
                  <g id="Grupo_1158168" data-name="Grupo 1158168">
                    <g id="Grupo_1152576" data-name="Grupo 1152576">
                      <g id="Grupo_1148633" data-name="Grupo 1148633">
                        <g id="Grupo_1148525" data-name="Grupo 1148525">
                          <g transform="matrix(1, 0, 0, 1, -9, -6)" filter="url(#Trazado_982547)">
                            <g id="Trazado_982547-2" data-name="Trazado 982547" transform="translate(9 6)" fill="#e9f9fd">
                              <path d="M 37.966796875 74.43359375 C 33.04315185546875 74.43359375 28.26757431030273 73.46962738037109 23.77274131774902 71.56847381591797 C 19.43047523498535 69.73184967041016 15.53040790557861 67.10224914550781 12.18087482452393 63.75271987915039 C 8.831341743469238 60.4031867980957 6.201741218566895 56.50312042236328 4.365118980407715 52.16086196899414 C 2.463963508605957 47.66601943969727 1.499996900558472 42.89044189453125 1.499996900558472 37.966796875 C 1.499996900558472 33.04315185546875 2.463963508605957 28.26757431030273 4.365118980407715 23.77274131774902 C 6.201741218566895 19.43047523498535 8.831341743469238 15.53040790557861 12.18087482452393 12.18087482452393 C 15.53040790557861 8.831341743469238 19.43047523498535 6.201741218566895 23.77274131774902 4.365118980407715 C 28.26757431030273 2.463963508605957 33.04315185546875 1.499996900558472 37.966796875 1.499996900558472 C 42.89044189453125 1.499996900558472 47.66601943969727 2.463963508605957 52.16086196899414 4.365118980407715 C 56.50312042236328 6.201741218566895 60.4031867980957 8.831341743469238 63.75271987915039 12.18087482452393 C 67.10224914550781 15.53040790557861 69.73184967041016 19.43047523498535 71.56847381591797 23.77274131774902 C 73.46962738037109 28.26757431030273 74.43359375 33.04315185546875 74.43359375 37.966796875 C 74.43359375 42.89044189453125 73.46962738037109 47.66601943969727 71.56847381591797 52.16086196899414 C 69.73184967041016 56.50313186645508 67.10224914550781 60.4031867980957 63.75271987915039 63.75271987915039 C 60.4031867980957 67.10224914550781 56.50313186645508 69.73184967041016 52.16086196899414 71.56847381591797 C 47.66601943969727 73.46962738037109 42.89044189453125 74.43359375 37.966796875 74.43359375 Z" stroke="none"/>
                              <path d="M 37.966796875 3 C 33.2449836730957 3 28.66600799560547 3.924095153808594 24.35705947875977 5.746635437011719 C 20.19359588623047 7.507637023925781 16.45379638671875 10.02928161621094 13.24153518676758 13.24153518676758 C 10.02927398681641 16.45379638671875 7.507621765136719 20.19359588623047 5.746635437011719 24.35705947875977 C 3.924095153808594 28.66600799560547 3 33.2449836730957 3 37.966796875 C 3 42.6886100769043 3.924095153808594 47.26758575439453 5.746635437011719 51.57653427124023 C 7.507621765136719 55.73999786376953 10.02927398681641 59.47979736328125 13.24153518676758 62.69205856323242 C 16.45379638671875 65.90431976318359 20.19359588623047 68.42597198486328 24.35705947875977 70.18695831298828 C 28.66600799560547 72.00949859619141 33.2449836730957 72.93359375 37.966796875 72.93359375 C 42.6886100769043 72.93359375 47.26758575439453 72.00949859619141 51.57653427124023 70.18695831298828 C 55.73999786376953 68.42597198486328 59.47979736328125 65.90431976318359 62.69205856323242 62.69205856323242 C 65.90431976318359 59.47979736328125 68.42597198486328 55.73999786376953 70.18695831298828 51.57653427124023 C 72.00949859619141 47.26758575439453 72.93359375 42.6886100769043 72.93359375 37.966796875 C 72.93359375 33.2449836730957 72.00949859619141 28.66600799560547 70.18695831298828 24.35705947875977 C 68.42597198486328 20.19359588623047 65.90431976318359 16.45379638671875 62.69205856323242 13.24153518676758 C 59.47979736328125 10.02928161621094 55.73999786376953 7.507637023925781 51.57653427124023 5.746635437011719 C 47.26758575439453 3.924095153808594 42.6886100769043 3 37.966796875 3 M 37.966796875 0 C 58.93528366088867 0 75.93359375 16.99832153320312 75.93359375 37.966796875 C 75.93359375 58.93528366088867 58.93528366088867 75.93359375 37.966796875 75.93359375 C 16.99831008911133 75.93359375 0 58.93528366088867 0 37.966796875 C 0 16.99832153320312 16.99831008911133 0 37.966796875 0 Z" stroke="none" fill="#1d7083"/>
                            </g>
                          </g>
                        </g>
                      </g>
                    </g>
                  </g>
                </g>
              </g>
            </g>
          </g>
        </g>
      </g>
    </g>
    <g id="cognitivo" transform="translate(179.085 1398.001)">
      <g id="Grupo_1183711" data-name="Grupo 1183711" transform="translate(36.941 17.217)">
        <g id="Grupo_1183708" data-name="Grupo 1183708" transform="translate(18.344 0)">
          <path id="Trazado_1043923" data-name="Trazado 1043923" d="M263.558,96h2.268l1.069,2.777a14.305,14.305,0,0,1,4.188,1.737l2.722-1.209,3.208,3.208-1.209,2.721a14.3,14.3,0,0,1,1.737,4.19l2.777,1.069v4.537l-2.777,1.069a14.306,14.306,0,0,1-1.736,4.189l1.209,2.722-3.208,3.208-2.721-1.208a14.3,14.3,0,0,1-4.19,1.737l-1.069,2.777h-2.268v-8.849a7.912,7.912,0,1,0,0-15.823Z" transform="translate(-263.558 -96)" fill="#ffe177" fill-rule="evenodd"/>
          <path id="Trazado_1043924" data-name="Trazado 1043924" d="M275.8,120.286l1.209,2.722-.434.434-1.13-2.545Q275.634,120.6,275.8,120.286Zm0-15.053a14.3,14.3,0,0,1,1.737,4.19l2.777,1.069V111.9l-2.777-1.069a19.039,19.039,0,0,0-2.092-4.8ZM263.557,96h2.268l1.069,2.777a14.3,14.3,0,0,1,4.188,1.737l2.722-1.209,3.208,3.208-.434.977-2.774-2.774-2.722,1.209a14.3,14.3,0,0,0-4.188-1.737l-1.069-2.777h-2.268V96Z" transform="translate(-263.557 -96)" fill="#ffd064" fill-rule="evenodd"/>
        </g>
        <g id="Grupo_1183709" data-name="Grupo 1183709" transform="translate(0 0)">
          <path id="Trazado_1043925" data-name="Trazado 1043925" d="M99.439,98.619a3.775,3.775,0,0,0-3.443,2.9,3.77,3.77,0,0,0-4.651,3.555,3.776,3.776,0,0,0-2.9,3.662,4.019,4.019,0,0,0,4.012,4.025h10.571A3.761,3.761,0,0,0,106.785,109V99.76a3.762,3.762,0,0,0-7.346-1.142Z" transform="translate(-88.441 -95.999)" fill="#fe646f" fill-rule="evenodd"/>
          <path id="Trazado_1043926" data-name="Trazado 1043926" d="M147.463,101.412a3.7,3.7,0,0,0-.393.035c.122.017.244.041.366.071C147.445,101.482,147.454,101.447,147.463,101.412Zm7,11.348h1.048A3.761,3.761,0,0,0,159.273,109V99.76a3.763,3.763,0,0,0-4.287-3.725,3.775,3.775,0,0,1,3.24,3.725V109A3.761,3.761,0,0,1,154.464,112.76Z" transform="translate(-140.928 -95.999)" fill="#fd4755" fill-rule="evenodd"/>
        </g>
        <g id="Grupo_1183710" data-name="Grupo 1183710" transform="translate(0 16.761)">
          <path id="Trazado_1043927" data-name="Trazado 1043927" d="M99.439,270.139A3.775,3.775,0,0,1,96,267.24a3.77,3.77,0,0,1-4.651-3.555,3.776,3.776,0,0,1-2.9-3.662A4.019,4.019,0,0,1,92.453,256h10.571a3.761,3.761,0,0,1,3.761,3.761V269a3.762,3.762,0,0,1-7.346,1.142Z" transform="translate(-88.441 -255.998)" fill="#fe646f" fill-rule="evenodd"/>
          <path id="Trazado_1043928" data-name="Trazado 1043928" d="M147.463,267.348a3.71,3.71,0,0,1-.393-.035c.122-.017.244-.041.366-.071C147.445,267.278,147.454,267.313,147.463,267.348Zm7-11.348h1.048a3.761,3.761,0,0,1,3.761,3.761V269a3.763,3.763,0,0,1-4.287,3.725,3.775,3.775,0,0,0,3.24-3.725v-9.238A3.761,3.761,0,0,0,154.464,256Z" transform="translate(-140.928 -256)" fill="#fd4755" fill-rule="evenodd"/>
        </g>
      </g>
      <path id="Trazado_1043929" data-name="Trazado 1043929" d="M51.491,39.7a.838.838,0,0,0-1.185-.032,2.9,2.9,0,0,1-2.77.7,2.939,2.939,0,0,1-2.121-2.3.838.838,0,0,0-1.65.3,4.614,4.614,0,0,0,4.54,3.783,4.571,4.571,0,0,0,3.152-1.265A.838.838,0,0,0,51.491,39.7Zm.034,10.2a2.923,2.923,0,0,1-2.2-4.854A.838.838,0,1,0,48.07,43.94a4.621,4.621,0,0,0-1.142,3.07,2.945,2.945,0,0,1-1.616-1.982.839.839,0,0,0-1.015-.622,2.809,2.809,0,0,1-2.562-4.882.838.838,0,0,0-1.076-1.285A4.615,4.615,0,0,0,39.187,40.5,2.952,2.952,0,0,1,37.779,38a3.184,3.184,0,0,1,3.174-3.187h7.02a4.63,4.63,0,0,0-.511.766.838.838,0,1,0,1.479.787,2.924,2.924,0,0,1,5.507,1.37v9.242a2.927,2.927,0,0,1-2.923,2.92ZM40.953,33.14h7.02a4.626,4.626,0,0,1-.511-.766.838.838,0,1,1,1.479-.787,2.924,2.924,0,0,0,5.507-1.371V20.974a2.924,2.924,0,1,0-5.119,1.935.838.838,0,1,1-1.258,1.107,4.618,4.618,0,0,1-1.142-3.07,2.947,2.947,0,0,0-1.616,1.983.839.839,0,0,1-1.015.622,2.866,2.866,0,0,0-.69-.084,2.789,2.789,0,0,0-1.873,4.967.838.838,0,0,1-1.076,1.285,4.62,4.62,0,0,1-1.472-2.257,2.949,2.949,0,0,0-1.408,2.492A3.184,3.184,0,0,0,40.953,33.14Zm15.17-15.085v7.214a8.749,8.749,0,0,1,0,17.418V49.9h.855l.862-2.24a.835.835,0,0,1,.588-.514,13.456,13.456,0,0,0,3.944-1.635.835.835,0,0,1,.78-.052l2.195.975,2.394-2.394-.975-2.2a.84.84,0,0,1,.052-.78,13.459,13.459,0,0,0,1.635-3.944.84.84,0,0,1,.515-.588l2.24-.862V32.285l-2.24-.862a.837.837,0,0,1-.513-.589,13.446,13.446,0,0,0-1.636-3.944.837.837,0,0,1-.052-.78l.974-2.2-2.394-2.394-2.2.975a.837.837,0,0,1-.779-.052,13.48,13.48,0,0,0-3.944-1.635.837.837,0,0,1-.588-.513l-.862-2.241ZM54.166,33.978a4.6,4.6,0,0,1,1.957,3.761V41a7.072,7.072,0,0,0,0-14.044v3.261A4.6,4.6,0,0,1,54.166,33.978Zm-2.642,17.6a4.581,4.581,0,0,1-4.185-2.688,4.642,4.642,0,0,1-3.415-2.734,4.616,4.616,0,0,1-4.86-3.856A4.649,4.649,0,0,1,36.1,38a4.865,4.865,0,0,1,2.131-4.025A4.865,4.865,0,0,1,36.1,29.953a4.649,4.649,0,0,1,2.961-4.3,4.618,4.618,0,0,1,4.86-3.856,4.646,4.646,0,0,1,3.415-2.735,4.6,4.6,0,0,1,7.109-1.636v-.213a.838.838,0,0,1,.838-.838h2.268a.837.837,0,0,1,.782.536l.913,2.373a15.086,15.086,0,0,1,3.619,1.5l2.325-1.033a.839.839,0,0,1,.933.173l3.207,3.208a.839.839,0,0,1,.174.933L68.474,26.4a15.088,15.088,0,0,1,1.5,3.619l2.373.914a.837.837,0,0,1,.537.781v4.537a.839.839,0,0,1-.537.783l-2.373.914a15.141,15.141,0,0,1-1.5,3.618l1.033,2.325a.838.838,0,0,1-.174.932l-3.207,3.208a.84.84,0,0,1-.933.174l-2.325-1.033a15.116,15.116,0,0,1-3.619,1.5l-.912,2.372a.84.84,0,0,1-.783.537H55.286a.838.838,0,0,1-.838-.838v-.213a4.577,4.577,0,0,1-2.923,1.052Zm-7.929,1.4a.838.838,0,0,1-.419,1.565.825.825,0,0,1-.417-.112A23.573,23.573,0,0,1,30.915,33.978,23.58,23.58,0,0,1,54.494,10.4c.77,0,1.542.04,2.309.114L55.693,9.439a.838.838,0,1,1,1.165-1.2l3.014,2.918a.838.838,0,0,1-.138,1.312l-3.555,2.226a.829.829,0,0,1-.444.128.838.838,0,0,1-.446-1.549l1.686-1.055A21.905,21.905,0,0,0,43.6,52.981ZM74.8,21.993A23.581,23.581,0,0,1,54.494,57.556c-.77,0-1.542-.039-2.309-.114l1.109,1.075a.838.838,0,1,1-1.166,1.2L49.115,56.8a.837.837,0,0,1,.139-1.312l3.555-2.227a.838.838,0,0,1,.889,1.42L52.014,55.74A21.906,21.906,0,0,0,65.393,14.975a.838.838,0,1,1,.835-1.453A23.717,23.717,0,0,1,74.8,21.993ZM47.536,27.587a2.938,2.938,0,0,0-2.121,2.3.838.838,0,0,1-.824.688.77.77,0,0,1-.149-.014.837.837,0,0,1-.676-.974A4.625,4.625,0,0,1,47.1,25.969a4.572,4.572,0,0,1,4.356,1.105.838.838,0,1,1-1.152,1.216A2.908,2.908,0,0,0,47.536,27.587Z" transform="translate(0 0)" fill-rule="evenodd"/>
    </g>
  </g>
</svg>
