<svg xmlns="http://www.w3.org/2000/svg" xmlns:xlink="http://www.w3.org/1999/xlink" width="113" height="113" viewBox="0 0 113 113">
  <defs>
    <filter id="Trazado_982547" x="0" y="0" width="113" height="113" filterUnits="userSpaceOnUse">
      <feOffset dy="3" input="SourceAlpha"/>
      <feGaussianBlur stdDeviation="3" result="blur"/>
      <feFlood flood-opacity="0.161"/>
      <feComposite operator="in" in2="blur"/>
      <feComposite in="SourceGraphic"/>
    </filter>
  </defs>
  <g id="Grupo_1182238" data-name="Grupo 1182238" transform="translate(-743.961 -2191.821)">
    <g id="Grupo_1179953" data-name="Grupo 1179953" transform="translate(0 -2181.251)">
      <g id="Grupo_1174862" data-name="Grupo 1174862" transform="translate(0.461 -1574.943)">
        <g id="Grupo_1174055" data-name="Grupo 1174055" transform="translate(752.5 5954.015)">
          <g id="Grupo_1172010" data-name="Grupo 1172010">
            <g id="Grupo_1171046" data-name="Grupo 1171046">
              <g id="Grupo_1148525" data-name="Grupo 1148525">
                <g transform="matrix(1, 0, 0, 1, -9, -6)" filter="url(#Trazado_982547)">
                  <g id="Trazado_982547-2" data-name="Trazado 982547" transform="translate(9 6)" fill="#f2f7e5">
                    <path d="M 47.5 93.5 C 41.28937149047852 93.5 35.26533508300781 92.28397369384766 29.59518623352051 89.88570404052734 C 24.11771965026855 87.56893157958984 19.19813346862793 84.25196075439453 14.97309303283691 80.02691650390625 C 10.74804019927979 75.80186462402344 7.431066513061523 70.88229370117188 5.114293098449707 65.40481567382812 C 2.716026782989502 59.73468017578125 1.5 53.71062850952148 1.5 47.5 C 1.5 41.28937149047852 2.716026782989502 35.26533508300781 5.114293098449707 29.59518623352051 C 7.431066513061523 24.11771965026855 10.74804019927979 19.19813346862793 14.97309303283691 14.97309303283691 C 19.19813346862793 10.74804019927979 24.11771965026855 7.431066513061523 29.59518623352051 5.114293098449707 C 35.26533508300781 2.716026782989502 41.28937149047852 1.5 47.5 1.5 C 53.71062850952148 1.5 59.73468017578125 2.716026782989502 65.40481567382812 5.114293098449707 C 70.88229370117188 7.431066513061523 75.80186462402344 10.74804019927979 80.02691650390625 14.97309303283691 C 84.25196075439453 19.19813346862793 87.56893157958984 24.11771965026855 89.88570404052734 29.59518623352051 C 92.28397369384766 35.26533508300781 93.5 41.28937149047852 93.5 47.5 C 93.5 53.71062850952148 92.28397369384766 59.73468017578125 89.88570404052734 65.40481567382812 C 87.56893157958984 70.88229370117188 84.25196075439453 75.80186462402344 80.02691650390625 80.02691650390625 C 75.80186462402344 84.25196075439453 70.88229370117188 87.56893157958984 65.40481567382812 89.88570404052734 C 59.73468017578125 92.28397369384766 53.71062850952148 93.5 47.5 93.5 Z" stroke="none"/>
                    <path d="M 47.5 3 C 41.49121475219727 3 35.66376876831055 4.176155090332031 30.17950439453125 6.495796203613281 C 24.88084411621094 8.736953735351562 20.12152099609375 11.94598388671875 16.03375244140625 16.03375244140625 C 11.94598388671875 20.12152099609375 8.736953735351562 24.88084411621094 6.495796203613281 30.17950439453125 C 4.176155090332031 35.66376876831055 3 41.49121475219727 3 47.5 C 3 53.50878524780273 4.176155090332031 59.33623123168945 6.495796203613281 64.82049560546875 C 8.736953735351562 70.11915588378906 11.94598388671875 74.87847900390625 16.03375244140625 78.96624755859375 C 20.12152099609375 83.05401611328125 24.88084411621094 86.26304626464844 30.17950439453125 88.50419616699219 C 35.66376876831055 90.82384490966797 41.49121475219727 92 47.5 92 C 53.50878524780273 92 59.33623123168945 90.82384490966797 64.82049560546875 88.50419616699219 C 70.11915588378906 86.26304626464844 74.87847900390625 83.05401611328125 78.96624755859375 78.96624755859375 C 83.05401611328125 74.87847900390625 86.26304626464844 70.11915588378906 88.50419616699219 64.82049560546875 C 90.82384490966797 59.33623123168945 92 53.50878524780273 92 47.5 C 92 41.49121475219727 90.82384490966797 35.66376876831055 88.50419616699219 30.17950439453125 C 86.26304626464844 24.88084411621094 83.05401611328125 20.12152099609375 78.96624755859375 16.03375244140625 C 74.87847900390625 11.94598388671875 70.11915588378906 8.736953735351562 64.82049560546875 6.495796203613281 C 59.33623123168945 4.176155090332031 53.50878524780273 3 47.5 3 M 47.5 0 C 73.7335205078125 0 95 21.2664794921875 95 47.5 C 95 73.7335205078125 73.7335205078125 95 47.5 95 C 21.2664794921875 95 0 73.7335205078125 0 47.5 C 0 21.2664794921875 21.2664794921875 0 47.5 0 Z" stroke="none" fill="#86b60c"/>
                  </g>
                </g>
              </g>
            </g>
          </g>
        </g>
      </g>
    </g>
    <g id="organizacion" transform="translate(770.481 2215.832)">
      <path id="Trazado_1041905" data-name="Trazado 1041905" d="M256.043,164.034A11.074,11.074,0,0,0,245,152.972v1.844a5.526,5.526,0,0,1,4.5,8.712,8.307,8.307,0,0,1,3.777,6.958v.855A11.015,11.015,0,0,0,256.043,164.034Z" transform="translate(-215.442 -134.367)" fill="#71d1d1"/>
      <path id="Trazado_1041906" data-name="Trazado 1041906" d="M164.2,152.969a11.056,11.056,0,0,0-8.3,18.37v-.855a8.306,8.306,0,0,1,3.777-6.958,5.527,5.527,0,0,1,4.52-8.713h.022v-1.844Z" transform="translate(-134.66 -134.365)" fill="#a0e0e0"/>
      <path id="Trazado_1041907" data-name="Trazado 1041907" d="M80.221,343.971h0v.851h0a4.287,4.287,0,0,1,3.645,6.548,6.318,6.318,0,0,1,2.664,5.075,7.83,7.83,0,0,0-6.31-12.475Z" transform="translate(-70.542 -302.321)" fill="#71d1d1"/>
      <path id="Trazado_1041908" data-name="Trazado 1041908" d="M15.28,351.8a7.792,7.792,0,0,0,1.526,4.639,6.314,6.314,0,0,1,2.665-5.075,4.287,4.287,0,0,1,3.645-6.548v-.851A7.845,7.845,0,0,0,15.28,351.8Z" transform="translate(-13.436 -302.319)" fill="#a0e0e0"/>
      <path id="Trazado_1041909" data-name="Trazado 1041909" d="M409.106,343.971v.851a4.287,4.287,0,0,1,3.642,6.548,6.318,6.318,0,0,1,2.664,5.075,7.83,7.83,0,0,0-6.306-12.474Z" transform="translate(-359.745 -302.321)" fill="#71d1d1"/>
      <path id="Trazado_1041910" data-name="Trazado 1041910" d="M351.975,343.971a7.83,7.83,0,0,0-6.31,12.474,6.314,6.314,0,0,1,2.664-5.075,4.287,4.287,0,0,1,3.645-6.548h0v-.851Z" transform="translate(-302.617 -302.321)" fill="#a0e0e0"/>
      <path id="Trazado_1041911" data-name="Trazado 1041911" d="M413.393,20.588a4.263,4.263,0,0,1-.645,2.258,6.318,6.318,0,0,1,2.664,5.075,7.83,7.83,0,0,0-6.306-12.474V16.3A4.3,4.3,0,0,1,413.393,20.588Z" transform="translate(-359.745 -13.435)" fill="#71d1d1"/>
      <path id="Trazado_1041912" data-name="Trazado 1041912" d="M345.665,27.922a6.314,6.314,0,0,1,2.664-5.075,4.287,4.287,0,0,1,3.645-6.548h0v-.851h0a7.83,7.83,0,0,0-6.31,12.474Z" transform="translate(-302.617 -13.436)" fill="#a0e0e0"/>
      <path id="Trazado_1041913" data-name="Trazado 1041913" d="M88.08,23.284a7.844,7.844,0,0,0-7.832-7.836V16.3a4.287,4.287,0,0,1,3.642,6.548,6.318,6.318,0,0,1,2.664,5.075A7.792,7.792,0,0,0,88.08,23.284Z" transform="translate(-70.566 -13.436)" fill="#71d1d1"/>
      <path id="Trazado_1041914" data-name="Trazado 1041914" d="M23.116,15.448a7.83,7.83,0,0,0-6.31,12.474,6.314,6.314,0,0,1,2.665-5.075A4.287,4.287,0,0,1,23.116,16.3h0v-.851Z" transform="translate(-13.436 -13.436)" fill="#a0e0e0"/>
      <path id="Trazado_1041915" data-name="Trazado 1041915" d="M194.613,251.578a6.461,6.461,0,0,0-3.275,5.617v2.527a11.034,11.034,0,0,0,3.315,1.628c.018-5.533.829-8.056,1.317-9.073A5.537,5.537,0,0,1,194.613,251.578Z" transform="translate(-168.252 -221.076)" fill="#fdd089"/>
      <path id="Trazado_1041916" data-name="Trazado 1041916" d="M228.406,259.722V257.2a6.462,6.462,0,0,0-3.275-5.617,5.511,5.511,0,0,1-5,.7c-.487,1.017-1.3,3.54-1.317,9.073a11.039,11.039,0,0,0,9.59-1.628Z" transform="translate(-192.415 -221.076)" fill="#fbb03b"/>
      <path id="Trazado_1041917" data-name="Trazado 1041917" d="M223.823,190.924a3.687,3.687,0,0,0,.107-7.372,3.344,3.344,0,0,1-2.988,5.982A3.681,3.681,0,0,0,223.823,190.924Z" transform="translate(-194.284 -161.258)" fill="#fbb03b"/>
      <path id="Trazado_1041918" data-name="Trazado 1041918" d="M219.829,186.487a3.343,3.343,0,0,0-1.777-2.954l-.107,0a3.684,3.684,0,0,0-2.881,5.985,3.345,3.345,0,0,0,4.765-3.028Zm-4.169,0a.824.824,0,1,1,.824.824A.824.824,0,0,1,215.661,186.487Z" transform="translate(-188.407 -161.238)" fill="#fdd089"/>
      <path id="Trazado_1041919" data-name="Trazado 1041919" d="M45.26,416.415a4.472,4.472,0,0,0-2.138,3.81l-.01,1.709a7.829,7.829,0,0,0,2.007,1.01,17.555,17.555,0,0,1,.933-6.125A4.288,4.288,0,0,1,45.26,416.415Z" transform="translate(-37.91 -366.024)" fill="#fdd089"/>
      <path id="Trazado_1041920" data-name="Trazado 1041920" d="M62.22,423.344a7.789,7.789,0,0,0,4.484-1.415l-.016-1.7a4.477,4.477,0,0,0-2.138-3.819,4.274,4.274,0,0,1-3.866.4,17.554,17.554,0,0,0-.933,6.125A7.783,7.783,0,0,0,62.22,423.344Z" transform="translate(-52.541 -366.023)" fill="#fbb03b"/>
      <path id="Trazado_1041921" data-name="Trazado 1041921" d="M66.79,373.8a2.444,2.444,0,0,0,1.267-4.535,2.663,2.663,0,0,1-3.11,3.693A2.44,2.44,0,0,0,66.79,373.8Z" transform="translate(-57.111 -324.568)" fill="#fbb03b"/>
      <path id="Trazado_1041922" data-name="Trazado 1041922" d="M63.907,367.785a2.651,2.651,0,0,0-.248-1.123,2.442,2.442,0,0,0-3.11,3.692,2.663,2.663,0,0,0,3.358-2.57Zm-2.176-.23a.486.486,0,1,1-.486.486A.486.486,0,0,1,61.731,367.555Z" transform="translate(-52.712 -321.96)" fill="#fdd089"/>
      <path id="Trazado_1041923" data-name="Trazado 1041923" d="M374.12,416.415a4.472,4.472,0,0,0-2.138,3.81l-.01,1.709a7.828,7.828,0,0,0,2.076,1.033,17.71,17.71,0,0,1,.925-6.127A4.289,4.289,0,0,1,374.12,416.415Z" transform="translate(-327.091 -366.024)" fill="#fdd089"/>
      <path id="Trazado_1041924" data-name="Trazado 1041924" d="M396.06,421.929l-.016-1.7a4.477,4.477,0,0,0-2.138-3.819,4.268,4.268,0,0,1-3.806.426,17.711,17.711,0,0,0-.925,6.127,7.815,7.815,0,0,0,6.885-1.038Z" transform="translate(-342.219 -366.023)" fill="#fbb03b"/>
      <path id="Trazado_1041925" data-name="Trazado 1041925" d="M394.4,373.476a2.659,2.659,0,0,1-.789-.119,2.445,2.445,0,1,0,3.229-3.608,2.662,2.662,0,0,1-2.44,3.727Z" transform="translate(-346.118 -324.989)" fill="#fbb03b"/>
      <path id="Trazado_1041926" data-name="Trazado 1041926" d="M388.8,368.749a2.434,2.434,0,0,0,.58,1.578,2.663,2.663,0,0,0,3.229-3.608,2.445,2.445,0,0,0-3.809,2.031Zm1.563-1.161a.486.486,0,1,1-.486.486A.486.486,0,0,1,390.368,367.589Z" transform="translate(-341.893 -321.959)" fill="#fdd089"/>
      <path id="Trazado_1041927" data-name="Trazado 1041927" d="M374.12,87.892a4.472,4.472,0,0,0-2.138,3.81l-.01,1.709a7.83,7.83,0,0,0,2.074,1.033,18.08,18.08,0,0,1,.906-6.133A4.3,4.3,0,0,1,374.12,87.892Z" transform="translate(-327.091 -77.14)" fill="#fdd089"/>
      <path id="Trazado_1041928" data-name="Trazado 1041928" d="M396.049,93.406l-.016-1.7a4.477,4.477,0,0,0-2.138-3.819,4.272,4.272,0,0,1-3.827.419,18.08,18.08,0,0,0-.906,6.133,7.814,7.814,0,0,0,6.887-1.037Z" transform="translate(-342.207 -77.139)" fill="#fbb03b"/>
      <path id="Trazado_1041929" data-name="Trazado 1041929" d="M393.943,45.078a2.658,2.658,0,0,1-.851-.14,2.444,2.444,0,1,0,3.326-3.5,2.662,2.662,0,0,1-2.474,3.645Z" transform="translate(-345.663 -36.286)" fill="#fbb03b"/>
      <path id="Trazado_1041930" data-name="Trazado 1041930" d="M388.8,40.227a2.432,2.432,0,0,0,.517,1.5,2.662,2.662,0,0,0,3.326-3.5,2.443,2.443,0,0,0-3.843,2.006Zm1.855-1.339a.486.486,0,1,1-.486.486A.486.486,0,0,1,390.66,38.888Z" transform="translate(-341.893 -33.075)" fill="#fdd089"/>
      <path id="Trazado_1041931" data-name="Trazado 1041931" d="M45.26,87.892a4.472,4.472,0,0,0-2.138,3.81l-.01,1.709a7.832,7.832,0,0,0,2.006,1.009,17.916,17.916,0,0,1,.914-6.133A4.3,4.3,0,0,1,45.26,87.892Z" transform="translate(-37.91 -77.14)" fill="#fdd089"/>
      <path id="Trazado_1041932" data-name="Trazado 1041932" d="M62.209,94.823a7.79,7.79,0,0,0,4.484-1.415l-.016-1.7a4.476,4.476,0,0,0-2.138-3.819,4.271,4.271,0,0,1-3.886.4,17.919,17.919,0,0,0-.914,6.133A7.789,7.789,0,0,0,62.209,94.823Z" transform="translate(-52.529 -77.14)" fill="#fbb03b"/>
      <path id="Trazado_1041933" data-name="Trazado 1041933" d="M66.319,45.441a2.444,2.444,0,0,0,1.3-4.513,2.663,2.663,0,0,1-3.211,3.595A2.442,2.442,0,0,0,66.319,45.441Z" transform="translate(-56.64 -35.842)" fill="#fbb03b"/>
      <path id="Trazado_1041934" data-name="Trazado 1041934" d="M63.906,39.2a2.653,2.653,0,0,0-.212-1.043,2.443,2.443,0,0,0-3.211,3.595A2.662,2.662,0,0,0,63.906,39.2Zm-2.18-.192a.486.486,0,1,1-.486.486A.486.486,0,0,1,61.726,39.012Z" transform="translate(-52.711 -33.075)" fill="#fdd089"/>
      <path id="Trazado_1041935" data-name="Trazado 1041935" d="M49.358,39.806A9.634,9.634,0,0,0,43.2,42.024l-3.911-3.911a12.882,12.882,0,0,0,0-16.893L43.2,17.309a9.689,9.689,0,1,0-1.3-1.3l-3.911,3.911a12.882,12.882,0,0,0-16.893,0l-3.934-3.934a9.7,9.7,0,1,0-1.3,1.307l3.93,3.93a12.882,12.882,0,0,0,0,16.893l-3.93,3.93a9.687,9.687,0,1,0,1.3,1.307l3.933-3.933a12.882,12.882,0,0,0,16.893,0L41.9,43.327a9.675,9.675,0,1,0,7.462-3.521Zm0-37.795h0a7.83,7.83,0,0,1,6.306,12.474A6.318,6.318,0,0,0,53,9.411a4.287,4.287,0,0,0-3.642-6.548h0a4.287,4.287,0,0,0-3.645,6.548,6.314,6.314,0,0,0-2.664,5.075,7.831,7.831,0,0,1,6.31-12.475ZM46.955,17.3a7.828,7.828,0,0,1-2.074-1.033l.01-1.709a4.472,4.472,0,0,1,2.138-3.81,4.275,4.275,0,0,0,4.659,0,4.477,4.477,0,0,1,2.138,3.819l.016,1.7A7.814,7.814,0,0,1,46.955,17.3Zm2.4-12.6a2.442,2.442,0,1,1-2.446,2.446A2.431,2.431,0,0,1,49.358,4.706ZM5.2,16.272l.01-1.709a4.472,4.472,0,0,1,2.138-3.81,4.3,4.3,0,0,0,.772.4,4.271,4.271,0,0,0,3.886-.4,4.476,4.476,0,0,1,2.138,3.819l.016,1.7a7.811,7.811,0,0,1-8.961,0ZM7.233,7.153a2.452,2.452,0,1,1,.539,1.528A2.449,2.449,0,0,1,7.233,7.153Zm6.092,2.258A4.287,4.287,0,0,0,9.682,2.863h0A4.287,4.287,0,0,0,6.034,9.411a6.315,6.315,0,0,0-2.665,5.075A7.83,7.83,0,0,1,9.679,2.012h0a7.83,7.83,0,0,1,6.306,12.475A6.317,6.317,0,0,0,13.324,9.411Zm2.664,44.714a6.318,6.318,0,0,0-2.664-5.075A4.287,4.287,0,0,0,9.679,42.5h0a4.287,4.287,0,0,0-3.645,6.548,6.315,6.315,0,0,0-2.665,5.075A7.83,7.83,0,0,1,9.679,41.65h0a7.831,7.831,0,0,1,6.31,12.474ZM5.2,55.91l.01-1.709a4.472,4.472,0,0,1,2.138-3.81,4.275,4.275,0,0,0,4.658,0,4.476,4.476,0,0,1,2.138,3.819l.016,1.7a7.811,7.811,0,0,1-8.961,0Zm2.031-9.119a2.455,2.455,0,1,1,.6,1.6A2.449,2.449,0,0,1,7.233,46.791ZM26.4,40.273a11.031,11.031,0,0,1-3.315-1.628V36.119A6.462,6.462,0,0,1,26.362,30.5a5.513,5.513,0,0,0,6.355,0,6.462,6.462,0,0,1,3.275,5.617v2.527a11.042,11.042,0,0,1-9.59,1.628Zm-.55-14.294a3.691,3.691,0,0,1,3.687-3.687l.107,0a3.684,3.684,0,1,1-3.794,3.685Zm8.207,3.182a5.526,5.526,0,0,0-4.5-8.712h-.022a5.527,5.527,0,0,0-4.52,8.713,8.306,8.306,0,0,0-3.777,6.958v.855a11.056,11.056,0,0,1,8.3-18.37h.022a11.055,11.055,0,0,1,8.274,18.37v-.855A8.306,8.306,0,0,0,34.059,29.161ZM55.668,54.124A6.318,6.318,0,0,0,53,49.049,4.287,4.287,0,0,0,49.361,42.5h0a4.287,4.287,0,0,0-3.645,6.548,6.314,6.314,0,0,0-2.664,5.075,7.83,7.83,0,0,1,6.31-12.474h0a7.83,7.83,0,0,1,6.306,12.474Zm-8.711,2.819a7.827,7.827,0,0,1-2.076-1.033l.01-1.709a4.472,4.472,0,0,1,2.138-3.81,4.275,4.275,0,0,0,4.658,0,4.477,4.477,0,0,1,2.138,3.819l.016,1.7a7.815,7.815,0,0,1-6.885,1.037Zm2.4-12.6a2.444,2.444,0,1,1-2.446,2.446A2.432,2.432,0,0,1,49.358,44.345Z" transform="translate(0 0)"/>
      <circle id="Elipse_13116" data-name="Elipse 13116" cx="0.824" cy="0.824" r="0.824" transform="translate(27.254 24.424)" fill="#fff"/>
      <circle id="Elipse_13117" data-name="Elipse 13117" cx="0.486" cy="0.486" r="0.486" transform="translate(8.528 5.938)" fill="#fff"/>
      <circle id="Elipse_13118" data-name="Elipse 13118" cx="0.486" cy="0.486" r="0.486" transform="translate(8.533 45.595)" fill="#fff"/>
      <circle id="Elipse_13119" data-name="Elipse 13119" cx="0.486" cy="0.486" r="0.486" transform="translate(47.988 45.63)" fill="#fff"/>
      <circle id="Elipse_13120" data-name="Elipse 13120" cx="0.486" cy="0.486" r="0.486" transform="translate(48.28 5.814)" fill="#fff"/>
    </g>
  </g>
</svg>
