<svg xmlns="http://www.w3.org/2000/svg" xmlns:xlink="http://www.w3.org/1999/xlink" width="113" height="113" viewBox="0 0 113 113">
  <defs>
    <filter id="Trazado_982547" x="0" y="0" width="113" height="113" filterUnits="userSpaceOnUse">
      <feOffset dy="3" input="SourceAlpha"/>
      <feGaussianBlur stdDeviation="3" result="blur"/>
      <feFlood flood-opacity="0.161"/>
      <feComposite operator="in" in2="blur"/>
      <feComposite in="SourceGraphic"/>
    </filter>
  </defs>
  <g id="Grupo_1182239" data-name="Grupo 1182239" transform="translate(-1164 -2192)">
    <g id="Grupo_1179954" data-name="Grupo 1179954" transform="translate(-0.461 -2181.072)">
      <g id="Grupo_1174863" data-name="Grupo 1174863" transform="translate(0.461 -1574.943)">
        <g id="Grupo_1174056" data-name="Grupo 1174056" transform="translate(1173 5954.015)">
          <g id="Grupo_1172010" data-name="Grupo 1172010">
            <g id="Grupo_1171046" data-name="Grupo 1171046">
              <g id="Grupo_1148525" data-name="Grupo 1148525">
                <g transform="matrix(1, 0, 0, 1, -9, -6)" filter="url(#Trazado_982547)">
                  <g id="Trazado_982547-2" data-name="Trazado 982547" transform="translate(9 6)" fill="#f2f7e5">
                    <path d="M 47.5 93.5 C 41.28937149047852 93.5 35.26533508300781 92.28397369384766 29.59518623352051 89.88570404052734 C 24.11771965026855 87.56893157958984 19.19813346862793 84.25196075439453 14.97309303283691 80.02691650390625 C 10.74804019927979 75.80186462402344 7.431066513061523 70.88229370117188 5.114293098449707 65.40481567382812 C 2.716026782989502 59.73468017578125 1.5 53.71062850952148 1.5 47.5 C 1.5 41.28937149047852 2.716026782989502 35.26533508300781 5.114293098449707 29.59518623352051 C 7.431066513061523 24.11771965026855 10.74804019927979 19.19813346862793 14.97309303283691 14.97309303283691 C 19.19813346862793 10.74804019927979 24.11771965026855 7.431066513061523 29.59518623352051 5.114293098449707 C 35.26533508300781 2.716026782989502 41.28937149047852 1.5 47.5 1.5 C 53.71062850952148 1.5 59.73468017578125 2.716026782989502 65.40481567382812 5.114293098449707 C 70.88229370117188 7.431066513061523 75.80186462402344 10.74804019927979 80.02691650390625 14.97309303283691 C 84.25196075439453 19.19813346862793 87.56893157958984 24.11771965026855 89.88570404052734 29.59518623352051 C 92.28397369384766 35.26533508300781 93.5 41.28937149047852 93.5 47.5 C 93.5 53.71062850952148 92.28397369384766 59.73468017578125 89.88570404052734 65.40481567382812 C 87.56893157958984 70.88229370117188 84.25196075439453 75.80186462402344 80.02691650390625 80.02691650390625 C 75.80186462402344 84.25196075439453 70.88229370117188 87.56893157958984 65.40481567382812 89.88570404052734 C 59.73468017578125 92.28397369384766 53.71062850952148 93.5 47.5 93.5 Z" stroke="none"/>
                    <path d="M 47.5 3 C 41.49121475219727 3 35.66376876831055 4.176155090332031 30.17950439453125 6.495796203613281 C 24.88084411621094 8.736953735351562 20.12152099609375 11.94598388671875 16.03375244140625 16.03375244140625 C 11.94598388671875 20.12152099609375 8.736953735351562 24.88084411621094 6.495796203613281 30.17950439453125 C 4.176155090332031 35.66376876831055 3 41.49121475219727 3 47.5 C 3 53.50878524780273 4.176155090332031 59.33623123168945 6.495796203613281 64.82049560546875 C 8.736953735351562 70.11915588378906 11.94598388671875 74.87847900390625 16.03375244140625 78.96624755859375 C 20.12152099609375 83.05401611328125 24.88084411621094 86.26304626464844 30.17950439453125 88.50419616699219 C 35.66376876831055 90.82384490966797 41.49121475219727 92 47.5 92 C 53.50878524780273 92 59.33623123168945 90.82384490966797 64.82049560546875 88.50419616699219 C 70.11915588378906 86.26304626464844 74.87847900390625 83.05401611328125 78.96624755859375 78.96624755859375 C 83.05401611328125 74.87847900390625 86.26304626464844 70.11915588378906 88.50419616699219 64.82049560546875 C 90.82384490966797 59.33623123168945 92 53.50878524780273 92 47.5 C 92 41.49121475219727 90.82384490966797 35.66376876831055 88.50419616699219 30.17950439453125 C 86.26304626464844 24.88084411621094 83.05401611328125 20.12152099609375 78.96624755859375 16.03375244140625 C 74.87847900390625 11.94598388671875 70.11915588378906 8.736953735351562 64.82049560546875 6.495796203613281 C 59.33623123168945 4.176155090332031 53.50878524780273 3 47.5 3 M 47.5 0 C 73.7335205078125 0 95 21.2664794921875 95 47.5 C 95 73.7335205078125 73.7335205078125 95 47.5 95 C 21.2664794921875 95 0 73.7335205078125 0 47.5 C 0 21.2664794921875 21.2664794921875 0 47.5 0 Z" stroke="none" fill="#86b60c"/>
                  </g>
                </g>
              </g>
            </g>
          </g>
        </g>
      </g>
    </g>
    <g id="comunicacion" transform="translate(1174 2192)">
      <path id="Trazado_1041949" data-name="Trazado 1041949" d="M50.593,311.525V296.183l7.905,9.223,3.02-8.526L53.837,289.2a4.091,4.091,0,0,0-2.893-1.2H31.794A7.794,7.794,0,0,0,24,295.794h0a7.794,7.794,0,0,0,1.386,4.436l.66.953v10.342Z" transform="translate(-6.977 -230.247)" fill="#ed6445"/>
      <path id="Trazado_1041950" data-name="Trazado 1041950" d="M142.137,367.16,140.091,360h-2.046L136,367.16Z" transform="translate(-104.658 -293.041)" fill="#f7c04a"/>
      <path id="Trazado_1041951" data-name="Trazado 1041951" d="M142.137,322.046l-2.046,3.069h-2.046L136,322.046,139.068,320Z" transform="translate(-104.658 -258.155)" fill="#f5a431"/>
      <path id="Trazado_1041952" data-name="Trazado 1041952" d="M192,448h11.251v3.068H192Z" transform="translate(-153.498 -369.79)" fill="#445496"/>
      <rect id="Rect치ngulo_415654" data-name="Rect치ngulo 415654" width="25.128" height="12.564" rx="6.282" transform="translate(50.9 43.544)" fill="#4e96ed"/>
      <rect id="Rect치ngulo_415655" data-name="Rect치ngulo 415655" width="23.732" height="13.96" rx="6.98" transform="translate(45.316 25.396)" fill="#4e96ed"/>
      <circle id="Elipse_13130" data-name="Elipse 13130" cx="2.094" cy="2.094" r="2.094" transform="translate(48.108 29.584)" fill="#96cffa"/>
      <circle id="Elipse_13131" data-name="Elipse 13131" cx="2.094" cy="2.094" r="2.094" transform="translate(67.652 47.732)" fill="#96cffa"/>
      <path id="Trazado_1041953" data-name="Trazado 1041953" d="M80,53.114,95.342,48V58.228Z" transform="translate(-55.818 -20.932)" fill="#f7c04a"/>
      <path id="Trazado_1041954" data-name="Trazado 1041954" d="M136.183,240v6.137l-4.091,4.091L128,246.137V240Z" transform="translate(-97.681 -188.384)" fill="#ffceb6"/>
      <path id="Trazado_1041955" data-name="Trazado 1041955" d="M128,184v8.183a5.114,5.114,0,1,0,10.228,0V184Z" transform="translate(-97.681 -139.543)" fill="#ffceb6"/>
      <path id="Trazado_1041956" data-name="Trazado 1041956" d="M116.091,164.091l1.374,1.374a5.786,5.786,0,0,0,4.091,1.695h0a5.786,5.786,0,0,0,5.786-5.786V160H115.926a3.926,3.926,0,0,0-3.266,6.1l1.386,2.08Z" transform="translate(-83.726 -118.612)" fill="#b36f42"/>
      <path id="Trazado_1041957" data-name="Trazado 1041957" d="M91.958,388.38,89.877,386.3a3.371,3.371,0,0,0-3.636-.746l-4.511,1.8H72.525l-2.939-4.2-6.366,5.3,2.056,2.969a7.16,7.16,0,0,0,5.887,3.084H82.753l4.091-3.069h5.114Z" transform="translate(-41.182 -313.238)" fill="#ffceb6"/>
      <path id="Trazado_1041958" data-name="Trazado 1041958" d="M285.662,312l-9.205,20.457H256L265.205,312Z" transform="translate(-209.315 -251.178)" fill="#56679c"/>
      <ellipse id="Elipse_13132" data-name="Elipse 13132" cx="1.396" cy="2.094" rx="1.396" ry="2.094" transform="translate(60.672 68.672)" fill="#2c3e91"/>
      <path id="Trazado_1041959" data-name="Trazado 1041959" d="M67.141,193.936a1.023,1.023,0,0,0,.933-.6l9.205-20.457a1.023,1.023,0,0,0-.933-1.443H55.89a1.023,1.023,0,0,0-.933.6l-1.614,3.586-5.76-5.76a5.08,5.08,0,0,0-3.616-1.5H40a6.112,6.112,0,0,0,1.568-4.091v-4.192a6.807,6.807,0,0,0,3.068-5.685v-1.374A1.023,1.023,0,0,0,43.616,152H32.2a4.948,4.948,0,0,0-4.117,7.693l1.215,1.822v6.85h-4.48A8.817,8.817,0,0,0,17.567,182.2l.478.69v11.045h2.046v-8.09l3.161,4.565a8.184,8.184,0,0,0,6.728,3.525Zm-22.5-2.046L46,190.867h.481l-.46,1.023Zm11.912-18.411H74.765L66.48,191.89H48.266Zm-10.415-2.17,6.309,6.309-2.562,5.693-5.491-6.406a1.023,1.023,0,0,0-1.8.666v6.263l-2.243.9h-2.1l-1.7-5.963.987-1.48,1.352,1.082a1.023,1.023,0,0,0,1.662-.8v-7.16h3.419A3.048,3.048,0,0,1,46.137,171.31Zm.529,11.39c-.117-.009-.236-.015-.355-.015a4.375,4.375,0,0,0-1.632.314l-.04.016v-2.68ZM30.319,170.835l2.56,2.56-2.56,2.048Zm1.023-1.991a6.112,6.112,0,0,0,4.091,1.568,6.174,6.174,0,0,0,.631-.032l-1.654,1.654-3.068-3.068Zm4.6,4.551,2.56-2.56v4.608Zm-1.531,1.395L35.93,176l-1.044,1.566h-.951L32.891,176Zm-.251,4.827h.5l1.461,5.114H32.7ZM32.2,154.046H42.593v.351a4.763,4.763,0,0,1-8.131,3.368l-1.374-1.374a1.023,1.023,0,0,0-1.638.266l-1.257,2.515-.409-.613a2.9,2.9,0,0,1,2.415-4.513Zm-.857,7.4,1.3-2.606.37.37a6.814,6.814,0,0,0,6.509,1.781v3.282a4.091,4.091,0,0,1-8.183,0Zm-6.526,8.964h3.457v7.16a1.023,1.023,0,0,0,1.662.8l1.352-1.082.987,1.48-1.326,4.64-5.928-8.469-1.676,1.173,3.681,5.259-4.784,3.987-2.992-4.322a6.771,6.771,0,0,1,5.567-10.625ZM29.98,191.89a6.138,6.138,0,0,1-5.045-2.643l-1.524-2.2,4.793-3.994,2.3,3.288a1.023,1.023,0,0,0,.838.436h9.205a1.023,1.023,0,0,0,.38-.073l4.511-1.8a2.349,2.349,0,0,1,2.533.52l.665.665L47.4,188.822H45.662a1.023,1.023,0,0,0-.614.2L41.23,191.89Z" transform="translate(0 -111.635)"/>
      <path id="Trazado_1041960" data-name="Trazado 1041960" d="M355.069,374.137A3.069,3.069,0,1,0,352,371.069,3.069,3.069,0,0,0,355.069,374.137Zm0-4.091a1.023,1.023,0,1,1-1.023,1.023A1.023,1.023,0,0,1,355.069,370.046Z" transform="translate(-293.041 -300.018)"/>
      <path id="Trazado_1041961" data-name="Trazado 1041961" d="M304.548,168H283.068A3.072,3.072,0,0,0,280,171.068v9.205a3.072,3.072,0,0,0,3.069,3.068h21.479a3.072,3.072,0,0,0,3.068-3.068v-9.205A3.072,3.072,0,0,0,304.548,168Zm1.023,12.274a1.024,1.024,0,0,1-1.023,1.023H283.068a1.024,1.024,0,0,1-1.023-1.023v-9.205a1.024,1.024,0,0,1,1.023-1.023h21.479a1.024,1.024,0,0,1,1.023,1.023Z" transform="translate(-230.247 -125.589)"/>
      <path id="Trazado_1041962" data-name="Trazado 1041962" d="M258.594,37.3V27.068A3.072,3.072,0,0,0,255.525,24H235.068A3.072,3.072,0,0,0,232,27.068V37.3a3.072,3.072,0,0,0,3.068,3.068h20.457A3.072,3.072,0,0,0,258.594,37.3Zm-24.548,0V27.068a1.024,1.024,0,0,1,1.023-1.023h20.457a1.024,1.024,0,0,1,1.023,1.023V37.3a1.024,1.024,0,0,1-1.023,1.023H235.068A1.024,1.024,0,0,1,234.046,37.3Z" transform="translate(-188.384 0)"/>
      <path id="Trazado_1041963" data-name="Trazado 1041963" d="M267.068,56a3.068,3.068,0,1,0,3.068,3.068A3.068,3.068,0,0,0,267.068,56Zm0,4.091a1.023,1.023,0,1,1,1.023-1.023,1.023,1.023,0,0,1-1.023,1.023Z" transform="translate(-216.293 -27.909)"/>
      <path id="Trazado_1041964" data-name="Trazado 1041964" d="M328,64h2.046v2.046H328Z" transform="translate(-272.11 -34.886)"/>
      <path id="Trazado_1041965" data-name="Trazado 1041965" d="M360,64h6.137v2.046H360Z" transform="translate(-300.019 -34.886)"/>
      <path id="Trazado_1041966" data-name="Trazado 1041966" d="M328,96h6.137v2.046H328Z" transform="translate(-272.11 -62.795)"/>
      <path id="Trazado_1041967" data-name="Trazado 1041967" d="M419.069,200a3.068,3.068,0,1,0,3.068,3.068A3.069,3.069,0,0,0,419.069,200Zm0,4.091a1.023,1.023,0,1,1,1.023-1.023A1.023,1.023,0,0,1,419.069,204.091Z" transform="translate(-348.859 -153.498)"/>
      <path id="Trazado_1041968" data-name="Trazado 1041968" d="M368,208h4.091v2.046H368Z" transform="translate(-306.996 -160.475)"/>
      <path id="Trazado_1041969" data-name="Trazado 1041969" d="M312,208h5.114v2.046H312Z" transform="translate(-258.156 -160.475)"/>
      <path id="Trazado_1041970" data-name="Trazado 1041970" d="M328,240h9.205v2.046H328Z" transform="translate(-272.11 -188.384)"/>
      <path id="Trazado_1041971" data-name="Trazado 1041971" d="M88.042,40.052,72.7,45.166a1.023,1.023,0,0,0,0,1.941l15.342,5.114a1.023,1.023,0,0,0,1.346-.97V41.023a1.023,1.023,0,0,0-1.346-.97ZM76.257,46.137l11.085-3.7v2.672H82.228v2.046h5.114v2.672Z" transform="translate(-48.84 -13.954)"/>
    </g>
  </g>
</svg>
